G04 start of page 10 for group -4015 idx -4015 *
G04 Title: (unknown), toppaste *
G04 Creator: pcb 4.2.0 *
G04 CreationDate: Mon Mar  2 00:57:09 2020 UTC *
G04 For: blinken *
G04 Format: Gerber/RS-274X *
G04 PCB-Dimensions (mm): 90.16 90.16 *
G04 PCB-Coordinate-Origin: lower left *
%MOMM*%
%FSLAX43Y43*%
%LNTOPPASTE*%
%ADD96C,1.000*%
%ADD95C,0.002*%
G54D95*G36*
X22000Y83260D02*X21000D01*
Y81760D01*
X22000D01*
Y83260D01*
G37*
G36*
X20400D02*X19400D01*
Y81760D01*
X20400D01*
Y83260D01*
G37*
G36*
X23600Y78360D02*X22600D01*
Y76860D01*
X23600D01*
Y78360D01*
G37*
G36*
X22000D02*X21000D01*
Y76860D01*
X22000D01*
Y78360D01*
G37*
G36*
X20400D02*X19400D01*
Y76860D01*
X20400D01*
Y78360D01*
G37*
G36*
X23600Y83260D02*X22600D01*
Y81760D01*
X23600D01*
Y83260D01*
G37*
G36*
X38000Y87760D02*X37000D01*
Y86260D01*
X38000D01*
Y87760D01*
G37*
G36*
X36400D02*X35400D01*
Y86260D01*
X36400D01*
Y87760D01*
G37*
G36*
X39600Y82860D02*X38600D01*
Y81360D01*
X39600D01*
Y82860D01*
G37*
G36*
X38000D02*X37000D01*
Y81360D01*
X38000D01*
Y82860D01*
G37*
G36*
X36400D02*X35400D01*
Y81360D01*
X36400D01*
Y82860D01*
G37*
G36*
X39600Y87760D02*X38600D01*
Y86260D01*
X39600D01*
Y87760D01*
G37*
G36*
X43400Y87660D02*X42400D01*
Y86160D01*
X43400D01*
Y87660D01*
G37*
G36*
X41800D02*X40800D01*
Y86160D01*
X41800D01*
Y87660D01*
G37*
G36*
X45000Y82760D02*X44000D01*
Y81260D01*
X45000D01*
Y82760D01*
G37*
G36*
X43400D02*X42400D01*
Y81260D01*
X43400D01*
Y82760D01*
G37*
G36*
X41800D02*X40800D01*
Y81260D01*
X41800D01*
Y82760D01*
G37*
G36*
X45000Y87660D02*X44000D01*
Y86160D01*
X45000D01*
Y87660D01*
G37*
G36*
X48700Y86560D02*X47700D01*
Y85060D01*
X48700D01*
Y86560D01*
G37*
G36*
X47100D02*X46100D01*
Y85060D01*
X47100D01*
Y86560D01*
G37*
G36*
X50300Y81660D02*X49300D01*
Y80160D01*
X50300D01*
Y81660D01*
G37*
G36*
X48700D02*X47700D01*
Y80160D01*
X48700D01*
Y81660D01*
G37*
G36*
X47100D02*X46100D01*
Y80160D01*
X47100D01*
Y81660D01*
G37*
G36*
X50300Y86560D02*X49300D01*
Y85060D01*
X50300D01*
Y86560D01*
G37*
G36*
X59400Y83360D02*X58400D01*
Y81860D01*
X59400D01*
Y83360D01*
G37*
G36*
X57800D02*X56800D01*
Y81860D01*
X57800D01*
Y83360D01*
G37*
G36*
X61000Y78460D02*X60000D01*
Y76960D01*
X61000D01*
Y78460D01*
G37*
G36*
X59400D02*X58400D01*
Y76960D01*
X59400D01*
Y78460D01*
G37*
G36*
X57800D02*X56800D01*
Y76960D01*
X57800D01*
Y78460D01*
G37*
G36*
X61000Y83360D02*X60000D01*
Y81860D01*
X61000D01*
Y83360D01*
G37*
G36*
X73800Y62860D02*Y61860D01*
X75300D01*
Y62860D01*
X73800D01*
G37*
G36*
Y64460D02*Y63460D01*
X75300D01*
Y64460D01*
X73800D01*
G37*
G36*
X68900Y61260D02*Y60260D01*
X70400D01*
Y61260D01*
X68900D01*
G37*
G36*
Y62860D02*Y61860D01*
X70400D01*
Y62860D01*
X68900D01*
G37*
G36*
Y64460D02*Y63460D01*
X70400D01*
Y64460D01*
X68900D01*
G37*
G36*
X73800Y61260D02*Y60260D01*
X75300D01*
Y61260D01*
X73800D01*
G37*
G36*
X75300Y57560D02*Y56560D01*
X76800D01*
Y57560D01*
X75300D01*
G37*
G36*
Y59160D02*Y58160D01*
X76800D01*
Y59160D01*
X75300D01*
G37*
G36*
X70400Y55960D02*Y54960D01*
X71900D01*
Y55960D01*
X70400D01*
G37*
G36*
Y57560D02*Y56560D01*
X71900D01*
Y57560D01*
X70400D01*
G37*
G36*
Y59160D02*Y58160D01*
X71900D01*
Y59160D01*
X70400D01*
G37*
G36*
X75300Y55960D02*Y54960D01*
X76800D01*
Y55960D01*
X75300D01*
G37*
G36*
X76100Y52360D02*Y51360D01*
X77600D01*
Y52360D01*
X76100D01*
G37*
G36*
Y53960D02*Y52960D01*
X77600D01*
Y53960D01*
X76100D01*
G37*
G36*
X71200Y50760D02*Y49760D01*
X72700D01*
Y50760D01*
X71200D01*
G37*
G36*
Y52360D02*Y51360D01*
X72700D01*
Y52360D01*
X71200D01*
G37*
G36*
Y53960D02*Y52960D01*
X72700D01*
Y53960D01*
X71200D01*
G37*
G36*
X76100Y50760D02*Y49760D01*
X77600D01*
Y50760D01*
X76100D01*
G37*
G36*
Y47160D02*Y46160D01*
X77600D01*
Y47160D01*
X76100D01*
G37*
G36*
Y48760D02*Y47760D01*
X77600D01*
Y48760D01*
X76100D01*
G37*
G36*
X71200Y45560D02*Y44560D01*
X72700D01*
Y45560D01*
X71200D01*
G37*
G36*
Y47160D02*Y46160D01*
X72700D01*
Y47160D01*
X71200D01*
G37*
G36*
Y48760D02*Y47760D01*
X72700D01*
Y48760D01*
X71200D01*
G37*
G36*
X76100Y45560D02*Y44560D01*
X77600D01*
Y45560D01*
X76100D01*
G37*
G36*
X75100Y41760D02*Y40760D01*
X76600D01*
Y41760D01*
X75100D01*
G37*
G36*
Y43360D02*Y42360D01*
X76600D01*
Y43360D01*
X75100D01*
G37*
G36*
X70200Y40160D02*Y39160D01*
X71700D01*
Y40160D01*
X70200D01*
G37*
G36*
Y41760D02*Y40760D01*
X71700D01*
Y41760D01*
X70200D01*
G37*
G36*
Y43360D02*Y42360D01*
X71700D01*
Y43360D01*
X70200D01*
G37*
G36*
X75100Y40160D02*Y39160D01*
X76600D01*
Y40160D01*
X75100D01*
G37*
G36*
X72300Y36460D02*Y35460D01*
X73800D01*
Y36460D01*
X72300D01*
G37*
G36*
Y38060D02*Y37060D01*
X73800D01*
Y38060D01*
X72300D01*
G37*
G36*
X67400Y34860D02*Y33860D01*
X68900D01*
Y34860D01*
X67400D01*
G37*
G36*
Y36460D02*Y35460D01*
X68900D01*
Y36460D01*
X67400D01*
G37*
G36*
Y38060D02*Y37060D01*
X68900D01*
Y38060D01*
X67400D01*
G37*
G36*
X72300Y34860D02*Y33860D01*
X73800D01*
Y34860D01*
X72300D01*
G37*
G36*
X70500Y31060D02*Y30060D01*
X72000D01*
Y31060D01*
X70500D01*
G37*
G36*
Y32660D02*Y31660D01*
X72000D01*
Y32660D01*
X70500D01*
G37*
G36*
X65600Y29460D02*Y28460D01*
X67100D01*
Y29460D01*
X65600D01*
G37*
G36*
Y31060D02*Y30060D01*
X67100D01*
Y31060D01*
X65600D01*
G37*
G36*
Y32660D02*Y31660D01*
X67100D01*
Y32660D01*
X65600D01*
G37*
G36*
X70500Y29460D02*Y28460D01*
X72000D01*
Y29460D01*
X70500D01*
G37*
G36*
X65631Y24206D02*X64924Y23499D01*
X65985Y22438D01*
X66692Y23145D01*
X65631Y24206D01*
G37*
G36*
X66763Y25337D02*X66056Y24630D01*
X67116Y23569D01*
X67823Y24277D01*
X66763Y25337D01*
G37*
G36*
X61035Y26539D02*X60328Y25832D01*
X61389Y24771D01*
X62096Y25478D01*
X61035Y26539D01*
G37*
G36*
X62166Y27671D02*X61459Y26963D01*
X62520Y25903D01*
X63227Y26610D01*
X62166Y27671D01*
G37*
G36*
X63298Y28802D02*X62591Y28095D01*
X63652Y27034D01*
X64359Y27741D01*
X63298Y28802D01*
G37*
G36*
X64500Y23074D02*X63793Y22367D01*
X64854Y21307D01*
X65561Y22014D01*
X64500Y23074D01*
G37*
G36*
X59400Y18860D02*X58400D01*
Y17360D01*
X59400D01*
Y18860D01*
G37*
G36*
X61000D02*X60000D01*
Y17360D01*
X61000D01*
Y18860D01*
G37*
G36*
X57800Y23760D02*X56800D01*
Y22260D01*
X57800D01*
Y23760D01*
G37*
G36*
X59400D02*X58400D01*
Y22260D01*
X59400D01*
Y23760D01*
G37*
G36*
X61000D02*X60000D01*
Y22260D01*
X61000D01*
Y23760D01*
G37*
G36*
X57800Y18860D02*X56800D01*
Y17360D01*
X57800D01*
Y18860D01*
G37*
G36*
X53800Y17060D02*X52800D01*
Y15560D01*
X53800D01*
Y17060D01*
G37*
G36*
X55400D02*X54400D01*
Y15560D01*
X55400D01*
Y17060D01*
G37*
G36*
X52200Y21960D02*X51200D01*
Y20460D01*
X52200D01*
Y21960D01*
G37*
G36*
X53800D02*X52800D01*
Y20460D01*
X53800D01*
Y21960D01*
G37*
G36*
X55400D02*X54400D01*
Y20460D01*
X55400D01*
Y21960D01*
G37*
G36*
X52200Y17060D02*X51200D01*
Y15560D01*
X52200D01*
Y17060D01*
G37*
G36*
X48600Y15060D02*X47600D01*
Y13560D01*
X48600D01*
Y15060D01*
G37*
G36*
X50200D02*X49200D01*
Y13560D01*
X50200D01*
Y15060D01*
G37*
G36*
X47000Y19960D02*X46000D01*
Y18460D01*
X47000D01*
Y19960D01*
G37*
G36*
X48600D02*X47600D01*
Y18460D01*
X48600D01*
Y19960D01*
G37*
G36*
X50200D02*X49200D01*
Y18460D01*
X50200D01*
Y19960D01*
G37*
G36*
X47000Y15060D02*X46000D01*
Y13560D01*
X47000D01*
Y15060D01*
G37*
G36*
X43000Y14060D02*X42000D01*
Y12560D01*
X43000D01*
Y14060D01*
G37*
G36*
X44600D02*X43600D01*
Y12560D01*
X44600D01*
Y14060D01*
G37*
G36*
X41400Y18960D02*X40400D01*
Y17460D01*
X41400D01*
Y18960D01*
G37*
G36*
X43000D02*X42000D01*
Y17460D01*
X43000D01*
Y18960D01*
G37*
G36*
X44600D02*X43600D01*
Y17460D01*
X44600D01*
Y18960D01*
G37*
G36*
X41400Y14060D02*X40400D01*
Y12560D01*
X41400D01*
Y14060D01*
G37*
G36*
X32300Y15160D02*X31300D01*
Y13660D01*
X32300D01*
Y15160D01*
G37*
G36*
X33900D02*X32900D01*
Y13660D01*
X33900D01*
Y15160D01*
G37*
G36*
X30700Y20060D02*X29700D01*
Y18560D01*
X30700D01*
Y20060D01*
G37*
G36*
X32300D02*X31300D01*
Y18560D01*
X32300D01*
Y20060D01*
G37*
G36*
X33900D02*X32900D01*
Y18560D01*
X33900D01*
Y20060D01*
G37*
G36*
X30700Y15160D02*X29700D01*
Y13660D01*
X30700D01*
Y15160D01*
G37*
G36*
X27100Y16860D02*X26100D01*
Y15360D01*
X27100D01*
Y16860D01*
G37*
G36*
X28700D02*X27700D01*
Y15360D01*
X28700D01*
Y16860D01*
G37*
G36*
X25500Y21760D02*X24500D01*
Y20260D01*
X25500D01*
Y21760D01*
G37*
G36*
X27100D02*X26100D01*
Y20260D01*
X27100D01*
Y21760D01*
G37*
G36*
X28700D02*X27700D01*
Y20260D01*
X28700D01*
Y21760D01*
G37*
G36*
X25500Y16860D02*X24500D01*
Y15360D01*
X25500D01*
Y16860D01*
G37*
G36*
X21800Y18760D02*X20800D01*
Y17260D01*
X21800D01*
Y18760D01*
G37*
G36*
X23400D02*X22400D01*
Y17260D01*
X23400D01*
Y18760D01*
G37*
G36*
X20200Y23660D02*X19200D01*
Y22160D01*
X20200D01*
Y23660D01*
G37*
G36*
X21800D02*X20800D01*
Y22160D01*
X21800D01*
Y23660D01*
G37*
G36*
X23400D02*X22400D01*
Y22160D01*
X23400D01*
Y23660D01*
G37*
G36*
X20200Y18760D02*X19200D01*
Y17260D01*
X20200D01*
Y18760D01*
G37*
G36*
X14680Y23618D02*X13973Y24325D01*
X12912Y23264D01*
X13619Y22557D01*
X14680Y23618D01*
G37*
G36*
X15811Y22486D02*X15104Y23193D01*
X14043Y22133D01*
X14750Y21426D01*
X15811Y22486D01*
G37*
G36*
X17013Y28214D02*X16306Y28921D01*
X15245Y27860D01*
X15952Y27153D01*
X17013Y28214D01*
G37*
G36*
X18144Y27082D02*X17437Y27790D01*
X16377Y26729D01*
X17084Y26022D01*
X18144Y27082D01*
G37*
G36*
X19276Y25951D02*X18569Y26658D01*
X17508Y25597D01*
X18215Y24890D01*
X19276Y25951D01*
G37*
G36*
X13548Y24749D02*X12841Y25456D01*
X11781Y24395D01*
X12488Y23688D01*
X13548Y24749D01*
G37*
G36*
X7400Y31260D02*X7400Y30260D01*
X8900Y30260D01*
X8900Y31260D01*
X7400Y31260D01*
G37*
G36*
X7400Y29660D02*Y28660D01*
X8900D01*
Y29660D01*
X7400D01*
G37*
G36*
X12300Y32860D02*X12300Y31860D01*
X13800Y31860D01*
X13800Y32860D01*
X12300Y32860D01*
G37*
G36*
X12300Y31260D02*Y30260D01*
X13800D01*
Y31260D01*
X12300D01*
G37*
G36*
Y29660D02*Y28660D01*
X13800D01*
Y29660D01*
X12300D01*
G37*
G36*
X7400Y32860D02*Y31860D01*
X8900D01*
Y32860D01*
X7400D01*
G37*
G36*
X5900Y36760D02*X5900Y35760D01*
X7400Y35760D01*
X7400Y36760D01*
X5900Y36760D01*
G37*
G36*
X5900Y35160D02*Y34160D01*
X7400D01*
Y35160D01*
X5900D01*
G37*
G36*
X10800Y38360D02*X10800Y37360D01*
X12300Y37360D01*
X12300Y38360D01*
X10800Y38360D01*
G37*
G36*
X10800Y36760D02*Y35760D01*
X12300D01*
Y36760D01*
X10800D01*
G37*
G36*
Y35160D02*Y34160D01*
X12300D01*
Y35160D01*
X10800D01*
G37*
G36*
X5900Y38360D02*Y37360D01*
X7400D01*
Y38360D01*
X5900D01*
G37*
G36*
X3600Y42060D02*X3600Y41060D01*
X5100Y41060D01*
X5100Y42060D01*
X3600Y42060D01*
G37*
G36*
X3600Y40460D02*Y39460D01*
X5100D01*
Y40460D01*
X3600D01*
G37*
G36*
X8500Y43660D02*X8500Y42660D01*
X10000Y42660D01*
X10000Y43660D01*
X8500Y43660D01*
G37*
G36*
X8500Y42060D02*Y41060D01*
X10000D01*
Y42060D01*
X8500D01*
G37*
G36*
Y40460D02*Y39460D01*
X10000D01*
Y40460D01*
X8500D01*
G37*
G36*
X3600Y43660D02*Y42660D01*
X5100D01*
Y43660D01*
X3600D01*
G37*
G36*
X2600Y47210D02*X2600Y46210D01*
X4100Y46210D01*
X4100Y47210D01*
X2600Y47210D01*
G37*
G36*
X2600Y45610D02*Y44610D01*
X4100D01*
Y45610D01*
X2600D01*
G37*
G36*
X7500Y48810D02*X7500Y47810D01*
X9000Y47810D01*
X9000Y48810D01*
X7500Y48810D01*
G37*
G36*
X7500Y47210D02*Y46210D01*
X9000D01*
Y47210D01*
X7500D01*
G37*
G36*
Y45610D02*Y44610D01*
X9000D01*
Y45610D01*
X7500D01*
G37*
G36*
X2600Y48810D02*Y47810D01*
X4100D01*
Y48810D01*
X2600D01*
G37*
G36*
X2400Y52310D02*X2400Y51310D01*
X3900Y51310D01*
X3900Y52310D01*
X2400Y52310D01*
G37*
G36*
X2400Y50710D02*Y49710D01*
X3900D01*
Y50710D01*
X2400D01*
G37*
G36*
X7300Y53910D02*X7300Y52910D01*
X8800Y52910D01*
X8800Y53910D01*
X7300Y53910D01*
G37*
G36*
X7300Y52310D02*Y51310D01*
X8800D01*
Y52310D01*
X7300D01*
G37*
G36*
Y50710D02*Y49710D01*
X8800D01*
Y50710D01*
X7300D01*
G37*
G36*
X2400Y53910D02*Y52910D01*
X3900D01*
Y53910D01*
X2400D01*
G37*
G36*
X3100Y57510D02*X3100Y56510D01*
X4600Y56510D01*
X4600Y57510D01*
X3100Y57510D01*
G37*
G36*
X3100Y55910D02*Y54910D01*
X4600D01*
Y55910D01*
X3100D01*
G37*
G36*
X8000Y59110D02*X8000Y58110D01*
X9500Y58110D01*
X9500Y59110D01*
X8000Y59110D01*
G37*
G36*
X8000Y57510D02*Y56510D01*
X9500D01*
Y57510D01*
X8000D01*
G37*
G36*
Y55910D02*Y54910D01*
X9500D01*
Y55910D01*
X8000D01*
G37*
G36*
X3100Y59110D02*Y58110D01*
X4600D01*
Y59110D01*
X3100D01*
G37*
G36*
X5100Y62860D02*X5100Y61860D01*
X6600Y61860D01*
X6600Y62860D01*
X5100Y62860D01*
G37*
G36*
X5100Y61260D02*Y60260D01*
X6600D01*
Y61260D01*
X5100D01*
G37*
G36*
X10000Y64460D02*X10000Y63460D01*
X11500Y63460D01*
X11500Y64460D01*
X10000Y64460D01*
G37*
G36*
X10000Y62860D02*Y61860D01*
X11500D01*
Y62860D01*
X10000D01*
G37*
G36*
Y61260D02*Y60260D01*
X11500D01*
Y61260D01*
X10000D01*
G37*
G36*
X5100Y64460D02*Y63460D01*
X6600D01*
Y64460D01*
X5100D01*
G37*
G36*
X36592Y37127D02*Y35627D01*
X40392D01*
Y37127D01*
X36592D01*
G37*
G36*
Y34587D02*Y33087D01*
X40392D01*
Y34587D01*
X36592D01*
G37*
G36*
Y32047D02*Y30547D01*
X40392D01*
Y32047D01*
X36592D01*
G37*
G36*
Y29507D02*Y28007D01*
X40392D01*
Y29507D01*
X36592D01*
G37*
G36*
X22636Y37254D02*Y35754D01*
X26436D01*
Y37254D01*
X22636D01*
G37*
G36*
Y34714D02*Y33214D01*
X26436D01*
Y34714D01*
X22636D01*
G37*
G36*
Y32174D02*Y30674D01*
X26436D01*
Y32174D01*
X22636D01*
G37*
G36*
Y29634D02*Y28134D01*
X26436D01*
Y29634D01*
X22636D01*
G37*
G36*
X41227Y34779D02*Y33779D01*
X46037D01*
Y34779D01*
X41227D01*
G37*
G36*
Y37319D02*Y36319D01*
X46037D01*
Y37319D01*
X41227D01*
G37*
G36*
Y39859D02*Y38859D01*
X46037D01*
Y39859D01*
X41227D01*
G37*
G36*
Y42399D02*Y41399D01*
X46037D01*
Y42399D01*
X41227D01*
G37*
G36*
Y44939D02*Y43939D01*
X46037D01*
Y44939D01*
X41227D01*
G37*
G36*
Y47479D02*Y46479D01*
X46037D01*
Y47479D01*
X41227D01*
G37*
G36*
X58037Y34779D02*Y33779D01*
X62847D01*
Y34779D01*
X58037D01*
G37*
G36*
Y37319D02*Y36319D01*
X62847D01*
Y37319D01*
X58037D01*
G37*
G36*
Y39859D02*Y38859D01*
X62847D01*
Y39859D01*
X58037D01*
G37*
G36*
Y42399D02*Y41399D01*
X62847D01*
Y42399D01*
X58037D01*
G37*
G36*
Y44939D02*Y43939D01*
X62847D01*
Y44939D01*
X58037D01*
G37*
G36*
Y47479D02*Y46479D01*
X62847D01*
Y47479D01*
X58037D01*
G37*
G36*
X65447Y84345D02*Y83045D01*
X67347D01*
Y84345D01*
X65447D01*
G37*
G36*
Y81346D02*Y80046D01*
X67347D01*
Y81346D01*
X65447D01*
G37*
G36*
X67720Y84340D02*Y83040D01*
X69620D01*
Y84340D01*
X67720D01*
G37*
G36*
Y81340D02*Y80040D01*
X69620D01*
Y81340D01*
X67720D01*
G37*
G36*
X66620Y87300D02*X65320D01*
Y85400D01*
X66620D01*
Y87300D01*
G37*
G36*
X69620D02*X68320D01*
Y85400D01*
X69620D01*
Y87300D01*
G37*
G36*
X27090Y85020D02*X26090D01*
Y83520D01*
X27090D01*
Y85020D01*
G37*
G36*
X25490D02*X24490D01*
Y83520D01*
X25490D01*
Y85020D01*
G37*
G36*
X28690Y80120D02*X27690D01*
Y78620D01*
X28690D01*
Y80120D01*
G37*
G36*
X27090D02*X26090D01*
Y78620D01*
X27090D01*
Y80120D01*
G37*
G36*
X25490D02*X24490D01*
Y78620D01*
X25490D01*
Y80120D01*
G37*
G36*
X28690Y85020D02*X27690D01*
Y83520D01*
X28690D01*
Y85020D01*
G37*
G36*
X32500Y86760D02*X31500D01*
Y85260D01*
X32500D01*
Y86760D01*
G37*
G36*
X30900D02*X29900D01*
Y85260D01*
X30900D01*
Y86760D01*
G37*
G36*
X34100Y81860D02*X33100D01*
Y80360D01*
X34100D01*
Y81860D01*
G37*
G36*
X32500D02*X31500D01*
Y80360D01*
X32500D01*
Y81860D01*
G37*
G36*
X30900D02*X29900D01*
Y80360D01*
X30900D01*
Y81860D01*
G37*
G36*
X34100Y86760D02*X33100D01*
Y85260D01*
X34100D01*
Y86760D01*
G37*
G36*
X35920Y57244D02*Y55944D01*
X37820D01*
Y57244D01*
X35920D01*
G37*
G36*
Y60243D02*Y58943D01*
X37820D01*
Y60243D01*
X35920D01*
G37*
G36*
X32135Y57237D02*Y55937D01*
X34035D01*
Y57237D01*
X32135D01*
G37*
G36*
Y60237D02*Y58937D01*
X34035D01*
Y60237D01*
X32135D01*
G37*
G36*
X39784Y60234D02*Y58934D01*
X41684D01*
Y60234D01*
X39784D01*
G37*
G36*
Y57234D02*Y55934D01*
X41684D01*
Y57234D01*
X39784D01*
G37*
G36*
X28339Y57241D02*Y55941D01*
X30239D01*
Y57241D01*
X28339D01*
G37*
G36*
Y60241D02*Y58941D01*
X30239D01*
Y60241D01*
X28339D01*
G37*
G36*
X49581Y62117D02*X48431D01*
Y58817D01*
X49581D01*
Y62117D01*
G37*
G36*
X52121D02*X50971D01*
Y58817D01*
X52121D01*
Y62117D01*
G37*
G36*
X54661D02*X53511D01*
Y58817D01*
X54661D01*
Y62117D01*
G37*
G36*
X57201D02*X56051D01*
Y58817D01*
X57201D01*
Y62117D01*
G37*
G36*
X59741D02*X58591D01*
Y58817D01*
X59741D01*
Y62117D01*
G37*
G36*
X62281D02*X61131D01*
Y58817D01*
X62281D01*
Y62117D01*
G37*
G36*
X49581Y54217D02*X48431D01*
Y50917D01*
X49581D01*
Y54217D01*
G37*
G36*
X52121D02*X50971D01*
Y50917D01*
X52121D01*
Y54217D01*
G37*
G36*
X54661D02*X53511D01*
Y50917D01*
X54661D01*
Y54217D01*
G37*
G36*
X57201D02*X56051D01*
Y50917D01*
X57201D01*
Y54217D01*
G37*
G36*
X59741D02*X58591D01*
Y50917D01*
X59741D01*
Y54217D01*
G37*
G36*
X62281D02*X61131D01*
Y50917D01*
X62281D01*
Y54217D01*
G37*
G36*
X16301Y61345D02*Y60945D01*
X16801D01*
Y61345D01*
X16301D01*
G37*
G36*
Y61995D02*Y61595D01*
X16801D01*
Y61995D01*
X16301D01*
G37*
G36*
Y62645D02*Y62245D01*
X16801D01*
Y62645D01*
X16301D01*
G37*
G36*
X14451D02*Y62245D01*
X14951D01*
Y62645D01*
X14451D01*
G37*
G36*
Y61995D02*Y61595D01*
X14951D01*
Y61995D01*
X14451D01*
G37*
G36*
Y61345D02*Y60945D01*
X14951D01*
Y61345D01*
X14451D01*
G37*
G36*
X54000Y84760D02*X53000D01*
Y83260D01*
X54000D01*
Y84760D01*
G37*
G36*
X52400D02*X51400D01*
Y83260D01*
X52400D01*
Y84760D01*
G37*
G36*
X55600Y79860D02*X54600D01*
Y78360D01*
X55600D01*
Y79860D01*
G37*
G36*
X54000D02*X53000D01*
Y78360D01*
X54000D01*
Y79860D01*
G37*
G36*
X52400D02*X51400D01*
Y78360D01*
X52400D01*
Y79860D01*
G37*
G36*
X55600Y84760D02*X54600D01*
Y83260D01*
X55600D01*
Y84760D01*
G37*
G36*
X37500Y13960D02*X36500D01*
Y12460D01*
X37500D01*
Y13960D01*
G37*
G36*
X39100D02*X38100D01*
Y12460D01*
X39100D01*
Y13960D01*
G37*
G36*
X35900Y18860D02*X34900D01*
Y17360D01*
X35900D01*
Y18860D01*
G37*
G36*
X37500D02*X36500D01*
Y17360D01*
X37500D01*
Y18860D01*
G37*
G36*
X39100D02*X38100D01*
Y17360D01*
X39100D01*
Y18860D01*
G37*
G36*
X35900Y13960D02*X34900D01*
Y12460D01*
X35900D01*
Y13960D01*
G37*
G36*
X9510Y72320D02*X8510Y72320D01*
X8510Y70820D01*
X9510Y70820D01*
X9510Y72320D01*
G37*
G36*
X7910Y72320D02*X6910D01*
Y70820D01*
X7910D01*
Y72320D01*
G37*
G36*
X11110Y67420D02*X10110Y67420D01*
X10110Y65920D01*
X11110Y65920D01*
X11110Y67420D01*
G37*
G36*
X9510Y67420D02*X8510D01*
Y65920D01*
X9510D01*
Y67420D01*
G37*
G36*
X7910D02*X6910D01*
Y65920D01*
X7910D01*
Y67420D01*
G37*
G36*
X11110Y72320D02*X10110D01*
Y70820D01*
X11110D01*
Y72320D01*
G37*
G36*
X12496Y78184D02*X11788Y77477D01*
X12849Y76416D01*
X13556Y77124D01*
X12496Y78184D01*
G37*
G36*
X11364Y77053D02*X10657Y76346D01*
X11718Y75285D01*
X12425Y75992D01*
X11364Y77053D01*
G37*
G36*
X17092Y75851D02*X16385Y75144D01*
X17445Y74083D01*
X18152Y74790D01*
X17092Y75851D01*
G37*
G36*
X15960Y74720D02*X15253Y74012D01*
X16314Y72952D01*
X17021Y73659D01*
X15960Y74720D01*
G37*
G36*
X14829Y73588D02*X14122Y72881D01*
X15183Y71820D01*
X15890Y72527D01*
X14829Y73588D01*
G37*
G36*
X13627Y79316D02*X12920Y78608D01*
X13980Y77548D01*
X14688Y78255D01*
X13627Y79316D01*
G37*
G36*
X69300Y72430D02*X68300D01*
Y70930D01*
X69300D01*
Y72430D01*
G37*
G36*
X67700D02*X66700D01*
Y70930D01*
X67700D01*
Y72430D01*
G37*
G36*
X70900Y67530D02*X69900D01*
Y66030D01*
X70900D01*
Y67530D01*
G37*
G36*
X69300D02*X68300D01*
Y66030D01*
X69300D01*
Y67530D01*
G37*
G36*
X67700D02*X66700D01*
Y66030D01*
X67700D01*
Y67530D01*
G37*
G36*
X70900Y72430D02*X69900D01*
Y70930D01*
X70900D01*
Y72430D01*
G37*
G36*
X66082Y77465D02*X65375Y78172D01*
X64314Y77112D01*
X65021Y76404D01*
X66082Y77465D01*
G37*
G36*
X64951Y78597D02*X64244Y79304D01*
X63183Y78243D01*
X63890Y77536D01*
X64951Y78597D01*
G37*
G36*
X63749Y72869D02*X63042Y73576D01*
X61981Y72515D01*
X62688Y71808D01*
X63749Y72869D01*
G37*
G36*
X62617Y74000D02*X61910Y74707D01*
X60850Y73647D01*
X61557Y72939D01*
X62617Y74000D01*
G37*
G36*
X61486Y75132D02*X60779Y75839D01*
X59718Y74778D01*
X60425Y74071D01*
X61486Y75132D01*
G37*
G36*
X67214Y76334D02*X66506Y77041D01*
X65446Y75980D01*
X66153Y75273D01*
X67214Y76334D01*
G37*
G54D96*X76100Y76390D02*X77500D01*
X71750Y85040D02*X73440D01*
X71750Y76390D02*X73440D01*
X76100Y85040D02*X77500D01*
G54D95*G36*
X71600Y84190D02*Y83590D01*
X72450D01*
Y84190D01*
X71600D01*
G37*
G36*
Y83390D02*Y82790D01*
X72450D01*
Y83390D01*
X71600D01*
G37*
G36*
Y82590D02*Y82290D01*
X72450D01*
Y82590D01*
X71600D01*
G37*
G36*
Y82090D02*Y81790D01*
X72450D01*
Y82090D01*
X71600D01*
G37*
G36*
Y81590D02*Y81290D01*
X72450D01*
Y81590D01*
X71600D01*
G37*
G36*
Y81090D02*Y80790D01*
X72450D01*
Y81090D01*
X71600D01*
G37*
G36*
Y80590D02*Y80290D01*
X72450D01*
Y80590D01*
X71600D01*
G37*
G36*
Y80090D02*Y79790D01*
X72450D01*
Y80090D01*
X71600D01*
G37*
G36*
Y79590D02*Y79290D01*
X72450D01*
Y79590D01*
X71600D01*
G37*
G36*
Y79090D02*Y78790D01*
X72450D01*
Y79090D01*
X71600D01*
G37*
G36*
Y78590D02*Y77990D01*
X72450D01*
Y78590D01*
X71600D01*
G37*
G36*
Y77790D02*Y77190D01*
X72450D01*
Y77790D01*
X71600D01*
G37*
G36*
X74050Y74610D02*Y73110D01*
X77250D01*
Y74610D01*
X74050D01*
G37*
G36*
Y70410D02*Y68910D01*
X77250D01*
Y70410D01*
X74050D01*
G37*
G36*
X64090Y52530D02*Y51230D01*
X65990D01*
Y52530D01*
X64090D01*
G37*
G36*
Y49530D02*Y48230D01*
X65990D01*
Y49530D01*
X64090D01*
G37*
G36*
X64730Y38840D02*Y37540D01*
X66230D01*
Y38840D01*
X64730D01*
G37*
G36*
Y40640D02*Y39340D01*
X66230D01*
Y40640D01*
X64730D01*
G37*
M02*
