G04 start of page 9 for group -4079 idx -4079 *
G04 Title: (unknown), topsilk *
G04 Creator: pcb 4.2.0 *
G04 CreationDate: Thu Mar 26 23:10:16 2020 UTC *
G04 For: blinken *
G04 Format: Gerber/RS-274X *
G04 PCB-Dimensions (mm): 90.16 90.16 *
G04 PCB-Coordinate-Origin: lower left *
%MOMM*%
%FSLAX43Y43*%
%LNTOPSILK*%
%ADD85C,0.203*%
%ADD84C,0.254*%
%ADD83C,0.200*%
%ADD82C,0.250*%
G54D82*X59987Y24132D02*X60994D01*
X62193Y28447D02*X62905Y29159D01*
X66946Y38051D02*Y37044D01*
X65100Y32674D02*Y31667D01*
X54451Y22337D02*X55458D01*
X49158Y20402D02*X50165D01*
X43588Y19412D02*X44594D01*
X38085Y19311D02*X39092D01*
X32869Y20485D02*X33876D01*
X27702Y22197D02*X28708D01*
X70738Y48763D02*Y47756D01*
X69647Y43372D02*Y42365D01*
X70776Y53945D02*Y52938D01*
X35377Y81012D02*X36384D01*
X40762Y80877D02*X41769D01*
X46076Y79854D02*X47082D01*
X51411Y77958D02*X52418D01*
X19405Y76549D02*X20412D01*
X24488Y78277D02*X25495D01*
X29857Y79971D02*X30864D01*
X15439Y71555D02*X16151Y72267D01*
X56815Y76650D02*X57822D01*
X60099Y73644D02*X59387Y74356D01*
X66613Y65620D02*X67620D01*
X68473Y64466D02*Y63459D01*
X69986Y59126D02*Y58119D01*
X6899Y65586D02*X7906D01*
X22390Y24143D02*X23397D01*
X19717Y26317D02*X19005Y27029D01*
X14251Y29681D02*Y28674D01*
X12846Y35190D02*Y34184D01*
X10476Y40433D02*Y39426D01*
X9490Y45643D02*Y44636D01*
X9238Y50727D02*Y49720D01*
X9973Y55928D02*Y54921D01*
X11902Y61214D02*Y60208D01*
G54D83*X26574Y55600D02*Y55270D01*
X26396Y55092D02*X26574Y55270D01*
X25736Y55092D02*X26396D01*
X25736D02*X25558Y55270D01*
Y55600D02*Y55270D01*
Y55905D02*X26574D01*
X25558Y56540D02*X26574D01*
X26066D02*Y55905D01*
X25558Y57352D02*X25685Y57479D01*
X25558Y57352D02*Y56971D01*
X25685Y56844D02*X25558Y56971D01*
X25685Y56844D02*X26447D01*
X26574Y56971D01*
Y57352D02*Y56971D01*
Y57352D02*X26447Y57479D01*
X26193D02*X26447D01*
X26066Y57352D02*X26193Y57479D01*
X26066Y57352D02*Y57098D01*
X25558Y58368D02*X26574D01*
X25558Y58699D02*X25736Y58876D01*
X26396D01*
X26574Y58699D02*X26396Y58876D01*
X26574Y58699D02*Y58241D01*
X25558Y58699D02*Y58241D01*
X25685Y59181D02*X26447D01*
X25685D02*X25558Y59308D01*
Y59562D02*Y59308D01*
Y59562D02*X25685Y59689D01*
X26447D01*
X26574Y59562D02*X26447Y59689D01*
X26574Y59562D02*Y59308D01*
X26447Y59181D02*X26574Y59308D01*
X25558Y59994D02*X26574D01*
X25558D02*X26574Y60629D01*
X25558D02*X26574D01*
X26016Y61315D02*Y60934D01*
X26574Y61442D02*Y60934D01*
X25558D02*X26574D01*
X25558Y61442D02*Y60934D01*
X31466Y56677D02*X31847D01*
X31657Y56867D02*Y56486D01*
X27599Y56635D02*X27980D01*
X27789Y56826D02*Y56445D01*
X12531Y80913D02*Y80151D01*
X12436Y80913D02*X12817D01*
X12912Y80818D01*
Y80627D01*
X12817Y80532D02*X12912Y80627D01*
X12531Y80532D02*X12817D01*
X13140Y80151D02*X13617Y80913D01*
X13140D02*X13617Y80151D01*
X42267Y55450D02*X43283D01*
Y55958D02*Y55450D01*
X42394Y56262D02*X43156D01*
X42394D02*X42267Y56389D01*
Y56643D02*Y56389D01*
Y56643D02*X42394Y56770D01*
X43156D01*
X43283Y56643D02*X43156Y56770D01*
X43283Y56643D02*Y56389D01*
X43156Y56262D02*X43283Y56389D01*
X42267Y57075D02*X42775D01*
X43283Y57202D01*
X42775Y57456D01*
X43283Y57710D01*
X42775Y57837D01*
X42267D02*X42775D01*
X43283Y59107D02*Y58599D01*
Y59107D02*X43156Y59234D01*
X42852D02*X43156D01*
X42725Y59107D02*X42852Y59234D01*
X42725Y59107D02*Y58726D01*
X42267D02*X43283D01*
X42267Y59107D02*Y58599D01*
Y59107D02*X42394Y59234D01*
X42598D01*
X42725Y59107D02*X42598Y59234D01*
X42521Y59539D02*X43283D01*
X42521D02*X42267Y59717D01*
Y59996D02*Y59717D01*
Y59996D02*X42521Y60174D01*
X43283D01*
X42775D02*Y59539D01*
X42267Y60987D02*Y60479D01*
Y60733D02*X43283D01*
X44971Y53912D02*X45098Y53785D01*
X44590Y53912D02*X44971D01*
X44463Y53785D02*X44590Y53912D01*
X44463Y53785D02*Y53023D01*
X44590Y52896D01*
X44971D01*
X45098Y53023D01*
Y53277D02*Y53023D01*
X44971Y53404D02*X45098Y53277D01*
X44717Y53404D02*X44971D01*
X45403Y53709D02*X45606Y53912D01*
Y52896D01*
X45403D02*X45784D01*
X46088Y53785D02*X46215Y53912D01*
X46596D01*
X46723Y53785D01*
Y53531D01*
X46088Y52896D02*X46723Y53531D01*
X46088Y52896D02*X46723D01*
X38995Y59469D02*X39376D01*
X39185Y59659D02*Y59278D01*
X44910Y52140D02*X45037Y52013D01*
X44529Y52140D02*X44910D01*
X44402Y52013D02*X44529Y52140D01*
X44402Y52013D02*Y51251D01*
X44529Y51124D01*
X44910D01*
X45037Y51251D01*
Y51505D02*Y51251D01*
X44910Y51632D02*X45037Y51505D01*
X44656Y51632D02*X44910D01*
X45342Y52140D02*Y51124D01*
Y52140D02*X45977Y51124D01*
Y52140D02*Y51124D01*
X46409Y52140D02*Y51124D01*
X46739Y52140D02*X46917Y51962D01*
Y51302D01*
X46739Y51124D02*X46917Y51302D01*
X46282Y51124D02*X46739D01*
X46282Y52140D02*X46739D01*
X44627Y63499D02*X45135D01*
X44881Y63753D02*Y63245D01*
X45440Y63880D02*X45567Y64007D01*
X45821D01*
X45948Y63880D01*
X45821Y62991D02*X45948Y63118D01*
X45567Y62991D02*X45821D01*
X45440Y63118D02*X45567Y62991D01*
Y63550D02*X45821D01*
X45948Y63880D02*Y63676D01*
Y63422D02*Y63118D01*
Y63422D02*X45821Y63550D01*
X45948Y63676D02*X45821Y63550D01*
X46253Y64007D02*X46507Y62991D01*
X46761Y64007D01*
X33601Y48757D02*Y48427D01*
X33423Y48249D02*X33601Y48427D01*
X32763Y48249D02*X33423D01*
X32763D02*X32585Y48427D01*
Y48757D02*Y48427D01*
Y49062D02*X33601D01*
X32585Y49697D02*X33601D01*
X33093D02*Y49062D01*
X32839Y50002D02*X33601D01*
X32839D02*X32585Y50180D01*
Y50459D02*Y50180D01*
Y50459D02*X32839Y50637D01*
X33601D01*
X33093D02*Y50002D01*
X32585Y51450D02*Y50942D01*
Y51450D02*X32712Y51577D01*
X32966D01*
X33093Y51450D02*X32966Y51577D01*
X33093Y51450D02*Y51069D01*
X32585D02*X33601D01*
X33093Y51272D02*X33601Y51577D01*
X32585Y52389D02*X32712Y52516D01*
X32585Y52389D02*Y52008D01*
X32712Y51881D02*X32585Y52008D01*
X32712Y51881D02*X33474D01*
X33601Y52008D01*
Y52389D02*Y52008D01*
Y52389D02*X33474Y52516D01*
X33220D02*X33474D01*
X33093Y52389D02*X33220Y52516D01*
X33093Y52389D02*Y52135D01*
X32585Y53075D02*Y52821D01*
Y52948D02*X33601D01*
Y53075D02*Y52821D01*
X32585Y53380D02*X33601D01*
X32585D02*X33601Y54015D01*
X32585D02*X33601D01*
X32585Y54828D02*X32712Y54955D01*
X32585Y54828D02*Y54447D01*
X32712Y54320D02*X32585Y54447D01*
X32712Y54320D02*X33474D01*
X33601Y54447D01*
Y54828D02*Y54447D01*
Y54828D02*X33474Y54955D01*
X33220D02*X33474D01*
X33093Y54828D02*X33220Y54955D01*
X33093Y54828D02*Y54574D01*
X35127Y56677D02*X35508D01*
X35318Y56867D02*Y56486D01*
X36197Y74331D02*Y73569D01*
X36070Y74458D02*X36197Y74331D01*
X36324Y74458D01*
X36578D01*
X36705Y74331D01*
Y74077D01*
X36578Y73950D02*X36705Y74077D01*
X36324Y73950D02*X36578D01*
X36197Y74077D02*X36324Y73950D01*
X37391Y74458D02*X37518Y74331D01*
X37137Y74458D02*X37391D01*
X37010Y74331D02*X37137Y74458D01*
X37010Y74331D02*Y74077D01*
X37137Y73950D01*
X37518Y74458D02*Y74077D01*
X37645Y73950D01*
X37137D02*X37391D01*
X37518Y74077D01*
X38077Y74331D02*Y73950D01*
Y74331D02*X38204Y74458D01*
X38458D01*
X37950D02*X38077Y74331D01*
X39143Y74458D02*X39270Y74331D01*
X38889Y74458D02*X39143D01*
X38762Y74331D02*X38889Y74458D01*
X38762Y74331D02*Y74077D01*
X38889Y73950D01*
X39270Y74458D02*Y74077D01*
X39397Y73950D01*
X38889D02*X39143D01*
X39270Y74077D01*
X40210Y74966D02*Y73950D01*
X40083D02*X40210Y74077D01*
X39829Y73950D02*X40083D01*
X39702Y74077D02*X39829Y73950D01*
X39702Y74331D02*Y74077D01*
Y74331D02*X39829Y74458D01*
X40083D01*
X40210Y74331D01*
X40896Y74458D02*X41023Y74331D01*
X40642Y74458D02*X40896D01*
X40515Y74331D02*X40642Y74458D01*
X40515Y74331D02*Y74077D01*
X40642Y73950D01*
X41023Y74458D02*Y74077D01*
X41150Y73950D01*
X40642D02*X40896D01*
X41023Y74077D01*
X41582Y74331D02*Y73950D01*
Y74331D02*X41709Y74458D01*
X41963D01*
X41455D02*X41582Y74331D01*
X42725Y74458D02*X42979Y73950D01*
X43233Y74458D02*X42979Y73950D01*
X43538Y74763D02*X43741Y74966D01*
Y73950D01*
X43538D02*X43919D01*
X44223D02*X44350D01*
X44655Y74966D02*X45163D01*
X44655D02*Y74458D01*
X44782Y74585D01*
X45036D01*
X45163Y74458D01*
Y74077D01*
X45036Y73950D02*X45163Y74077D01*
X44782Y73950D02*X45036D01*
X44655Y74077D02*X44782Y73950D01*
X30511Y71878D02*X30638Y71751D01*
X30257Y71878D02*X30511D01*
X30130Y71751D02*X30257Y71878D01*
X30130Y71751D02*Y71497D01*
X30257Y71370D01*
X30511D01*
X30638Y71497D01*
X30130Y71116D02*X30257Y70989D01*
X30511D01*
X30638Y71116D01*
Y71878D02*Y71116D01*
X30943Y72132D02*Y72107D01*
Y71751D02*Y71370D01*
X31324Y72386D02*Y71497D01*
X31451Y71370D01*
X31197Y72005D02*X31451D01*
X31705Y72386D02*Y71370D01*
Y71751D02*X31832Y71878D01*
X32086D01*
X32213Y71751D01*
Y71370D01*
X32518Y71878D02*Y71497D01*
X32645Y71370D01*
X32899D01*
X33026Y71497D01*
Y71878D02*Y71497D01*
X33330Y72386D02*Y71370D01*
Y71497D02*X33457Y71370D01*
X33711D01*
X33838Y71497D01*
Y71751D02*Y71497D01*
X33711Y71878D02*X33838Y71751D01*
X33457Y71878D02*X33711D01*
X33330Y71751D02*X33457Y71878D01*
X34143Y71370D02*X34270D01*
X34702Y71878D02*X35083D01*
X34575Y71751D02*X34702Y71878D01*
X34575Y71751D02*Y71497D01*
X34702Y71370D01*
X35083D01*
X35388Y71751D02*Y71497D01*
Y71751D02*X35515Y71878D01*
X35769D01*
X35896Y71751D01*
Y71497D01*
X35769Y71370D02*X35896Y71497D01*
X35515Y71370D02*X35769D01*
X35388Y71497D02*X35515Y71370D01*
X36328Y71751D02*Y71370D01*
Y71751D02*X36455Y71878D01*
X36582D01*
X36709Y71751D01*
Y71370D01*
Y71751D02*X36836Y71878D01*
X36963D01*
X37090Y71751D01*
Y71370D01*
X36201Y71878D02*X36328Y71751D01*
X37394Y71497D02*X38156Y72259D01*
X38461Y72386D02*Y71370D01*
Y71497D02*X38588Y71370D01*
X38842D01*
X38969Y71497D01*
Y71751D02*Y71497D01*
X38842Y71878D02*X38969Y71751D01*
X38588Y71878D02*X38842D01*
X38461Y71751D02*X38588Y71878D01*
X39274Y72386D02*Y71497D01*
X39401Y71370D01*
X39655Y72132D02*Y72107D01*
Y71751D02*Y71370D01*
X40036Y71751D02*Y71370D01*
Y71751D02*X40163Y71878D01*
X40290D01*
X40417Y71751D01*
Y71370D01*
X39909Y71878D02*X40036Y71751D01*
X40722Y72386D02*Y71370D01*
Y71751D02*X41103Y71370D01*
X40722Y71751D02*X40976Y72005D01*
X41535Y71370D02*X41916D01*
X41408Y71497D02*X41535Y71370D01*
X41408Y71751D02*Y71497D01*
Y71751D02*X41535Y71878D01*
X41789D01*
X41916Y71751D01*
X41408Y71624D02*X41916D01*
Y71751D02*Y71624D01*
X42347Y71751D02*Y71370D01*
Y71751D02*X42474Y71878D01*
X42601D01*
X42728Y71751D01*
Y71370D01*
X42220Y71878D02*X42347Y71751D01*
X43033Y71497D02*X43795Y72259D01*
X44227Y71751D02*Y70989D01*
X44100Y71878D02*X44227Y71751D01*
X44354Y71878D01*
X44608D01*
X44735Y71751D01*
Y71497D01*
X44608Y71370D02*X44735Y71497D01*
X44354Y71370D02*X44608D01*
X44227Y71497D02*X44354Y71370D01*
X45421Y71878D02*X45548Y71751D01*
X45167Y71878D02*X45421D01*
X45040Y71751D02*X45167Y71878D01*
X45040Y71751D02*Y71497D01*
X45167Y71370D01*
X45548Y71878D02*Y71497D01*
X45675Y71370D01*
X45167D02*X45421D01*
X45548Y71497D01*
X46107Y71751D02*Y71370D01*
Y71751D02*X46234Y71878D01*
X46488D01*
X45980D02*X46107Y71751D01*
X47173Y71878D02*X47300Y71751D01*
X46919Y71878D02*X47173D01*
X46792Y71751D02*X46919Y71878D01*
X46792Y71751D02*Y71497D01*
X46919Y71370D01*
X47300Y71878D02*Y71497D01*
X47427Y71370D01*
X46919D02*X47173D01*
X47300Y71497D01*
X48240Y72386D02*Y71370D01*
X48113D02*X48240Y71497D01*
X47859Y71370D02*X48113D01*
X47732Y71497D02*X47859Y71370D01*
X47732Y71751D02*Y71497D01*
Y71751D02*X47859Y71878D01*
X48113D01*
X48240Y71751D01*
X48926Y71878D02*X49053Y71751D01*
X48672Y71878D02*X48926D01*
X48545Y71751D02*X48672Y71878D01*
X48545Y71751D02*Y71497D01*
X48672Y71370D01*
X49053Y71878D02*Y71497D01*
X49180Y71370D01*
X48672D02*X48926D01*
X49053Y71497D01*
X49612Y71751D02*Y71370D01*
Y71751D02*X49739Y71878D01*
X49993D01*
X49485D02*X49612Y71751D01*
X41672Y77636D02*Y76874D01*
X41577Y77636D02*X41958D01*
X42053Y77541D01*
Y77350D01*
X41958Y77255D02*X42053Y77350D01*
X41672Y77255D02*X41958D01*
X42663Y77636D02*X42758Y77541D01*
X42377Y77636D02*X42663D01*
X42282Y77541D02*X42377Y77636D01*
X42282Y77541D02*Y76969D01*
X42377Y76874D01*
X42663D01*
X42758Y76969D01*
Y77160D02*Y76969D01*
X42663Y77255D02*X42758Y77160D01*
X42472Y77255D02*X42663D01*
X51659Y87778D02*X51754Y87683D01*
X51373Y87778D02*X51659D01*
X51278Y87683D02*X51373Y87778D01*
X51278Y87683D02*Y87112D01*
X51373Y87016D01*
X51659D01*
X51754Y87112D01*
Y87302D02*Y87112D01*
X51659Y87397D02*X51754Y87302D01*
X51468Y87397D02*X51659D01*
X73045Y87150D02*X73140Y87055D01*
X72759Y87150D02*X73045D01*
X72664Y87055D02*X72759Y87150D01*
X72664Y87055D02*Y86483D01*
X72759Y86388D01*
X73045D01*
X73140Y86483D01*
Y86674D02*Y86483D01*
X73045Y86769D02*X73140Y86674D01*
X72854Y86769D02*X73045D01*
X70976Y73956D02*X71167Y73194D01*
X71357Y73956D01*
X71586Y73194D02*X71967D01*
X72062Y73289D01*
Y73518D02*Y73289D01*
X71967Y73613D02*X72062Y73518D01*
X71681Y73613D02*X71967D01*
X71681Y73956D02*Y73194D01*
X71586Y73956D02*X71967D01*
X72062Y73860D01*
Y73708D01*
X71967Y73613D02*X72062Y73708D01*
X72291Y73956D02*Y73289D01*
X72386Y73194D01*
X72576D01*
X72672Y73289D01*
Y73956D02*Y73289D01*
X73281Y73956D02*X73377Y73860D01*
X72996Y73956D02*X73281D01*
X72900Y73860D02*X72996Y73956D01*
X72900Y73860D02*Y73670D01*
X72996Y73575D01*
X73281D01*
X73377Y73479D01*
Y73289D01*
X73281Y73194D02*X73377Y73289D01*
X72996Y73194D02*X73281D01*
X72900Y73289D02*X72996Y73194D01*
X55043Y72092D02*X55234Y71330D01*
X55424Y72092D01*
X55653D02*Y71425D01*
X55748Y71330D01*
X55939D01*
X56034Y71425D01*
Y72092D02*Y71425D01*
X56263Y72092D02*X56644D01*
X56739Y71997D01*
Y71806D01*
X56644Y71711D02*X56739Y71806D01*
X56358Y71711D02*X56644D01*
X56358Y72092D02*Y71330D01*
X56510Y71711D02*X56739Y71330D01*
G54D84*X40800Y87160D02*X45000D01*
X40800D02*Y81760D01*
X45000D01*
Y87160D02*Y81760D01*
X46100Y86060D02*X50300D01*
X46100D02*Y80660D01*
X50300D01*
Y86060D02*Y80660D01*
X51400Y84260D02*X55600D01*
X51400D02*Y78860D01*
X55600D01*
Y84260D02*Y78860D01*
X35400Y87260D02*X39600D01*
X35400D02*Y81860D01*
X39600D01*
Y87260D02*Y81860D01*
X24490Y84520D02*X28690D01*
X24490D02*Y79120D01*
X28690D01*
Y84520D02*Y79120D01*
X29900Y86260D02*X34100D01*
X29900D02*Y80860D01*
X34100D01*
Y86260D02*Y80860D01*
X56800Y82860D02*X61000D01*
X56800D02*Y77460D01*
X61000D01*
Y82860D02*Y77460D01*
X63890Y78950D02*X66860Y75980D01*
X63890Y78950D02*X60072Y75132D01*
X63042Y72162D01*
X66860Y75980D02*X63042Y72162D01*
G54D85*X67347Y82795D02*Y81596D01*
X65447Y82795D02*Y81596D01*
X66870Y87300D02*X68070D01*
X66870Y85400D02*X68070D01*
G54D84*X12140Y65100D02*X62940D01*
Y70180D02*Y65100D01*
X12140Y70180D02*X62940D01*
X12140D02*Y65100D01*
X14680Y67640D02*Y65100D01*
X12140Y67640D02*X14680D01*
X6910Y71820D02*X11110D01*
X6910D02*Y66420D01*
X11110D01*
Y71820D02*Y66420D01*
X11011Y75992D02*X13980Y78962D01*
X11011Y75992D02*X14829Y72174D01*
X17799Y75144D01*
X13980Y78962D02*X17799Y75144D01*
X5600Y60260D02*Y64460D01*
Y60260D02*X11000D01*
Y64460D01*
X5600D02*X11000D01*
X15205Y62898D02*X16047D01*
Y60945D01*
X15793Y60691D01*
X15205D02*X15793D01*
X15205Y62898D02*Y60691D01*
X19400Y82760D02*X23600D01*
X19400D02*Y77360D01*
X23600D01*
Y82760D02*Y77360D01*
X74800Y64460D02*Y60260D01*
Y64460D02*X69400D01*
Y60260D01*
X74800D02*X69400D01*
X66700Y71930D02*X70900D01*
X66700D02*Y66530D01*
X70900D01*
Y71930D02*Y66530D01*
X73950Y74110D02*Y69410D01*
X77350Y74110D02*Y69410D01*
X78730Y85050D02*Y76400D01*
G54D85*X69620Y82790D02*Y81590D01*
X67720Y82790D02*Y81590D01*
G54D84*X76300Y59160D02*Y54960D01*
Y59160D02*X70900D01*
Y54960D01*
X76300D02*X70900D01*
X77100Y53960D02*Y49760D01*
Y53960D02*X71700D01*
Y49760D01*
X77100D02*X71700D01*
X77100Y48760D02*Y44560D01*
Y48760D02*X71700D01*
Y44560D01*
X77100D02*X71700D01*
X76100Y43360D02*Y39160D01*
Y43360D02*X70700D01*
Y39160D01*
X76100D02*X70700D01*
X73300Y38060D02*Y33860D01*
Y38060D02*X67900D01*
Y33860D01*
X73300D02*X67900D01*
X71500Y32660D02*Y28460D01*
Y32660D02*X66100D01*
Y28460D01*
X71500D02*X66100D01*
X67470Y24630D02*X64500Y21660D01*
X67470Y24630D02*X63652Y28448D01*
X60682Y25478D01*
X64500Y21660D02*X60682Y25478D01*
X61000Y17860D02*X56800D01*
X61000D02*Y23260D01*
X56800D01*
Y17860D02*Y23260D01*
X55400Y16060D02*X51200D01*
X55400D02*Y21460D01*
X51200D01*
Y16060D02*Y21460D01*
X50200Y14060D02*X46000D01*
X50200D02*Y19460D01*
X46000D01*
Y14060D02*Y19460D01*
X44600Y13060D02*X40400D01*
X44600D02*Y18460D01*
X40400D01*
Y13060D02*Y18460D01*
X33900Y14160D02*X29700D01*
X33900D02*Y19560D01*
X29700D01*
Y14160D02*Y19560D01*
X28700Y15860D02*X24500D01*
X28700D02*Y21260D01*
X24500D01*
Y15860D02*Y21260D01*
X23400Y17760D02*X19200D01*
X23400D02*Y23160D01*
X19200D01*
Y17760D02*Y23160D01*
X15104Y21779D02*X12134Y24749D01*
X15104Y21779D02*X18922Y25598D01*
X15952Y28567D01*
X12134Y24749D02*X15952Y28567D01*
X7900Y28660D02*Y32860D01*
Y28660D02*X13300D01*
Y32860D01*
X7900D02*X13300D01*
X6400Y34160D02*Y38360D01*
Y34160D02*X11800D01*
Y38360D01*
X6400D02*X11800D01*
X25051Y40181D02*X37851D01*
X25051D02*Y24781D01*
X37851D01*
Y40181D02*Y24781D01*
X4100Y39460D02*Y43660D01*
Y39460D02*X9500D01*
Y43660D01*
X4100D02*X9500D01*
X3100Y44610D02*Y48810D01*
Y44610D02*X8500D01*
Y48810D01*
X3100D02*X8500D01*
X2900Y49710D02*Y53910D01*
Y49710D02*X8300D01*
Y53910D01*
X2900D02*X8300D01*
X3600Y54910D02*Y59110D01*
Y54910D02*X9000D01*
Y59110D01*
X3600D02*X9000D01*
G54D85*X19871Y60213D02*Y59013D01*
X21771Y60213D02*Y59013D01*
X14517Y55477D02*Y54277D01*
X16417Y55477D02*Y54277D01*
G54D84*X39100Y12960D02*X34900D01*
X39100D02*Y18360D01*
X34900D01*
Y12960D02*Y18360D01*
G54D85*X35920Y58694D02*Y57494D01*
X37820Y58694D02*Y57494D01*
X32135Y58687D02*Y57487D01*
X34035Y58687D02*Y57487D01*
X41684Y58684D02*Y57484D01*
X39784Y58684D02*Y57484D01*
X28339Y58691D02*Y57491D01*
X30239Y58691D02*Y57491D01*
G54D82*X34840Y46519D02*X35870D01*
X32370D02*Y45749D01*
Y43779D02*Y43019D01*
X33420D01*
X34840D02*X35870D01*
Y43739D02*Y43019D01*
Y46519D02*Y45769D01*
X32370Y46519D02*X33420D01*
X35570Y46889D02*X35870D01*
X38119Y52562D02*X37459D01*
Y50242D02*Y50062D01*
X38129D01*
X39789D02*X40459D01*
Y50232D01*
Y52562D02*X39789D01*
X40459D02*Y52402D01*
X37459Y52562D02*Y52412D01*
X37059Y52562D02*Y52412D01*
G54D85*X37878Y48768D02*X39078D01*
X37878Y46868D02*X39078D01*
G54D84*X61181Y62617D02*X62281D01*
X44394Y62280D02*Y54660D01*
X46934D01*
Y62280D01*
X44394D01*
Y59740D02*X46934D01*
Y62280D01*
G54D85*X65990Y50980D02*Y49780D01*
X64090Y50980D02*Y49780D01*
G54D84*X44037Y47879D02*X60037D01*
Y31879D01*
X44037D01*
Y47879D01*
X42287Y49629D02*Y30129D01*
X61787D01*
Y49629D01*
X42287D01*
G54D85*X64780Y39190D02*Y38990D01*
X66180Y39190D02*Y38990D01*
X43388Y26496D02*X44588D01*
X43388Y28396D02*X44588D01*
G54D83*X68737Y24416D02*Y23400D01*
X68610Y24416D02*X69118D01*
X69245Y24289D01*
Y24035D01*
X69118Y23908D02*X69245Y24035D01*
X68737Y23908D02*X69118D01*
X69550Y23400D02*X70185Y24416D01*
X69550D02*X70185Y23400D01*
X70490Y24213D02*X70693Y24416D01*
Y23400D01*
X70490D02*X70871D01*
X71175Y23527D02*X71302Y23400D01*
X71175Y23730D02*Y23527D01*
Y23730D02*X71353Y23908D01*
X71506D01*
X71683Y23730D01*
Y23527D01*
X71556Y23400D02*X71683Y23527D01*
X71302Y23400D02*X71556D01*
X71175Y24086D02*X71353Y23908D01*
X71175Y24289D02*Y24086D01*
Y24289D02*X71302Y24416D01*
X71556D01*
X71683Y24289D01*
Y24086D01*
X71506Y23908D02*X71683Y24086D01*
X57527Y20806D02*Y19790D01*
X57400Y20806D02*X57908D01*
X58035Y20679D01*
Y20425D01*
X57908Y20298D02*X58035Y20425D01*
X57527Y20298D02*X57908D01*
X58340Y19790D02*X58975Y20806D01*
X58340D02*X58975Y19790D01*
X59280Y20603D02*X59483Y20806D01*
Y19790D01*
X59280D02*X59661D01*
X60092D02*X60473Y20298D01*
Y20679D02*Y20298D01*
X60346Y20806D02*X60473Y20679D01*
X60092Y20806D02*X60346D01*
X59965Y20679D02*X60092Y20806D01*
X59965Y20679D02*Y20425D01*
X60092Y20298D01*
X60473D01*
X51827Y19106D02*Y18090D01*
X51700Y19106D02*X52208D01*
X52335Y18979D01*
Y18725D01*
X52208Y18598D02*X52335Y18725D01*
X51827Y18598D02*X52208D01*
X52640Y18090D02*X53275Y19106D01*
X52640D02*X53275Y18090D01*
X53580Y18979D02*X53707Y19106D01*
X54088D01*
X54215Y18979D01*
Y18725D01*
X53580Y18090D02*X54215Y18725D01*
X53580Y18090D02*X54215D01*
X54519Y18217D02*X54646Y18090D01*
X54519Y18979D02*Y18217D01*
Y18979D02*X54646Y19106D01*
X54900D01*
X55027Y18979D01*
Y18217D01*
X54900Y18090D02*X55027Y18217D01*
X54646Y18090D02*X54900D01*
X54519Y18344D02*X55027Y18852D01*
X46727Y17206D02*Y16190D01*
X46600Y17206D02*X47108D01*
X47235Y17079D01*
Y16825D01*
X47108Y16698D02*X47235Y16825D01*
X46727Y16698D02*X47108D01*
X47540Y16190D02*X48175Y17206D01*
X47540D02*X48175Y16190D01*
X48480Y17079D02*X48607Y17206D01*
X48988D01*
X49115Y17079D01*
Y16825D01*
X48480Y16190D02*X49115Y16825D01*
X48480Y16190D02*X49115D01*
X49419Y17003D02*X49623Y17206D01*
Y16190D01*
X49419D02*X49800D01*
X40927Y16306D02*Y15290D01*
X40800Y16306D02*X41308D01*
X41435Y16179D01*
Y15925D01*
X41308Y15798D02*X41435Y15925D01*
X40927Y15798D02*X41308D01*
X41740Y15290D02*X42375Y16306D01*
X41740D02*X42375Y15290D01*
X42680Y16179D02*X42807Y16306D01*
X43188D01*
X43315Y16179D01*
Y15925D01*
X42680Y15290D02*X43315Y15925D01*
X42680Y15290D02*X43315D01*
X43619Y16179D02*X43746Y16306D01*
X44127D01*
X44254Y16179D01*
Y15925D01*
X43619Y15290D02*X44254Y15925D01*
X43619Y15290D02*X44254D01*
X30227Y17306D02*Y16290D01*
X30100Y17306D02*X30608D01*
X30735Y17179D01*
Y16925D01*
X30608Y16798D02*X30735Y16925D01*
X30227Y16798D02*X30608D01*
X31040Y16290D02*X31675Y17306D01*
X31040D02*X31675Y16290D01*
X31980Y17179D02*X32107Y17306D01*
X32488D01*
X32615Y17179D01*
Y16925D01*
X31980Y16290D02*X32615Y16925D01*
X31980Y16290D02*X32615D01*
X32919Y16671D02*X33427Y17306D01*
X32919Y16671D02*X33554D01*
X33427Y17306D02*Y16290D01*
X25127Y19006D02*Y17990D01*
X25000Y19006D02*X25508D01*
X25635Y18879D01*
Y18625D01*
X25508Y18498D02*X25635Y18625D01*
X25127Y18498D02*X25508D01*
X25940Y17990D02*X26575Y19006D01*
X25940D02*X26575Y17990D01*
X26880Y18879D02*X27007Y19006D01*
X27388D01*
X27515Y18879D01*
Y18625D01*
X26880Y17990D02*X27515Y18625D01*
X26880Y17990D02*X27515D01*
X27819Y19006D02*X28327D01*
X27819D02*Y18498D01*
X27946Y18625D01*
X28200D01*
X28327Y18498D01*
Y18117D01*
X28200Y17990D02*X28327Y18117D01*
X27946Y17990D02*X28200D01*
X27819Y18117D02*X27946Y17990D01*
X35527Y16106D02*Y15090D01*
X35400Y16106D02*X35908D01*
X36035Y15979D01*
Y15725D01*
X35908Y15598D02*X36035Y15725D01*
X35527Y15598D02*X35908D01*
X36340Y15090D02*X36975Y16106D01*
X36340D02*X36975Y15090D01*
X37280Y15979D02*X37407Y16106D01*
X37788D01*
X37915Y15979D01*
Y15725D01*
X37280Y15090D02*X37915Y15725D01*
X37280Y15090D02*X37915D01*
X38219Y15979D02*X38346Y16106D01*
X38600D01*
X38727Y15979D01*
X38600Y15090D02*X38727Y15217D01*
X38346Y15090D02*X38600D01*
X38219Y15217D02*X38346Y15090D01*
Y15649D02*X38600D01*
X38727Y15979D02*Y15776D01*
Y15522D02*Y15217D01*
Y15522D02*X38600Y15649D01*
X38727Y15776D02*X38600Y15649D01*
X36277Y84706D02*Y83690D01*
X36150Y84706D02*X36658D01*
X36785Y84579D01*
Y84325D01*
X36658Y84198D02*X36785Y84325D01*
X36277Y84198D02*X36658D01*
X37090Y83690D02*X37725Y84706D01*
X37090D02*X37725Y83690D01*
X38030Y84071D02*X38538Y84706D01*
X38030Y84071D02*X38665D01*
X38538Y84706D02*Y83690D01*
X41577Y84806D02*Y83790D01*
X41450Y84806D02*X41958D01*
X42085Y84679D01*
Y84425D01*
X41958Y84298D02*X42085Y84425D01*
X41577Y84298D02*X41958D01*
X42390Y83790D02*X43025Y84806D01*
X42390D02*X43025Y83790D01*
X43330Y84806D02*X43838D01*
X43330D02*Y84298D01*
X43457Y84425D01*
X43711D01*
X43838Y84298D01*
Y83917D01*
X43711Y83790D02*X43838Y83917D01*
X43457Y83790D02*X43711D01*
X43330Y83917D02*X43457Y83790D01*
X30677Y84106D02*Y83090D01*
X30550Y84106D02*X31058D01*
X31185Y83979D01*
Y83725D01*
X31058Y83598D02*X31185Y83725D01*
X30677Y83598D02*X31058D01*
X31490Y83090D02*X32125Y84106D01*
X31490D02*X32125Y83090D01*
X32430Y83979D02*X32557Y84106D01*
X32811D01*
X32938Y83979D01*
X32811Y83090D02*X32938Y83217D01*
X32557Y83090D02*X32811D01*
X32430Y83217D02*X32557Y83090D01*
Y83649D02*X32811D01*
X32938Y83979D02*Y83776D01*
Y83522D02*Y83217D01*
Y83522D02*X32811Y83649D01*
X32938Y83776D02*X32811Y83649D01*
X52027Y81906D02*Y80890D01*
X51900Y81906D02*X52408D01*
X52535Y81779D01*
Y81525D01*
X52408Y81398D02*X52535Y81525D01*
X52027Y81398D02*X52408D01*
X52840Y80890D02*X53475Y81906D01*
X52840D02*X53475Y80890D01*
X53907D02*X54415Y81906D01*
X53780D02*X54415D01*
X46777Y83706D02*Y82690D01*
X46650Y83706D02*X47158D01*
X47285Y83579D01*
Y83325D01*
X47158Y83198D02*X47285Y83325D01*
X46777Y83198D02*X47158D01*
X47590Y82690D02*X48225Y83706D01*
X47590D02*X48225Y82690D01*
X48911Y83706D02*X49038Y83579D01*
X48657Y83706D02*X48911D01*
X48530Y83579D02*X48657Y83706D01*
X48530Y83579D02*Y82817D01*
X48657Y82690D01*
X48911Y83249D02*X49038Y83122D01*
X48530Y83249D02*X48911D01*
X48657Y82690D02*X48911D01*
X49038Y82817D01*
Y83122D02*Y82817D01*
X68184Y77328D02*Y76820D01*
Y77328D02*X68311Y77455D01*
X68565D01*
X68692Y77328D02*X68565Y77455D01*
X68692Y77328D02*Y76947D01*
X68184D02*X69200D01*
X68692Y77150D02*X69200Y77455D01*
X68184Y78141D02*X68311Y78268D01*
X68184Y78141D02*Y77887D01*
X68311Y77760D02*X68184Y77887D01*
X68311Y77760D02*X69073D01*
X69200Y77887D01*
X68641Y78141D02*X68768Y78268D01*
X68641Y78141D02*Y77760D01*
X69200Y78141D02*Y77887D01*
Y78141D02*X69073Y78268D01*
X68768D02*X69073D01*
X1606Y75097D02*Y74208D01*
X1732Y74081D01*
X1986D01*
X2114Y74208D01*
Y75097D02*Y74208D01*
X2418Y74894D02*X2622Y75097D01*
Y74081D01*
X2418D02*X2799D01*
X6977Y78478D02*Y77462D01*
X6850Y78478D02*X7358D01*
X7485Y78351D01*
Y78097D01*
X7358Y77970D02*X7485Y78097D01*
X6977Y77970D02*X7358D01*
X7790Y77462D02*X8425Y78478D01*
X7790D02*X8425Y77462D01*
X8730Y78351D02*X8857Y78478D01*
X9111D01*
X9238Y78351D01*
X9111Y77462D02*X9238Y77589D01*
X8857Y77462D02*X9111D01*
X8730Y77589D02*X8857Y77462D01*
Y78021D02*X9111D01*
X9238Y78351D02*Y78148D01*
Y77894D02*Y77589D01*
Y77894D02*X9111Y78021D01*
X9238Y78148D02*X9111Y78021D01*
X9924Y78478D02*X10051Y78351D01*
X9670Y78478D02*X9924D01*
X9543Y78351D02*X9670Y78478D01*
X9543Y78351D02*Y77589D01*
X9670Y77462D01*
X9924Y78021D02*X10051Y77894D01*
X9543Y78021D02*X9924D01*
X9670Y77462D02*X9924D01*
X10051Y77589D01*
Y77894D02*Y77589D01*
X7804Y60687D02*X8820D01*
X7804Y61068D02*Y60560D01*
Y61068D02*X7931Y61195D01*
X8185D01*
X8312Y61068D02*X8185Y61195D01*
X8312Y61068D02*Y60687D01*
X8820Y61500D02*X7804Y62135D01*
Y61500D02*X8820Y62135D01*
X7931Y62440D02*X7804Y62567D01*
Y62821D02*Y62567D01*
Y62821D02*X7931Y62948D01*
X8820Y62821D02*X8693Y62948D01*
X8820Y62821D02*Y62567D01*
X8693Y62440D02*X8820Y62567D01*
X8261Y62821D02*Y62567D01*
X7931Y62948D02*X8134D01*
X8388D02*X8693D01*
X8388D02*X8261Y62821D01*
X8134Y62948D02*X8261Y62821D01*
X8439Y63253D02*X7804Y63761D01*
X8439Y63888D02*Y63253D01*
X7804Y63761D02*X8820D01*
X7587Y69566D02*Y68550D01*
X7460Y69566D02*X7968D01*
X8095Y69439D01*
Y69185D01*
X7968Y69058D02*X8095Y69185D01*
X7587Y69058D02*X7968D01*
X8400Y68550D02*X9035Y69566D01*
X8400D02*X9035Y68550D01*
X9340Y69439D02*X9467Y69566D01*
X9721D01*
X9848Y69439D01*
X9721Y68550D02*X9848Y68677D01*
X9467Y68550D02*X9721D01*
X9340Y68677D02*X9467Y68550D01*
Y69109D02*X9721D01*
X9848Y69439D02*Y69236D01*
Y68982D02*Y68677D01*
Y68982D02*X9721Y69109D01*
X9848Y69236D02*X9721Y69109D01*
X10152Y69566D02*X10660D01*
X10152D02*Y69058D01*
X10279Y69185D01*
X10533D01*
X10660Y69058D01*
Y68677D01*
X10533Y68550D02*X10660Y68677D01*
X10279Y68550D02*X10533D01*
X10152Y68677D02*X10279Y68550D01*
X16277Y82906D02*Y81890D01*
X16150Y82906D02*X16658D01*
X16785Y82779D01*
Y82525D01*
X16658Y82398D02*X16785Y82525D01*
X16277Y82398D02*X16658D01*
X17090Y81890D02*X17725Y82906D01*
X17090D02*X17725Y81890D01*
X18030Y82703D02*X18233Y82906D01*
Y81890D01*
X18030D02*X18411D01*
X25507Y82476D02*Y81460D01*
X25380Y82476D02*X25888D01*
X26015Y82349D01*
Y82095D01*
X25888Y81968D02*X26015Y82095D01*
X25507Y81968D02*X25888D01*
X26320Y81460D02*X26955Y82476D01*
X26320D02*X26955Y81460D01*
X27260Y82349D02*X27387Y82476D01*
X27768D01*
X27895Y82349D01*
Y82095D01*
X27260Y81460D02*X27895Y82095D01*
X27260Y81460D02*X27895D01*
X40270Y61423D02*X41286D01*
X40270Y61753D02*X40447Y61931D01*
X41108D01*
X41286Y61753D02*X41108Y61931D01*
X41286Y61753D02*Y61296D01*
X40270Y61753D02*Y61296D01*
X40904Y62236D02*X40270Y62744D01*
X40904Y62871D02*Y62236D01*
X40270Y62744D02*X41286D01*
X36544Y61390D02*X37560D01*
X36544Y61721D02*X36722Y61898D01*
X37382D01*
X37560Y61721D02*X37382Y61898D01*
X37560Y61721D02*Y61264D01*
X36544Y61721D02*Y61264D01*
X36747Y62203D02*X36544Y62407D01*
X37560D01*
Y62584D02*Y62203D01*
X32559Y61354D02*X33575D01*
X32559Y61684D02*X32737Y61862D01*
X33397D01*
X33575Y61684D02*X33397Y61862D01*
X33575Y61684D02*Y61227D01*
X32559Y61684D02*Y61227D01*
X32686Y62166D02*X32559Y62293D01*
Y62674D02*Y62293D01*
Y62674D02*X32686Y62801D01*
X32940D01*
X33575Y62166D02*X32940Y62801D01*
X33575D02*Y62166D01*
X28783Y61358D02*X29799D01*
X28783Y61688D02*X28961Y61866D01*
X29621D01*
X29799Y61688D02*X29621Y61866D01*
X29799Y61688D02*Y61231D01*
X28783Y61688D02*Y61231D01*
X28910Y62171D02*X28783Y62298D01*
Y62552D02*Y62298D01*
Y62552D02*X28910Y62679D01*
X29799Y62552D02*X29672Y62679D01*
X29799Y62552D02*Y62298D01*
X29672Y62171D02*X29799Y62298D01*
X29240Y62552D02*Y62298D01*
X28910Y62679D02*X29113D01*
X29367D02*X29672D01*
X29367D02*X29240Y62552D01*
X29113Y62679D02*X29240Y62552D01*
X19727Y20806D02*Y19790D01*
X19600Y20806D02*X20108D01*
X20235Y20679D01*
Y20425D01*
X20108Y20298D02*X20235Y20425D01*
X19727Y20298D02*X20108D01*
X20540Y19790D02*X21175Y20806D01*
X20540D02*X21175Y19790D01*
X21480Y20679D02*X21607Y20806D01*
X21988D01*
X22115Y20679D01*
Y20425D01*
X21480Y19790D02*X22115Y20425D01*
X21480Y19790D02*X22115D01*
X22800Y20806D02*X22927Y20679D01*
X22546Y20806D02*X22800D01*
X22419Y20679D02*X22546Y20806D01*
X22419Y20679D02*Y19917D01*
X22546Y19790D01*
X22800Y20349D02*X22927Y20222D01*
X22419Y20349D02*X22800D01*
X22546Y19790D02*X22800D01*
X22927Y19917D01*
Y20222D02*Y19917D01*
X8427Y26656D02*Y25640D01*
X8300Y26656D02*X8808D01*
X8935Y26529D01*
Y26275D01*
X8808Y26148D02*X8935Y26275D01*
X8427Y26148D02*X8808D01*
X9240Y25640D02*X9875Y26656D01*
X9240D02*X9875Y25640D01*
X10180Y26529D02*X10307Y26656D01*
X10688D01*
X10815Y26529D01*
Y26275D01*
X10180Y25640D02*X10815Y26275D01*
X10180Y25640D02*X10815D01*
X11246D02*X11754Y26656D01*
X11119D02*X11754D01*
X10004Y29187D02*X11020D01*
X10004Y29568D02*Y29060D01*
Y29568D02*X10131Y29695D01*
X10385D01*
X10512Y29568D02*X10385Y29695D01*
X10512Y29568D02*Y29187D01*
X11020Y30000D02*X10004Y30635D01*
Y30000D02*X11020Y30635D01*
X10131Y30940D02*X10004Y31067D01*
Y31448D02*Y31067D01*
Y31448D02*X10131Y31575D01*
X10385D01*
X11020Y30940D02*X10385Y31575D01*
X11020D02*Y30940D01*
X10893Y31880D02*X11020Y32007D01*
X10690Y31880D02*X10893D01*
X10690D02*X10512Y32057D01*
Y32210D02*Y32057D01*
Y32210D02*X10690Y32388D01*
X10893D01*
X11020Y32261D02*X10893Y32388D01*
X11020Y32261D02*Y32007D01*
X10334Y31880D02*X10512Y32057D01*
X10131Y31880D02*X10334D01*
X10131D02*X10004Y32007D01*
Y32261D02*Y32007D01*
Y32261D02*X10131Y32388D01*
X10334D01*
X10512Y32210D02*X10334Y32388D01*
X8204Y35287D02*X9220D01*
X8204Y35668D02*Y35160D01*
Y35668D02*X8331Y35795D01*
X8585D01*
X8712Y35668D02*X8585Y35795D01*
X8712Y35668D02*Y35287D01*
X9220Y36100D02*X8204Y36735D01*
Y36100D02*X9220Y36735D01*
X8331Y37040D02*X8204Y37167D01*
Y37548D02*Y37167D01*
Y37548D02*X8331Y37675D01*
X8585D01*
X9220Y37040D02*X8585Y37675D01*
X9220D02*Y37040D01*
Y38107D02*X8712Y38488D01*
X8331D02*X8712D01*
X8204Y38361D02*X8331Y38488D01*
X8204Y38361D02*Y38107D01*
X8331Y37980D02*X8204Y38107D01*
X8331Y37980D02*X8585D01*
X8712Y38107D01*
Y38488D02*Y38107D01*
X4604Y50187D02*X5620D01*
X4604Y50568D02*Y50060D01*
Y50568D02*X4731Y50695D01*
X4985D01*
X5112Y50568D02*X4985Y50695D01*
X5112Y50568D02*Y50187D01*
X5620Y51000D02*X4604Y51635D01*
Y51000D02*X5620Y51635D01*
X4731Y51940D02*X4604Y52067D01*
Y52321D02*Y52067D01*
Y52321D02*X4731Y52448D01*
X5620Y52321D02*X5493Y52448D01*
X5620Y52321D02*Y52067D01*
X5493Y51940D02*X5620Y52067D01*
X5061Y52321D02*Y52067D01*
X4731Y52448D02*X4934D01*
X5188D02*X5493D01*
X5188D02*X5061Y52321D01*
X4934Y52448D02*X5061Y52321D01*
X4731Y52753D02*X4604Y52880D01*
Y53261D02*Y52880D01*
Y53261D02*X4731Y53388D01*
X4985D01*
X5620Y52753D02*X4985Y53388D01*
X5620D02*Y52753D01*
X5604Y55587D02*X6620D01*
X5604Y55968D02*Y55460D01*
Y55968D02*X5731Y56095D01*
X5985D01*
X6112Y55968D02*X5985Y56095D01*
X6112Y55968D02*Y55587D01*
X6620Y56400D02*X5604Y57035D01*
Y56400D02*X6620Y57035D01*
X5731Y57340D02*X5604Y57467D01*
Y57721D02*Y57467D01*
Y57721D02*X5731Y57848D01*
X6620Y57721D02*X6493Y57848D01*
X6620Y57721D02*Y57467D01*
X6493Y57340D02*X6620Y57467D01*
X6061Y57721D02*Y57467D01*
X5731Y57848D02*X5934D01*
X6188D02*X6493D01*
X6188D02*X6061Y57721D01*
X5934Y57848D02*X6061Y57721D01*
X5731Y58153D02*X5604Y58280D01*
Y58534D02*Y58280D01*
Y58534D02*X5731Y58661D01*
X6620Y58534D02*X6493Y58661D01*
X6620Y58534D02*Y58280D01*
X6493Y58153D02*X6620Y58280D01*
X6061Y58534D02*Y58280D01*
X5731Y58661D02*X5934D01*
X6188D02*X6493D01*
X6188D02*X6061Y58534D01*
X5934Y58661D02*X6061Y58534D01*
X14894Y59832D02*Y58943D01*
X15021Y58816D01*
X15275D01*
X15402Y58943D01*
Y59832D02*Y58943D01*
X15706Y59705D02*X15833Y59832D01*
X16087D01*
X16214Y59705D01*
X16087Y58816D02*X16214Y58943D01*
X15833Y58816D02*X16087D01*
X15706Y58943D02*X15833Y58816D01*
Y59374D02*X16087D01*
X16214Y59705D02*Y59501D01*
Y59247D02*Y58943D01*
Y59247D02*X16087Y59374D01*
X16214Y59501D02*X16087Y59374D01*
X19939Y55730D02*X20269D01*
X19761Y55908D02*X19939Y55730D01*
X19761Y56569D02*Y55908D01*
Y56569D02*X19939Y56746D01*
X20269D01*
X20574Y56543D02*X20777Y56746D01*
Y55730D01*
X20574D02*X20955D01*
X21387D02*X21895Y56746D01*
X21260D02*X21895D01*
X15065Y50800D02*X15395D01*
X14887Y50978D02*X15065Y50800D01*
X14887Y51638D02*Y50978D01*
Y51638D02*X15065Y51816D01*
X15395D01*
X16081D02*X16208Y51689D01*
X15827Y51816D02*X16081D01*
X15700Y51689D02*X15827Y51816D01*
X15700Y51689D02*Y50927D01*
X15827Y50800D01*
X16081Y51359D02*X16208Y51232D01*
X15700Y51359D02*X16081D01*
X15827Y50800D02*X16081D01*
X16208Y50927D01*
Y51232D02*Y50927D01*
X6204Y39987D02*X7220D01*
X6204Y40368D02*Y39860D01*
Y40368D02*X6331Y40495D01*
X6585D01*
X6712Y40368D02*X6585Y40495D01*
X6712Y40368D02*Y39987D01*
X7220Y40800D02*X6204Y41435D01*
Y40800D02*X7220Y41435D01*
X6331Y41740D02*X6204Y41867D01*
Y42121D02*Y41867D01*
Y42121D02*X6331Y42248D01*
X7220Y42121D02*X7093Y42248D01*
X7220Y42121D02*Y41867D01*
X7093Y41740D02*X7220Y41867D01*
X6661Y42121D02*Y41867D01*
X6331Y42248D02*X6534D01*
X6788D02*X7093D01*
X6788D02*X6661Y42121D01*
X6534Y42248D02*X6661Y42121D01*
X7093Y42553D02*X7220Y42680D01*
X6331Y42553D02*X7093D01*
X6331D02*X6204Y42680D01*
Y42934D02*Y42680D01*
Y42934D02*X6331Y43061D01*
X7093D01*
X7220Y42934D02*X7093Y43061D01*
X7220Y42934D02*Y42680D01*
X6966Y42553D02*X6458Y43061D01*
X26024Y38359D02*X26354D01*
X25846Y38537D02*X26024Y38359D01*
X25846Y39197D02*Y38537D01*
Y39197D02*X26024Y39375D01*
X26354D01*
X26659Y39248D02*Y38486D01*
Y39248D02*X26786Y39375D01*
X27040D01*
X27167Y39248D01*
Y38486D01*
X27040Y38359D02*X27167Y38486D01*
X26786Y38359D02*X27040D01*
X26659Y38486D02*X26786Y38359D01*
X27471Y39375D02*Y38359D01*
Y39375D02*X27852Y38867D01*
X28233Y39375D01*
Y38359D01*
X28665Y39375D02*Y38359D01*
X28538Y39375D02*X29046D01*
X29173Y39248D01*
Y38994D01*
X29046Y38867D02*X29173Y38994D01*
X28665Y38867D02*X29046D01*
X29478Y39121D02*Y38359D01*
Y39121D02*X29656Y39375D01*
X29935D01*
X30113Y39121D01*
Y38359D01*
X29478Y38867D02*X30113D01*
X30926Y39375D02*X31053Y39248D01*
X30545Y39375D02*X30926D01*
X30418Y39248D02*X30545Y39375D01*
X30418Y39248D02*Y38994D01*
X30545Y38867D01*
X30926D01*
X31053Y38740D01*
Y38486D01*
X30926Y38359D02*X31053Y38486D01*
X30545Y38359D02*X30926D01*
X30418Y38486D02*X30545Y38359D01*
X31866Y39375D02*X31993Y39248D01*
X31485Y39375D02*X31866D01*
X31358Y39248D02*X31485Y39375D01*
X31358Y39248D02*Y38994D01*
X31485Y38867D01*
X31866D01*
X31993Y38740D01*
Y38486D01*
X31866Y38359D02*X31993Y38486D01*
X31485Y38359D02*X31866D01*
X31358Y38486D02*X31485Y38359D01*
X32297Y39172D02*X32501Y39375D01*
Y38359D01*
X32297D02*X32678D01*
X67040Y39806D02*X67675D01*
X67040Y38790D02*X67675Y39806D01*
X67040Y38790D02*X67675D01*
X67980Y39603D02*X68183Y39806D01*
Y38790D01*
X67980D02*X68361D01*
X5404Y45487D02*X6420D01*
X5404Y45868D02*Y45360D01*
Y45868D02*X5531Y45995D01*
X5785D01*
X5912Y45868D02*X5785Y45995D01*
X5912Y45868D02*Y45487D01*
X6420Y46300D02*X5404Y46935D01*
Y46300D02*X6420Y46935D01*
X5531Y47240D02*X5404Y47367D01*
Y47621D02*Y47367D01*
Y47621D02*X5531Y47748D01*
X6420Y47621D02*X6293Y47748D01*
X6420Y47621D02*Y47367D01*
X6293Y47240D02*X6420Y47367D01*
X5861Y47621D02*Y47367D01*
X5531Y47748D02*X5734D01*
X5988D02*X6293D01*
X5988D02*X5861Y47621D01*
X5734Y47748D02*X5861Y47621D01*
X5607Y48053D02*X5404Y48256D01*
X6420D01*
Y48434D02*Y48053D01*
X54265Y47235D02*X54392Y47108D01*
X53884Y47235D02*X54265D01*
X53757Y47108D02*X53884Y47235D01*
X53757Y47108D02*Y46346D01*
X53884Y46219D01*
X54265D01*
X54392Y46346D01*
Y46600D02*Y46346D01*
X54265Y46727D02*X54392Y46600D01*
X54011Y46727D02*X54265D01*
X54824Y47235D02*Y46219D01*
X54697Y47235D02*X55205D01*
X55332Y47108D01*
Y46854D01*
X55205Y46727D02*X55332Y46854D01*
X54824Y46727D02*X55205D01*
X56145Y47235D02*X56272Y47108D01*
X55764Y47235D02*X56145D01*
X55637Y47108D02*X55764Y47235D01*
X55637Y47108D02*Y46854D01*
X55764Y46727D01*
X56145D01*
X56272Y46600D01*
Y46346D01*
X56145Y46219D02*X56272Y46346D01*
X55764Y46219D02*X56145D01*
X55637Y46346D02*X55764Y46219D01*
X56577Y47031D02*X56780Y47235D01*
Y46219D01*
X56577D02*X56958D01*
X66660Y51006D02*X67168D01*
X67295Y50879D01*
Y50625D01*
X67168Y50498D02*X67295Y50625D01*
X66787Y50498D02*X67168D01*
X66787Y51006D02*Y49990D01*
X66990Y50498D02*X67295Y49990D01*
X67600Y50803D02*X67803Y51006D01*
Y49990D01*
X67600D02*X67981D01*
X30494Y46965D02*Y46076D01*
X30622Y45949D01*
X30876D01*
X31002Y46076D01*
Y46965D02*Y46076D01*
X31434Y45949D02*X31942Y46965D01*
X31307D02*X31942D01*
X41275Y53091D02*Y52202D01*
X41402Y52075D01*
X41656D01*
X41783Y52202D01*
Y53091D02*Y52202D01*
X42088D02*X42215Y52075D01*
X42088Y52406D02*Y52202D01*
Y52406D02*X42266Y52583D01*
X42418D01*
X42596Y52406D01*
Y52202D01*
X42469Y52075D02*X42596Y52202D01*
X42215Y52075D02*X42469D01*
X42088Y52761D02*X42266Y52583D01*
X42088Y52964D02*Y52761D01*
Y52964D02*X42215Y53091D01*
X42469D01*
X42596Y52964D01*
Y52761D01*
X42418Y52583D02*X42596Y52761D01*
X38204Y45026D02*X38535D01*
X38027Y45204D02*X38204Y45026D01*
X38027Y45865D02*Y45204D01*
Y45865D02*X38204Y46042D01*
X38535D01*
X38839Y45839D02*X39043Y46042D01*
Y45026D01*
X38839D02*X39220D01*
X39525Y45407D02*X40033Y46042D01*
X39525Y45407D02*X40160D01*
X40033Y46042D02*Y45026D01*
X47146Y26930D02*X47476D01*
X46968Y27107D02*X47146Y26930D01*
X46968Y27768D02*Y27107D01*
Y27768D02*X47146Y27946D01*
X47476D01*
X47908Y26930D02*X48289Y27438D01*
Y27819D02*Y27438D01*
X48162Y27946D02*X48289Y27819D01*
X47908Y27946D02*X48162D01*
X47781Y27819D02*X47908Y27946D01*
X47781Y27819D02*Y27565D01*
X47908Y27438D01*
X48289D01*
X73104Y55637D02*X74120D01*
X73104Y56018D02*Y55510D01*
Y56018D02*X73231Y56145D01*
X73485D01*
X73612Y56018D02*X73485Y56145D01*
X73612Y56018D02*Y55637D01*
X74120Y56450D02*X73104Y57085D01*
Y56450D02*X74120Y57085D01*
X73307Y57390D02*X73104Y57593D01*
X74120D01*
Y57771D02*Y57390D01*
X73231Y58076D02*X73104Y58203D01*
Y58584D02*Y58203D01*
Y58584D02*X73231Y58711D01*
X73485D01*
X74120Y58076D02*X73485Y58711D01*
X74120D02*Y58076D01*
X73704Y50637D02*X74720D01*
X73704Y51018D02*Y50510D01*
Y51018D02*X73831Y51145D01*
X74085D01*
X74212Y51018D02*X74085Y51145D01*
X74212Y51018D02*Y50637D01*
X74720Y51450D02*X73704Y52085D01*
Y51450D02*X74720Y52085D01*
X73907Y52390D02*X73704Y52593D01*
X74720D01*
Y52771D02*Y52390D01*
X73831Y53076D02*X73704Y53203D01*
Y53457D02*Y53203D01*
Y53457D02*X73831Y53584D01*
X74720Y53457D02*X74593Y53584D01*
X74720Y53457D02*Y53203D01*
X74593Y53076D02*X74720Y53203D01*
X74161Y53457D02*Y53203D01*
X73831Y53584D02*X74034D01*
X74288D02*X74593D01*
X74288D02*X74161Y53457D01*
X74034Y53584D02*X74161Y53457D01*
X73504Y45337D02*X74520D01*
X73504Y45718D02*Y45210D01*
Y45718D02*X73631Y45845D01*
X73885D01*
X74012Y45718D02*X73885Y45845D01*
X74012Y45718D02*Y45337D01*
X74520Y46150D02*X73504Y46785D01*
Y46150D02*X74520Y46785D01*
X73707Y47090D02*X73504Y47293D01*
X74520D01*
Y47471D02*Y47090D01*
X74139Y47776D02*X73504Y48284D01*
X74139Y48411D02*Y47776D01*
X73504Y48284D02*X74520D01*
X72804Y40037D02*X73820D01*
X72804Y40418D02*Y39910D01*
Y40418D02*X72931Y40545D01*
X73185D01*
X73312Y40418D02*X73185Y40545D01*
X73312Y40418D02*Y40037D01*
X73820Y40850D02*X72804Y41485D01*
Y40850D02*X73820Y41485D01*
X73007Y41790D02*X72804Y41993D01*
X73820D01*
Y42171D02*Y41790D01*
X72804Y42984D02*Y42476D01*
X73312D01*
X73185Y42603D01*
Y42857D02*Y42603D01*
Y42857D02*X73312Y42984D01*
X73693D01*
X73820Y42857D02*X73693Y42984D01*
X73820Y42857D02*Y42603D01*
X73693Y42476D02*X73820Y42603D01*
X70204Y34737D02*X71220D01*
X70204Y35118D02*Y34610D01*
Y35118D02*X70331Y35245D01*
X70585D01*
X70712Y35118D02*X70585Y35245D01*
X70712Y35118D02*Y34737D01*
X71220Y35550D02*X70204Y36185D01*
Y35550D02*X71220Y36185D01*
X70407Y36490D02*X70204Y36693D01*
X71220D01*
Y36871D02*Y36490D01*
X70204Y37557D02*X70331Y37684D01*
X70204Y37557D02*Y37303D01*
X70331Y37176D02*X70204Y37303D01*
X70331Y37176D02*X71093D01*
X71220Y37303D01*
X70661Y37557D02*X70788Y37684D01*
X70661Y37557D02*Y37176D01*
X71220Y37557D02*Y37303D01*
Y37557D02*X71093Y37684D01*
X70788D02*X71093D01*
X68204Y29287D02*X69220D01*
X68204Y29668D02*Y29160D01*
Y29668D02*X68331Y29795D01*
X68585D01*
X68712Y29668D02*X68585Y29795D01*
X68712Y29668D02*Y29287D01*
X69220Y30100D02*X68204Y30735D01*
Y30100D02*X69220Y30735D01*
X68407Y31040D02*X68204Y31243D01*
X69220D01*
Y31421D02*Y31040D01*
Y31853D02*X68204Y32361D01*
Y31726D01*
X63494Y86058D02*Y85550D01*
Y86058D02*X63621Y86185D01*
X63875D01*
X64002Y86058D02*X63875Y86185D01*
X64002Y86058D02*Y85677D01*
X63494D02*X64510D01*
X64002Y85880D02*X64510Y86185D01*
X63621Y86490D02*X63494Y86617D01*
Y86998D02*Y86617D01*
Y86998D02*X63621Y87125D01*
X63875D01*
X64510Y86490D02*X63875Y87125D01*
X64510D02*Y86490D01*
X57877Y80656D02*Y79640D01*
X57750Y80656D02*X58258D01*
X58385Y80529D01*
Y80275D01*
X58258Y80148D02*X58385Y80275D01*
X57877Y80148D02*X58258D01*
X58690Y79640D02*X59325Y80656D01*
X58690D02*X59325Y79640D01*
X59630Y79767D02*X59757Y79640D01*
X59630Y79970D02*Y79767D01*
Y79970D02*X59808Y80148D01*
X59960D01*
X60138Y79970D01*
Y79767D01*
X60011Y79640D02*X60138Y79767D01*
X59757Y79640D02*X60011D01*
X59630Y80326D02*X59808Y80148D01*
X59630Y80529D02*Y80326D01*
Y80529D02*X59757Y80656D01*
X60011D01*
X60138Y80529D01*
Y80326D01*
X59960Y80148D02*X60138Y80326D01*
X63576Y81917D02*Y81409D01*
Y81917D02*X63703Y82044D01*
X63957D01*
X64084Y81917D02*X63957Y82044D01*
X64084Y81917D02*Y81536D01*
X63576D02*X64592D01*
X64084Y81740D02*X64592Y82044D01*
Y82476D02*X63576Y82984D01*
Y82349D01*
X76223Y79713D02*X77112D01*
X77239Y79840D01*
Y80094D02*Y79840D01*
Y80094D02*X77112Y80221D01*
X76223D02*X77112D01*
X76223Y81034D02*X76350Y81161D01*
X76223Y81034D02*Y80653D01*
X76350Y80526D02*X76223Y80653D01*
X76350Y80526D02*X76604D01*
X76731Y80653D01*
Y81034D02*Y80653D01*
Y81034D02*X76858Y81161D01*
X77112D01*
X77239Y81034D02*X77112Y81161D01*
X77239Y81034D02*Y80653D01*
X77112Y80526D02*X77239Y80653D01*
Y81974D02*Y81466D01*
Y81974D02*X77112Y82101D01*
X76807D02*X77112D01*
X76680Y81974D02*X76807Y82101D01*
X76680Y81974D02*Y81593D01*
X76223D02*X77239D01*
X76223Y81974D02*Y81466D01*
Y81974D02*X76350Y82101D01*
X76553D01*
X76680Y81974D02*X76553Y82101D01*
X63749Y61329D02*Y60440D01*
X63876Y60313D01*
X64130D01*
X64257Y60440D01*
Y61329D02*Y60440D01*
X64562Y61202D02*X64689Y61329D01*
X65070D01*
X65197Y61202D01*
Y60948D01*
X64562Y60313D02*X65197Y60948D01*
X64562Y60313D02*X65197D01*
X70273Y69800D02*Y68784D01*
X69892D02*X70400D01*
X69892D02*X69765Y68911D01*
Y69165D02*Y68911D01*
X69892Y69292D02*X69765Y69165D01*
X69892Y69292D02*X70273D01*
X69460Y69800D02*X68825Y68784D01*
X69460D02*X68825Y69800D01*
X68520Y68987D02*X68317Y68784D01*
Y69800D02*Y68784D01*
X68139Y69800D02*X68520D01*
X67835Y69673D02*X67708Y69800D01*
X67835Y69673D02*Y68911D01*
X67708Y68784D01*
X67454D02*X67708D01*
X67454D02*X67327Y68911D01*
Y69673D02*Y68911D01*
X67454Y69800D02*X67327Y69673D01*
X67454Y69800D02*X67708D01*
X67835Y69546D02*X67327Y69038D01*
X65817Y74336D02*Y73320D01*
X65690Y74336D02*X66198D01*
X66325Y74209D01*
Y73955D01*
X66198Y73828D02*X66325Y73955D01*
X65817Y73828D02*X66198D01*
X66630Y73320D02*X67265Y74336D01*
X66630D02*X67265Y73320D01*
X67697D02*X68078Y73828D01*
Y74209D02*Y73828D01*
X67951Y74336D02*X68078Y74209D01*
X67697Y74336D02*X67951D01*
X67570Y74209D02*X67697Y74336D01*
X67570Y74209D02*Y73955D01*
X67697Y73828D01*
X68078D01*
X72244Y68970D02*X73260D01*
X72244Y69478D02*Y68970D01*
X72701Y69351D02*Y68970D01*
X72447Y69783D02*X72244Y69986D01*
X73260D01*
Y70164D02*Y69783D01*
X82296Y62494D02*Y62164D01*
X82474Y62672D02*X82296Y62494D01*
X82474Y62672D02*X83134D01*
X83312Y62494D01*
Y62164D01*
X82423Y61859D02*X83185D01*
X83312Y61732D01*
Y61478D01*
X83185Y61351D01*
X82423D02*X83185D01*
X82296Y61478D02*X82423Y61351D01*
X82296Y61732D02*Y61478D01*
X82423Y61859D02*X82296Y61732D01*
Y61046D02*X83312D01*
X82296Y60411D01*
X83312D01*
X82296Y60106D02*X83312D01*
X82296Y59471D01*
X83312D01*
X83185Y59166D02*X83312Y59039D01*
Y58785D01*
X83185Y58658D01*
X82296Y58785D02*X82423Y58658D01*
X82296Y59039D02*Y58785D01*
X82423Y59166D02*X82296Y59039D01*
X82854D02*Y58785D01*
X82982Y58658D02*X83185D01*
X82423D02*X82728D01*
X82854Y58785D01*
X82982Y58658D02*X82854Y58785D01*
X71354Y60937D02*X72370D01*
X71354Y61318D02*Y60810D01*
Y61318D02*X71481Y61445D01*
X71735D01*
X71862Y61318D02*X71735Y61445D01*
X71862Y61318D02*Y60937D01*
X72370Y61750D02*X71354Y62385D01*
Y61750D02*X72370Y62385D01*
X71557Y62690D02*X71354Y62893D01*
X72370D01*
Y63071D02*Y62690D01*
X71557Y63376D02*X71354Y63579D01*
X72370D01*
Y63757D02*Y63376D01*
M02*
