G04 start of page 12 for group -4014 idx -4014 *
G04 Title: (unknown), bottompaste *
G04 Creator: pcb 4.2.0 *
G04 CreationDate: Wed Mar 25 23:58:17 2020 UTC *
G04 For: blinken *
G04 Format: Gerber/RS-274X *
G04 PCB-Dimensions (mm): 90.16 90.16 *
G04 PCB-Coordinate-Origin: lower left *
%MOMM*%
%FSLAX43Y43*%
%LNBOTTOMPASTE*%
%ADD101C,1.000*%
%ADD100C,0.002*%
G54D100*G36*
X67390Y80739D02*X67091D01*
Y80010D01*
X67390D01*
Y80739D01*
G37*
G36*
X66890D02*X66590D01*
Y80010D01*
X66890D01*
Y80739D01*
G37*
G36*
X66390D02*X66090D01*
Y80010D01*
X66390D01*
Y80739D01*
G37*
G36*
X65890D02*X65590D01*
Y80010D01*
X65890D01*
Y80739D01*
G37*
G36*
X63910Y81489D02*Y81190D01*
X64639D01*
Y81489D01*
X63910D01*
G37*
G36*
Y81990D02*Y81690D01*
X64639D01*
Y81990D01*
X63910D01*
G37*
G36*
Y82490D02*Y82190D01*
X64639D01*
Y82490D01*
X63910D01*
G37*
G36*
Y82990D02*Y82690D01*
X64639D01*
Y82990D01*
X63910D01*
G37*
G36*
Y83490D02*Y83191D01*
X64639D01*
Y83490D01*
X63910D01*
G37*
G36*
X64990Y82340D02*Y81090D01*
X66240D01*
Y82340D01*
X64990D01*
G37*
G36*
X66240D02*Y81090D01*
X67490D01*
Y82340D01*
X66240D01*
G37*
G36*
Y83590D02*Y82340D01*
X67490D01*
Y83590D01*
X66240D01*
G37*
G36*
X64990D02*Y82340D01*
X66240D01*
Y83590D01*
X64990D01*
G37*
G36*
X65389Y84671D02*X65090D01*
Y83942D01*
X65389D01*
Y84671D01*
G37*
G36*
X65890D02*X65590D01*
Y83942D01*
X65890D01*
Y84671D01*
G37*
G36*
X66390D02*X66090D01*
Y83942D01*
X66390D01*
Y84671D01*
G37*
G36*
X66890D02*X66590D01*
Y83942D01*
X66890D01*
Y84671D01*
G37*
G36*
X67390D02*X67091D01*
Y83942D01*
X67390D01*
Y84671D01*
G37*
G36*
X67842Y83490D02*Y83191D01*
X68571D01*
Y83490D01*
X67842D01*
G37*
G36*
Y82990D02*Y82690D01*
X68571D01*
Y82990D01*
X67842D01*
G37*
G36*
Y82490D02*Y82190D01*
X68571D01*
Y82490D01*
X67842D01*
G37*
G36*
Y81990D02*Y81690D01*
X68571D01*
Y81990D01*
X67842D01*
G37*
G36*
Y81489D02*Y81190D01*
X68571D01*
Y81489D01*
X67842D01*
G37*
G36*
X65389Y80739D02*X65090D01*
Y80010D01*
X65389D01*
Y80739D01*
G37*
G36*
X60256Y79871D02*X58956D01*
Y77971D01*
X60256D01*
Y79871D01*
G37*
G36*
X63256D02*X61956D01*
Y77971D01*
X63256D01*
Y79871D01*
G37*
G36*
X35110Y77885D02*Y77585D01*
X35910D01*
Y77885D01*
X35110D01*
G37*
G36*
Y77235D02*Y76935D01*
X35910D01*
Y77235D01*
X35110D01*
G37*
G36*
Y76585D02*Y76285D01*
X35910D01*
Y76585D01*
X35110D01*
G37*
G36*
Y75935D02*Y75635D01*
X35910D01*
Y75935D01*
X35110D01*
G37*
G36*
X39010D02*Y75635D01*
X39810D01*
Y75935D01*
X39010D01*
G37*
G36*
Y76585D02*Y76285D01*
X39810D01*
Y76585D01*
X39010D01*
G37*
G36*
Y77235D02*Y76935D01*
X39810D01*
Y77235D01*
X39010D01*
G37*
G36*
Y77885D02*Y77585D01*
X39810D01*
Y77885D01*
X39010D01*
G37*
G36*
X36635Y75210D02*X36335D01*
Y74410D01*
X36635D01*
Y75210D01*
G37*
G36*
X37285D02*X36985D01*
Y74410D01*
X37285D01*
Y75210D01*
G37*
G36*
X37935D02*X37635D01*
Y74410D01*
X37935D01*
Y75210D01*
G37*
G36*
X38585D02*X38285D01*
Y74410D01*
X38585D01*
Y75210D01*
G37*
G36*
Y79110D02*X38285D01*
Y78310D01*
X38585D01*
Y79110D01*
G37*
G36*
X37935D02*X37635D01*
Y78310D01*
X37935D01*
Y79110D01*
G37*
G36*
X37285D02*X36985D01*
Y78310D01*
X37285D01*
Y79110D01*
G37*
G36*
X36635D02*X36335D01*
Y78310D01*
X36635D01*
Y79110D01*
G37*
G36*
X36110Y78110D02*Y75410D01*
X38810D01*
Y78110D01*
X36110D01*
G37*
G36*
X40690Y71950D02*X39390D01*
Y70450D01*
X40690D01*
Y71950D01*
G37*
G36*
X38890D02*X37590D01*
Y70450D01*
X38890D01*
Y71950D01*
G37*
G36*
X29124Y72781D02*X27824D01*
Y70881D01*
X29124D01*
Y72781D01*
G37*
G36*
X26124D02*X24824D01*
Y70881D01*
X26124D01*
Y72781D01*
G37*
G36*
X29094Y75157D02*X27794D01*
Y73257D01*
X29094D01*
Y75157D01*
G37*
G36*
X26094D02*X24794D01*
Y73257D01*
X26094D01*
Y75157D01*
G37*
G36*
X41351Y60524D02*X40051D01*
Y58624D01*
X41351D01*
Y60524D01*
G37*
G36*
X38351D02*X37051D01*
Y58624D01*
X38351D01*
Y60524D01*
G37*
G36*
X36697Y57825D02*X35397D01*
Y55925D01*
X36697D01*
Y57825D01*
G37*
G36*
X33698D02*X32398D01*
Y55925D01*
X33698D01*
Y57825D01*
G37*
G36*
X37653Y64343D02*X36790D01*
Y63327D01*
X37653D01*
Y64343D01*
G37*
G36*
X39634D02*X38771D01*
Y63327D01*
X39634D01*
Y64343D01*
G37*
G36*
X38644Y62260D02*X37780D01*
Y61244D01*
X38644D01*
Y62260D01*
G37*
G36*
X28354Y57268D02*Y55968D01*
X30254D01*
Y57268D01*
X28354D01*
G37*
G36*
Y60268D02*Y58968D01*
X30254D01*
Y60268D01*
X28354D01*
G37*
G36*
X76760Y66560D02*X74460D01*
Y64060D01*
X76760D01*
Y66560D01*
G37*
G36*
Y70860D02*X74460D01*
Y68360D01*
X76760D01*
Y70860D01*
G37*
G36*
X38900Y73750D02*X37600D01*
Y72250D01*
X38900D01*
Y73750D01*
G37*
G36*
X40700D02*X39400D01*
Y72250D01*
X40700D01*
Y73750D01*
G37*
G36*
X34095Y63142D02*Y61842D01*
X35995D01*
Y63142D01*
X34095D01*
G37*
G36*
Y60142D02*Y58842D01*
X35995D01*
Y60142D01*
X34095D01*
G37*
G54D101*X71750Y76390D02*X73440D01*
X71750Y85040D02*X73440D01*
X76100Y76390D02*X77500D01*
X76100Y85040D02*X77500D01*
G54D100*G36*
X75533Y80321D02*X74233D01*
Y78422D01*
X75533D01*
Y80321D01*
G37*
G36*
X72533D02*X71233D01*
Y78422D01*
X72533D01*
Y80321D01*
G37*
G36*
X70170Y66950D02*Y65650D01*
X72070D01*
Y66950D01*
X70170D01*
G37*
G36*
Y69950D02*Y68650D01*
X72070D01*
Y69950D01*
X70170D01*
G37*
G36*
X30116Y82216D02*Y80916D01*
X32016D01*
Y82216D01*
X30116D01*
G37*
G36*
Y79216D02*Y77916D01*
X32016D01*
Y79216D01*
X30116D01*
G37*
G36*
X43881Y79084D02*Y76684D01*
X46781D01*
Y79084D01*
X43881D01*
G37*
G36*
Y72984D02*Y70584D01*
X46781D01*
Y72984D01*
X43881D01*
G37*
G36*
X40694Y78269D02*Y76969D01*
X42594D01*
Y78269D01*
X40694D01*
G37*
G36*
Y75269D02*Y73969D01*
X42594D01*
Y75269D01*
X40694D01*
G37*
G36*
X32543Y77589D02*X31243D01*
Y76090D01*
X32543D01*
Y77589D01*
G37*
G36*
X34343D02*X33043D01*
Y76090D01*
X34343D01*
Y77589D01*
G37*
G36*
X7063Y79262D02*Y77962D01*
X8963D01*
Y79262D01*
X7063D01*
G37*
G36*
Y76262D02*Y74962D01*
X8963D01*
Y76262D01*
X7063D01*
G37*
G36*
X34347Y75404D02*X33047D01*
Y73905D01*
X34347D01*
Y75404D01*
G37*
G36*
X32547D02*X31247D01*
Y73905D01*
X32547D01*
Y75404D01*
G37*
G36*
X39051Y84119D02*X37551D01*
Y80119D01*
X39051D01*
Y84119D01*
G37*
G36*
X42651D02*X41151D01*
Y80119D01*
X42651D01*
Y84119D01*
G37*
G36*
X32630Y82208D02*Y80908D01*
X34530D01*
Y82208D01*
X32630D01*
G37*
G36*
Y79209D02*Y77909D01*
X34530D01*
Y79209D01*
X32630D01*
G37*
G36*
X7697Y71027D02*X6397D01*
Y69127D01*
X7697D01*
Y71027D01*
G37*
G36*
X10697D02*X9397D01*
Y69127D01*
X10697D01*
Y71027D01*
G37*
G36*
X16189Y81983D02*Y80983D01*
X21689D01*
Y81983D01*
X16189D01*
G37*
G36*
Y79983D02*Y78983D01*
X21689D01*
Y79983D01*
X16189D01*
G37*
G36*
X15189Y84683D02*Y83083D01*
X18189D01*
Y84683D01*
X15189D01*
G37*
G36*
Y77883D02*Y76283D01*
X18189D01*
Y77883D01*
X15189D01*
G37*
G36*
X25998Y84692D02*Y82292D01*
X28898D01*
Y84692D01*
X25998D01*
G37*
G36*
Y78592D02*Y76192D01*
X28898D01*
Y78592D01*
X25998D01*
G37*
G36*
X62683Y86947D02*X61383D01*
Y85047D01*
X62683D01*
Y86947D01*
G37*
G36*
X59683D02*X58383D01*
Y85047D01*
X59683D01*
Y86947D01*
G37*
G36*
X62667Y84627D02*X61367D01*
Y82727D01*
X62667D01*
Y84627D01*
G37*
G36*
X59667D02*X58367D01*
Y82727D01*
X59667D01*
Y84627D01*
G37*
G36*
X11243Y38430D02*X9943D01*
Y36531D01*
X11243D01*
Y38430D01*
G37*
G36*
X8243D02*X6944D01*
Y36531D01*
X8243D01*
Y38430D01*
G37*
G36*
X70493Y38480D02*X69193D01*
Y36580D01*
X70493D01*
Y38480D01*
G37*
G36*
X73492D02*X72192D01*
Y36580D01*
X73492D01*
Y38480D01*
G37*
G36*
X63258Y74683D02*X61958D01*
Y72783D01*
X63258D01*
Y74683D01*
G37*
G36*
X60258D02*X58958D01*
Y72783D01*
X60258D01*
Y74683D01*
G37*
G36*
X60274Y77319D02*X58974D01*
Y75419D01*
X60274D01*
Y77319D01*
G37*
G36*
X63273D02*X61973D01*
Y75419D01*
X63273D01*
Y77319D01*
G37*
G36*
X75524Y82718D02*X74224D01*
Y80818D01*
X75524D01*
Y82718D01*
G37*
G36*
X72524D02*X71224D01*
Y80818D01*
X72524D01*
Y82718D01*
G37*
G36*
X63999Y55880D02*X60799D01*
Y50980D01*
X63999D01*
Y55880D01*
G37*
G36*
X59099Y51900D02*Y51150D01*
X60449D01*
Y51900D01*
X59099D01*
G37*
G36*
Y53170D02*Y52420D01*
X60449D01*
Y53170D01*
X59099D01*
G37*
G36*
Y54440D02*Y53690D01*
X60449D01*
Y54440D01*
X59099D01*
G37*
G36*
Y55710D02*Y54960D01*
X60449D01*
Y55710D01*
X59099D01*
G37*
G36*
X64349Y51900D02*Y51150D01*
X65699D01*
Y51900D01*
X64349D01*
G37*
G36*
Y53170D02*Y52420D01*
X65699D01*
Y53170D01*
X64349D01*
G37*
G36*
Y54440D02*Y53690D01*
X65699D01*
Y54440D01*
X64349D01*
G37*
G36*
Y55710D02*Y54960D01*
X65699D01*
Y55710D01*
X64349D01*
G37*
G36*
X55898Y49133D02*Y47833D01*
X57798D01*
Y49133D01*
X55898D01*
G37*
G36*
Y52133D02*Y50833D01*
X57798D01*
Y52133D01*
X55898D01*
G37*
G36*
X53278Y49137D02*Y47837D01*
X55178D01*
Y49137D01*
X53278D01*
G37*
G36*
Y52137D02*Y50837D01*
X55178D01*
Y52137D01*
X53278D01*
G37*
M02*
