G04 start of page 4 for group 2 idx 2 *
G04 Title: (unknown), outline *
G04 Creator: pcb 4.2.0 *
G04 CreationDate: Thu Mar 26 12:54:29 2020 UTC *
G04 For: blinken *
G04 Format: Gerber/RS-274X *
G04 PCB-Dimensions (mm): 90.16 90.16 *
G04 PCB-Coordinate-Origin: lower left *
%MOMM*%
%FSLAX43Y43*%
%LNOUTLINE*%
%ADD47C,0.600*%
%ADD46C,0.500*%
G54D46*X74900Y18860D02*X74935Y33863D01*
X56244Y15225D02*X71300Y15260D01*
G54D47*X71750Y76390D02*X73430D01*
G54D46*X71286Y15260D02*X74900Y18874D01*
X74942Y88647D02*X39958Y88640D01*
X78542Y85047D02*X78542Y50134D01*
G54D47*X71750Y85040D02*X73440D01*
X76100D02*X77500D01*
X76100Y76390D02*X77500D01*
G54D46*X78542Y85062D02*X78536Y85827D01*
X74928Y88647D01*
X5065Y66458D02*X5100Y81460D01*
Y18860D02*X5065Y33916D01*
X23703Y15225D02*X8700Y15260D01*
X23688Y85033D02*X8700Y85060D01*
X5100Y81503D02*X8657Y85060D01*
X8662D01*
X8700Y15260D02*G75*G02X5100Y18860I0J3600D01*G01*
X5065Y66458D02*G75*G03X5065Y33916I34893J-16271D01*G01*
X23703Y15225D02*G75*G03X56244Y15225I16271J34893D01*G01*
X74935Y33863D02*G75*G03X78542Y50133I-34893J16271D01*G01*
X39958Y88640D02*G75*G03X23687Y85033I0J-38500D01*G01*
M02*
