M48
METRIC,000.000
T55C0.889
T54C0.400
T53C0.508
T52C2.646
T51C0.300
T50C0.965
%
T51
X036660Y077560
X036660Y075960
X037460Y076760
X038260Y077560
X038260Y075960
T54
X004000Y060940
X005100Y050710
X005280Y046020
X005750Y055920
X006390Y040940
X006720Y027070
X008600Y035190
X009620Y068300
X011155Y082220
X011390Y021130
X013384Y048899
X013547Y054473
X014449Y042141
X014596Y058668
X016940Y036701
X017690Y016520
X017986Y072029
X018858Y059324
X019250Y075660
X019444Y052418
X020136Y051233
X020992Y075683
X021219Y074853
X021670Y030580
X021853Y075462
X022590Y061090
X022676Y051257
X022946Y052402
X022951Y039604
X023240Y084043
X024720Y063220
X024733Y076649
X024939Y051539
X025444Y074207
X025715Y046332
X026536Y082841
X026590Y079370
X026822Y045174
X027970Y043230
X028144Y064313
X028444Y074207
X028609Y054756
X028610Y048360
X029289Y059591
X029670Y017450
X029869Y072368
X029933Y053591
X030300Y045160
X030509Y046217
X030523Y044124
X031091Y078568
X031252Y058237
X031545Y063857
X032201Y052294
X032320Y084070
X033000Y054560
X033085Y059587
X033260Y030540
X033290Y034000
X033290Y027040
X033290Y023460
X033838Y048052
X033870Y051974
X034519Y039651
X034542Y053927
X034660Y015820
X034667Y072347
X034780Y081536
X034780Y080530
X034895Y059552
X034897Y048033
X035000Y085660
X035759Y080530
X035862Y052326
X036112Y042945
X036410Y073180
X036673Y080507
X036700Y049560
X037534Y045345
X037809Y053729
X038461Y048571
X038492Y028757
X038823Y053746
X039116Y058090
X039410Y039370
X039440Y044910
X039640Y015250
X040034Y079041
X040438Y043134
X040518Y048573
X040701Y059584
X041165Y079058
X041297Y053539
X042227Y051326
X042227Y050293
X042340Y079058
X042550Y024220
X043632Y046979
X043632Y039359
X043745Y075786
X044350Y030870
X044736Y049932
X044860Y075783
X045090Y015250
X045983Y075788
X047450Y039130
X047470Y040190
X047580Y034270
X047677Y057153
X048030Y021430
X048460Y046980
X049890Y016080
X050570Y073560
X051455Y055752
X051700Y073570
X051750Y027253
X052840Y073570
X052890Y076040
X053095Y041647
X055210Y018110
X056020Y076870
X056670Y039360
X056750Y076180
X057800Y076200
X057900Y062240
X057936Y031545
X057983Y055752
X061748Y049312
X062409Y052090
X062429Y054460
X062640Y016490
X063271Y083035
X063580Y084320
X064146Y035957
X064564Y058370
X066197Y078679
X066300Y082280
X067381Y079046
X068351Y058812
X068919Y055025
X069120Y022000
X069530Y079240
X070840Y079440
X073590Y031620
X074310Y044000
X075200Y049160
X075220Y052870
X077440Y060820
T53
X010312Y051781
X010541Y046726
X011024Y057013
X011608Y041544
X012700Y062360
X013741Y036261
X016688Y031664
X019202Y028819
X022428Y025974
X026619Y023282
X031800Y021260
X037033Y020361
X042520Y020412
X053315Y023510
X057531Y026050
X060604Y028565
X063195Y031308
X066345Y035931
T55
X014100Y082260
X053169Y087281
X056447Y041969
X058146Y071766
X066827Y053914
X068470Y041270
X069540Y074300
X071655Y087231
X075610Y069661
T50
X013410Y068910
X013410Y066370
X015950Y068910
X015950Y066370
X018490Y068910
X018490Y066370
X021030Y068910
X021030Y066370
X023570Y068910
X023570Y066370
X026110Y068910
X026110Y066370
X028650Y068910
X028650Y066370
X031190Y068910
X031190Y066370
X033730Y068910
X033730Y066370
X036270Y068910
X036270Y066370
X038810Y068910
X038810Y066370
X041350Y068910
X041350Y066370
X043890Y068910
X043890Y066370
X045664Y061010
X045664Y058470
X045664Y055930
X046430Y068910
X046430Y066370
X048970Y068910
X048970Y066370
X051510Y068910
X051510Y066370
X054050Y068910
X054050Y066370
X056590Y068910
X056590Y066370
X056818Y087020
X056818Y084480
X059130Y068910
X059130Y066370
X061670Y068910
X061670Y066370
T52
X008500Y018660
X008579Y081703
X066340Y044520
X066500Y018660
M30
