G04 start of page 13 for group -3984 idx -3984 *
G04 Title: (unknown), fab *
G04 Creator: pcb 4.2.0 *
G04 CreationDate: Wed Mar 25 23:58:17 2020 UTC *
G04 For: blinken *
G04 Format: Gerber/RS-274X *
G04 PCB-Dimensions (mm): 90.16 90.16 *
G04 PCB-Coordinate-Origin: lower left *
%MOMM*%
%FSLAX43Y43*%
%LNFAB*%
%ADD105C,0.254*%
%ADD104C,0.191*%
%ADD103C,0.152*%
%ADD102R,0.203X0.203*%
G54D102*X8500Y19473D02*Y17847D01*
X7687Y18660D02*X9313D01*
X8094Y19066D02*X8906D01*
X8094D02*Y18254D01*
X8906D01*
Y19066D02*Y18254D01*
X66500Y19473D02*Y17847D01*
X65687Y18660D02*X67313D01*
X66094Y19066D02*X66906D01*
X66094D02*Y18254D01*
X66906D01*
Y19066D02*Y18254D01*
X66340Y45333D02*Y43707D01*
X65527Y44520D02*X67153D01*
X65934Y44926D02*X66746D01*
X65934D02*Y44114D01*
X66746D01*
Y44926D02*Y44114D01*
X8579Y82516D02*Y80890D01*
X7766Y81703D02*X9391D01*
X8172Y82110D02*X8985D01*
X8172D02*Y81297D01*
X8985D01*
Y82110D02*Y81297D01*
X3810Y93830D02*Y92205D01*
X2997Y93018D02*X4623D01*
X3404Y93424D02*X4216D01*
X3404D02*Y92611D01*
X4216D01*
Y93424D02*Y92611D01*
G54D103*X34290Y93589D02*X34671Y92827D01*
X35052Y93589D01*
X34671Y92827D02*Y92065D01*
X35509Y92903D02*X36081D01*
X35509Y92065D02*X36271D01*
X35509Y93589D02*Y92065D01*
Y93589D02*X36271D01*
X37490D02*X37681Y93399D01*
X36919Y93589D02*X37490D01*
X36728Y93399D02*X36919Y93589D01*
X36728Y93399D02*Y93018D01*
X36919Y92827D01*
X37490D01*
X37681Y92637D01*
Y92256D01*
X37490Y92065D02*X37681Y92256D01*
X36919Y92065D02*X37490D01*
X36728Y92256D02*X36919Y92065D01*
X24892Y92637D02*X25654Y93589D01*
X24892Y92637D02*X25844D01*
X25654Y93589D02*Y92065D01*
X11430Y92256D02*X11620Y92065D01*
X11430Y93399D02*Y92256D01*
Y93399D02*X11620Y93589D01*
X12002D01*
X12192Y93399D01*
Y92256D01*
X12002Y92065D02*X12192Y92256D01*
X11620Y92065D02*X12002D01*
X11430Y92446D02*X12192Y93208D01*
X12649Y92065D02*X12840D01*
X13297Y93284D02*X13602Y93589D01*
Y92065D01*
X13297D02*X13868D01*
X14326Y92256D02*X14516Y92065D01*
X14326Y93399D02*Y92256D01*
Y93399D02*X14516Y93589D01*
X14897D01*
X15088Y93399D01*
Y92256D01*
X14897Y92065D02*X15088Y92256D01*
X14516Y92065D02*X14897D01*
X14326Y92446D02*X15088Y93208D01*
X15545Y92637D02*X16307Y93589D01*
X15545Y92637D02*X16497D01*
X16307Y93589D02*Y92065D01*
X13410Y66370D02*Y65557D01*
Y66370D02*X14114Y66776D01*
X13410Y66370D02*X12706Y66776D01*
X13004Y66370D02*G75*G03X13816Y66370I406J0D01*G01*
G75*G03X13004Y66370I-406J0D01*G01*
X13410Y68910D02*Y68097D01*
Y68910D02*X14114Y69316D01*
X13410Y68910D02*X12706Y69316D01*
X13004Y68910D02*G75*G03X13816Y68910I406J0D01*G01*
G75*G03X13004Y68910I-406J0D01*G01*
X15950Y66370D02*Y65557D01*
Y66370D02*X16654Y66776D01*
X15950Y66370D02*X15246Y66776D01*
X15544Y66370D02*G75*G03X16356Y66370I406J0D01*G01*
G75*G03X15544Y66370I-406J0D01*G01*
X15950Y68910D02*Y68097D01*
Y68910D02*X16654Y69316D01*
X15950Y68910D02*X15246Y69316D01*
X15544Y68910D02*G75*G03X16356Y68910I406J0D01*G01*
G75*G03X15544Y68910I-406J0D01*G01*
X18490Y66370D02*Y65557D01*
Y66370D02*X19194Y66776D01*
X18490Y66370D02*X17786Y66776D01*
X18084Y66370D02*G75*G03X18896Y66370I406J0D01*G01*
G75*G03X18084Y66370I-406J0D01*G01*
X18490Y68910D02*Y68097D01*
Y68910D02*X19194Y69316D01*
X18490Y68910D02*X17786Y69316D01*
X18084Y68910D02*G75*G03X18896Y68910I406J0D01*G01*
G75*G03X18084Y68910I-406J0D01*G01*
X21030Y66370D02*Y65557D01*
Y66370D02*X21734Y66776D01*
X21030Y66370D02*X20326Y66776D01*
X20624Y66370D02*G75*G03X21436Y66370I406J0D01*G01*
G75*G03X20624Y66370I-406J0D01*G01*
X21030Y68910D02*Y68097D01*
Y68910D02*X21734Y69316D01*
X21030Y68910D02*X20326Y69316D01*
X20624Y68910D02*G75*G03X21436Y68910I406J0D01*G01*
G75*G03X20624Y68910I-406J0D01*G01*
X23570Y66370D02*Y65557D01*
Y66370D02*X24274Y66776D01*
X23570Y66370D02*X22866Y66776D01*
X23164Y66370D02*G75*G03X23976Y66370I406J0D01*G01*
G75*G03X23164Y66370I-406J0D01*G01*
X23570Y68910D02*Y68097D01*
Y68910D02*X24274Y69316D01*
X23570Y68910D02*X22866Y69316D01*
X23164Y68910D02*G75*G03X23976Y68910I406J0D01*G01*
G75*G03X23164Y68910I-406J0D01*G01*
X26110Y66370D02*Y65557D01*
Y66370D02*X26814Y66776D01*
X26110Y66370D02*X25406Y66776D01*
X25704Y66370D02*G75*G03X26516Y66370I406J0D01*G01*
G75*G03X25704Y66370I-406J0D01*G01*
X26110Y68910D02*Y68097D01*
Y68910D02*X26814Y69316D01*
X26110Y68910D02*X25406Y69316D01*
X25704Y68910D02*G75*G03X26516Y68910I406J0D01*G01*
G75*G03X25704Y68910I-406J0D01*G01*
X28650Y66370D02*Y65557D01*
Y66370D02*X29354Y66776D01*
X28650Y66370D02*X27946Y66776D01*
X28244Y66370D02*G75*G03X29056Y66370I406J0D01*G01*
G75*G03X28244Y66370I-406J0D01*G01*
X28650Y68910D02*Y68097D01*
Y68910D02*X29354Y69316D01*
X28650Y68910D02*X27946Y69316D01*
X28244Y68910D02*G75*G03X29056Y68910I406J0D01*G01*
G75*G03X28244Y68910I-406J0D01*G01*
X31190Y66370D02*Y65557D01*
Y66370D02*X31894Y66776D01*
X31190Y66370D02*X30486Y66776D01*
X30784Y66370D02*G75*G03X31596Y66370I406J0D01*G01*
G75*G03X30784Y66370I-406J0D01*G01*
X31190Y68910D02*Y68097D01*
Y68910D02*X31894Y69316D01*
X31190Y68910D02*X30486Y69316D01*
X30784Y68910D02*G75*G03X31596Y68910I406J0D01*G01*
G75*G03X30784Y68910I-406J0D01*G01*
X33730Y66370D02*Y65557D01*
Y66370D02*X34434Y66776D01*
X33730Y66370D02*X33026Y66776D01*
X33324Y66370D02*G75*G03X34136Y66370I406J0D01*G01*
G75*G03X33324Y66370I-406J0D01*G01*
X33730Y68910D02*Y68097D01*
Y68910D02*X34434Y69316D01*
X33730Y68910D02*X33026Y69316D01*
X33324Y68910D02*G75*G03X34136Y68910I406J0D01*G01*
G75*G03X33324Y68910I-406J0D01*G01*
X36270Y66370D02*Y65557D01*
Y66370D02*X36974Y66776D01*
X36270Y66370D02*X35566Y66776D01*
X35864Y66370D02*G75*G03X36676Y66370I406J0D01*G01*
G75*G03X35864Y66370I-406J0D01*G01*
X36270Y68910D02*Y68097D01*
Y68910D02*X36974Y69316D01*
X36270Y68910D02*X35566Y69316D01*
X35864Y68910D02*G75*G03X36676Y68910I406J0D01*G01*
G75*G03X35864Y68910I-406J0D01*G01*
X38810Y66370D02*Y65557D01*
Y66370D02*X39514Y66776D01*
X38810Y66370D02*X38106Y66776D01*
X38404Y66370D02*G75*G03X39216Y66370I406J0D01*G01*
G75*G03X38404Y66370I-406J0D01*G01*
X38810Y68910D02*Y68097D01*
Y68910D02*X39514Y69316D01*
X38810Y68910D02*X38106Y69316D01*
X38404Y68910D02*G75*G03X39216Y68910I406J0D01*G01*
G75*G03X38404Y68910I-406J0D01*G01*
X41350Y66370D02*Y65557D01*
Y66370D02*X42054Y66776D01*
X41350Y66370D02*X40646Y66776D01*
X40944Y66370D02*G75*G03X41756Y66370I406J0D01*G01*
G75*G03X40944Y66370I-406J0D01*G01*
X41350Y68910D02*Y68097D01*
Y68910D02*X42054Y69316D01*
X41350Y68910D02*X40646Y69316D01*
X40944Y68910D02*G75*G03X41756Y68910I406J0D01*G01*
G75*G03X40944Y68910I-406J0D01*G01*
X43890Y66370D02*Y65557D01*
Y66370D02*X44594Y66776D01*
X43890Y66370D02*X43186Y66776D01*
X43484Y66370D02*G75*G03X44296Y66370I406J0D01*G01*
G75*G03X43484Y66370I-406J0D01*G01*
X43890Y68910D02*Y68097D01*
Y68910D02*X44594Y69316D01*
X43890Y68910D02*X43186Y69316D01*
X43484Y68910D02*G75*G03X44296Y68910I406J0D01*G01*
G75*G03X43484Y68910I-406J0D01*G01*
X46430Y66370D02*Y65557D01*
Y66370D02*X47134Y66776D01*
X46430Y66370D02*X45726Y66776D01*
X46024Y66370D02*G75*G03X46836Y66370I406J0D01*G01*
G75*G03X46024Y66370I-406J0D01*G01*
X46430Y68910D02*Y68097D01*
Y68910D02*X47134Y69316D01*
X46430Y68910D02*X45726Y69316D01*
X46024Y68910D02*G75*G03X46836Y68910I406J0D01*G01*
G75*G03X46024Y68910I-406J0D01*G01*
X48970Y66370D02*Y65557D01*
Y66370D02*X49674Y66776D01*
X48970Y66370D02*X48266Y66776D01*
X48564Y66370D02*G75*G03X49376Y66370I406J0D01*G01*
G75*G03X48564Y66370I-406J0D01*G01*
X48970Y68910D02*Y68097D01*
Y68910D02*X49674Y69316D01*
X48970Y68910D02*X48266Y69316D01*
X48564Y68910D02*G75*G03X49376Y68910I406J0D01*G01*
G75*G03X48564Y68910I-406J0D01*G01*
X51510Y66370D02*Y65557D01*
Y66370D02*X52214Y66776D01*
X51510Y66370D02*X50806Y66776D01*
X51104Y66370D02*G75*G03X51916Y66370I406J0D01*G01*
G75*G03X51104Y66370I-406J0D01*G01*
X51510Y68910D02*Y68097D01*
Y68910D02*X52214Y69316D01*
X51510Y68910D02*X50806Y69316D01*
X51104Y68910D02*G75*G03X51916Y68910I406J0D01*G01*
G75*G03X51104Y68910I-406J0D01*G01*
X54050Y66370D02*Y65557D01*
Y66370D02*X54754Y66776D01*
X54050Y66370D02*X53346Y66776D01*
X53644Y66370D02*G75*G03X54456Y66370I406J0D01*G01*
G75*G03X53644Y66370I-406J0D01*G01*
X54050Y68910D02*Y68097D01*
Y68910D02*X54754Y69316D01*
X54050Y68910D02*X53346Y69316D01*
X53644Y68910D02*G75*G03X54456Y68910I406J0D01*G01*
G75*G03X53644Y68910I-406J0D01*G01*
X56590Y66370D02*Y65557D01*
Y66370D02*X57294Y66776D01*
X56590Y66370D02*X55886Y66776D01*
X56184Y66370D02*G75*G03X56996Y66370I406J0D01*G01*
G75*G03X56184Y66370I-406J0D01*G01*
X56590Y68910D02*Y68097D01*
Y68910D02*X57294Y69316D01*
X56590Y68910D02*X55886Y69316D01*
X56184Y68910D02*G75*G03X56996Y68910I406J0D01*G01*
G75*G03X56184Y68910I-406J0D01*G01*
X59130Y66370D02*Y65557D01*
Y66370D02*X59834Y66776D01*
X59130Y66370D02*X58426Y66776D01*
X58724Y66370D02*G75*G03X59536Y66370I406J0D01*G01*
G75*G03X58724Y66370I-406J0D01*G01*
X59130Y68910D02*Y68097D01*
Y68910D02*X59834Y69316D01*
X59130Y68910D02*X58426Y69316D01*
X58724Y68910D02*G75*G03X59536Y68910I406J0D01*G01*
G75*G03X58724Y68910I-406J0D01*G01*
X61670Y66370D02*Y65557D01*
Y66370D02*X62374Y66776D01*
X61670Y66370D02*X60966Y66776D01*
X61264Y66370D02*G75*G03X62076Y66370I406J0D01*G01*
G75*G03X61264Y66370I-406J0D01*G01*
X61670Y68910D02*Y68097D01*
Y68910D02*X62374Y69316D01*
X61670Y68910D02*X60966Y69316D01*
X61264Y68910D02*G75*G03X62076Y68910I406J0D01*G01*
G75*G03X61264Y68910I-406J0D01*G01*
X45664Y61010D02*Y60197D01*
Y61010D02*X46368Y61416D01*
X45664Y61010D02*X44960Y61416D01*
X45258Y61010D02*G75*G03X46070Y61010I406J0D01*G01*
G75*G03X45258Y61010I-406J0D01*G01*
X45664Y58470D02*Y57657D01*
Y58470D02*X46368Y58876D01*
X45664Y58470D02*X44960Y58876D01*
X45258Y58470D02*G75*G03X46070Y58470I406J0D01*G01*
G75*G03X45258Y58470I-406J0D01*G01*
X45664Y55930D02*Y55117D01*
Y55930D02*X46368Y56336D01*
X45664Y55930D02*X44960Y56336D01*
X45258Y55930D02*G75*G03X46070Y55930I406J0D01*G01*
G75*G03X45258Y55930I-406J0D01*G01*
X56818Y87020D02*Y86207D01*
Y87020D02*X57522Y87426D01*
X56818Y87020D02*X56114Y87426D01*
X56412Y87020D02*G75*G03X57224Y87020I406J0D01*G01*
G75*G03X56412Y87020I-406J0D01*G01*
X56818Y84480D02*Y83667D01*
Y84480D02*X57522Y84886D01*
X56818Y84480D02*X56114Y84886D01*
X56412Y84480D02*G75*G03X57224Y84480I406J0D01*G01*
G75*G03X56412Y84480I-406J0D01*G01*
X3810Y96828D02*Y96015D01*
Y96828D02*X4514Y97234D01*
X3810Y96828D02*X3106Y97234D01*
X3404Y96828D02*G75*G03X4216Y96828I406J0D01*G01*
G75*G03X3404Y96828I-406J0D01*G01*
X34290Y97399D02*X34671Y96637D01*
X35052Y97399D01*
X34671Y96637D02*Y95875D01*
X35509Y96713D02*X36081D01*
X35509Y95875D02*X36271D01*
X35509Y97399D02*Y95875D01*
Y97399D02*X36271D01*
X37490D02*X37681Y97209D01*
X36919Y97399D02*X37490D01*
X36728Y97209D02*X36919Y97399D01*
X36728Y97209D02*Y96828D01*
X36919Y96637D01*
X37490D01*
X37681Y96447D01*
Y96066D01*
X37490Y95875D02*X37681Y96066D01*
X36919Y95875D02*X37490D01*
X36728Y96066D02*X36919Y95875D01*
X24892Y96447D02*X25654Y97399D01*
X24892Y96447D02*X25844D01*
X25654Y97399D02*Y95875D01*
X26302Y97399D02*X27064D01*
X26302D02*Y96637D01*
X26492Y96828D01*
X26873D01*
X27064Y96637D01*
Y96066D01*
X26873Y95875D02*X27064Y96066D01*
X26492Y95875D02*X26873D01*
X26302Y96066D02*X26492Y95875D01*
X11430Y96066D02*X11620Y95875D01*
X11430Y97209D02*Y96066D01*
Y97209D02*X11620Y97399D01*
X12002D01*
X12192Y97209D01*
Y96066D01*
X12002Y95875D02*X12192Y96066D01*
X11620Y95875D02*X12002D01*
X11430Y96256D02*X12192Y97018D01*
X12649Y95875D02*X12840D01*
X13297Y96066D02*X13487Y95875D01*
X13297Y97209D02*Y96066D01*
Y97209D02*X13487Y97399D01*
X13868D01*
X14059Y97209D01*
Y96066D01*
X13868Y95875D02*X14059Y96066D01*
X13487Y95875D02*X13868D01*
X13297Y96256D02*X14059Y97018D01*
X14516Y97209D02*X14707Y97399D01*
X15088D01*
X15278Y97209D01*
X15088Y95875D02*X15278Y96066D01*
X14707Y95875D02*X15088D01*
X14516Y96066D02*X14707Y95875D01*
Y96713D02*X15088D01*
X15278Y97209D02*Y96904D01*
Y96523D02*Y96066D01*
Y96523D02*X15088Y96713D01*
X15278Y96904D02*X15088Y96713D01*
X15735Y96066D02*X15926Y95875D01*
X15735Y96370D02*Y96066D01*
Y96370D02*X16002Y96637D01*
X16231D01*
X16497Y96370D01*
Y96066D01*
X16307Y95875D02*X16497Y96066D01*
X15926Y95875D02*X16307D01*
X15735Y96904D02*X16002Y96637D01*
X15735Y97209D02*Y96904D01*
Y97209D02*X15926Y97399D01*
X16307D01*
X16497Y97209D01*
Y96904D01*
X16231Y96637D02*X16497Y96904D01*
X75204Y70068D02*X76016D01*
X75204D02*Y69255D01*
X76016D01*
Y70068D02*Y69255D01*
X13694Y82666D02*X14506D01*
X13694D02*Y81854D01*
X14506D01*
Y82666D02*Y81854D01*
X69134Y74706D02*X69946D01*
X69134D02*Y73894D01*
X69946D01*
Y74706D02*Y73894D01*
X68064Y41676D02*X68876D01*
X68064D02*Y40864D01*
X68876D01*
Y41676D02*Y40864D01*
X52762Y87688D02*X53575D01*
X52762D02*Y86875D01*
X53575D01*
Y87688D02*Y86875D01*
X57739Y72172D02*X58552D01*
X57739D02*Y71359D01*
X58552D01*
Y72172D02*Y71359D01*
X56040Y42376D02*X56853D01*
X56040D02*Y41563D01*
X56853D01*
Y42376D02*Y41563D01*
X71248Y87638D02*X72061D01*
X71248D02*Y86825D01*
X72061D01*
Y87638D02*Y86825D01*
X66420Y54321D02*X67233D01*
X66420D02*Y53508D01*
X67233D01*
Y54321D02*Y53508D01*
X3404Y101044D02*X4216D01*
X3404D02*Y100231D01*
X4216D01*
Y101044D02*Y100231D01*
X34290Y101209D02*X34671Y100447D01*
X35052Y101209D01*
X34671Y100447D02*Y99685D01*
X35509Y100523D02*X36081D01*
X35509Y99685D02*X36271D01*
X35509Y101209D02*Y99685D01*
Y101209D02*X36271D01*
X37490D02*X37681Y101019D01*
X36919Y101209D02*X37490D01*
X36728Y101019D02*X36919Y101209D01*
X36728Y101019D02*Y100638D01*
X36919Y100447D01*
X37490D01*
X37681Y100257D01*
Y99876D01*
X37490Y99685D02*X37681Y99876D01*
X36919Y99685D02*X37490D01*
X36728Y99876D02*X36919Y99685D01*
X25082D02*X25654Y100447D01*
Y101019D02*Y100447D01*
X25464Y101209D02*X25654Y101019D01*
X25082Y101209D02*X25464D01*
X24892Y101019D02*X25082Y101209D01*
X24892Y101019D02*Y100638D01*
X25082Y100447D01*
X25654D01*
X11430Y99876D02*X11620Y99685D01*
X11430Y101019D02*Y99876D01*
Y101019D02*X11620Y101209D01*
X12002D01*
X12192Y101019D01*
Y99876D01*
X12002Y99685D02*X12192Y99876D01*
X11620Y99685D02*X12002D01*
X11430Y100066D02*X12192Y100828D01*
X12649Y99685D02*X12840D01*
X13297Y99876D02*X13487Y99685D01*
X13297Y101019D02*Y99876D01*
Y101019D02*X13487Y101209D01*
X13868D01*
X14059Y101019D01*
Y99876D01*
X13868Y99685D02*X14059Y99876D01*
X13487Y99685D02*X13868D01*
X13297Y100066D02*X14059Y100828D01*
X14516Y101019D02*X14707Y101209D01*
X15088D01*
X15278Y101019D01*
X15088Y99685D02*X15278Y99876D01*
X14707Y99685D02*X15088D01*
X14516Y99876D02*X14707Y99685D01*
Y100523D02*X15088D01*
X15278Y101019D02*Y100714D01*
Y100333D02*Y99876D01*
Y100333D02*X15088Y100523D01*
X15278Y100714D02*X15088Y100523D01*
X15735Y101209D02*X16497D01*
X15735D02*Y100447D01*
X15926Y100638D01*
X16307D01*
X16497Y100447D01*
Y99876D01*
X16307Y99685D02*X16497Y99876D01*
X15926Y99685D02*X16307D01*
X15735Y99876D02*X15926Y99685D01*
X72747Y77790D02*G75*G03X73153Y77790I203J0D01*G01*
G75*G03X72747Y77790I-203J0D01*G01*
Y83570D02*G75*G03X73153Y83570I203J0D01*G01*
G75*G03X72747Y83570I-203J0D01*G01*
X3607Y104448D02*G75*G03X4013Y104448I203J0D01*G01*
G75*G03X3607Y104448I-203J0D01*G01*
X35560Y105019D02*Y103495D01*
Y105019D02*X36512Y103495D01*
Y105019D02*Y103495D01*
X36970Y104829D02*Y103686D01*
Y104829D02*X37160Y105019D01*
X37541D01*
X37732Y104829D01*
Y103686D01*
X37541Y103495D02*X37732Y103686D01*
X37160Y103495D02*X37541D01*
X36970Y103686D02*X37160Y103495D01*
X24892Y104829D02*X25082Y105019D01*
X25654D01*
X25844Y104829D01*
Y104448D01*
X24892Y103495D02*X25844Y104448D01*
X24892Y103495D02*X25844D01*
X11430Y103686D02*X11620Y103495D01*
X11430Y104829D02*Y103686D01*
Y104829D02*X11620Y105019D01*
X12002D01*
X12192Y104829D01*
Y103686D01*
X12002Y103495D02*X12192Y103686D01*
X11620Y103495D02*X12002D01*
X11430Y103876D02*X12192Y104638D01*
X12649Y103495D02*X12840D01*
X13297Y103686D02*X13487Y103495D01*
X13297Y104829D02*Y103686D01*
Y104829D02*X13487Y105019D01*
X13868D01*
X14059Y104829D01*
Y103686D01*
X13868Y103495D02*X14059Y103686D01*
X13487Y103495D02*X13868D01*
X13297Y103876D02*X14059Y104638D01*
X14516Y104829D02*X14707Y105019D01*
X15278D01*
X15469Y104829D01*
Y104448D01*
X14516Y103495D02*X15469Y104448D01*
X14516Y103495D02*X15469D01*
X15926Y104067D02*X16688Y105019D01*
X15926Y104067D02*X16878D01*
X16688Y105019D02*Y103495D01*
X66040Y36236D02*X66650Y35626D01*
X66040D02*X66650Y36236D01*
X62890Y31613D02*X63500Y31004D01*
X62890D02*X63500Y31613D01*
X60300Y28870D02*X60909Y28260D01*
X60300D02*X60909Y28870D01*
X57226Y26355D02*X57836Y25746D01*
X57226D02*X57836Y26355D01*
X53010Y23815D02*X53619Y23206D01*
X53010D02*X53619Y23815D01*
X42215Y20716D02*X42824Y20107D01*
X42215D02*X42824Y20716D01*
X36728Y20666D02*X37338Y20056D01*
X36728D02*X37338Y20666D01*
X31495Y21565D02*X32105Y20955D01*
X31495D02*X32105Y21565D01*
X26314Y23587D02*X26924Y22977D01*
X26314D02*X26924Y23587D01*
X22123Y26279D02*X22733Y25670D01*
X22123D02*X22733Y26279D01*
X18898Y29124D02*X19507Y28514D01*
X18898D02*X19507Y29124D01*
X16383Y31969D02*X16993Y31359D01*
X16383D02*X16993Y31969D01*
X13437Y36566D02*X14046Y35956D01*
X13437D02*X14046Y36566D01*
X11303Y41849D02*X11913Y41240D01*
X11303D02*X11913Y41849D01*
X10236Y47031D02*X10846Y46421D01*
X10236D02*X10846Y47031D01*
X10008Y52086D02*X10617Y51476D01*
X10008D02*X10617Y52086D01*
X10719Y57318D02*X11328Y56708D01*
X10719D02*X11328Y57318D01*
X12395Y62665D02*X13005Y62055D01*
X12395D02*X13005Y62665D01*
X3505Y108562D02*X4115Y107953D01*
X3505D02*X4115Y108562D01*
X34290Y108829D02*X34671Y108067D01*
X35052Y108829D01*
X34671Y108067D02*Y107305D01*
X35509Y108143D02*X36081D01*
X35509Y107305D02*X36271D01*
X35509Y108829D02*Y107305D01*
Y108829D02*X36271D01*
X37490D02*X37681Y108639D01*
X36919Y108829D02*X37490D01*
X36728Y108639D02*X36919Y108829D01*
X36728Y108639D02*Y108258D01*
X36919Y108067D01*
X37490D01*
X37681Y107877D01*
Y107496D01*
X37490Y107305D02*X37681Y107496D01*
X36919Y107305D02*X37490D01*
X36728Y107496D02*X36919Y107305D01*
X24892Y108524D02*X25197Y108829D01*
Y107305D01*
X24892D02*X25464D01*
X25921Y107496D02*X26111Y107305D01*
X25921Y107800D02*Y107496D01*
Y107800D02*X26187Y108067D01*
X26416D01*
X26683Y107800D01*
Y107496D01*
X26492Y107305D02*X26683Y107496D01*
X26111Y107305D02*X26492D01*
X25921Y108334D02*X26187Y108067D01*
X25921Y108639D02*Y108334D01*
Y108639D02*X26111Y108829D01*
X26492D01*
X26683Y108639D01*
Y108334D01*
X26416Y108067D02*X26683Y108334D01*
X11430Y107496D02*X11620Y107305D01*
X11430Y108639D02*Y107496D01*
Y108639D02*X11620Y108829D01*
X12002D01*
X12192Y108639D01*
Y107496D01*
X12002Y107305D02*X12192Y107496D01*
X11620Y107305D02*X12002D01*
X11430Y107686D02*X12192Y108448D01*
X12649Y107305D02*X12840D01*
X13297Y107496D02*X13487Y107305D01*
X13297Y108639D02*Y107496D01*
Y108639D02*X13487Y108829D01*
X13868D01*
X14059Y108639D01*
Y107496D01*
X13868Y107305D02*X14059Y107496D01*
X13487Y107305D02*X13868D01*
X13297Y107686D02*X14059Y108448D01*
X14516Y108639D02*X14707Y108829D01*
X15278D01*
X15469Y108639D01*
Y108258D01*
X14516Y107305D02*X15469Y108258D01*
X14516Y107305D02*X15469D01*
X15926Y107496D02*X16116Y107305D01*
X15926Y108639D02*Y107496D01*
Y108639D02*X16116Y108829D01*
X16497D01*
X16688Y108639D01*
Y107496D01*
X16497Y107305D02*X16688Y107496D01*
X16116Y107305D02*X16497D01*
X15926Y107686D02*X16688Y108448D01*
X25444Y74613D02*Y73800D01*
X25038Y74207D02*X25850D01*
X40701Y59990D02*Y59178D01*
X40294Y59584D02*X41107D01*
X34895Y59959D02*Y59146D01*
X34488Y59552D02*X35301D01*
X33085Y59993D02*Y59180D01*
X32678Y59587D02*X33491D01*
X29289Y59997D02*Y59184D01*
X28883Y59591D02*X29696D01*
X52840Y73976D02*Y73164D01*
X52434Y73570D02*X53246D01*
X51700Y73976D02*Y73164D01*
X51294Y73570D02*X52106D01*
X28444Y74613D02*Y73800D01*
X28037Y74207D02*X28850D01*
X28610Y48766D02*Y47954D01*
X28204Y48360D02*X29016D01*
X24720Y63626D02*Y62814D01*
X24314Y63220D02*X25126D01*
X38492Y29163D02*Y28350D01*
X38086Y28757D02*X38898D01*
X57800Y76606D02*Y75794D01*
X57394Y76200D02*X58206D01*
X56750Y76586D02*Y75774D01*
X56344Y76180D02*X57156D01*
X56020Y77276D02*Y76464D01*
X55614Y76870D02*X56426D01*
X22590Y61496D02*Y60684D01*
X22184Y61090D02*X22996D01*
X47450Y39536D02*Y38724D01*
X47044Y39130D02*X47856D01*
X43632Y47385D02*Y46572D01*
X43226Y46979D02*X44039D01*
X43632Y39765D02*Y38952D01*
X43226Y39359D02*X44039D01*
X39440Y45316D02*Y44504D01*
X39034Y44910D02*X39846D01*
X57900Y62646D02*Y61834D01*
X57494Y62240D02*X58306D01*
X52890Y76446D02*Y75634D01*
X52484Y76040D02*X53296D01*
X63580Y84726D02*Y83914D01*
X63174Y84320D02*X63986D01*
X36410Y73586D02*Y72774D01*
X36004Y73180D02*X36816D01*
X42550Y24626D02*Y23814D01*
X42144Y24220D02*X42956D01*
X21670Y30986D02*Y30174D01*
X21264Y30580D02*X22076D01*
X33290Y34406D02*Y33594D01*
X32884Y34000D02*X33696D01*
X33260Y30946D02*Y30134D01*
X32854Y30540D02*X33666D01*
X33290Y27446D02*Y26634D01*
X32884Y27040D02*X33696D01*
X33290Y23866D02*Y23054D01*
X32884Y23460D02*X33696D01*
X48460Y47386D02*Y46574D01*
X48054Y46980D02*X48866D01*
X50570Y73966D02*Y73154D01*
X50164Y73560D02*X50976D01*
X39410Y39776D02*Y38964D01*
X39004Y39370D02*X39816D01*
X70840Y79846D02*Y79034D01*
X70434Y79440D02*X71246D01*
X69530Y79646D02*Y78834D01*
X69124Y79240D02*X69936D01*
X4000Y61346D02*Y60534D01*
X3594Y60940D02*X4406D01*
X5750Y56326D02*Y55514D01*
X5344Y55920D02*X6156D01*
X5100Y51116D02*Y50304D01*
X4694Y50710D02*X5506D01*
X5280Y46426D02*Y45614D01*
X4874Y46020D02*X5686D01*
X6390Y41346D02*Y40534D01*
X5984Y40940D02*X6796D01*
X8600Y35596D02*Y34784D01*
X8194Y35190D02*X9006D01*
X34660Y16227D02*Y15414D01*
X34254Y15820D02*X35066D01*
X39640Y15656D02*Y14844D01*
X39234Y15250D02*X40046D01*
X48030Y21836D02*Y21024D01*
X47624Y21430D02*X48436D01*
X9620Y68706D02*Y67894D01*
X9214Y68300D02*X10026D01*
X56670Y39766D02*Y38954D01*
X56264Y39360D02*X57076D01*
X69120Y22406D02*Y21594D01*
X68714Y22000D02*X69526D01*
X62640Y16896D02*Y16084D01*
X62234Y16490D02*X63046D01*
X55210Y18516D02*Y17704D01*
X54804Y18110D02*X55616D01*
X49890Y16486D02*Y15674D01*
X49484Y16080D02*X50296D01*
X45090Y15656D02*Y14844D01*
X44684Y15250D02*X45496D01*
X29670Y17856D02*Y17044D01*
X29264Y17450D02*X30076D01*
X17690Y16926D02*Y16114D01*
X17284Y16520D02*X18096D01*
X11390Y21536D02*Y20724D01*
X10984Y21130D02*X11796D01*
X6720Y27476D02*Y26664D01*
X6314Y27070D02*X7126D01*
X32320Y84476D02*Y83664D01*
X31914Y84070D02*X32726D01*
X77440Y61226D02*Y60414D01*
X77034Y60820D02*X77846D01*
X75220Y53276D02*Y52464D01*
X74814Y52870D02*X75626D01*
X75200Y49566D02*Y48754D01*
X74794Y49160D02*X75606D01*
X74310Y44406D02*Y43594D01*
X73904Y44000D02*X74716D01*
X73590Y32026D02*Y31214D01*
X73184Y31620D02*X73996D01*
X44350Y31276D02*Y30464D01*
X43944Y30870D02*X44756D01*
X47580Y34676D02*Y33864D01*
X47174Y34270D02*X47986D01*
X66300Y82686D02*Y81874D01*
X65894Y82280D02*X66706D01*
X67381Y79452D02*Y78639D01*
X66974Y79046D02*X67787D01*
X63271Y83442D02*Y82629D01*
X62865Y83035D02*X63678D01*
X66197Y79085D02*Y78272D01*
X65791Y78679D02*X66604D01*
X24939Y51946D02*Y51133D01*
X24532Y51539D02*X25345D01*
X18858Y59731D02*Y58918D01*
X18452Y59324D02*X19264D01*
X26536Y83247D02*Y82434D01*
X26130Y82841D02*X26942D01*
X23240Y84449D02*Y83636D01*
X22833Y84043D02*X23646D01*
X11155Y82626D02*Y81813D01*
X10749Y82220D02*X11562D01*
X45983Y76194D02*Y75381D01*
X45577Y75788D02*X46390D01*
X44860Y76190D02*Y75377D01*
X44453Y75783D02*X45266D01*
X43745Y76192D02*Y75379D01*
X43338Y75786D02*X44151D01*
X31091Y78975D02*Y78162D01*
X30685Y78568D02*X31498D01*
X26590Y79776D02*Y78964D01*
X26184Y79370D02*X26996D01*
X21853Y75868D02*Y75056D01*
X21446Y75462D02*X22259D01*
X21219Y75259D02*Y74447D01*
X20813Y74853D02*X21626D01*
X24733Y77056D02*Y76243D01*
X24327Y76649D02*X25139D01*
X17986Y72435D02*Y71622D01*
X17580Y72029D02*X18393D01*
X20992Y76089D02*Y75276D01*
X20585Y75683D02*X21398D01*
X34667Y72754D02*Y71941D01*
X34261Y72347D02*X35074D01*
X29869Y72774D02*Y71962D01*
X29462Y72368D02*X30275D01*
X35759Y80936D02*Y80124D01*
X35353Y80530D02*X36166D01*
X34780Y81942D02*Y81130D01*
X34373Y81536D02*X35186D01*
X34780Y80936D02*Y80124D01*
X34373Y80530D02*X35186D01*
X41165Y79464D02*Y78651D01*
X40758Y79058D02*X41571D01*
X42340Y79464D02*Y78651D01*
X41934Y79058D02*X42747D01*
X36673Y80913D02*Y80100D01*
X36266Y80507D02*X37079D01*
X40034Y79447D02*Y78635D01*
X39628Y79041D02*X40441D01*
X26822Y45581D02*Y44768D01*
X26416Y45174D02*X27229D01*
X25715Y46738D02*Y45925D01*
X25309Y46332D02*X26122D01*
X33838Y48459D02*Y47646D01*
X33432Y48052D02*X34245D01*
X37534Y45751D02*Y44938D01*
X37127Y45345D02*X37940D01*
X34897Y48440D02*Y47627D01*
X34490Y48033D02*X35303D01*
X47470Y40596D02*Y39784D01*
X47064Y40190D02*X47876D01*
X14449Y42547D02*Y41734D01*
X14043Y42141D02*X14855D01*
X13384Y49306D02*Y48493D01*
X12978Y48899D02*X13791D01*
X13547Y54880D02*Y54067D01*
X13141Y54473D02*X13953D01*
X14596Y59074D02*Y58261D01*
X14189Y58668D02*X15002D01*
X40438Y43540D02*Y42728D01*
X40031Y43134D02*X40844D01*
X16940Y37107D02*Y36295D01*
X16533Y36701D02*X17346D01*
X47677Y57560D02*Y56747D01*
X47271Y57153D02*X48084D01*
X51455Y56159D02*Y55346D01*
X51049Y55752D02*X51862D01*
X57983Y56159D02*Y55346D01*
X57576Y55752D02*X58389D01*
X36112Y43351D02*Y42538D01*
X35705Y42945D02*X36518D01*
X20136Y51640D02*Y50827D01*
X19730Y51233D02*X20543D01*
X22676Y51664D02*Y50851D01*
X22269Y51257D02*X23082D01*
X19444Y52824D02*Y52012D01*
X19037Y52418D02*X19850D01*
X22946Y52808D02*Y51996D01*
X22539Y52402D02*X23352D01*
X30523Y44531D02*Y43718D01*
X30117Y44124D02*X30930D01*
X30509Y46623D02*Y45810D01*
X30103Y46217D02*X30916D01*
X27970Y43636D02*Y42823D01*
X27564Y43230D02*X28377D01*
X42227Y51733D02*Y50920D01*
X41821Y51326D02*X42633D01*
X42227Y50699D02*Y49886D01*
X41821Y50293D02*X42633D01*
X38461Y48977D02*Y48164D01*
X38055Y48571D02*X38868D01*
X35862Y52732D02*Y51920D01*
X35455Y52326D02*X36268D01*
X38823Y54153D02*Y53340D01*
X38416Y53746D02*X39229D01*
X37809Y54136D02*Y53323D01*
X37403Y53729D02*X38216D01*
X33870Y52381D02*Y51568D01*
X33464Y51974D02*X34276D01*
X32201Y52700D02*Y51887D01*
X31794Y52294D02*X32607D01*
X34542Y54333D02*Y53521D01*
X34136Y53927D02*X34948D01*
X28144Y64720D02*Y63907D01*
X27737Y64313D02*X28550D01*
X29933Y53998D02*Y53185D01*
X29526Y53591D02*X30339D01*
X28609Y55162D02*Y54349D01*
X28203Y54756D02*X29016D01*
X31252Y58643D02*Y57830D01*
X30845Y58237D02*X31658D01*
X31545Y64264D02*Y63451D01*
X31139Y63857D02*X31952D01*
X41297Y53946D02*Y53133D01*
X40891Y53539D02*X41704D01*
X44736Y50338D02*Y49526D01*
X44330Y49932D02*X45143D01*
X39116Y58496D02*Y57684D01*
X38710Y58090D02*X39522D01*
X40518Y48980D02*Y48167D01*
X40112Y48573D02*X40925D01*
X19250Y76066D02*Y75254D01*
X18844Y75660D02*X19656D01*
X35000Y86066D02*Y85254D01*
X34594Y85660D02*X35406D01*
X33000Y54966D02*Y54154D01*
X32594Y54560D02*X33406D01*
X36700Y49966D02*Y49154D01*
X36294Y49560D02*X37106D01*
X30300Y45566D02*Y44754D01*
X29894Y45160D02*X30706D01*
X64564Y58777D02*Y57964D01*
X64157Y58370D02*X64970D01*
X68919Y55432D02*Y54619D01*
X68512Y55025D02*X69325D01*
X68351Y59219D02*Y58406D01*
X67944Y58812D02*X68757D01*
X57936Y31951D02*Y31139D01*
X57530Y31545D02*X58342D01*
X51750Y27659D02*Y26846D01*
X51344Y27253D02*X52157D01*
X62409Y52497D02*Y51684D01*
X62003Y52090D02*X62816D01*
X62429Y54867D02*Y54054D01*
X62023Y54460D02*X62836D01*
X22951Y40011D02*Y39198D01*
X22544Y39604D02*X23357D01*
X34519Y40058D02*Y39245D01*
X34113Y39651D02*X34926D01*
X53095Y42054D02*Y41241D01*
X52688Y41647D02*X53501D01*
X61748Y49719D02*Y48906D01*
X61341Y49312D02*X62154D01*
X64146Y36363D02*Y35550D01*
X63740Y35957D02*X64552D01*
X3810Y112474D02*Y111661D01*
X3404Y112068D02*X4216D01*
X34290Y112639D02*X34671Y111877D01*
X35052Y112639D01*
X34671Y111877D02*Y111115D01*
X35509Y111953D02*X36081D01*
X35509Y111115D02*X36271D01*
X35509Y112639D02*Y111115D01*
Y112639D02*X36271D01*
X37490D02*X37681Y112449D01*
X36919Y112639D02*X37490D01*
X36728Y112449D02*X36919Y112639D01*
X36728Y112449D02*Y112068D01*
X36919Y111877D01*
X37490D01*
X37681Y111687D01*
Y111306D01*
X37490Y111115D02*X37681Y111306D01*
X36919Y111115D02*X37490D01*
X36728Y111306D02*X36919Y111115D01*
X24892Y112334D02*X25197Y112639D01*
Y111115D01*
X24892D02*X25464D01*
X25921Y111687D02*X26683Y112639D01*
X25921Y111687D02*X26873D01*
X26683Y112639D02*Y111115D01*
X27330Y111306D02*X27521Y111115D01*
X27330Y111610D02*Y111306D01*
Y111610D02*X27597Y111877D01*
X27826D01*
X28092Y111610D01*
Y111306D01*
X27902Y111115D02*X28092Y111306D01*
X27521Y111115D02*X27902D01*
X27330Y112144D02*X27597Y111877D01*
X27330Y112449D02*Y112144D01*
Y112449D02*X27521Y112639D01*
X27902D01*
X28092Y112449D01*
Y112144D01*
X27826Y111877D02*X28092Y112144D01*
X11430Y111306D02*X11620Y111115D01*
X11430Y112449D02*Y111306D01*
Y112449D02*X11620Y112639D01*
X12002D01*
X12192Y112449D01*
Y111306D01*
X12002Y111115D02*X12192Y111306D01*
X11620Y111115D02*X12002D01*
X11430Y111496D02*X12192Y112258D01*
X12649Y111115D02*X12840D01*
X13297Y111306D02*X13487Y111115D01*
X13297Y112449D02*Y111306D01*
Y112449D02*X13487Y112639D01*
X13868D01*
X14059Y112449D01*
Y111306D01*
X13868Y111115D02*X14059Y111306D01*
X13487Y111115D02*X13868D01*
X13297Y111496D02*X14059Y112258D01*
X14516Y112334D02*X14821Y112639D01*
Y111115D01*
X14516D02*X15088D01*
X16116Y112639D02*X16307Y112449D01*
X15735Y112639D02*X16116D01*
X15545Y112449D02*X15735Y112639D01*
X15545Y112449D02*Y111306D01*
X15735Y111115D01*
X16116Y111953D02*X16307Y111763D01*
X15545Y111953D02*X16116D01*
X15735Y111115D02*X16116D01*
X16307Y111306D01*
Y111763D02*Y111306D01*
X37460Y76760D02*Y76354D01*
Y76760D02*X37812Y76963D01*
X37460Y76760D02*X37108Y76963D01*
X38260Y77560D02*Y77154D01*
Y77560D02*X38612Y77763D01*
X38260Y77560D02*X37908Y77763D01*
X38260Y75960D02*Y75554D01*
Y75960D02*X38612Y76163D01*
X38260Y75960D02*X37908Y76163D01*
X36660Y75960D02*Y75554D01*
Y75960D02*X37012Y76163D01*
X36660Y75960D02*X36308Y76163D01*
X36660Y77560D02*Y77154D01*
Y77560D02*X37012Y77763D01*
X36660Y77560D02*X36308Y77763D01*
X3810Y115878D02*Y115471D01*
Y115878D02*X4162Y116081D01*
X3810Y115878D02*X3458Y116081D01*
X34290Y116449D02*X34671Y115687D01*
X35052Y116449D01*
X34671Y115687D02*Y114925D01*
X35509Y115763D02*X36081D01*
X35509Y114925D02*X36271D01*
X35509Y116449D02*Y114925D01*
Y116449D02*X36271D01*
X37490D02*X37681Y116259D01*
X36919Y116449D02*X37490D01*
X36728Y116259D02*X36919Y116449D01*
X36728Y116259D02*Y115878D01*
X36919Y115687D01*
X37490D01*
X37681Y115497D01*
Y115116D01*
X37490Y114925D02*X37681Y115116D01*
X36919Y114925D02*X37490D01*
X36728Y115116D02*X36919Y114925D01*
X24892Y116449D02*X25654D01*
X24892D02*Y115687D01*
X25082Y115878D01*
X25464D01*
X25654Y115687D01*
Y115116D01*
X25464Y114925D02*X25654Y115116D01*
X25082Y114925D02*X25464D01*
X24892Y115116D02*X25082Y114925D01*
X11430Y115116D02*X11620Y114925D01*
X11430Y116259D02*Y115116D01*
Y116259D02*X11620Y116449D01*
X12002D01*
X12192Y116259D01*
Y115116D01*
X12002Y114925D02*X12192Y115116D01*
X11620Y114925D02*X12002D01*
X11430Y115306D02*X12192Y116068D01*
X12649Y114925D02*X12840D01*
X13297Y115116D02*X13487Y114925D01*
X13297Y116259D02*Y115116D01*
Y116259D02*X13487Y116449D01*
X13868D01*
X14059Y116259D01*
Y115116D01*
X13868Y114925D02*X14059Y115116D01*
X13487Y114925D02*X13868D01*
X13297Y115306D02*X14059Y116068D01*
X14516Y116144D02*X14821Y116449D01*
Y114925D01*
X14516D02*X15088D01*
X15545Y116259D02*X15735Y116449D01*
X16307D01*
X16497Y116259D01*
Y115878D01*
X15545Y114925D02*X16497Y115878D01*
X15545Y114925D02*X16497D01*
X762Y120259D02*X952Y120069D01*
X190Y120259D02*X762D01*
X0Y120069D02*X190Y120259D01*
X0Y120069D02*Y119688D01*
X190Y119497D01*
X762D01*
X952Y119307D01*
Y118926D01*
X762Y118735D02*X952Y118926D01*
X190Y118735D02*X762D01*
X0Y118926D02*X190Y118735D01*
X1410Y119497D02*Y118926D01*
X1600Y118735D01*
X2172Y119497D02*Y118354D01*
X1981Y118164D02*X2172Y118354D01*
X1600Y118164D02*X1981D01*
X1410Y118354D02*X1600Y118164D01*
Y118735D02*X1981D01*
X2172Y118926D01*
X2819Y119307D02*Y118735D01*
Y119307D02*X3010Y119497D01*
X3200D01*
X3391Y119307D01*
Y118735D01*
Y119307D02*X3581Y119497D01*
X3772D01*
X3962Y119307D01*
Y118735D01*
X2629Y119497D02*X2819Y119307D01*
X4420Y120259D02*Y118735D01*
Y118926D02*X4610Y118735D01*
X4991D01*
X5182Y118926D01*
Y119307D02*Y118926D01*
X4991Y119497D02*X5182Y119307D01*
X4610Y119497D02*X4991D01*
X4420Y119307D02*X4610Y119497D01*
X5639Y119307D02*Y118926D01*
Y119307D02*X5829Y119497D01*
X6210D01*
X6401Y119307D01*
Y118926D01*
X6210Y118735D02*X6401Y118926D01*
X5829Y118735D02*X6210D01*
X5639Y118926D02*X5829Y118735D01*
X6858Y120259D02*Y118926D01*
X7049Y118735D01*
X0Y117910D02*X7430D01*
X10604Y120259D02*Y118735D01*
X11100Y120259D02*X11366Y119992D01*
Y119002D01*
X11100Y118735D02*X11366Y119002D01*
X10414Y118735D02*X11100D01*
X10414Y120259D02*X11100D01*
G54D104*X11824Y119878D02*Y119840D01*
G54D103*Y119307D02*Y118735D01*
X12776Y119497D02*X12967Y119307D01*
X12395Y119497D02*X12776D01*
X12205Y119307D02*X12395Y119497D01*
X12205Y119307D02*Y118926D01*
X12395Y118735D01*
X12967Y119497D02*Y118926D01*
X13157Y118735D01*
X12395D02*X12776D01*
X12967Y118926D01*
X13805Y119307D02*Y118735D01*
Y119307D02*X13995Y119497D01*
X14186D01*
X14376Y119307D01*
Y118735D01*
Y119307D02*X14567Y119497D01*
X14757D01*
X14948Y119307D01*
Y118735D01*
X13614Y119497D02*X13805Y119307D01*
X15405Y118735D02*X15596D01*
X16739Y118926D02*X16929Y118735D01*
X16739Y120069D02*X16929Y120259D01*
X16739Y120069D02*Y118926D01*
X17386Y120259D02*X17767D01*
X17577D02*Y118735D01*
X17386D02*X17767D01*
X18415Y119307D02*Y118735D01*
Y119307D02*X18606Y119497D01*
X18796D01*
X18987Y119307D01*
Y118735D01*
X18225Y119497D02*X18415Y119307D01*
X19634Y119497D02*X20206D01*
X19444Y119307D02*X19634Y119497D01*
X19444Y119307D02*Y118926D01*
X19634Y118735D01*
X20206D01*
X20663Y120259D02*Y118735D01*
Y119307D02*X20853Y119497D01*
X21234D01*
X21425Y119307D01*
Y118735D01*
X21882Y120259D02*X22073Y120069D01*
Y118926D01*
X21882Y118735D02*X22073Y118926D01*
X10414Y117910D02*X22530D01*
X24397Y118735D02*X24892D01*
X24130Y119002D02*X24397Y118735D01*
X24130Y119992D02*Y119002D01*
Y119992D02*X24397Y120259D01*
X24892D01*
X25349Y119307D02*Y118926D01*
Y119307D02*X25540Y119497D01*
X25921D01*
X26111Y119307D01*
Y118926D01*
X25921Y118735D02*X26111Y118926D01*
X25540Y118735D02*X25921D01*
X25349Y118926D02*X25540Y118735D01*
X26568Y119497D02*Y118926D01*
X26759Y118735D01*
X27140D01*
X27330Y118926D01*
Y119497D02*Y118926D01*
X27978Y119307D02*Y118735D01*
Y119307D02*X28169Y119497D01*
X28359D01*
X28550Y119307D01*
Y118735D01*
X27788Y119497D02*X27978Y119307D01*
X29197Y120259D02*Y118926D01*
X29388Y118735D01*
X29007Y119688D02*X29388D01*
X24130Y117910D02*X29769D01*
X33210Y120259D02*Y118735D01*
X33020Y120259D02*X33782D01*
X33972Y120069D01*
Y119688D01*
X33782Y119497D02*X33972Y119688D01*
X33210Y119497D02*X33782D01*
X34430Y120259D02*Y118926D01*
X34620Y118735D01*
X35573Y119497D02*X35763Y119307D01*
X35192Y119497D02*X35573D01*
X35001Y119307D02*X35192Y119497D01*
X35001Y119307D02*Y118926D01*
X35192Y118735D01*
X35763Y119497D02*Y118926D01*
X35954Y118735D01*
X35192D02*X35573D01*
X35763Y118926D01*
X36601Y120259D02*Y118926D01*
X36792Y118735D01*
X36411Y119688D02*X36792D01*
X37363Y118735D02*X37935D01*
X37173Y118926D02*X37363Y118735D01*
X37173Y119307D02*Y118926D01*
Y119307D02*X37363Y119497D01*
X37744D01*
X37935Y119307D01*
X37173Y119116D02*X37935D01*
Y119307D02*Y119116D01*
X39154Y120259D02*Y118735D01*
X38964D02*X39154Y118926D01*
X38583Y118735D02*X38964D01*
X38392Y118926D02*X38583Y118735D01*
X38392Y119307D02*Y118926D01*
Y119307D02*X38583Y119497D01*
X38964D01*
X39154Y119307D01*
X39992Y119497D02*Y119307D01*
Y118926D02*Y118735D01*
X39611Y120069D02*Y119878D01*
Y120069D02*X39802Y120259D01*
X40183D01*
X40373Y120069D01*
Y119878D01*
X39992Y119497D02*X40373Y119878D01*
X33020Y117910D02*X40831D01*
X0Y124069D02*X762D01*
X381D02*Y122545D01*
X1219Y124069D02*Y122545D01*
Y123117D02*X1410Y123307D01*
X1791D01*
X1981Y123117D01*
Y122545D01*
X2629D02*X3200D01*
X2438Y122736D02*X2629Y122545D01*
X2438Y123117D02*Y122736D01*
Y123117D02*X2629Y123307D01*
X3010D01*
X3200Y123117D01*
X2438Y122926D02*X3200D01*
Y123117D02*Y122926D01*
X3848Y123117D02*Y122545D01*
Y123117D02*X4039Y123307D01*
X4420D01*
X3658D02*X3848Y123117D01*
X5067Y122545D02*X5639D01*
X4877Y122736D02*X5067Y122545D01*
X4877Y123117D02*Y122736D01*
Y123117D02*X5067Y123307D01*
X5448D01*
X5639Y123117D01*
X4877Y122926D02*X5639D01*
Y123117D02*Y122926D01*
X7353Y123307D02*X7544Y123117D01*
X6972Y123307D02*X7353D01*
X6782Y123117D02*X6972Y123307D01*
X6782Y123117D02*Y122736D01*
X6972Y122545D01*
X7544Y123307D02*Y122736D01*
X7734Y122545D01*
X6972D02*X7353D01*
X7544Y122736D01*
X8382Y123117D02*Y122545D01*
Y123117D02*X8573Y123307D01*
X8954D01*
X8192D02*X8382Y123117D01*
X9601Y122545D02*X10173D01*
X9411Y122736D02*X9601Y122545D01*
X9411Y123117D02*Y122736D01*
Y123117D02*X9601Y123307D01*
X9982D01*
X10173Y123117D01*
X9411Y122926D02*X10173D01*
Y123117D02*Y122926D01*
X11506Y122545D02*X12268Y124069D01*
X11316D02*X12268D01*
X14173D02*Y122545D01*
X13983D02*X14173Y122736D01*
X13602Y122545D02*X13983D01*
X13411Y122736D02*X13602Y122545D01*
X13411Y123117D02*Y122736D01*
Y123117D02*X13602Y123307D01*
X13983D01*
X14173Y123117D01*
G54D104*X14630Y123688D02*Y123650D01*
G54D103*Y123117D02*Y122545D01*
X15202Y123879D02*Y122545D01*
Y123879D02*X15392Y124069D01*
X15583D01*
X15011Y123307D02*X15392D01*
X16154Y123879D02*Y122545D01*
Y123879D02*X16345Y124069D01*
X16535D01*
X15964Y123307D02*X16345D01*
X17107Y122545D02*X17678D01*
X16916Y122736D02*X17107Y122545D01*
X16916Y123117D02*Y122736D01*
Y123117D02*X17107Y123307D01*
X17488D01*
X17678Y123117D01*
X16916Y122926D02*X17678D01*
Y123117D02*Y122926D01*
X18326Y123117D02*Y122545D01*
Y123117D02*X18517Y123307D01*
X18898D01*
X18136D02*X18326Y123117D01*
X19545Y122545D02*X20117D01*
X19355Y122736D02*X19545Y122545D01*
X19355Y123117D02*Y122736D01*
Y123117D02*X19545Y123307D01*
X19926D01*
X20117Y123117D01*
X19355Y122926D02*X20117D01*
Y123117D02*Y122926D01*
X20765Y123117D02*Y122545D01*
Y123117D02*X20955Y123307D01*
X21146D01*
X21336Y123117D01*
Y122545D01*
X20574Y123307D02*X20765Y123117D01*
X21984Y124069D02*Y122736D01*
X22174Y122545D01*
X21793Y123498D02*X22174D01*
X24003Y124069D02*Y122545D01*
X23813D02*X24003Y122736D01*
X23432Y122545D02*X23813D01*
X23241Y122736D02*X23432Y122545D01*
X23241Y123117D02*Y122736D01*
Y123117D02*X23432Y123307D01*
X23813D01*
X24003Y123117D01*
X24651D02*Y122545D01*
Y123117D02*X24841Y123307D01*
X25222D01*
X24460D02*X24651Y123117D01*
G54D104*X25679Y123688D02*Y123650D01*
G54D103*Y123117D02*Y122545D01*
X26060Y124069D02*Y122736D01*
X26251Y122545D01*
X26632Y124069D02*Y122736D01*
X26822Y122545D01*
X28080D02*X28651D01*
X28842Y122736D01*
X28651Y122926D02*X28842Y122736D01*
X28080Y122926D02*X28651D01*
X27889Y123117D02*X28080Y122926D01*
X27889Y123117D02*X28080Y123307D01*
X28651D01*
X28842Y123117D01*
X27889Y122736D02*X28080Y122545D01*
G54D104*X29299Y123688D02*Y123650D01*
G54D103*Y123117D02*Y122545D01*
X29680Y123307D02*X30442D01*
X29680Y122545D02*X30442Y123307D01*
X29680Y122545D02*X30442D01*
X31090D02*X31661D01*
X30899Y122736D02*X31090Y122545D01*
X30899Y123117D02*Y122736D01*
Y123117D02*X31090Y123307D01*
X31471D01*
X31661Y123117D01*
X30899Y122926D02*X31661D01*
Y123117D02*Y122926D01*
X32309Y122545D02*X32880D01*
X33071Y122736D01*
X32880Y122926D02*X33071Y122736D01*
X32309Y122926D02*X32880D01*
X32118Y123117D02*X32309Y122926D01*
X32118Y123117D02*X32309Y123307D01*
X32880D01*
X33071Y123117D01*
X32118Y122736D02*X32309Y122545D01*
X34214Y123307D02*Y122736D01*
X34404Y122545D01*
X34785D01*
X34976Y122736D01*
Y123307D02*Y122736D01*
X35624Y122545D02*X36195D01*
X36386Y122736D01*
X36195Y122926D02*X36386Y122736D01*
X35624Y122926D02*X36195D01*
X35433Y123117D02*X35624Y122926D01*
X35433Y123117D02*X35624Y123307D01*
X36195D01*
X36386Y123117D01*
X35433Y122736D02*X35624Y122545D01*
X37033D02*X37605D01*
X36843Y122736D02*X37033Y122545D01*
X36843Y123117D02*Y122736D01*
Y123117D02*X37033Y123307D01*
X37414D01*
X37605Y123117D01*
X36843Y122926D02*X37605D01*
Y123117D02*Y122926D01*
X38824Y124069D02*Y122545D01*
X38633D02*X38824Y122736D01*
X38252Y122545D02*X38633D01*
X38062Y122736D02*X38252Y122545D01*
X38062Y123117D02*Y122736D01*
Y123117D02*X38252Y123307D01*
X38633D01*
X38824Y123117D01*
G54D104*X39967Y123688D02*Y123650D01*
G54D103*Y123117D02*Y122545D01*
X40538Y123117D02*Y122545D01*
Y123117D02*X40729Y123307D01*
X40919D01*
X41110Y123117D01*
Y122545D01*
X40348Y123307D02*X40538Y123117D01*
X42443Y124069D02*Y122736D01*
X42634Y122545D01*
X42253Y123498D02*X42634D01*
X43015Y124069D02*Y122545D01*
Y123117D02*X43205Y123307D01*
X43586D01*
X43777Y123117D01*
Y122545D01*
G54D104*X44234Y123688D02*Y123650D01*
G54D103*Y123117D02*Y122545D01*
X44806D02*X45377D01*
X45568Y122736D01*
X45377Y122926D02*X45568Y122736D01*
X44806Y122926D02*X45377D01*
X44615Y123117D02*X44806Y122926D01*
X44615Y123117D02*X44806Y123307D01*
X45377D01*
X45568Y123117D01*
X44615Y122736D02*X44806Y122545D01*
X46711Y124069D02*Y122736D01*
X46901Y122545D01*
X47854Y123307D02*X48044Y123117D01*
X47473Y123307D02*X47854D01*
X47282Y123117D02*X47473Y123307D01*
X47282Y123117D02*Y122736D01*
X47473Y122545D01*
X48044Y123307D02*Y122736D01*
X48235Y122545D01*
X47473D02*X47854D01*
X48044Y122736D01*
X48692Y123307D02*Y122736D01*
X48882Y122545D01*
X49454Y123307D02*Y122164D01*
X49263Y121974D02*X49454Y122164D01*
X48882Y121974D02*X49263D01*
X48692Y122164D02*X48882Y121974D01*
Y122545D02*X49263D01*
X49454Y122736D01*
X49911Y123117D02*Y122736D01*
Y123117D02*X50102Y123307D01*
X50483D01*
X50673Y123117D01*
Y122736D01*
X50483Y122545D02*X50673Y122736D01*
X50102Y122545D02*X50483D01*
X49911Y122736D02*X50102Y122545D01*
X51130Y123307D02*Y122736D01*
X51321Y122545D01*
X51702D01*
X51892Y122736D01*
Y123307D02*Y122736D01*
X52540Y124069D02*Y122736D01*
X52730Y122545D01*
X52349Y123498D02*X52730D01*
X53111Y122164D02*X53492Y122545D01*
X54635Y123879D02*X54826Y124069D01*
X55397D01*
X55588Y123879D01*
Y123498D01*
X54635Y122545D02*X55588Y123498D01*
X54635Y122545D02*X55588D01*
X56045Y123879D02*X56236Y124069D01*
X56617D01*
X56807Y123879D01*
X56617Y122545D02*X56807Y122736D01*
X56236Y122545D02*X56617D01*
X56045Y122736D02*X56236Y122545D01*
Y123383D02*X56617D01*
X56807Y123879D02*Y123574D01*
Y123193D02*Y122736D01*
Y123193D02*X56617Y123383D01*
X56807Y123574D02*X56617Y123383D01*
X57264Y123764D02*X57569Y124069D01*
Y122545D01*
X57264D02*X57836D01*
X58979Y124069D02*Y122545D01*
Y123117D02*X59169Y123307D01*
X59550D01*
X59741Y123117D01*
Y122545D01*
X60198Y123117D02*Y122736D01*
Y123117D02*X60389Y123307D01*
X60770D01*
X60960Y123117D01*
Y122736D01*
X60770Y122545D02*X60960Y122736D01*
X60389Y122545D02*X60770D01*
X60198Y122736D02*X60389Y122545D01*
X61417Y124069D02*Y122736D01*
X61608Y122545D01*
X62179D02*X62751D01*
X61989Y122736D02*X62179Y122545D01*
X61989Y123117D02*Y122736D01*
Y123117D02*X62179Y123307D01*
X62560D01*
X62751Y123117D01*
X61989Y122926D02*X62751D01*
Y123117D02*Y122926D01*
X63398Y122545D02*X63970D01*
X64160Y122736D01*
X63970Y122926D02*X64160Y122736D01*
X63398Y122926D02*X63970D01*
X63208Y123117D02*X63398Y122926D01*
X63208Y123117D02*X63398Y123307D01*
X63970D01*
X64160Y123117D01*
X63208Y122736D02*X63398Y122545D01*
X65494Y124069D02*Y122736D01*
X65684Y122545D01*
X65303Y123498D02*X65684D01*
X66065Y123117D02*Y122736D01*
Y123117D02*X66256Y123307D01*
X66637D01*
X66827Y123117D01*
Y122736D01*
X66637Y122545D02*X66827Y122736D01*
X66256Y122545D02*X66637D01*
X66065Y122736D02*X66256Y122545D01*
X67475Y124069D02*Y122736D01*
X67666Y122545D01*
X67285Y123498D02*X67666D01*
X68618Y123307D02*X68809Y123117D01*
X68237Y123307D02*X68618D01*
X68047Y123117D02*X68237Y123307D01*
X68047Y123117D02*Y122736D01*
X68237Y122545D01*
X68809Y123307D02*Y122736D01*
X68999Y122545D01*
X68237D02*X68618D01*
X68809Y122736D01*
X69456Y124069D02*Y122736D01*
X69647Y122545D01*
G54D105*X23688Y85033D02*X8700Y85060D01*
X74942Y88647D02*X39958Y88640D01*
X5065Y66458D02*X5100Y81460D01*
Y18860D02*X5065Y33916D01*
X74900Y18860D02*X74935Y33863D01*
X78542Y85047D02*X78542Y50134D01*
X23703Y15225D02*X8700Y15260D01*
X56244Y15225D02*X71300Y15260D01*
X71750Y85040D02*X73440D01*
X76100D02*X77500D01*
X76100Y76390D02*X77500D01*
X71750D02*X73430D01*
X5100Y81503D02*X8657Y85060D01*
X8662D01*
X71286Y15260D02*X74900Y18874D01*
X78542Y85062D02*X78536Y85827D01*
X74928Y88647D01*
X8700Y15260D02*G75*G02X5100Y18860I0J3600D01*G01*
X5065Y66458D02*G75*G03X5065Y33916I34893J-16271D01*G01*
X23703Y15225D02*G75*G03X56244Y15225I16271J34893D01*G01*
X74935Y33863D02*G75*G03X78542Y50133I-34893J16271D01*G01*
X39958Y88640D02*G75*G03X23687Y85033I0J-38500D01*G01*
G54D103*X23153Y-2413D02*X23915D01*
X24106Y-2222D01*
Y-1765D02*Y-2222D01*
X23915Y-1575D02*X24106Y-1765D01*
X23344Y-1575D02*X23915D01*
X23344Y-889D02*Y-2413D01*
X23153Y-889D02*X23915D01*
X24106Y-1080D01*
Y-1384D01*
X23915Y-1575D02*X24106Y-1384D01*
X24563Y-1842D02*Y-2222D01*
Y-1842D02*X24754Y-1651D01*
X25135D01*
X25325Y-1842D01*
Y-2222D01*
X25135Y-2413D02*X25325Y-2222D01*
X24754Y-2413D02*X25135D01*
X24563Y-2222D02*X24754Y-2413D01*
X26354Y-1651D02*X26544Y-1842D01*
X25973Y-1651D02*X26354D01*
X25782Y-1842D02*X25973Y-1651D01*
X25782Y-1842D02*Y-2222D01*
X25973Y-2413D01*
X26544Y-1651D02*Y-2222D01*
X26735Y-2413D01*
X25973D02*X26354D01*
X26544Y-2222D01*
X27383Y-1842D02*Y-2413D01*
Y-1842D02*X27573Y-1651D01*
X27954D01*
X27192D02*X27383Y-1842D01*
X29173Y-889D02*Y-2413D01*
X28983D02*X29173Y-2222D01*
X28602Y-2413D02*X28983D01*
X28411Y-2222D02*X28602Y-2413D01*
X28411Y-1842D02*Y-2222D01*
Y-1842D02*X28602Y-1651D01*
X28983D01*
X29173Y-1842D01*
X30316D02*Y-2222D01*
Y-1842D02*X30507Y-1651D01*
X30888D01*
X31078Y-1842D01*
Y-2222D01*
X30888Y-2413D02*X31078Y-2222D01*
X30507Y-2413D02*X30888D01*
X30316Y-2222D02*X30507Y-2413D01*
X31535Y-1651D02*Y-2222D01*
X31726Y-2413D01*
X32107D01*
X32297Y-2222D01*
Y-1651D02*Y-2222D01*
X32945Y-889D02*Y-2222D01*
X33136Y-2413D01*
X32755Y-1460D02*X33136D01*
X33517Y-889D02*Y-2222D01*
X33707Y-2413D01*
G54D104*X34088Y-1270D02*Y-1308D01*
G54D103*Y-1842D02*Y-2413D01*
X34660Y-1842D02*Y-2413D01*
Y-1842D02*X34850Y-1651D01*
X35041D01*
X35231Y-1842D01*
Y-2413D01*
X34469Y-1651D02*X34660Y-1842D01*
X35879Y-2413D02*X36450D01*
X35688Y-2222D02*X35879Y-2413D01*
X35688Y-1842D02*Y-2222D01*
Y-1842D02*X35879Y-1651D01*
X36260D01*
X36450Y-1842D01*
X35688Y-2032D02*X36450D01*
Y-1842D02*Y-2032D01*
G54D104*X37593Y-1270D02*Y-1308D01*
G54D103*Y-1842D02*Y-2413D01*
X38165D02*X38736D01*
X38927Y-2222D01*
X38736Y-2032D02*X38927Y-2222D01*
X38165Y-2032D02*X38736D01*
X37974Y-1842D02*X38165Y-2032D01*
X37974Y-1842D02*X38165Y-1651D01*
X38736D01*
X38927Y-1842D01*
X37974Y-2222D02*X38165Y-2413D01*
X40260Y-889D02*Y-2222D01*
X40451Y-2413D01*
X40070Y-1460D02*X40451D01*
X40832Y-889D02*Y-2413D01*
Y-1842D02*X41022Y-1651D01*
X41403D01*
X41594Y-1842D01*
Y-2413D01*
X42242D02*X42813D01*
X42051Y-2222D02*X42242Y-2413D01*
X42051Y-1842D02*Y-2222D01*
Y-1842D02*X42242Y-1651D01*
X42623D01*
X42813Y-1842D01*
X42051Y-2032D02*X42813D01*
Y-1842D02*Y-2032D01*
X44147Y-1651D02*X44718D01*
X43956Y-1842D02*X44147Y-1651D01*
X43956Y-1842D02*Y-2222D01*
X44147Y-2413D01*
X44718D01*
X45366D02*X45937D01*
X45175Y-2222D02*X45366Y-2413D01*
X45175Y-1842D02*Y-2222D01*
Y-1842D02*X45366Y-1651D01*
X45747D01*
X45937Y-1842D01*
X45175Y-2032D02*X45937D01*
Y-1842D02*Y-2032D01*
X46585Y-1842D02*Y-2413D01*
Y-1842D02*X46776Y-1651D01*
X46966D01*
X47157Y-1842D01*
Y-2413D01*
X46395Y-1651D02*X46585Y-1842D01*
X47804Y-889D02*Y-2222D01*
X47995Y-2413D01*
X47614Y-1460D02*X47995D01*
X48566Y-2413D02*X49138D01*
X48376Y-2222D02*X48566Y-2413D01*
X48376Y-1842D02*Y-2222D01*
Y-1842D02*X48566Y-1651D01*
X48947D01*
X49138Y-1842D01*
X48376Y-2032D02*X49138D01*
Y-1842D02*Y-2032D01*
X49785Y-1842D02*Y-2413D01*
Y-1842D02*X49976Y-1651D01*
X50357D01*
X49595D02*X49785Y-1842D01*
X50814Y-889D02*Y-2222D01*
X51005Y-2413D01*
G54D104*X51386Y-1270D02*Y-1308D01*
G54D103*Y-1842D02*Y-2413D01*
X51957Y-1842D02*Y-2413D01*
Y-1842D02*X52148Y-1651D01*
X52338D01*
X52529Y-1842D01*
Y-2413D01*
X51767Y-1651D02*X51957Y-1842D01*
X53176Y-2413D02*X53748D01*
X52986Y-2222D02*X53176Y-2413D01*
X52986Y-1842D02*Y-2222D01*
Y-1842D02*X53176Y-1651D01*
X53557D01*
X53748Y-1842D01*
X52986Y-2032D02*X53748D01*
Y-1842D02*Y-2032D01*
X54891Y-1842D02*Y-2222D01*
Y-1842D02*X55081Y-1651D01*
X55462D01*
X55653Y-1842D01*
Y-2222D01*
X55462Y-2413D02*X55653Y-2222D01*
X55081Y-2413D02*X55462D01*
X54891Y-2222D02*X55081Y-2413D01*
X56301Y-1080D02*Y-2413D01*
Y-1080D02*X56491Y-889D01*
X56682D01*
X56110Y-1651D02*X56491D01*
X57939Y-889D02*Y-2222D01*
X58129Y-2413D01*
X57748Y-1460D02*X58129D01*
X58510Y-889D02*Y-2413D01*
Y-1842D02*X58701Y-1651D01*
X59082D01*
X59272Y-1842D01*
Y-2413D01*
G54D104*X59730Y-1270D02*Y-1308D01*
G54D103*Y-1842D02*Y-2413D01*
X60301D02*X60873D01*
X61063Y-2222D01*
X60873Y-2032D02*X61063Y-2222D01*
X60301Y-2032D02*X60873D01*
X60111Y-1842D02*X60301Y-2032D01*
X60111Y-1842D02*X60301Y-1651D01*
X60873D01*
X61063Y-1842D01*
X60111Y-2222D02*X60301Y-2413D01*
X62397Y-1842D02*Y-2984D01*
X62206Y-1651D02*X62397Y-1842D01*
X62587Y-1651D01*
X62968D01*
X63159Y-1842D01*
Y-2222D01*
X62968Y-2413D02*X63159Y-2222D01*
X62587Y-2413D02*X62968D01*
X62397Y-2222D02*X62587Y-2413D01*
X64187Y-1651D02*X64378Y-1842D01*
X63806Y-1651D02*X64187D01*
X63616Y-1842D02*X63806Y-1651D01*
X63616Y-1842D02*Y-2222D01*
X63806Y-2413D01*
X64378Y-1651D02*Y-2222D01*
X64568Y-2413D01*
X63806D02*X64187D01*
X64378Y-2222D01*
X65216Y-889D02*Y-2222D01*
X65406Y-2413D01*
X65025Y-1460D02*X65406D01*
X65787Y-889D02*Y-2413D01*
Y-1842D02*X65978Y-1651D01*
X66359D01*
X66549Y-1842D01*
Y-2413D01*
X50990Y97399D02*Y95875D01*
X51486Y97399D02*X51752Y97132D01*
Y96142D01*
X51486Y95875D02*X51752Y96142D01*
X50800Y95875D02*X51486D01*
X50800Y97399D02*X51486D01*
X52781Y96637D02*X52972Y96447D01*
X52400Y96637D02*X52781D01*
X52210Y96447D02*X52400Y96637D01*
X52210Y96447D02*Y96066D01*
X52400Y95875D01*
X52972Y96637D02*Y96066D01*
X53162Y95875D01*
X52400D02*X52781D01*
X52972Y96066D01*
X53810Y97399D02*Y96066D01*
X54000Y95875D01*
X53619Y96828D02*X54000D01*
X54572Y95875D02*X55143D01*
X54381Y96066D02*X54572Y95875D01*
X54381Y96447D02*Y96066D01*
Y96447D02*X54572Y96637D01*
X54953D01*
X55143Y96447D01*
X54381Y96256D02*X55143D01*
Y96447D02*Y96256D01*
X55601Y96828D02*X55791D01*
X55601Y96447D02*X55791D01*
X56934Y97399D02*Y96637D01*
X57125Y95875D01*
X57506Y96637D01*
X57887Y95875D01*
X58077Y96637D01*
Y97399D02*Y96637D01*
X58725Y95875D02*X59296D01*
X58534Y96066D02*X58725Y95875D01*
X58534Y96447D02*Y96066D01*
Y96447D02*X58725Y96637D01*
X59106D01*
X59296Y96447D01*
X58534Y96256D02*X59296D01*
Y96447D02*Y96256D01*
X60516Y97399D02*Y95875D01*
X60325D02*X60516Y96066D01*
X59944Y95875D02*X60325D01*
X59754Y96066D02*X59944Y95875D01*
X59754Y96447D02*Y96066D01*
Y96447D02*X59944Y96637D01*
X60325D01*
X60516Y96447D01*
X61659Y97399D02*Y95875D01*
Y97399D02*X62230Y96637D01*
X62802Y97399D01*
Y95875D01*
X63830Y96637D02*X64021Y96447D01*
X63449Y96637D02*X63830D01*
X63259Y96447D02*X63449Y96637D01*
X63259Y96447D02*Y96066D01*
X63449Y95875D01*
X64021Y96637D02*Y96066D01*
X64211Y95875D01*
X63449D02*X63830D01*
X64021Y96066D01*
X64859Y96447D02*Y95875D01*
Y96447D02*X65049Y96637D01*
X65430D01*
X64668D02*X64859Y96447D01*
X66573Y97209D02*X66764Y97399D01*
X67335D01*
X67526Y97209D01*
Y96828D01*
X66573Y95875D02*X67526Y96828D01*
X66573Y95875D02*X67526D01*
X67983Y97399D02*X68745D01*
X67983D02*Y96637D01*
X68174Y96828D01*
X68555D01*
X68745Y96637D01*
Y96066D01*
X68555Y95875D02*X68745Y96066D01*
X68174Y95875D02*X68555D01*
X67983Y96066D02*X68174Y95875D01*
X69888Y97209D02*X70079Y97399D01*
X70650D01*
X70841Y97209D01*
Y96828D01*
X69888Y95875D02*X70841Y96828D01*
X69888Y95875D02*X70841D01*
X71298Y97209D02*X71488Y97399D01*
X71869D01*
X72060Y97209D01*
X71869Y95875D02*X72060Y96066D01*
X71488Y95875D02*X71869D01*
X71298Y96066D02*X71488Y95875D01*
Y96713D02*X71869D01*
X72060Y97209D02*Y96904D01*
Y96523D02*Y96066D01*
Y96523D02*X71869Y96713D01*
X72060Y96904D02*X71869Y96713D01*
X72517Y96828D02*X72708D01*
X72517Y96447D02*X72708D01*
X73165Y97399D02*X73927D01*
X73165D02*Y96637D01*
X73355Y96828D01*
X73736D01*
X73927Y96637D01*
Y96066D01*
X73736Y95875D02*X73927Y96066D01*
X73355Y95875D02*X73736D01*
X73165Y96066D02*X73355Y95875D01*
X74384Y96066D02*X74574Y95875D01*
X74384Y96370D02*Y96066D01*
Y96370D02*X74651Y96637D01*
X74879D01*
X75146Y96370D01*
Y96066D01*
X74955Y95875D02*X75146Y96066D01*
X74574Y95875D02*X74955D01*
X74384Y96904D02*X74651Y96637D01*
X74384Y97209D02*Y96904D01*
Y97209D02*X74574Y97399D01*
X74955D01*
X75146Y97209D01*
Y96904D01*
X74879Y96637D02*X75146Y96904D01*
X75603Y96828D02*X75794D01*
X75603Y96447D02*X75794D01*
X76251Y97094D02*X76556Y97399D01*
Y95875D01*
X76251D02*X76822D01*
X77470D02*X78232Y97399D01*
X77280D02*X78232D01*
X79375Y97209D02*X79566Y97399D01*
X80137D01*
X80328Y97209D01*
Y96828D01*
X79375Y95875D02*X80328Y96828D01*
X79375Y95875D02*X80328D01*
X80785Y96066D02*X80975Y95875D01*
X80785Y97209D02*Y96066D01*
Y97209D02*X80975Y97399D01*
X81356D01*
X81547Y97209D01*
Y96066D01*
X81356Y95875D02*X81547Y96066D01*
X80975Y95875D02*X81356D01*
X80785Y96256D02*X81547Y97018D01*
X82004Y97209D02*X82194Y97399D01*
X82766D01*
X82956Y97209D01*
Y96828D01*
X82004Y95875D02*X82956Y96828D01*
X82004Y95875D02*X82956D01*
X83414Y96066D02*X83604Y95875D01*
X83414Y97209D02*Y96066D01*
Y97209D02*X83604Y97399D01*
X83985D01*
X84176Y97209D01*
Y96066D01*
X83985Y95875D02*X84176Y96066D01*
X83604Y95875D02*X83985D01*
X83414Y96256D02*X84176Y97018D01*
X85319Y97399D02*Y96066D01*
X85509Y95875D01*
X85890D01*
X86081Y96066D01*
Y97399D02*Y96066D01*
X86538Y97399D02*X87300D01*
X86919D02*Y95875D01*
X88024D02*X88519D01*
X87757Y96142D02*X88024Y95875D01*
X87757Y97132D02*Y96142D01*
Y97132D02*X88024Y97399D01*
X88519D01*
X50800Y100828D02*Y99685D01*
Y100828D02*X51067Y101209D01*
X51486D01*
X51752Y100828D01*
Y99685D01*
X50800Y100447D02*X51752D01*
X52210D02*Y99876D01*
X52400Y99685D01*
X52781D01*
X52972Y99876D01*
Y100447D02*Y99876D01*
X53619Y101209D02*Y99876D01*
X53810Y99685D01*
X53429Y100638D02*X53810D01*
X54191Y101209D02*Y99685D01*
Y100257D02*X54381Y100447D01*
X54762D01*
X54953Y100257D01*
Y99685D01*
X55410Y100257D02*Y99876D01*
Y100257D02*X55601Y100447D01*
X55982D01*
X56172Y100257D01*
Y99876D01*
X55982Y99685D02*X56172Y99876D01*
X55601Y99685D02*X55982D01*
X55410Y99876D02*X55601Y99685D01*
X56820Y100257D02*Y99685D01*
Y100257D02*X57010Y100447D01*
X57391D01*
X56629D02*X56820Y100257D01*
X57849Y100638D02*X58039D01*
X57849Y100257D02*X58039D01*
X59373Y101209D02*Y99685D01*
X59182Y101209D02*X59944D01*
X60135Y101019D01*
Y100638D01*
X59944Y100447D02*X60135Y100638D01*
X59373Y100447D02*X59944D01*
X61163D02*X61354Y100257D01*
X60782Y100447D02*X61163D01*
X60592Y100257D02*X60782Y100447D01*
X60592Y100257D02*Y99876D01*
X60782Y99685D01*
X61354Y100447D02*Y99876D01*
X61544Y99685D01*
X60782D02*X61163D01*
X61354Y99876D01*
X62192Y101209D02*Y99876D01*
X62382Y99685D01*
X62001Y100638D02*X62382D01*
X62954Y100257D02*Y99685D01*
Y100257D02*X63144Y100447D01*
X63525D01*
X62763D02*X62954Y100257D01*
G54D104*X63983Y100828D02*Y100790D01*
G54D103*Y100257D02*Y99685D01*
X64554Y100447D02*X65126D01*
X64364Y100257D02*X64554Y100447D01*
X64364Y100257D02*Y99876D01*
X64554Y99685D01*
X65126D01*
X65583Y101209D02*Y99685D01*
Y100257D02*X66154Y99685D01*
X65583Y100257D02*X65964Y100638D01*
X67564Y99685D02*X68059D01*
X67297Y99952D02*X67564Y99685D01*
X67297Y100942D02*Y99952D01*
Y100942D02*X67564Y101209D01*
X68059D01*
X68517Y100257D02*Y99876D01*
Y100257D02*X68707Y100447D01*
X69088D01*
X69279Y100257D01*
Y99876D01*
X69088Y99685D02*X69279Y99876D01*
X68707Y99685D02*X69088D01*
X68517Y99876D02*X68707Y99685D01*
X69736Y101209D02*Y99876D01*
X69926Y99685D01*
X70498D02*X71069D01*
X70307Y99876D02*X70498Y99685D01*
X70307Y100257D02*Y99876D01*
Y100257D02*X70498Y100447D01*
X70879D01*
X71069Y100257D01*
X70307Y100066D02*X71069D01*
Y100257D02*Y100066D01*
X71717Y100257D02*Y99685D01*
Y100257D02*X71907Y100447D01*
X72098D01*
X72288Y100257D01*
Y99685D01*
Y100257D02*X72479Y100447D01*
X72669D01*
X72860Y100257D01*
Y99685D01*
X71526Y100447D02*X71717Y100257D01*
X73889Y100447D02*X74079Y100257D01*
X73508Y100447D02*X73889D01*
X73317Y100257D02*X73508Y100447D01*
X73317Y100257D02*Y99876D01*
X73508Y99685D01*
X74079Y100447D02*Y99876D01*
X74270Y99685D01*
X73508D02*X73889D01*
X74079Y99876D01*
X74917Y100257D02*Y99685D01*
Y100257D02*X75108Y100447D01*
X75298D01*
X75489Y100257D01*
Y99685D01*
X74727Y100447D02*X74917Y100257D01*
X50800Y105019D02*X51562D01*
X51181D02*Y103495D01*
G54D104*X52019Y104638D02*Y104600D01*
G54D103*Y104067D02*Y103495D01*
X52591Y105019D02*Y103686D01*
X52781Y103495D01*
X52400Y104448D02*X52781D01*
X53162Y105019D02*Y103686D01*
X53353Y103495D01*
X53924D02*X54496D01*
X53734Y103686D02*X53924Y103495D01*
X53734Y104067D02*Y103686D01*
Y104067D02*X53924Y104257D01*
X54305D01*
X54496Y104067D01*
X53734Y103876D02*X54496D01*
Y104067D02*Y103876D01*
X54953Y104448D02*X55143D01*
X54953Y104067D02*X55143D01*
X56286Y103686D02*X56477Y103495D01*
X56286Y104829D02*X56477Y105019D01*
X56286Y104829D02*Y103686D01*
X56934Y104257D02*Y103686D01*
X57125Y103495D01*
X57506D01*
X57696Y103686D01*
Y104257D02*Y103686D01*
X58344Y104067D02*Y103495D01*
Y104067D02*X58534Y104257D01*
X58725D01*
X58915Y104067D01*
Y103495D01*
X58153Y104257D02*X58344Y104067D01*
X59373Y105019D02*Y103495D01*
Y104067D02*X59944Y103495D01*
X59373Y104067D02*X59754Y104448D01*
X60592Y104067D02*Y103495D01*
Y104067D02*X60782Y104257D01*
X60973D01*
X61163Y104067D01*
Y103495D01*
X60401Y104257D02*X60592Y104067D01*
X61620D02*Y103686D01*
Y104067D02*X61811Y104257D01*
X62192D01*
X62382Y104067D01*
Y103686D01*
X62192Y103495D02*X62382Y103686D01*
X61811Y103495D02*X62192D01*
X61620Y103686D02*X61811Y103495D01*
X62840Y104257D02*Y103686D01*
X63030Y103495D01*
X63221D01*
X63411Y103686D01*
Y104257D02*Y103686D01*
X63602Y103495D01*
X63792D01*
X63983Y103686D01*
Y104257D02*Y103686D01*
X64630Y104067D02*Y103495D01*
Y104067D02*X64821Y104257D01*
X65011D01*
X65202Y104067D01*
Y103495D01*
X64440Y104257D02*X64630Y104067D01*
X65659Y105019D02*X65850Y104829D01*
Y103686D01*
X65659Y103495D02*X65850Y103686D01*
X66993Y104257D02*X67755D01*
X68898Y105019D02*Y103495D01*
Y105019D02*X69660D01*
X68898Y104333D02*X69469D01*
X70688Y104257D02*X70879Y104067D01*
X70307Y104257D02*X70688D01*
X70117Y104067D02*X70307Y104257D01*
X70117Y104067D02*Y103686D01*
X70307Y103495D01*
X70879Y104257D02*Y103686D01*
X71069Y103495D01*
X70307D02*X70688D01*
X70879Y103686D01*
X71526Y105019D02*Y103495D01*
Y103686D02*X71717Y103495D01*
X72098D01*
X72288Y103686D01*
Y104067D02*Y103686D01*
X72098Y104257D02*X72288Y104067D01*
X71717Y104257D02*X72098D01*
X71526Y104067D02*X71717Y104257D01*
X72936Y104067D02*Y103495D01*
Y104067D02*X73127Y104257D01*
X73508D01*
X72746D02*X72936Y104067D01*
G54D104*X73965Y104638D02*Y104600D01*
G54D103*Y104067D02*Y103495D01*
X74536Y104257D02*X75108D01*
X74346Y104067D02*X74536Y104257D01*
X74346Y104067D02*Y103686D01*
X74536Y103495D01*
X75108D01*
X76137Y104257D02*X76327Y104067D01*
X75756Y104257D02*X76137D01*
X75565Y104067D02*X75756Y104257D01*
X75565Y104067D02*Y103686D01*
X75756Y103495D01*
X76327Y104257D02*Y103686D01*
X76518Y103495D01*
X75756D02*X76137D01*
X76327Y103686D01*
X77165Y105019D02*Y103686D01*
X77356Y103495D01*
X76975Y104448D02*X77356D01*
G54D104*X77737Y104638D02*Y104600D01*
G54D103*Y104067D02*Y103495D01*
X78118Y104067D02*Y103686D01*
Y104067D02*X78308Y104257D01*
X78689D01*
X78880Y104067D01*
Y103686D01*
X78689Y103495D02*X78880Y103686D01*
X78308Y103495D02*X78689D01*
X78118Y103686D02*X78308Y103495D01*
X79527Y104067D02*Y103495D01*
Y104067D02*X79718Y104257D01*
X79908D01*
X80099Y104067D01*
Y103495D01*
X79337Y104257D02*X79527Y104067D01*
X81432Y105019D02*Y103495D01*
X81928Y105019D02*X82194Y104752D01*
Y103762D01*
X81928Y103495D02*X82194Y103762D01*
X81242Y103495D02*X81928D01*
X81242Y105019D02*X81928D01*
X82842Y104067D02*Y103495D01*
Y104067D02*X83033Y104257D01*
X83414D01*
X82652D02*X82842Y104067D01*
X84442Y104257D02*X84633Y104067D01*
X84061Y104257D02*X84442D01*
X83871Y104067D02*X84061Y104257D01*
X83871Y104067D02*Y103686D01*
X84061Y103495D01*
X84633Y104257D02*Y103686D01*
X84823Y103495D01*
X84061D02*X84442D01*
X84633Y103686D01*
X85281Y104257D02*Y103686D01*
X85471Y103495D01*
X85662D01*
X85852Y103686D01*
Y104257D02*Y103686D01*
X86043Y103495D01*
X86233D01*
X86424Y103686D01*
Y104257D02*Y103686D01*
G54D104*X86881Y104638D02*Y104600D01*
G54D103*Y104067D02*Y103495D01*
X87452Y104067D02*Y103495D01*
Y104067D02*X87643Y104257D01*
X87833D01*
X88024Y104067D01*
Y103495D01*
X87262Y104257D02*X87452Y104067D01*
X89052Y104257D02*X89243Y104067D01*
X88671Y104257D02*X89052D01*
X88481Y104067D02*X88671Y104257D01*
X88481Y104067D02*Y103686D01*
X88671Y103495D01*
X89052D01*
X89243Y103686D01*
X88481Y103114D02*X88671Y102924D01*
X89052D01*
X89243Y103114D01*
Y104257D02*Y103114D01*
M02*
