G04 start of page 12 for group -3984 idx -3984 *
G04 Title: (unknown), fab *
G04 Creator: pcb 4.2.0 *
G04 CreationDate: Thu Feb 27 09:32:16 2020 UTC *
G04 For: blinken *
G04 Format: Gerber/RS-274X *
G04 PCB-Dimensions (mm): 65.00 56.00 *
G04 PCB-Coordinate-Origin: lower left *
%MOMM*%
%FSLAX43Y43*%
%LNFAB*%
%ADD68C,0.254*%
%ADD67C,0.191*%
%ADD66C,0.152*%
%ADD65C,0.002*%
%ADD64R,0.203X0.203*%
G54D64*X21850Y24400D02*Y23587D01*
G54D65*G36*
X21711Y24437D02*X22592Y24945D01*
X22693Y24769D01*
X21813Y24261D01*
X21711Y24437D01*
G37*
G36*
X21887Y24261D02*X21007Y24769D01*
X21108Y24945D01*
X21989Y24437D01*
X21887Y24261D01*
G37*
G54D64*X21444Y24400D02*G75*G03X22256Y24400I406J0D01*G01*
G75*G03X21444Y24400I-406J0D01*G01*
X3810Y58858D02*Y58045D01*
G54D65*G36*
X3671Y58895D02*X4552Y59403D01*
X4653Y59227D01*
X3773Y58719D01*
X3671Y58895D01*
G37*
G36*
X3847Y58719D02*X2967Y59227D01*
X3068Y59403D01*
X3949Y58895D01*
X3847Y58719D01*
G37*
G54D64*X3404Y58858D02*G75*G03X4216Y58858I406J0D01*G01*
G75*G03X3404Y58858I-406J0D01*G01*
G54D66*X34290Y59429D02*X34671Y58667D01*
X35052Y59429D01*
X34671Y58667D02*Y57905D01*
X35509Y58743D02*X36081D01*
X35509Y57905D02*X36271D01*
X35509Y59429D02*Y57905D01*
Y59429D02*X36271D01*
X37490D02*X37681Y59238D01*
X36919Y59429D02*X37490D01*
X36728Y59238D02*X36919Y59429D01*
X36728Y59238D02*Y58858D01*
X36919Y58667D01*
X37490D01*
X37681Y58476D01*
Y58096D01*
X37490Y57905D02*X37681Y58096D01*
X36919Y57905D02*X37490D01*
X36728Y58096D02*X36919Y57905D01*
X24892Y59124D02*X25197Y59429D01*
Y57905D01*
X24892D02*X25464D01*
X11430Y58096D02*X11620Y57905D01*
X11430Y59238D02*Y58096D01*
Y59238D02*X11620Y59429D01*
X12002D01*
X12192Y59238D01*
Y58096D01*
X12002Y57905D02*X12192Y58096D01*
X11620Y57905D02*X12002D01*
X11430Y58286D02*X12192Y59048D01*
X12649Y57905D02*X12840D01*
X13297Y58096D02*X13487Y57905D01*
X13297Y59238D02*Y58096D01*
Y59238D02*X13487Y59429D01*
X13868D01*
X14059Y59238D01*
Y58096D01*
X13868Y57905D02*X14059Y58096D01*
X13487Y57905D02*X13868D01*
X13297Y58286D02*X14059Y59048D01*
X14707Y57905D02*X15278Y58667D01*
Y59238D02*Y58667D01*
X15088Y59429D02*X15278Y59238D01*
X14707Y59429D02*X15088D01*
X14516Y59238D02*X14707Y59429D01*
X14516Y59238D02*Y58858D01*
X14707Y58667D01*
X15278D01*
X15735Y58096D02*X15926Y57905D01*
X15735Y58400D02*Y58096D01*
Y58400D02*X16002Y58667D01*
X16231D01*
X16497Y58400D01*
Y58096D01*
X16307Y57905D02*X16497Y58096D01*
X15926Y57905D02*X16307D01*
X15735Y58934D02*X16002Y58667D01*
X15735Y59238D02*Y58934D01*
Y59238D02*X15926Y59429D01*
X16307D01*
X16497Y59238D01*
Y58934D01*
X16231Y58667D02*X16497Y58934D01*
X12144Y27556D02*X12956D01*
X12144D02*Y26744D01*
X12956D01*
Y27556D02*Y26744D01*
X7244Y27556D02*X8056D01*
X7244D02*Y26744D01*
X8056D01*
Y27556D02*Y26744D01*
X3404Y63074D02*X4216D01*
X3404D02*Y62261D01*
X4216D01*
Y63074D02*Y62261D01*
X34290Y63239D02*X34671Y62477D01*
X35052Y63239D01*
X34671Y62477D02*Y61715D01*
X35509Y62553D02*X36081D01*
X35509Y61715D02*X36271D01*
X35509Y63239D02*Y61715D01*
Y63239D02*X36271D01*
X37490D02*X37681Y63048D01*
X36919Y63239D02*X37490D01*
X36728Y63048D02*X36919Y63239D01*
X36728Y63048D02*Y62668D01*
X36919Y62477D01*
X37490D01*
X37681Y62286D01*
Y61906D01*
X37490Y61715D02*X37681Y61906D01*
X36919Y61715D02*X37490D01*
X36728Y61906D02*X36919Y61715D01*
X24892Y63048D02*X25082Y63239D01*
X25654D01*
X25844Y63048D01*
Y62668D01*
X24892Y61715D02*X25844Y62668D01*
X24892Y61715D02*X25844D01*
X11430Y61906D02*X11620Y61715D01*
X11430Y63048D02*Y61906D01*
Y63048D02*X11620Y63239D01*
X12002D01*
X12192Y63048D01*
Y61906D01*
X12002Y61715D02*X12192Y61906D01*
X11620Y61715D02*X12002D01*
X11430Y62096D02*X12192Y62858D01*
X12649Y61715D02*X12840D01*
X13297Y61906D02*X13487Y61715D01*
X13297Y63048D02*Y61906D01*
Y63048D02*X13487Y63239D01*
X13868D01*
X14059Y63048D01*
Y61906D01*
X13868Y61715D02*X14059Y61906D01*
X13487Y61715D02*X13868D01*
X13297Y62096D02*X14059Y62858D01*
X14516Y63239D02*X15278D01*
X14516D02*Y62477D01*
X14707Y62668D01*
X15088D01*
X15278Y62477D01*
Y61906D01*
X15088Y61715D02*X15278Y61906D01*
X14707Y61715D02*X15088D01*
X14516Y61906D02*X14707Y61715D01*
X15926D02*X16497Y62477D01*
Y63048D02*Y62477D01*
X16307Y63239D02*X16497Y63048D01*
X15926Y63239D02*X16307D01*
X15735Y63048D02*X15926Y63239D01*
X15735Y63048D02*Y62668D01*
X15926Y62477D01*
X16497D01*
X21847Y34000D02*G75*G03X22253Y34000I203J0D01*G01*
G75*G03X21847Y34000I-203J0D01*G01*
Y40650D02*G75*G03X22253Y40650I203J0D01*G01*
G75*G03X21847Y40650I-203J0D01*G01*
Y46600D02*G75*G03X22253Y46600I203J0D01*G01*
G75*G03X21847Y46600I-203J0D01*G01*
Y53250D02*G75*G03X22253Y53250I203J0D01*G01*
G75*G03X21847Y53250I-203J0D01*G01*
X3607Y66478D02*G75*G03X4013Y66478I203J0D01*G01*
G75*G03X3607Y66478I-203J0D01*G01*
X34290Y67049D02*X34671Y66287D01*
X35052Y67049D01*
X34671Y66287D02*Y65525D01*
X35509Y66363D02*X36081D01*
X35509Y65525D02*X36271D01*
X35509Y67049D02*Y65525D01*
Y67049D02*X36271D01*
X37490D02*X37681Y66858D01*
X36919Y67049D02*X37490D01*
X36728Y66858D02*X36919Y67049D01*
X36728Y66858D02*Y66478D01*
X36919Y66287D01*
X37490D01*
X37681Y66096D01*
Y65716D01*
X37490Y65525D02*X37681Y65716D01*
X36919Y65525D02*X37490D01*
X36728Y65716D02*X36919Y65525D01*
X24892Y66096D02*X25654Y67049D01*
X24892Y66096D02*X25844D01*
X25654Y67049D02*Y65525D01*
X11430Y65716D02*X11620Y65525D01*
X11430Y66858D02*Y65716D01*
Y66858D02*X11620Y67049D01*
X12002D01*
X12192Y66858D01*
Y65716D01*
X12002Y65525D02*X12192Y65716D01*
X11620Y65525D02*X12002D01*
X11430Y65906D02*X12192Y66668D01*
X12649Y65525D02*X12840D01*
X13297Y65716D02*X13487Y65525D01*
X13297Y66858D02*Y65716D01*
Y66858D02*X13487Y67049D01*
X13868D01*
X14059Y66858D01*
Y65716D01*
X13868Y65525D02*X14059Y65716D01*
X13487Y65525D02*X13868D01*
X13297Y65906D02*X14059Y66668D01*
X14516Y67049D02*X15278D01*
X14516D02*Y66287D01*
X14707Y66478D01*
X15088D01*
X15278Y66287D01*
Y65716D01*
X15088Y65525D02*X15278Y65716D01*
X14707Y65525D02*X15088D01*
X14516Y65716D02*X14707Y65525D01*
X15735Y66744D02*X16040Y67049D01*
Y65525D01*
X15735D02*X16307D01*
X3495Y24105D02*X4105Y23495D01*
X3495D02*X4105Y24105D01*
X3505Y70592D02*X4115Y69983D01*
X3505D02*X4115Y70592D01*
X34290Y70859D02*X34671Y70097D01*
X35052Y70859D01*
X34671Y70097D02*Y69335D01*
X35509Y70173D02*X36081D01*
X35509Y69335D02*X36271D01*
X35509Y70859D02*Y69335D01*
Y70859D02*X36271D01*
X37490D02*X37681Y70668D01*
X36919Y70859D02*X37490D01*
X36728Y70668D02*X36919Y70859D01*
X36728Y70668D02*Y70288D01*
X36919Y70097D01*
X37490D01*
X37681Y69906D01*
Y69526D01*
X37490Y69335D02*X37681Y69526D01*
X36919Y69335D02*X37490D01*
X36728Y69526D02*X36919Y69335D01*
X24892Y70554D02*X25197Y70859D01*
Y69335D01*
X24892D02*X25464D01*
X11430Y69526D02*X11620Y69335D01*
X11430Y70668D02*Y69526D01*
Y70668D02*X11620Y70859D01*
X12002D01*
X12192Y70668D01*
Y69526D01*
X12002Y69335D02*X12192Y69526D01*
X11620Y69335D02*X12002D01*
X11430Y69716D02*X12192Y70478D01*
X12649Y69335D02*X12840D01*
X13297Y69526D02*X13487Y69335D01*
X13297Y70668D02*Y69526D01*
Y70668D02*X13487Y70859D01*
X13868D01*
X14059Y70668D01*
Y69526D01*
X13868Y69335D02*X14059Y69526D01*
X13487Y69335D02*X13868D01*
X13297Y69716D02*X14059Y70478D01*
X14516Y70668D02*X14707Y70859D01*
X15088D01*
X15278Y70668D01*
X15088Y69335D02*X15278Y69526D01*
X14707Y69335D02*X15088D01*
X14516Y69526D02*X14707Y69335D01*
Y70173D02*X15088D01*
X15278Y70668D02*Y70364D01*
Y69983D02*Y69526D01*
Y69983D02*X15088Y70173D01*
X15278Y70364D02*X15088Y70173D01*
X15735Y69526D02*X15926Y69335D01*
X15735Y69830D02*Y69526D01*
Y69830D02*X16002Y70097D01*
X16231D01*
X16497Y69830D01*
Y69526D01*
X16307Y69335D02*X16497Y69526D01*
X15926Y69335D02*X16307D01*
X15735Y70364D02*X16002Y70097D01*
X15735Y70668D02*Y70364D01*
Y70668D02*X15926Y70859D01*
X16307D01*
X16497Y70668D01*
Y70364D01*
X16231Y70097D02*X16497Y70364D01*
X22500Y27306D02*Y26494D01*
X22094Y26900D02*X22906D01*
X22500Y28906D02*Y28094D01*
X22094Y28500D02*X22906D01*
X22500Y30456D02*Y29644D01*
X22094Y30050D02*X22906D01*
X22500Y32006D02*Y31194D01*
X22094Y31600D02*X22906D01*
X22500Y43206D02*Y42394D01*
X22094Y42800D02*X22906D01*
X22500Y44856D02*Y44044D01*
X22094Y44450D02*X22906D01*
X3810Y74504D02*Y73691D01*
X3404Y74098D02*X4216D01*
X34290Y74669D02*X34671Y73907D01*
X35052Y74669D01*
X34671Y73907D02*Y73145D01*
X35509Y73983D02*X36081D01*
X35509Y73145D02*X36271D01*
X35509Y74669D02*Y73145D01*
Y74669D02*X36271D01*
X37490D02*X37681Y74478D01*
X36919Y74669D02*X37490D01*
X36728Y74478D02*X36919Y74669D01*
X36728Y74478D02*Y74098D01*
X36919Y73907D01*
X37490D01*
X37681Y73716D01*
Y73336D01*
X37490Y73145D02*X37681Y73336D01*
X36919Y73145D02*X37490D01*
X36728Y73336D02*X36919Y73145D01*
X25464Y74669D02*X25654Y74478D01*
X25082Y74669D02*X25464D01*
X24892Y74478D02*X25082Y74669D01*
X24892Y74478D02*Y73336D01*
X25082Y73145D01*
X25464Y73983D02*X25654Y73793D01*
X24892Y73983D02*X25464D01*
X25082Y73145D02*X25464D01*
X25654Y73336D01*
Y73793D02*Y73336D01*
X11430D02*X11620Y73145D01*
X11430Y74478D02*Y73336D01*
Y74478D02*X11620Y74669D01*
X12002D01*
X12192Y74478D01*
Y73336D01*
X12002Y73145D02*X12192Y73336D01*
X11620Y73145D02*X12002D01*
X11430Y73526D02*X12192Y74288D01*
X12649Y73145D02*X12840D01*
X13297Y73336D02*X13487Y73145D01*
X13297Y74478D02*Y73336D01*
Y74478D02*X13487Y74669D01*
X13868D01*
X14059Y74478D01*
Y73336D01*
X13868Y73145D02*X14059Y73336D01*
X13487Y73145D02*X13868D01*
X13297Y73526D02*X14059Y74288D01*
X14516Y74478D02*X14707Y74669D01*
X15278D01*
X15469Y74478D01*
Y74098D01*
X14516Y73145D02*X15469Y74098D01*
X14516Y73145D02*X15469D01*
X16497Y74669D02*X16688Y74478D01*
X16116Y74669D02*X16497D01*
X15926Y74478D02*X16116Y74669D01*
X15926Y74478D02*Y73336D01*
X16116Y73145D01*
X16497Y73983D02*X16688Y73793D01*
X15926Y73983D02*X16497D01*
X16116Y73145D02*X16497D01*
X16688Y73336D01*
Y73793D02*Y73336D01*
X18100Y30050D02*Y29644D01*
Y30050D02*X18452Y30253D01*
X18100Y30050D02*X17748Y30253D01*
X22750Y51250D02*Y50844D01*
Y51250D02*X23102Y51453D01*
X22750Y51250D02*X22398Y51453D01*
X18900Y50600D02*Y50194D01*
Y50600D02*X19252Y50803D01*
X18900Y50600D02*X18548Y50803D01*
X20450Y47050D02*Y46644D01*
Y47050D02*X20802Y47253D01*
X20450Y47050D02*X20098Y47253D01*
X6575Y23900D02*Y23494D01*
Y23900D02*X6927Y24103D01*
X6575Y23900D02*X6223Y24103D01*
X3810Y77908D02*Y77501D01*
Y77908D02*X4162Y78111D01*
X3810Y77908D02*X3458Y78111D01*
X34290Y78479D02*X34671Y77717D01*
X35052Y78479D01*
X34671Y77717D02*Y76955D01*
X35509Y77793D02*X36081D01*
X35509Y76955D02*X36271D01*
X35509Y78479D02*Y76955D01*
Y78479D02*X36271D01*
X37490D02*X37681Y78288D01*
X36919Y78479D02*X37490D01*
X36728Y78288D02*X36919Y78479D01*
X36728Y78288D02*Y77908D01*
X36919Y77717D01*
X37490D01*
X37681Y77526D01*
Y77146D01*
X37490Y76955D02*X37681Y77146D01*
X36919Y76955D02*X37490D01*
X36728Y77146D02*X36919Y76955D01*
X24892Y78479D02*X25654D01*
X24892D02*Y77717D01*
X25082Y77908D01*
X25464D01*
X25654Y77717D01*
Y77146D01*
X25464Y76955D02*X25654Y77146D01*
X25082Y76955D02*X25464D01*
X24892Y77146D02*X25082Y76955D01*
X11430Y77146D02*X11620Y76955D01*
X11430Y78288D02*Y77146D01*
Y78288D02*X11620Y78479D01*
X12002D01*
X12192Y78288D01*
Y77146D01*
X12002Y76955D02*X12192Y77146D01*
X11620Y76955D02*X12002D01*
X11430Y77336D02*X12192Y78098D01*
X12649Y76955D02*X12840D01*
X13297Y77146D02*X13487Y76955D01*
X13297Y78288D02*Y77146D01*
Y78288D02*X13487Y78479D01*
X13868D01*
X14059Y78288D01*
Y77146D01*
X13868Y76955D02*X14059Y77146D01*
X13487Y76955D02*X13868D01*
X13297Y77336D02*X14059Y78098D01*
X14516Y78174D02*X14821Y78479D01*
Y76955D01*
X14516D02*X15088D01*
X16116Y78479D02*X16307Y78288D01*
X15735Y78479D02*X16116D01*
X15545Y78288D02*X15735Y78479D01*
X15545Y78288D02*Y77146D01*
X15735Y76955D01*
X16116Y77793D02*X16307Y77603D01*
X15545Y77793D02*X16116D01*
X15735Y76955D02*X16116D01*
X16307Y77146D01*
Y77603D02*Y77146D01*
X762Y82289D02*X952Y82098D01*
X190Y82289D02*X762D01*
X0Y82098D02*X190Y82289D01*
X0Y82098D02*Y81718D01*
X190Y81527D01*
X762D01*
X952Y81336D01*
Y80956D01*
X762Y80765D02*X952Y80956D01*
X190Y80765D02*X762D01*
X0Y80956D02*X190Y80765D01*
X1410Y81527D02*Y80956D01*
X1600Y80765D01*
X2172Y81527D02*Y80384D01*
X1981Y80194D02*X2172Y80384D01*
X1600Y80194D02*X1981D01*
X1410Y80384D02*X1600Y80194D01*
Y80765D02*X1981D01*
X2172Y80956D01*
X2819Y81336D02*Y80765D01*
Y81336D02*X3010Y81527D01*
X3200D01*
X3391Y81336D01*
Y80765D01*
Y81336D02*X3581Y81527D01*
X3772D01*
X3962Y81336D01*
Y80765D01*
X2629Y81527D02*X2819Y81336D01*
X4420Y82289D02*Y80765D01*
Y80956D02*X4610Y80765D01*
X4991D01*
X5182Y80956D01*
Y81336D02*Y80956D01*
X4991Y81527D02*X5182Y81336D01*
X4610Y81527D02*X4991D01*
X4420Y81336D02*X4610Y81527D01*
X5639Y81336D02*Y80956D01*
Y81336D02*X5829Y81527D01*
X6210D01*
X6401Y81336D01*
Y80956D01*
X6210Y80765D02*X6401Y80956D01*
X5829Y80765D02*X6210D01*
X5639Y80956D02*X5829Y80765D01*
X6858Y82289D02*Y80956D01*
X7049Y80765D01*
X0Y79939D02*X7430D01*
X10604Y82289D02*Y80765D01*
X11100Y82289D02*X11366Y82022D01*
Y81032D01*
X11100Y80765D02*X11366Y81032D01*
X10414Y80765D02*X11100D01*
X10414Y82289D02*X11100D01*
G54D67*X11824Y81908D02*Y81870D01*
G54D66*Y81336D02*Y80765D01*
X12776Y81527D02*X12967Y81336D01*
X12395Y81527D02*X12776D01*
X12205Y81336D02*X12395Y81527D01*
X12205Y81336D02*Y80956D01*
X12395Y80765D01*
X12967Y81527D02*Y80956D01*
X13157Y80765D01*
X12395D02*X12776D01*
X12967Y80956D01*
X13805Y81336D02*Y80765D01*
Y81336D02*X13995Y81527D01*
X14186D01*
X14376Y81336D01*
Y80765D01*
Y81336D02*X14567Y81527D01*
X14757D01*
X14948Y81336D01*
Y80765D01*
X13614Y81527D02*X13805Y81336D01*
X15405Y80765D02*X15596D01*
X16739Y80956D02*X16929Y80765D01*
X16739Y82098D02*X16929Y82289D01*
X16739Y82098D02*Y80956D01*
X17386Y82289D02*X17767D01*
X17577D02*Y80765D01*
X17386D02*X17767D01*
X18415Y81336D02*Y80765D01*
Y81336D02*X18606Y81527D01*
X18796D01*
X18987Y81336D01*
Y80765D01*
X18225Y81527D02*X18415Y81336D01*
X19634Y81527D02*X20206D01*
X19444Y81336D02*X19634Y81527D01*
X19444Y81336D02*Y80956D01*
X19634Y80765D01*
X20206D01*
X20663Y82289D02*Y80765D01*
Y81336D02*X20853Y81527D01*
X21234D01*
X21425Y81336D01*
Y80765D01*
X21882Y82289D02*X22073Y82098D01*
Y80956D01*
X21882Y80765D02*X22073Y80956D01*
X10414Y79939D02*X22530D01*
X24397Y80765D02*X24892D01*
X24130Y81032D02*X24397Y80765D01*
X24130Y82022D02*Y81032D01*
Y82022D02*X24397Y82289D01*
X24892D01*
X25349Y81336D02*Y80956D01*
Y81336D02*X25540Y81527D01*
X25921D01*
X26111Y81336D01*
Y80956D01*
X25921Y80765D02*X26111Y80956D01*
X25540Y80765D02*X25921D01*
X25349Y80956D02*X25540Y80765D01*
X26568Y81527D02*Y80956D01*
X26759Y80765D01*
X27140D01*
X27330Y80956D01*
Y81527D02*Y80956D01*
X27978Y81336D02*Y80765D01*
Y81336D02*X28169Y81527D01*
X28359D01*
X28550Y81336D01*
Y80765D01*
X27788Y81527D02*X27978Y81336D01*
X29197Y82289D02*Y80956D01*
X29388Y80765D01*
X29007Y81718D02*X29388D01*
X24130Y79939D02*X29769D01*
X33210Y82289D02*Y80765D01*
X33020Y82289D02*X33782D01*
X33972Y82098D01*
Y81718D01*
X33782Y81527D02*X33972Y81718D01*
X33210Y81527D02*X33782D01*
X34430Y82289D02*Y80956D01*
X34620Y80765D01*
X35573Y81527D02*X35763Y81336D01*
X35192Y81527D02*X35573D01*
X35001Y81336D02*X35192Y81527D01*
X35001Y81336D02*Y80956D01*
X35192Y80765D01*
X35763Y81527D02*Y80956D01*
X35954Y80765D01*
X35192D02*X35573D01*
X35763Y80956D01*
X36601Y82289D02*Y80956D01*
X36792Y80765D01*
X36411Y81718D02*X36792D01*
X37363Y80765D02*X37935D01*
X37173Y80956D02*X37363Y80765D01*
X37173Y81336D02*Y80956D01*
Y81336D02*X37363Y81527D01*
X37744D01*
X37935Y81336D01*
X37173Y81146D02*X37935D01*
Y81336D02*Y81146D01*
X39154Y82289D02*Y80765D01*
X38964D02*X39154Y80956D01*
X38583Y80765D02*X38964D01*
X38392Y80956D02*X38583Y80765D01*
X38392Y81336D02*Y80956D01*
Y81336D02*X38583Y81527D01*
X38964D01*
X39154Y81336D01*
X39992Y81527D02*Y81336D01*
Y80956D02*Y80765D01*
X39611Y82098D02*Y81908D01*
Y82098D02*X39802Y82289D01*
X40183D01*
X40373Y82098D01*
Y81908D01*
X39992Y81527D02*X40373Y81908D01*
X33020Y79939D02*X40831D01*
X0Y86099D02*X762D01*
X381D02*Y84575D01*
X1219Y86099D02*Y84575D01*
Y85146D02*X1410Y85337D01*
X1791D01*
X1981Y85146D01*
Y84575D01*
X2629D02*X3200D01*
X2438Y84766D02*X2629Y84575D01*
X2438Y85146D02*Y84766D01*
Y85146D02*X2629Y85337D01*
X3010D01*
X3200Y85146D01*
X2438Y84956D02*X3200D01*
Y85146D02*Y84956D01*
X3848Y85146D02*Y84575D01*
Y85146D02*X4039Y85337D01*
X4420D01*
X3658D02*X3848Y85146D01*
X5067Y84575D02*X5639D01*
X4877Y84766D02*X5067Y84575D01*
X4877Y85146D02*Y84766D01*
Y85146D02*X5067Y85337D01*
X5448D01*
X5639Y85146D01*
X4877Y84956D02*X5639D01*
Y85146D02*Y84956D01*
X7353Y85337D02*X7544Y85146D01*
X6972Y85337D02*X7353D01*
X6782Y85146D02*X6972Y85337D01*
X6782Y85146D02*Y84766D01*
X6972Y84575D01*
X7544Y85337D02*Y84766D01*
X7734Y84575D01*
X6972D02*X7353D01*
X7544Y84766D01*
X8382Y85146D02*Y84575D01*
Y85146D02*X8573Y85337D01*
X8954D01*
X8192D02*X8382Y85146D01*
X9601Y84575D02*X10173D01*
X9411Y84766D02*X9601Y84575D01*
X9411Y85146D02*Y84766D01*
Y85146D02*X9601Y85337D01*
X9982D01*
X10173Y85146D01*
X9411Y84956D02*X10173D01*
Y85146D02*Y84956D01*
X11887Y86099D02*X12078Y85908D01*
X11506Y86099D02*X11887D01*
X11316Y85908D02*X11506Y86099D01*
X11316Y85908D02*Y84766D01*
X11506Y84575D01*
X11887Y85413D02*X12078Y85223D01*
X11316Y85413D02*X11887D01*
X11506Y84575D02*X11887D01*
X12078Y84766D01*
Y85223D02*Y84766D01*
X13983Y86099D02*Y84575D01*
X13792D02*X13983Y84766D01*
X13411Y84575D02*X13792D01*
X13221Y84766D02*X13411Y84575D01*
X13221Y85146D02*Y84766D01*
Y85146D02*X13411Y85337D01*
X13792D01*
X13983Y85146D01*
G54D67*X14440Y85718D02*Y85680D01*
G54D66*Y85146D02*Y84575D01*
X15011Y85908D02*Y84575D01*
Y85908D02*X15202Y86099D01*
X15392D01*
X14821Y85337D02*X15202D01*
X15964Y85908D02*Y84575D01*
Y85908D02*X16154Y86099D01*
X16345D01*
X15773Y85337D02*X16154D01*
X16916Y84575D02*X17488D01*
X16726Y84766D02*X16916Y84575D01*
X16726Y85146D02*Y84766D01*
Y85146D02*X16916Y85337D01*
X17297D01*
X17488Y85146D01*
X16726Y84956D02*X17488D01*
Y85146D02*Y84956D01*
X18136Y85146D02*Y84575D01*
Y85146D02*X18326Y85337D01*
X18707D01*
X17945D02*X18136Y85146D01*
X19355Y84575D02*X19926D01*
X19164Y84766D02*X19355Y84575D01*
X19164Y85146D02*Y84766D01*
Y85146D02*X19355Y85337D01*
X19736D01*
X19926Y85146D01*
X19164Y84956D02*X19926D01*
Y85146D02*Y84956D01*
X20574Y85146D02*Y84575D01*
Y85146D02*X20765Y85337D01*
X20955D01*
X21146Y85146D01*
Y84575D01*
X20384Y85337D02*X20574Y85146D01*
X21793Y86099D02*Y84766D01*
X21984Y84575D01*
X21603Y85528D02*X21984D01*
X23813Y86099D02*Y84575D01*
X23622D02*X23813Y84766D01*
X23241Y84575D02*X23622D01*
X23051Y84766D02*X23241Y84575D01*
X23051Y85146D02*Y84766D01*
Y85146D02*X23241Y85337D01*
X23622D01*
X23813Y85146D01*
X24460D02*Y84575D01*
Y85146D02*X24651Y85337D01*
X25032D01*
X24270D02*X24460Y85146D01*
G54D67*X25489Y85718D02*Y85680D01*
G54D66*Y85146D02*Y84575D01*
X25870Y86099D02*Y84766D01*
X26060Y84575D01*
X26441Y86099D02*Y84766D01*
X26632Y84575D01*
X27889D02*X28461D01*
X28651Y84766D01*
X28461Y84956D02*X28651Y84766D01*
X27889Y84956D02*X28461D01*
X27699Y85146D02*X27889Y84956D01*
X27699Y85146D02*X27889Y85337D01*
X28461D01*
X28651Y85146D01*
X27699Y84766D02*X27889Y84575D01*
G54D67*X29108Y85718D02*Y85680D01*
G54D66*Y85146D02*Y84575D01*
X29489Y85337D02*X30251D01*
X29489Y84575D02*X30251Y85337D01*
X29489Y84575D02*X30251D01*
X30899D02*X31471D01*
X30709Y84766D02*X30899Y84575D01*
X30709Y85146D02*Y84766D01*
Y85146D02*X30899Y85337D01*
X31280D01*
X31471Y85146D01*
X30709Y84956D02*X31471D01*
Y85146D02*Y84956D01*
X32118Y84575D02*X32690D01*
X32880Y84766D01*
X32690Y84956D02*X32880Y84766D01*
X32118Y84956D02*X32690D01*
X31928Y85146D02*X32118Y84956D01*
X31928Y85146D02*X32118Y85337D01*
X32690D01*
X32880Y85146D01*
X31928Y84766D02*X32118Y84575D01*
X34023Y85337D02*Y84766D01*
X34214Y84575D01*
X34595D01*
X34785Y84766D01*
Y85337D02*Y84766D01*
X35433Y84575D02*X36005D01*
X36195Y84766D01*
X36005Y84956D02*X36195Y84766D01*
X35433Y84956D02*X36005D01*
X35243Y85146D02*X35433Y84956D01*
X35243Y85146D02*X35433Y85337D01*
X36005D01*
X36195Y85146D01*
X35243Y84766D02*X35433Y84575D01*
X36843D02*X37414D01*
X36652Y84766D02*X36843Y84575D01*
X36652Y85146D02*Y84766D01*
Y85146D02*X36843Y85337D01*
X37224D01*
X37414Y85146D01*
X36652Y84956D02*X37414D01*
Y85146D02*Y84956D01*
X38633Y86099D02*Y84575D01*
X38443D02*X38633Y84766D01*
X38062Y84575D02*X38443D01*
X37871Y84766D02*X38062Y84575D01*
X37871Y85146D02*Y84766D01*
Y85146D02*X38062Y85337D01*
X38443D01*
X38633Y85146D01*
G54D67*X39776Y85718D02*Y85680D01*
G54D66*Y85146D02*Y84575D01*
X40348Y85146D02*Y84575D01*
Y85146D02*X40538Y85337D01*
X40729D01*
X40919Y85146D01*
Y84575D01*
X40157Y85337D02*X40348Y85146D01*
X42253Y86099D02*Y84766D01*
X42443Y84575D01*
X42062Y85528D02*X42443D01*
X42824Y86099D02*Y84575D01*
Y85146D02*X43015Y85337D01*
X43396D01*
X43586Y85146D01*
Y84575D01*
G54D67*X44044Y85718D02*Y85680D01*
G54D66*Y85146D02*Y84575D01*
X44615D02*X45187D01*
X45377Y84766D01*
X45187Y84956D02*X45377Y84766D01*
X44615Y84956D02*X45187D01*
X44425Y85146D02*X44615Y84956D01*
X44425Y85146D02*X44615Y85337D01*
X45187D01*
X45377Y85146D01*
X44425Y84766D02*X44615Y84575D01*
X46520Y86099D02*Y84766D01*
X46711Y84575D01*
X47663Y85337D02*X47854Y85146D01*
X47282Y85337D02*X47663D01*
X47092Y85146D02*X47282Y85337D01*
X47092Y85146D02*Y84766D01*
X47282Y84575D01*
X47854Y85337D02*Y84766D01*
X48044Y84575D01*
X47282D02*X47663D01*
X47854Y84766D01*
X48501Y85337D02*Y84766D01*
X48692Y84575D01*
X49263Y85337D02*Y84194D01*
X49073Y84004D02*X49263Y84194D01*
X48692Y84004D02*X49073D01*
X48501Y84194D02*X48692Y84004D01*
Y84575D02*X49073D01*
X49263Y84766D01*
X49721Y85146D02*Y84766D01*
Y85146D02*X49911Y85337D01*
X50292D01*
X50483Y85146D01*
Y84766D01*
X50292Y84575D02*X50483Y84766D01*
X49911Y84575D02*X50292D01*
X49721Y84766D02*X49911Y84575D01*
X50940Y85337D02*Y84766D01*
X51130Y84575D01*
X51511D01*
X51702Y84766D01*
Y85337D02*Y84766D01*
X52349Y86099D02*Y84766D01*
X52540Y84575D01*
X52159Y85528D02*X52540D01*
X52921Y84194D02*X53302Y84575D01*
X54445Y85794D02*X54750Y86099D01*
Y84575D01*
X54445D02*X55016D01*
X55664D02*X56236Y85337D01*
Y85908D02*Y85337D01*
X56045Y86099D02*X56236Y85908D01*
X55664Y86099D02*X56045D01*
X55474Y85908D02*X55664Y86099D01*
X55474Y85908D02*Y85528D01*
X55664Y85337D01*
X56236D01*
X57379Y86099D02*Y84575D01*
Y85146D02*X57569Y85337D01*
X57950D01*
X58141Y85146D01*
Y84575D01*
X58598Y85146D02*Y84766D01*
Y85146D02*X58788Y85337D01*
X59169D01*
X59360Y85146D01*
Y84766D01*
X59169Y84575D02*X59360Y84766D01*
X58788Y84575D02*X59169D01*
X58598Y84766D02*X58788Y84575D01*
X59817Y86099D02*Y84766D01*
X60008Y84575D01*
X60579D02*X61151D01*
X60389Y84766D02*X60579Y84575D01*
X60389Y85146D02*Y84766D01*
Y85146D02*X60579Y85337D01*
X60960D01*
X61151Y85146D01*
X60389Y84956D02*X61151D01*
Y85146D02*Y84956D01*
X61798Y84575D02*X62370D01*
X62560Y84766D01*
X62370Y84956D02*X62560Y84766D01*
X61798Y84956D02*X62370D01*
X61608Y85146D02*X61798Y84956D01*
X61608Y85146D02*X61798Y85337D01*
X62370D01*
X62560Y85146D01*
X61608Y84766D02*X61798Y84575D01*
X63894Y86099D02*Y84766D01*
X64084Y84575D01*
X63703Y85528D02*X64084D01*
X64465Y85146D02*Y84766D01*
Y85146D02*X64656Y85337D01*
X65037D01*
X65227Y85146D01*
Y84766D01*
X65037Y84575D02*X65227Y84766D01*
X64656Y84575D02*X65037D01*
X64465Y84766D02*X64656Y84575D01*
X65875Y86099D02*Y84766D01*
X66065Y84575D01*
X65684Y85528D02*X66065D01*
X67018Y85337D02*X67208Y85146D01*
X66637Y85337D02*X67018D01*
X66446Y85146D02*X66637Y85337D01*
X66446Y85146D02*Y84766D01*
X66637Y84575D01*
X67208Y85337D02*Y84766D01*
X67399Y84575D01*
X66637D02*X67018D01*
X67208Y84766D01*
X67856Y86099D02*Y84766D01*
X68047Y84575D01*
G54D68*X18050Y55750D02*Y39400D01*
Y55750D02*X23950D01*
X3050Y22300D02*X23900D01*
X23950Y55750D02*Y22300D01*
X18050Y39350D02*Y33700D01*
X450D01*
Y25100D02*Y33700D01*
Y25050D02*G75*G03X3200Y22300I2750J0D01*G01*
G54D66*X10573Y-2413D02*X11335D01*
X11526Y-2222D01*
Y-1765D02*Y-2222D01*
X11335Y-1575D02*X11526Y-1765D01*
X10764Y-1575D02*X11335D01*
X10764Y-889D02*Y-2413D01*
X10573Y-889D02*X11335D01*
X11526Y-1080D01*
Y-1384D01*
X11335Y-1575D02*X11526Y-1384D01*
X11983Y-1842D02*Y-2222D01*
Y-1842D02*X12174Y-1651D01*
X12555D01*
X12745Y-1842D01*
Y-2222D01*
X12555Y-2413D02*X12745Y-2222D01*
X12174Y-2413D02*X12555D01*
X11983Y-2222D02*X12174Y-2413D01*
X13774Y-1651D02*X13964Y-1842D01*
X13393Y-1651D02*X13774D01*
X13202Y-1842D02*X13393Y-1651D01*
X13202Y-1842D02*Y-2222D01*
X13393Y-2413D01*
X13964Y-1651D02*Y-2222D01*
X14155Y-2413D01*
X13393D02*X13774D01*
X13964Y-2222D01*
X14803Y-1842D02*Y-2413D01*
Y-1842D02*X14993Y-1651D01*
X15374D01*
X14612D02*X14803Y-1842D01*
X16593Y-889D02*Y-2413D01*
X16403D02*X16593Y-2222D01*
X16022Y-2413D02*X16403D01*
X15831Y-2222D02*X16022Y-2413D01*
X15831Y-1842D02*Y-2222D01*
Y-1842D02*X16022Y-1651D01*
X16403D01*
X16593Y-1842D01*
X17736D02*Y-2222D01*
Y-1842D02*X17927Y-1651D01*
X18308D01*
X18498Y-1842D01*
Y-2222D01*
X18308Y-2413D02*X18498Y-2222D01*
X17927Y-2413D02*X18308D01*
X17736Y-2222D02*X17927Y-2413D01*
X18955Y-1651D02*Y-2222D01*
X19146Y-2413D01*
X19527D01*
X19717Y-2222D01*
Y-1651D02*Y-2222D01*
X20365Y-889D02*Y-2222D01*
X20556Y-2413D01*
X20175Y-1460D02*X20556D01*
X20937Y-889D02*Y-2222D01*
X21127Y-2413D01*
G54D67*X21508Y-1270D02*Y-1308D01*
G54D66*Y-1842D02*Y-2413D01*
X22080Y-1842D02*Y-2413D01*
Y-1842D02*X22270Y-1651D01*
X22461D01*
X22651Y-1842D01*
Y-2413D01*
X21889Y-1651D02*X22080Y-1842D01*
X23299Y-2413D02*X23870D01*
X23108Y-2222D02*X23299Y-2413D01*
X23108Y-1842D02*Y-2222D01*
Y-1842D02*X23299Y-1651D01*
X23680D01*
X23870Y-1842D01*
X23108Y-2032D02*X23870D01*
Y-1842D02*Y-2032D01*
G54D67*X25013Y-1270D02*Y-1308D01*
G54D66*Y-1842D02*Y-2413D01*
X25585D02*X26156D01*
X26347Y-2222D01*
X26156Y-2032D02*X26347Y-2222D01*
X25585Y-2032D02*X26156D01*
X25394Y-1842D02*X25585Y-2032D01*
X25394Y-1842D02*X25585Y-1651D01*
X26156D01*
X26347Y-1842D01*
X25394Y-2222D02*X25585Y-2413D01*
X27680Y-889D02*Y-2222D01*
X27871Y-2413D01*
X27490Y-1460D02*X27871D01*
X28252Y-889D02*Y-2413D01*
Y-1842D02*X28442Y-1651D01*
X28823D01*
X29014Y-1842D01*
Y-2413D01*
X29662D02*X30233D01*
X29471Y-2222D02*X29662Y-2413D01*
X29471Y-1842D02*Y-2222D01*
Y-1842D02*X29662Y-1651D01*
X30043D01*
X30233Y-1842D01*
X29471Y-2032D02*X30233D01*
Y-1842D02*Y-2032D01*
X31567Y-1651D02*X32138D01*
X31376Y-1842D02*X31567Y-1651D01*
X31376Y-1842D02*Y-2222D01*
X31567Y-2413D01*
X32138D01*
X32786D02*X33357D01*
X32595Y-2222D02*X32786Y-2413D01*
X32595Y-1842D02*Y-2222D01*
Y-1842D02*X32786Y-1651D01*
X33167D01*
X33357Y-1842D01*
X32595Y-2032D02*X33357D01*
Y-1842D02*Y-2032D01*
X34005Y-1842D02*Y-2413D01*
Y-1842D02*X34195Y-1651D01*
X34386D01*
X34576Y-1842D01*
Y-2413D01*
X33814Y-1651D02*X34005Y-1842D01*
X35224Y-889D02*Y-2222D01*
X35415Y-2413D01*
X35034Y-1460D02*X35415D01*
X35986Y-2413D02*X36558D01*
X35796Y-2222D02*X35986Y-2413D01*
X35796Y-1842D02*Y-2222D01*
Y-1842D02*X35986Y-1651D01*
X36367D01*
X36558Y-1842D01*
X35796Y-2032D02*X36558D01*
Y-1842D02*Y-2032D01*
X37205Y-1842D02*Y-2413D01*
Y-1842D02*X37396Y-1651D01*
X37777D01*
X37015D02*X37205Y-1842D01*
X38234Y-889D02*Y-2222D01*
X38425Y-2413D01*
G54D67*X38806Y-1270D02*Y-1308D01*
G54D66*Y-1842D02*Y-2413D01*
X39377Y-1842D02*Y-2413D01*
Y-1842D02*X39568Y-1651D01*
X39758D01*
X39949Y-1842D01*
Y-2413D01*
X39187Y-1651D02*X39377Y-1842D01*
X40596Y-2413D02*X41168D01*
X40406Y-2222D02*X40596Y-2413D01*
X40406Y-1842D02*Y-2222D01*
Y-1842D02*X40596Y-1651D01*
X40977D01*
X41168Y-1842D01*
X40406Y-2032D02*X41168D01*
Y-1842D02*Y-2032D01*
X42311Y-1842D02*Y-2222D01*
Y-1842D02*X42501Y-1651D01*
X42882D01*
X43073Y-1842D01*
Y-2222D01*
X42882Y-2413D02*X43073Y-2222D01*
X42501Y-2413D02*X42882D01*
X42311Y-2222D02*X42501Y-2413D01*
X43720Y-1080D02*Y-2413D01*
Y-1080D02*X43911Y-889D01*
X44101D01*
X43530Y-1651D02*X43911D01*
X45359Y-889D02*Y-2222D01*
X45549Y-2413D01*
X45168Y-1460D02*X45549D01*
X45930Y-889D02*Y-2413D01*
Y-1842D02*X46121Y-1651D01*
X46502D01*
X46692Y-1842D01*
Y-2413D01*
G54D67*X47149Y-1270D02*Y-1308D01*
G54D66*Y-1842D02*Y-2413D01*
X47721D02*X48292D01*
X48483Y-2222D01*
X48292Y-2032D02*X48483Y-2222D01*
X47721Y-2032D02*X48292D01*
X47530Y-1842D02*X47721Y-2032D01*
X47530Y-1842D02*X47721Y-1651D01*
X48292D01*
X48483Y-1842D01*
X47530Y-2222D02*X47721Y-2413D01*
X49816Y-1842D02*Y-2984D01*
X49626Y-1651D02*X49816Y-1842D01*
X50007Y-1651D01*
X50388D01*
X50578Y-1842D01*
Y-2222D01*
X50388Y-2413D02*X50578Y-2222D01*
X50007Y-2413D02*X50388D01*
X49816Y-2222D02*X50007Y-2413D01*
X51607Y-1651D02*X51798Y-1842D01*
X51226Y-1651D02*X51607D01*
X51036Y-1842D02*X51226Y-1651D01*
X51036Y-1842D02*Y-2222D01*
X51226Y-2413D01*
X51798Y-1651D02*Y-2222D01*
X51988Y-2413D01*
X51226D02*X51607D01*
X51798Y-2222D01*
X52636Y-889D02*Y-2222D01*
X52826Y-2413D01*
X52445Y-1460D02*X52826D01*
X53207Y-889D02*Y-2413D01*
Y-1842D02*X53398Y-1651D01*
X53779D01*
X53969Y-1842D01*
Y-2413D01*
X50990Y63239D02*Y61715D01*
X51486Y63239D02*X51752Y62972D01*
Y61982D01*
X51486Y61715D02*X51752Y61982D01*
X50800Y61715D02*X51486D01*
X50800Y63239D02*X51486D01*
X52781Y62477D02*X52972Y62286D01*
X52400Y62477D02*X52781D01*
X52210Y62286D02*X52400Y62477D01*
X52210Y62286D02*Y61906D01*
X52400Y61715D01*
X52972Y62477D02*Y61906D01*
X53162Y61715D01*
X52400D02*X52781D01*
X52972Y61906D01*
X53810Y63239D02*Y61906D01*
X54000Y61715D01*
X53619Y62668D02*X54000D01*
X54572Y61715D02*X55143D01*
X54381Y61906D02*X54572Y61715D01*
X54381Y62286D02*Y61906D01*
Y62286D02*X54572Y62477D01*
X54953D01*
X55143Y62286D01*
X54381Y62096D02*X55143D01*
Y62286D02*Y62096D01*
X55601Y62668D02*X55791D01*
X55601Y62286D02*X55791D01*
X56934Y63239D02*X57696D01*
X57315D02*Y61715D01*
X58153Y63239D02*Y61715D01*
Y62286D02*X58344Y62477D01*
X58725D01*
X58915Y62286D01*
Y61715D01*
X59373Y62477D02*Y61906D01*
X59563Y61715D01*
X59944D01*
X60135Y61906D01*
Y62477D02*Y61906D01*
X61278Y63239D02*Y61715D01*
Y63239D02*X62040D01*
X61278Y62553D02*X61849D01*
X62687Y61715D02*X63259D01*
X62497Y61906D02*X62687Y61715D01*
X62497Y62286D02*Y61906D01*
Y62286D02*X62687Y62477D01*
X63068D01*
X63259Y62286D01*
X62497Y62096D02*X63259D01*
Y62286D02*Y62096D01*
X63716Y63239D02*Y61715D01*
Y61906D02*X63906Y61715D01*
X64287D01*
X64478Y61906D01*
Y62286D02*Y61906D01*
X64287Y62477D02*X64478Y62286D01*
X63906Y62477D02*X64287D01*
X63716Y62286D02*X63906Y62477D01*
X65621Y63048D02*X65811Y63239D01*
X66383D01*
X66573Y63048D01*
Y62668D01*
X65621Y61715D02*X66573Y62668D01*
X65621Y61715D02*X66573D01*
X67221D02*X67983Y63239D01*
X67031D02*X67983D01*
X69126Y61906D02*X69317Y61715D01*
X69126Y63048D02*Y61906D01*
Y63048D02*X69317Y63239D01*
X69698D01*
X69888Y63048D01*
Y61906D01*
X69698Y61715D02*X69888Y61906D01*
X69317Y61715D02*X69698D01*
X69126Y62096D02*X69888Y62858D01*
X70536Y61715D02*X71107Y62477D01*
Y63048D02*Y62477D01*
X70917Y63239D02*X71107Y63048D01*
X70536Y63239D02*X70917D01*
X70345Y63048D02*X70536Y63239D01*
X70345Y63048D02*Y62668D01*
X70536Y62477D01*
X71107D01*
X71565Y62668D02*X71755D01*
X71565Y62286D02*X71755D01*
X72212Y63048D02*X72403Y63239D01*
X72784D01*
X72974Y63048D01*
X72784Y61715D02*X72974Y61906D01*
X72403Y61715D02*X72784D01*
X72212Y61906D02*X72403Y61715D01*
Y62553D02*X72784D01*
X72974Y63048D02*Y62744D01*
Y62363D02*Y61906D01*
Y62363D02*X72784Y62553D01*
X72974Y62744D02*X72784Y62553D01*
X73431Y63048D02*X73622Y63239D01*
X74193D01*
X74384Y63048D01*
Y62668D01*
X73431Y61715D02*X74384Y62668D01*
X73431Y61715D02*X74384D01*
X74841Y62668D02*X75032D01*
X74841Y62286D02*X75032D01*
X75489Y62934D02*X75794Y63239D01*
Y61715D01*
X75489D02*X76060D01*
X77089Y63239D02*X77280Y63048D01*
X76708Y63239D02*X77089D01*
X76518Y63048D02*X76708Y63239D01*
X76518Y63048D02*Y61906D01*
X76708Y61715D01*
X77089Y62553D02*X77280Y62363D01*
X76518Y62553D02*X77089D01*
X76708Y61715D02*X77089D01*
X77280Y61906D01*
Y62363D02*Y61906D01*
X78423Y63048D02*X78613Y63239D01*
X79185D01*
X79375Y63048D01*
Y62668D01*
X78423Y61715D02*X79375Y62668D01*
X78423Y61715D02*X79375D01*
X79832Y61906D02*X80023Y61715D01*
X79832Y63048D02*Y61906D01*
Y63048D02*X80023Y63239D01*
X80404D01*
X80594Y63048D01*
Y61906D01*
X80404Y61715D02*X80594Y61906D01*
X80023Y61715D02*X80404D01*
X79832Y62096D02*X80594Y62858D01*
X81051Y63048D02*X81242Y63239D01*
X81813D01*
X82004Y63048D01*
Y62668D01*
X81051Y61715D02*X82004Y62668D01*
X81051Y61715D02*X82004D01*
X82461Y61906D02*X82652Y61715D01*
X82461Y63048D02*Y61906D01*
Y63048D02*X82652Y63239D01*
X83033D01*
X83223Y63048D01*
Y61906D01*
X83033Y61715D02*X83223Y61906D01*
X82652Y61715D02*X83033D01*
X82461Y62096D02*X83223Y62858D01*
X84366Y63239D02*Y61906D01*
X84557Y61715D01*
X84938D01*
X85128Y61906D01*
Y63239D02*Y61906D01*
X85585Y63239D02*X86347D01*
X85966D02*Y61715D01*
X87071D02*X87567D01*
X86805Y61982D02*X87071Y61715D01*
X86805Y62972D02*Y61982D01*
Y62972D02*X87071Y63239D01*
X87567D01*
X50800Y66668D02*Y65525D01*
Y66668D02*X51067Y67049D01*
X51486D01*
X51752Y66668D01*
Y65525D01*
X50800Y66287D02*X51752D01*
X52210D02*Y65716D01*
X52400Y65525D01*
X52781D01*
X52972Y65716D01*
Y66287D02*Y65716D01*
X53619Y67049D02*Y65716D01*
X53810Y65525D01*
X53429Y66478D02*X53810D01*
X54191Y67049D02*Y65525D01*
Y66096D02*X54381Y66287D01*
X54762D01*
X54953Y66096D01*
Y65525D01*
X55410Y66096D02*Y65716D01*
Y66096D02*X55601Y66287D01*
X55982D01*
X56172Y66096D01*
Y65716D01*
X55982Y65525D02*X56172Y65716D01*
X55601Y65525D02*X55982D01*
X55410Y65716D02*X55601Y65525D01*
X56820Y66096D02*Y65525D01*
Y66096D02*X57010Y66287D01*
X57391D01*
X56629D02*X56820Y66096D01*
X57849Y66478D02*X58039D01*
X57849Y66096D02*X58039D01*
X59373Y67049D02*Y65525D01*
X59182Y67049D02*X59944D01*
X60135Y66858D01*
Y66478D01*
X59944Y66287D02*X60135Y66478D01*
X59373Y66287D02*X59944D01*
X61163D02*X61354Y66096D01*
X60782Y66287D02*X61163D01*
X60592Y66096D02*X60782Y66287D01*
X60592Y66096D02*Y65716D01*
X60782Y65525D01*
X61354Y66287D02*Y65716D01*
X61544Y65525D01*
X60782D02*X61163D01*
X61354Y65716D01*
X62192Y67049D02*Y65716D01*
X62382Y65525D01*
X62001Y66478D02*X62382D01*
X62954Y66096D02*Y65525D01*
Y66096D02*X63144Y66287D01*
X63525D01*
X62763D02*X62954Y66096D01*
G54D67*X63983Y66668D02*Y66630D01*
G54D66*Y66096D02*Y65525D01*
X64554Y66287D02*X65126D01*
X64364Y66096D02*X64554Y66287D01*
X64364Y66096D02*Y65716D01*
X64554Y65525D01*
X65126D01*
X65583Y67049D02*Y65525D01*
Y66096D02*X66154Y65525D01*
X65583Y66096D02*X65964Y66478D01*
X67564Y65525D02*X68059D01*
X67297Y65792D02*X67564Y65525D01*
X67297Y66782D02*Y65792D01*
Y66782D02*X67564Y67049D01*
X68059D01*
X68517Y66096D02*Y65716D01*
Y66096D02*X68707Y66287D01*
X69088D01*
X69279Y66096D01*
Y65716D01*
X69088Y65525D02*X69279Y65716D01*
X68707Y65525D02*X69088D01*
X68517Y65716D02*X68707Y65525D01*
X69736Y67049D02*Y65716D01*
X69926Y65525D01*
X70498D02*X71069D01*
X70307Y65716D02*X70498Y65525D01*
X70307Y66096D02*Y65716D01*
Y66096D02*X70498Y66287D01*
X70879D01*
X71069Y66096D01*
X70307Y65906D02*X71069D01*
Y66096D02*Y65906D01*
X71717Y66096D02*Y65525D01*
Y66096D02*X71907Y66287D01*
X72098D01*
X72288Y66096D01*
Y65525D01*
Y66096D02*X72479Y66287D01*
X72669D01*
X72860Y66096D01*
Y65525D01*
X71526Y66287D02*X71717Y66096D01*
X73889Y66287D02*X74079Y66096D01*
X73508Y66287D02*X73889D01*
X73317Y66096D02*X73508Y66287D01*
X73317Y66096D02*Y65716D01*
X73508Y65525D01*
X74079Y66287D02*Y65716D01*
X74270Y65525D01*
X73508D02*X73889D01*
X74079Y65716D01*
X74917Y66096D02*Y65525D01*
Y66096D02*X75108Y66287D01*
X75298D01*
X75489Y66096D01*
Y65525D01*
X74727Y66287D02*X74917Y66096D01*
X50800Y70859D02*X51562D01*
X51181D02*Y69335D01*
G54D67*X52019Y70478D02*Y70440D01*
G54D66*Y69906D02*Y69335D01*
X52591Y70859D02*Y69526D01*
X52781Y69335D01*
X52400Y70288D02*X52781D01*
X53162Y70859D02*Y69526D01*
X53353Y69335D01*
X53924D02*X54496D01*
X53734Y69526D02*X53924Y69335D01*
X53734Y69906D02*Y69526D01*
Y69906D02*X53924Y70097D01*
X54305D01*
X54496Y69906D01*
X53734Y69716D02*X54496D01*
Y69906D02*Y69716D01*
X54953Y70288D02*X55143D01*
X54953Y69906D02*X55143D01*
X56286Y69526D02*X56477Y69335D01*
X56286Y70668D02*X56477Y70859D01*
X56286Y70668D02*Y69526D01*
X56934Y70097D02*Y69526D01*
X57125Y69335D01*
X57506D01*
X57696Y69526D01*
Y70097D02*Y69526D01*
X58344Y69906D02*Y69335D01*
Y69906D02*X58534Y70097D01*
X58725D01*
X58915Y69906D01*
Y69335D01*
X58153Y70097D02*X58344Y69906D01*
X59373Y70859D02*Y69335D01*
Y69906D02*X59944Y69335D01*
X59373Y69906D02*X59754Y70288D01*
X60592Y69906D02*Y69335D01*
Y69906D02*X60782Y70097D01*
X60973D01*
X61163Y69906D01*
Y69335D01*
X60401Y70097D02*X60592Y69906D01*
X61620D02*Y69526D01*
Y69906D02*X61811Y70097D01*
X62192D01*
X62382Y69906D01*
Y69526D01*
X62192Y69335D02*X62382Y69526D01*
X61811Y69335D02*X62192D01*
X61620Y69526D02*X61811Y69335D01*
X62840Y70097D02*Y69526D01*
X63030Y69335D01*
X63221D01*
X63411Y69526D01*
Y70097D02*Y69526D01*
X63602Y69335D01*
X63792D01*
X63983Y69526D01*
Y70097D02*Y69526D01*
X64630Y69906D02*Y69335D01*
Y69906D02*X64821Y70097D01*
X65011D01*
X65202Y69906D01*
Y69335D01*
X64440Y70097D02*X64630Y69906D01*
X65659Y70859D02*X65850Y70668D01*
Y69526D01*
X65659Y69335D02*X65850Y69526D01*
X66993Y70097D02*X67755D01*
X68898Y70859D02*Y69335D01*
Y70859D02*X69660D01*
X68898Y70173D02*X69469D01*
X70688Y70097D02*X70879Y69906D01*
X70307Y70097D02*X70688D01*
X70117Y69906D02*X70307Y70097D01*
X70117Y69906D02*Y69526D01*
X70307Y69335D01*
X70879Y70097D02*Y69526D01*
X71069Y69335D01*
X70307D02*X70688D01*
X70879Y69526D01*
X71526Y70859D02*Y69335D01*
Y69526D02*X71717Y69335D01*
X72098D01*
X72288Y69526D01*
Y69906D02*Y69526D01*
X72098Y70097D02*X72288Y69906D01*
X71717Y70097D02*X72098D01*
X71526Y69906D02*X71717Y70097D01*
X72936Y69906D02*Y69335D01*
Y69906D02*X73127Y70097D01*
X73508D01*
X72746D02*X72936Y69906D01*
G54D67*X73965Y70478D02*Y70440D01*
G54D66*Y69906D02*Y69335D01*
X74536Y70097D02*X75108D01*
X74346Y69906D02*X74536Y70097D01*
X74346Y69906D02*Y69526D01*
X74536Y69335D01*
X75108D01*
X76137Y70097D02*X76327Y69906D01*
X75756Y70097D02*X76137D01*
X75565Y69906D02*X75756Y70097D01*
X75565Y69906D02*Y69526D01*
X75756Y69335D01*
X76327Y70097D02*Y69526D01*
X76518Y69335D01*
X75756D02*X76137D01*
X76327Y69526D01*
X77165Y70859D02*Y69526D01*
X77356Y69335D01*
X76975Y70288D02*X77356D01*
G54D67*X77737Y70478D02*Y70440D01*
G54D66*Y69906D02*Y69335D01*
X78118Y69906D02*Y69526D01*
Y69906D02*X78308Y70097D01*
X78689D01*
X78880Y69906D01*
Y69526D01*
X78689Y69335D02*X78880Y69526D01*
X78308Y69335D02*X78689D01*
X78118Y69526D02*X78308Y69335D01*
X79527Y69906D02*Y69335D01*
Y69906D02*X79718Y70097D01*
X79908D01*
X80099Y69906D01*
Y69335D01*
X79337Y70097D02*X79527Y69906D01*
X81432Y70859D02*Y69335D01*
X81928Y70859D02*X82194Y70592D01*
Y69602D01*
X81928Y69335D02*X82194Y69602D01*
X81242Y69335D02*X81928D01*
X81242Y70859D02*X81928D01*
X82842Y69906D02*Y69335D01*
Y69906D02*X83033Y70097D01*
X83414D01*
X82652D02*X82842Y69906D01*
X84442Y70097D02*X84633Y69906D01*
X84061Y70097D02*X84442D01*
X83871Y69906D02*X84061Y70097D01*
X83871Y69906D02*Y69526D01*
X84061Y69335D01*
X84633Y70097D02*Y69526D01*
X84823Y69335D01*
X84061D02*X84442D01*
X84633Y69526D01*
X85281Y70097D02*Y69526D01*
X85471Y69335D01*
X85662D01*
X85852Y69526D01*
Y70097D02*Y69526D01*
X86043Y69335D01*
X86233D01*
X86424Y69526D01*
Y70097D02*Y69526D01*
G54D67*X86881Y70478D02*Y70440D01*
G54D66*Y69906D02*Y69335D01*
X87452Y69906D02*Y69335D01*
Y69906D02*X87643Y70097D01*
X87833D01*
X88024Y69906D01*
Y69335D01*
X87262Y70097D02*X87452Y69906D01*
X89052Y70097D02*X89243Y69906D01*
X88671Y70097D02*X89052D01*
X88481Y69906D02*X88671Y70097D01*
X88481Y69906D02*Y69526D01*
X88671Y69335D01*
X89052D01*
X89243Y69526D01*
X88481Y68954D02*X88671Y68764D01*
X89052D01*
X89243Y68954D01*
Y70097D02*Y68954D01*
M02*
