G04 start of page 8 for group -4079 idx -4079 *
G04 Title: (unknown), topsilk *
G04 Creator: pcb 4.2.0 *
G04 CreationDate: Thu Feb 27 09:32:16 2020 UTC *
G04 For: blinken *
G04 Format: Gerber/RS-274X *
G04 PCB-Dimensions (mm): 65.00 56.00 *
G04 PCB-Coordinate-Origin: lower left *
%MOMM*%
%FSLAX43Y43*%
%LNTOPSILK*%
%ADD59C,0.150*%
%ADD58C,0.254*%
G54D58*X16100Y30550D02*Y27800D01*
X3050Y30550D02*Y27800D01*
G54D59*X18700Y32984D02*X19066Y31521D01*
X19432Y32984D01*
X19870Y32253D02*X20602D01*
X20236Y32618D02*Y31887D01*
X18933Y30934D02*Y29471D01*
X19408Y30934D02*X19664Y30678D01*
Y29727D01*
X19408Y29471D02*X19664Y29727D01*
X18750Y29471D02*X19408D01*
X18750Y30934D02*X19408D01*
X20103Y30203D02*X20835D01*
X18800Y26584D02*X19166Y25121D01*
X19532Y26584D01*
X19970Y25853D02*X20702D01*
X18933Y28834D02*Y27371D01*
X19408Y28834D02*X19664Y28578D01*
Y27627D01*
X19408Y27371D02*X19664Y27627D01*
X18750Y27371D02*X19408D01*
X18750Y28834D02*X19408D01*
X20103Y28103D02*X20835D01*
X20469Y28468D02*Y27737D01*
X19000Y45284D02*X19732D01*
X19000D02*Y44553D01*
X19183Y44736D01*
X19549D01*
X19732Y44553D01*
Y44004D01*
X19549Y43821D02*X19732Y44004D01*
X19183Y43821D02*X19549D01*
X19000Y44004D02*X19183Y43821D01*
X20170Y45284D02*X20536Y43821D01*
X20902Y45284D01*
X19000Y41854D02*X19183Y41671D01*
X19000Y42951D02*Y41854D01*
Y42951D02*X19183Y43134D01*
X19549D01*
X19732Y42951D01*
Y41854D01*
X19549Y41671D02*X19732Y41854D01*
X19183Y41671D02*X19549D01*
X19000Y42037D02*X19732Y42768D01*
X20170Y43134D02*X20536Y41671D01*
X20902Y43134D01*
G54D58*X23500Y40700D02*Y34000D01*
Y53300D02*Y46600D01*
G54D59*X34670Y39208D02*Y38878D01*
X34492Y38700D02*X34670Y38878D01*
X33832Y38700D02*X34492D01*
X33832D02*X33654Y38878D01*
Y39208D02*Y38878D01*
X33781Y39513D02*X34543D01*
X33781D02*X33654Y39640D01*
Y39894D02*Y39640D01*
Y39894D02*X33781Y40021D01*
X34543D01*
X34670Y39894D02*X34543Y40021D01*
X34670Y39894D02*Y39640D01*
X34543Y39513D02*X34670Y39640D01*
X33654Y40326D02*X34670D01*
X33654D02*X34670Y40961D01*
X33654D02*X34670D01*
X33654Y41265D02*X34670D01*
X33654D02*X34670Y41900D01*
X33654D02*X34670D01*
X33781Y42205D02*X33654Y42332D01*
Y42713D02*Y42332D01*
Y42713D02*X33781Y42840D01*
X34035D01*
X34670Y42205D02*X34035Y42840D01*
X34670D02*Y42205D01*
X33920Y49008D02*Y48678D01*
X33742Y48500D02*X33920Y48678D01*
X33082Y48500D02*X33742D01*
X33082D02*X32904Y48678D01*
Y49008D02*Y48678D01*
X33031Y49313D02*X33793D01*
X33031D02*X32904Y49440D01*
Y49694D02*Y49440D01*
Y49694D02*X33031Y49821D01*
X33793D01*
X33920Y49694D02*X33793Y49821D01*
X33920Y49694D02*Y49440D01*
X33793Y49313D02*X33920Y49440D01*
X32904Y50126D02*X33920D01*
X32904D02*X33920Y50761D01*
X32904D02*X33920D01*
X32904Y51065D02*X33920D01*
X32904D02*X33920Y51700D01*
X32904D02*X33920D01*
X33107Y52005D02*X32904Y52208D01*
X33920D01*
Y52386D02*Y52005D01*
M02*
