G04 start of page 6 for group -4063 idx -4063 *
G04 Title: (unknown), componentmask *
G04 Creator: pcb 4.2.0 *
G04 CreationDate: Thu Feb 27 09:32:16 2020 UTC *
G04 For: blinken *
G04 Format: Gerber/RS-274X *
G04 PCB-Dimensions (mm): 65.00 56.00 *
G04 PCB-Coordinate-Origin: lower left *
%MOMM*%
%FSLAX43Y43*%
%LNTOPMASK*%
%ADD51C,0.002*%
%ADD50C,1.800*%
%ADD49C,1.254*%
%ADD48C,3.200*%
%ADD47C,1.852*%
%ADD46C,1.752*%
G54D46*X22050Y34000D03*
Y40650D03*
Y46600D03*
Y53250D03*
G54D47*X12550Y27150D03*
X7650D03*
G54D48*X21850Y24400D03*
G54D49*X22500Y26900D03*
Y28500D03*
Y30050D03*
Y31600D03*
G54D50*X3800Y23800D03*
G54D49*X22500Y42800D03*
Y44450D03*
G54D51*G36*
X19648Y48902D02*Y48398D01*
X21552D01*
Y48902D01*
X19648D01*
G37*
G36*
Y51502D02*Y50998D01*
X21552D01*
Y51502D01*
X19648D01*
G37*
G36*
Y49552D02*Y49048D01*
X21552D01*
Y49552D01*
X19648D01*
G37*
G36*
Y50202D02*Y49698D01*
X21552D01*
Y50202D01*
X19648D01*
G37*
G36*
Y50852D02*Y50348D01*
X21552D01*
Y50852D01*
X19648D01*
G37*
G36*
Y36302D02*Y35798D01*
X21552D01*
Y36302D01*
X19648D01*
G37*
G36*
Y38902D02*Y38398D01*
X21552D01*
Y38902D01*
X19648D01*
G37*
G36*
Y36952D02*Y36448D01*
X21552D01*
Y36952D01*
X19648D01*
G37*
G36*
Y37602D02*Y37098D01*
X21552D01*
Y37602D01*
X19648D01*
G37*
G36*
Y38252D02*Y37748D01*
X21552D01*
Y38252D01*
X19648D01*
G37*
M02*
