G04 start of page 4 for group 2 idx 2 *
G04 Title: (unknown), signal2 *
G04 Creator: pcb 4.2.0 *
G04 CreationDate: Wed Dec  4 15:10:37 2019 UTC *
G04 For: blinken *
G04 Format: Gerber/RS-274X *
G04 PCB-Dimensions (mil): 2755.91 2755.91 *
G04 PCB-Coordinate-Origin: lower left *
%MOIN*%
%FSLAX25Y25*%
%LNGROUP2*%
%ADD45C,0.0394*%
%ADD44C,0.0380*%
%ADD43C,0.0200*%
%ADD42C,0.1142*%
%ADD41C,0.0350*%
%ADD40C,0.0360*%
%ADD39C,0.1969*%
%ADD38C,0.0001*%
%ADD37C,0.0787*%
%ADD36C,0.0669*%
%ADD35C,0.0600*%
G54D35*X83110Y201614D03*
X93110D03*
X103110D03*
X83110Y211614D03*
X93110D03*
X103110D03*
X113110D03*
X123110D03*
X133110D03*
X113110Y201614D03*
X123110D03*
X133110D03*
X143110D03*
G54D36*X137876Y19057D03*
X246144Y80081D03*
G54D37*X130309Y76781D03*
X85033D03*
G54D36*X137876Y267089D03*
X75376Y250342D03*
X76852Y35789D03*
X199884Y34805D03*
G54D35*X53110Y201614D03*
Y211614D03*
X63110Y201614D03*
Y211614D03*
G54D38*G36*
X30110Y204614D02*Y198614D01*
X36110D01*
Y204614D01*
X30110D01*
G37*
G54D35*X33110Y211614D03*
X43110Y201614D03*
Y211614D03*
X73110Y201614D03*
Y211614D03*
X143110D03*
X153110Y201614D03*
X163110D03*
X173110D03*
X153110Y211614D03*
X163110D03*
X173110D03*
X183110D03*
X193110D03*
X203110D03*
X183110Y201614D03*
X193110D03*
X203110D03*
X213110D03*
Y211614D03*
X223110D03*
Y201614D03*
X88110Y114614D03*
X128110Y99114D03*
X49110Y170614D03*
X36600Y92391D03*
X13780Y51181D03*
X55118Y13780D03*
G54D39*X13780D03*
G54D40*X122610Y147114D03*
X129110Y119114D03*
G54D35*X131110Y168114D03*
X122610Y127114D03*
X122835Y137402D03*
X75300Y150591D03*
X167000Y139591D03*
X185000D03*
X167000Y155591D03*
Y94591D03*
X185000D03*
Y109591D03*
Y124591D03*
X167000Y79591D03*
X185000D03*
X27110Y249114D03*
X250110Y249614D03*
X139764Y250000D03*
X191610Y187614D03*
X158610Y168114D03*
X230110Y174614D03*
X187610Y163614D03*
X225197Y159055D03*
G54D40*X72110Y173614D03*
Y180614D03*
G54D35*X100300Y178091D03*
X208661Y267717D03*
X61024D03*
X269685Y204724D03*
G54D39*X242126Y206693D03*
X13780D03*
G54D35*X102110Y61114D03*
X186610D03*
X196850Y13780D03*
G54D40*X246000Y115591D03*
X251000Y119591D03*
G54D35*X227110Y119114D03*
G54D40*X227000Y109591D03*
Y99591D03*
G54D35*X167000Y124591D03*
Y109591D03*
X203000Y79591D03*
X259843Y45276D03*
G54D39*X242126Y13780D03*
G54D41*G54D42*G54D43*G54D41*G54D43*G54D41*G54D42*G54D41*G54D43*G54D41*G54D43*G54D41*G54D42*G54D44*G54D45*G54D44*M02*
