G04 start of page 12 for group -4062 idx -4062 *
G04 Title: (unknown), soldermask *
G04 Creator: pcb 4.2.0 *
G04 CreationDate: Wed Dec  4 15:10:37 2019 UTC *
G04 For: blinken *
G04 Format: Gerber/RS-274X *
G04 PCB-Dimensions (mil): 2755.91 2755.91 *
G04 PCB-Coordinate-Origin: lower left *
%MOIN*%
%FSLAX25Y25*%
%LNBOTTOMMASK*%
%ADD109C,0.2008*%
%ADD108C,0.1988*%
%ADD107C,0.0001*%
%ADD106C,0.0847*%
%ADD105C,0.0729*%
%ADD104C,0.0660*%
G54D104*X83110Y201614D03*
X93110D03*
X103110D03*
X83110Y211614D03*
X93110D03*
X103110D03*
X113110D03*
X123110D03*
X133110D03*
X113110Y201614D03*
X123110D03*
X133110D03*
X143110D03*
G54D105*X137876Y19057D03*
X246144Y80081D03*
G54D106*X130309Y76781D03*
X85033D03*
G54D105*X137876Y267089D03*
X75376Y250342D03*
X76852Y35789D03*
X199884Y34805D03*
G54D104*X53110Y201614D03*
Y211614D03*
X63110Y201614D03*
Y211614D03*
G54D107*G36*
X29810Y204914D02*Y198314D01*
X36410D01*
Y204914D01*
X29810D01*
G37*
G54D104*X33110Y211614D03*
X43110Y201614D03*
Y211614D03*
X73110Y201614D03*
Y211614D03*
X143110D03*
X153110Y201614D03*
X163110D03*
X173110D03*
X153110Y211614D03*
X163110D03*
X173110D03*
X183110D03*
X193110D03*
X203110D03*
X183110Y201614D03*
X193110D03*
X203110D03*
X213110D03*
Y211614D03*
X223110D03*
Y201614D03*
G54D108*X13780Y13780D03*
G54D109*X242126Y206693D03*
X13780D03*
G54D108*X242126Y13780D03*
M02*
