G04 start of page 13 for group -4079 idx -4079 *
G04 Title: (unknown), topsilk *
G04 Creator: pcb 4.2.0 *
G04 CreationDate: Wed Dec  4 15:10:37 2019 UTC *
G04 For: blinken *
G04 Format: Gerber/RS-274X *
G04 PCB-Dimensions (mil): 2755.91 2755.91 *
G04 PCB-Coordinate-Origin: lower left *
%MOIN*%
%FSLAX25Y25*%
%LNTOPSILK*%
%ADD112C,0.0179*%
%ADD111C,0.0080*%
%ADD110C,0.0100*%
G54D110*X73240Y232315D02*Y228315D01*
X72740Y232315D02*X74740D01*
X75240Y231815D01*
Y230815D01*
X74740Y230315D02*X75240Y230815D01*
X73240Y230315D02*X74740D01*
X76440Y231315D02*Y228315D01*
Y231315D02*X77140Y232315D01*
X78240D01*
X78940Y231315D01*
Y228315D01*
X76440Y230315D02*X78940D01*
X80140Y232315D02*X82140D01*
X81140D02*Y228315D01*
X83340Y232315D02*X85340D01*
X85840Y231815D01*
Y230815D01*
X85340Y230315D02*X85840Y230815D01*
X83840Y230315D02*X85340D01*
X83840Y232315D02*Y228315D01*
X84640Y230315D02*X85840Y228315D01*
X87040Y232315D02*X88040D01*
X87540D02*Y228315D01*
X87040D02*X88040D01*
X89940D02*X91240D01*
X89240Y229015D02*X89940Y228315D01*
X89240Y231615D02*Y229015D01*
Y231615D02*X89940Y232315D01*
X91240D01*
X92440D02*Y228315D01*
Y230315D02*X94440Y232315D01*
X92440Y230315D02*X94440Y228315D01*
X98140D02*X99440D01*
X97440Y229015D02*X98140Y228315D01*
X97440Y231615D02*Y229015D01*
Y231615D02*X98140Y232315D01*
X99440D01*
X100640Y231815D02*Y228815D01*
Y231815D02*X101140Y232315D01*
X102140D01*
X102640Y231815D01*
Y228815D01*
X102140Y228315D02*X102640Y228815D01*
X101140Y228315D02*X102140D01*
X100640Y228815D02*X101140Y228315D01*
X103840Y232315D02*Y228315D01*
X105840D01*
X107040Y230515D02*X108540D01*
X107040Y228315D02*X109040D01*
X107040Y232315D02*Y228315D01*
Y232315D02*X109040D01*
X110240D02*Y228315D01*
Y232315D02*X111740Y230315D01*
X113240Y232315D01*
Y228315D01*
X114440Y231315D02*Y228315D01*
Y231315D02*X115140Y232315D01*
X116240D01*
X116940Y231315D01*
Y228315D01*
X114440Y230315D02*X116940D01*
X118140Y232315D02*Y228315D01*
Y232315D02*X120640Y228315D01*
Y232315D02*Y228315D01*
X123640Y231815D02*X124140Y232315D01*
X125640D01*
X126140Y231815D01*
Y230815D01*
X123640Y228315D02*X126140Y230815D01*
X123640Y228315D02*X126140D01*
X127340Y228815D02*X127840Y228315D01*
X127340Y231815D02*Y228815D01*
Y231815D02*X127840Y232315D01*
X128840D01*
X129340Y231815D01*
Y228815D01*
X128840Y228315D02*X129340Y228815D01*
X127840Y228315D02*X128840D01*
X127340Y229315D02*X129340Y231315D01*
X130540Y231815D02*X131040Y232315D01*
X132540D01*
X133040Y231815D01*
Y230815D01*
X130540Y228315D02*X133040Y230815D01*
X130540Y228315D02*X133040D01*
X134240Y228815D02*X134740Y228315D01*
X134240Y231815D02*Y228815D01*
Y231815D02*X134740Y232315D01*
X135740D01*
X136240Y231815D01*
Y228815D01*
X135740Y228315D02*X136240Y228815D01*
X134740Y228315D02*X135740D01*
X134240Y229315D02*X136240Y231315D01*
X145575Y231346D02*Y228346D01*
Y231346D02*X146275Y232346D01*
X147375D01*
X148075Y231346D01*
Y228346D01*
X145575Y230346D02*X148075D01*
X149775Y232346D02*Y228346D01*
X151075Y232346D02*X151775Y231646D01*
Y229046D01*
X151075Y228346D02*X151775Y229046D01*
X149275Y228346D02*X151075D01*
X149275Y232346D02*X151075D01*
X154975D02*X155475Y231846D01*
X153475Y232346D02*X154975D01*
X152975Y231846D02*X153475Y232346D01*
X152975Y231846D02*Y230846D01*
X153475Y230346D01*
X154975D01*
X155475Y229846D01*
Y228846D01*
X154975Y228346D02*X155475Y228846D01*
X153475Y228346D02*X154975D01*
X152975Y228846D02*X153475Y228346D01*
X156675Y230346D02*X158675D01*
X159875Y228346D02*X161875D01*
X162375Y228846D01*
Y230046D02*Y228846D01*
X161875Y230546D02*X162375Y230046D01*
X160375Y230546D02*X161875D01*
X160375Y232346D02*Y228346D01*
X159875Y232346D02*X161875D01*
X162375Y231846D01*
Y231046D01*
X161875Y230546D02*X162375Y231046D01*
X165375Y232346D02*X166375D01*
X165875D02*Y228346D01*
X165375D02*X166375D01*
X167575Y232346D02*Y228346D01*
Y232346D02*X170075Y228346D01*
Y232346D02*Y228346D01*
X171775Y232346D02*Y228346D01*
X173075Y232346D02*X173775Y231646D01*
Y229046D01*
X173075Y228346D02*X173775Y229046D01*
X171275Y228346D02*X173075D01*
X171275Y232346D02*X173075D01*
X174975D02*X175975D01*
X175475D02*Y228346D01*
X174975D02*X175975D01*
X177875D02*X179175D01*
X177175Y229046D02*X177875Y228346D01*
X177175Y231646D02*Y229046D01*
Y231646D02*X177875Y232346D01*
X179175D01*
X180375Y231346D02*Y228346D01*
Y231346D02*X181075Y232346D01*
X182175D01*
X182875Y231346D01*
Y228346D01*
X180375Y230346D02*X182875D01*
X184075Y232346D02*X186075D01*
X185075D02*Y228346D01*
X187275Y231846D02*Y228846D01*
Y231846D02*X187775Y232346D01*
X188775D01*
X189275Y231846D01*
Y228846D01*
X188775Y228346D02*X189275Y228846D01*
X187775Y228346D02*X188775D01*
X187275Y228846D02*X187775Y228346D01*
X190475Y232346D02*X192475D01*
X192975Y231846D01*
Y230846D01*
X192475Y230346D02*X192975Y230846D01*
X190975Y230346D02*X192475D01*
X190975Y232346D02*Y228346D01*
X191775Y230346D02*X192975Y228346D01*
X195975Y230346D02*X196975Y228346D01*
X197975Y230346D02*X196975Y228346D01*
X199175Y231546D02*X199975Y232346D01*
Y228346D01*
X199175D02*X200675D01*
G54D111*X188898Y170866D02*X193622D01*
X188898Y178346D02*X193622D01*
X159567Y65000D02*X164291D01*
X159567Y57520D02*X164291D01*
G54D112*X138860Y15120D02*G75*G03X266813Y143073I0J127953D01*G01*
Y143073D02*G75*G03X138860Y271026I-127953J0D01*G01*
X138860D02*G75*G03X10907Y143073I0J-127953D01*G01*
Y143073D02*G75*G03X138860Y15120I127953J0D01*G01*
G54D110*X56142Y162008D02*X106535D01*
X56142D02*Y101378D01*
X106535D01*
Y162008D02*Y101378D01*
X146990Y152813D02*X209982D01*
Y89821D01*
X146990D01*
Y152813D01*
X140100Y159703D02*Y82931D01*
X216872D01*
Y159703D01*
X140100D01*
X85033Y98435D02*X128341D01*
Y55128D01*
X85033D01*
Y98435D01*
X28110Y196614D02*X228110D01*
Y216614D02*Y196614D01*
X28110Y216614D02*X228110D01*
X28110D02*Y196614D01*
X38110Y206614D02*Y196614D01*
X28110Y206614D02*X38110D01*
G54D111*X213110Y170866D02*X217834D01*
X213110Y178346D02*X217834D01*
G54D110*X168268Y59512D02*X170268D01*
X170768Y59012D01*
Y58012D01*
X170268Y57512D02*X170768Y58012D01*
X168768Y57512D02*X170268D01*
X168768Y59512D02*Y55512D01*
X169568Y57512D02*X170768Y55512D01*
X171968Y58712D02*X172768Y59512D01*
Y55512D01*
X171968D02*X173468D01*
X28110Y195614D02*Y192114D01*
X28610Y191614D01*
X29610D01*
X30110Y192114D01*
Y195614D02*Y192114D01*
X31310Y194814D02*X32110Y195614D01*
Y191614D01*
X31310D02*X32810D01*
X138876Y19557D02*X142876D01*
X138876Y21057D02*Y19057D01*
Y21057D02*X139376Y21557D01*
X140376D01*
X140876Y21057D02*X140376Y21557D01*
X140876Y21057D02*Y19557D01*
X138876Y23757D02*Y22757D01*
Y23257D02*X142876D01*
Y23757D02*Y22757D01*
Y24957D02*X138876Y27457D01*
Y24957D02*X142876Y27457D01*
X140676Y30157D02*Y28657D01*
X142876Y30657D02*Y28657D01*
X138876D02*X142876D01*
X138876Y30657D02*Y28657D01*
Y31857D02*X142876D01*
Y33857D02*Y31857D01*
X139676Y35057D02*X138876Y35857D01*
X142876D01*
Y36557D02*Y35057D01*
X101535Y161308D02*Y160008D01*
X102235Y162008D02*X101535Y161308D01*
X102235Y162008D02*X104835D01*
X105535Y161308D01*
Y160008D01*
X102035Y158808D02*X105035D01*
X105535Y158308D01*
Y157308D01*
X105035Y156808D01*
X102035D02*X105035D01*
X101535Y157308D02*X102035Y156808D01*
X101535Y158308D02*Y157308D01*
X102035Y158808D02*X101535Y158308D01*
Y155608D02*X105535D01*
X103535Y154108D01*
X105535Y152608D01*
X101535D02*X105535D01*
X101535Y150908D02*X105535D01*
Y151408D02*Y149408D01*
X105035Y148908D01*
X104035D02*X105035D01*
X103535Y149408D02*X104035Y148908D01*
X103535Y150908D02*Y149408D01*
X101535Y147708D02*X104535D01*
X105535Y147008D01*
Y145908D01*
X104535Y145208D01*
X101535D02*X104535D01*
X103535Y147708D02*Y145208D01*
X105535Y142008D02*X105035Y141508D01*
X105535Y143508D02*Y142008D01*
X105035Y144008D02*X105535Y143508D01*
X104035Y144008D02*X105035D01*
X104035D02*X103535Y143508D01*
Y142008D01*
X103035Y141508D01*
X102035D02*X103035D01*
X101535Y142008D02*X102035Y141508D01*
X101535Y143508D02*Y142008D01*
X102035Y144008D02*X101535Y143508D01*
X105535Y138308D02*X105035Y137808D01*
X105535Y139808D02*Y138308D01*
X105035Y140308D02*X105535Y139808D01*
X104035Y140308D02*X105035D01*
X104035D02*X103535Y139808D01*
Y138308D01*
X103035Y137808D01*
X102035D02*X103035D01*
X101535Y138308D02*X102035Y137808D01*
X101535Y139808D02*Y138308D01*
X102035Y140308D02*X101535Y139808D01*
X104735Y136608D02*X105535Y135808D01*
X101535D02*X105535D01*
X101535Y136608D02*Y135108D01*
X142100Y158703D02*X142600Y158203D01*
X140600Y158703D02*X142100D01*
X140100Y158203D02*X140600Y158703D01*
X140100Y158203D02*Y155203D01*
X140600Y154703D01*
X142100D01*
X142600Y155203D01*
Y156203D02*Y155203D01*
X142100Y156703D02*X142600Y156203D01*
X141100Y156703D02*X142100D01*
X144300Y158703D02*Y154703D01*
X143800Y158703D02*X145800D01*
X146300Y158203D01*
Y157203D01*
X145800Y156703D02*X146300Y157203D01*
X144300Y156703D02*X145800D01*
X149500Y158703D02*X150000Y158203D01*
X148000Y158703D02*X149500D01*
X147500Y158203D02*X148000Y158703D01*
X147500Y158203D02*Y157203D01*
X148000Y156703D01*
X149500D01*
X150000Y156203D01*
Y155203D01*
X149500Y154703D02*X150000Y155203D01*
X148000Y154703D02*X149500D01*
X147500Y155203D02*X148000Y154703D01*
X151200Y157903D02*X152000Y158703D01*
Y154703D01*
X151200D02*X152700D01*
X85733Y93435D02*X87033D01*
X85033Y94135D02*X85733Y93435D01*
X85033Y96735D02*Y94135D01*
Y96735D02*X85733Y97435D01*
X87033D01*
X88233Y96935D02*X88733Y97435D01*
X89733D01*
X90233Y96935D01*
X89733Y93435D02*X90233Y93935D01*
X88733Y93435D02*X89733D01*
X88233Y93935D02*X88733Y93435D01*
Y95635D02*X89733D01*
X90233Y96935D02*Y96135D01*
Y95135D02*Y93935D01*
Y95135D02*X89733Y95635D01*
X90233Y96135D02*X89733Y95635D01*
X186819Y185512D02*X188119D01*
X188819Y184812D02*X188119Y185512D01*
X188819Y184812D02*Y182212D01*
X188119Y181512D01*
X186819D02*X188119D01*
X185619Y182312D02*X184819Y181512D01*
Y185512D02*Y181512D01*
X184119Y185512D02*X185619D01*
X220953Y183661D02*X222253D01*
X222953Y182961D02*X222253Y183661D01*
X222953Y182961D02*Y180361D01*
X222253Y179661D01*
X220953D02*X222253D01*
X219753Y180161D02*X219253Y179661D01*
X217753D02*X219253D01*
X217753D02*X217253Y180161D01*
Y181161D02*Y180161D01*
X219753Y183661D02*X217253Y181161D01*
Y183661D02*X219753D01*
M02*
