M48
INCH
T97C0.020
T96C0.114
T95C0.035
T94C0.039
T93C0.038
%
T97
X007211Y018061
X007211Y017361
X012261Y014711
X012911Y011911
X022700Y010959
X022700Y009959
X024600Y011559
X025100Y011959
T95
X001378Y005118
X002711Y024911
X003660Y009239
X004911Y017061
X005512Y001378
X006102Y026772
X007530Y015059
X008811Y011461
X010030Y017809
X010211Y006111
X012261Y012711
X012283Y013740
X012811Y009911
X013111Y016811
X013976Y025000
X015861Y016811
X016700Y015559
X016700Y013959
X016700Y012459
X016700Y010959
X016700Y009459
X016700Y007959
X018500Y013959
X018500Y012459
X018500Y010959
X018500Y009459
X018500Y007959
X018661Y006111
X018761Y016361
X019161Y018761
X019685Y001378
X020300Y007959
X020866Y026772
X022520Y015906
X022711Y011911
X023011Y017461
X025011Y024961
X025984Y004528
X026969Y020472
T93
X003311Y021161
X003311Y020161
X004311Y021161
X004311Y020161
X005311Y021161
X005311Y020161
X006311Y021161
X006311Y020161
X007311Y021161
X007311Y020161
X008311Y021161
X008311Y020161
X009311Y021161
X009311Y020161
X010311Y021161
X010311Y020161
X011311Y021161
X011311Y020161
X012311Y021161
X012311Y020161
X013311Y021161
X013311Y020161
X014311Y021161
X014311Y020161
X015311Y021161
X015311Y020161
X016311Y021161
X016311Y020161
X017311Y021161
X017311Y020161
X018311Y021161
X018311Y020161
X019311Y021161
X019311Y020161
X020311Y021161
X020311Y020161
X021311Y021161
X021311Y020161
X022311Y021161
X022311Y020161
T94
X007538Y025034
X007685Y003579
X008503Y007678
X013031Y007678
X013788Y026709
X013788Y001906
X019988Y003481
X024614Y008008
T96
X001378Y020669
X001378Y001378
X024213Y020669
X024213Y001378
M30
