G04 start of page 3 for group 5 idx 5 *
G04 Title: (unknown), bottom *
G04 Creator: pcb 4.2.0 *
G04 CreationDate: Fri Jan  3 20:58:43 2020 UTC *
G04 For: blinken *
G04 Format: Gerber/RS-274X *
G04 PCB-Dimensions (mil): 3149.61 3149.61 *
G04 PCB-Coordinate-Origin: lower left *
%MOIN*%
%FSLAX25Y25*%
%LNBOTTOM*%
%ADD38C,0.0394*%
%ADD37C,0.0380*%
%ADD36C,0.1142*%
%ADD35C,0.0350*%
%ADD34C,0.0200*%
%ADD33C,0.1869*%
%ADD32C,0.1969*%
%ADD31C,0.0360*%
%ADD30C,0.0787*%
%ADD29C,0.0600*%
%ADD28C,0.0250*%
%ADD27C,0.0100*%
%ADD26C,0.0400*%
%ADD25C,0.0001*%
G54D25*G36*
X24100Y226464D02*Y222861D01*
X22200D01*
Y229761D01*
X24100D01*
Y226464D01*
G37*
G36*
X29500Y216861D02*X37900D01*
Y215061D01*
X29500D01*
Y216861D01*
G37*
G36*
X42600Y224466D02*Y230361D01*
X44700D01*
Y229446D01*
X44654Y229407D01*
X44563Y229299D01*
X44374Y229087D01*
X44189Y228785D01*
X44054Y228458D01*
X43971Y228114D01*
X43943Y227761D01*
X43971Y227408D01*
X44000Y227286D01*
Y222661D01*
X42600D01*
Y224466D01*
G37*
G36*
X34379Y235661D02*X29100D01*
Y237361D01*
X37800D01*
Y235661D01*
X34379D01*
G37*
G36*
X254529Y130509D02*X254634Y130633D01*
X254865Y131008D01*
X255033Y131416D01*
X255136Y131844D01*
X255143Y131960D01*
X255162Y132283D01*
X255136Y132723D01*
X255033Y133151D01*
X254865Y133559D01*
X254634Y133934D01*
X254529Y134058D01*
Y136910D01*
X256500Y134939D01*
Y129094D01*
X254529Y127123D01*
Y130509D01*
G37*
G36*
X258196Y293307D02*X276378D01*
X284252Y292913D01*
X289370Y290157D01*
X292913Y284252D01*
X293307Y277559D01*
Y221654D01*
X299213Y209055D01*
X302756Y197638D01*
X306299Y179528D01*
X307874Y168504D01*
X308268Y157087D01*
X307874Y146850D01*
X306299Y131890D01*
X303937Y121260D01*
X300787Y109843D01*
X293307Y92913D01*
Y38189D01*
X293701Y33071D01*
X292126Y27559D01*
X288976Y24409D01*
X284252Y21654D01*
X258196D01*
Y90634D01*
X263263Y98665D01*
X267795Y107279D01*
X270963Y114651D01*
X270963D01*
X271638Y116222D01*
X271780Y116687D01*
X271844Y117169D01*
X271841Y117290D01*
X271864Y117400D01*
X272564Y121900D01*
X272609Y122369D01*
X272571Y122840D01*
X272459Y123298D01*
X272277Y123734D01*
X272030Y124136D01*
X271722Y124494D01*
X271362Y124800D01*
X270959Y125046D01*
X270522Y125225D01*
X270063Y125334D01*
X269592Y125370D01*
X269121Y125332D01*
X268662Y125220D01*
X268226Y125038D01*
X267824Y124790D01*
X267466Y124483D01*
X267161Y124123D01*
X266915Y123719D01*
X266735Y123283D01*
X266636Y122822D01*
X266002Y118748D01*
X265862Y118439D01*
X262294Y109903D01*
X258196Y102115D01*
Y126547D01*
X259019Y127370D01*
X259064Y127409D01*
X259217Y127588D01*
X259217Y127588D01*
X259341Y127789D01*
X259431Y128007D01*
X259486Y128237D01*
X259505Y128472D01*
X259500Y128531D01*
Y135502D01*
X259505Y135561D01*
X259486Y135796D01*
X259431Y136026D01*
X259341Y136244D01*
X259217Y136445D01*
X259064Y136625D01*
X259019Y136663D01*
X258196Y137486D01*
Y151350D01*
X258214Y151575D01*
X258206Y151664D01*
X258196D01*
Y239520D01*
X270718D01*
X270866Y239511D01*
X270882Y239510D01*
X271668Y239485D01*
X272465Y239380D01*
X273248Y239206D01*
X274014Y238965D01*
X274756Y238657D01*
X275469Y238286D01*
X276146Y237855D01*
X276783Y237366D01*
X277375Y236824D01*
X277917Y236232D01*
X278406Y235595D01*
X278838Y234917D01*
X279208Y234205D01*
X279438Y233651D01*
X279516Y233463D01*
X279757Y232697D01*
X279931Y231913D01*
X280036Y231117D01*
X280071Y230315D01*
X280082Y230118D01*
X280071Y229921D01*
Y222047D01*
X280076Y221956D01*
X280062Y221708D01*
X280058Y221654D01*
X280021Y220508D01*
X279871Y219372D01*
X279623Y218252D01*
X279278Y217159D01*
X278840Y216100D01*
X278310Y215083D01*
X277694Y214116D01*
X276996Y213206D01*
X276222Y212361D01*
X275376Y211586D01*
X274467Y210888D01*
X273500Y210272D01*
X272483Y209743D01*
X271424Y209304D01*
X270330Y208960D01*
X269211Y208711D01*
X268075Y208562D01*
X267142Y208521D01*
X267142D01*
X266929Y208512D01*
X266458Y208484D01*
X265999Y208374D01*
X265563Y208193D01*
X265160Y207946D01*
X264801Y207640D01*
X264495Y207281D01*
X264248Y206878D01*
X264067Y206442D01*
X263957Y205983D01*
X263920Y205512D01*
X263957Y205041D01*
X264067Y204582D01*
X264248Y204146D01*
X264495Y203743D01*
X264801Y203384D01*
X265160Y203077D01*
X265563Y202831D01*
X265999Y202650D01*
X266458Y202540D01*
X266929Y202512D01*
X268599Y202566D01*
X270256Y202785D01*
X271888Y203146D01*
X273482Y203649D01*
X275026Y204289D01*
X276509Y205061D01*
X277919Y205959D01*
X278994Y206784D01*
X279245Y206976D01*
X280477Y208105D01*
X281607Y209338D01*
X282624Y210664D01*
X283522Y212074D01*
X284294Y213556D01*
X284934Y215100D01*
X285436Y216695D01*
X285798Y218326D01*
X285995Y219825D01*
X286016Y219984D01*
X286080Y221449D01*
X286089Y221654D01*
X286066Y221972D01*
X286071Y222047D01*
Y229921D01*
X286059Y230118D01*
X286071Y230315D01*
X286027Y231641D01*
X285854Y232958D01*
X285567Y234254D01*
X285168Y235520D01*
X284659Y236747D01*
X284046Y237925D01*
X283333Y239044D01*
X282525Y240098D01*
X281628Y241077D01*
X280649Y241974D01*
X279596Y242782D01*
X279438Y242882D01*
X278476Y243495D01*
X277298Y244108D01*
X276071Y244616D01*
X274805Y245016D01*
X273509Y245303D01*
X272193Y245476D01*
X270866Y245534D01*
X270793Y245529D01*
X270663Y245520D01*
X258196D01*
Y293307D01*
G37*
G36*
Y137486D02*X256700Y138982D01*
Y161996D01*
X256851Y162088D01*
X257186Y162375D01*
X257472Y162710D01*
X257703Y163086D01*
X257871Y163493D01*
X257974Y163921D01*
X258000Y164361D01*
X257974Y164800D01*
X257871Y165229D01*
X257703Y165636D01*
X257472Y166012D01*
X257186Y166347D01*
X256851Y166633D01*
X256475Y166863D01*
X256068Y167032D01*
X255639Y167135D01*
X255200Y167169D01*
X254761Y167135D01*
X254529Y167079D01*
Y239520D01*
X258196D01*
Y151664D01*
X258178D01*
Y151125D01*
X258196Y151350D01*
Y137486D01*
G37*
G36*
Y102115D02*X257984Y101713D01*
X254529Y96236D01*
Y121060D01*
X254634Y121184D01*
X254865Y121560D01*
X255033Y121967D01*
X255136Y122395D01*
X255162Y122835D01*
X255136Y123274D01*
X255095Y123446D01*
X258196Y126547D01*
Y102115D01*
G37*
G36*
Y21654D02*X254529D01*
Y85692D01*
X258069Y90433D01*
X258196Y90634D01*
Y21654D01*
G37*
G36*
X254529Y293307D02*X258196D01*
Y245520D01*
X254529D01*
Y293307D01*
G37*
G36*
Y134058D02*X254348Y134269D01*
X254013Y134556D01*
X253637Y134786D01*
X253230Y134955D01*
X253220Y134957D01*
X252802Y135058D01*
X252362Y135092D01*
X251923Y135058D01*
X251751Y135016D01*
X248500Y138267D01*
Y161996D01*
X248651Y162088D01*
X248986Y162375D01*
X249272Y162710D01*
X249503Y163086D01*
X249671Y163493D01*
X249774Y163921D01*
X249800Y164361D01*
X249774Y164800D01*
X249671Y165229D01*
X249503Y165636D01*
X249272Y166012D01*
X248986Y166347D01*
X248651Y166633D01*
X248275Y166863D01*
X247868Y167032D01*
X247439Y167135D01*
X247000Y167169D01*
X246561Y167135D01*
X246408Y167098D01*
Y219152D01*
X246451Y219159D01*
X246563Y219197D01*
X246668Y219251D01*
X246763Y219321D01*
X246846Y219405D01*
X246915Y219501D01*
X246965Y219608D01*
X247114Y220015D01*
X247217Y220436D01*
X247280Y220866D01*
X247300Y221299D01*
X247280Y221733D01*
X247217Y222162D01*
X247114Y222583D01*
X246970Y222993D01*
X246918Y223099D01*
X246848Y223196D01*
X246765Y223280D01*
X246670Y223350D01*
X246565Y223405D01*
X246452Y223443D01*
X246408Y223450D01*
Y228601D01*
X246447Y228646D01*
X246817Y229250D01*
X247088Y229904D01*
X247254Y230593D01*
X247295Y231299D01*
X247254Y232005D01*
X247088Y232694D01*
X246817Y233348D01*
X246447Y233952D01*
X246408Y233998D01*
Y239520D01*
X254529D01*
Y167079D01*
X254332Y167032D01*
X253925Y166863D01*
X253549Y166633D01*
X253214Y166347D01*
X252928Y166012D01*
X252697Y165636D01*
X252529Y165229D01*
X252426Y164800D01*
X252391Y164361D01*
X252426Y163921D01*
X252529Y163493D01*
X252697Y163086D01*
X252928Y162710D01*
X253214Y162375D01*
X253549Y162088D01*
X253700Y161996D01*
Y138419D01*
X253695Y138361D01*
X253714Y138125D01*
X253769Y137896D01*
X253859Y137678D01*
X253983Y137476D01*
X254136Y137297D01*
X254181Y137258D01*
X254529Y136910D01*
Y134058D01*
G37*
G36*
Y96236D02*X253046Y93886D01*
X247509Y86470D01*
X246408Y85216D01*
Y136116D01*
X249629Y132895D01*
X249588Y132723D01*
X249554Y132283D01*
X249588Y131844D01*
X249691Y131416D01*
X249860Y131008D01*
X250090Y130633D01*
X250376Y130297D01*
X250711Y130011D01*
X250858Y129922D01*
X251087Y129781D01*
X251494Y129612D01*
X251923Y129509D01*
X252362Y129475D01*
X252802Y129509D01*
X253230Y129612D01*
X253637Y129781D01*
X254013Y130011D01*
X254348Y130297D01*
X254529Y130509D01*
Y127123D01*
X252974Y125567D01*
X252802Y125609D01*
X252362Y125643D01*
X251923Y125609D01*
X251494Y125506D01*
X251087Y125337D01*
X250858Y125196D01*
X250711Y125107D01*
X250376Y124821D01*
X250090Y124486D01*
X249860Y124110D01*
X249691Y123703D01*
X249588Y123274D01*
X249554Y122835D01*
X249588Y122395D01*
X249691Y121967D01*
X249860Y121560D01*
X250090Y121184D01*
X250376Y120849D01*
X250711Y120562D01*
X250990Y120391D01*
X251087Y120332D01*
X251494Y120163D01*
X251923Y120061D01*
X252362Y120026D01*
X252802Y120061D01*
X253230Y120163D01*
X253637Y120332D01*
X253734Y120391D01*
X254013Y120562D01*
X254348Y120849D01*
X254529Y121060D01*
Y96236D01*
G37*
G36*
Y21654D02*X246408D01*
Y75978D01*
X252246Y82634D01*
X254529Y85692D01*
Y21654D01*
G37*
G36*
X246408Y293307D02*X254529D01*
Y245520D01*
X246408D01*
Y293307D01*
G37*
G36*
Y233998D02*X245987Y234491D01*
X245448Y234951D01*
X244845Y235321D01*
X244190Y235592D01*
X243501Y235758D01*
X242797Y235813D01*
Y239520D01*
X246408D01*
Y233998D01*
G37*
G36*
Y85216D02*X242797Y81098D01*
Y216794D01*
X243229Y216815D01*
X243658Y216877D01*
X244079Y216981D01*
X244489Y217124D01*
X244595Y217177D01*
X244692Y217246D01*
X244776Y217329D01*
X244847Y217425D01*
X244901Y217530D01*
X244939Y217642D01*
X244958Y217759D01*
X244959Y217878D01*
X244941Y217995D01*
X244905Y218108D01*
X244852Y218214D01*
X244783Y218311D01*
X244700Y218395D01*
X244605Y218466D01*
X244499Y218520D01*
X244387Y218558D01*
X244270Y218577D01*
X244151Y218578D01*
X244034Y218560D01*
X243922Y218522D01*
X243650Y218424D01*
X243370Y218355D01*
X243084Y218313D01*
X242797Y218299D01*
Y224299D01*
X243084Y224285D01*
X243370Y224244D01*
X243650Y224175D01*
X243923Y224079D01*
X244035Y224041D01*
X244151Y224024D01*
X244270Y224025D01*
X244386Y224044D01*
X244498Y224081D01*
X244603Y224136D01*
X244698Y224206D01*
X244781Y224290D01*
X244849Y224386D01*
X244902Y224491D01*
X244938Y224604D01*
X244955Y224721D01*
X244955Y224839D01*
X244935Y224955D01*
X244898Y225067D01*
X244844Y225172D01*
X244773Y225267D01*
X244689Y225350D01*
X244593Y225418D01*
X244487Y225469D01*
X244079Y225618D01*
X243658Y225721D01*
X243229Y225784D01*
X242797Y225804D01*
Y226785D01*
X243501Y226841D01*
X244190Y227006D01*
X244845Y227277D01*
X245448Y227647D01*
X245987Y228107D01*
X246408Y228601D01*
Y223450D01*
X246335Y223462D01*
X246216Y223463D01*
X246099Y223445D01*
X245986Y223409D01*
X245880Y223356D01*
X245784Y223287D01*
X245699Y223204D01*
X245629Y223109D01*
X245574Y223003D01*
X245537Y222891D01*
X245517Y222774D01*
X245516Y222655D01*
X245534Y222538D01*
X245572Y222426D01*
X245671Y222154D01*
X245740Y221874D01*
X245781Y221588D01*
X245795Y221299D01*
X245781Y221011D01*
X245740Y220725D01*
X245671Y220444D01*
X245575Y220171D01*
X245537Y220060D01*
X245520Y219943D01*
X245521Y219825D01*
X245540Y219709D01*
X245577Y219597D01*
X245632Y219492D01*
X245702Y219397D01*
X245786Y219314D01*
X245882Y219245D01*
X245987Y219192D01*
X246100Y219157D01*
X246217Y219139D01*
X246335Y219140D01*
X246408Y219152D01*
Y167098D01*
X246132Y167032D01*
X245725Y166863D01*
X245349Y166633D01*
X245014Y166347D01*
X244728Y166012D01*
X244497Y165636D01*
X244329Y165229D01*
X244226Y164800D01*
X244191Y164361D01*
X244226Y163921D01*
X244329Y163493D01*
X244497Y163086D01*
X244728Y162710D01*
X245014Y162375D01*
X245349Y162088D01*
X245500Y161996D01*
Y137704D01*
X245495Y137646D01*
X245514Y137410D01*
X245569Y137181D01*
X245659Y136963D01*
X245783Y136761D01*
X245936Y136582D01*
X245981Y136543D01*
X246408Y136116D01*
Y85216D01*
G37*
G36*
Y21654D02*X242797D01*
Y72364D01*
X245828Y75316D01*
X246408Y75978D01*
Y21654D01*
G37*
G36*
X242797Y293307D02*X246408D01*
Y245520D01*
X242797D01*
Y293307D01*
G37*
G36*
X239182Y239769D02*X239451Y239658D01*
X239822Y239569D01*
X239910Y239547D01*
X239910D01*
X240381Y239510D01*
X240499Y239520D01*
X242797D01*
Y235813D01*
X242795Y235813D01*
X242089Y235758D01*
X241400Y235592D01*
X240746Y235321D01*
X240142Y234951D01*
X239603Y234491D01*
X239182Y233998D01*
Y239769D01*
G37*
G36*
X242797Y81098D02*X241406Y79512D01*
X239182Y77345D01*
Y219149D01*
X239256Y219136D01*
X239374Y219136D01*
X239491Y219153D01*
X239604Y219189D01*
X239711Y219242D01*
X239807Y219311D01*
X239891Y219394D01*
X239962Y219490D01*
X240016Y219595D01*
X240054Y219708D01*
X240073Y219825D01*
X240074Y219943D01*
X240057Y220061D01*
X240019Y220173D01*
X239920Y220444D01*
X239851Y220725D01*
X239809Y221011D01*
X239795Y221299D01*
X239809Y221588D01*
X239851Y221874D01*
X239920Y222154D01*
X240015Y222427D01*
X240053Y222539D01*
X240071Y222655D01*
X240070Y222773D01*
X240051Y222890D01*
X240013Y223002D01*
X239959Y223107D01*
X239889Y223202D01*
X239805Y223285D01*
X239709Y223353D01*
X239603Y223406D01*
X239491Y223442D01*
X239374Y223459D01*
X239256Y223458D01*
X239182Y223446D01*
Y228601D01*
X239603Y228107D01*
X240142Y227647D01*
X240746Y227277D01*
X241400Y227006D01*
X242089Y226841D01*
X242795Y226785D01*
X242797Y226785D01*
Y225804D01*
X242795Y225804D01*
X242362Y225784D01*
X241932Y225721D01*
X241511Y225618D01*
X241102Y225474D01*
X240995Y225421D01*
X240899Y225352D01*
X240814Y225269D01*
X240744Y225174D01*
X240689Y225068D01*
X240652Y224956D01*
X240633Y224839D01*
X240632Y224720D01*
X240649Y224603D01*
X240685Y224490D01*
X240738Y224384D01*
X240807Y224288D01*
X240891Y224203D01*
X240986Y224133D01*
X241091Y224078D01*
X241204Y224041D01*
X241321Y224021D01*
X241439Y224020D01*
X241557Y224038D01*
X241669Y224076D01*
X241940Y224175D01*
X242221Y224244D01*
X242507Y224285D01*
X242795Y224299D01*
X242797Y224299D01*
Y218299D01*
X242795Y218299D01*
X242507Y218313D01*
X242221Y218355D01*
X241940Y218424D01*
X241667Y218519D01*
X241556Y218557D01*
X241439Y218575D01*
X241321Y218574D01*
X241205Y218554D01*
X241093Y218517D01*
X240988Y218463D01*
X240893Y218393D01*
X240810Y218309D01*
X240741Y218213D01*
X240688Y218107D01*
X240653Y217995D01*
X240635Y217878D01*
X240636Y217760D01*
X240655Y217643D01*
X240693Y217531D01*
X240747Y217427D01*
X240817Y217332D01*
X240901Y217249D01*
X240997Y217180D01*
X241104Y217129D01*
X241511Y216981D01*
X241932Y216877D01*
X242362Y216815D01*
X242795Y216794D01*
X242797Y216794D01*
Y81098D01*
G37*
G36*
X239182Y77345D02*X234777Y73054D01*
X234697Y72988D01*
X234677Y73008D01*
X234542Y73090D01*
X234397Y73150D01*
X234244Y73187D01*
X234087Y73199D01*
X233930Y73187D01*
X233777Y73150D01*
X233632Y73090D01*
X233497Y73008D01*
X233380Y72903D01*
X232788Y72310D01*
Y216786D01*
X232795Y216785D01*
X233501Y216841D01*
X234190Y217006D01*
X234845Y217277D01*
X235448Y217647D01*
X235987Y218107D01*
X236447Y218646D01*
X236817Y219250D01*
X237088Y219904D01*
X237254Y220593D01*
X237295Y221299D01*
X237254Y222005D01*
X237088Y222694D01*
X236817Y223348D01*
X236447Y223952D01*
X235987Y224491D01*
X235448Y224951D01*
X234845Y225321D01*
X234190Y225592D01*
X233501Y225758D01*
X232795Y225813D01*
X232788Y225813D01*
Y226786D01*
X232795Y226785D01*
X233501Y226841D01*
X234190Y227006D01*
X234845Y227277D01*
X235448Y227647D01*
X235987Y228107D01*
X236447Y228646D01*
X236817Y229250D01*
X237088Y229904D01*
X237254Y230593D01*
X237295Y231299D01*
X237254Y232005D01*
X237088Y232694D01*
X236817Y233348D01*
X236447Y233952D01*
X235987Y234491D01*
X235448Y234951D01*
X234845Y235321D01*
X234190Y235592D01*
X233501Y235758D01*
X232795Y235813D01*
X232788Y235813D01*
Y245870D01*
X238177Y240481D01*
X238253Y240392D01*
X238612Y240085D01*
X238612Y240085D01*
X239015Y239838D01*
X239182Y239769D01*
Y233998D01*
X239143Y233952D01*
X238773Y233348D01*
X238502Y232694D01*
X238337Y232005D01*
X238281Y231299D01*
X238337Y230593D01*
X238502Y229904D01*
X238773Y229250D01*
X239143Y228646D01*
X239182Y228601D01*
Y223446D01*
X239139Y223439D01*
X239027Y223402D01*
X238923Y223348D01*
X238828Y223277D01*
X238745Y223193D01*
X238676Y223097D01*
X238625Y222991D01*
X238477Y222583D01*
X238373Y222162D01*
X238311Y221733D01*
X238290Y221299D01*
X238311Y220866D01*
X238373Y220436D01*
X238477Y220015D01*
X238621Y219606D01*
X238673Y219499D01*
X238742Y219403D01*
X238825Y219318D01*
X238921Y219248D01*
X239026Y219193D01*
X239139Y219156D01*
X239182Y219149D01*
Y77345D01*
G37*
G36*
X232788Y72310D02*X227986Y67497D01*
X227904Y67363D01*
X227889Y67325D01*
X227662Y67136D01*
X222788Y63692D01*
Y71513D01*
X223476Y70828D01*
X223610Y70746D01*
X223756Y70685D01*
X223909Y70649D01*
X224066Y70636D01*
X224223Y70649D01*
X224376Y70685D01*
X224521Y70746D01*
X224655Y70828D01*
X224773Y70932D01*
X230166Y76339D01*
X230249Y76473D01*
X230309Y76619D01*
X230346Y76772D01*
X230358Y76929D01*
X230346Y77085D01*
X230309Y77238D01*
X230249Y77384D01*
X230166Y77518D01*
X230062Y77636D01*
X226325Y81359D01*
X226191Y81441D01*
X226046Y81501D01*
X225893Y81538D01*
X225736Y81551D01*
X225579Y81538D01*
X225426Y81501D01*
X225280Y81441D01*
X225146Y81359D01*
X225029Y81255D01*
X222788Y79009D01*
Y216786D01*
X222795Y216785D01*
X223501Y216841D01*
X224190Y217006D01*
X224845Y217277D01*
X225448Y217647D01*
X225987Y218107D01*
X226447Y218646D01*
X226817Y219250D01*
X227088Y219904D01*
X227254Y220593D01*
X227295Y221299D01*
X227254Y222005D01*
X227088Y222694D01*
X226817Y223348D01*
X226447Y223952D01*
X225987Y224491D01*
X225448Y224951D01*
X224845Y225321D01*
X224190Y225592D01*
X223501Y225758D01*
X222795Y225813D01*
X222788Y225813D01*
Y226786D01*
X222795Y226785D01*
X223501Y226841D01*
X224190Y227006D01*
X224845Y227277D01*
X225448Y227647D01*
X225987Y228107D01*
X226447Y228646D01*
X226817Y229250D01*
X227088Y229904D01*
X227254Y230593D01*
X227295Y231299D01*
X227254Y232005D01*
X227088Y232694D01*
X226817Y233348D01*
X226447Y233952D01*
X225987Y234491D01*
X225448Y234951D01*
X224845Y235321D01*
X224190Y235592D01*
X223501Y235758D01*
X222795Y235813D01*
X222788Y235813D01*
Y253331D01*
X225413Y251610D01*
X232659Y246000D01*
X232788Y245870D01*
Y235813D01*
X232089Y235758D01*
X231400Y235592D01*
X230746Y235321D01*
X230142Y234951D01*
X229603Y234491D01*
X229143Y233952D01*
X228773Y233348D01*
X228502Y232694D01*
X228337Y232005D01*
X228281Y231299D01*
X228337Y230593D01*
X228502Y229904D01*
X228773Y229250D01*
X229143Y228646D01*
X229603Y228107D01*
X230142Y227647D01*
X230746Y227277D01*
X231400Y227006D01*
X232089Y226841D01*
X232788Y226786D01*
Y225813D01*
X232089Y225758D01*
X231400Y225592D01*
X230746Y225321D01*
X230142Y224951D01*
X229603Y224491D01*
X229143Y223952D01*
X228773Y223348D01*
X228502Y222694D01*
X228337Y222005D01*
X228281Y221299D01*
X228337Y220593D01*
X228502Y219904D01*
X228773Y219250D01*
X229143Y218646D01*
X229603Y218107D01*
X230142Y217647D01*
X230746Y217277D01*
X231400Y217006D01*
X232089Y216841D01*
X232788Y216786D01*
Y72310D01*
G37*
G36*
X222788Y63692D02*X220104Y61795D01*
X216408Y59597D01*
Y218601D01*
X216447Y218646D01*
X216817Y219250D01*
X217088Y219904D01*
X217254Y220593D01*
X217295Y221299D01*
X217254Y222005D01*
X217088Y222694D01*
X216817Y223348D01*
X216447Y223952D01*
X216408Y223998D01*
Y229152D01*
X216451Y229159D01*
X216563Y229197D01*
X216668Y229251D01*
X216763Y229321D01*
X216846Y229405D01*
X216915Y229501D01*
X216965Y229608D01*
X217114Y230015D01*
X217217Y230436D01*
X217280Y230866D01*
X217300Y231299D01*
X217280Y231733D01*
X217217Y232162D01*
X217114Y232583D01*
X216970Y232993D01*
X216918Y233099D01*
X216848Y233196D01*
X216765Y233280D01*
X216670Y233350D01*
X216565Y233405D01*
X216452Y233443D01*
X216408Y233450D01*
Y257378D01*
X217673Y256684D01*
X222788Y253331D01*
Y235813D01*
X222089Y235758D01*
X221400Y235592D01*
X220746Y235321D01*
X220142Y234951D01*
X219603Y234491D01*
X219143Y233952D01*
X218773Y233348D01*
X218502Y232694D01*
X218337Y232005D01*
X218281Y231299D01*
X218337Y230593D01*
X218502Y229904D01*
X218773Y229250D01*
X219143Y228646D01*
X219603Y228107D01*
X220142Y227647D01*
X220746Y227277D01*
X221400Y227006D01*
X222089Y226841D01*
X222788Y226786D01*
Y225813D01*
X222089Y225758D01*
X221400Y225592D01*
X220746Y225321D01*
X220142Y224951D01*
X219603Y224491D01*
X219143Y223952D01*
X218773Y223348D01*
X218502Y222694D01*
X218337Y222005D01*
X218281Y221299D01*
X218337Y220593D01*
X218502Y219904D01*
X218773Y219250D01*
X219143Y218646D01*
X219603Y218107D01*
X220142Y217647D01*
X220746Y217277D01*
X221400Y217006D01*
X222089Y216841D01*
X222788Y216786D01*
Y79009D01*
X219635Y75848D01*
X219553Y75714D01*
X219493Y75568D01*
X219456Y75415D01*
X219444Y75258D01*
X219456Y75102D01*
X219493Y74948D01*
X219553Y74803D01*
X219635Y74669D01*
X219740Y74551D01*
X222788Y71513D01*
Y63692D01*
G37*
G36*
X242797Y21654D02*X221654D01*
X216408Y19185D01*
Y52509D01*
X223424Y56683D01*
X231372Y62301D01*
X231717Y62587D01*
X231827Y62477D01*
X231962Y62395D01*
X232107Y62334D01*
X232260Y62298D01*
X232417Y62285D01*
X232574Y62298D01*
X232727Y62334D01*
X232872Y62395D01*
X233007Y62477D01*
X233124Y62581D01*
X238517Y67988D01*
X238600Y68122D01*
X238660Y68267D01*
X238688Y68385D01*
X238856Y68525D01*
X242797Y72364D01*
Y21654D01*
G37*
G36*
X216408Y295602D02*X221654Y293307D01*
X242797D01*
Y245520D01*
X241624D01*
X236937Y250206D01*
X236930Y250216D01*
X236882Y250261D01*
X236780Y250364D01*
X236680Y250452D01*
X236587Y250540D01*
X236533Y250583D01*
X236427Y250677D01*
X236369Y250713D01*
X231136Y254847D01*
X229081Y256471D01*
X228952Y256573D01*
X220812Y261909D01*
X216408Y264325D01*
Y295602D01*
G37*
G36*
Y223998D02*X215987Y224491D01*
X215448Y224951D01*
X214845Y225321D01*
X214190Y225592D01*
X213501Y225758D01*
X212797Y225813D01*
Y226794D01*
X213229Y226815D01*
X213658Y226877D01*
X214079Y226981D01*
X214489Y227124D01*
X214595Y227177D01*
X214692Y227246D01*
X214776Y227329D01*
X214847Y227425D01*
X214901Y227530D01*
X214939Y227642D01*
X214958Y227759D01*
X214959Y227878D01*
X214941Y227995D01*
X214905Y228108D01*
X214852Y228214D01*
X214783Y228311D01*
X214700Y228395D01*
X214605Y228466D01*
X214499Y228520D01*
X214387Y228558D01*
X214270Y228577D01*
X214151Y228578D01*
X214034Y228560D01*
X213922Y228522D01*
X213650Y228424D01*
X213370Y228355D01*
X213084Y228313D01*
X212797Y228299D01*
Y234299D01*
X213084Y234285D01*
X213370Y234244D01*
X213650Y234175D01*
X213923Y234079D01*
X214035Y234041D01*
X214151Y234024D01*
X214270Y234025D01*
X214386Y234044D01*
X214498Y234081D01*
X214603Y234136D01*
X214698Y234206D01*
X214781Y234290D01*
X214849Y234386D01*
X214902Y234491D01*
X214938Y234604D01*
X214955Y234721D01*
X214955Y234839D01*
X214935Y234955D01*
X214898Y235067D01*
X214844Y235172D01*
X214773Y235267D01*
X214689Y235350D01*
X214593Y235418D01*
X214487Y235469D01*
X214079Y235618D01*
X213658Y235721D01*
X213229Y235784D01*
X212797Y235804D01*
Y259359D01*
X216408Y257378D01*
Y233450D01*
X216335Y233462D01*
X216216Y233463D01*
X216099Y233445D01*
X215986Y233409D01*
X215880Y233356D01*
X215784Y233287D01*
X215699Y233204D01*
X215629Y233109D01*
X215574Y233003D01*
X215537Y232891D01*
X215517Y232774D01*
X215516Y232655D01*
X215534Y232538D01*
X215572Y232426D01*
X215671Y232154D01*
X215740Y231874D01*
X215781Y231588D01*
X215795Y231299D01*
X215781Y231011D01*
X215740Y230725D01*
X215671Y230444D01*
X215575Y230171D01*
X215537Y230060D01*
X215520Y229943D01*
X215521Y229825D01*
X215540Y229709D01*
X215577Y229597D01*
X215632Y229492D01*
X215702Y229397D01*
X215786Y229314D01*
X215882Y229245D01*
X215987Y229192D01*
X216100Y229157D01*
X216217Y229139D01*
X216335Y229140D01*
X216408Y229152D01*
Y223998D01*
G37*
G36*
Y59597D02*X212797Y57448D01*
Y203592D01*
X213117Y203724D01*
X213654Y204053D01*
X214132Y204462D01*
X214541Y204941D01*
X214870Y205478D01*
X215111Y206059D01*
X215258Y206672D01*
X215295Y207299D01*
X215258Y207927D01*
X215111Y208539D01*
X214870Y209121D01*
X214541Y209658D01*
X214132Y210136D01*
X213654Y210545D01*
X213117Y210874D01*
X212797Y211007D01*
Y216785D01*
X213501Y216841D01*
X214190Y217006D01*
X214845Y217277D01*
X215448Y217647D01*
X215987Y218107D01*
X216408Y218601D01*
Y59597D01*
G37*
G36*
Y19185D02*X212797Y17486D01*
Y50591D01*
X215059Y51706D01*
X216408Y52509D01*
Y19185D01*
G37*
G36*
X212797Y297182D02*X216408Y295602D01*
Y264325D01*
X212797Y266307D01*
Y297182D01*
G37*
G36*
X209182Y261306D02*X209559Y261136D01*
X212797Y259359D01*
Y235804D01*
X212795Y235804D01*
X212362Y235784D01*
X211932Y235721D01*
X211511Y235618D01*
X211102Y235474D01*
X210995Y235421D01*
X210899Y235352D01*
X210814Y235269D01*
X210744Y235174D01*
X210689Y235068D01*
X210652Y234956D01*
X210633Y234839D01*
X210632Y234720D01*
X210649Y234603D01*
X210685Y234490D01*
X210738Y234384D01*
X210807Y234288D01*
X210891Y234203D01*
X210986Y234133D01*
X211091Y234078D01*
X211204Y234041D01*
X211321Y234021D01*
X211439Y234020D01*
X211557Y234038D01*
X211669Y234076D01*
X211940Y234175D01*
X212221Y234244D01*
X212507Y234285D01*
X212795Y234299D01*
X212797Y234299D01*
Y228299D01*
X212795Y228299D01*
X212507Y228313D01*
X212221Y228355D01*
X211940Y228424D01*
X211667Y228519D01*
X211556Y228557D01*
X211439Y228575D01*
X211321Y228574D01*
X211205Y228554D01*
X211093Y228517D01*
X210988Y228463D01*
X210893Y228393D01*
X210810Y228309D01*
X210741Y228213D01*
X210688Y228107D01*
X210653Y227995D01*
X210635Y227878D01*
X210636Y227760D01*
X210655Y227643D01*
X210693Y227531D01*
X210747Y227427D01*
X210817Y227332D01*
X210901Y227249D01*
X210997Y227180D01*
X211104Y227129D01*
X211511Y226981D01*
X211932Y226877D01*
X212362Y226815D01*
X212795Y226794D01*
X212797Y226794D01*
Y225813D01*
X212795Y225813D01*
X212089Y225758D01*
X211400Y225592D01*
X210746Y225321D01*
X210142Y224951D01*
X209603Y224491D01*
X209182Y223998D01*
Y229149D01*
X209256Y229136D01*
X209374Y229136D01*
X209491Y229153D01*
X209604Y229189D01*
X209711Y229242D01*
X209807Y229311D01*
X209891Y229394D01*
X209962Y229490D01*
X210016Y229595D01*
X210054Y229708D01*
X210073Y229825D01*
X210074Y229943D01*
X210057Y230061D01*
X210019Y230173D01*
X209920Y230444D01*
X209851Y230725D01*
X209809Y231011D01*
X209795Y231299D01*
X209809Y231588D01*
X209851Y231874D01*
X209920Y232154D01*
X210015Y232427D01*
X210053Y232539D01*
X210071Y232655D01*
X210070Y232773D01*
X210051Y232890D01*
X210013Y233002D01*
X209959Y233107D01*
X209889Y233202D01*
X209805Y233285D01*
X209709Y233353D01*
X209603Y233406D01*
X209491Y233442D01*
X209374Y233459D01*
X209256Y233458D01*
X209182Y233446D01*
Y261306D01*
G37*
G36*
X212797Y211007D02*X212535Y211115D01*
X211923Y211262D01*
X211295Y211312D01*
X210668Y211262D01*
X210055Y211115D01*
X209474Y210874D01*
X209182Y210696D01*
Y218601D01*
X209603Y218107D01*
X210142Y217647D01*
X210746Y217277D01*
X211400Y217006D01*
X212089Y216841D01*
X212795Y216785D01*
X212797Y216785D01*
Y211007D01*
G37*
G36*
X209182Y210696D02*X208937Y210545D01*
X208458Y210136D01*
X208049Y209658D01*
X207983Y209549D01*
X202788D01*
Y216786D01*
X202795Y216785D01*
X203501Y216841D01*
X204190Y217006D01*
X204845Y217277D01*
X205448Y217647D01*
X205987Y218107D01*
X206447Y218646D01*
X206817Y219250D01*
X207088Y219904D01*
X207254Y220593D01*
X207295Y221299D01*
X207254Y222005D01*
X207088Y222694D01*
X206817Y223348D01*
X206447Y223952D01*
X205987Y224491D01*
X205448Y224951D01*
X204845Y225321D01*
X204190Y225592D01*
X203501Y225758D01*
X202795Y225813D01*
X202788Y225813D01*
Y226786D01*
X202795Y226785D01*
X203501Y226841D01*
X204190Y227006D01*
X204845Y227277D01*
X205448Y227647D01*
X205987Y228107D01*
X206447Y228646D01*
X206817Y229250D01*
X207088Y229904D01*
X207254Y230593D01*
X207295Y231299D01*
X207254Y232005D01*
X207088Y232694D01*
X206817Y233348D01*
X206447Y233952D01*
X205987Y234491D01*
X205448Y234951D01*
X204845Y235321D01*
X204190Y235592D01*
X203501Y235758D01*
X202795Y235813D01*
X202788Y235813D01*
Y264186D01*
X209182Y261306D01*
Y233446D01*
X209139Y233439D01*
X209027Y233402D01*
X208923Y233348D01*
X208828Y233277D01*
X208745Y233193D01*
X208676Y233097D01*
X208625Y232991D01*
X208477Y232583D01*
X208373Y232162D01*
X208311Y231733D01*
X208290Y231299D01*
X208311Y230866D01*
X208373Y230436D01*
X208477Y230015D01*
X208621Y229606D01*
X208673Y229499D01*
X208742Y229403D01*
X208825Y229318D01*
X208921Y229248D01*
X209026Y229193D01*
X209139Y229156D01*
X209182Y229149D01*
Y223998D01*
X209143Y223952D01*
X208773Y223348D01*
X208502Y222694D01*
X208337Y222005D01*
X208281Y221299D01*
X208337Y220593D01*
X208502Y219904D01*
X208773Y219250D01*
X209143Y218646D01*
X209182Y218601D01*
Y210696D01*
G37*
G36*
X202788Y209549D02*X196408D01*
Y218601D01*
X196447Y218646D01*
X196817Y219250D01*
X197088Y219904D01*
X197254Y220593D01*
X197295Y221299D01*
X197254Y222005D01*
X197088Y222694D01*
X196817Y223348D01*
X196447Y223952D01*
X196408Y223998D01*
Y229152D01*
X196451Y229159D01*
X196563Y229197D01*
X196668Y229251D01*
X196763Y229321D01*
X196846Y229405D01*
X196915Y229501D01*
X196965Y229608D01*
X197114Y230015D01*
X197217Y230436D01*
X197280Y230866D01*
X197300Y231299D01*
X197280Y231733D01*
X197217Y232162D01*
X197114Y232583D01*
X196970Y232993D01*
X196918Y233099D01*
X196848Y233196D01*
X196765Y233280D01*
X196670Y233350D01*
X196565Y233405D01*
X196452Y233443D01*
X196408Y233450D01*
Y266629D01*
X201121Y264937D01*
X202788Y264186D01*
Y235813D01*
X202089Y235758D01*
X201400Y235592D01*
X200746Y235321D01*
X200142Y234951D01*
X199603Y234491D01*
X199143Y233952D01*
X198773Y233348D01*
X198502Y232694D01*
X198337Y232005D01*
X198281Y231299D01*
X198337Y230593D01*
X198502Y229904D01*
X198773Y229250D01*
X199143Y228646D01*
X199603Y228107D01*
X200142Y227647D01*
X200746Y227277D01*
X201400Y227006D01*
X202089Y226841D01*
X202788Y226786D01*
Y225813D01*
X202089Y225758D01*
X201400Y225592D01*
X200746Y225321D01*
X200142Y224951D01*
X199603Y224491D01*
X199143Y223952D01*
X198773Y223348D01*
X198502Y222694D01*
X198337Y222005D01*
X198281Y221299D01*
X198337Y220593D01*
X198502Y219904D01*
X198773Y219250D01*
X199143Y218646D01*
X199603Y218107D01*
X200142Y217647D01*
X200746Y217277D01*
X201400Y217006D01*
X202089Y216841D01*
X202788Y216786D01*
Y209549D01*
G37*
G36*
X212797Y57448D02*X212150Y57063D01*
X209579Y55795D01*
Y78668D01*
X209582Y78669D01*
X209650Y78708D01*
X209712Y78758D01*
X209765Y78816D01*
X209806Y78883D01*
X209969Y79207D01*
X210099Y79547D01*
X210197Y79898D01*
X210262Y80255D01*
X210295Y80617D01*
Y80981D01*
X210262Y81343D01*
X210197Y81701D01*
X210099Y82051D01*
X209969Y82391D01*
X209810Y82718D01*
X209767Y82784D01*
X209714Y82843D01*
X209652Y82893D01*
X209584Y82932D01*
X209579Y82934D01*
Y203681D01*
X210055Y203483D01*
X210668Y203336D01*
X211295Y203287D01*
X211923Y203336D01*
X212535Y203483D01*
X212797Y203592D01*
Y57448D01*
G37*
G36*
X209579Y55795D02*X206294Y54175D01*
Y76799D01*
X206477D01*
X206839Y76832D01*
X207197Y76898D01*
X207547Y76996D01*
X207887Y77125D01*
X208214Y77285D01*
X208280Y77327D01*
X208339Y77381D01*
X208389Y77442D01*
X208428Y77511D01*
X208456Y77585D01*
X208473Y77662D01*
X208477Y77741D01*
X208468Y77820D01*
X208448Y77897D01*
X208415Y77969D01*
X208372Y78035D01*
X208319Y78094D01*
X208257Y78144D01*
X208189Y78183D01*
X208115Y78211D01*
X208037Y78228D01*
X207958Y78232D01*
X207879Y78223D01*
X207803Y78202D01*
X207731Y78169D01*
X207488Y78046D01*
X207233Y77950D01*
X206971Y77876D01*
X206703Y77827D01*
X206432Y77802D01*
X206294D01*
Y83796D01*
X206432D01*
X206703Y83771D01*
X206971Y83722D01*
X207233Y83649D01*
X207488Y83552D01*
X207733Y83432D01*
X207804Y83399D01*
X207880Y83378D01*
X207958Y83370D01*
X208037Y83374D01*
X208114Y83390D01*
X208187Y83418D01*
X208255Y83457D01*
X208317Y83507D01*
X208369Y83565D01*
X208413Y83631D01*
X208445Y83703D01*
X208465Y83779D01*
X208474Y83857D01*
X208470Y83936D01*
X208453Y84013D01*
X208425Y84086D01*
X208386Y84154D01*
X208337Y84216D01*
X208279Y84268D01*
X208212Y84310D01*
X207887Y84473D01*
X207547Y84603D01*
X207197Y84701D01*
X206839Y84766D01*
X206477Y84799D01*
X206294D01*
Y205049D01*
X207983D01*
X208049Y204941D01*
X208458Y204462D01*
X208937Y204053D01*
X209474Y203724D01*
X209579Y203681D01*
Y82934D01*
X209510Y82960D01*
X209432Y82977D01*
X209353Y82981D01*
X209274Y82972D01*
X209198Y82952D01*
X209126Y82919D01*
X209059Y82876D01*
X209000Y82823D01*
X208951Y82761D01*
X208911Y82692D01*
X208883Y82618D01*
X208867Y82541D01*
X208863Y82462D01*
X208871Y82383D01*
X208892Y82307D01*
X208926Y82235D01*
X209048Y81992D01*
X209145Y81737D01*
X209218Y81475D01*
X209267Y81207D01*
X209292Y80935D01*
Y80663D01*
X209267Y80392D01*
X209218Y80124D01*
X209145Y79861D01*
X209048Y79607D01*
X208928Y79362D01*
X208895Y79291D01*
X208874Y79215D01*
X208866Y79136D01*
X208870Y79058D01*
X208886Y78981D01*
X208914Y78907D01*
X208953Y78839D01*
X209003Y78778D01*
X209061Y78725D01*
X209127Y78682D01*
X209199Y78650D01*
X209275Y78629D01*
X209353Y78621D01*
X209432Y78625D01*
X209509Y78641D01*
X209579Y78668D01*
Y55795D01*
G37*
G36*
X206294Y54175D02*X203850Y52970D01*
X203011Y52635D01*
Y78665D01*
X203081Y78638D01*
X203158Y78622D01*
X203238Y78618D01*
X203316Y78626D01*
X203393Y78647D01*
X203465Y78679D01*
X203531Y78723D01*
X203590Y78776D01*
X203640Y78837D01*
X203679Y78906D01*
X203707Y78980D01*
X203724Y79057D01*
X203728Y79137D01*
X203719Y79215D01*
X203699Y79292D01*
X203665Y79363D01*
X203543Y79607D01*
X203446Y79861D01*
X203372Y80124D01*
X203323Y80392D01*
X203298Y80663D01*
Y80935D01*
X203323Y81207D01*
X203372Y81475D01*
X203446Y81737D01*
X203543Y81992D01*
X203662Y82237D01*
X203696Y82308D01*
X203716Y82384D01*
X203725Y82462D01*
X203721Y82541D01*
X203704Y82618D01*
X203676Y82691D01*
X203637Y82759D01*
X203588Y82821D01*
X203529Y82873D01*
X203464Y82916D01*
X203392Y82949D01*
X203316Y82969D01*
X203237Y82978D01*
X203159Y82974D01*
X203082Y82957D01*
X203011Y82931D01*
Y205049D01*
X206294D01*
Y84799D01*
X206113D01*
X205751Y84766D01*
X205394Y84701D01*
X205043Y84603D01*
X204703Y84473D01*
X204377Y84314D01*
X204310Y84271D01*
X204251Y84218D01*
X204202Y84156D01*
X204162Y84088D01*
X204134Y84014D01*
X204118Y83936D01*
X204114Y83857D01*
X204122Y83778D01*
X204143Y83702D01*
X204175Y83629D01*
X204219Y83563D01*
X204272Y83504D01*
X204333Y83455D01*
X204402Y83415D01*
X204476Y83387D01*
X204554Y83371D01*
X204633Y83367D01*
X204711Y83375D01*
X204788Y83396D01*
X204859Y83430D01*
X205103Y83552D01*
X205357Y83649D01*
X205620Y83722D01*
X205888Y83771D01*
X206159Y83796D01*
X206294D01*
Y77802D01*
X206159D01*
X205888Y77827D01*
X205620Y77876D01*
X205357Y77950D01*
X205103Y78046D01*
X204858Y78166D01*
X204787Y78200D01*
X204711Y78220D01*
X204633Y78228D01*
X204554Y78225D01*
X204477Y78208D01*
X204403Y78180D01*
X204335Y78141D01*
X204274Y78092D01*
X204221Y78033D01*
X204178Y77967D01*
X204146Y77896D01*
X204125Y77820D01*
X204117Y77741D01*
X204121Y77663D01*
X204137Y77586D01*
X204165Y77512D01*
X204204Y77444D01*
X204254Y77383D01*
X204312Y77330D01*
X204379Y77288D01*
X204703Y77125D01*
X205043Y76996D01*
X205394Y76898D01*
X205751Y76832D01*
X206113Y76799D01*
X206294D01*
Y54175D01*
G37*
G36*
X203011Y52635D02*X196408Y50001D01*
Y205049D01*
X203011D01*
Y82931D01*
X203008Y82929D01*
X202940Y82890D01*
X202879Y82841D01*
X202826Y82782D01*
X202784Y82716D01*
X202621Y82391D01*
X202492Y82051D01*
X202394Y81701D01*
X202328Y81343D01*
X202295Y80981D01*
Y80617D01*
X202328Y80255D01*
X202394Y79898D01*
X202492Y79547D01*
X202621Y79207D01*
X202781Y78881D01*
X202824Y78814D01*
X202877Y78755D01*
X202938Y78706D01*
X203007Y78666D01*
X203011Y78665D01*
Y52635D01*
G37*
G36*
X212797Y17486D02*X208268Y15354D01*
X197638Y12205D01*
X196408Y11943D01*
Y43521D01*
X197289Y43795D01*
X206329Y47401D01*
X212797Y50591D01*
Y17486D01*
G37*
G36*
X196408Y302662D02*X200394Y301575D01*
X209055Y298819D01*
X212797Y297182D01*
Y266307D01*
X212279Y266591D01*
X203404Y270589D01*
X196408Y273100D01*
Y302662D01*
G37*
G36*
Y223998D02*X195987Y224491D01*
X195448Y224951D01*
X194845Y225321D01*
X194190Y225592D01*
X193501Y225758D01*
X192797Y225813D01*
Y226794D01*
X193229Y226815D01*
X193658Y226877D01*
X194079Y226981D01*
X194489Y227124D01*
X194595Y227177D01*
X194692Y227246D01*
X194776Y227329D01*
X194847Y227425D01*
X194901Y227530D01*
X194939Y227642D01*
X194958Y227759D01*
X194959Y227878D01*
X194941Y227995D01*
X194905Y228108D01*
X194852Y228214D01*
X194783Y228311D01*
X194700Y228395D01*
X194605Y228466D01*
X194499Y228520D01*
X194387Y228558D01*
X194270Y228577D01*
X194151Y228578D01*
X194034Y228560D01*
X193922Y228522D01*
X193650Y228424D01*
X193370Y228355D01*
X193084Y228313D01*
X192797Y228299D01*
Y234299D01*
X193084Y234285D01*
X193370Y234244D01*
X193650Y234175D01*
X193923Y234079D01*
X194035Y234041D01*
X194151Y234024D01*
X194270Y234025D01*
X194386Y234044D01*
X194498Y234081D01*
X194603Y234136D01*
X194698Y234206D01*
X194781Y234290D01*
X194849Y234386D01*
X194902Y234491D01*
X194938Y234604D01*
X194955Y234721D01*
X194955Y234839D01*
X194935Y234955D01*
X194898Y235067D01*
X194844Y235172D01*
X194773Y235267D01*
X194689Y235350D01*
X194593Y235418D01*
X194487Y235469D01*
X194079Y235618D01*
X193658Y235721D01*
X193229Y235784D01*
X192797Y235804D01*
Y267926D01*
X196408Y266629D01*
Y233450D01*
X196335Y233462D01*
X196216Y233463D01*
X196099Y233445D01*
X195986Y233409D01*
X195880Y233356D01*
X195784Y233287D01*
X195699Y233204D01*
X195629Y233109D01*
X195574Y233003D01*
X195537Y232891D01*
X195517Y232774D01*
X195516Y232655D01*
X195534Y232538D01*
X195572Y232426D01*
X195671Y232154D01*
X195740Y231874D01*
X195781Y231588D01*
X195795Y231299D01*
X195781Y231011D01*
X195740Y230725D01*
X195671Y230444D01*
X195575Y230171D01*
X195537Y230060D01*
X195520Y229943D01*
X195521Y229825D01*
X195540Y229709D01*
X195577Y229597D01*
X195632Y229492D01*
X195702Y229397D01*
X195786Y229314D01*
X195882Y229245D01*
X195987Y229192D01*
X196100Y229157D01*
X196217Y229139D01*
X196335Y229140D01*
X196408Y229152D01*
Y223998D01*
G37*
G36*
Y209549D02*X192797D01*
Y216785D01*
X193501Y216841D01*
X194190Y217006D01*
X194845Y217277D01*
X195448Y217647D01*
X195987Y218107D01*
X196408Y218601D01*
Y209549D01*
G37*
G36*
Y50001D02*X195254Y49540D01*
X192797Y48778D01*
Y205049D01*
X196408D01*
Y50001D01*
G37*
G36*
Y11943D02*X192797Y11175D01*
Y42400D01*
X196408Y43521D01*
Y11943D01*
G37*
G36*
X192797Y303647D02*X196408Y302662D01*
Y273100D01*
X194243Y273878D01*
X192797Y274272D01*
Y303647D01*
G37*
G36*
X189182Y268944D02*X192410Y268064D01*
X192797Y267926D01*
Y235804D01*
X192795Y235804D01*
X192362Y235784D01*
X191932Y235721D01*
X191511Y235618D01*
X191102Y235474D01*
X190995Y235421D01*
X190899Y235352D01*
X190814Y235269D01*
X190744Y235174D01*
X190689Y235068D01*
X190652Y234956D01*
X190633Y234839D01*
X190632Y234720D01*
X190649Y234603D01*
X190685Y234490D01*
X190738Y234384D01*
X190807Y234288D01*
X190891Y234203D01*
X190986Y234133D01*
X191091Y234078D01*
X191204Y234041D01*
X191321Y234021D01*
X191439Y234020D01*
X191557Y234038D01*
X191669Y234076D01*
X191940Y234175D01*
X192221Y234244D01*
X192507Y234285D01*
X192795Y234299D01*
X192797Y234299D01*
Y228299D01*
X192795Y228299D01*
X192507Y228313D01*
X192221Y228355D01*
X191940Y228424D01*
X191667Y228519D01*
X191556Y228557D01*
X191439Y228575D01*
X191321Y228574D01*
X191205Y228554D01*
X191093Y228517D01*
X190988Y228463D01*
X190893Y228393D01*
X190810Y228309D01*
X190741Y228213D01*
X190688Y228107D01*
X190653Y227995D01*
X190635Y227878D01*
X190636Y227760D01*
X190655Y227643D01*
X190693Y227531D01*
X190747Y227427D01*
X190817Y227332D01*
X190901Y227249D01*
X190997Y227180D01*
X191104Y227129D01*
X191511Y226981D01*
X191932Y226877D01*
X192362Y226815D01*
X192795Y226794D01*
X192797Y226794D01*
Y225813D01*
X192795Y225813D01*
X192089Y225758D01*
X191400Y225592D01*
X190746Y225321D01*
X190142Y224951D01*
X189603Y224491D01*
X189182Y223998D01*
Y229149D01*
X189256Y229136D01*
X189374Y229136D01*
X189491Y229153D01*
X189604Y229189D01*
X189711Y229242D01*
X189807Y229311D01*
X189891Y229394D01*
X189962Y229490D01*
X190016Y229595D01*
X190054Y229708D01*
X190073Y229825D01*
X190074Y229943D01*
X190057Y230061D01*
X190019Y230173D01*
X189920Y230444D01*
X189851Y230725D01*
X189809Y231011D01*
X189795Y231299D01*
X189809Y231588D01*
X189851Y231874D01*
X189920Y232154D01*
X190015Y232427D01*
X190053Y232539D01*
X190071Y232655D01*
X190070Y232773D01*
X190051Y232890D01*
X190013Y233002D01*
X189959Y233107D01*
X189889Y233202D01*
X189805Y233285D01*
X189709Y233353D01*
X189603Y233406D01*
X189491Y233442D01*
X189374Y233459D01*
X189256Y233458D01*
X189182Y233446D01*
Y268944D01*
G37*
G36*
X192797Y209549D02*X189182D01*
Y218601D01*
X189603Y218107D01*
X190142Y217647D01*
X190746Y217277D01*
X191400Y217006D01*
X192089Y216841D01*
X192795Y216785D01*
X192797Y216785D01*
Y209549D01*
G37*
G36*
X189182D02*X182788D01*
Y216786D01*
X182795Y216785D01*
X183501Y216841D01*
X184190Y217006D01*
X184845Y217277D01*
X185448Y217647D01*
X185987Y218107D01*
X186447Y218646D01*
X186817Y219250D01*
X187088Y219904D01*
X187254Y220593D01*
X187295Y221299D01*
X187254Y222005D01*
X187088Y222694D01*
X186817Y223348D01*
X186447Y223952D01*
X185987Y224491D01*
X185448Y224951D01*
X184845Y225321D01*
X184190Y225592D01*
X183501Y225758D01*
X182795Y225813D01*
X182788Y225813D01*
Y226786D01*
X182795Y226785D01*
X183501Y226841D01*
X184190Y227006D01*
X184845Y227277D01*
X185448Y227647D01*
X185987Y228107D01*
X186447Y228646D01*
X186817Y229250D01*
X187088Y229904D01*
X187254Y230593D01*
X187295Y231299D01*
X187254Y232005D01*
X187088Y232694D01*
X186817Y233348D01*
X186447Y233952D01*
X185987Y234491D01*
X185448Y234951D01*
X184845Y235321D01*
X184190Y235592D01*
X183501Y235758D01*
X182795Y235813D01*
X182788Y235813D01*
Y270630D01*
X183481Y270499D01*
X186955Y269552D01*
X189182Y268944D01*
Y233446D01*
X189139Y233439D01*
X189027Y233402D01*
X188923Y233348D01*
X188828Y233277D01*
X188745Y233193D01*
X188676Y233097D01*
X188625Y232991D01*
X188477Y232583D01*
X188373Y232162D01*
X188311Y231733D01*
X188290Y231299D01*
X188311Y230866D01*
X188373Y230436D01*
X188477Y230015D01*
X188621Y229606D01*
X188673Y229499D01*
X188742Y229403D01*
X188825Y229318D01*
X188921Y229248D01*
X189026Y229193D01*
X189139Y229156D01*
X189182Y229149D01*
Y223998D01*
X189143Y223952D01*
X188773Y223348D01*
X188502Y222694D01*
X188337Y222005D01*
X188281Y221299D01*
X188337Y220593D01*
X188502Y219904D01*
X188773Y219250D01*
X189143Y218646D01*
X189182Y218601D01*
Y209549D01*
G37*
G36*
X182788D02*X176408D01*
Y219152D01*
X176451Y219159D01*
X176563Y219197D01*
X176668Y219251D01*
X176763Y219321D01*
X176846Y219405D01*
X176915Y219501D01*
X176965Y219608D01*
X177114Y220015D01*
X177217Y220436D01*
X177280Y220866D01*
X177300Y221299D01*
X177280Y221733D01*
X177217Y222162D01*
X177114Y222583D01*
X176970Y222993D01*
X176918Y223099D01*
X176848Y223196D01*
X176765Y223280D01*
X176670Y223350D01*
X176565Y223405D01*
X176452Y223443D01*
X176408Y223450D01*
Y228601D01*
X176447Y228646D01*
X176817Y229250D01*
X177088Y229904D01*
X177254Y230593D01*
X177295Y231299D01*
X177254Y232005D01*
X177088Y232694D01*
X176817Y233348D01*
X176447Y233952D01*
X176408Y233998D01*
Y271842D01*
X182788Y270630D01*
Y235813D01*
X182089Y235758D01*
X181400Y235592D01*
X180746Y235321D01*
X180142Y234951D01*
X179603Y234491D01*
X179143Y233952D01*
X178773Y233348D01*
X178502Y232694D01*
X178337Y232005D01*
X178281Y231299D01*
X178337Y230593D01*
X178502Y229904D01*
X178773Y229250D01*
X179143Y228646D01*
X179603Y228107D01*
X180142Y227647D01*
X180746Y227277D01*
X181400Y227006D01*
X182089Y226841D01*
X182788Y226786D01*
Y225813D01*
X182089Y225758D01*
X181400Y225592D01*
X180746Y225321D01*
X180142Y224951D01*
X179603Y224491D01*
X179143Y223952D01*
X178773Y223348D01*
X178502Y222694D01*
X178337Y222005D01*
X178281Y221299D01*
X178337Y220593D01*
X178502Y219904D01*
X178773Y219250D01*
X179143Y218646D01*
X179603Y218107D01*
X180142Y217647D01*
X180746Y217277D01*
X181400Y217006D01*
X182089Y216841D01*
X182788Y216786D01*
Y209549D01*
G37*
G36*
X176408Y233998D02*X175987Y234491D01*
X175448Y234951D01*
X174845Y235321D01*
X174190Y235592D01*
X173501Y235758D01*
X172797Y235813D01*
Y272399D01*
X174389Y272225D01*
X176408Y271842D01*
Y233998D01*
G37*
G36*
Y209549D02*X172797D01*
Y216794D01*
X173229Y216815D01*
X173658Y216877D01*
X174079Y216981D01*
X174489Y217124D01*
X174595Y217177D01*
X174692Y217246D01*
X174776Y217329D01*
X174847Y217425D01*
X174901Y217530D01*
X174939Y217642D01*
X174958Y217759D01*
X174959Y217878D01*
X174941Y217995D01*
X174905Y218108D01*
X174852Y218214D01*
X174783Y218311D01*
X174700Y218395D01*
X174605Y218466D01*
X174499Y218520D01*
X174387Y218558D01*
X174270Y218577D01*
X174151Y218578D01*
X174034Y218560D01*
X173922Y218522D01*
X173650Y218424D01*
X173370Y218355D01*
X173084Y218313D01*
X172797Y218299D01*
Y224299D01*
X173084Y224285D01*
X173370Y224244D01*
X173650Y224175D01*
X173923Y224079D01*
X174035Y224041D01*
X174151Y224024D01*
X174270Y224025D01*
X174386Y224044D01*
X174498Y224081D01*
X174603Y224136D01*
X174698Y224206D01*
X174781Y224290D01*
X174849Y224386D01*
X174902Y224491D01*
X174938Y224604D01*
X174955Y224721D01*
X174955Y224839D01*
X174935Y224955D01*
X174898Y225067D01*
X174844Y225172D01*
X174773Y225267D01*
X174689Y225350D01*
X174593Y225418D01*
X174487Y225469D01*
X174079Y225618D01*
X173658Y225721D01*
X173229Y225784D01*
X172797Y225804D01*
Y226785D01*
X173501Y226841D01*
X174190Y227006D01*
X174845Y227277D01*
X175448Y227647D01*
X175987Y228107D01*
X176408Y228601D01*
Y223450D01*
X176335Y223462D01*
X176216Y223463D01*
X176099Y223445D01*
X175986Y223409D01*
X175880Y223356D01*
X175784Y223287D01*
X175699Y223204D01*
X175629Y223109D01*
X175574Y223003D01*
X175537Y222891D01*
X175517Y222774D01*
X175516Y222655D01*
X175534Y222538D01*
X175572Y222426D01*
X175671Y222154D01*
X175740Y221874D01*
X175781Y221588D01*
X175795Y221299D01*
X175781Y221011D01*
X175740Y220725D01*
X175671Y220444D01*
X175575Y220171D01*
X175537Y220060D01*
X175520Y219943D01*
X175521Y219825D01*
X175540Y219709D01*
X175577Y219597D01*
X175632Y219492D01*
X175702Y219397D01*
X175786Y219314D01*
X175882Y219245D01*
X175987Y219192D01*
X176100Y219157D01*
X176217Y219139D01*
X176335Y219140D01*
X176408Y219152D01*
Y209549D01*
G37*
G36*
X169182Y272795D02*X172797Y272399D01*
Y235813D01*
X172795Y235813D01*
X172089Y235758D01*
X171400Y235592D01*
X170746Y235321D01*
X170142Y234951D01*
X169603Y234491D01*
X169182Y233998D01*
Y272795D01*
G37*
G36*
X172797Y209549D02*X169182D01*
Y219149D01*
X169256Y219136D01*
X169374Y219136D01*
X169491Y219153D01*
X169604Y219189D01*
X169711Y219242D01*
X169807Y219311D01*
X169891Y219394D01*
X169962Y219490D01*
X170016Y219595D01*
X170054Y219708D01*
X170073Y219825D01*
X170074Y219943D01*
X170057Y220061D01*
X170019Y220173D01*
X169920Y220444D01*
X169851Y220725D01*
X169809Y221011D01*
X169795Y221299D01*
X169809Y221588D01*
X169851Y221874D01*
X169920Y222154D01*
X170015Y222427D01*
X170053Y222539D01*
X170071Y222655D01*
X170070Y222773D01*
X170051Y222890D01*
X170013Y223002D01*
X169959Y223107D01*
X169889Y223202D01*
X169805Y223285D01*
X169709Y223353D01*
X169603Y223406D01*
X169491Y223442D01*
X169374Y223459D01*
X169256Y223458D01*
X169182Y223446D01*
Y228601D01*
X169603Y228107D01*
X170142Y227647D01*
X170746Y227277D01*
X171400Y227006D01*
X172089Y226841D01*
X172795Y226785D01*
X172797Y226785D01*
Y225804D01*
X172795Y225804D01*
X172362Y225784D01*
X171932Y225721D01*
X171511Y225618D01*
X171102Y225474D01*
X170995Y225421D01*
X170899Y225352D01*
X170814Y225269D01*
X170744Y225174D01*
X170689Y225068D01*
X170652Y224956D01*
X170633Y224839D01*
X170632Y224720D01*
X170649Y224603D01*
X170685Y224490D01*
X170738Y224384D01*
X170807Y224288D01*
X170891Y224203D01*
X170986Y224133D01*
X171091Y224078D01*
X171204Y224041D01*
X171321Y224021D01*
X171439Y224020D01*
X171557Y224038D01*
X171669Y224076D01*
X171940Y224175D01*
X172221Y224244D01*
X172507Y224285D01*
X172795Y224299D01*
X172797Y224299D01*
Y218299D01*
X172795Y218299D01*
X172507Y218313D01*
X172221Y218355D01*
X171940Y218424D01*
X171667Y218519D01*
X171556Y218557D01*
X171439Y218575D01*
X171321Y218574D01*
X171205Y218554D01*
X171093Y218517D01*
X170988Y218463D01*
X170893Y218393D01*
X170810Y218309D01*
X170741Y218213D01*
X170688Y218107D01*
X170653Y217995D01*
X170635Y217878D01*
X170636Y217760D01*
X170655Y217643D01*
X170693Y217531D01*
X170747Y217427D01*
X170817Y217332D01*
X170901Y217249D01*
X170997Y217180D01*
X171104Y217129D01*
X171511Y216981D01*
X171932Y216877D01*
X172362Y216815D01*
X172795Y216794D01*
X172797Y216794D01*
Y209549D01*
G37*
G36*
X169182D02*X161829D01*
Y216903D01*
X162089Y216841D01*
X162795Y216785D01*
X163501Y216841D01*
X164190Y217006D01*
X164845Y217277D01*
X165448Y217647D01*
X165987Y218107D01*
X166447Y218646D01*
X166817Y219250D01*
X167088Y219904D01*
X167254Y220593D01*
X167295Y221299D01*
X167254Y222005D01*
X167088Y222694D01*
X166817Y223348D01*
X166447Y223952D01*
X165987Y224491D01*
X165448Y224951D01*
X164845Y225321D01*
X164190Y225592D01*
X163501Y225758D01*
X162795Y225813D01*
X162089Y225758D01*
X161829Y225695D01*
Y226903D01*
X162089Y226841D01*
X162795Y226785D01*
X163501Y226841D01*
X164190Y227006D01*
X164845Y227277D01*
X165448Y227647D01*
X165987Y228107D01*
X166447Y228646D01*
X166817Y229250D01*
X167088Y229904D01*
X167254Y230593D01*
X167295Y231299D01*
X167254Y232005D01*
X167088Y232694D01*
X166817Y233348D01*
X166447Y233952D01*
X165987Y234491D01*
X165448Y234951D01*
X164845Y235321D01*
X164190Y235592D01*
X163501Y235758D01*
X162795Y235813D01*
X162089Y235758D01*
X161829Y235695D01*
Y273335D01*
X165189Y273232D01*
X169182Y272795D01*
Y233998D01*
X169143Y233952D01*
X168773Y233348D01*
X168502Y232694D01*
X168337Y232005D01*
X168281Y231299D01*
X168337Y230593D01*
X168502Y229904D01*
X168773Y229250D01*
X169143Y228646D01*
X169182Y228601D01*
Y223446D01*
X169139Y223439D01*
X169027Y223402D01*
X168923Y223348D01*
X168828Y223277D01*
X168745Y223193D01*
X168676Y223097D01*
X168625Y222991D01*
X168477Y222583D01*
X168373Y222162D01*
X168311Y221733D01*
X168290Y221299D01*
X168311Y220866D01*
X168373Y220436D01*
X168477Y220015D01*
X168621Y219606D01*
X168673Y219499D01*
X168742Y219403D01*
X168825Y219318D01*
X168921Y219248D01*
X169026Y219193D01*
X169139Y219156D01*
X169182Y219149D01*
Y209549D01*
G37*
G36*
X192797Y48778D02*X186415Y46796D01*
X177389Y44754D01*
X168230Y43426D01*
X161829Y43006D01*
Y205049D01*
X192797D01*
Y48778D01*
G37*
G36*
Y11175D02*X179134Y8268D01*
X161829Y6962D01*
Y36902D01*
X168867Y37363D01*
X178500Y38760D01*
X187993Y40908D01*
X192797Y42400D01*
Y11175D01*
G37*
G36*
X161829Y308050D02*X166929Y307874D01*
X181102Y306299D01*
X191732Y303937D01*
X192797Y303647D01*
Y274272D01*
X184853Y276438D01*
X175290Y278253D01*
X165614Y279313D01*
X162353Y279413D01*
Y279413D01*
X161829Y279429D01*
Y308050D01*
G37*
G36*
Y209549D02*X152788D01*
Y216786D01*
X152795Y216785D01*
X153501Y216841D01*
X154190Y217006D01*
X154845Y217277D01*
X155448Y217647D01*
X155987Y218107D01*
X156447Y218646D01*
X156817Y219250D01*
X157088Y219904D01*
X157254Y220593D01*
X157295Y221299D01*
X157254Y222005D01*
X157088Y222694D01*
X156817Y223348D01*
X156447Y223952D01*
X155987Y224491D01*
X155448Y224951D01*
X154845Y225321D01*
X154190Y225592D01*
X153501Y225758D01*
X152795Y225813D01*
X152788Y225813D01*
Y226786D01*
X152795Y226785D01*
X153501Y226841D01*
X154190Y227006D01*
X154845Y227277D01*
X155448Y227647D01*
X155987Y228107D01*
X156447Y228646D01*
X156817Y229250D01*
X157088Y229904D01*
X157254Y230593D01*
X157295Y231299D01*
X157254Y232005D01*
X157088Y232694D01*
X156817Y233348D01*
X156447Y233952D01*
X155987Y234491D01*
X155448Y234951D01*
X154845Y235321D01*
X154190Y235592D01*
X153501Y235758D01*
X152795Y235813D01*
X152788Y235813D01*
Y260941D01*
X152862Y260936D01*
X160498Y260946D01*
X160652Y260982D01*
X160797Y261043D01*
X160931Y261125D01*
X161051Y261227D01*
X161153Y261347D01*
X161235Y261481D01*
X161296Y261626D01*
X161332Y261779D01*
X161342Y261936D01*
X161332Y267211D01*
X161296Y267364D01*
X161235Y267510D01*
X161153Y267644D01*
X161051Y267764D01*
X160931Y267866D01*
X160797Y267948D01*
X160652Y268008D01*
X160498Y268045D01*
X160342Y268054D01*
X152788Y268045D01*
Y272751D01*
X152862Y272746D01*
X160498Y272756D01*
X160652Y272792D01*
X160797Y272853D01*
X160931Y272935D01*
X161051Y273037D01*
X161153Y273157D01*
X161235Y273291D01*
X161261Y273352D01*
X161829Y273335D01*
Y235695D01*
X161400Y235592D01*
X160746Y235321D01*
X160142Y234951D01*
X159603Y234491D01*
X159143Y233952D01*
X158773Y233348D01*
X158502Y232694D01*
X158337Y232005D01*
X158281Y231299D01*
X158337Y230593D01*
X158502Y229904D01*
X158773Y229250D01*
X159143Y228646D01*
X159603Y228107D01*
X160142Y227647D01*
X160746Y227277D01*
X161400Y227006D01*
X161829Y226903D01*
Y225695D01*
X161400Y225592D01*
X160746Y225321D01*
X160142Y224951D01*
X159603Y224491D01*
X159143Y223952D01*
X158773Y223348D01*
X158502Y222694D01*
X158337Y222005D01*
X158281Y221299D01*
X158337Y220593D01*
X158502Y219904D01*
X158773Y219250D01*
X159143Y218646D01*
X159603Y218107D01*
X160142Y217647D01*
X160746Y217277D01*
X161400Y217006D01*
X161829Y216903D01*
Y209549D01*
G37*
G36*
X132788Y216786D02*X132795Y216785D01*
X133501Y216841D01*
X133961Y216951D01*
X141363Y209549D01*
X132788D01*
Y216786D01*
G37*
G36*
X152788Y209549D02*X147727D01*
X146408Y210868D01*
Y218601D01*
X146447Y218646D01*
X146817Y219250D01*
X147088Y219904D01*
X147254Y220593D01*
X147295Y221299D01*
X147254Y222005D01*
X147088Y222694D01*
X146817Y223348D01*
X146447Y223952D01*
X146408Y223998D01*
Y229152D01*
X146451Y229159D01*
X146563Y229197D01*
X146668Y229251D01*
X146763Y229321D01*
X146846Y229405D01*
X146915Y229501D01*
X146965Y229608D01*
X147114Y230015D01*
X147217Y230436D01*
X147280Y230866D01*
X147300Y231299D01*
X147280Y231733D01*
X147217Y232162D01*
X147114Y232583D01*
X146970Y232993D01*
X146918Y233099D01*
X146848Y233196D01*
X146765Y233280D01*
X146670Y233350D01*
X146565Y233405D01*
X146452Y233443D01*
X146408Y233450D01*
Y273035D01*
X146695Y273071D01*
X151954Y273324D01*
X151968Y273291D01*
X152050Y273157D01*
X152152Y273037D01*
X152272Y272935D01*
X152406Y272853D01*
X152552Y272792D01*
X152705Y272756D01*
X152788Y272751D01*
Y268045D01*
X152705Y268045D01*
X152552Y268008D01*
X152406Y267948D01*
X152272Y267866D01*
X152152Y267764D01*
X152050Y267644D01*
X151968Y267510D01*
X151908Y267364D01*
X151871Y267211D01*
X151862Y267054D01*
X151871Y261779D01*
X151908Y261626D01*
X151968Y261481D01*
X152050Y261347D01*
X152152Y261227D01*
X152272Y261125D01*
X152406Y261043D01*
X152552Y260982D01*
X152705Y260946D01*
X152788Y260941D01*
Y235813D01*
X152089Y235758D01*
X151400Y235592D01*
X150746Y235321D01*
X150142Y234951D01*
X149603Y234491D01*
X149143Y233952D01*
X148773Y233348D01*
X148502Y232694D01*
X148337Y232005D01*
X148281Y231299D01*
X148337Y230593D01*
X148502Y229904D01*
X148773Y229250D01*
X149143Y228646D01*
X149603Y228107D01*
X150142Y227647D01*
X150746Y227277D01*
X151400Y227006D01*
X152089Y226841D01*
X152788Y226786D01*
Y225813D01*
X152089Y225758D01*
X151400Y225592D01*
X150746Y225321D01*
X150142Y224951D01*
X149603Y224491D01*
X149143Y223952D01*
X148773Y223348D01*
X148502Y222694D01*
X148337Y222005D01*
X148281Y221299D01*
X148337Y220593D01*
X148502Y219904D01*
X148773Y219250D01*
X149143Y218646D01*
X149603Y218107D01*
X150142Y217647D01*
X150746Y217277D01*
X151400Y217006D01*
X152089Y216841D01*
X152788Y216786D01*
Y209549D01*
G37*
G36*
X146408Y223998D02*X145987Y224491D01*
X145448Y224951D01*
X144845Y225321D01*
X144190Y225592D01*
X143501Y225758D01*
X142797Y225813D01*
Y226794D01*
X143229Y226815D01*
X143658Y226877D01*
X144079Y226981D01*
X144489Y227124D01*
X144595Y227177D01*
X144692Y227246D01*
X144776Y227329D01*
X144847Y227425D01*
X144901Y227530D01*
X144939Y227642D01*
X144958Y227759D01*
X144959Y227878D01*
X144941Y227995D01*
X144905Y228108D01*
X144852Y228214D01*
X144783Y228311D01*
X144700Y228395D01*
X144605Y228466D01*
X144499Y228520D01*
X144387Y228558D01*
X144270Y228577D01*
X144151Y228578D01*
X144034Y228560D01*
X143922Y228522D01*
X143650Y228424D01*
X143370Y228355D01*
X143084Y228313D01*
X142797Y228299D01*
Y234299D01*
X143084Y234285D01*
X143370Y234244D01*
X143650Y234175D01*
X143923Y234079D01*
X144035Y234041D01*
X144151Y234024D01*
X144270Y234025D01*
X144386Y234044D01*
X144498Y234081D01*
X144603Y234136D01*
X144698Y234206D01*
X144781Y234290D01*
X144849Y234386D01*
X144902Y234491D01*
X144938Y234604D01*
X144955Y234721D01*
X144955Y234839D01*
X144935Y234955D01*
X144898Y235067D01*
X144844Y235172D01*
X144773Y235267D01*
X144689Y235350D01*
X144593Y235418D01*
X144487Y235469D01*
X144079Y235618D01*
X143658Y235721D01*
X143229Y235784D01*
X142797Y235804D01*
Y272575D01*
X146408Y273035D01*
Y233450D01*
X146335Y233462D01*
X146216Y233463D01*
X146099Y233445D01*
X145986Y233409D01*
X145880Y233356D01*
X145784Y233287D01*
X145699Y233204D01*
X145629Y233109D01*
X145574Y233003D01*
X145537Y232891D01*
X145517Y232774D01*
X145516Y232655D01*
X145534Y232538D01*
X145572Y232426D01*
X145671Y232154D01*
X145740Y231874D01*
X145781Y231588D01*
X145795Y231299D01*
X145781Y231011D01*
X145740Y230725D01*
X145671Y230444D01*
X145575Y230171D01*
X145537Y230060D01*
X145520Y229943D01*
X145521Y229825D01*
X145540Y229709D01*
X145577Y229597D01*
X145632Y229492D01*
X145702Y229397D01*
X145786Y229314D01*
X145882Y229245D01*
X145987Y229192D01*
X146100Y229157D01*
X146217Y229139D01*
X146335Y229140D01*
X146408Y229152D01*
Y223998D01*
G37*
G36*
Y210868D02*X142797Y214479D01*
Y216785D01*
X143501Y216841D01*
X144190Y217006D01*
X144845Y217277D01*
X145448Y217647D01*
X145987Y218107D01*
X146408Y218601D01*
Y210868D01*
G37*
G36*
X139182Y272115D02*X142797Y272575D01*
Y235804D01*
X142795Y235804D01*
X142362Y235784D01*
X141932Y235721D01*
X141511Y235618D01*
X141102Y235474D01*
X140995Y235421D01*
X140899Y235352D01*
X140814Y235269D01*
X140744Y235174D01*
X140689Y235068D01*
X140652Y234956D01*
X140633Y234839D01*
X140632Y234720D01*
X140649Y234603D01*
X140685Y234490D01*
X140738Y234384D01*
X140807Y234288D01*
X140891Y234203D01*
X140986Y234133D01*
X141091Y234078D01*
X141204Y234041D01*
X141321Y234021D01*
X141439Y234020D01*
X141557Y234038D01*
X141669Y234076D01*
X141940Y234175D01*
X142221Y234244D01*
X142507Y234285D01*
X142795Y234299D01*
X142797Y234299D01*
Y228299D01*
X142795Y228299D01*
X142507Y228313D01*
X142221Y228355D01*
X141940Y228424D01*
X141667Y228519D01*
X141556Y228557D01*
X141439Y228575D01*
X141321Y228574D01*
X141205Y228554D01*
X141093Y228517D01*
X140988Y228463D01*
X140893Y228393D01*
X140810Y228309D01*
X140741Y228213D01*
X140688Y228107D01*
X140653Y227995D01*
X140635Y227878D01*
X140636Y227760D01*
X140655Y227643D01*
X140693Y227531D01*
X140747Y227427D01*
X140817Y227332D01*
X140901Y227249D01*
X140997Y227180D01*
X141104Y227129D01*
X141511Y226981D01*
X141932Y226877D01*
X142362Y226815D01*
X142795Y226794D01*
X142797Y226794D01*
Y225813D01*
X142795Y225813D01*
X142089Y225758D01*
X141400Y225592D01*
X140746Y225321D01*
X140142Y224951D01*
X139603Y224491D01*
X139182Y223998D01*
Y229149D01*
X139256Y229136D01*
X139374Y229136D01*
X139491Y229153D01*
X139604Y229189D01*
X139711Y229242D01*
X139807Y229311D01*
X139891Y229394D01*
X139962Y229490D01*
X140016Y229595D01*
X140054Y229708D01*
X140073Y229825D01*
X140074Y229943D01*
X140057Y230061D01*
X140019Y230173D01*
X139920Y230444D01*
X139851Y230725D01*
X139809Y231011D01*
X139795Y231299D01*
X139809Y231588D01*
X139851Y231874D01*
X139920Y232154D01*
X140015Y232427D01*
X140053Y232539D01*
X140071Y232655D01*
X140070Y232773D01*
X140051Y232890D01*
X140013Y233002D01*
X139959Y233107D01*
X139889Y233202D01*
X139805Y233285D01*
X139709Y233353D01*
X139603Y233406D01*
X139491Y233442D01*
X139374Y233459D01*
X139256Y233458D01*
X139182Y233446D01*
Y272115D01*
G37*
G36*
X142797Y214479D02*X139182Y218094D01*
Y218601D01*
X139603Y218107D01*
X140142Y217647D01*
X140746Y217277D01*
X141400Y217006D01*
X142089Y216841D01*
X142795Y216785D01*
X142797Y216785D01*
Y214479D01*
G37*
G36*
X139182Y218094D02*X137143Y220133D01*
X137254Y220593D01*
X137295Y221299D01*
X137254Y222005D01*
X137088Y222694D01*
X136817Y223348D01*
X136447Y223952D01*
X135987Y224491D01*
X135448Y224951D01*
X134845Y225321D01*
X134190Y225592D01*
X133501Y225758D01*
X132795Y225813D01*
X132788Y225813D01*
Y226786D01*
X132795Y226785D01*
X133501Y226841D01*
X134190Y227006D01*
X134845Y227277D01*
X135448Y227647D01*
X135987Y228107D01*
X136447Y228646D01*
X136817Y229250D01*
X137088Y229904D01*
X137254Y230593D01*
X137295Y231299D01*
X137254Y232005D01*
X137088Y232694D01*
X136817Y233348D01*
X136447Y233952D01*
X135987Y234491D01*
X135448Y234951D01*
X134845Y235321D01*
X134190Y235592D01*
X133501Y235758D01*
X132795Y235813D01*
X132788Y235813D01*
Y270920D01*
X137514Y271903D01*
X139182Y272115D01*
Y233446D01*
X139139Y233439D01*
X139027Y233402D01*
X138923Y233348D01*
X138828Y233277D01*
X138745Y233193D01*
X138676Y233097D01*
X138625Y232991D01*
X138477Y232583D01*
X138373Y232162D01*
X138311Y231733D01*
X138290Y231299D01*
X138311Y230866D01*
X138373Y230436D01*
X138477Y230015D01*
X138621Y229606D01*
X138673Y229499D01*
X138742Y229403D01*
X138825Y229318D01*
X138921Y229248D01*
X139026Y229193D01*
X139139Y229156D01*
X139182Y229149D01*
Y223998D01*
X139143Y223952D01*
X138773Y223348D01*
X138502Y222694D01*
X138337Y222005D01*
X138281Y221299D01*
X138337Y220593D01*
X138502Y219904D01*
X138773Y219250D01*
X139143Y218646D01*
X139182Y218601D01*
Y218094D01*
G37*
G36*
X132788Y225813D02*X132089Y225758D01*
X131400Y225592D01*
X130746Y225321D01*
X130142Y224951D01*
X129603Y224491D01*
X129143Y223952D01*
X128773Y223348D01*
X128502Y222694D01*
X128337Y222005D01*
X128281Y221299D01*
X128337Y220593D01*
X128502Y219904D01*
X128773Y219250D01*
X129143Y218646D01*
X129603Y218107D01*
X130142Y217647D01*
X130746Y217277D01*
X131400Y217006D01*
X132089Y216841D01*
X132788Y216786D01*
Y209549D01*
X122788D01*
Y216786D01*
X122795Y216785D01*
X123501Y216841D01*
X124190Y217006D01*
X124845Y217277D01*
X125448Y217647D01*
X125987Y218107D01*
X126447Y218646D01*
X126817Y219250D01*
X127088Y219904D01*
X127254Y220593D01*
X127295Y221299D01*
X127254Y222005D01*
X127088Y222694D01*
X126817Y223348D01*
X126447Y223952D01*
X125987Y224491D01*
X125448Y224951D01*
X124845Y225321D01*
X124190Y225592D01*
X123501Y225758D01*
X122795Y225813D01*
X122788Y225813D01*
Y226786D01*
X122795Y226785D01*
X123501Y226841D01*
X124190Y227006D01*
X124845Y227277D01*
X125448Y227647D01*
X125987Y228107D01*
X126447Y228646D01*
X126817Y229250D01*
X127088Y229904D01*
X127254Y230593D01*
X127295Y231299D01*
X127254Y232005D01*
X127088Y232694D01*
X126817Y233348D01*
X126447Y233952D01*
X125987Y234491D01*
X125448Y234951D01*
X124845Y235321D01*
X124190Y235592D01*
X123501Y235758D01*
X122795Y235813D01*
X122788Y235813D01*
Y268367D01*
X128453Y270018D01*
X132788Y270920D01*
Y235813D01*
X132089Y235758D01*
X131400Y235592D01*
X130746Y235321D01*
X130142Y234951D01*
X129603Y234491D01*
X129143Y233952D01*
X128773Y233348D01*
X128502Y232694D01*
X128337Y232005D01*
X128281Y231299D01*
X128337Y230593D01*
X128502Y229904D01*
X128773Y229250D01*
X129143Y228646D01*
X129603Y228107D01*
X130142Y227647D01*
X130746Y227277D01*
X131400Y227006D01*
X132089Y226841D01*
X132788Y226786D01*
Y225813D01*
G37*
G36*
X122788Y209549D02*X116408D01*
Y218601D01*
X116447Y218646D01*
X116817Y219250D01*
X117088Y219904D01*
X117254Y220593D01*
X117295Y221299D01*
X117254Y222005D01*
X117088Y222694D01*
X116817Y223348D01*
X116447Y223952D01*
X116408Y223998D01*
Y229152D01*
X116451Y229159D01*
X116563Y229197D01*
X116668Y229251D01*
X116763Y229321D01*
X116846Y229405D01*
X116915Y229501D01*
X116965Y229608D01*
X117114Y230015D01*
X117217Y230436D01*
X117280Y230866D01*
X117300Y231299D01*
X117280Y231733D01*
X117217Y232162D01*
X117114Y232583D01*
X116970Y232993D01*
X116918Y233099D01*
X116848Y233196D01*
X116765Y233280D01*
X116670Y233350D01*
X116565Y233405D01*
X116452Y233443D01*
X116408Y233450D01*
Y266232D01*
X119568Y267429D01*
X122788Y268367D01*
Y235813D01*
X122089Y235758D01*
X121400Y235592D01*
X120746Y235321D01*
X120142Y234951D01*
X119603Y234491D01*
X119143Y233952D01*
X118773Y233348D01*
X118502Y232694D01*
X118337Y232005D01*
X118281Y231299D01*
X118337Y230593D01*
X118502Y229904D01*
X118773Y229250D01*
X119143Y228646D01*
X119603Y228107D01*
X120142Y227647D01*
X120746Y227277D01*
X121400Y227006D01*
X122089Y226841D01*
X122788Y226786D01*
Y225813D01*
X122089Y225758D01*
X121400Y225592D01*
X120746Y225321D01*
X120142Y224951D01*
X119603Y224491D01*
X119143Y223952D01*
X118773Y223348D01*
X118502Y222694D01*
X118337Y222005D01*
X118281Y221299D01*
X118337Y220593D01*
X118502Y219904D01*
X118773Y219250D01*
X119143Y218646D01*
X119603Y218107D01*
X120142Y217647D01*
X120746Y217277D01*
X121400Y217006D01*
X122089Y216841D01*
X122788Y216786D01*
Y209549D01*
G37*
G36*
X112797Y264863D02*X116408Y266232D01*
Y233450D01*
X116335Y233462D01*
X116216Y233463D01*
X116099Y233445D01*
X115986Y233409D01*
X115880Y233356D01*
X115784Y233287D01*
X115699Y233204D01*
X115629Y233109D01*
X115574Y233003D01*
X115537Y232891D01*
X115517Y232774D01*
X115516Y232655D01*
X115534Y232538D01*
X115572Y232426D01*
X115671Y232154D01*
X115740Y231874D01*
X115781Y231588D01*
X115795Y231299D01*
X115781Y231011D01*
X115740Y230725D01*
X115671Y230444D01*
X115575Y230171D01*
X115537Y230060D01*
X115520Y229943D01*
X115521Y229825D01*
X115540Y229709D01*
X115577Y229597D01*
X115632Y229492D01*
X115702Y229397D01*
X115786Y229314D01*
X115882Y229245D01*
X115987Y229192D01*
X116100Y229157D01*
X116217Y229139D01*
X116335Y229140D01*
X116408Y229152D01*
Y223998D01*
X115987Y224491D01*
X115448Y224951D01*
X114845Y225321D01*
X114190Y225592D01*
X113501Y225758D01*
X112797Y225813D01*
Y226794D01*
X113229Y226815D01*
X113658Y226877D01*
X114079Y226981D01*
X114489Y227124D01*
X114595Y227177D01*
X114692Y227246D01*
X114776Y227329D01*
X114847Y227425D01*
X114901Y227530D01*
X114939Y227642D01*
X114958Y227759D01*
X114959Y227878D01*
X114941Y227995D01*
X114905Y228108D01*
X114852Y228214D01*
X114783Y228311D01*
X114700Y228395D01*
X114605Y228466D01*
X114499Y228520D01*
X114387Y228558D01*
X114270Y228577D01*
X114151Y228578D01*
X114034Y228560D01*
X113922Y228522D01*
X113650Y228424D01*
X113370Y228355D01*
X113084Y228313D01*
X112797Y228299D01*
Y234299D01*
X113084Y234285D01*
X113370Y234244D01*
X113650Y234175D01*
X113923Y234079D01*
X114035Y234041D01*
X114151Y234024D01*
X114270Y234025D01*
X114386Y234044D01*
X114497Y234081D01*
X114498Y234081D01*
X114603Y234136D01*
X114698Y234206D01*
X114781Y234290D01*
X114849Y234386D01*
X114902Y234491D01*
X114938Y234604D01*
X114955Y234721D01*
X114955Y234839D01*
X114935Y234955D01*
X114898Y235067D01*
X114844Y235172D01*
X114773Y235267D01*
X114689Y235350D01*
X114593Y235418D01*
X114487Y235469D01*
X114079Y235618D01*
X113658Y235721D01*
X113229Y235784D01*
X112797Y235804D01*
Y264863D01*
G37*
G36*
X109182Y263333D02*X110913Y264150D01*
X112797Y264863D01*
Y235804D01*
X112795Y235804D01*
X112362Y235784D01*
X111932Y235721D01*
X111511Y235618D01*
X111487Y235609D01*
X111102Y235474D01*
X110995Y235421D01*
X110899Y235352D01*
X110814Y235269D01*
X110744Y235174D01*
X110689Y235068D01*
X110652Y234956D01*
X110633Y234839D01*
X110632Y234720D01*
X110649Y234603D01*
X110685Y234490D01*
X110738Y234384D01*
X110807Y234288D01*
X110891Y234203D01*
X110986Y234133D01*
X111091Y234078D01*
X111204Y234041D01*
X111321Y234021D01*
X111439Y234020D01*
X111487Y234028D01*
X111557Y234038D01*
X111669Y234076D01*
X111940Y234175D01*
X112221Y234244D01*
X112507Y234285D01*
X112795Y234299D01*
X112797Y234299D01*
Y228299D01*
X112795Y228299D01*
X112507Y228313D01*
X112221Y228355D01*
X111940Y228424D01*
X111667Y228519D01*
X111556Y228557D01*
X111439Y228575D01*
X111321Y228574D01*
X111205Y228554D01*
X111093Y228517D01*
X110988Y228463D01*
X110893Y228393D01*
X110810Y228309D01*
X110741Y228213D01*
X110688Y228107D01*
X110653Y227995D01*
X110635Y227878D01*
X110636Y227760D01*
X110655Y227643D01*
X110693Y227531D01*
X110747Y227427D01*
X110817Y227332D01*
X110901Y227249D01*
X110997Y227180D01*
X111104Y227129D01*
X111511Y226981D01*
X111932Y226877D01*
X112362Y226815D01*
X112795Y226794D01*
X112797Y226794D01*
Y225813D01*
X112795Y225813D01*
X112089Y225758D01*
X111400Y225592D01*
X110746Y225321D01*
X110142Y224951D01*
X109603Y224491D01*
X109182Y223998D01*
Y229149D01*
X109256Y229136D01*
X109374Y229136D01*
X109491Y229153D01*
X109604Y229189D01*
X109711Y229242D01*
X109807Y229311D01*
X109891Y229394D01*
X109962Y229490D01*
X110016Y229595D01*
X110054Y229708D01*
X110073Y229825D01*
X110074Y229943D01*
X110057Y230061D01*
X110019Y230173D01*
X109920Y230444D01*
X109851Y230725D01*
X109809Y231011D01*
X109795Y231299D01*
X109809Y231588D01*
X109851Y231874D01*
X109920Y232154D01*
X110015Y232427D01*
X110053Y232539D01*
X110071Y232655D01*
X110070Y232773D01*
X110051Y232890D01*
X110013Y233002D01*
X109959Y233107D01*
X109889Y233202D01*
X109805Y233285D01*
X109709Y233353D01*
X109603Y233406D01*
X109491Y233442D01*
X109374Y233459D01*
X109256Y233458D01*
X109182Y233446D01*
Y263333D01*
G37*
G36*
X116408Y209549D02*X109182D01*
Y218601D01*
X109603Y218107D01*
X110142Y217647D01*
X110746Y217277D01*
X111400Y217006D01*
X112089Y216841D01*
X112795Y216785D01*
X113501Y216841D01*
X114190Y217006D01*
X114845Y217277D01*
X115448Y217647D01*
X115987Y218107D01*
X116408Y218601D01*
Y209549D01*
G37*
G36*
X109182D02*X102788D01*
Y216786D01*
X102795Y216785D01*
X103501Y216841D01*
X104190Y217006D01*
X104845Y217277D01*
X105448Y217647D01*
X105987Y218107D01*
X106447Y218646D01*
X106817Y219250D01*
X107088Y219904D01*
X107254Y220593D01*
X107295Y221299D01*
X107254Y222005D01*
X107088Y222694D01*
X106817Y223348D01*
X106447Y223952D01*
X105987Y224491D01*
X105448Y224951D01*
X104845Y225321D01*
X104190Y225592D01*
X103501Y225758D01*
X102795Y225813D01*
X102788Y225813D01*
Y226786D01*
X102795Y226785D01*
X103501Y226841D01*
X104190Y227006D01*
X104845Y227277D01*
X105448Y227647D01*
X105987Y228107D01*
X106447Y228646D01*
X106817Y229250D01*
X107088Y229904D01*
X107254Y230593D01*
X107295Y231299D01*
X107254Y232005D01*
X107088Y232694D01*
X106817Y233348D01*
X106447Y233952D01*
X105987Y234491D01*
X105448Y234951D01*
X104845Y235321D01*
X104256Y235565D01*
Y249998D01*
X104407Y250090D01*
X104742Y250376D01*
X105028Y250711D01*
X105258Y251087D01*
X105427Y251494D01*
X105530Y251923D01*
X105556Y252362D01*
X105530Y252802D01*
X105427Y253230D01*
X105258Y253637D01*
X105028Y254013D01*
X104742Y254348D01*
X104407Y254634D01*
X104031Y254865D01*
X103624Y255033D01*
X103195Y255136D01*
X102788Y255168D01*
Y260318D01*
X109182Y263333D01*
Y233446D01*
X109139Y233439D01*
X109027Y233402D01*
X108923Y233348D01*
X108828Y233277D01*
X108745Y233193D01*
X108676Y233097D01*
X108625Y232991D01*
X108477Y232583D01*
X108373Y232162D01*
X108311Y231733D01*
X108290Y231299D01*
X108311Y230866D01*
X108373Y230436D01*
X108477Y230015D01*
X108621Y229606D01*
X108673Y229499D01*
X108742Y229403D01*
X108825Y229318D01*
X108921Y229248D01*
X109026Y229193D01*
X109139Y229156D01*
X109182Y229149D01*
Y223998D01*
X109143Y223952D01*
X108773Y223348D01*
X108502Y222694D01*
X108337Y222005D01*
X108281Y221299D01*
X108337Y220593D01*
X108502Y219904D01*
X108773Y219250D01*
X109143Y218646D01*
X109182Y218601D01*
Y209549D01*
G37*
G36*
X102788D02*X96408D01*
Y219152D01*
X96451Y219159D01*
X96563Y219197D01*
X96668Y219251D01*
X96763Y219321D01*
X96846Y219405D01*
X96915Y219501D01*
X96965Y219608D01*
X97114Y220015D01*
X97217Y220436D01*
X97280Y220866D01*
X97300Y221299D01*
X97280Y221733D01*
X97217Y222162D01*
X97114Y222583D01*
X96970Y222993D01*
X96918Y223099D01*
X96848Y223196D01*
X96765Y223280D01*
X96670Y223350D01*
X96565Y223405D01*
X96452Y223443D01*
X96408Y223450D01*
Y228601D01*
X96447Y228646D01*
X96817Y229250D01*
X97088Y229904D01*
X97254Y230593D01*
X97295Y231299D01*
X97254Y232005D01*
X97088Y232694D01*
X96817Y233348D01*
X96447Y233952D01*
X96408Y233998D01*
Y256696D01*
X102543Y260202D01*
X102788Y260318D01*
Y255168D01*
X102756Y255171D01*
X102317Y255136D01*
X101888Y255033D01*
X101481Y254865D01*
X101105Y254634D01*
X100770Y254348D01*
X100484Y254013D01*
X100253Y253637D01*
X100085Y253230D01*
X99982Y252802D01*
X99947Y252362D01*
X99982Y251923D01*
X100085Y251494D01*
X100253Y251087D01*
X100484Y250711D01*
X100770Y250376D01*
X101105Y250090D01*
X101256Y249998D01*
Y235532D01*
X100746Y235321D01*
X100142Y234951D01*
X99603Y234491D01*
X99143Y233952D01*
X98773Y233348D01*
X98502Y232694D01*
X98337Y232005D01*
X98281Y231299D01*
X98337Y230593D01*
X98502Y229904D01*
X98773Y229250D01*
X99143Y228646D01*
X99603Y228107D01*
X100142Y227647D01*
X100746Y227277D01*
X101400Y227006D01*
X102089Y226841D01*
X102788Y226786D01*
Y225813D01*
X102089Y225758D01*
X101400Y225592D01*
X100746Y225321D01*
X100142Y224951D01*
X99603Y224491D01*
X99143Y223952D01*
X98773Y223348D01*
X98502Y222694D01*
X98337Y222005D01*
X98281Y221299D01*
X98337Y220593D01*
X98502Y219904D01*
X98773Y219250D01*
X99143Y218646D01*
X99603Y218107D01*
X100142Y217647D01*
X100746Y217277D01*
X101400Y217006D01*
X102089Y216841D01*
X102788Y216786D01*
Y209549D01*
G37*
G36*
X92794Y254442D02*X94508Y255610D01*
X96408Y256696D01*
Y233998D01*
X95987Y234491D01*
X95448Y234951D01*
X94845Y235321D01*
X94190Y235592D01*
X93610Y235732D01*
X93501Y235758D01*
X92795Y235813D01*
X92794Y235813D01*
Y254442D01*
G37*
G36*
X96408Y209549D02*X92794D01*
Y216794D01*
X92795Y216794D01*
X93229Y216815D01*
X93658Y216877D01*
X94079Y216981D01*
X94489Y217124D01*
X94595Y217177D01*
X94692Y217246D01*
X94776Y217329D01*
X94847Y217425D01*
X94901Y217530D01*
X94939Y217642D01*
X94958Y217759D01*
X94959Y217878D01*
X94941Y217995D01*
X94905Y218108D01*
X94852Y218214D01*
X94783Y218311D01*
X94700Y218395D01*
X94605Y218466D01*
X94499Y218520D01*
X94387Y218558D01*
X94270Y218577D01*
X94151Y218578D01*
X94034Y218560D01*
X93922Y218522D01*
X93650Y218424D01*
X93610Y218414D01*
X93370Y218355D01*
X93084Y218313D01*
X92795Y218299D01*
X92794Y218299D01*
Y224299D01*
X92795Y224299D01*
X93084Y224285D01*
X93370Y224244D01*
X93610Y224185D01*
X93650Y224175D01*
X93923Y224079D01*
X94035Y224041D01*
X94151Y224024D01*
X94270Y224025D01*
X94386Y224044D01*
X94498Y224081D01*
X94603Y224136D01*
X94698Y224206D01*
X94781Y224290D01*
X94849Y224386D01*
X94902Y224491D01*
X94938Y224604D01*
X94955Y224721D01*
X94955Y224839D01*
X94935Y224955D01*
X94898Y225067D01*
X94844Y225172D01*
X94773Y225267D01*
X94689Y225350D01*
X94593Y225418D01*
X94487Y225469D01*
X94079Y225618D01*
X93658Y225721D01*
X93229Y225784D01*
X92795Y225804D01*
X92794Y225804D01*
Y226785D01*
X92795Y226785D01*
X93501Y226841D01*
X93610Y226867D01*
X94190Y227006D01*
X94845Y227277D01*
X95448Y227647D01*
X95987Y228107D01*
X96408Y228601D01*
Y223450D01*
X96335Y223462D01*
X96216Y223463D01*
X96099Y223445D01*
X95986Y223409D01*
X95880Y223356D01*
X95784Y223287D01*
X95699Y223204D01*
X95629Y223109D01*
X95574Y223003D01*
X95537Y222891D01*
X95517Y222774D01*
X95516Y222655D01*
X95534Y222538D01*
X95572Y222426D01*
X95671Y222154D01*
X95740Y221874D01*
X95781Y221588D01*
X95795Y221299D01*
X95781Y221011D01*
X95740Y220725D01*
X95671Y220444D01*
X95575Y220171D01*
X95537Y220060D01*
X95520Y219943D01*
X95521Y219825D01*
X95540Y219709D01*
X95577Y219597D01*
X95632Y219492D01*
X95702Y219397D01*
X95786Y219314D01*
X95882Y219245D01*
X95987Y219192D01*
X96100Y219157D01*
X96217Y219139D01*
X96335Y219140D01*
X96408Y219152D01*
Y209549D01*
G37*
G36*
X89182Y251983D02*X90239Y252703D01*
X92794Y254442D01*
Y235813D01*
X92089Y235758D01*
X91400Y235592D01*
X90746Y235321D01*
X90142Y234951D01*
X89603Y234491D01*
X89182Y233998D01*
Y251983D01*
G37*
G36*
X92794Y209549D02*X89182D01*
Y219149D01*
X89256Y219136D01*
X89374Y219136D01*
X89491Y219153D01*
X89604Y219189D01*
X89711Y219242D01*
X89807Y219311D01*
X89891Y219394D01*
X89962Y219490D01*
X90016Y219595D01*
X90054Y219708D01*
X90073Y219825D01*
X90074Y219943D01*
X90057Y220061D01*
X90019Y220173D01*
X89920Y220444D01*
X89851Y220725D01*
X89809Y221011D01*
X89795Y221299D01*
X89809Y221588D01*
X89851Y221874D01*
X89920Y222154D01*
X90015Y222427D01*
X90053Y222539D01*
X90071Y222655D01*
X90070Y222773D01*
X90051Y222890D01*
X90013Y223002D01*
X89959Y223107D01*
X89889Y223202D01*
X89805Y223285D01*
X89709Y223353D01*
X89603Y223406D01*
X89491Y223442D01*
X89374Y223459D01*
X89256Y223458D01*
X89182Y223446D01*
Y228601D01*
X89603Y228107D01*
X90142Y227647D01*
X90746Y227277D01*
X91400Y227006D01*
X92089Y226841D01*
X92794Y226785D01*
Y225804D01*
X92362Y225784D01*
X91932Y225721D01*
X91511Y225618D01*
X91102Y225474D01*
X90995Y225421D01*
X90899Y225352D01*
X90814Y225269D01*
X90744Y225174D01*
X90689Y225068D01*
X90652Y224956D01*
X90633Y224839D01*
X90632Y224720D01*
X90649Y224603D01*
X90685Y224490D01*
X90738Y224384D01*
X90807Y224288D01*
X90891Y224203D01*
X90986Y224133D01*
X91091Y224078D01*
X91204Y224041D01*
X91321Y224021D01*
X91439Y224020D01*
X91557Y224038D01*
X91669Y224076D01*
X91940Y224175D01*
X92221Y224244D01*
X92507Y224285D01*
X92794Y224299D01*
Y218299D01*
X92507Y218313D01*
X92221Y218355D01*
X91940Y218424D01*
X91667Y218519D01*
X91556Y218557D01*
X91439Y218575D01*
X91321Y218574D01*
X91205Y218554D01*
X91093Y218517D01*
X90988Y218463D01*
X90893Y218393D01*
X90810Y218309D01*
X90741Y218213D01*
X90688Y218107D01*
X90653Y217995D01*
X90635Y217878D01*
X90636Y217760D01*
X90655Y217643D01*
X90693Y217531D01*
X90747Y217427D01*
X90817Y217332D01*
X90901Y217249D01*
X90997Y217180D01*
X91104Y217129D01*
X91511Y216981D01*
X91932Y216877D01*
X92362Y216815D01*
X92794Y216794D01*
Y209549D01*
G37*
G36*
X89182D02*X84968D01*
Y217353D01*
X85448Y217647D01*
X85987Y218107D01*
X86447Y218646D01*
X86817Y219250D01*
X87088Y219904D01*
X87254Y220593D01*
X87295Y221299D01*
X87254Y222005D01*
X87088Y222694D01*
X86817Y223348D01*
X86447Y223952D01*
X85987Y224491D01*
X85448Y224951D01*
X84968Y225245D01*
Y227353D01*
X85448Y227647D01*
X85987Y228107D01*
X86447Y228646D01*
X86817Y229250D01*
X87088Y229904D01*
X87254Y230593D01*
X87295Y231299D01*
X87254Y232005D01*
X87088Y232694D01*
X86817Y233348D01*
X86447Y233952D01*
X85987Y234491D01*
X85448Y234951D01*
X84968Y235245D01*
Y244399D01*
X85342D01*
Y244417D01*
X85039Y244430D01*
X84968Y244425D01*
Y248884D01*
X86858Y250401D01*
X89182Y251983D01*
Y233998D01*
X89143Y233952D01*
X88773Y233348D01*
X88502Y232694D01*
X88337Y232005D01*
X88281Y231299D01*
X88337Y230593D01*
X88502Y229904D01*
X88773Y229250D01*
X89143Y228646D01*
X89182Y228601D01*
Y223446D01*
X89139Y223439D01*
X89027Y223402D01*
X88923Y223348D01*
X88828Y223277D01*
X88745Y223193D01*
X88676Y223097D01*
X88625Y222991D01*
X88477Y222583D01*
X88373Y222162D01*
X88311Y221733D01*
X88290Y221299D01*
X88311Y220866D01*
X88373Y220436D01*
X88477Y220015D01*
X88621Y219606D01*
X88673Y219499D01*
X88742Y219403D01*
X88825Y219318D01*
X88921Y219248D01*
X89026Y219193D01*
X89139Y219156D01*
X89182Y219149D01*
Y209549D01*
G37*
G36*
X84968Y235245D02*X84845Y235321D01*
X84190Y235592D01*
X83501Y235758D01*
X82795Y235813D01*
X82788Y235813D01*
Y247135D01*
X84968Y248884D01*
Y244425D01*
X84594Y244399D01*
X84968D01*
Y235245D01*
G37*
G36*
Y225245D02*X84845Y225321D01*
X84190Y225592D01*
X83501Y225758D01*
X82795Y225813D01*
X82788Y225813D01*
Y226786D01*
X82795Y226785D01*
X83501Y226841D01*
X84190Y227006D01*
X84845Y227277D01*
X84968Y227353D01*
Y225245D01*
G37*
G36*
Y209549D02*X82788D01*
Y216786D01*
X82795Y216785D01*
X83501Y216841D01*
X84190Y217006D01*
X84845Y217277D01*
X84968Y217353D01*
Y209549D01*
G37*
G36*
X82788D02*X75251D01*
Y217526D01*
X75448Y217647D01*
X75987Y218107D01*
X76447Y218646D01*
X76817Y219250D01*
X77088Y219904D01*
X77254Y220593D01*
X77295Y221299D01*
X77254Y222005D01*
X77088Y222694D01*
X76817Y223348D01*
X76447Y223952D01*
X75987Y224491D01*
X75448Y224951D01*
X75251Y225072D01*
Y227525D01*
X75312Y227562D01*
X75660Y227822D01*
X75981Y228114D01*
X76273Y228435D01*
X76532Y228783D01*
X76757Y229154D01*
X76945Y229545D01*
X76983Y229657D01*
X77002Y229774D01*
X77003Y229893D01*
X76985Y230010D01*
X76950Y230123D01*
X76897Y230229D01*
X76828Y230326D01*
X76744Y230410D01*
X76649Y230480D01*
X76544Y230535D01*
X76431Y230573D01*
X76314Y230592D01*
X76195Y230593D01*
X76078Y230575D01*
X75965Y230539D01*
X75859Y230486D01*
X75763Y230417D01*
X75678Y230334D01*
X75608Y230238D01*
X75555Y230132D01*
X75433Y229871D01*
X75284Y229623D01*
X75251Y229579D01*
Y233019D01*
X75284Y232975D01*
X75433Y232728D01*
X75558Y232467D01*
X75611Y232362D01*
X75681Y232267D01*
X75765Y232184D01*
X75861Y232115D01*
X75966Y232062D01*
X76079Y232027D01*
X76196Y232009D01*
X76314Y232010D01*
X76430Y232029D01*
X76542Y232067D01*
X76647Y232121D01*
X76742Y232191D01*
X76825Y232275D01*
X76894Y232371D01*
X76946Y232477D01*
X76982Y232589D01*
X77000Y232706D01*
X76999Y232824D01*
X76979Y232940D01*
X76940Y233052D01*
X76757Y233445D01*
X76532Y233816D01*
X76273Y234164D01*
X75981Y234485D01*
X75660Y234777D01*
X75312Y235036D01*
X75251Y235073D01*
Y240479D01*
X79640Y244608D01*
X82788Y247135D01*
Y235813D01*
X82089Y235758D01*
X81400Y235592D01*
X80746Y235321D01*
X80142Y234951D01*
X79603Y234491D01*
X79143Y233952D01*
X78773Y233348D01*
X78502Y232694D01*
X78337Y232005D01*
X78281Y231299D01*
X78337Y230593D01*
X78502Y229904D01*
X78773Y229250D01*
X79143Y228646D01*
X79603Y228107D01*
X80142Y227647D01*
X80746Y227277D01*
X81400Y227006D01*
X82089Y226841D01*
X82788Y226786D01*
Y225813D01*
X82089Y225758D01*
X81400Y225592D01*
X80746Y225321D01*
X80142Y224951D01*
X79603Y224491D01*
X79143Y223952D01*
X78773Y223348D01*
X78502Y222694D01*
X78337Y222005D01*
X78281Y221299D01*
X78337Y220593D01*
X78502Y219904D01*
X78773Y219250D01*
X79143Y218646D01*
X79603Y218107D01*
X80142Y217647D01*
X80746Y217277D01*
X81400Y217006D01*
X82089Y216841D01*
X82788Y216786D01*
Y209549D01*
G37*
G36*
X70336Y235389D02*X70714Y235813D01*
X72899Y238267D01*
X75251Y240479D01*
Y235073D01*
X74941Y235261D01*
X74550Y235449D01*
X74437Y235487D01*
X74320Y235506D01*
X74202Y235507D01*
X74085Y235489D01*
X73971Y235454D01*
X73865Y235400D01*
X73769Y235331D01*
X73684Y235248D01*
X73614Y235153D01*
X73559Y235048D01*
X73522Y234935D01*
X73503Y234818D01*
X73502Y234699D01*
X73519Y234582D01*
X73555Y234469D01*
X73608Y234363D01*
X73677Y234267D01*
X73761Y234182D01*
X73856Y234112D01*
X73962Y234059D01*
X74224Y233937D01*
X74471Y233788D01*
X74703Y233615D01*
X74917Y233421D01*
X75111Y233207D01*
X75251Y233019D01*
Y229579D01*
X75111Y229392D01*
X74917Y229178D01*
X74703Y228984D01*
X74471Y228811D01*
X74224Y228661D01*
X73964Y228536D01*
X73858Y228484D01*
X73763Y228414D01*
X73680Y228330D01*
X73611Y228234D01*
X73558Y228128D01*
X73523Y228016D01*
X73505Y227899D01*
X73506Y227781D01*
X73525Y227664D01*
X73563Y227552D01*
X73617Y227447D01*
X73687Y227352D01*
X73771Y227270D01*
X73867Y227201D01*
X73973Y227148D01*
X74085Y227112D01*
X74202Y227095D01*
X74320Y227096D01*
X74437Y227115D01*
X74548Y227154D01*
X74941Y227338D01*
X75251Y227525D01*
Y225072D01*
X74845Y225321D01*
X74190Y225592D01*
X73501Y225758D01*
X72795Y225813D01*
X72089Y225758D01*
X71400Y225592D01*
X70746Y225321D01*
X70336Y225070D01*
Y227527D01*
X70650Y227338D01*
X71041Y227150D01*
X71153Y227112D01*
X71270Y227092D01*
X71389Y227091D01*
X71506Y227109D01*
X71619Y227145D01*
X71725Y227198D01*
X71822Y227267D01*
X71906Y227350D01*
X71976Y227446D01*
X72031Y227551D01*
X72069Y227663D01*
X72088Y227780D01*
X72089Y227899D01*
X72071Y228016D01*
X72035Y228129D01*
X71982Y228235D01*
X71913Y228332D01*
X71830Y228416D01*
X71735Y228487D01*
X71628Y228539D01*
X71367Y228661D01*
X71119Y228811D01*
X70888Y228984D01*
X70674Y229178D01*
X70480Y229392D01*
X70336Y229584D01*
Y233014D01*
X70480Y233207D01*
X70674Y233421D01*
X70888Y233615D01*
X71119Y233788D01*
X71367Y233937D01*
X71627Y234062D01*
X71733Y234115D01*
X71828Y234185D01*
X71911Y234269D01*
X71979Y234365D01*
X72032Y234470D01*
X72068Y234583D01*
X72085Y234700D01*
X72084Y234818D01*
X72065Y234934D01*
X72028Y235046D01*
X71974Y235151D01*
X71903Y235246D01*
X71819Y235329D01*
X71723Y235397D01*
X71618Y235450D01*
X71505Y235486D01*
X71389Y235504D01*
X71270Y235503D01*
X71154Y235483D01*
X71043Y235444D01*
X70650Y235261D01*
X70336Y235071D01*
Y235389D01*
G37*
G36*
X75251Y209549D02*X70336D01*
Y217528D01*
X70746Y217277D01*
X71400Y217006D01*
X72089Y216841D01*
X72795Y216785D01*
X73501Y216841D01*
X74190Y217006D01*
X74845Y217277D01*
X75251Y217526D01*
Y209549D01*
G37*
G36*
X70336D02*X67727D01*
X62788Y214488D01*
Y216786D01*
X62795Y216785D01*
X63501Y216841D01*
X64190Y217006D01*
X64845Y217277D01*
X65448Y217647D01*
X65987Y218107D01*
X66447Y218646D01*
X66817Y219250D01*
X67088Y219904D01*
X67254Y220593D01*
X67295Y221299D01*
X67254Y222005D01*
X67088Y222694D01*
X66817Y223348D01*
X66447Y223952D01*
X65987Y224491D01*
X65448Y224951D01*
X64845Y225321D01*
X64190Y225592D01*
X63501Y225758D01*
X62795Y225813D01*
X62788Y225813D01*
Y226786D01*
X62795Y226785D01*
X63501Y226841D01*
X64190Y227006D01*
X64845Y227277D01*
X65448Y227647D01*
X65987Y228107D01*
X66447Y228646D01*
X66817Y229250D01*
X67088Y229904D01*
X67254Y230593D01*
X67295Y231299D01*
X67258Y231932D01*
X70336Y235389D01*
Y235071D01*
X70279Y235036D01*
X69931Y234777D01*
X69610Y234485D01*
X69318Y234164D01*
X69058Y233816D01*
X68834Y233445D01*
X68646Y233054D01*
X68608Y232941D01*
X68588Y232824D01*
X68587Y232706D01*
X68605Y232588D01*
X68641Y232475D01*
X68694Y232369D01*
X68763Y232273D01*
X68846Y232188D01*
X68942Y232118D01*
X69047Y232063D01*
X69159Y232026D01*
X69276Y232007D01*
X69395Y232006D01*
X69512Y232023D01*
X69625Y232059D01*
X69731Y232112D01*
X69828Y232181D01*
X69912Y232264D01*
X69983Y232360D01*
X70035Y232466D01*
X70157Y232728D01*
X70307Y232975D01*
X70336Y233014D01*
Y229584D01*
X70307Y229623D01*
X70157Y229871D01*
X70032Y230131D01*
X69980Y230237D01*
X69910Y230332D01*
X69826Y230415D01*
X69730Y230483D01*
X69624Y230536D01*
X69512Y230572D01*
X69395Y230589D01*
X69277Y230588D01*
X69160Y230569D01*
X69048Y230532D01*
X68944Y230477D01*
X68849Y230407D01*
X68766Y230323D01*
X68697Y230227D01*
X68644Y230122D01*
X68609Y230009D01*
X68591Y229892D01*
X68592Y229774D01*
X68611Y229658D01*
X68651Y229547D01*
X68834Y229154D01*
X69058Y228783D01*
X69318Y228435D01*
X69610Y228114D01*
X69931Y227822D01*
X70279Y227562D01*
X70336Y227527D01*
Y225070D01*
X70142Y224951D01*
X69603Y224491D01*
X69143Y223952D01*
X68773Y223348D01*
X68502Y222694D01*
X68337Y222005D01*
X68281Y221299D01*
X68337Y220593D01*
X68502Y219904D01*
X68773Y219250D01*
X69143Y218646D01*
X69603Y218107D01*
X70142Y217647D01*
X70336Y217528D01*
Y209549D01*
G37*
G36*
X62788Y214488D02*X57292Y219985D01*
X57281Y224535D01*
X57226Y224764D01*
X57136Y224982D01*
X57013Y225184D01*
X56859Y225363D01*
X56680Y225516D01*
X56478Y225640D01*
X56260Y225730D01*
X56031Y225785D01*
X55795Y225799D01*
X53633Y225794D01*
X49560Y225785D01*
X49330Y225730D01*
X49112Y225640D01*
X48911Y225516D01*
X48731Y225363D01*
X48578Y225184D01*
X48500Y225056D01*
Y226879D01*
X49671Y228050D01*
X50142Y227647D01*
X50746Y227277D01*
X51400Y227006D01*
X52089Y226841D01*
X52795Y226785D01*
X53501Y226841D01*
X53633Y226872D01*
X54190Y227006D01*
X54845Y227277D01*
X55448Y227647D01*
X55987Y228107D01*
X56151Y228299D01*
X59440D01*
X59603Y228107D01*
X60142Y227647D01*
X60746Y227277D01*
X61400Y227006D01*
X62089Y226841D01*
X62788Y226786D01*
Y225813D01*
X62089Y225758D01*
X61400Y225592D01*
X60746Y225321D01*
X60142Y224951D01*
X59603Y224491D01*
X59143Y223952D01*
X58773Y223348D01*
X58502Y222694D01*
X58337Y222005D01*
X58281Y221299D01*
X58337Y220593D01*
X58502Y219904D01*
X58773Y219250D01*
X59143Y218646D01*
X59603Y218107D01*
X60142Y217647D01*
X60746Y217277D01*
X61400Y217006D01*
X62089Y216841D01*
X62788Y216786D01*
Y214488D01*
G37*
G36*
X161829Y43006D02*X160161Y42897D01*
X160147Y42955D01*
X160087Y43100D01*
X160005Y43234D01*
X159903Y43354D01*
X159783Y43456D01*
X159649Y43539D01*
X159503Y43599D01*
X159350Y43636D01*
X159193Y43645D01*
X155453Y43640D01*
Y48342D01*
X159350Y48346D01*
X159503Y48383D01*
X159649Y48443D01*
X159783Y48526D01*
X159903Y48628D01*
X160005Y48747D01*
X160087Y48882D01*
X160147Y49027D01*
X160184Y49180D01*
X160193Y49337D01*
X160184Y54612D01*
X160147Y54765D01*
X160087Y54910D01*
X160005Y55045D01*
X159903Y55164D01*
X159783Y55267D01*
X159649Y55349D01*
X159503Y55409D01*
X159350Y55446D01*
X159193Y55455D01*
X155453Y55451D01*
Y205049D01*
X161829D01*
Y43006D01*
G37*
G36*
X155453Y43640D02*X151556Y43636D01*
X151403Y43599D01*
X151258Y43539D01*
X151123Y43456D01*
X151004Y43354D01*
X150902Y43234D01*
X150819Y43100D01*
X150759Y42955D01*
X150753Y42928D01*
X149741Y42941D01*
X140525Y43788D01*
X138669Y44107D01*
Y82535D01*
X138677Y82535D01*
X139451Y82596D01*
X140207Y82777D01*
X140925Y83075D01*
X141588Y83481D01*
X142179Y83985D01*
X142683Y84576D01*
X143089Y85239D01*
X143387Y85957D01*
X143568Y86712D01*
X143614Y87487D01*
X143568Y88262D01*
X143387Y89017D01*
X143089Y89735D01*
X142683Y90398D01*
X142179Y90989D01*
X141588Y91494D01*
X140925Y91900D01*
X140207Y92197D01*
X139451Y92378D01*
X138677Y92439D01*
X138669Y92439D01*
Y165299D01*
X139931D01*
X140023Y165148D01*
X140309Y164813D01*
X140644Y164527D01*
X141020Y164297D01*
X141427Y164128D01*
X141856Y164025D01*
X142295Y163991D01*
X142735Y164025D01*
X143163Y164128D01*
X143570Y164297D01*
X143946Y164527D01*
X144281Y164813D01*
X144568Y165148D01*
X144798Y165524D01*
X144966Y165931D01*
X145069Y166360D01*
X145095Y166799D01*
X145069Y167239D01*
X144966Y167667D01*
X144798Y168074D01*
X144568Y168450D01*
X144281Y168785D01*
X143946Y169071D01*
X143570Y169302D01*
X143163Y169470D01*
X142735Y169573D01*
X142295Y169608D01*
X141856Y169573D01*
X141427Y169470D01*
X141020Y169302D01*
X140644Y169071D01*
X140309Y168785D01*
X140023Y168450D01*
X139931Y168299D01*
X138669D01*
Y173299D01*
X145174D01*
X147295Y171178D01*
Y141164D01*
X147144Y141071D01*
X146809Y140785D01*
X146523Y140450D01*
X146293Y140074D01*
X146124Y139667D01*
X146021Y139239D01*
X145987Y138799D01*
X146021Y138360D01*
X146124Y137931D01*
X146293Y137524D01*
X146523Y137148D01*
X146809Y136813D01*
X147144Y136527D01*
X147520Y136297D01*
X147927Y136128D01*
X148356Y136025D01*
X148795Y135991D01*
X149235Y136025D01*
X149663Y136128D01*
X150070Y136297D01*
X150446Y136527D01*
X150781Y136813D01*
X151068Y137148D01*
X151298Y137524D01*
X151466Y137931D01*
X151569Y138360D01*
X151595Y138799D01*
X151569Y139239D01*
X151466Y139667D01*
X151298Y140074D01*
X151068Y140450D01*
X150781Y140785D01*
X150446Y141071D01*
X150295Y141164D01*
Y171740D01*
X150300Y171799D01*
X150281Y172035D01*
X150226Y172264D01*
X150136Y172482D01*
X150013Y172684D01*
X149859Y172863D01*
X149814Y172901D01*
X146898Y175818D01*
X146859Y175863D01*
X146680Y176016D01*
X146478Y176140D01*
X146260Y176230D01*
X146031Y176285D01*
X145795Y176304D01*
X145736Y176299D01*
X138669D01*
Y205049D01*
X146707D01*
X146795Y205042D01*
X146883Y205049D01*
X155453D01*
Y55451D01*
X151556Y55446D01*
X151403Y55409D01*
X151258Y55349D01*
X151123Y55267D01*
X151004Y55164D01*
X150902Y55045D01*
X150819Y54910D01*
X150759Y54765D01*
X150722Y54612D01*
X150713Y54455D01*
X150722Y49180D01*
X150759Y49027D01*
X150819Y48882D01*
X150902Y48747D01*
X151004Y48628D01*
X151123Y48526D01*
X151258Y48443D01*
X151403Y48383D01*
X151556Y48346D01*
X151713Y48337D01*
X155453Y48342D01*
Y43640D01*
G37*
G36*
X138669Y176299D02*X117917D01*
X97500Y196716D01*
Y205049D01*
X138669D01*
Y176299D01*
G37*
G36*
Y168299D02*X118917D01*
X97500Y189716D01*
Y192474D01*
X116193Y173780D01*
X116231Y173735D01*
X116411Y173582D01*
X116612Y173459D01*
X116830Y173368D01*
X117060Y173313D01*
X117295Y173295D01*
X117354Y173299D01*
X138669D01*
Y168299D01*
G37*
G36*
Y44107D02*X131404Y45355D01*
X122434Y47634D01*
X115707Y49917D01*
X115507Y50016D01*
X107101Y53880D01*
X99066Y58473D01*
X97500Y59539D01*
Y84763D01*
X97538Y84801D01*
X97584Y84865D01*
X97815Y85263D01*
X98003Y85684D01*
X98151Y86121D01*
X98258Y86570D01*
X98322Y87026D01*
X98344Y87487D01*
X98322Y87948D01*
X98258Y88404D01*
X98151Y88853D01*
X98003Y89290D01*
X97815Y89711D01*
X97589Y90113D01*
X97542Y90176D01*
X97500Y90218D01*
Y173413D01*
X112711Y158202D01*
Y139927D01*
X112602Y139860D01*
X112123Y139451D01*
X111715Y138973D01*
X111386Y138436D01*
X111145Y137854D01*
X110998Y137242D01*
X110948Y136614D01*
X110998Y135987D01*
X111145Y135374D01*
X111386Y134793D01*
X111715Y134256D01*
X112123Y133777D01*
X112602Y133368D01*
X113139Y133039D01*
X113721Y132798D01*
X114333Y132651D01*
X114961Y132602D01*
X115588Y132651D01*
X116201Y132798D01*
X116782Y133039D01*
X117319Y133368D01*
X117359Y133403D01*
X117798Y133777D01*
X118207Y134256D01*
X118536Y134793D01*
X118777Y135374D01*
X118924Y135987D01*
X118961Y136614D01*
X118924Y137242D01*
X118777Y137854D01*
X118536Y138436D01*
X118207Y138973D01*
X117798Y139451D01*
X117359Y139826D01*
X117319Y139860D01*
X117211Y139927D01*
Y159046D01*
X117218Y159134D01*
X117190Y159487D01*
X117107Y159831D01*
X117067Y159927D01*
X116972Y160158D01*
X116857Y160346D01*
X116787Y160460D01*
X116786Y160461D01*
X116557Y160730D01*
X116489Y160787D01*
X97500Y179777D01*
Y185474D01*
X117193Y165780D01*
X117231Y165735D01*
X117359Y165626D01*
X117411Y165582D01*
X117612Y165459D01*
X117830Y165368D01*
X118060Y165313D01*
X118295Y165295D01*
X118354Y165299D01*
X138669D01*
Y92439D01*
X137902Y92378D01*
X137146Y92197D01*
X136429Y91900D01*
X135766Y91494D01*
X135175Y90989D01*
X134670Y90398D01*
X134264Y89735D01*
X133967Y89017D01*
X133786Y88262D01*
X133725Y87487D01*
X133786Y86712D01*
X133967Y85957D01*
X134264Y85239D01*
X134670Y84576D01*
X135175Y83985D01*
X135766Y83481D01*
X136429Y83075D01*
X137146Y82777D01*
X137902Y82596D01*
X138669Y82535D01*
Y44107D01*
G37*
G36*
X97500Y196716D02*X94528Y199688D01*
X94569Y199860D01*
X94595Y200299D01*
X94569Y200739D01*
X94466Y201167D01*
X94298Y201574D01*
X94068Y201950D01*
X93781Y202285D01*
X93446Y202571D01*
X93403Y202598D01*
Y205049D01*
X97500D01*
Y196716D01*
G37*
G36*
Y189716D02*X94528Y192688D01*
X94569Y192860D01*
X94595Y193299D01*
X94569Y193739D01*
X94466Y194167D01*
X94298Y194574D01*
X94068Y194950D01*
X93781Y195285D01*
X93446Y195571D01*
X93403Y195598D01*
Y196570D01*
X97500Y192474D01*
Y189716D01*
G37*
G36*
Y179777D02*X93403Y183873D01*
Y189570D01*
X97500Y185474D01*
Y179777D01*
G37*
G36*
Y59539D02*X93403Y62328D01*
Y72603D01*
X95370Y74577D01*
X95452Y74711D01*
X95513Y74857D01*
X95549Y75010D01*
X95562Y75167D01*
X95549Y75323D01*
X95513Y75477D01*
X95452Y75622D01*
X95370Y75756D01*
X95266Y75874D01*
X93403Y77732D01*
Y82545D01*
X93862Y82566D01*
X94318Y82631D01*
X94767Y82737D01*
X95204Y82885D01*
X95625Y83073D01*
X96027Y83300D01*
X96091Y83347D01*
X96146Y83403D01*
X96192Y83468D01*
X96227Y83539D01*
X96251Y83615D01*
X96263Y83693D01*
X96262Y83773D01*
X96249Y83851D01*
X96223Y83926D01*
X96187Y83997D01*
X96139Y84060D01*
X96083Y84116D01*
X96018Y84162D01*
X95947Y84197D01*
X95871Y84221D01*
X95793Y84233D01*
X95713Y84232D01*
X95635Y84218D01*
X95560Y84193D01*
X95490Y84155D01*
X95173Y83971D01*
X94837Y83821D01*
X94489Y83703D01*
X94132Y83618D01*
X93768Y83567D01*
X93403Y83550D01*
Y91424D01*
X93768Y91407D01*
X94132Y91356D01*
X94489Y91271D01*
X94837Y91153D01*
X95173Y91003D01*
X95493Y90823D01*
X95561Y90785D01*
X95636Y90760D01*
X95714Y90747D01*
X95792Y90746D01*
X95870Y90757D01*
X95945Y90781D01*
X96016Y90816D01*
X96080Y90862D01*
X96136Y90917D01*
X96183Y90980D01*
X96220Y91050D01*
X96245Y91124D01*
X96258Y91202D01*
X96259Y91281D01*
X96247Y91358D01*
X96223Y91433D01*
X96188Y91504D01*
X96143Y91568D01*
X96088Y91624D01*
X96024Y91670D01*
X95625Y91901D01*
X95204Y92089D01*
X94767Y92237D01*
X94318Y92344D01*
X93862Y92408D01*
X93403Y92429D01*
Y148790D01*
X93701Y148766D01*
X94140Y148801D01*
X94569Y148904D01*
X94976Y149072D01*
X95352Y149303D01*
X95687Y149589D01*
X95973Y149924D01*
X96203Y150300D01*
X96372Y150707D01*
X96475Y151135D01*
X96501Y151575D01*
X96475Y152014D01*
X96372Y152443D01*
X96203Y152850D01*
X95973Y153226D01*
X95687Y153561D01*
X95352Y153847D01*
X95201Y153939D01*
Y161809D01*
X95352Y161901D01*
X95687Y162187D01*
X95973Y162522D01*
X96203Y162898D01*
X96372Y163305D01*
X96475Y163734D01*
X96501Y164173D01*
X96475Y164613D01*
X96372Y165041D01*
X96203Y165448D01*
X95973Y165824D01*
X95687Y166159D01*
X95352Y166445D01*
X94976Y166676D01*
X94569Y166844D01*
X94140Y166947D01*
X93701Y166982D01*
X93403Y166958D01*
Y177509D01*
X97500Y173413D01*
Y90218D01*
X97485Y90232D01*
X97420Y90278D01*
X97349Y90313D01*
X97273Y90337D01*
X97195Y90349D01*
X97116Y90348D01*
X97037Y90335D01*
X96962Y90309D01*
X96892Y90273D01*
X96828Y90225D01*
X96772Y90169D01*
X96726Y90104D01*
X96691Y90033D01*
X96667Y89957D01*
X96656Y89879D01*
X96657Y89799D01*
X96670Y89721D01*
X96695Y89646D01*
X96733Y89576D01*
X96917Y89258D01*
X97067Y88923D01*
X97185Y88575D01*
X97270Y88218D01*
X97321Y87854D01*
X97338Y87487D01*
X97321Y87120D01*
X97270Y86756D01*
X97185Y86399D01*
X97067Y86051D01*
X96917Y85716D01*
X96737Y85396D01*
X96699Y85327D01*
X96674Y85252D01*
X96661Y85175D01*
X96660Y85096D01*
X96672Y85018D01*
X96695Y84943D01*
X96730Y84872D01*
X96776Y84808D01*
X96831Y84752D01*
X96894Y84705D01*
X96964Y84669D01*
X97038Y84644D01*
X97116Y84631D01*
X97195Y84630D01*
X97272Y84641D01*
X97348Y84665D01*
X97418Y84700D01*
X97482Y84745D01*
X97500Y84763D01*
Y59539D01*
G37*
G36*
X93403Y183873D02*X72227Y205049D01*
X93403D01*
Y202598D01*
X93070Y202802D01*
X92663Y202970D01*
X92235Y203073D01*
X91795Y203108D01*
X91356Y203073D01*
X90927Y202970D01*
X90520Y202802D01*
X90144Y202571D01*
X89809Y202285D01*
X89523Y201950D01*
X89293Y201574D01*
X89124Y201167D01*
X89021Y200739D01*
X88987Y200299D01*
X89021Y199860D01*
X89124Y199431D01*
X89293Y199024D01*
X89523Y198648D01*
X89809Y198313D01*
X90144Y198027D01*
X90520Y197797D01*
X90927Y197628D01*
X91356Y197525D01*
X91795Y197491D01*
X92235Y197525D01*
X92407Y197566D01*
X93403Y196570D01*
Y195598D01*
X93070Y195802D01*
X92663Y195970D01*
X92235Y196073D01*
X91795Y196108D01*
X91356Y196073D01*
X90927Y195970D01*
X90520Y195802D01*
X90144Y195571D01*
X89809Y195285D01*
X89523Y194950D01*
X89293Y194574D01*
X89124Y194167D01*
X89021Y193739D01*
X88987Y193299D01*
X89021Y192860D01*
X89124Y192431D01*
X89293Y192024D01*
X89523Y191648D01*
X89809Y191313D01*
X90144Y191027D01*
X90520Y190797D01*
X90927Y190628D01*
X91356Y190525D01*
X91795Y190491D01*
X92235Y190525D01*
X92407Y190566D01*
X93403Y189570D01*
Y183873D01*
G37*
G36*
X89303Y181610D02*X93403Y177509D01*
Y166958D01*
X93261Y166947D01*
X92833Y166844D01*
X92426Y166676D01*
X92050Y166445D01*
X91715Y166159D01*
X91429Y165824D01*
X91198Y165448D01*
X91030Y165041D01*
X90927Y164613D01*
X90892Y164173D01*
X90927Y163734D01*
X91030Y163305D01*
X91198Y162898D01*
X91429Y162522D01*
X91715Y162187D01*
X92050Y161901D01*
X92201Y161809D01*
Y153939D01*
X92050Y153847D01*
X91715Y153561D01*
X91429Y153226D01*
X91198Y152850D01*
X91030Y152443D01*
X90927Y152014D01*
X90892Y151575D01*
X90927Y151135D01*
X91030Y150707D01*
X91198Y150300D01*
X91429Y149924D01*
X91715Y149589D01*
X92050Y149303D01*
X92426Y149072D01*
X92833Y148904D01*
X93261Y148801D01*
X93403Y148790D01*
Y92429D01*
X93401Y92429D01*
X92941Y92408D01*
X92484Y92344D01*
X92035Y92237D01*
X91599Y92089D01*
X91177Y91901D01*
X90776Y91674D01*
X90712Y91628D01*
X90656Y91571D01*
X90610Y91506D01*
X90575Y91435D01*
X90551Y91359D01*
X90540Y91281D01*
X90540Y91201D01*
X90554Y91123D01*
X90579Y91048D01*
X90616Y90978D01*
X90663Y90914D01*
X90720Y90858D01*
X90784Y90812D01*
X90855Y90777D01*
X90931Y90753D01*
X91010Y90742D01*
X91089Y90742D01*
X91167Y90756D01*
X91243Y90781D01*
X91312Y90819D01*
X91630Y91003D01*
X91965Y91153D01*
X92313Y91271D01*
X92671Y91356D01*
X93034Y91407D01*
X93401Y91424D01*
X93403Y91424D01*
Y83550D01*
X93401Y83550D01*
X93034Y83567D01*
X92671Y83618D01*
X92313Y83703D01*
X91965Y83821D01*
X91630Y83971D01*
X91310Y84151D01*
X91241Y84189D01*
X91166Y84214D01*
X91089Y84227D01*
X91010Y84228D01*
X90932Y84217D01*
X90857Y84193D01*
X90787Y84158D01*
X90722Y84113D01*
X90666Y84057D01*
X90619Y83994D01*
X90583Y83925D01*
X90558Y83850D01*
X90545Y83772D01*
X90544Y83694D01*
X90555Y83616D01*
X90579Y83541D01*
X90614Y83470D01*
X90660Y83406D01*
X90715Y83350D01*
X90779Y83304D01*
X91177Y83073D01*
X91599Y82885D01*
X92035Y82737D01*
X92484Y82631D01*
X92941Y82566D01*
X93401Y82545D01*
X93403Y82545D01*
Y77732D01*
X89859Y81267D01*
X89725Y81349D01*
X89580Y81410D01*
X89427Y81446D01*
X89303Y81456D01*
Y84757D01*
X89317Y84742D01*
X89382Y84696D01*
X89453Y84661D01*
X89529Y84637D01*
X89607Y84625D01*
X89687Y84626D01*
X89765Y84640D01*
X89840Y84665D01*
X89911Y84702D01*
X89974Y84749D01*
X90030Y84806D01*
X90076Y84870D01*
X90111Y84941D01*
X90135Y85017D01*
X90147Y85096D01*
X90146Y85175D01*
X90133Y85253D01*
X90107Y85328D01*
X90069Y85398D01*
X89885Y85716D01*
X89735Y86051D01*
X89618Y86399D01*
X89533Y86756D01*
X89481Y87120D01*
X89464Y87487D01*
X89481Y87854D01*
X89533Y88218D01*
X89618Y88575D01*
X89735Y88923D01*
X89885Y89258D01*
X90066Y89578D01*
X90103Y89647D01*
X90128Y89722D01*
X90142Y89800D01*
X90142Y89878D01*
X90131Y89956D01*
X90107Y90031D01*
X90072Y90102D01*
X90027Y90166D01*
X89972Y90222D01*
X89908Y90269D01*
X89839Y90305D01*
X89764Y90330D01*
X89686Y90344D01*
X89608Y90344D01*
X89530Y90333D01*
X89455Y90309D01*
X89384Y90274D01*
X89320Y90229D01*
X89303Y90212D01*
Y181610D01*
G37*
G36*
X93403Y62328D02*X91416Y63681D01*
X89303Y65377D01*
Y71781D01*
X90350Y70736D01*
X90484Y70654D01*
X90630Y70594D01*
X90783Y70557D01*
X90940Y70544D01*
X91097Y70557D01*
X91250Y70594D01*
X91395Y70654D01*
X91529Y70736D01*
X91647Y70840D01*
X93403Y72603D01*
Y62328D01*
G37*
G36*
X89303Y65377D02*X87170Y67089D01*
X87162Y67125D01*
X87101Y67271D01*
X87019Y67405D01*
X86915Y67522D01*
X81508Y72916D01*
X81374Y72998D01*
X81228Y73058D01*
X81075Y73095D01*
X80918Y73107D01*
X80762Y73095D01*
X80609Y73058D01*
X80463Y72998D01*
X80457Y72994D01*
X77457Y75815D01*
X71235Y82666D01*
X65569Y89984D01*
X60495Y97723D01*
X59305Y99892D01*
Y115123D01*
X63349Y116445D01*
X63484Y116527D01*
X63603Y116629D01*
X63706Y116749D01*
X63788Y116883D01*
X63848Y117029D01*
X63885Y117182D01*
X63897Y117339D01*
X63885Y117495D01*
X63845Y117648D01*
X61476Y124908D01*
X61394Y125042D01*
X61292Y125162D01*
X61172Y125264D01*
X61038Y125346D01*
X60893Y125406D01*
X60740Y125443D01*
X60583Y125456D01*
X60426Y125443D01*
X60274Y125404D01*
X59305Y125087D01*
Y211608D01*
X65142Y205771D01*
X65199Y205703D01*
X65409Y205524D01*
X65574Y205338D01*
X89303Y181610D01*
Y90212D01*
X89264Y90174D01*
X89218Y90110D01*
X88987Y89711D01*
X88799Y89290D01*
X88651Y88853D01*
X88545Y88404D01*
X88480Y87948D01*
X88459Y87487D01*
X88480Y87026D01*
X88545Y86570D01*
X88651Y86121D01*
X88799Y85684D01*
X88987Y85263D01*
X89214Y84862D01*
X89261Y84798D01*
X89303Y84757D01*
Y81456D01*
X89270Y81459D01*
X89113Y81446D01*
X88960Y81410D01*
X88814Y81349D01*
X88680Y81267D01*
X88563Y81163D01*
X84839Y77426D01*
X84757Y77292D01*
X84697Y77147D01*
X84660Y76994D01*
X84648Y76837D01*
X84660Y76680D01*
X84697Y76527D01*
X84757Y76381D01*
X84839Y76247D01*
X84944Y76130D01*
X89303Y71781D01*
Y65377D01*
G37*
G36*
X59305Y99892D02*X56043Y105837D01*
X53398Y111709D01*
Y168138D01*
X55251Y167814D01*
X55408Y167824D01*
X55562Y167858D01*
X55708Y167915D01*
X55844Y167995D01*
X55966Y168095D01*
X56070Y168213D01*
X56154Y168346D01*
X56217Y168490D01*
X56254Y168643D01*
X57571Y176166D01*
X57561Y176323D01*
X57527Y176477D01*
X57469Y176623D01*
X57389Y176759D01*
X57289Y176880D01*
X57171Y176985D01*
X57039Y177069D01*
X56894Y177132D01*
X56741Y177168D01*
X53398Y177752D01*
Y216807D01*
X53633Y216808D01*
Y216808D01*
X54104Y216809D01*
X59305Y211608D01*
Y125087D01*
X55260Y123765D01*
X55126Y123682D01*
X55006Y123580D01*
X54904Y123461D01*
X54821Y123326D01*
X54761Y123181D01*
X54724Y123028D01*
X54712Y122871D01*
X54724Y122714D01*
X54764Y122562D01*
X57133Y115302D01*
X57215Y115167D01*
X57317Y115048D01*
X57437Y114946D01*
X57571Y114863D01*
X57717Y114803D01*
X57870Y114766D01*
X58027Y114754D01*
X58183Y114766D01*
X58336Y114806D01*
X59305Y115123D01*
Y99892D01*
G37*
G36*
X53398Y111709D02*X52626Y113422D01*
X52653Y113532D01*
X52665Y113689D01*
X52653Y113846D01*
X52613Y113998D01*
X50244Y121258D01*
X50162Y121393D01*
X50060Y121512D01*
X49940Y121614D01*
X49806Y121697D01*
X49661Y121757D01*
X49546Y121785D01*
X49115Y122986D01*
X46680Y131915D01*
X44954Y141007D01*
X43946Y150207D01*
X43664Y159457D01*
X44108Y168702D01*
X44287Y170106D01*
X44335Y170146D01*
X44439Y170264D01*
X44524Y170397D01*
X44587Y170541D01*
X44623Y170694D01*
X45940Y178217D01*
X45930Y178374D01*
X45896Y178527D01*
X45839Y178674D01*
X45759Y178810D01*
X45659Y178931D01*
X45541Y179035D01*
X45519Y179049D01*
X47160Y186943D01*
X49750Y195828D01*
X53029Y204483D01*
X53187Y204927D01*
X53265Y205393D01*
X53269Y205865D01*
X53200Y206332D01*
X53058Y206782D01*
X52847Y207205D01*
X52573Y207589D01*
X52242Y207926D01*
X51862Y208207D01*
X51443Y208425D01*
X50996Y208575D01*
X50530Y208653D01*
X50058Y208657D01*
X50040Y208654D01*
X48500Y210194D01*
Y217542D01*
X48578Y217415D01*
X48731Y217235D01*
X48911Y217082D01*
X49112Y216959D01*
X49330Y216868D01*
X49560Y216813D01*
X49795Y216799D01*
X53398Y216807D01*
Y177752D01*
X51545Y178075D01*
X51388Y178065D01*
X51234Y178031D01*
X51088Y177974D01*
X50952Y177894D01*
X50831Y177794D01*
X50726Y177676D01*
X50642Y177543D01*
X50579Y177399D01*
X50543Y177246D01*
X49226Y169723D01*
X49235Y169566D01*
X49269Y169413D01*
X49327Y169266D01*
X49407Y169130D01*
X49507Y169009D01*
X49625Y168905D01*
X49758Y168820D01*
X49902Y168757D01*
X50055Y168721D01*
X53398Y168138D01*
Y111709D01*
G37*
G36*
X43672Y118482D02*X45901Y111652D01*
X45983Y111518D01*
X46085Y111398D01*
X46205Y111296D01*
X46339Y111214D01*
X46485Y111154D01*
X46638Y111117D01*
X46795Y111104D01*
X46951Y111117D01*
X46981Y111125D01*
X50588Y103117D01*
X55270Y94584D01*
X60606Y86444D01*
X66565Y78748D01*
X73110Y71543D01*
X76301Y68541D01*
X76296Y68485D01*
X76309Y68329D01*
X76346Y68175D01*
X76406Y68030D01*
X76488Y67896D01*
X76592Y67778D01*
X81999Y62385D01*
X82133Y62303D01*
X82279Y62242D01*
X82432Y62206D01*
X82589Y62193D01*
X82745Y62206D01*
X82899Y62242D01*
X83044Y62303D01*
X83178Y62385D01*
X83236Y62436D01*
X87790Y58781D01*
X95836Y53303D01*
X104286Y48474D01*
X110798Y45402D01*
X111090Y45202D01*
X111520Y45007D01*
X111974Y44848D01*
X113090Y44322D01*
X113549Y44163D01*
X114029Y44082D01*
X114162Y44081D01*
X120702Y41789D01*
X130136Y39393D01*
X139729Y37745D01*
X149422Y36854D01*
X150990Y36834D01*
X151004Y36818D01*
X151118Y36720D01*
X151123Y36715D01*
X151258Y36633D01*
X151403Y36573D01*
X151556Y36536D01*
X151713Y36527D01*
X159350Y36536D01*
X159503Y36573D01*
X159649Y36633D01*
X159783Y36715D01*
X159788Y36720D01*
X159850Y36772D01*
X161829Y36902D01*
Y6962D01*
X158268Y6693D01*
X146063Y7087D01*
X133858Y8268D01*
X123622Y10630D01*
X111417Y13780D01*
X101969Y17323D01*
X93307Y21654D01*
X43672D01*
Y118482D01*
G37*
G36*
Y120119D02*X43750Y119903D01*
X43672Y119812D01*
Y120119D01*
G37*
G36*
X111213Y300698D02*X114173Y301575D01*
X125984Y305118D01*
X134646Y306299D01*
X145669Y307874D01*
X155512Y308268D01*
X161829Y308050D01*
Y279429D01*
X161156Y279449D01*
X161153Y279454D01*
X161051Y279574D01*
X160931Y279676D01*
X160797Y279758D01*
X160652Y279818D01*
X160498Y279855D01*
X160342Y279864D01*
X152705Y279855D01*
X152552Y279818D01*
X152406Y279758D01*
X152272Y279676D01*
X152152Y279574D01*
X152050Y279454D01*
X152032Y279425D01*
X146163Y279143D01*
X138554Y278175D01*
X136508Y277915D01*
X126978Y275933D01*
X123283Y274856D01*
X117634Y273209D01*
X108532Y269761D01*
X101916Y266640D01*
X99728Y265609D01*
X91278Y260779D01*
X87667Y258320D01*
X87667D01*
X87265Y258047D01*
X83232Y255301D01*
X77218Y250474D01*
X75641Y249208D01*
X68552Y242539D01*
X62415Y235783D01*
X62089Y235758D01*
X61400Y235592D01*
X60746Y235321D01*
X60142Y234951D01*
X59603Y234491D01*
X59440Y234299D01*
X56964D01*
Y242036D01*
X57729D01*
X56964Y242061D01*
Y293307D01*
X93307D01*
X102430Y297868D01*
X102411Y297638D01*
X102450Y297153D01*
X102452Y297144D01*
Y297879D01*
X103543Y298425D01*
X111213Y300698D01*
G37*
G36*
X56964Y234299D02*X56151D01*
X55987Y234491D01*
X55448Y234951D01*
X54845Y235321D01*
X54190Y235592D01*
X53633Y235726D01*
X53613Y235731D01*
Y238721D01*
X53631Y238491D01*
X53633Y238483D01*
Y239470D01*
X53631Y239461D01*
X53613Y239232D01*
Y293307D01*
X56964D01*
Y242061D01*
X56693Y242070D01*
X56208Y242038D01*
X56199Y242036D01*
X56964D01*
Y234299D01*
G37*
G36*
X53613Y235731D02*X53501Y235758D01*
X52795Y235813D01*
X52089Y235758D01*
X51400Y235592D01*
X50746Y235321D01*
X50142Y234951D01*
X49603Y234491D01*
X49143Y233952D01*
X48773Y233348D01*
X48767Y233332D01*
X48714Y233310D01*
X48412Y233125D01*
X48412Y233125D01*
X48143Y232895D01*
X48085Y232828D01*
X44721Y229464D01*
X44654Y229407D01*
X44563Y229299D01*
X44374Y229087D01*
X44189Y228785D01*
X44054Y228458D01*
X43971Y228114D01*
X43943Y227761D01*
X43971Y227408D01*
X44000Y227286D01*
Y209786D01*
X43971Y209665D01*
X43943Y209312D01*
X43971Y208959D01*
X44054Y208614D01*
X44189Y208287D01*
X44374Y207985D01*
X44471Y207877D01*
X44630Y207690D01*
X44697Y207633D01*
X46944Y205386D01*
X43970Y197762D01*
X43672Y196742D01*
Y224137D01*
X43679Y224162D01*
X43831Y225042D01*
X43907Y225932D01*
Y226824D01*
X43831Y227714D01*
X43679Y228594D01*
X43672Y228619D01*
Y293307D01*
X53613D01*
Y239232D01*
X53593Y238976D01*
X53613Y238721D01*
Y235731D01*
G37*
G36*
X43672Y196742D02*X41246Y188418D01*
X39504Y180043D01*
X39457Y180024D01*
X39321Y179945D01*
X39200Y179844D01*
X39096Y179727D01*
X39011Y179594D01*
X38948Y179450D01*
X38912Y179297D01*
X37595Y171774D01*
X37599Y171703D01*
X37605Y171617D01*
X37639Y171463D01*
X37696Y171317D01*
X37776Y171181D01*
X37876Y171060D01*
X37994Y170955D01*
X38127Y170871D01*
X38238Y170823D01*
X38036Y169233D01*
X37599Y160151D01*
Y160151D01*
X37569Y159511D01*
X37866Y149782D01*
X38925Y140106D01*
X40741Y130544D01*
X43301Y121153D01*
X43672Y120119D01*
Y119812D01*
X43672Y119811D01*
X43589Y119677D01*
X43529Y119531D01*
X43492Y119378D01*
X43480Y119221D01*
X43492Y119065D01*
X43532Y118912D01*
X43672Y118482D01*
Y21654D01*
X37402D01*
Y23622D01*
X37343Y23768D01*
X37120Y24325D01*
X37118Y24332D01*
X33465Y33465D01*
Y215935D01*
X33911D01*
X34800Y216012D01*
X35680Y216163D01*
X36544Y216390D01*
X36586Y216405D01*
X33465D01*
Y236351D01*
X36586D01*
X36544Y236366D01*
X35680Y236592D01*
X34800Y236744D01*
X33911Y236820D01*
X33465D01*
Y293640D01*
X37795Y293307D01*
X43672D01*
Y228619D01*
X43453Y229457D01*
X43438Y229499D01*
Y223257D01*
X43453Y223299D01*
X43672Y224137D01*
Y196742D01*
G37*
G36*
X33465Y33465D02*X23257D01*
Y224137D01*
X23476Y223299D01*
X23491Y223257D01*
Y229499D01*
X23476Y229457D01*
X23257Y228619D01*
Y287821D01*
X28346Y292520D01*
X32677Y293701D01*
X33465Y293640D01*
Y236820D01*
X33018D01*
X32129Y236744D01*
X31249Y236592D01*
X30385Y236366D01*
X30343Y236351D01*
X33465D01*
Y216405D01*
X30343D01*
X30385Y216390D01*
X31249Y216163D01*
X32129Y216012D01*
X33018Y215935D01*
X33465D01*
Y33465D01*
G37*
G36*
X23257D02*X21654D01*
Y93307D01*
X14567Y109449D01*
X9055Y131890D01*
X7087Y148031D01*
X6693Y157874D01*
X7874Y175591D01*
X11811Y197244D01*
X16142Y209843D01*
X21654Y221654D01*
Y277953D01*
X22047Y283858D01*
X23228Y287795D01*
X23257Y287821D01*
Y228619D01*
X23250Y228594D01*
X23098Y227714D01*
X23022Y226824D01*
Y225932D01*
X23098Y225042D01*
X23250Y224162D01*
X23257Y224137D01*
Y33465D01*
G37*
G54D26*X283071Y229921D02*Y222047D01*
X240381Y242520D02*X234659Y248242D01*
X270866Y242520D02*X240381D01*
X269600Y122361D02*X268900Y117861D01*
G54D27*X255200Y164361D02*Y138361D01*
X247000Y164361D02*Y137646D01*
X252362Y132283D01*
X255200Y138361D02*X258000Y135561D01*
Y128472D01*
X252362Y122835D01*
G54D28*X66795Y207299D02*X52795Y221299D01*
X49500Y173661D02*X57400Y172361D01*
G54D26*X62795Y231299D02*X52795D01*
G54D27*X102756Y252362D02*Y231339D01*
X102795Y231299D01*
G54D28*X52900D02*X49739D01*
X46200Y227761D01*
Y209312D02*X50000Y205512D01*
X46250Y227811D02*Y209311D01*
X46226Y209286D01*
X146795Y207299D02*X132795Y221299D01*
X211295Y207299D02*X66795D01*
G54D27*X117295Y174799D02*X145795D01*
X148795Y171799D01*
G54D28*X155500Y47061D02*Y56861D01*
X156600Y269561D02*X156500Y259661D01*
G54D27*X148795Y171799D02*Y138799D01*
G54D28*X85900Y71761D02*X93800Y80061D01*
X228600Y72461D02*X221000Y80161D01*
X114961Y136614D02*Y159134D01*
G54D27*X93701Y164173D02*Y151575D01*
X91795Y193299D02*X118295Y166799D01*
X91795Y200299D02*X117295Y174799D01*
X118295Y166799D02*X142295D01*
G54D28*X114961Y159134D02*X67165Y206929D01*
X61200Y114561D02*X57900Y125461D01*
G54D26*X283071Y230315D02*G75*G03X270866Y242520I-12205J0D01*G01*
X266929Y205512D02*G75*G03X283071Y221654I0J16142D01*G01*
X234659Y248242D02*G75*G03X64378Y233345I-77691J-92589D01*G01*
X50268Y205655D02*G75*G03X114299Y47171I111258J-47226D01*G01*
X112595Y47808D02*G75*G03X268748Y117331I43315J112838D01*G01*
G54D29*X102795Y221299D03*
X112795D03*
X122795D03*
X102795Y231299D03*
X112795D03*
X122795D03*
X132795D03*
X142795D03*
X152795D03*
X132795Y221299D03*
X142795D03*
X152795D03*
X162795D03*
G54D30*X138677Y87487D03*
X93401D03*
G54D29*X72795Y221299D03*
Y231299D03*
X82795Y221299D03*
Y231299D03*
G54D25*G36*
X49795Y224299D02*Y218299D01*
X55795D01*
Y224299D01*
X49795D01*
G37*
G54D29*X52795Y231299D03*
X62795Y221299D03*
Y231299D03*
X92795Y221299D03*
Y231299D03*
X162795D03*
X172795Y221299D03*
X182795D03*
X192795D03*
X172795Y231299D03*
X182795D03*
X192795D03*
X202795D03*
X212795D03*
X222795D03*
X202795Y221299D03*
X212795D03*
X222795D03*
X232795D03*
Y231299D03*
X242795D03*
Y221299D03*
G54D25*G36*
X237706Y68577D02*X234087Y72196D01*
X228798Y66907D01*
X232417Y63288D01*
X237706Y68577D01*
G37*
G36*
X229355Y76929D02*X225736Y80547D01*
X220447Y75258D01*
X224066Y71639D01*
X229355Y76929D01*
G37*
G36*
X80919Y72104D02*X77300Y68485D01*
X82589Y63196D01*
X86208Y66815D01*
X80919Y72104D01*
G37*
G36*
X89270Y80456D02*X85651Y76837D01*
X90940Y71548D01*
X94559Y75167D01*
X89270Y80456D01*
G37*
G36*
X151713Y42645D02*Y37527D01*
X159193D01*
Y42645D01*
X151713D01*
G37*
G36*
Y54455D02*Y49337D01*
X159193D01*
Y54455D01*
X151713D01*
G37*
G36*
X44937Y178234D02*X39897Y179123D01*
X38598Y171757D01*
X43638Y170868D01*
X44937Y178234D01*
G37*
G36*
X56568Y176183D02*X51527Y177072D01*
X50228Y169706D01*
X55269Y168817D01*
X56568Y176183D01*
G37*
G36*
X49351Y120803D02*X44483Y119221D01*
X46795Y112108D01*
X51662Y113689D01*
X49351Y120803D01*
G37*
G36*
X60583Y124452D02*X55715Y122871D01*
X58027Y115757D01*
X62894Y117339D01*
X60583Y124452D01*
G37*
G36*
X152862Y278864D02*Y273746D01*
X160342D01*
Y278864D01*
X152862D01*
G37*
G36*
Y267054D02*Y261936D01*
X160342D01*
Y267054D01*
X152862D01*
G37*
G54D31*X142295Y166799D03*
G54D29*X186685Y159276D03*
X204685D03*
X186685Y144276D03*
Y129276D03*
Y114276D03*
Y99276D03*
X204685D03*
Y129276D03*
X211295Y207299D03*
G54D31*X210630Y264173D03*
X227165Y253937D03*
X148795Y138799D03*
G54D29*X150795Y187799D03*
X178295D03*
X204685Y144276D03*
X186685Y175276D03*
X204700Y175261D03*
G54D31*X168898Y275984D03*
X189764Y272047D03*
G54D29*X184200Y258461D03*
X228800Y180761D03*
X241600Y180561D03*
G54D31*X247000Y164361D03*
G54D32*X261811Y33465D03*
G54D31*X212300Y31161D03*
X248800Y83261D03*
X264600Y64561D03*
X261200Y101461D03*
X275400Y92561D03*
X269600Y122361D03*
X252362Y132283D03*
Y122835D03*
G54D32*X261811Y226378D03*
G54D31*X266929Y205512D03*
X254798Y242520D03*
G54D29*X275300Y276361D03*
X262900Y175161D03*
X263000Y163661D03*
X266500Y152061D03*
G54D31*X255200Y164361D03*
X293500Y193861D03*
X296100Y167361D03*
X296000Y153461D03*
X292700Y133361D03*
X286400Y113861D03*
G54D29*X206295Y80799D03*
G54D31*X209900Y52561D03*
X226500Y62561D03*
X238600Y72461D03*
G54D29*X179200Y64861D03*
X204685Y114276D03*
X222685Y99276D03*
G54D31*X167400Y40361D03*
X189400Y44461D03*
X175600Y19961D03*
X191600Y23061D03*
X91795Y193299D03*
Y200299D03*
G54D29*X119985Y197776D03*
X114961Y136614D03*
G54D31*X93701Y164173D03*
Y151575D03*
X40600Y163861D03*
X41500Y143961D03*
X20900Y141261D03*
X22700Y174861D03*
X20400Y155261D03*
G54D29*X54700Y153261D03*
G54D31*X50000Y205512D03*
X43400Y184461D03*
X27400Y193261D03*
G54D33*X33465Y226378D03*
G54D29*X63700Y190061D03*
G54D32*X33465Y33465D03*
G54D31*X45700Y123561D03*
X24500Y117061D03*
X33800Y95361D03*
X145800Y40161D03*
X155400Y19061D03*
X136900Y22461D03*
X125197Y43701D03*
X104800Y51661D03*
X111200Y30961D03*
G54D29*X133400Y68161D03*
G54D31*X54100Y102761D03*
X65700Y84661D03*
X75600Y73461D03*
X88300Y62261D03*
G54D29*X67700Y119361D03*
G54D31*X147638Y275984D03*
G54D29*X37100Y276361D03*
G54D31*X104724Y264567D03*
X88583Y255118D03*
X76772Y246063D03*
X102756Y252362D03*
X101300Y284961D03*
X125984Y272441D03*
G54D29*X134200Y258761D03*
G54D31*X117100Y292261D03*
X137800Y296461D03*
X158900Y295861D03*
X178600Y292461D03*
X198000Y285861D03*
X219700Y280161D03*
G54D34*G54D35*G54D34*G54D35*G54D34*G54D35*G54D34*G54D36*G54D34*G54D36*G54D34*G54D35*G54D34*G54D35*G54D34*G54D35*G54D34*G54D35*G54D34*G54D35*G54D34*G54D36*G54D35*G54D36*G54D34*G54D35*G54D34*G54D35*G54D34*G54D35*G54D34*G54D35*G54D34*G54D37*G54D38*G54D37*M02*
