G04 start of page 11 for group -4014 idx -4014 *
G04 Title: (unknown), bottompaste *
G04 Creator: pcb 4.2.0 *
G04 CreationDate: Fri Jan  3 20:58:43 2020 UTC *
G04 For: blinken *
G04 Format: Gerber/RS-274X *
G04 PCB-Dimensions (mil): 3149.61 3149.61 *
G04 PCB-Coordinate-Origin: lower left *
%MOIN*%
%FSLAX25Y25*%
%LNBOTTOMPASTE*%
%ADD61C,0.0001*%
G54D61*G36*
X237706Y68577D02*X234087Y72196D01*
X228798Y66907D01*
X232417Y63288D01*
X237706Y68577D01*
G37*
G36*
X229355Y76929D02*X225736Y80547D01*
X220447Y75258D01*
X224066Y71639D01*
X229355Y76929D01*
G37*
G36*
X80919Y72104D02*X77300Y68485D01*
X82589Y63196D01*
X86208Y66815D01*
X80919Y72104D01*
G37*
G36*
X89270Y80456D02*X85651Y76837D01*
X90940Y71548D01*
X94559Y75167D01*
X89270Y80456D01*
G37*
G36*
X152862Y278864D02*Y273746D01*
X160342D01*
Y278864D01*
X152862D01*
G37*
G36*
Y267054D02*Y261936D01*
X160342D01*
Y267054D01*
X152862D01*
G37*
G36*
X44937Y178234D02*X39897Y179123D01*
X38598Y171757D01*
X43638Y170868D01*
X44937Y178234D01*
G37*
G36*
X56568Y176183D02*X51527Y177072D01*
X50228Y169706D01*
X55269Y168817D01*
X56568Y176183D01*
G37*
G36*
X151713Y42645D02*Y37527D01*
X159193D01*
Y42645D01*
X151713D01*
G37*
G36*
Y54455D02*Y49337D01*
X159193D01*
Y54455D01*
X151713D01*
G37*
G36*
X49351Y120803D02*X44483Y119221D01*
X46795Y112108D01*
X51662Y113689D01*
X49351Y120803D01*
G37*
G36*
X60583Y124452D02*X55715Y122871D01*
X58027Y115757D01*
X62894Y117339D01*
X60583Y124452D01*
G37*
M02*
