G04 start of page 12 for group -3984 idx -3984 *
G04 Title: (unknown), fab *
G04 Creator: pcb 4.2.0 *
G04 CreationDate: Fri Jan  3 20:58:43 2020 UTC *
G04 For: blinken *
G04 Format: Gerber/RS-274X *
G04 PCB-Dimensions (mil): 3149.61 3149.61 *
G04 PCB-Coordinate-Origin: lower left *
%MOIN*%
%FSLAX25Y25*%
%LNFAB*%
%ADD65C,0.0100*%
%ADD64C,0.0075*%
%ADD63C,0.0060*%
%ADD62R,0.0080X0.0080*%
G54D62*X31865Y35065D02*X35065D01*
X31865D02*Y31865D01*
X35065D01*
Y35065D02*Y31865D01*
X260211Y35065D02*X263411D01*
X260211D02*Y31865D01*
X263411D01*
Y35065D02*Y31865D01*
X260211Y227978D02*X263411D01*
X260211D02*Y224778D01*
X263411D01*
Y227978D02*Y224778D01*
X31865Y227978D02*X35065D01*
X31865D02*Y224778D01*
X35065D01*
Y227978D02*Y224778D01*
X13400Y327811D02*X16600D01*
X13400D02*Y324611D01*
X16600D01*
Y327811D02*Y324611D01*
G54D63*X135000Y328461D02*X136500Y325461D01*
X138000Y328461D01*
X136500Y325461D02*Y322461D01*
X139800Y325761D02*X142050D01*
X139800Y322461D02*X142800D01*
X139800Y328461D02*Y322461D01*
Y328461D02*X142800D01*
X147600D02*X148350Y327711D01*
X145350Y328461D02*X147600D01*
X144600Y327711D02*X145350Y328461D01*
X144600Y327711D02*Y326211D01*
X145350Y325461D01*
X147600D01*
X148350Y324711D01*
Y323211D01*
X147600Y322461D02*X148350Y323211D01*
X145350Y322461D02*X147600D01*
X144600Y323211D02*X145350Y322461D01*
X98000Y324711D02*X101000Y328461D01*
X98000Y324711D02*X101750D01*
X101000Y328461D02*Y322461D01*
X45000Y323211D02*X45750Y322461D01*
X45000Y327711D02*Y323211D01*
Y327711D02*X45750Y328461D01*
X47250D01*
X48000Y327711D01*
Y323211D01*
X47250Y322461D02*X48000Y323211D01*
X45750Y322461D02*X47250D01*
X45000Y323961D02*X48000Y326961D01*
X49800Y322461D02*X50550D01*
X52350Y327261D02*X53550Y328461D01*
Y322461D01*
X52350D02*X54600D01*
X56400Y327261D02*X57600Y328461D01*
Y322461D01*
X56400D02*X58650D01*
X60450Y324711D02*X63450Y328461D01*
X60450Y324711D02*X64200D01*
X63450Y328461D02*Y322461D01*
X137877Y87487D02*G75*G03X139477Y87487I800J0D01*G01*
G75*G03X137877Y87487I-800J0D01*G01*
X92601D02*G75*G03X94201Y87487I800J0D01*G01*
G75*G03X92601Y87487I-800J0D01*G01*
X14200Y341211D02*G75*G03X15800Y341211I800J0D01*G01*
G75*G03X14200Y341211I-800J0D01*G01*
X135000Y343461D02*X136500Y340461D01*
X138000Y343461D01*
X136500Y340461D02*Y337461D01*
X139800Y340761D02*X142050D01*
X139800Y337461D02*X142800D01*
X139800Y343461D02*Y337461D01*
Y343461D02*X142800D01*
X147600D02*X148350Y342711D01*
X145350Y343461D02*X147600D01*
X144600Y342711D02*X145350Y343461D01*
X144600Y342711D02*Y341211D01*
X145350Y340461D01*
X147600D01*
X148350Y339711D01*
Y338211D01*
X147600Y337461D02*X148350Y338211D01*
X145350Y337461D02*X147600D01*
X144600Y338211D02*X145350Y337461D01*
X98000Y342711D02*X98750Y343461D01*
X101000D01*
X101750Y342711D01*
Y341211D01*
X98000Y337461D02*X101750Y341211D01*
X98000Y337461D02*X101750D01*
X45000Y338211D02*X45750Y337461D01*
X45000Y342711D02*Y338211D01*
Y342711D02*X45750Y343461D01*
X47250D01*
X48000Y342711D01*
Y338211D01*
X47250Y337461D02*X48000Y338211D01*
X45750Y337461D02*X47250D01*
X45000Y338961D02*X48000Y341961D01*
X49800Y337461D02*X50550D01*
X52350Y338211D02*X53100Y337461D01*
X52350Y342711D02*Y338211D01*
Y342711D02*X53100Y343461D01*
X54600D01*
X55350Y342711D01*
Y338211D01*
X54600Y337461D02*X55350Y338211D01*
X53100Y337461D02*X54600D01*
X52350Y338961D02*X55350Y341961D01*
X57150Y342711D02*X57900Y343461D01*
X59400D01*
X60150Y342711D01*
X59400Y337461D02*X60150Y338211D01*
X57900Y337461D02*X59400D01*
X57150Y338211D02*X57900Y337461D01*
Y340761D02*X59400D01*
X60150Y342711D02*Y341511D01*
Y340011D02*Y338211D01*
Y340011D02*X59400Y340761D01*
X60150Y341511D02*X59400Y340761D01*
X62700Y337461D02*X64950Y340461D01*
Y342711D02*Y340461D01*
X64200Y343461D02*X64950Y342711D01*
X62700Y343461D02*X64200D01*
X61950Y342711D02*X62700Y343461D01*
X61950Y342711D02*Y341211D01*
X62700Y340461D01*
X64950D01*
X51595Y222499D02*X53995Y220099D01*
X51595D02*X53995Y222499D01*
X51595Y232499D02*X53995Y230099D01*
X51595D02*X53995Y232499D01*
X61595Y222499D02*X63995Y220099D01*
X61595D02*X63995Y222499D01*
X61595Y232499D02*X63995Y230099D01*
X61595D02*X63995Y232499D01*
X71595Y222499D02*X73995Y220099D01*
X71595D02*X73995Y222499D01*
X71595Y232499D02*X73995Y230099D01*
X71595D02*X73995Y232499D01*
X81595Y222499D02*X83995Y220099D01*
X81595D02*X83995Y222499D01*
X81595Y232499D02*X83995Y230099D01*
X81595D02*X83995Y232499D01*
X91595Y222499D02*X93995Y220099D01*
X91595D02*X93995Y222499D01*
X91595Y232499D02*X93995Y230099D01*
X91595D02*X93995Y232499D01*
X101595Y222499D02*X103995Y220099D01*
X101595D02*X103995Y222499D01*
X101595Y232499D02*X103995Y230099D01*
X101595D02*X103995Y232499D01*
X111595Y222499D02*X113995Y220099D01*
X111595D02*X113995Y222499D01*
X111595Y232499D02*X113995Y230099D01*
X111595D02*X113995Y232499D01*
X121595Y222499D02*X123995Y220099D01*
X121595D02*X123995Y222499D01*
X121595Y232499D02*X123995Y230099D01*
X121595D02*X123995Y232499D01*
X131595Y222499D02*X133995Y220099D01*
X131595D02*X133995Y222499D01*
X131595Y232499D02*X133995Y230099D01*
X131595D02*X133995Y232499D01*
X141595Y222499D02*X143995Y220099D01*
X141595D02*X143995Y222499D01*
X141595Y232499D02*X143995Y230099D01*
X141595D02*X143995Y232499D01*
X151595Y222499D02*X153995Y220099D01*
X151595D02*X153995Y222499D01*
X151595Y232499D02*X153995Y230099D01*
X151595D02*X153995Y232499D01*
X161595Y222499D02*X163995Y220099D01*
X161595D02*X163995Y222499D01*
X161595Y232499D02*X163995Y230099D01*
X161595D02*X163995Y232499D01*
X171595Y222499D02*X173995Y220099D01*
X171595D02*X173995Y222499D01*
X171595Y232499D02*X173995Y230099D01*
X171595D02*X173995Y232499D01*
X181595Y222499D02*X183995Y220099D01*
X181595D02*X183995Y222499D01*
X181595Y232499D02*X183995Y230099D01*
X181595D02*X183995Y232499D01*
X191595Y222499D02*X193995Y220099D01*
X191595D02*X193995Y222499D01*
X191595Y232499D02*X193995Y230099D01*
X191595D02*X193995Y232499D01*
X201595Y222499D02*X203995Y220099D01*
X201595D02*X203995Y222499D01*
X201595Y232499D02*X203995Y230099D01*
X201595D02*X203995Y232499D01*
X211595Y222499D02*X213995Y220099D01*
X211595D02*X213995Y222499D01*
X211595Y232499D02*X213995Y230099D01*
X211595D02*X213995Y232499D01*
X221595Y222499D02*X223995Y220099D01*
X221595D02*X223995Y222499D01*
X221595Y232499D02*X223995Y230099D01*
X221595D02*X223995Y232499D01*
X231595Y222499D02*X233995Y220099D01*
X231595D02*X233995Y222499D01*
X231595Y232499D02*X233995Y230099D01*
X231595D02*X233995Y232499D01*
X241595Y222499D02*X243995Y220099D01*
X241595D02*X243995Y222499D01*
X241595Y232499D02*X243995Y230099D01*
X241595D02*X243995Y232499D01*
X13800Y357411D02*X16200Y355011D01*
X13800D02*X16200Y357411D01*
X135000Y358461D02*X136500Y355461D01*
X138000Y358461D01*
X136500Y355461D02*Y352461D01*
X139800Y355761D02*X142050D01*
X139800Y352461D02*X142800D01*
X139800Y358461D02*Y352461D01*
Y358461D02*X142800D01*
X147600D02*X148350Y357711D01*
X145350Y358461D02*X147600D01*
X144600Y357711D02*X145350Y358461D01*
X144600Y357711D02*Y356211D01*
X145350Y355461D01*
X147600D01*
X148350Y354711D01*
Y353211D01*
X147600Y352461D02*X148350Y353211D01*
X145350Y352461D02*X147600D01*
X144600Y353211D02*X145350Y352461D01*
X98000Y354711D02*X101000Y358461D01*
X98000Y354711D02*X101750D01*
X101000Y358461D02*Y352461D01*
X103550Y353211D02*X104300Y352461D01*
X103550Y357711D02*Y353211D01*
Y357711D02*X104300Y358461D01*
X105800D01*
X106550Y357711D01*
Y353211D01*
X105800Y352461D02*X106550Y353211D01*
X104300Y352461D02*X105800D01*
X103550Y353961D02*X106550Y356961D01*
X45000Y353211D02*X45750Y352461D01*
X45000Y357711D02*Y353211D01*
Y357711D02*X45750Y358461D01*
X47250D01*
X48000Y357711D01*
Y353211D01*
X47250Y352461D02*X48000Y353211D01*
X45750Y352461D02*X47250D01*
X45000Y353961D02*X48000Y356961D01*
X49800Y352461D02*X50550D01*
X52350Y353211D02*X53100Y352461D01*
X52350Y357711D02*Y353211D01*
Y357711D02*X53100Y358461D01*
X54600D01*
X55350Y357711D01*
Y353211D01*
X54600Y352461D02*X55350Y353211D01*
X53100Y352461D02*X54600D01*
X52350Y353961D02*X55350Y356961D01*
X57150Y357711D02*X57900Y358461D01*
X59400D01*
X60150Y357711D01*
X59400Y352461D02*X60150Y353211D01*
X57900Y352461D02*X59400D01*
X57150Y353211D02*X57900Y352461D01*
Y355761D02*X59400D01*
X60150Y357711D02*Y356511D01*
Y355011D02*Y353211D01*
Y355011D02*X59400Y355761D01*
X60150Y356511D02*X59400Y355761D01*
X61950Y353211D02*X62700Y352461D01*
X61950Y354411D02*Y353211D01*
Y354411D02*X63000Y355461D01*
X63900D01*
X64950Y354411D01*
Y353211D01*
X64200Y352461D02*X64950Y353211D01*
X62700Y352461D02*X64200D01*
X61950Y356511D02*X63000Y355461D01*
X61950Y357711D02*Y356511D01*
Y357711D02*X62700Y358461D01*
X64200D01*
X64950Y357711D01*
Y356511D01*
X63900Y355461D02*X64950Y356511D01*
X211295Y208899D02*Y205699D01*
X209695Y207299D02*X212895D01*
X150795Y189399D02*Y186199D01*
X149195Y187799D02*X152395D01*
X178295Y189399D02*Y186199D01*
X176695Y187799D02*X179895D01*
X206295Y82399D02*Y79199D01*
X204695Y80799D02*X207895D01*
X119985Y199376D02*Y196176D01*
X118385Y197776D02*X121585D01*
X186685Y160876D02*Y157676D01*
X185085Y159276D02*X188285D01*
X204685Y160876D02*Y157676D01*
X203085Y159276D02*X206285D01*
X186685Y145876D02*Y142676D01*
X185085Y144276D02*X188285D01*
X186685Y130876D02*Y127676D01*
X185085Y129276D02*X188285D01*
X186685Y115876D02*Y112676D01*
X185085Y114276D02*X188285D01*
X186685Y100876D02*Y97676D01*
X185085Y99276D02*X188285D01*
X204685Y100876D02*Y97676D01*
X203085Y99276D02*X206285D01*
X204685Y115876D02*Y112676D01*
X203085Y114276D02*X206285D01*
X204685Y130876D02*Y127676D01*
X203085Y129276D02*X206285D01*
X204685Y145876D02*Y142676D01*
X203085Y144276D02*X206285D01*
X222685Y100876D02*Y97676D01*
X221085Y99276D02*X224285D01*
X186685Y176876D02*Y173676D01*
X185085Y175276D02*X188285D01*
X114961Y138214D02*Y135014D01*
X113361Y136614D02*X116561D01*
X67700Y120961D02*Y117761D01*
X66100Y119361D02*X69300D01*
X133400Y69761D02*Y66561D01*
X131800Y68161D02*X135000D01*
X179200Y66461D02*Y63261D01*
X177600Y64861D02*X180800D01*
X54700Y154861D02*Y151661D01*
X53100Y153261D02*X56300D01*
X63700Y191661D02*Y188461D01*
X62100Y190061D02*X65300D01*
X134200Y260361D02*Y257161D01*
X132600Y258761D02*X135800D01*
X184200Y260061D02*Y256861D01*
X182600Y258461D02*X185800D01*
X37100Y277961D02*Y274761D01*
X35500Y276361D02*X38700D01*
X275300Y277961D02*Y274761D01*
X273700Y276361D02*X276900D01*
X262900Y176761D02*Y173561D01*
X261300Y175161D02*X264500D01*
X263000Y165261D02*Y162061D01*
X261400Y163661D02*X264600D01*
X266500Y153661D02*Y150461D01*
X264900Y152061D02*X268100D01*
X228800Y182361D02*Y179161D01*
X227200Y180761D02*X230400D01*
X241600Y182161D02*Y178961D01*
X240000Y180561D02*X243200D01*
X204700Y176861D02*Y173661D01*
X203100Y175261D02*X206300D01*
X15000Y372811D02*Y369611D01*
X13400Y371211D02*X16600D01*
X135000Y373461D02*X136500Y370461D01*
X138000Y373461D01*
X136500Y370461D02*Y367461D01*
X139800Y370761D02*X142050D01*
X139800Y367461D02*X142800D01*
X139800Y373461D02*Y367461D01*
Y373461D02*X142800D01*
X147600D02*X148350Y372711D01*
X145350Y373461D02*X147600D01*
X144600Y372711D02*X145350Y373461D01*
X144600Y372711D02*Y371211D01*
X145350Y370461D01*
X147600D01*
X148350Y369711D01*
Y368211D01*
X147600Y367461D02*X148350Y368211D01*
X145350Y367461D02*X147600D01*
X144600Y368211D02*X145350Y367461D01*
X98000Y372711D02*X98750Y373461D01*
X100250D01*
X101000Y372711D01*
X100250Y367461D02*X101000Y368211D01*
X98750Y367461D02*X100250D01*
X98000Y368211D02*X98750Y367461D01*
Y370761D02*X100250D01*
X101000Y372711D02*Y371511D01*
Y370011D02*Y368211D01*
Y370011D02*X100250Y370761D01*
X101000Y371511D02*X100250Y370761D01*
X102800Y372711D02*X103550Y373461D01*
X105050D01*
X105800Y372711D01*
X105050Y367461D02*X105800Y368211D01*
X103550Y367461D02*X105050D01*
X102800Y368211D02*X103550Y367461D01*
Y370761D02*X105050D01*
X105800Y372711D02*Y371511D01*
Y370011D02*Y368211D01*
Y370011D02*X105050Y370761D01*
X105800Y371511D02*X105050Y370761D01*
X45000Y368211D02*X45750Y367461D01*
X45000Y372711D02*Y368211D01*
Y372711D02*X45750Y373461D01*
X47250D01*
X48000Y372711D01*
Y368211D01*
X47250Y367461D02*X48000Y368211D01*
X45750Y367461D02*X47250D01*
X45000Y368961D02*X48000Y371961D01*
X49800Y367461D02*X50550D01*
X52350Y368211D02*X53100Y367461D01*
X52350Y372711D02*Y368211D01*
Y372711D02*X53100Y373461D01*
X54600D01*
X55350Y372711D01*
Y368211D01*
X54600Y367461D02*X55350Y368211D01*
X53100Y367461D02*X54600D01*
X52350Y368961D02*X55350Y371961D01*
X57150Y372711D02*X57900Y373461D01*
X59400D01*
X60150Y372711D01*
X59400Y367461D02*X60150Y368211D01*
X57900Y367461D02*X59400D01*
X57150Y368211D02*X57900Y367461D01*
Y370761D02*X59400D01*
X60150Y372711D02*Y371511D01*
Y370011D02*Y368211D01*
Y370011D02*X59400Y370761D01*
X60150Y371511D02*X59400Y370761D01*
X61950Y373461D02*X64950D01*
X61950D02*Y370461D01*
X62700Y371211D01*
X64200D01*
X64950Y370461D01*
Y368211D01*
X64200Y367461D02*X64950Y368211D01*
X62700Y367461D02*X64200D01*
X61950Y368211D02*X62700Y367461D01*
X91795Y193299D02*Y191699D01*
Y193299D02*X93182Y194099D01*
X91795Y193299D02*X90409Y194099D01*
X142295Y166799D02*Y165199D01*
Y166799D02*X143682Y167599D01*
X142295Y166799D02*X140909Y167599D01*
X148795Y138799D02*Y137199D01*
Y138799D02*X150182Y139599D01*
X148795Y138799D02*X147409Y139599D01*
X91795Y200299D02*Y198699D01*
Y200299D02*X93182Y201099D01*
X91795Y200299D02*X90409Y201099D01*
X76772Y246063D02*Y244463D01*
Y246063D02*X78158Y246863D01*
X76772Y246063D02*X75385Y246863D01*
X88583Y255118D02*Y253518D01*
Y255118D02*X89969Y255918D01*
X88583Y255118D02*X87196Y255918D01*
X125984Y272441D02*Y270841D01*
Y272441D02*X127371Y273241D01*
X125984Y272441D02*X124598Y273241D01*
X147638Y275984D02*Y274384D01*
Y275984D02*X149024Y276784D01*
X147638Y275984D02*X146251Y276784D01*
X168898Y275984D02*Y274384D01*
Y275984D02*X170284Y276784D01*
X168898Y275984D02*X167511Y276784D01*
X189764Y272047D02*Y270447D01*
Y272047D02*X191150Y272847D01*
X189764Y272047D02*X188377Y272847D01*
X210630Y264173D02*Y262573D01*
Y264173D02*X212017Y264973D01*
X210630Y264173D02*X209243Y264973D01*
X227165Y253937D02*Y252337D01*
Y253937D02*X228552Y254737D01*
X227165Y253937D02*X225779Y254737D01*
X254798Y242520D02*Y240920D01*
Y242520D02*X256185Y243320D01*
X254798Y242520D02*X253412Y243320D01*
X266929Y205512D02*Y203912D01*
Y205512D02*X268316Y206312D01*
X266929Y205512D02*X265542Y206312D01*
X104724Y264567D02*Y262967D01*
Y264567D02*X106111Y265367D01*
X104724Y264567D02*X103338Y265367D01*
X269600Y122361D02*Y120761D01*
Y122361D02*X270987Y123161D01*
X269600Y122361D02*X268213Y123161D01*
X261200Y101461D02*Y99861D01*
Y101461D02*X262587Y102261D01*
X261200Y101461D02*X259813Y102261D01*
X248800Y83261D02*Y81661D01*
Y83261D02*X250187Y84061D01*
X248800Y83261D02*X247413Y84061D01*
X238600Y72461D02*Y70861D01*
Y72461D02*X239987Y73261D01*
X238600Y72461D02*X237213Y73261D01*
X226500Y62561D02*Y60961D01*
Y62561D02*X227887Y63361D01*
X226500Y62561D02*X225113Y63361D01*
X209900Y52561D02*Y50961D01*
Y52561D02*X211287Y53361D01*
X209900Y52561D02*X208513Y53361D01*
X189400Y44461D02*Y42861D01*
Y44461D02*X190787Y45261D01*
X189400Y44461D02*X188013Y45261D01*
X167400Y40361D02*Y38761D01*
Y40361D02*X168787Y41161D01*
X167400Y40361D02*X166013Y41161D01*
X145800Y40161D02*Y38561D01*
Y40161D02*X147187Y40961D01*
X145800Y40161D02*X144413Y40961D01*
X125197Y43701D02*Y42101D01*
Y43701D02*X126584Y44501D01*
X125197Y43701D02*X123810Y44501D01*
X104800Y51661D02*Y50061D01*
Y51661D02*X106187Y52461D01*
X104800Y51661D02*X103413Y52461D01*
X88300Y62261D02*Y60661D01*
Y62261D02*X89687Y63061D01*
X88300Y62261D02*X86913Y63061D01*
X75600Y73461D02*Y71861D01*
Y73461D02*X76987Y74261D01*
X75600Y73461D02*X74213Y74261D01*
X65700Y84661D02*Y83061D01*
Y84661D02*X67087Y85461D01*
X65700Y84661D02*X64313Y85461D01*
X54100Y102761D02*Y101161D01*
Y102761D02*X55487Y103561D01*
X54100Y102761D02*X52713Y103561D01*
X45700Y123561D02*Y121961D01*
Y123561D02*X47087Y124361D01*
X45700Y123561D02*X44313Y124361D01*
X41500Y143961D02*Y142361D01*
Y143961D02*X42887Y144761D01*
X41500Y143961D02*X40113Y144761D01*
X40600Y163861D02*Y162261D01*
Y163861D02*X41987Y164661D01*
X40600Y163861D02*X39213Y164661D01*
X43400Y184461D02*Y182861D01*
Y184461D02*X44787Y185261D01*
X43400Y184461D02*X42013Y185261D01*
X50000Y205512D02*Y203912D01*
Y205512D02*X51387Y206312D01*
X50000Y205512D02*X48613Y206312D01*
X155400Y19061D02*Y17461D01*
Y19061D02*X156787Y19861D01*
X155400Y19061D02*X154013Y19861D01*
X175600Y19961D02*Y18361D01*
Y19961D02*X176987Y20761D01*
X175600Y19961D02*X174213Y20761D01*
X136900Y22461D02*Y20861D01*
Y22461D02*X138287Y23261D01*
X136900Y22461D02*X135513Y23261D01*
X111200Y30961D02*Y29361D01*
Y30961D02*X112587Y31761D01*
X111200Y30961D02*X109813Y31761D01*
X20900Y141261D02*Y139661D01*
Y141261D02*X22287Y142061D01*
X20900Y141261D02*X19513Y142061D01*
X22700Y174861D02*Y173261D01*
Y174861D02*X24087Y175661D01*
X22700Y174861D02*X21313Y175661D01*
X20400Y155261D02*Y153661D01*
Y155261D02*X21787Y156061D01*
X20400Y155261D02*X19013Y156061D01*
X24500Y117061D02*Y115461D01*
Y117061D02*X25887Y117861D01*
X24500Y117061D02*X23113Y117861D01*
X33800Y95361D02*Y93761D01*
Y95361D02*X35187Y96161D01*
X33800Y95361D02*X32413Y96161D01*
X27400Y193261D02*Y191661D01*
Y193261D02*X28787Y194061D01*
X27400Y193261D02*X26013Y194061D01*
X102756Y252362D02*Y250762D01*
Y252362D02*X104143Y253162D01*
X102756Y252362D02*X101369Y253162D01*
X93701Y164173D02*Y162573D01*
Y164173D02*X95087Y164973D01*
X93701Y164173D02*X92314Y164973D01*
X93701Y151575D02*Y149975D01*
Y151575D02*X95087Y152375D01*
X93701Y151575D02*X92314Y152375D01*
X252362Y132283D02*Y130683D01*
Y132283D02*X253749Y133083D01*
X252362Y132283D02*X250976Y133083D01*
X252362Y122835D02*Y121235D01*
Y122835D02*X253749Y123635D01*
X252362Y122835D02*X250976Y123635D01*
X255200Y164361D02*Y162761D01*
Y164361D02*X256587Y165161D01*
X255200Y164361D02*X253813Y165161D01*
X247000Y164361D02*Y162761D01*
Y164361D02*X248387Y165161D01*
X247000Y164361D02*X245613Y165161D01*
X293500Y193861D02*Y192261D01*
Y193861D02*X294887Y194661D01*
X293500Y193861D02*X292113Y194661D01*
X296100Y167361D02*Y165761D01*
Y167361D02*X297487Y168161D01*
X296100Y167361D02*X294713Y168161D01*
X296000Y153461D02*Y151861D01*
Y153461D02*X297387Y154261D01*
X296000Y153461D02*X294613Y154261D01*
X292700Y133361D02*Y131761D01*
Y133361D02*X294087Y134161D01*
X292700Y133361D02*X291313Y134161D01*
X286400Y113861D02*Y112261D01*
Y113861D02*X287787Y114661D01*
X286400Y113861D02*X285013Y114661D01*
X275400Y92561D02*Y90961D01*
Y92561D02*X276787Y93361D01*
X275400Y92561D02*X274013Y93361D01*
X264600Y64561D02*Y62961D01*
Y64561D02*X265987Y65361D01*
X264600Y64561D02*X263213Y65361D01*
X191600Y23061D02*Y21461D01*
Y23061D02*X192987Y23861D01*
X191600Y23061D02*X190213Y23861D01*
X212300Y31161D02*Y29561D01*
Y31161D02*X213687Y31961D01*
X212300Y31161D02*X210913Y31961D01*
X101300Y284961D02*Y283361D01*
Y284961D02*X102687Y285761D01*
X101300Y284961D02*X99913Y285761D01*
X117100Y292261D02*Y290661D01*
Y292261D02*X118487Y293061D01*
X117100Y292261D02*X115713Y293061D01*
X137800Y296461D02*Y294861D01*
Y296461D02*X139187Y297261D01*
X137800Y296461D02*X136413Y297261D01*
X158900Y295861D02*Y294261D01*
Y295861D02*X160287Y296661D01*
X158900Y295861D02*X157513Y296661D01*
X178600Y292461D02*Y290861D01*
Y292461D02*X179987Y293261D01*
X178600Y292461D02*X177213Y293261D01*
X198000Y285861D02*Y284261D01*
Y285861D02*X199387Y286661D01*
X198000Y285861D02*X196613Y286661D01*
X219700Y280161D02*Y278561D01*
Y280161D02*X221087Y280961D01*
X219700Y280161D02*X218313Y280961D01*
X15000Y386211D02*Y384611D01*
Y386211D02*X16387Y387011D01*
X15000Y386211D02*X13613Y387011D01*
X135000Y388461D02*X136500Y385461D01*
X138000Y388461D01*
X136500Y385461D02*Y382461D01*
X139800Y385761D02*X142050D01*
X139800Y382461D02*X142800D01*
X139800Y388461D02*Y382461D01*
Y388461D02*X142800D01*
X147600D02*X148350Y387711D01*
X145350Y388461D02*X147600D01*
X144600Y387711D02*X145350Y388461D01*
X144600Y387711D02*Y386211D01*
X145350Y385461D01*
X147600D01*
X148350Y384711D01*
Y383211D01*
X147600Y382461D02*X148350Y383211D01*
X145350Y382461D02*X147600D01*
X144600Y383211D02*X145350Y382461D01*
X100250Y388461D02*X101000Y387711D01*
X98750Y388461D02*X100250D01*
X98000Y387711D02*X98750Y388461D01*
X98000Y387711D02*Y383211D01*
X98750Y382461D01*
X100250Y385761D02*X101000Y385011D01*
X98000Y385761D02*X100250D01*
X98750Y382461D02*X100250D01*
X101000Y383211D01*
Y385011D02*Y383211D01*
X102800D02*X103550Y382461D01*
X102800Y384411D02*Y383211D01*
Y384411D02*X103850Y385461D01*
X104750D01*
X105800Y384411D01*
Y383211D01*
X105050Y382461D02*X105800Y383211D01*
X103550Y382461D02*X105050D01*
X102800Y386511D02*X103850Y385461D01*
X102800Y387711D02*Y386511D01*
Y387711D02*X103550Y388461D01*
X105050D01*
X105800Y387711D01*
Y386511D01*
X104750Y385461D02*X105800Y386511D01*
X45000Y383211D02*X45750Y382461D01*
X45000Y387711D02*Y383211D01*
Y387711D02*X45750Y388461D01*
X47250D01*
X48000Y387711D01*
Y383211D01*
X47250Y382461D02*X48000Y383211D01*
X45750Y382461D02*X47250D01*
X45000Y383961D02*X48000Y386961D01*
X49800Y382461D02*X50550D01*
X52350Y383211D02*X53100Y382461D01*
X52350Y387711D02*Y383211D01*
Y387711D02*X53100Y388461D01*
X54600D01*
X55350Y387711D01*
Y383211D01*
X54600Y382461D02*X55350Y383211D01*
X53100Y382461D02*X54600D01*
X52350Y383961D02*X55350Y386961D01*
X57150Y387711D02*X57900Y388461D01*
X60150D01*
X60900Y387711D01*
Y386211D01*
X57150Y382461D02*X60900Y386211D01*
X57150Y382461D02*X60900D01*
X62700Y383211D02*X63450Y382461D01*
X62700Y387711D02*Y383211D01*
Y387711D02*X63450Y388461D01*
X64950D01*
X65700Y387711D01*
Y383211D01*
X64950Y382461D02*X65700Y383211D01*
X63450Y382461D02*X64950D01*
X62700Y383961D02*X65700Y386961D01*
X3000Y403461D02*X3750Y402711D01*
X750Y403461D02*X3000D01*
X0Y402711D02*X750Y403461D01*
X0Y402711D02*Y401211D01*
X750Y400461D01*
X3000D01*
X3750Y399711D01*
Y398211D01*
X3000Y397461D02*X3750Y398211D01*
X750Y397461D02*X3000D01*
X0Y398211D02*X750Y397461D01*
X5550Y400461D02*Y398211D01*
X6300Y397461D01*
X8550Y400461D02*Y395961D01*
X7800Y395211D02*X8550Y395961D01*
X6300Y395211D02*X7800D01*
X5550Y395961D02*X6300Y395211D01*
Y397461D02*X7800D01*
X8550Y398211D01*
X11100Y399711D02*Y397461D01*
Y399711D02*X11850Y400461D01*
X12600D01*
X13350Y399711D01*
Y397461D01*
Y399711D02*X14100Y400461D01*
X14850D01*
X15600Y399711D01*
Y397461D01*
X10350Y400461D02*X11100Y399711D01*
X17400Y403461D02*Y397461D01*
Y398211D02*X18150Y397461D01*
X19650D01*
X20400Y398211D01*
Y399711D02*Y398211D01*
X19650Y400461D02*X20400Y399711D01*
X18150Y400461D02*X19650D01*
X17400Y399711D02*X18150Y400461D01*
X22200Y399711D02*Y398211D01*
Y399711D02*X22950Y400461D01*
X24450D01*
X25200Y399711D01*
Y398211D01*
X24450Y397461D02*X25200Y398211D01*
X22950Y397461D02*X24450D01*
X22200Y398211D02*X22950Y397461D01*
X27000Y403461D02*Y398211D01*
X27750Y397461D01*
X0Y394211D02*X29250D01*
X41750Y403461D02*Y397461D01*
X43700Y403461D02*X44750Y402411D01*
Y398511D01*
X43700Y397461D02*X44750Y398511D01*
X41000Y397461D02*X43700D01*
X41000Y403461D02*X43700D01*
G54D64*X46550Y401961D02*Y401811D01*
G54D63*Y399711D02*Y397461D01*
X50300Y400461D02*X51050Y399711D01*
X48800Y400461D02*X50300D01*
X48050Y399711D02*X48800Y400461D01*
X48050Y399711D02*Y398211D01*
X48800Y397461D01*
X51050Y400461D02*Y398211D01*
X51800Y397461D01*
X48800D02*X50300D01*
X51050Y398211D01*
X54350Y399711D02*Y397461D01*
Y399711D02*X55100Y400461D01*
X55850D01*
X56600Y399711D01*
Y397461D01*
Y399711D02*X57350Y400461D01*
X58100D01*
X58850Y399711D01*
Y397461D01*
X53600Y400461D02*X54350Y399711D01*
X60650Y397461D02*X61400D01*
X65900Y398211D02*X66650Y397461D01*
X65900Y402711D02*X66650Y403461D01*
X65900Y402711D02*Y398211D01*
X68450Y403461D02*X69950D01*
X69200D02*Y397461D01*
X68450D02*X69950D01*
X72500Y399711D02*Y397461D01*
Y399711D02*X73250Y400461D01*
X74000D01*
X74750Y399711D01*
Y397461D01*
X71750Y400461D02*X72500Y399711D01*
X77300Y400461D02*X79550D01*
X76550Y399711D02*X77300Y400461D01*
X76550Y399711D02*Y398211D01*
X77300Y397461D01*
X79550D01*
X81350Y403461D02*Y397461D01*
Y399711D02*X82100Y400461D01*
X83600D01*
X84350Y399711D01*
Y397461D01*
X86150Y403461D02*X86900Y402711D01*
Y398211D01*
X86150Y397461D02*X86900Y398211D01*
X41000Y394211D02*X88700D01*
X96050Y397461D02*X98000D01*
X95000Y398511D02*X96050Y397461D01*
X95000Y402411D02*Y398511D01*
Y402411D02*X96050Y403461D01*
X98000D01*
X99800Y399711D02*Y398211D01*
Y399711D02*X100550Y400461D01*
X102050D01*
X102800Y399711D01*
Y398211D01*
X102050Y397461D02*X102800Y398211D01*
X100550Y397461D02*X102050D01*
X99800Y398211D02*X100550Y397461D01*
X104600Y400461D02*Y398211D01*
X105350Y397461D01*
X106850D01*
X107600Y398211D01*
Y400461D02*Y398211D01*
X110150Y399711D02*Y397461D01*
Y399711D02*X110900Y400461D01*
X111650D01*
X112400Y399711D01*
Y397461D01*
X109400Y400461D02*X110150Y399711D01*
X114950Y403461D02*Y398211D01*
X115700Y397461D01*
X114200Y401211D02*X115700D01*
X95000Y394211D02*X117200D01*
X130750Y403461D02*Y397461D01*
X130000Y403461D02*X133000D01*
X133750Y402711D01*
Y401211D01*
X133000Y400461D02*X133750Y401211D01*
X130750Y400461D02*X133000D01*
X135550Y403461D02*Y398211D01*
X136300Y397461D01*
X140050Y400461D02*X140800Y399711D01*
X138550Y400461D02*X140050D01*
X137800Y399711D02*X138550Y400461D01*
X137800Y399711D02*Y398211D01*
X138550Y397461D01*
X140800Y400461D02*Y398211D01*
X141550Y397461D01*
X138550D02*X140050D01*
X140800Y398211D01*
X144100Y403461D02*Y398211D01*
X144850Y397461D01*
X143350Y401211D02*X144850D01*
X147100Y397461D02*X149350D01*
X146350Y398211D02*X147100Y397461D01*
X146350Y399711D02*Y398211D01*
Y399711D02*X147100Y400461D01*
X148600D01*
X149350Y399711D01*
X146350Y398961D02*X149350D01*
Y399711D02*Y398961D01*
X154150Y403461D02*Y397461D01*
X153400D02*X154150Y398211D01*
X151900Y397461D02*X153400D01*
X151150Y398211D02*X151900Y397461D01*
X151150Y399711D02*Y398211D01*
Y399711D02*X151900Y400461D01*
X153400D01*
X154150Y399711D01*
X157450Y400461D02*Y399711D01*
Y398211D02*Y397461D01*
X155950Y402711D02*Y401961D01*
Y402711D02*X156700Y403461D01*
X158200D01*
X158950Y402711D01*
Y401961D01*
X157450Y400461D02*X158950Y401961D01*
X130000Y394211D02*X160750D01*
X0Y418461D02*X3000D01*
X1500D02*Y412461D01*
X4800Y418461D02*Y412461D01*
Y414711D02*X5550Y415461D01*
X7050D01*
X7800Y414711D01*
Y412461D01*
X10350D02*X12600D01*
X9600Y413211D02*X10350Y412461D01*
X9600Y414711D02*Y413211D01*
Y414711D02*X10350Y415461D01*
X11850D01*
X12600Y414711D01*
X9600Y413961D02*X12600D01*
Y414711D02*Y413961D01*
X15150Y414711D02*Y412461D01*
Y414711D02*X15900Y415461D01*
X17400D01*
X14400D02*X15150Y414711D01*
X19950Y412461D02*X22200D01*
X19200Y413211D02*X19950Y412461D01*
X19200Y414711D02*Y413211D01*
Y414711D02*X19950Y415461D01*
X21450D01*
X22200Y414711D01*
X19200Y413961D02*X22200D01*
Y414711D02*Y413961D01*
X28950Y415461D02*X29700Y414711D01*
X27450Y415461D02*X28950D01*
X26700Y414711D02*X27450Y415461D01*
X26700Y414711D02*Y413211D01*
X27450Y412461D01*
X29700Y415461D02*Y413211D01*
X30450Y412461D01*
X27450D02*X28950D01*
X29700Y413211D01*
X33000Y414711D02*Y412461D01*
Y414711D02*X33750Y415461D01*
X35250D01*
X32250D02*X33000Y414711D01*
X37800Y412461D02*X40050D01*
X37050Y413211D02*X37800Y412461D01*
X37050Y414711D02*Y413211D01*
Y414711D02*X37800Y415461D01*
X39300D01*
X40050Y414711D01*
X37050Y413961D02*X40050D01*
Y414711D02*Y413961D01*
X44550Y418461D02*X47550D01*
X44550D02*Y415461D01*
X45300Y416211D01*
X46800D01*
X47550Y415461D01*
Y413211D01*
X46800Y412461D02*X47550Y413211D01*
X45300Y412461D02*X46800D01*
X44550Y413211D02*X45300Y412461D01*
X55050Y418461D02*Y412461D01*
X54300D02*X55050Y413211D01*
X52800Y412461D02*X54300D01*
X52050Y413211D02*X52800Y412461D01*
X52050Y414711D02*Y413211D01*
Y414711D02*X52800Y415461D01*
X54300D01*
X55050Y414711D01*
G54D64*X56850Y416961D02*Y416811D01*
G54D63*Y414711D02*Y412461D01*
X59100Y417711D02*Y412461D01*
Y417711D02*X59850Y418461D01*
X60600D01*
X58350Y415461D02*X59850D01*
X62850Y417711D02*Y412461D01*
Y417711D02*X63600Y418461D01*
X64350D01*
X62100Y415461D02*X63600D01*
X66600Y412461D02*X68850D01*
X65850Y413211D02*X66600Y412461D01*
X65850Y414711D02*Y413211D01*
Y414711D02*X66600Y415461D01*
X68100D01*
X68850Y414711D01*
X65850Y413961D02*X68850D01*
Y414711D02*Y413961D01*
X71400Y414711D02*Y412461D01*
Y414711D02*X72150Y415461D01*
X73650D01*
X70650D02*X71400Y414711D01*
X76200Y412461D02*X78450D01*
X75450Y413211D02*X76200Y412461D01*
X75450Y414711D02*Y413211D01*
Y414711D02*X76200Y415461D01*
X77700D01*
X78450Y414711D01*
X75450Y413961D02*X78450D01*
Y414711D02*Y413961D01*
X81000Y414711D02*Y412461D01*
Y414711D02*X81750Y415461D01*
X82500D01*
X83250Y414711D01*
Y412461D01*
X80250Y415461D02*X81000Y414711D01*
X85800Y418461D02*Y413211D01*
X86550Y412461D01*
X85050Y416211D02*X86550D01*
X93750Y418461D02*Y412461D01*
X93000D02*X93750Y413211D01*
X91500Y412461D02*X93000D01*
X90750Y413211D02*X91500Y412461D01*
X90750Y414711D02*Y413211D01*
Y414711D02*X91500Y415461D01*
X93000D01*
X93750Y414711D01*
X96300D02*Y412461D01*
Y414711D02*X97050Y415461D01*
X98550D01*
X95550D02*X96300Y414711D01*
G54D64*X100350Y416961D02*Y416811D01*
G54D63*Y414711D02*Y412461D01*
X101850Y418461D02*Y413211D01*
X102600Y412461D01*
X104100Y418461D02*Y413211D01*
X104850Y412461D01*
X109800D02*X112050D01*
X112800Y413211D01*
X112050Y413961D02*X112800Y413211D01*
X109800Y413961D02*X112050D01*
X109050Y414711D02*X109800Y413961D01*
X109050Y414711D02*X109800Y415461D01*
X112050D01*
X112800Y414711D01*
X109050Y413211D02*X109800Y412461D01*
G54D64*X114600Y416961D02*Y416811D01*
G54D63*Y414711D02*Y412461D01*
X116100Y415461D02*X119100D01*
X116100Y412461D02*X119100Y415461D01*
X116100Y412461D02*X119100D01*
X121650D02*X123900D01*
X120900Y413211D02*X121650Y412461D01*
X120900Y414711D02*Y413211D01*
Y414711D02*X121650Y415461D01*
X123150D01*
X123900Y414711D01*
X120900Y413961D02*X123900D01*
Y414711D02*Y413961D01*
X126450Y412461D02*X128700D01*
X129450Y413211D01*
X128700Y413961D02*X129450Y413211D01*
X126450Y413961D02*X128700D01*
X125700Y414711D02*X126450Y413961D01*
X125700Y414711D02*X126450Y415461D01*
X128700D01*
X129450Y414711D01*
X125700Y413211D02*X126450Y412461D01*
X133950Y415461D02*Y413211D01*
X134700Y412461D01*
X136200D01*
X136950Y413211D01*
Y415461D02*Y413211D01*
X139500Y412461D02*X141750D01*
X142500Y413211D01*
X141750Y413961D02*X142500Y413211D01*
X139500Y413961D02*X141750D01*
X138750Y414711D02*X139500Y413961D01*
X138750Y414711D02*X139500Y415461D01*
X141750D01*
X142500Y414711D01*
X138750Y413211D02*X139500Y412461D01*
X145050D02*X147300D01*
X144300Y413211D02*X145050Y412461D01*
X144300Y414711D02*Y413211D01*
Y414711D02*X145050Y415461D01*
X146550D01*
X147300Y414711D01*
X144300Y413961D02*X147300D01*
Y414711D02*Y413961D01*
X152100Y418461D02*Y412461D01*
X151350D02*X152100Y413211D01*
X149850Y412461D02*X151350D01*
X149100Y413211D02*X149850Y412461D01*
X149100Y414711D02*Y413211D01*
Y414711D02*X149850Y415461D01*
X151350D01*
X152100Y414711D01*
G54D64*X156600Y416961D02*Y416811D01*
G54D63*Y414711D02*Y412461D01*
X158850Y414711D02*Y412461D01*
Y414711D02*X159600Y415461D01*
X160350D01*
X161100Y414711D01*
Y412461D01*
X158100Y415461D02*X158850Y414711D01*
X166350Y418461D02*Y413211D01*
X167100Y412461D01*
X165600Y416211D02*X167100D01*
X168600Y418461D02*Y412461D01*
Y414711D02*X169350Y415461D01*
X170850D01*
X171600Y414711D01*
Y412461D01*
G54D64*X173400Y416961D02*Y416811D01*
G54D63*Y414711D02*Y412461D01*
X175650D02*X177900D01*
X178650Y413211D01*
X177900Y413961D02*X178650Y413211D01*
X175650Y413961D02*X177900D01*
X174900Y414711D02*X175650Y413961D01*
X174900Y414711D02*X175650Y415461D01*
X177900D01*
X178650Y414711D01*
X174900Y413211D02*X175650Y412461D01*
X183150Y418461D02*Y413211D01*
X183900Y412461D01*
X187650Y415461D02*X188400Y414711D01*
X186150Y415461D02*X187650D01*
X185400Y414711D02*X186150Y415461D01*
X185400Y414711D02*Y413211D01*
X186150Y412461D01*
X188400Y415461D02*Y413211D01*
X189150Y412461D01*
X186150D02*X187650D01*
X188400Y413211D01*
X190950Y415461D02*Y413211D01*
X191700Y412461D01*
X193950Y415461D02*Y410961D01*
X193200Y410211D02*X193950Y410961D01*
X191700Y410211D02*X193200D01*
X190950Y410961D02*X191700Y410211D01*
Y412461D02*X193200D01*
X193950Y413211D01*
X195750Y414711D02*Y413211D01*
Y414711D02*X196500Y415461D01*
X198000D01*
X198750Y414711D01*
Y413211D01*
X198000Y412461D02*X198750Y413211D01*
X196500Y412461D02*X198000D01*
X195750Y413211D02*X196500Y412461D01*
X200550Y415461D02*Y413211D01*
X201300Y412461D01*
X202800D01*
X203550Y413211D01*
Y415461D02*Y413211D01*
X206100Y418461D02*Y413211D01*
X206850Y412461D01*
X205350Y416211D02*X206850D01*
X208350Y410961D02*X209850Y412461D01*
X214350Y417261D02*X215550Y418461D01*
Y412461D01*
X214350D02*X216600D01*
X218400Y414711D02*X221400Y418461D01*
X218400Y414711D02*X222150D01*
X221400Y418461D02*Y412461D01*
X224700D02*X227700Y418461D01*
X223950D02*X227700D01*
X232200D02*Y412461D01*
Y414711D02*X232950Y415461D01*
X234450D01*
X235200Y414711D01*
Y412461D01*
X237000Y414711D02*Y413211D01*
Y414711D02*X237750Y415461D01*
X239250D01*
X240000Y414711D01*
Y413211D01*
X239250Y412461D02*X240000Y413211D01*
X237750Y412461D02*X239250D01*
X237000Y413211D02*X237750Y412461D01*
X241800Y418461D02*Y413211D01*
X242550Y412461D01*
X244800D02*X247050D01*
X244050Y413211D02*X244800Y412461D01*
X244050Y414711D02*Y413211D01*
Y414711D02*X244800Y415461D01*
X246300D01*
X247050Y414711D01*
X244050Y413961D02*X247050D01*
Y414711D02*Y413961D01*
X249600Y412461D02*X251850D01*
X252600Y413211D01*
X251850Y413961D02*X252600Y413211D01*
X249600Y413961D02*X251850D01*
X248850Y414711D02*X249600Y413961D01*
X248850Y414711D02*X249600Y415461D01*
X251850D01*
X252600Y414711D01*
X248850Y413211D02*X249600Y412461D01*
X257850Y418461D02*Y413211D01*
X258600Y412461D01*
X257100Y416211D02*X258600D01*
X260100Y414711D02*Y413211D01*
Y414711D02*X260850Y415461D01*
X262350D01*
X263100Y414711D01*
Y413211D01*
X262350Y412461D02*X263100Y413211D01*
X260850Y412461D02*X262350D01*
X260100Y413211D02*X260850Y412461D01*
X265650Y418461D02*Y413211D01*
X266400Y412461D01*
X264900Y416211D02*X266400D01*
X270150Y415461D02*X270900Y414711D01*
X268650Y415461D02*X270150D01*
X267900Y414711D02*X268650Y415461D01*
X267900Y414711D02*Y413211D01*
X268650Y412461D01*
X270900Y415461D02*Y413211D01*
X271650Y412461D01*
X268650D02*X270150D01*
X270900Y413211D01*
X273450Y418461D02*Y413211D01*
X274200Y412461D01*
G54D65*X20079Y280709D02*Y221654D01*
X294882Y280709D02*Y221654D01*
X221260Y294882D02*X280709D01*
X34252D02*X93307D01*
X20079Y34252D02*Y93307D01*
X93307Y20079D02*X34252D01*
X221434Y19941D02*X280709Y20079D01*
X294882Y34252D02*Y92913D01*
X34252Y20079D02*G75*G02X20079Y34252I0J14173D01*G01*
Y280709D02*G75*G02X34252Y294882I14173J0D01*G01*
X280709D02*G75*G02X294882Y280709I0J-14173D01*G01*
Y34252D02*G75*G02X280709Y20079I-14173J0D01*G01*
X221250Y295020D02*G75*G03X93133Y295020I-64058J-137373D01*G01*
X19941Y221643D02*G75*G03X19941Y93527I137373J-64058D01*G01*
X93317Y19941D02*G75*G03X221434Y19941I64058J137373D01*G01*
X295020Y93317D02*G75*G03X295020Y221434I-137373J64058D01*G01*
G54D63*X71155Y-9500D02*X74155D01*
X74905Y-8750D01*
Y-6950D02*Y-8750D01*
X74155Y-6200D02*X74905Y-6950D01*
X71905Y-6200D02*X74155D01*
X71905Y-3500D02*Y-9500D01*
X71155Y-3500D02*X74155D01*
X74905Y-4250D01*
Y-5450D01*
X74155Y-6200D02*X74905Y-5450D01*
X76705Y-7250D02*Y-8750D01*
Y-7250D02*X77455Y-6500D01*
X78955D01*
X79705Y-7250D01*
Y-8750D01*
X78955Y-9500D02*X79705Y-8750D01*
X77455Y-9500D02*X78955D01*
X76705Y-8750D02*X77455Y-9500D01*
X83755Y-6500D02*X84505Y-7250D01*
X82255Y-6500D02*X83755D01*
X81505Y-7250D02*X82255Y-6500D01*
X81505Y-7250D02*Y-8750D01*
X82255Y-9500D01*
X84505Y-6500D02*Y-8750D01*
X85255Y-9500D01*
X82255D02*X83755D01*
X84505Y-8750D01*
X87805Y-7250D02*Y-9500D01*
Y-7250D02*X88555Y-6500D01*
X90055D01*
X87055D02*X87805Y-7250D01*
X94855Y-3500D02*Y-9500D01*
X94105D02*X94855Y-8750D01*
X92605Y-9500D02*X94105D01*
X91855Y-8750D02*X92605Y-9500D01*
X91855Y-7250D02*Y-8750D01*
Y-7250D02*X92605Y-6500D01*
X94105D01*
X94855Y-7250D01*
X99355D02*Y-8750D01*
Y-7250D02*X100105Y-6500D01*
X101605D01*
X102355Y-7250D01*
Y-8750D01*
X101605Y-9500D02*X102355Y-8750D01*
X100105Y-9500D02*X101605D01*
X99355Y-8750D02*X100105Y-9500D01*
X104155Y-6500D02*Y-8750D01*
X104905Y-9500D01*
X106405D01*
X107155Y-8750D01*
Y-6500D02*Y-8750D01*
X109705Y-3500D02*Y-8750D01*
X110455Y-9500D01*
X108955Y-5750D02*X110455D01*
X111955Y-3500D02*Y-8750D01*
X112705Y-9500D01*
G54D64*X114205Y-5000D02*Y-5150D01*
G54D63*Y-7250D02*Y-9500D01*
X116455Y-7250D02*Y-9500D01*
Y-7250D02*X117205Y-6500D01*
X117955D01*
X118705Y-7250D01*
Y-9500D01*
X115705Y-6500D02*X116455Y-7250D01*
X121255Y-9500D02*X123505D01*
X120505Y-8750D02*X121255Y-9500D01*
X120505Y-7250D02*Y-8750D01*
Y-7250D02*X121255Y-6500D01*
X122755D01*
X123505Y-7250D01*
X120505Y-8000D02*X123505D01*
Y-7250D02*Y-8000D01*
G54D64*X128005Y-5000D02*Y-5150D01*
G54D63*Y-7250D02*Y-9500D01*
X130255D02*X132505D01*
X133255Y-8750D01*
X132505Y-8000D02*X133255Y-8750D01*
X130255Y-8000D02*X132505D01*
X129505Y-7250D02*X130255Y-8000D01*
X129505Y-7250D02*X130255Y-6500D01*
X132505D01*
X133255Y-7250D01*
X129505Y-8750D02*X130255Y-9500D01*
X138505Y-3500D02*Y-8750D01*
X139255Y-9500D01*
X137755Y-5750D02*X139255D01*
X140755Y-3500D02*Y-9500D01*
Y-7250D02*X141505Y-6500D01*
X143005D01*
X143755Y-7250D01*
Y-9500D01*
X146305D02*X148555D01*
X145555Y-8750D02*X146305Y-9500D01*
X145555Y-7250D02*Y-8750D01*
Y-7250D02*X146305Y-6500D01*
X147805D01*
X148555Y-7250D01*
X145555Y-8000D02*X148555D01*
Y-7250D02*Y-8000D01*
X153805Y-6500D02*X156055D01*
X153055Y-7250D02*X153805Y-6500D01*
X153055Y-7250D02*Y-8750D01*
X153805Y-9500D01*
X156055D01*
X158605D02*X160855D01*
X157855Y-8750D02*X158605Y-9500D01*
X157855Y-7250D02*Y-8750D01*
Y-7250D02*X158605Y-6500D01*
X160105D01*
X160855Y-7250D01*
X157855Y-8000D02*X160855D01*
Y-7250D02*Y-8000D01*
X163405Y-7250D02*Y-9500D01*
Y-7250D02*X164155Y-6500D01*
X164905D01*
X165655Y-7250D01*
Y-9500D01*
X162655Y-6500D02*X163405Y-7250D01*
X168205Y-3500D02*Y-8750D01*
X168955Y-9500D01*
X167455Y-5750D02*X168955D01*
X171205Y-9500D02*X173455D01*
X170455Y-8750D02*X171205Y-9500D01*
X170455Y-7250D02*Y-8750D01*
Y-7250D02*X171205Y-6500D01*
X172705D01*
X173455Y-7250D01*
X170455Y-8000D02*X173455D01*
Y-7250D02*Y-8000D01*
X176005Y-7250D02*Y-9500D01*
Y-7250D02*X176755Y-6500D01*
X178255D01*
X175255D02*X176005Y-7250D01*
X180055Y-3500D02*Y-8750D01*
X180805Y-9500D01*
G54D64*X182305Y-5000D02*Y-5150D01*
G54D63*Y-7250D02*Y-9500D01*
X184555Y-7250D02*Y-9500D01*
Y-7250D02*X185305Y-6500D01*
X186055D01*
X186805Y-7250D01*
Y-9500D01*
X183805Y-6500D02*X184555Y-7250D01*
X189355Y-9500D02*X191605D01*
X188605Y-8750D02*X189355Y-9500D01*
X188605Y-7250D02*Y-8750D01*
Y-7250D02*X189355Y-6500D01*
X190855D01*
X191605Y-7250D01*
X188605Y-8000D02*X191605D01*
Y-7250D02*Y-8000D01*
X196105Y-7250D02*Y-8750D01*
Y-7250D02*X196855Y-6500D01*
X198355D01*
X199105Y-7250D01*
Y-8750D01*
X198355Y-9500D02*X199105Y-8750D01*
X196855Y-9500D02*X198355D01*
X196105Y-8750D02*X196855Y-9500D01*
X201655Y-4250D02*Y-9500D01*
Y-4250D02*X202405Y-3500D01*
X203155D01*
X200905Y-6500D02*X202405D01*
X208105Y-3500D02*Y-8750D01*
X208855Y-9500D01*
X207355Y-5750D02*X208855D01*
X210355Y-3500D02*Y-9500D01*
Y-7250D02*X211105Y-6500D01*
X212605D01*
X213355Y-7250D01*
Y-9500D01*
G54D64*X215155Y-5000D02*Y-5150D01*
G54D63*Y-7250D02*Y-9500D01*
X217405D02*X219655D01*
X220405Y-8750D01*
X219655Y-8000D02*X220405Y-8750D01*
X217405Y-8000D02*X219655D01*
X216655Y-7250D02*X217405Y-8000D01*
X216655Y-7250D02*X217405Y-6500D01*
X219655D01*
X220405Y-7250D01*
X216655Y-8750D02*X217405Y-9500D01*
X225655Y-7250D02*Y-11750D01*
X224905Y-6500D02*X225655Y-7250D01*
X226405Y-6500D01*
X227905D01*
X228655Y-7250D01*
Y-8750D01*
X227905Y-9500D02*X228655Y-8750D01*
X226405Y-9500D02*X227905D01*
X225655Y-8750D02*X226405Y-9500D01*
X232705Y-6500D02*X233455Y-7250D01*
X231205Y-6500D02*X232705D01*
X230455Y-7250D02*X231205Y-6500D01*
X230455Y-7250D02*Y-8750D01*
X231205Y-9500D01*
X233455Y-6500D02*Y-8750D01*
X234205Y-9500D01*
X231205D02*X232705D01*
X233455Y-8750D01*
X236755Y-3500D02*Y-8750D01*
X237505Y-9500D01*
X236005Y-5750D02*X237505D01*
X239005Y-3500D02*Y-9500D01*
Y-7250D02*X239755Y-6500D01*
X241255D01*
X242005Y-7250D01*
Y-9500D01*
X200750Y343461D02*Y337461D01*
X202700Y343461D02*X203750Y342411D01*
Y338511D01*
X202700Y337461D02*X203750Y338511D01*
X200000Y337461D02*X202700D01*
X200000Y343461D02*X202700D01*
X207800Y340461D02*X208550Y339711D01*
X206300Y340461D02*X207800D01*
X205550Y339711D02*X206300Y340461D01*
X205550Y339711D02*Y338211D01*
X206300Y337461D01*
X208550Y340461D02*Y338211D01*
X209300Y337461D01*
X206300D02*X207800D01*
X208550Y338211D01*
X211850Y343461D02*Y338211D01*
X212600Y337461D01*
X211100Y341211D02*X212600D01*
X214850Y337461D02*X217100D01*
X214100Y338211D02*X214850Y337461D01*
X214100Y339711D02*Y338211D01*
Y339711D02*X214850Y340461D01*
X216350D01*
X217100Y339711D01*
X214100Y338961D02*X217100D01*
Y339711D02*Y338961D01*
X218900Y341211D02*X219650D01*
X218900Y339711D02*X219650D01*
X224150Y343461D02*Y337461D01*
Y343461D02*X227150D01*
X224150Y340761D02*X226400D01*
X229700Y339711D02*Y337461D01*
Y339711D02*X230450Y340461D01*
X231950D01*
X228950D02*X229700Y339711D01*
G54D64*X233750Y341961D02*Y341811D01*
G54D63*Y339711D02*Y337461D01*
X239000Y343461D02*X240200D01*
Y338211D01*
X239450Y337461D02*X240200Y338211D01*
X238700Y337461D02*X239450D01*
X237950Y338211D02*X238700Y337461D01*
X237950Y338961D02*Y338211D01*
X244250Y340461D02*X245000Y339711D01*
X242750Y340461D02*X244250D01*
X242000Y339711D02*X242750Y340461D01*
X242000Y339711D02*Y338211D01*
X242750Y337461D01*
X245000Y340461D02*Y338211D01*
X245750Y337461D01*
X242750D02*X244250D01*
X245000Y338211D01*
X248300Y339711D02*Y337461D01*
Y339711D02*X249050Y340461D01*
X249800D01*
X250550Y339711D01*
Y337461D01*
X247550Y340461D02*X248300Y339711D01*
X257750Y342711D02*X258500Y343461D01*
X260000D01*
X260750Y342711D01*
X260000Y337461D02*X260750Y338211D01*
X258500Y337461D02*X260000D01*
X257750Y338211D02*X258500Y337461D01*
Y340761D02*X260000D01*
X260750Y342711D02*Y341511D01*
Y340011D02*Y338211D01*
Y340011D02*X260000Y340761D01*
X260750Y341511D02*X260000Y340761D01*
X265250Y342711D02*X266000Y343461D01*
X268250D01*
X269000Y342711D01*
Y341211D01*
X265250Y337461D02*X269000Y341211D01*
X265250Y337461D02*X269000D01*
X270800Y338211D02*X271550Y337461D01*
X270800Y342711D02*Y338211D01*
Y342711D02*X271550Y343461D01*
X273050D01*
X273800Y342711D01*
Y338211D01*
X273050Y337461D02*X273800Y338211D01*
X271550Y337461D02*X273050D01*
X270800Y338961D02*X273800Y341961D01*
X275600Y341211D02*X276350D01*
X275600Y339711D02*X276350D01*
X278150Y343461D02*X281150D01*
X278150D02*Y340461D01*
X278900Y341211D01*
X280400D01*
X281150Y340461D01*
Y338211D01*
X280400Y337461D02*X281150Y338211D01*
X278900Y337461D02*X280400D01*
X278150Y338211D02*X278900Y337461D01*
X282950Y338211D02*X283700Y337461D01*
X282950Y339411D02*Y338211D01*
Y339411D02*X284000Y340461D01*
X284900D01*
X285950Y339411D01*
Y338211D01*
X285200Y337461D02*X285950Y338211D01*
X283700Y337461D02*X285200D01*
X282950Y341511D02*X284000Y340461D01*
X282950Y342711D02*Y341511D01*
Y342711D02*X283700Y343461D01*
X285200D01*
X285950Y342711D01*
Y341511D01*
X284900Y340461D02*X285950Y341511D01*
X287750Y341211D02*X288500D01*
X287750Y339711D02*X288500D01*
X290300D02*X293300Y343461D01*
X290300Y339711D02*X294050D01*
X293300Y343461D02*Y337461D01*
X295850Y339711D02*X298850Y343461D01*
X295850Y339711D02*X299600D01*
X298850Y343461D02*Y337461D01*
X304100Y342711D02*X304850Y343461D01*
X307100D01*
X307850Y342711D01*
Y341211D01*
X304100Y337461D02*X307850Y341211D01*
X304100Y337461D02*X307850D01*
X309650Y338211D02*X310400Y337461D01*
X309650Y342711D02*Y338211D01*
Y342711D02*X310400Y343461D01*
X311900D01*
X312650Y342711D01*
Y338211D01*
X311900Y337461D02*X312650Y338211D01*
X310400Y337461D02*X311900D01*
X309650Y338961D02*X312650Y341961D01*
X314450Y342711D02*X315200Y343461D01*
X317450D01*
X318200Y342711D01*
Y341211D01*
X314450Y337461D02*X318200Y341211D01*
X314450Y337461D02*X318200D01*
X320000Y338211D02*X320750Y337461D01*
X320000Y342711D02*Y338211D01*
Y342711D02*X320750Y343461D01*
X322250D01*
X323000Y342711D01*
Y338211D01*
X322250Y337461D02*X323000Y338211D01*
X320750Y337461D02*X322250D01*
X320000Y338961D02*X323000Y341961D01*
X327500Y343461D02*Y338211D01*
X328250Y337461D01*
X329750D01*
X330500Y338211D01*
Y343461D02*Y338211D01*
X332300Y343461D02*X335300D01*
X333800D02*Y337461D01*
X338150D02*X340100D01*
X337100Y338511D02*X338150Y337461D01*
X337100Y342411D02*Y338511D01*
Y342411D02*X338150Y343461D01*
X340100D01*
X200000Y356961D02*Y352461D01*
Y356961D02*X201050Y358461D01*
X202700D01*
X203750Y356961D01*
Y352461D01*
X200000Y355461D02*X203750D01*
X205550D02*Y353211D01*
X206300Y352461D01*
X207800D01*
X208550Y353211D01*
Y355461D02*Y353211D01*
X211100Y358461D02*Y353211D01*
X211850Y352461D01*
X210350Y356211D02*X211850D01*
X213350Y358461D02*Y352461D01*
Y354711D02*X214100Y355461D01*
X215600D01*
X216350Y354711D01*
Y352461D01*
X218150Y354711D02*Y353211D01*
Y354711D02*X218900Y355461D01*
X220400D01*
X221150Y354711D01*
Y353211D01*
X220400Y352461D02*X221150Y353211D01*
X218900Y352461D02*X220400D01*
X218150Y353211D02*X218900Y352461D01*
X223700Y354711D02*Y352461D01*
Y354711D02*X224450Y355461D01*
X225950D01*
X222950D02*X223700Y354711D01*
X227750Y356211D02*X228500D01*
X227750Y354711D02*X228500D01*
X233750Y358461D02*Y352461D01*
X233000Y358461D02*X236000D01*
X236750Y357711D01*
Y356211D01*
X236000Y355461D02*X236750Y356211D01*
X233750Y355461D02*X236000D01*
X240800D02*X241550Y354711D01*
X239300Y355461D02*X240800D01*
X238550Y354711D02*X239300Y355461D01*
X238550Y354711D02*Y353211D01*
X239300Y352461D01*
X241550Y355461D02*Y353211D01*
X242300Y352461D01*
X239300D02*X240800D01*
X241550Y353211D01*
X244850Y358461D02*Y353211D01*
X245600Y352461D01*
X244100Y356211D02*X245600D01*
X247850Y354711D02*Y352461D01*
Y354711D02*X248600Y355461D01*
X250100D01*
X247100D02*X247850Y354711D01*
G54D64*X251900Y356961D02*Y356811D01*
G54D63*Y354711D02*Y352461D01*
X254150Y355461D02*X256400D01*
X253400Y354711D02*X254150Y355461D01*
X253400Y354711D02*Y353211D01*
X254150Y352461D01*
X256400D01*
X258200Y358461D02*Y352461D01*
Y354711D02*X260450Y352461D01*
X258200Y354711D02*X259700Y356211D01*
X266000Y352461D02*X267950D01*
X264950Y353511D02*X266000Y352461D01*
X264950Y357411D02*Y353511D01*
Y357411D02*X266000Y358461D01*
X267950D01*
X269750Y354711D02*Y353211D01*
Y354711D02*X270500Y355461D01*
X272000D01*
X272750Y354711D01*
Y353211D01*
X272000Y352461D02*X272750Y353211D01*
X270500Y352461D02*X272000D01*
X269750Y353211D02*X270500Y352461D01*
X274550Y358461D02*Y353211D01*
X275300Y352461D01*
X277550D02*X279800D01*
X276800Y353211D02*X277550Y352461D01*
X276800Y354711D02*Y353211D01*
Y354711D02*X277550Y355461D01*
X279050D01*
X279800Y354711D01*
X276800Y353961D02*X279800D01*
Y354711D02*Y353961D01*
X282350Y354711D02*Y352461D01*
Y354711D02*X283100Y355461D01*
X283850D01*
X284600Y354711D01*
Y352461D01*
Y354711D02*X285350Y355461D01*
X286100D01*
X286850Y354711D01*
Y352461D01*
X281600Y355461D02*X282350Y354711D01*
X290900Y355461D02*X291650Y354711D01*
X289400Y355461D02*X290900D01*
X288650Y354711D02*X289400Y355461D01*
X288650Y354711D02*Y353211D01*
X289400Y352461D01*
X291650Y355461D02*Y353211D01*
X292400Y352461D01*
X289400D02*X290900D01*
X291650Y353211D01*
X294950Y354711D02*Y352461D01*
Y354711D02*X295700Y355461D01*
X296450D01*
X297200Y354711D01*
Y352461D01*
X294200Y355461D02*X294950Y354711D01*
X200000Y373461D02*X203000D01*
X201500D02*Y367461D01*
G54D64*X204800Y371961D02*Y371811D01*
G54D63*Y369711D02*Y367461D01*
X207050Y373461D02*Y368211D01*
X207800Y367461D01*
X206300Y371211D02*X207800D01*
X209300Y373461D02*Y368211D01*
X210050Y367461D01*
X212300D02*X214550D01*
X211550Y368211D02*X212300Y367461D01*
X211550Y369711D02*Y368211D01*
Y369711D02*X212300Y370461D01*
X213800D01*
X214550Y369711D01*
X211550Y368961D02*X214550D01*
Y369711D02*Y368961D01*
X216350Y371211D02*X217100D01*
X216350Y369711D02*X217100D01*
X221600Y368211D02*X222350Y367461D01*
X221600Y372711D02*X222350Y373461D01*
X221600Y372711D02*Y368211D01*
X224150Y370461D02*Y368211D01*
X224900Y367461D01*
X226400D01*
X227150Y368211D01*
Y370461D02*Y368211D01*
X229700Y369711D02*Y367461D01*
Y369711D02*X230450Y370461D01*
X231200D01*
X231950Y369711D01*
Y367461D01*
X228950Y370461D02*X229700Y369711D01*
X233750Y373461D02*Y367461D01*
Y369711D02*X236000Y367461D01*
X233750Y369711D02*X235250Y371211D01*
X238550Y369711D02*Y367461D01*
Y369711D02*X239300Y370461D01*
X240050D01*
X240800Y369711D01*
Y367461D01*
X237800Y370461D02*X238550Y369711D01*
X242600D02*Y368211D01*
Y369711D02*X243350Y370461D01*
X244850D01*
X245600Y369711D01*
Y368211D01*
X244850Y367461D02*X245600Y368211D01*
X243350Y367461D02*X244850D01*
X242600Y368211D02*X243350Y367461D01*
X247400Y370461D02*Y368211D01*
X248150Y367461D01*
X248900D01*
X249650Y368211D01*
Y370461D02*Y368211D01*
X250400Y367461D01*
X251150D01*
X251900Y368211D01*
Y370461D02*Y368211D01*
X254450Y369711D02*Y367461D01*
Y369711D02*X255200Y370461D01*
X255950D01*
X256700Y369711D01*
Y367461D01*
X253700Y370461D02*X254450Y369711D01*
X258500Y373461D02*X259250Y372711D01*
Y368211D01*
X258500Y367461D02*X259250Y368211D01*
X263750Y370461D02*X266750D01*
X271250Y373461D02*Y367461D01*
Y373461D02*X274250D01*
X271250Y370761D02*X273500D01*
X278300Y370461D02*X279050Y369711D01*
X276800Y370461D02*X278300D01*
X276050Y369711D02*X276800Y370461D01*
X276050Y369711D02*Y368211D01*
X276800Y367461D01*
X279050Y370461D02*Y368211D01*
X279800Y367461D01*
X276800D02*X278300D01*
X279050Y368211D01*
X281600Y373461D02*Y367461D01*
Y368211D02*X282350Y367461D01*
X283850D01*
X284600Y368211D01*
Y369711D02*Y368211D01*
X283850Y370461D02*X284600Y369711D01*
X282350Y370461D02*X283850D01*
X281600Y369711D02*X282350Y370461D01*
X287150Y369711D02*Y367461D01*
Y369711D02*X287900Y370461D01*
X289400D01*
X286400D02*X287150Y369711D01*
G54D64*X291200Y371961D02*Y371811D01*
G54D63*Y369711D02*Y367461D01*
X293450Y370461D02*X295700D01*
X292700Y369711D02*X293450Y370461D01*
X292700Y369711D02*Y368211D01*
X293450Y367461D01*
X295700D01*
X299750Y370461D02*X300500Y369711D01*
X298250Y370461D02*X299750D01*
X297500Y369711D02*X298250Y370461D01*
X297500Y369711D02*Y368211D01*
X298250Y367461D01*
X300500Y370461D02*Y368211D01*
X301250Y367461D01*
X298250D02*X299750D01*
X300500Y368211D01*
X303800Y373461D02*Y368211D01*
X304550Y367461D01*
X303050Y371211D02*X304550D01*
G54D64*X306050Y371961D02*Y371811D01*
G54D63*Y369711D02*Y367461D01*
X307550Y369711D02*Y368211D01*
Y369711D02*X308300Y370461D01*
X309800D01*
X310550Y369711D01*
Y368211D01*
X309800Y367461D02*X310550Y368211D01*
X308300Y367461D02*X309800D01*
X307550Y368211D02*X308300Y367461D01*
X313100Y369711D02*Y367461D01*
Y369711D02*X313850Y370461D01*
X314600D01*
X315350Y369711D01*
Y367461D01*
X312350Y370461D02*X313100Y369711D01*
X320600Y373461D02*Y367461D01*
X322550Y373461D02*X323600Y372411D01*
Y368511D01*
X322550Y367461D02*X323600Y368511D01*
X319850Y367461D02*X322550D01*
X319850Y373461D02*X322550D01*
X326150Y369711D02*Y367461D01*
Y369711D02*X326900Y370461D01*
X328400D01*
X325400D02*X326150Y369711D01*
X332450Y370461D02*X333200Y369711D01*
X330950Y370461D02*X332450D01*
X330200Y369711D02*X330950Y370461D01*
X330200Y369711D02*Y368211D01*
X330950Y367461D01*
X333200Y370461D02*Y368211D01*
X333950Y367461D01*
X330950D02*X332450D01*
X333200Y368211D01*
X335750Y370461D02*Y368211D01*
X336500Y367461D01*
X337250D01*
X338000Y368211D01*
Y370461D02*Y368211D01*
X338750Y367461D01*
X339500D01*
X340250Y368211D01*
Y370461D02*Y368211D01*
G54D64*X342050Y371961D02*Y371811D01*
G54D63*Y369711D02*Y367461D01*
X344300Y369711D02*Y367461D01*
Y369711D02*X345050Y370461D01*
X345800D01*
X346550Y369711D01*
Y367461D01*
X343550Y370461D02*X344300Y369711D01*
X350600Y370461D02*X351350Y369711D01*
X349100Y370461D02*X350600D01*
X348350Y369711D02*X349100Y370461D01*
X348350Y369711D02*Y368211D01*
X349100Y367461D01*
X350600D01*
X351350Y368211D01*
X348350Y365961D02*X349100Y365211D01*
X350600D01*
X351350Y365961D01*
Y370461D02*Y365961D01*
M02*
