G04 start of page 11 for group -4063 idx -4063 *
G04 Title: (unknown), componentmask *
G04 Creator: pcb 4.2.0 *
G04 CreationDate: Wed Dec  4 15:10:37 2019 UTC *
G04 For: blinken *
G04 Format: Gerber/RS-274X *
G04 PCB-Dimensions (mil): 2755.91 2755.91 *
G04 PCB-Coordinate-Origin: lower left *
%MOIN*%
%FSLAX25Y25*%
%LNTOPMASK*%
%ADD103C,0.2008*%
%ADD102C,0.1988*%
%ADD101C,0.0001*%
%ADD100C,0.0847*%
%ADD99C,0.0729*%
%ADD98C,0.0660*%
G54D98*X83110Y201614D03*
X93110D03*
X103110D03*
X83110Y211614D03*
X93110D03*
X103110D03*
X113110D03*
X123110D03*
X133110D03*
X113110Y201614D03*
X123110D03*
X133110D03*
X143110D03*
G54D99*X137876Y19057D03*
X246144Y80081D03*
G54D100*X130309Y76781D03*
X85033D03*
G54D99*X137876Y267089D03*
X75376Y250342D03*
X76852Y35789D03*
X199884Y34805D03*
G54D98*X53110Y201614D03*
Y211614D03*
X63110Y201614D03*
Y211614D03*
G54D101*G36*
X29810Y204914D02*Y198314D01*
X36410D01*
Y204914D01*
X29810D01*
G37*
G54D98*X33110Y211614D03*
X43110Y201614D03*
Y211614D03*
X73110Y201614D03*
Y211614D03*
X143110D03*
X153110Y201614D03*
X163110D03*
X173110D03*
X153110Y211614D03*
X163110D03*
X173110D03*
X183110D03*
X193110D03*
X203110D03*
X183110Y201614D03*
X193110D03*
X203110D03*
X213110D03*
Y211614D03*
X223110D03*
Y201614D03*
G54D102*X13780Y13780D03*
G54D103*X242126Y206693D03*
X13780D03*
G54D102*X242126Y13780D03*
G54D101*G36*
X200024Y178646D02*X194306D01*
Y170566D01*
X200024D01*
Y178646D01*
G37*
G36*
X188214D02*X182496D01*
Y170566D01*
X188214D01*
Y178646D01*
G37*
G36*
X224236D02*X218518D01*
Y170566D01*
X224236D01*
Y178646D01*
G37*
G36*
X212426D02*X206708D01*
Y170566D01*
X212426D01*
Y178646D01*
G37*
G36*
X45633Y151483D02*Y143578D01*
X62594D01*
Y151483D01*
X45633D01*
G37*
G36*
X134927Y152238D02*Y146301D01*
X155864D01*
Y152238D01*
X134927D01*
G37*
G36*
X201108D02*Y146301D01*
X222045D01*
Y152238D01*
X201108D01*
G37*
G36*
X45633Y141483D02*Y133578D01*
X62594D01*
Y141483D01*
X45633D01*
G37*
G36*
X134927Y142238D02*Y136301D01*
X155864D01*
Y142238D01*
X134927D01*
G37*
G36*
X201108D02*Y136301D01*
X222045D01*
Y142238D01*
X201108D01*
G37*
G36*
X45633Y131483D02*Y123578D01*
X62594D01*
Y131483D01*
X45633D01*
G37*
G36*
X134927Y132238D02*Y126301D01*
X155864D01*
Y132238D01*
X134927D01*
G37*
G36*
X201108D02*Y126301D01*
X222045D01*
Y132238D01*
X201108D01*
G37*
G36*
X45633Y121483D02*Y113578D01*
X62594D01*
Y121483D01*
X45633D01*
G37*
G36*
X134927Y122238D02*Y116301D01*
X155864D01*
Y122238D01*
X134927D01*
G37*
G36*
X201108D02*Y116301D01*
X222045D01*
Y122238D01*
X201108D01*
G37*
G36*
X100578Y150983D02*Y143078D01*
X117539D01*
Y150983D01*
X100578D01*
G37*
G36*
Y140983D02*Y133078D01*
X117539D01*
Y140983D01*
X100578D01*
G37*
G36*
Y130983D02*Y123078D01*
X117539D01*
Y130983D01*
X100578D01*
G37*
G36*
Y120983D02*Y113078D01*
X117539D01*
Y120983D01*
X100578D01*
G37*
G36*
X158883Y65300D02*X153165D01*
Y57220D01*
X158883D01*
Y65300D01*
G37*
G36*
X170693D02*X164975D01*
Y57220D01*
X170693D01*
Y65300D01*
G37*
G36*
X134927Y102238D02*Y96301D01*
X155864D01*
Y102238D01*
X134927D01*
G37*
G36*
Y112238D02*Y106301D01*
X155864D01*
Y112238D01*
X134927D01*
G37*
G36*
X201108Y102238D02*Y96301D01*
X222045D01*
Y102238D01*
X201108D01*
G37*
G36*
Y112238D02*Y106301D01*
X222045D01*
Y112238D01*
X201108D01*
G37*
M02*
