G04 start of page 15 for group -4015 idx -4015 *
G04 Title: (unknown), toppaste *
G04 Creator: pcb 4.2.0 *
G04 CreationDate: Wed Dec  4 15:10:37 2019 UTC *
G04 For: blinken *
G04 Format: Gerber/RS-274X *
G04 PCB-Dimensions (mil): 2755.91 2755.91 *
G04 PCB-Coordinate-Origin: lower left *
%MOIN*%
%FSLAX25Y25*%
%LNTOPPASTE*%
%ADD113C,0.0001*%
G54D113*G36*
X199724Y178346D02*X194606D01*
Y170866D01*
X199724D01*
Y178346D01*
G37*
G36*
X187914D02*X182796D01*
Y170866D01*
X187914D01*
Y178346D01*
G37*
G36*
X158583Y65000D02*X153465D01*
Y57520D01*
X158583D01*
Y65000D01*
G37*
G36*
X170393D02*X165275D01*
Y57520D01*
X170393D01*
Y65000D01*
G37*
G36*
X223936Y178346D02*X218818D01*
Y170866D01*
X223936D01*
Y178346D01*
G37*
G36*
X212126D02*X207008D01*
Y170866D01*
X212126D01*
Y178346D01*
G37*
G36*
X101578Y149983D02*Y144078D01*
X116539D01*
Y149983D01*
X101578D01*
G37*
G36*
Y139983D02*Y134078D01*
X116539D01*
Y139983D01*
X101578D01*
G37*
G36*
Y129983D02*Y124078D01*
X116539D01*
Y129983D01*
X101578D01*
G37*
G36*
Y119983D02*Y114078D01*
X116539D01*
Y119983D01*
X101578D01*
G37*
G36*
X46633Y150483D02*Y144578D01*
X61594D01*
Y150483D01*
X46633D01*
G37*
G36*
Y140483D02*Y134578D01*
X61594D01*
Y140483D01*
X46633D01*
G37*
G36*
Y130483D02*Y124578D01*
X61594D01*
Y130483D01*
X46633D01*
G37*
G36*
Y120483D02*Y114578D01*
X61594D01*
Y120483D01*
X46633D01*
G37*
G36*
X135927Y101238D02*Y97301D01*
X154864D01*
Y101238D01*
X135927D01*
G37*
G36*
Y111238D02*Y107301D01*
X154864D01*
Y111238D01*
X135927D01*
G37*
G36*
Y121238D02*Y117301D01*
X154864D01*
Y121238D01*
X135927D01*
G37*
G36*
Y131238D02*Y127301D01*
X154864D01*
Y131238D01*
X135927D01*
G37*
G36*
Y141238D02*Y137301D01*
X154864D01*
Y141238D01*
X135927D01*
G37*
G36*
Y151238D02*Y147301D01*
X154864D01*
Y151238D01*
X135927D01*
G37*
G36*
X202108Y101238D02*Y97301D01*
X221045D01*
Y101238D01*
X202108D01*
G37*
G36*
Y111238D02*Y107301D01*
X221045D01*
Y111238D01*
X202108D01*
G37*
G36*
Y121238D02*Y117301D01*
X221045D01*
Y121238D01*
X202108D01*
G37*
G36*
Y131238D02*Y127301D01*
X221045D01*
Y131238D01*
X202108D01*
G37*
G36*
Y141238D02*Y137301D01*
X221045D01*
Y141238D01*
X202108D01*
G37*
G36*
Y151238D02*Y147301D01*
X221045D01*
Y151238D01*
X202108D01*
G37*
M02*
