<?xml version="1.0" encoding="UTF-8" standalone="no"?>
<svg
   xmlns:dc="http://purl.org/dc/elements/1.1/"
   xmlns:cc="http://creativecommons.org/ns#"
   xmlns:rdf="http://www.w3.org/1999/02/22-rdf-syntax-ns#"
   xmlns:svg="http://www.w3.org/2000/svg"
   xmlns="http://www.w3.org/2000/svg"
   id="svg8"
   version="1.1"
   viewBox="0 0 93.410271 18.197689"
   height="18.197689mm"
   width="93.410271mm">
  <defs
     id="defs2" />
  <metadata
     id="metadata5">
    <rdf:RDF>
      <cc:Work
         rdf:about="">
        <dc:format>image/svg+xml</dc:format>
        <dc:type
           rdf:resource="http://purl.org/dc/dcmitype/StillImage" />
        <dc:title></dc:title>
      </cc:Work>
    </rdf:RDF>
  </metadata>
  <g
     transform="translate(-42.659216,-69.772074)"
     id="layer1">
    <flowRoot
       transform="scale(0.26458333)"
       style="font-style:normal;font-variant:normal;font-weight:normal;font-stretch:normal;font-size:40px;line-height:1.25;font-family:'Futura URW Heavy';-inkscape-font-specification:'Futura URW Heavy, ';letter-spacing:0px;word-spacing:0px;fill:#000000;fill-opacity:1;stroke:none"
       id="flowRoot18"
       xml:space="preserve"><flowRegion
         style="font-style:normal;font-variant:normal;font-weight:normal;font-stretch:normal;font-family:'Futura URW Heavy';-inkscape-font-specification:'Futura URW Heavy, '"
         id="flowRegion20"><rect
           style="font-style:normal;font-variant:normal;font-weight:normal;font-stretch:normal;font-family:'Futura URW Heavy';-inkscape-font-specification:'Futura URW Heavy, '"
           y="298.2352"
           x="46.467018"
           height="221.72849"
           width="697.51031"
           id="rect22" /></flowRegion><flowPara
         id="flowPara24" /></flowRoot>    <g
       id="flowRoot10-36"
       style="font-style:normal;font-weight:normal;font-size:40px;line-height:1.25;font-family:sans-serif;letter-spacing:0px;word-spacing:0px;fill:#000000;fill-opacity:1;stroke:none"
       transform="matrix(0.26458333,0,0,0.26458333,14.29892,27.824324)"
       aria-label="1090MHz">
      <path
         id="path212"
         style="font-style:italic;font-variant:normal;font-weight:900;font-stretch:normal;font-size:85.33333588px;font-family:Futura-Heavy;-inkscape-font-specification:'Futura-Heavy Heavy Italic'"
         d="m 115.63652,171.17201 -8.448,53.41867 h 12.544 l 10.15467,-64.34133 h -20.992 l -1.70667,10.92266 z" />
      <path
         id="path214"
         style="font-style:italic;font-variant:normal;font-weight:900;font-stretch:normal;font-size:85.33333588px;font-family:Futura-Heavy;-inkscape-font-specification:'Futura-Heavy Heavy Italic'"
         d="m 170.85786,158.54268 q -6.144,0 -11.17867,3.15733 -4.94933,3.15734 -8.53333,8.36267 -3.49867,5.12 -5.71734,11.008 -2.13333,5.80267 -2.98666,11.43467 -0.68267,4.01066 -0.68267,8.192 0,4.864 0.93867,9.472 1.024,4.52267 3.15733,8.192 2.13333,3.584 5.71733,5.80267 3.584,2.13333 8.53334,2.13333 6.05866,0 11.008,-3.15733 4.94933,-3.15734 8.53333,-8.192 3.584,-5.12 5.71733,-11.008 2.21867,-5.88801 3.15734,-11.43467 0.59733,-4.18134 0.59733,-8.448 0,-4.94934 -0.93867,-9.38667 -0.93866,-4.52267 -3.072,-8.192 -2.13333,-3.66933 -5.71733,-5.80267 -3.49867,-2.13333 -8.53333,-2.13333 z m -1.792,10.92267 q 2.21866,0 3.75466,1.28 1.536,1.28 2.38934,3.41333 0.93866,2.13333 1.28,4.77867 0.34133,2.56 0.34133,5.46133 0,4.096 -0.59733,7.936 -0.42667,2.90133 -1.536,6.74133 -1.10934,3.84001 -2.90134,7.59467 -1.792,3.66934 -4.352,6.22934 -2.47466,2.47466 -5.632,2.47466 -2.21866,0 -3.75466,-1.28 -1.45067,-1.36533 -2.38934,-3.49866 -0.85333,-2.21867 -1.19466,-4.864 -0.34134,-2.64534 -0.34134,-5.54667 0,-4.18134 0.59734,-7.85067 0.42666,-2.98667 1.536,-6.74133 1.10933,-3.75467 2.90133,-7.424 1.792,-3.75467 4.26667,-6.22934 2.56,-2.47466 5.632,-2.47466 z" />
      <path
         id="path216"
         style="font-style:italic;font-variant:normal;font-weight:900;font-stretch:normal;font-size:85.33333588px;font-family:Futura-Heavy;-inkscape-font-specification:'Futura-Heavy Heavy Italic'"
         d="m 207.13519,227.32135 21.07734,-25.344 q 4.43733,-5.29067 7.424,-10.66667 2.98666,-5.46133 3.84,-10.83733 0.34133,-1.96267 0.34133,-3.84 0,-8.10667 -5.46133,-13.056 -5.376,-5.03467 -13.90934,-5.03467 -4.94933,0 -9.38666,1.70667 -4.43734,1.62133 -8.02134,4.69333 -3.49866,3.072 -5.888,7.25333 -2.304,4.18134 -3.072,9.13067 -0.256,2.048 -0.256,3.92533 0,7.424 4.26667,12.45867 4.26667,4.94934 11.776,4.94934 2.73067,0 5.12,-0.93867 l 0.17067,0.17067 -16.21334,18.688 z m 11.776,-58.53867 q 3.92534,0 6.144,2.90133 2.304,2.90134 2.304,6.99734 0,1.10933 -0.17066,2.13333 -0.34134,2.21867 -1.45067,4.352 -1.024,2.13333 -2.64533,3.92533 -1.62134,1.70667 -3.66934,2.73067 -2.048,1.024 -4.352,1.024 -3.92533,0 -6.22933,-2.90133 -2.21867,-2.90134 -2.21867,-6.99734 0,-1.024 0.17067,-2.13333 0.34133,-2.21867 1.36533,-4.352 1.10934,-2.13333 2.73067,-3.84 1.62133,-1.792 3.66933,-2.816 2.048,-1.024 4.352,-1.024 z" />
      <path
         id="path218"
         style="font-style:italic;font-variant:normal;font-weight:900;font-stretch:normal;font-size:85.33333588px;font-family:Futura-Heavy;-inkscape-font-specification:'Futura-Heavy Heavy Italic'"
         d="m 269.52452,158.54268 q -6.144,0 -11.17867,3.15733 -4.94933,3.15734 -8.53333,8.36267 -3.49867,5.12 -5.71733,11.008 -2.13334,5.80267 -2.98667,11.43467 -0.68267,4.01066 -0.68267,8.192 0,4.864 0.93867,9.472 1.024,4.52267 3.15733,8.192 2.13334,3.584 5.71734,5.80267 3.584,2.13333 8.53333,2.13333 6.05867,0 11.008,-3.15733 4.94934,-3.15734 8.53334,-8.192 3.584,-5.12 5.71733,-11.008 2.21867,-5.88801 3.15733,-11.43467 0.59734,-4.18134 0.59734,-8.448 0,-4.94934 -0.93867,-9.38667 -0.93867,-4.52267 -3.072,-8.192 -2.13333,-3.66933 -5.71733,-5.80267 -3.49867,-2.13333 -8.53334,-2.13333 z m -1.792,10.92267 q 2.21867,0 3.75467,1.28 1.536,1.28 2.38933,3.41333 0.93867,2.13333 1.28,4.77867 0.34134,2.56 0.34134,5.46133 0,4.096 -0.59734,7.936 -0.42666,2.90133 -1.536,6.74133 -1.10933,3.84001 -2.90133,7.59467 -1.792,3.66934 -4.352,6.22934 -2.47467,2.47466 -5.632,2.47466 -2.21867,0 -3.75467,-1.28 -1.45067,-1.36533 -2.38933,-3.49866 -0.85334,-2.21867 -1.19467,-4.864 -0.34133,-2.64534 -0.34133,-5.54667 0,-4.18134 0.59733,-7.85067 0.42667,-2.98667 1.536,-6.74133 1.10933,-3.75467 2.90133,-7.424 1.792,-3.75467 4.26667,-6.22934 2.56,-2.47466 5.632,-2.47466 z" />
      <path
         id="path220"
         style="font-style:italic;font-variant:normal;font-weight:900;font-stretch:normal;font-size:85.33333588px;font-family:Futura-Heavy;-inkscape-font-specification:'Futura-Heavy Heavy Italic'"
         d="m 341.4712,224.59068 h 12.62933 l 0.85334,-66.048 h -9.04534 l -21.93066,42.41067 -9.13067,-42.41067 h -8.87467 l -21.33333,66.048 h 12.62933 l 12.032,-39.936 h 0.17067 l 7.59467,40.78934 h 4.352 l 21.07733,-40.78934 h 0.17067 z" />
      <path
         id="path222"
         style="font-style:italic;font-variant:normal;font-weight:900;font-stretch:normal;font-size:85.33333588px;font-family:Futura-Heavy;-inkscape-font-specification:'Futura-Heavy Heavy Italic'"
         d="m 378.32988,185.59335 4.01066,-25.344 h -12.544 l -10.15467,64.34133 h 12.54401 l 4.52266,-28.75733 h 23.21067 l -4.52267,28.75733 h 12.544 l 10.15467,-64.34133 h -12.544 l -4.01067,25.344 z" />
      <path
         id="path224"
         style="font-style:italic;font-variant:normal;font-weight:900;font-stretch:normal;font-size:85.33333588px;font-family:Futura-Heavy;-inkscape-font-specification:'Futura-Heavy Heavy Italic'"
         d="m 433.95254,214.52135 26.28267,-31.82934 h -37.80267 l -1.62133,10.06934 h 18.09067 l -26.45334,31.82933 h 39.76534 l 1.62133,-10.06933 z" />
    </g>
  </g>
</svg>
