<?xml version="1.0" encoding="UTF-8" standalone="no"?>
<svg
   xmlns:dc="http://purl.org/dc/elements/1.1/"
   xmlns:cc="http://creativecommons.org/ns#"
   xmlns:rdf="http://www.w3.org/1999/02/22-rdf-syntax-ns#"
   xmlns:svg="http://www.w3.org/2000/svg"
   xmlns="http://www.w3.org/2000/svg"
   id="svg8"
   version="1.1"
   viewBox="0 0 83.540955 18.197689"
   height="18.197689mm"
   width="83.540955mm">
  <defs
     id="defs2" />
  <metadata
     id="metadata5">
    <rdf:RDF>
      <cc:Work
         rdf:about="">
        <dc:format>image/svg+xml</dc:format>
        <dc:type
           rdf:resource="http://purl.org/dc/dcmitype/StillImage" />
        <dc:title></dc:title>
      </cc:Work>
    </rdf:RDF>
  </metadata>
  <g
     transform="translate(-39.475749,-69.772074)"
     id="layer1">
    <flowRoot
       transform="scale(0.26458333)"
       style="font-style:normal;font-variant:normal;font-weight:normal;font-stretch:normal;font-size:40px;line-height:1.25;font-family:'Futura URW Heavy';-inkscape-font-specification:'Futura URW Heavy, ';letter-spacing:0px;word-spacing:0px;fill:#000000;fill-opacity:1;stroke:none"
       id="flowRoot18"
       xml:space="preserve"><flowRegion
         style="font-style:normal;font-variant:normal;font-weight:normal;font-stretch:normal;font-family:'Futura URW Heavy';-inkscape-font-specification:'Futura URW Heavy, '"
         id="flowRegion20"><rect
           style="font-style:normal;font-variant:normal;font-weight:normal;font-stretch:normal;font-family:'Futura URW Heavy';-inkscape-font-specification:'Futura URW Heavy, '"
           y="298.2352"
           x="46.467018"
           height="221.72849"
           width="697.51031"
           id="rect22" /></flowRegion><flowPara
         id="flowPara24" /></flowRoot>    <g
       id="flowRoot10-36"
       style="font-style:normal;font-weight:normal;font-size:40px;line-height:1.25;font-family:sans-serif;letter-spacing:0px;word-spacing:0px;fill:#000000;fill-opacity:1;stroke:none"
       transform="matrix(0.26458333,0,0,0.26458333,14.29892,27.824324)"
       aria-label="978MHz">
      <path
         id="path310"
         style="font-style:italic;font-variant:normal;font-weight:900;font-stretch:normal;font-size:85.33333588px;font-family:Futura-Heavy;-inkscape-font-specification:'Futura-Heavy Heavy Italic'"
         d="m 108.46852,227.32135 21.07734,-25.344 q 4.43733,-5.29067 7.424,-10.66667 2.98666,-5.46133 3.84,-10.83733 0.34133,-1.96267 0.34133,-3.84 0,-8.10667 -5.46133,-13.056 -5.376,-5.03467 -13.90934,-5.03467 -4.94933,0 -9.38667,1.70667 -4.43733,1.62133 -8.02133,4.69333 -3.49867,3.072 -5.887999,7.25333 -2.304,4.18134 -3.072,9.13067 -0.256,2.048 -0.256,3.92533 0,7.424 4.266667,12.45867 4.266662,4.94934 11.776002,4.94934 2.73066,0 5.12,-0.93867 l 0.17067,0.17067 -16.21334,18.688 z m 11.776,-58.53867 q 3.92534,0 6.144,2.90133 2.304,2.90134 2.304,6.99734 0,1.10933 -0.17066,2.13333 -0.34134,2.21867 -1.45067,4.352 -1.024,2.13333 -2.64533,3.92533 -1.62134,1.70667 -3.66934,2.73067 -2.048,1.024 -4.352,1.024 -3.92533,0 -6.22933,-2.90133 -2.21867,-2.90134 -2.21867,-6.99734 0,-1.024 0.17067,-2.13333 0.34133,-2.21867 1.36533,-4.352 1.10933,-2.13333 2.73067,-3.84 1.62133,-1.792 3.66933,-2.816 2.048,-1.024 4.352,-1.024 z" />
      <path
         id="path312"
         style="font-style:italic;font-variant:normal;font-weight:900;font-stretch:normal;font-size:85.33333588px;font-family:Futura-Heavy;-inkscape-font-specification:'Futura-Heavy Heavy Italic'"
         d="m 174.78319,171.17201 -34.304,49.23734 9.38667,5.888 45.65333,-66.048 h -45.99467 l -1.70666,10.92266 z" />
      <path
         id="path314"
         style="font-style:italic;font-variant:normal;font-weight:900;font-stretch:normal;font-size:85.33333588px;font-family:Futura-Heavy;-inkscape-font-specification:'Futura-Heavy Heavy Italic'"
         d="m 214.21786,196.17468 q 3.24267,0 4.94933,2.38933 1.792,2.30401 1.792,5.63201 0,0.93866 -0.17066,1.87733 -0.512,3.75467 -3.24267,6.82667 -2.73067,2.98666 -6.48533,2.98666 -3.24267,0 -5.03467,-2.304 -1.70667,-2.38933 -1.70667,-5.71733 0,-0.85333 0.0853,-1.792 0.68266,-3.84 3.328,-6.82667 2.73066,-3.072 6.48533,-3.072 z m -9.64267,-5.12 q -5.376,1.96267 -8.704,6.31467 -3.328,4.352 -4.26666,10.06933 -0.256,1.536 -0.256,2.98667 0,3.584 1.36533,6.57067 1.45067,2.98666 3.92533,5.03466 2.56,2.048 5.80267,3.15734 3.328,1.10933 6.99733,1.10933 4.096,0 8.02134,-1.36533 4.01066,-1.28 7.33866,-3.75467 3.328,-2.47467 5.54667,-5.97333 2.21867,-3.584 2.90133,-7.76534 0.256,-1.87733 0.256,-3.49866 0,-4.52267 -2.048,-7.85067 -2.048,-3.41334 -6.05866,-5.03467 4.26666,-1.96267 7.08266,-5.80267 2.90134,-3.84 3.66934,-8.36266 0.256,-1.62134 0.256,-3.24267 0,-6.82667 -4.52267,-10.92267 -4.52267,-4.18133 -11.69067,-4.18133 -4.01066,0 -7.68,1.36533 -3.584,1.28 -6.57066,3.75467 -2.98667,2.38933 -4.94934,5.80267 -1.96266,3.328 -2.56,7.424 -0.256,1.28 -0.256,2.56 0,3.75466 1.62134,6.82666 1.70666,3.072 4.77866,4.77867 z m 14.08,-23.12533 q 2.90134,0 4.52267,2.21866 1.62133,2.13334 1.62133,5.12 0,0.256 -0.0853,0.85334 0,0.42666 0,0.768 -0.59733,3.49866 -3.072,6.31466 -2.47467,2.73067 -5.80267,2.73067 -2.90133,0 -4.52266,-2.13333 -1.62134,-2.21867 -1.62134,-5.29067 0,-0.256 0.0853,-0.768 0.0853,-0.512 0.0853,-0.85333 0.512,-3.41334 2.98667,-6.144 2.47466,-2.816 5.80266,-2.816 z" />
      <path
         id="path316"
         style="font-style:italic;font-variant:normal;font-weight:900;font-stretch:normal;font-size:85.33333588px;font-family:Futura-Heavy;-inkscape-font-specification:'Futura-Heavy Heavy Italic'"
         d="m 292.13786,224.59068 h 12.62933 l 0.85333,-66.048 h -9.04533 l -21.93067,42.41067 -9.13066,-42.41067 h -8.87467 l -21.33334,66.048 h 12.62934 l 12.032,-39.936 h 0.17066 l 7.59467,40.78934 h 4.352 l 21.07734,-40.78934 h 0.17066 z" />
      <path
         id="path318"
         style="font-style:italic;font-variant:normal;font-weight:900;font-stretch:normal;font-size:85.33333588px;font-family:Futura-Heavy;-inkscape-font-specification:'Futura-Heavy Heavy Italic'"
         d="m 328.99653,185.59335 4.01067,-25.344 h -12.544 l -10.15467,64.34133 h 12.544 l 4.52267,-28.75733 h 23.21067 l -4.52267,28.75733 h 12.544 l 10.15467,-64.34133 h -12.544 l -4.01067,25.344 z" />
      <path
         id="path320"
         style="font-style:italic;font-variant:normal;font-weight:900;font-stretch:normal;font-size:85.33333588px;font-family:Futura-Heavy;-inkscape-font-specification:'Futura-Heavy Heavy Italic'"
         d="m 384.6192,214.52135 26.28267,-31.82934 H 373.0992 l -1.62134,10.06934 h 18.09067 l -26.45333,31.82933 h 39.76533 l 1.62134,-10.06933 z" />
    </g>
  </g>
</svg>
