<?xml version="1.0" encoding="UTF-8" standalone="no"?>
<!-- Created with Inkscape (http://www.inkscape.org/) -->

<svg
   xmlns:dc="http://purl.org/dc/elements/1.1/"
   xmlns:cc="http://creativecommons.org/ns#"
   xmlns:rdf="http://www.w3.org/1999/02/22-rdf-syntax-ns#"
   xmlns:svg="http://www.w3.org/2000/svg"
   xmlns="http://www.w3.org/2000/svg"
   xmlns:sodipodi="http://sodipodi.sourceforge.net/DTD/sodipodi-0.dtd"
   xmlns:inkscape="http://www.inkscape.org/namespaces/inkscape"
   width="62mm"
   height="37mm"
   viewBox="0 0 62 37"
   version="1.1"
   id="svg8"
   inkscape:version="0.92.4 (5da689c313, 2019-01-14)"
   sodipodi:docname="ce-label.svg">
  <defs
     id="defs2" />
  <sodipodi:namedview
     id="base"
     pagecolor="#ffffff"
     bordercolor="#666666"
     borderopacity="1.0"
     inkscape:pageopacity="0.0"
     inkscape:pageshadow="2"
     inkscape:zoom="5.6"
     inkscape:cx="95.200963"
     inkscape:cy="82.158595"
     inkscape:document-units="mm"
     inkscape:current-layer="layer1"
     showgrid="false"
     inkscape:window-width="2560"
     inkscape:window-height="1353"
     inkscape:window-x="0"
     inkscape:window-y="44"
     inkscape:window-maximized="1" />
  <metadata
     id="metadata5">
    <rdf:RDF>
      <cc:Work
         rdf:about="">
        <dc:format>image/svg+xml</dc:format>
        <dc:type
           rdf:resource="http://purl.org/dc/dcmitype/StillImage" />
        <dc:title></dc:title>
      </cc:Work>
    </rdf:RDF>
  </metadata>
  <g
     inkscape:label="Layer 1"
     inkscape:groupmode="layer"
     id="layer1"
     transform="translate(0,-260)">
    <flowRoot
       xml:space="preserve"
       id="flowRoot18"
       style="font-style:normal;font-variant:normal;font-weight:normal;font-stretch:normal;font-size:40px;line-height:1.25;font-family:'Futura URW Heavy';-inkscape-font-specification:'Futura URW Heavy, ';letter-spacing:0px;word-spacing:0px;fill:#52c1ff;fill-opacity:1;stroke:none"
       transform="matrix(0.08900318,0,0,0.08900318,-52.13539,249.52218)"
       inkscape:export-xdpi="58.860001"
       inkscape:export-ydpi="58.860001"><flowRegion
         id="flowRegion20"
         style="font-style:normal;font-variant:normal;font-weight:normal;font-stretch:normal;font-family:'Futura URW Heavy';-inkscape-font-specification:'Futura URW Heavy, ';fill:#52c1ff;fill-opacity:1"><rect
           id="rect22"
           width="697.51031"
           height="221.72849"
           x="46.467018"
           y="298.2352"
           style="font-style:normal;font-variant:normal;font-weight:normal;font-stretch:normal;font-family:'Futura URW Heavy';-inkscape-font-specification:'Futura URW Heavy, ';fill:#52c1ff;fill-opacity:1" /></flowRegion><flowPara
         id="flowPara24" /></flowRoot>    <flowRoot
       transform="matrix(0.08900318,0,0,0.08900318,-6.1248668,248.0024)"
       xml:space="preserve"
       id="flowRoot10-36"
       style="font-style:normal;font-weight:normal;font-size:40px;line-height:1.25;font-family:sans-serif;letter-spacing:0px;word-spacing:0px;fill:#52c1ff;fill-opacity:1;stroke:none"
       inkscape:export-xdpi="58.860001"
       inkscape:export-ydpi="58.860001"><flowRegion
         id="flowRegion12-0"
         style="fill:#52c1ff;fill-opacity:1"><rect
           id="rect14-6"
           width="339.41125"
           height="110.61169"
           x="86.368042"
           y="148.73264"
           style="fill:#52c1ff;fill-opacity:1" /></flowRegion><flowPara
         id="flowPara16-2"
         style="font-style:italic;font-variant:normal;font-weight:900;font-stretch:normal;font-size:63.41846085px;font-family:Futura-Heavy;-inkscape-font-specification:'Futura-Heavy Heavy Italic';fill:#52c1ff;fill-opacity:1">paradar</flowPara></flowRoot>    <flowRoot
       transform="matrix(0.08900318,0,0,0.08900318,15.032647,248.03089)"
       xml:space="preserve"
       id="flowRoot10-36-5"
       style="font-style:normal;font-weight:normal;font-size:40px;line-height:1.25;font-family:sans-serif;letter-spacing:0px;word-spacing:0px;fill:#52c1ff;fill-opacity:1;stroke:none"
       inkscape:export-xdpi="58.860001"
       inkscape:export-ydpi="58.860001"><flowRegion
         id="flowRegion12-0-6"
         style="fill:#52c1ff;fill-opacity:1"><rect
           id="rect14-6-2"
           width="339.41125"
           height="110.61169"
           x="86.368042"
           y="148.73264"
           style="fill:#52c1ff;fill-opacity:1" /></flowRegion><flowPara
         id="flowPara16-2-9"
         style="font-style:italic;font-variant:normal;font-weight:900;font-stretch:normal;font-size:63.41846085px;font-family:Futura-Heavy;-inkscape-font-specification:'Futura-Heavy Heavy Italic';fill:#000000;fill-opacity:1">v1.5</flowPara></flowRoot>    <flowRoot
       transform="matrix(0.08900318,0,0,0.08900318,7.3698596,278.07384)"
       xml:space="preserve"
       id="flowRoot10-36-5-1-9-6"
       style="font-style:normal;font-weight:normal;font-size:31.70923042px;line-height:1.25;font-family:sans-serif;letter-spacing:0px;word-spacing:0px;fill:#52c1ff;fill-opacity:1;stroke:none"
       inkscape:export-xdpi="58.860001"
       inkscape:export-ydpi="58.860001"><flowRegion
         id="flowRegion12-0-6-2-3-2"
         style="font-size:31.70923042px;fill:#52c1ff;fill-opacity:1"><rect
           id="rect14-6-2-7-6-6"
           width="472.12289"
           height="52.21859"
           x="86.368042"
           y="148.73264"
           style="font-size:31.70923042px;fill:#52c1ff;fill-opacity:1" /></flowRegion><flowPara
         id="flowPara16-2-9-0-0-1"
         style="font-style:normal;font-variant:normal;font-weight:900;font-stretch:normal;font-size:31.70923042px;font-family:Futura-Heavy;-inkscape-font-specification:'Futura-Heavy Heavy Italic';fill:#000000;fill-opacity:1" /></flowRoot>    <g
       transform="matrix(0.40722354,0,0,0.40722354,50.875391,259.34673)"
       id="g1151">
      <path
         style="stroke:#000000"
         inkscape:connector-curvature="0"
         d="m 4,4.5 h 7 m 2,0 h 1 m 2,0 h 1 m 1,0 h 7 m -21,1 h 1 m 5,0 h 1 m 3,0 h 3 m 1,0 h 1 m 5,0 h 1 m -21,1 h 1 m 1,0 h 3 m 1,0 h 1 m 1,0 h 2 m 1,0 h 1 m 2,0 h 1 m 1,0 h 3 m 1,0 h 1 m -21,1 h 1 m 1,0 h 3 m 1,0 h 1 m 1,0 h 3 m 3,0 h 1 m 1,0 h 3 m 1,0 h 1 m -21,1 h 1 m 1,0 h 3 m 1,0 h 1 m 1,0 h 2 m 2,0 h 1 m 1,0 h 1 m 1,0 h 3 m 1,0 h 1 m -21,1 h 1 m 5,0 h 1 m 1,0 h 2 m 2,0 h 1 m 1,0 h 1 m 5,0 h 1 m -21,1 h 7 m 1,0 h 1 m 1,0 h 1 m 1,0 h 1 m 1,0 h 7 m -13,1 h 1 m 1,0 h 1 m -11,1 h 1 m 1,0 h 5 m 2,0 h 3 m 2,0 h 5 m -18,1 h 3 m 3,0 h 1 m 2,0 h 1 m 1,0 h 3 m 5,0 h 1 m -19,1 h 1 m 2,0 h 3 m 1,0 h 1 m 1,0 h 1 m 1,0 h 1 m 1,0 h 2 m 3,0 h 1 m -20,1 h 3 m 4,0 h 1 m 7,0 h 4 m -20,1 h 1 m 2,0 h 2 m 1,0 h 1 m 1,0 h 2 m 1,0 h 1 m 1,0 h 2 m 1,0 h 1 m -9,1 h 3 m 1,0 h 2 m 1,0 h 1 m 1,0 h 4 m -21,1 h 7 m 2,0 h 1 m 2,0 h 1 m 1,0 h 1 m 1,0 h 3 m -19,1 h 1 m 5,0 h 1 m 1,0 h 2 m 1,0 h 4 m 2,0 h 1 m 2,0 h 1 m -21,1 h 1 m 1,0 h 3 m 1,0 h 1 m 1,0 h 2 m 3,0 h 3 m 1,0 h 1 m 2,0 h 1 m -21,1 h 1 m 1,0 h 3 m 1,0 h 1 m 1,0 h 2 m 1,0 h 1 m -12,1 h 1 m 1,0 h 3 m 1,0 h 1 m 1,0 h 7 m 2,0 h 2 m -19,1 h 1 m 5,0 h 1 m 3,0 h 2 m 1,0 h 2 m 2,0 h 1 m 2,0 h 1 m -21,1 h 7 m 1,0 h 2 m 1,0 h 3 m 2,0 h 2"
         id="path1149" />
    </g>
    <flowRoot
       xml:space="preserve"
       id="flowRoot1200"
       style="font-style:normal;font-weight:normal;font-size:8px;line-height:1.25;font-family:sans-serif;letter-spacing:0px;word-spacing:0px;fill:#000000;fill-opacity:1;stroke:none"
       transform="matrix(0.26458333,0,0,0.26458333,0,261.88332)"><flowRegion
         id="flowRegion1202"><rect
           id="rect1204"
           width="38.385796"
           height="38.890873"
           x="586.89862"
           y="53.508656" /></flowRegion><flowPara
         id="flowPara1206"></flowPara></flowRoot>    <flowRoot
       xml:space="preserve"
       id="flowRoot1208"
       style="font-style:normal;font-weight:normal;font-size:8px;line-height:1.25;font-family:sans-serif;letter-spacing:0px;word-spacing:0px;fill:#000000;fill-opacity:1;stroke:none"
       transform="matrix(0.26458333,0,0,0.26458333,-0.13011853,253.68092)"><flowRegion
         id="flowRegion1210"><rect
           id="rect1212"
           width="224.56244"
           height="42.358971"
           x="6.5659914"
           y="56.034039" /></flowRegion><flowPara
         id="flowPara1214"
         style="font-style:normal;font-variant:normal;font-weight:normal;font-stretch:normal;font-size:6.66666698px;line-height:1.5;font-family:Futura-Heavy;-inkscape-font-specification:Futura-Heavy">paradar receives and displays radio broadcasts from aircraft. </flowPara><flowPara
         style="font-style:normal;font-variant:normal;font-weight:normal;font-stretch:normal;font-size:6.66666698px;line-height:1.5;font-family:Futura-Heavy;-inkscape-font-specification:Futura-Heavy"
         id="flowPara1222"> - it is not suitable and must not be used to operate or control an aircraft</flowPara><flowPara
         style="font-style:normal;font-variant:normal;font-weight:normal;font-stretch:normal;font-size:6.66666698px;line-height:1.5;font-family:Futura-Heavy;-inkscape-font-specification:Futura-Heavy"
         id="flowPara1224"> - it must not be relied upon for safety or the safe operation of an aircraft</flowPara><flowPara
         style="font-style:normal;font-variant:normal;font-weight:normal;font-stretch:normal;font-size:6.66666698px;line-height:1.5;font-family:Futura-Heavy;-inkscape-font-specification:Futura-Heavy"
         id="flowPara1228"> - it is not suitable and must not be used for the navigation of an aircraft </flowPara></flowRoot>    <g
       style="clip-rule:evenodd;fill-rule:evenodd"
       id="g884"
       transform="matrix(0.03645297,0,0,0.03645297,1.8207733,288.04968)">
      <g
         id="g1467"
         transform="matrix(1.1366794,0,0,1.1366794,-5.8576901,-35.146134)">
        <path
           style="fill:#000000"
           inkscape:connector-curvature="0"
           d="M 110,199.49874 A 100,100 0 0 1 100,200 100,100 0 0 1 100,0 100,100 0 0 1 110,0.501256 v 30 A 70,70 0 0 0 100,30 a 70,70 0 0 0 0,140 70,70 0 0 0 10,-0.50126 z"
           id="path870" />
        <path
           style="fill:#000000"
           inkscape:connector-curvature="0"
           d="M 280,199.49874 A 100,100 0 0 1 270,200 100,100 0 0 1 270,0 100,100 0 0 1 280,0.501256 v 30 A 70,70 0 0 0 270,30 70,70 0 0 0 201.62028,85 H 260 v 30 H 201.62028 A 70,70 0 0 0 270,170 a 70,70 0 0 0 10,-0.50126 z"
           id="path872" />
      </g>
    </g>
    <path
       id="path1283"
       d="m 17.776187,287.44127 h -0.486016 v 0.0764 h 0.486016 z m -1.388684,0.2372 c -0.0752,0.041 -0.133644,0.0908 -0.165917,0.15163 h 0.165917 z m 2.523342,0.72708 -0.183094,0.1865 -0.0089,0.0948 h 0.219755 v -0.28135 z m -1.652502,1.49019 -0.946036,-0.99796 0.155085,1.80283 z m 0.187121,0.002 0.904418,0.95249 0.187692,-2.01396 h -0.01851 v -0.0322 z m -1.151419,-1.21264 1.058269,1.11455 0.625964,-0.63699 h -0.88252 v -0.33329 h 1.020677 v 0.19269 l 0.402628,-0.4097 v -0.35711 h 0.07266 l 0.02348,-0.25205 h -2.379817 z m 2.555032,2.88818 c 0.0044,0.0259 0.0067,0.0528 0.0067,0.08 0,0.26509 -0.214881,0.47993 -0.479947,0.47993 -0.184066,0 -0.343941,-0.10363 -0.424457,-0.25568 h -1.173728 v 0.25071 h -0.308796 v -0.25134 c -0.03616,-0.004 -0.07085,-0.0395 -0.07394,-0.0755 l -0.06593,-0.76635 -1.635853,1.6663 -0.09779,-0.0961 1.718294,-1.74856 -0.185232,-2.15338 -1.634671,-1.72436 V 286.789 l 1.616438,1.70239 -0.04259,-0.49511 h -0.200744 v -0.16665 h 0.176623 c 0.0031,-0.009 0.0072,-0.0203 0.01236,-0.0326 0.05873,-0.13575 0.180024,-0.23279 0.331736,-0.30183 v -0.11008 h 0.284745 v 0.017 c 0.14835,-0.034 0.3052,-0.0527 0.4513,-0.062 v -0.066 h 0.819286 v 0.40968 h -0.819293 v -0.17306 c -0.14513,0.0114 -0.305324,0.0305 -0.451298,0.0654 v 0.25346 h 1.936397 c -0.07598,-0.1793 -0.371453,-0.26326 -0.665818,-0.30132 v -0.16969 c 0.295434,0.0366 0.599106,0.11924 0.751554,0.29772 0.04066,-0.0518 0.10387,-0.085 0.174832,-0.085 0.122714,0 0.222185,0.0994 0.222185,0.22218 0,0.12269 -0.09947,0.22217 -0.222185,0.22217 -0.03054,0 -0.05967,-0.006 -0.08617,-0.0173 l -0.02395,0.2569 h 0.1109 l 1.462812,-1.48858 v 0.18999 l -1.274806,1.299 h 0.02654 v 0.58103 h -0.379534 l -0.20266,2.17448 1.499125,1.57883 -0.09947,0.0944 z m -0.953285,0.08 c 0,-0.24603 0.185123,-0.44885 0.423679,-0.47671 l 0.01375,-0.14749 -0.981769,-1.03562 -0.868741,0.88489 0.07162,0.83254 h 1.344888 c -0.0023,-0.0187 -0.0034,-0.0382 -0.0034,-0.0577 z m 0.23035,0 c 0,0.13783 0.111752,0.2496 0.249612,0.2496 0.137852,0 0.249611,-0.11179 0.249611,-0.2496 0,-0.13786 -0.111761,-0.24962 -0.249611,-0.24962 -0.137866,0 -0.249612,0.1118 -0.249612,0.24962 z m 0.0875,0 c 0,-0.0897 0.07258,-0.16212 0.162112,-0.16212 0.08952,0 0.162112,0.0725 0.162112,0.16212 0,0.0896 -0.07258,0.16209 -0.162112,0.16209 -0.08953,0 -0.162112,-0.0726 -0.162112,-0.16209 z m -3.249498,2.22853 h 4.827985 v 1.17565 h -4.827986 z"
       inkscape:connector-curvature="0"
       style="stroke-width:0.01388657" />
    <g
       id="g1499"
       transform="translate(1.1919681,-0.24226487)">
      <g
         transform="translate(5.144264,1.5791949)"
         id="g1194">
        <flowRoot
           transform="matrix(0.08900318,0,0,0.08900318,7.5199562,274.37165)"
           xml:space="preserve"
           id="flowRoot10-36-5-1"
           style="font-style:normal;font-weight:normal;font-size:31.70923042px;line-height:1.25;font-family:sans-serif;letter-spacing:0px;word-spacing:0px;fill:#52c1ff;fill-opacity:1;stroke:none"
           inkscape:export-xdpi="58.860001"
           inkscape:export-ydpi="58.860001"><flowRegion
             id="flowRegion12-0-6-2"
             style="font-size:31.70923042px;fill:#52c1ff;fill-opacity:1"><rect
               id="rect14-6-2-7"
               width="201.39116"
               height="40.539963"
               x="86.368042"
               y="148.73264"
               style="font-size:31.70923042px;fill:#52c1ff;fill-opacity:1" /></flowRegion><flowPara
             id="flowPara16-2-9-0"
             style="font-style:normal;font-variant:normal;font-weight:900;font-stretch:normal;font-size:31.70923042px;font-family:Futura-Heavy;-inkscape-font-specification:'Futura-Heavy Heavy Italic';fill:#000000;fill-opacity:1">paradar.co.uk</flowPara></flowRoot>        <flowRoot
           transform="matrix(0.08900318,0,0,0.08900318,7.5086673,277.86463)"
           xml:space="preserve"
           id="flowRoot10-36-5-1-9"
           style="font-style:normal;font-weight:normal;font-size:31.70923042px;line-height:1.25;font-family:sans-serif;letter-spacing:0px;word-spacing:0px;fill:#52c1ff;fill-opacity:1;stroke:none"
           inkscape:export-xdpi="58.860001"
           inkscape:export-ydpi="58.860001"><flowRegion
             id="flowRegion12-0-6-2-3"
             style="font-size:31.70923042px;fill:#52c1ff;fill-opacity:1"><rect
               id="rect14-6-2-7-6"
               width="472.12289"
               height="52.21859"
               x="86.368042"
               y="148.73264"
               style="font-size:31.70923042px;fill:#52c1ff;fill-opacity:1" /></flowRegion><flowPara
             id="flowPara16-2-9-0-0"
             style="font-style:normal;font-variant:normal;font-weight:900;font-stretch:normal;font-size:31.70923042px;font-family:Futura-Heavy;-inkscape-font-specification:'Futura-Heavy Heavy Italic';fill:#000000;fill-opacity:1">Lytchett House, Poole, BH16 6FA</flowPara></flowRoot>      </g>
      <g
         transform="translate(43.209269,12.222876)"
         id="g1463">
        <g
           id="g1367"
           transform="matrix(0.01936354,0,0,0.01936354,-14.860268,274.79792)">
          <rect
             id="rect1347"
             y="20"
             x="25"
             height="16"
             width="200" />
          <rect
             id="rect1349"
             y="52"
             x="25"
             height="16"
             width="40" />
          <rect
             id="rect1351"
             y="52"
             x="105"
             height="16"
             width="40" />
          <rect
             id="rect1353"
             y="52"
             x="185"
             height="16"
             width="40" />
        </g>
        <flowRoot
           xml:space="preserve"
           id="flowRoot1208-8"
           style="font-style:normal;font-weight:normal;font-size:8px;line-height:1.25;font-family:sans-serif;letter-spacing:0px;word-spacing:0px;fill:#000000;fill-opacity:1;stroke:none"
           transform="matrix(0.26458333,0,0,0.26458333,-24.549595,259.38116)"><flowRegion
             id="flowRegion1210-7"><rect
               id="rect1212-9"
               width="29.367571"
               height="11.364521"
               x="6.5659914"
               y="56.034039" /></flowRegion><flowPara
             style="font-style:normal;font-variant:normal;font-weight:normal;font-stretch:normal;font-size:6.66666698px;font-family:Futura-Heavy;-inkscape-font-specification:Futura-Heavy"
             id="flowPara1228-7">INPUT: 5V </flowPara></flowRoot>        <flowRoot
           xml:space="preserve"
           id="flowRoot1208-8-9"
           style="font-style:normal;font-weight:normal;font-size:8px;line-height:1.25;font-family:sans-serif;letter-spacing:0px;word-spacing:0px;fill:#000000;fill-opacity:1;stroke:none"
           transform="matrix(0.26458333,0,0,0.26458333,-11.514793,259.38116)"><flowRegion
             id="flowRegion1210-7-2"><rect
               id="rect1212-9-2"
               width="30.630262"
               height="11.111983"
               x="6.5659914"
               y="56.034039" /></flowRegion><flowPara
             style="font-style:normal;font-variant:normal;font-weight:normal;font-stretch:normal;font-size:6.66666698px;font-family:Futura-Heavy;-inkscape-font-specification:Futura-Heavy"
             id="flowPara1228-7-8">MAX 2.5A</flowPara></flowRoot>      </g>
    </g>
    <flowRoot
       xml:space="preserve"
       id="flowRoot1208-9"
       style="font-style:normal;font-weight:normal;font-size:8px;line-height:1.25;font-family:sans-serif;letter-spacing:0px;word-spacing:0px;fill:#000000;fill-opacity:1;stroke:none"
       transform="matrix(0.26458333,0,0,0.26458333,-0.15657687,265.18542)"><flowRegion
         id="flowRegion1210-73"><rect
           id="rect1212-6"
           width="225.41196"
           height="21.188192"
           x="6.5659914"
           y="56.034039" /></flowRegion><flowPara
         style="font-style:normal;font-variant:normal;font-weight:normal;font-stretch:normal;font-size:6.66666698px;line-height:1.5;font-family:Futura-Heavy;-inkscape-font-specification:Futura-Heavy"
         id="flowPara1228-1"><flowSpan
   style="font-style:normal;line-height:1.5;fill:#52c1ff;fill-opacity:1"
   id="flowSpan1230-9">paradar does not replace your responsibility to look for, see and avoid other aircraft. The pilot is responsible for the safe conduct of any flight.</flowSpan> </flowPara></flowRoot>  </g>
</svg>
