<?xml version="1.0" encoding="UTF-8" standalone="no"?>
<!-- Created with Inkscape (http://www.inkscape.org/) -->

<svg
   xmlns:dc="http://purl.org/dc/elements/1.1/"
   xmlns:cc="http://creativecommons.org/ns#"
   xmlns:rdf="http://www.w3.org/1999/02/22-rdf-syntax-ns#"
   xmlns:svg="http://www.w3.org/2000/svg"
   xmlns="http://www.w3.org/2000/svg"
   xmlns:sodipodi="http://sodipodi.sourceforge.net/DTD/sodipodi-0.dtd"
   xmlns:inkscape="http://www.inkscape.org/namespaces/inkscape"
   width="81.990143mm"
   height="25.061335mm"
   viewBox="0 0 81.990143 25.061335"
   version="1.1"
   id="svg8"
   inkscape:version="0.92.4 (5da689c313, 2019-01-14)"
   sodipodi:docname="logo.svg">
  <defs
     id="defs2" />
  <sodipodi:namedview
     id="base"
     pagecolor="#ffffff"
     bordercolor="#666666"
     borderopacity="1.0"
     inkscape:pageopacity="0.0"
     inkscape:pageshadow="2"
     inkscape:zoom="1.979899"
     inkscape:cx="148.13761"
     inkscape:cy="-22.21103"
     inkscape:document-units="mm"
     inkscape:current-layer="layer1"
     showgrid="false"
     inkscape:window-width="2560"
     inkscape:window-height="1353"
     inkscape:window-x="0"
     inkscape:window-y="44"
     inkscape:window-maximized="1" />
  <metadata
     id="metadata5">
    <rdf:RDF>
      <cc:Work
         rdf:about="">
        <dc:format>image/svg+xml</dc:format>
        <dc:type
           rdf:resource="http://purl.org/dc/dcmitype/StillImage" />
        <dc:title></dc:title>
      </cc:Work>
    </rdf:RDF>
  </metadata>
  <g
     inkscape:label="Layer 1"
     inkscape:groupmode="layer"
     id="layer1"
     transform="translate(-37.33086,-68.101319)">
    <flowRoot
       xml:space="preserve"
       id="flowRoot18"
       style="font-style:normal;font-variant:normal;font-weight:normal;font-stretch:normal;font-size:40px;line-height:1.25;font-family:'Futura URW Heavy';-inkscape-font-specification:'Futura URW Heavy, ';letter-spacing:0px;word-spacing:0px;fill:#000000;fill-opacity:1;stroke:none"
       transform="scale(0.26458333)"><flowRegion
         id="flowRegion20"
         style="font-style:normal;font-variant:normal;font-weight:normal;font-stretch:normal;font-family:'Futura URW Heavy';-inkscape-font-specification:'Futura URW Heavy, '"><rect
           id="rect22"
           width="697.51031"
           height="221.72849"
           x="46.467018"
           y="298.2352"
           style="font-style:normal;font-variant:normal;font-weight:normal;font-stretch:normal;font-family:'Futura URW Heavy';-inkscape-font-specification:'Futura URW Heavy, '" /></flowRegion><flowPara
         id="flowPara24"></flowPara></flowRoot>    <g
       aria-label="paradar"
       transform="matrix(0.26458333,0,0,0.26458333,14.29892,27.824324)"
       style="font-style:normal;font-weight:normal;font-size:40px;line-height:1.25;font-family:sans-serif;letter-spacing:0px;word-spacing:0px;fill:#000000;fill-opacity:1;stroke:none"
       id="flowRoot10-36">
      <path
         d="M 109.23652,182.69201 H 97.289854 l -10.24,64.25601 h 12.032001 l 4.095995,-26.28267 h 0.17067 q 1.36533,2.47467 4.18133,3.92533 2.90134,1.36534 6.22934,1.36534 4.43733,0 8.36267,-1.792 3.92533,-1.87734 6.912,-5.03467 3.072,-3.24267 4.94933,-7.25333 1.96267,-4.096 2.64533,-8.448 0.34134,-1.96267 0.34134,-4.01067 0,-7.59467 -4.26667,-12.8 -4.18133,-5.29067 -11.69067,-5.29067 -3.328,0 -6.656,1.36533 -3.328,1.36534 -5.71733,3.84 z m 3.49867,32.68267 q -3.84,0 -6.05867,-2.816 -2.13333,-2.90133 -2.13333,-6.912 0,-1.024 0.17066,-2.048 0.34134,-2.13333 1.36534,-4.18133 1.024,-2.13334 2.56,-3.84 1.62133,-1.70667 3.584,-2.64534 2.048,-1.024 4.26667,-1.024 3.84,0 5.97333,2.816 2.21867,2.816 2.21867,6.82667 0,1.024 -0.17067,2.048 -0.34133,2.13334 -1.36533,4.26667 -1.024,2.048 -2.64534,3.75467 -1.536,1.70666 -3.584,2.73066 -1.96266,1.024 -4.18133,1.024 z"
         style="font-style:italic;font-variant:normal;font-weight:900;font-stretch:normal;font-size:85.33333588px;font-family:Futura-Heavy;-inkscape-font-specification:'Futura-Heavy Heavy Italic'"
         id="path147" />
      <path
         d="m 185.05119,182.69201 h -11.776 l -0.59733,3.92534 q -1.792,-2.56 -4.69334,-3.92534 -2.90133,-1.36533 -6.22933,-1.36533 -4.352,0 -8.192,1.87733 -3.84,1.792 -6.82667,4.94934 -2.98666,3.15733 -4.94933,7.168 -1.96267,3.92533 -2.64533,8.10667 -0.34134,2.21866 -0.34134,4.352 0,7.68 4.18134,12.97066 4.26666,5.20534 11.94666,5.20534 3.328,0 6.57067,-1.36534 3.24267,-1.36533 5.54667,-3.84 h 0.17066 l -0.59733,3.84 h 11.776 z m -25.77067,32.68267 q -3.84,0 -6.05866,-2.816 -2.13334,-2.90133 -2.13334,-6.912 0,-1.024 0.17067,-2.048 0.34133,-2.13333 1.36533,-4.18133 1.024,-2.13334 2.56,-3.84 1.62134,-1.70667 3.584,-2.64534 2.048,-1.024 4.26667,-1.024 3.84,0 6.05867,2.90134 2.21866,2.816 2.21866,6.74133 0,1.024 -0.17066,2.048 -0.34134,2.13334 -1.36534,4.26667 -1.024,2.048 -2.64533,3.75467 -1.536,1.70666 -3.584,2.73066 -2.048,1.024 -4.26667,1.024 z"
         style="font-style:italic;font-variant:normal;font-weight:900;font-stretch:normal;font-size:85.33333588px;font-family:Futura-Heavy;-inkscape-font-specification:'Futura-Heavy Heavy Italic'"
         id="path149" />
      <path
         d="m 205.56986,182.69201 h -11.94667 l -6.656,41.89867 h 11.94667 l 2.98666,-18.85866 q 0.42667,-2.816 1.10934,-5.12 0.68266,-2.38934 1.87733,-4.35201 1.28,-2.048 3.328,-3.15733 2.048,-1.19467 5.03467,-1.19467 2.73066,0 4.69333,1.536 l 3.15733,-11.09333 q -2.47466,-1.024 -4.77866,-1.024 -6.656,0 -11.264,5.71733 h -0.17067 z"
         style="font-style:italic;font-variant:normal;font-weight:900;font-stretch:normal;font-size:85.33333588px;font-family:Futura-Heavy;-inkscape-font-specification:'Futura-Heavy Heavy Italic'"
         id="path151" />
      <path
         d="m 264.55119,182.69201 h -11.776 l -0.59733,3.92534 q -1.792,-2.56 -4.69333,-3.92534 -2.90134,-1.36533 -6.22934,-1.36533 -4.352,0 -8.192,1.87733 -3.84,1.792 -6.82666,4.94934 -2.98667,3.15733 -4.94934,7.168 -1.96266,3.92533 -2.64533,8.10667 -0.34133,2.21866 -0.34133,4.352 0,7.68 4.18133,12.97066 4.26667,5.20534 11.94667,5.20534 3.328,0 6.57066,-1.36534 3.24267,-1.36533 5.54667,-3.84 h 0.17067 l -0.59734,3.84 h 11.776 z m -25.77066,32.68267 q -3.84,0 -6.05867,-2.816 -2.13333,-2.90133 -2.13333,-6.912 0,-1.024 0.17066,-2.048 0.34134,-2.13333 1.36534,-4.18133 1.024,-2.13334 2.56,-3.84 1.62133,-1.70667 3.584,-2.64534 2.048,-1.024 4.26666,-1.024 3.84,0 6.05867,2.90134 2.21867,2.816 2.21867,6.74133 0,1.024 -0.17067,2.048 -0.34133,2.13334 -1.36533,4.26667 -1.024,2.048 -2.64534,3.75467 -1.536,1.70666 -3.584,2.73066 -2.048,1.024 -4.26666,1.024 z"
         style="font-style:italic;font-variant:normal;font-weight:900;font-stretch:normal;font-size:85.33333588px;font-family:Futura-Heavy;-inkscape-font-specification:'Futura-Heavy Heavy Italic'"
         id="path153" />
      <path
         d="m 294.20053,224.59068 h 11.94667 l 11.43467,-72.36267 H 305.6352 l -5.376,34.304 h -0.17067 q -1.62133,-2.47466 -4.52266,-3.84 -2.816,-1.36533 -6.144,-1.36533 -4.352,0 -8.19201,1.87733 -3.84,1.792 -6.82666,4.94934 -2.98667,3.15733 -4.94934,7.168 -1.96266,3.92533 -2.64533,8.10667 -0.34133,2.21866 -0.34133,4.352 0,7.68 4.18133,12.97066 4.26667,5.20534 11.94667,5.20534 3.328,0 6.57067,-1.36534 3.24266,-1.45066 5.46133,-3.92533 h 0.17067 z m -7.25333,-9.216 q -3.84,0 -6.05867,-2.816 -2.13333,-2.90133 -2.13333,-6.912 0,-1.024 0.17066,-2.048 0.34134,-2.13333 1.36534,-4.18133 1.024,-2.13334 2.56,-3.84 1.62133,-1.70667 3.584,-2.64534 2.048,-1.024 4.26667,-1.024 3.84,0 5.97333,2.816 2.21867,2.816 2.21867,6.82667 0,1.024 -0.17067,2.048 -0.34133,2.13334 -1.36533,4.26667 -1.024,2.048 -2.64534,3.75467 -1.536,1.70666 -3.584,2.73066 -1.96266,1.024 -4.18133,1.024 z"
         style="font-style:italic;font-variant:normal;font-weight:900;font-stretch:normal;font-size:85.33333588px;font-family:Futura-Heavy;-inkscape-font-specification:'Futura-Heavy Heavy Italic'"
         id="path155" />
      <path
         d="m 360.88452,182.69201 h -11.776 l -0.59733,3.92534 q -1.792,-2.56 -4.69333,-3.92534 -2.90134,-1.36533 -6.22934,-1.36533 -4.352,0 -8.192,1.87733 -3.84,1.792 -6.82667,4.94934 -2.98666,3.15733 -4.94933,7.168 -1.96267,3.92533 -2.64533,8.10667 -0.34134,2.21866 -0.34134,4.352 0,7.68 4.18134,12.97066 4.26666,5.20534 11.94666,5.20534 3.328,0 6.57067,-1.36534 3.24267,-1.36533 5.54667,-3.84 h 0.17067 l -0.59734,3.84 h 11.776 z m -25.77067,32.68267 q -3.84,0 -6.05866,-2.816 -2.13334,-2.90133 -2.13334,-6.912 0,-1.024 0.17067,-2.048 0.34133,-2.13333 1.36533,-4.18133 1.024,-2.13334 2.56,-3.84 1.62134,-1.70667 3.584,-2.64534 2.048,-1.024 4.26667,-1.024 3.84,0 6.05867,2.90134 2.21867,2.816 2.21867,6.74133 0,1.024 -0.17067,2.048 -0.34133,2.13334 -1.36533,4.26667 -1.024,2.048 -2.64534,3.75467 -1.536,1.70666 -3.584,2.73066 -2.048,1.024 -4.26667,1.024 z"
         style="font-style:italic;font-variant:normal;font-weight:900;font-stretch:normal;font-size:85.33333588px;font-family:Futura-Heavy;-inkscape-font-specification:'Futura-Heavy Heavy Italic'"
         id="path157" />
      <path
         d="m 381.40321,182.69201 h -11.94667 l -6.656,41.89867 h 11.94667 l 2.98667,-18.85866 q 0.42666,-2.816 1.10933,-5.12 0.68267,-2.38934 1.87733,-4.35201 1.28,-2.048 3.328,-3.15733 2.048,-1.19467 5.03467,-1.19467 2.73067,0 4.69333,1.536 l 3.15734,-11.09333 q -2.47467,-1.024 -4.77867,-1.024 -6.656,0 -11.264,5.71733 h -0.17067 z"
         style="font-style:italic;font-variant:normal;font-weight:900;font-stretch:normal;font-size:85.33333588px;font-family:Futura-Heavy;-inkscape-font-specification:'Futura-Heavy Heavy Italic'"
         id="path159" />
    </g>
  </g>
</svg>
