G04 start of page 3 for group 5 idx 5 *
G04 Title: (unknown), bottom *
G04 Creator: pcb 4.2.0 *
G04 CreationDate: Fri Mar 27 23:03:46 2020 UTC *
G04 For: blinken *
G04 Format: Gerber/RS-274X *
G04 PCB-Dimensions (mm): 65.00 56.00 *
G04 PCB-Coordinate-Origin: lower left *
%MOMM*%
%FSLAX43Y43*%
%LNBOTTOM*%
%ADD38C,1.300*%
%ADD37C,1.500*%
%ADD36C,0.965*%
%ADD35C,0.400*%
%ADD34C,0.654*%
%ADD33C,2.500*%
%ADD32C,1.524*%
%ADD31C,0.800*%
%ADD30C,1.054*%
%ADD29C,2.900*%
%ADD28C,1.600*%
%ADD27C,1.700*%
%ADD26C,0.254*%
%ADD25C,0.002*%
G54D25*G36*
X23128Y28033D02*X23134Y28040D01*
X23198Y28144D01*
X23245Y28258D01*
X23274Y28377D01*
X23281Y28500D01*
X23274Y28623D01*
X23245Y28742D01*
X23198Y28856D01*
X23134Y28960D01*
X23128Y28967D01*
Y29583D01*
X23134Y29590D01*
X23198Y29694D01*
X23245Y29808D01*
X23274Y29927D01*
X23281Y30050D01*
X23274Y30173D01*
X23245Y30292D01*
X23198Y30406D01*
X23134Y30510D01*
X23128Y30517D01*
Y31133D01*
X23134Y31140D01*
X23182Y31218D01*
X23198Y31244D01*
X23245Y31358D01*
X23274Y31477D01*
X23281Y31600D01*
X23274Y31723D01*
X23245Y31842D01*
X23198Y31956D01*
X23134Y32060D01*
X23128Y32067D01*
Y33440D01*
X23129Y33440D01*
X23145Y33453D01*
X23158Y33467D01*
X23169Y33484D01*
X23214Y33571D01*
X23250Y33663D01*
X23277Y33757D01*
X23295Y33853D01*
X23304Y33951D01*
Y34049D01*
X23295Y34147D01*
X23277Y34243D01*
X23250Y34337D01*
X23214Y34429D01*
X23170Y34516D01*
X23159Y34533D01*
X23145Y34548D01*
X23130Y34560D01*
X23128Y34561D01*
Y40090D01*
X23129Y40090D01*
X23145Y40103D01*
X23158Y40117D01*
X23169Y40134D01*
X23214Y40221D01*
X23250Y40313D01*
X23277Y40407D01*
X23295Y40503D01*
X23304Y40601D01*
Y40699D01*
X23295Y40797D01*
X23277Y40893D01*
X23250Y40987D01*
X23214Y41079D01*
X23170Y41166D01*
X23159Y41183D01*
X23145Y41198D01*
X23130Y41210D01*
X23128Y41211D01*
Y42422D01*
X23132Y42423D01*
X23151Y42429D01*
X23169Y42438D01*
X23185Y42450D01*
X23200Y42464D01*
X23211Y42480D01*
X23220Y42498D01*
X23245Y42562D01*
X23263Y42629D01*
X23275Y42697D01*
X23281Y42766D01*
Y42834D01*
X23275Y42903D01*
X23263Y42971D01*
X23245Y43038D01*
X23221Y43102D01*
X23212Y43120D01*
X23200Y43136D01*
X23186Y43151D01*
X23169Y43162D01*
X23152Y43171D01*
X23132Y43177D01*
X23128Y43178D01*
Y43983D01*
X23134Y43990D01*
X23198Y44094D01*
X23245Y44208D01*
X23274Y44327D01*
X23281Y44450D01*
X23274Y44573D01*
X23245Y44692D01*
X23198Y44806D01*
X23134Y44910D01*
X23128Y44917D01*
Y46040D01*
X23129Y46040D01*
X23145Y46053D01*
X23158Y46067D01*
X23169Y46084D01*
X23214Y46171D01*
X23250Y46263D01*
X23277Y46357D01*
X23295Y46453D01*
X23304Y46551D01*
Y46649D01*
X23295Y46747D01*
X23277Y46843D01*
X23250Y46937D01*
X23214Y47029D01*
X23170Y47116D01*
X23159Y47133D01*
X23145Y47148D01*
X23130Y47160D01*
X23128Y47161D01*
Y48689D01*
X23609Y49170D01*
X23620Y49180D01*
X23659Y49225D01*
X23659Y49225D01*
X23691Y49276D01*
X23700Y49299D01*
Y22550D01*
X23128D01*
Y23710D01*
X23146Y23740D01*
X23234Y23950D01*
X23287Y24172D01*
X23300Y24400D01*
X23287Y24628D01*
X23234Y24850D01*
X23146Y25060D01*
X23128Y25090D01*
Y26522D01*
X23132Y26523D01*
X23151Y26529D01*
X23169Y26538D01*
X23185Y26550D01*
X23200Y26564D01*
X23211Y26580D01*
X23220Y26598D01*
X23245Y26662D01*
X23263Y26729D01*
X23275Y26797D01*
X23281Y26866D01*
Y26934D01*
X23275Y27003D01*
X23263Y27071D01*
X23245Y27138D01*
X23221Y27202D01*
X23212Y27220D01*
X23200Y27236D01*
X23186Y27251D01*
X23169Y27262D01*
X23152Y27271D01*
X23132Y27277D01*
X23128Y27278D01*
Y28033D01*
G37*
G36*
Y22550D02*X22250D01*
Y23005D01*
X22300Y23016D01*
X22510Y23104D01*
X22705Y23223D01*
X22879Y23371D01*
X23027Y23545D01*
X23128Y23710D01*
Y22550D01*
G37*
G36*
Y44917D02*X23054Y45004D01*
X22968Y45078D01*
X22960Y45084D01*
X22856Y45148D01*
X22742Y45195D01*
X22623Y45224D01*
X22500Y45233D01*
X22377Y45224D01*
X22258Y45195D01*
X22250Y45192D01*
Y45546D01*
X22299D01*
X22397Y45555D01*
X22493Y45573D01*
X22587Y45600D01*
X22679Y45636D01*
X22766Y45680D01*
X22783Y45691D01*
X22798Y45705D01*
X22810Y45720D01*
X22820Y45738D01*
X22827Y45757D01*
X22831Y45777D01*
X22832Y45797D01*
X22829Y45817D01*
X22824Y45836D01*
X22816Y45854D01*
X22804Y45871D01*
X22791Y45886D01*
X22775Y45898D01*
X22757Y45908D01*
X22738Y45915D01*
X22719Y45919D01*
X22699Y45920D01*
X22679Y45917D01*
X22659Y45912D01*
X22641Y45903D01*
X22575Y45869D01*
X22506Y45842D01*
X22434Y45822D01*
X22361Y45808D01*
X22287Y45801D01*
X22250D01*
Y47399D01*
X22287D01*
X22361Y47392D01*
X22434Y47378D01*
X22506Y47358D01*
X22575Y47331D01*
X22642Y47298D01*
X22659Y47289D01*
X22679Y47283D01*
X22699Y47281D01*
X22719Y47282D01*
X22738Y47286D01*
X22757Y47293D01*
X22774Y47302D01*
X22790Y47315D01*
X22804Y47329D01*
X22815Y47346D01*
X22823Y47364D01*
X22829Y47383D01*
X22831Y47403D01*
X22830Y47423D01*
X22826Y47443D01*
X22819Y47462D01*
X22810Y47479D01*
X22797Y47495D01*
X22783Y47508D01*
X22766Y47519D01*
X22679Y47564D01*
X22587Y47600D01*
X22493Y47627D01*
X22397Y47645D01*
X22299Y47654D01*
X22250D01*
Y48469D01*
X22735D01*
X22750Y48468D01*
X22810Y48473D01*
X22810Y48473D01*
X22868Y48487D01*
X22924Y48509D01*
X22975Y48541D01*
X23020Y48580D01*
X23030Y48591D01*
X23128Y48689D01*
Y47161D01*
X23112Y47170D01*
X23093Y47177D01*
X23073Y47181D01*
X23053Y47182D01*
X23033Y47179D01*
X23014Y47174D01*
X22996Y47166D01*
X22979Y47154D01*
X22964Y47141D01*
X22952Y47125D01*
X22942Y47107D01*
X22935Y47088D01*
X22931Y47069D01*
X22930Y47049D01*
X22933Y47029D01*
X22938Y47009D01*
X22947Y46991D01*
X22981Y46925D01*
X23008Y46856D01*
X23028Y46784D01*
X23042Y46711D01*
X23049Y46637D01*
Y46563D01*
X23042Y46489D01*
X23028Y46416D01*
X23008Y46344D01*
X22981Y46275D01*
X22948Y46208D01*
X22939Y46191D01*
X22933Y46171D01*
X22931Y46151D01*
X22932Y46131D01*
X22936Y46112D01*
X22943Y46093D01*
X22952Y46076D01*
X22965Y46060D01*
X22979Y46046D01*
X22996Y46035D01*
X23014Y46027D01*
X23033Y46021D01*
X23053Y46019D01*
X23073Y46020D01*
X23093Y46024D01*
X23112Y46031D01*
X23128Y46040D01*
Y44917D01*
G37*
G36*
Y32067D02*X23128Y32068D01*
X23054Y32154D01*
X22968Y32228D01*
X22960Y32234D01*
X22856Y32298D01*
X22742Y32345D01*
X22623Y32374D01*
X22500Y32383D01*
X22377Y32374D01*
X22258Y32345D01*
X22250Y32342D01*
Y32946D01*
X22299D01*
X22397Y32955D01*
X22493Y32973D01*
X22587Y33000D01*
X22679Y33036D01*
X22766Y33080D01*
X22783Y33091D01*
X22798Y33105D01*
X22810Y33120D01*
X22820Y33138D01*
X22827Y33157D01*
X22831Y33177D01*
X22832Y33197D01*
X22829Y33217D01*
X22824Y33236D01*
X22816Y33254D01*
X22804Y33271D01*
X22791Y33286D01*
X22775Y33298D01*
X22757Y33308D01*
X22738Y33315D01*
X22719Y33319D01*
X22699Y33320D01*
X22679Y33317D01*
X22659Y33312D01*
X22641Y33303D01*
X22575Y33269D01*
X22506Y33242D01*
X22434Y33222D01*
X22361Y33208D01*
X22287Y33201D01*
X22250D01*
Y34799D01*
X22287D01*
X22361Y34792D01*
X22434Y34778D01*
X22506Y34758D01*
X22575Y34731D01*
X22642Y34698D01*
X22659Y34689D01*
X22679Y34683D01*
X22699Y34681D01*
X22719Y34682D01*
X22738Y34686D01*
X22757Y34693D01*
X22774Y34702D01*
X22790Y34715D01*
X22804Y34729D01*
X22815Y34746D01*
X22823Y34764D01*
X22829Y34783D01*
X22831Y34803D01*
X22830Y34823D01*
X22826Y34843D01*
X22819Y34862D01*
X22810Y34879D01*
X22797Y34895D01*
X22783Y34908D01*
X22766Y34919D01*
X22679Y34964D01*
X22587Y35000D01*
X22493Y35027D01*
X22397Y35045D01*
X22299Y35054D01*
X22250D01*
Y39596D01*
X22299D01*
X22397Y39605D01*
X22493Y39623D01*
X22587Y39650D01*
X22679Y39686D01*
X22766Y39730D01*
X22783Y39741D01*
X22798Y39755D01*
X22810Y39770D01*
X22820Y39788D01*
X22827Y39807D01*
X22831Y39827D01*
X22832Y39847D01*
X22829Y39867D01*
X22824Y39886D01*
X22816Y39904D01*
X22804Y39921D01*
X22791Y39936D01*
X22775Y39948D01*
X22757Y39958D01*
X22738Y39965D01*
X22719Y39969D01*
X22699Y39970D01*
X22679Y39967D01*
X22659Y39962D01*
X22641Y39953D01*
X22575Y39919D01*
X22506Y39892D01*
X22434Y39872D01*
X22361Y39858D01*
X22287Y39851D01*
X22250D01*
Y41449D01*
X22287D01*
X22361Y41442D01*
X22434Y41428D01*
X22506Y41408D01*
X22575Y41381D01*
X22642Y41348D01*
X22659Y41339D01*
X22679Y41333D01*
X22699Y41331D01*
X22719Y41332D01*
X22738Y41336D01*
X22757Y41343D01*
X22774Y41352D01*
X22790Y41365D01*
X22804Y41379D01*
X22815Y41396D01*
X22823Y41414D01*
X22829Y41433D01*
X22831Y41453D01*
X22830Y41473D01*
X22826Y41493D01*
X22819Y41512D01*
X22810Y41529D01*
X22797Y41545D01*
X22783Y41558D01*
X22766Y41569D01*
X22679Y41614D01*
X22587Y41650D01*
X22493Y41677D01*
X22397Y41695D01*
X22299Y41704D01*
X22250D01*
Y42060D01*
X22262Y42055D01*
X22329Y42037D01*
X22397Y42025D01*
X22466Y42019D01*
X22534D01*
X22603Y42025D01*
X22671Y42037D01*
X22738Y42055D01*
X22802Y42079D01*
X22820Y42088D01*
X22836Y42100D01*
X22850Y42114D01*
X22862Y42131D01*
X22871Y42148D01*
X22877Y42168D01*
X22880Y42187D01*
X22880Y42207D01*
X22877Y42227D01*
X22871Y42246D01*
X22862Y42264D01*
X22850Y42280D01*
X22836Y42294D01*
X22819Y42306D01*
X22801Y42315D01*
X22782Y42321D01*
X22762Y42324D01*
X22742Y42324D01*
X22722Y42321D01*
X22704Y42314D01*
X22660Y42298D01*
X22615Y42286D01*
X22570Y42278D01*
X22523Y42274D01*
X22477D01*
X22430Y42278D01*
X22385Y42286D01*
X22340Y42298D01*
X22296Y42314D01*
X22277Y42321D01*
X22258Y42324D01*
X22250Y42324D01*
Y43276D01*
X22258Y43276D01*
X22278Y43279D01*
X22296Y43286D01*
X22340Y43302D01*
X22385Y43314D01*
X22430Y43322D01*
X22477Y43326D01*
X22523D01*
X22570Y43322D01*
X22615Y43314D01*
X22660Y43302D01*
X22704Y43286D01*
X22723Y43279D01*
X22742Y43276D01*
X22762Y43276D01*
X22782Y43279D01*
X22801Y43285D01*
X22819Y43294D01*
X22835Y43306D01*
X22849Y43320D01*
X22861Y43336D01*
X22870Y43354D01*
X22877Y43373D01*
X22880Y43393D01*
X22880Y43413D01*
X22877Y43432D01*
X22871Y43451D01*
X22862Y43469D01*
X22850Y43485D01*
X22836Y43500D01*
X22820Y43511D01*
X22802Y43520D01*
X22738Y43545D01*
X22671Y43563D01*
X22603Y43575D01*
X22534Y43581D01*
X22466D01*
X22397Y43575D01*
X22329Y43563D01*
X22262Y43545D01*
X22250Y43540D01*
Y43708D01*
X22258Y43705D01*
X22377Y43676D01*
X22500Y43667D01*
X22623Y43676D01*
X22742Y43705D01*
X22856Y43752D01*
X22960Y43816D01*
X22968Y43822D01*
X23054Y43896D01*
X23128Y43983D01*
Y43178D01*
X23113Y43180D01*
X23093Y43180D01*
X23073Y43177D01*
X23054Y43171D01*
X23036Y43162D01*
X23020Y43150D01*
X23006Y43136D01*
X22994Y43119D01*
X22985Y43101D01*
X22979Y43082D01*
X22976Y43062D01*
X22976Y43042D01*
X22979Y43022D01*
X22986Y43004D01*
X23002Y42960D01*
X23014Y42915D01*
X23022Y42870D01*
X23026Y42823D01*
Y42777D01*
X23022Y42730D01*
X23014Y42685D01*
X23002Y42640D01*
X22986Y42596D01*
X22979Y42577D01*
X22976Y42558D01*
X22976Y42538D01*
X22979Y42518D01*
X22985Y42499D01*
X22994Y42481D01*
X23006Y42465D01*
X23020Y42451D01*
X23036Y42439D01*
X23054Y42430D01*
X23073Y42423D01*
X23093Y42420D01*
X23113Y42420D01*
X23128Y42422D01*
Y41211D01*
X23112Y41220D01*
X23093Y41227D01*
X23073Y41231D01*
X23053Y41232D01*
X23033Y41229D01*
X23014Y41224D01*
X22996Y41216D01*
X22979Y41204D01*
X22964Y41191D01*
X22952Y41175D01*
X22942Y41157D01*
X22935Y41138D01*
X22931Y41119D01*
X22930Y41099D01*
X22933Y41079D01*
X22938Y41059D01*
X22947Y41041D01*
X22981Y40975D01*
X23008Y40906D01*
X23028Y40834D01*
X23042Y40761D01*
X23049Y40687D01*
Y40613D01*
X23042Y40539D01*
X23028Y40466D01*
X23008Y40394D01*
X22981Y40325D01*
X22948Y40258D01*
X22939Y40241D01*
X22933Y40221D01*
X22931Y40201D01*
X22932Y40181D01*
X22936Y40162D01*
X22943Y40143D01*
X22952Y40126D01*
X22965Y40110D01*
X22979Y40096D01*
X22996Y40085D01*
X23014Y40077D01*
X23033Y40071D01*
X23053Y40069D01*
X23073Y40070D01*
X23093Y40074D01*
X23112Y40081D01*
X23128Y40090D01*
Y34561D01*
X23112Y34570D01*
X23093Y34577D01*
X23073Y34581D01*
X23053Y34582D01*
X23033Y34579D01*
X23014Y34574D01*
X22996Y34566D01*
X22979Y34554D01*
X22964Y34541D01*
X22952Y34525D01*
X22942Y34507D01*
X22935Y34488D01*
X22931Y34469D01*
X22930Y34449D01*
X22933Y34429D01*
X22938Y34409D01*
X22947Y34391D01*
X22981Y34325D01*
X23008Y34256D01*
X23028Y34184D01*
X23042Y34111D01*
X23049Y34037D01*
Y33963D01*
X23042Y33889D01*
X23028Y33816D01*
X23008Y33744D01*
X22981Y33675D01*
X22948Y33608D01*
X22939Y33591D01*
X22933Y33571D01*
X22931Y33551D01*
X22932Y33531D01*
X22936Y33512D01*
X22943Y33493D01*
X22952Y33476D01*
X22965Y33460D01*
X22979Y33446D01*
X22996Y33435D01*
X23014Y33427D01*
X23033Y33421D01*
X23053Y33419D01*
X23073Y33420D01*
X23093Y33424D01*
X23112Y33431D01*
X23128Y33440D01*
Y32067D01*
G37*
G36*
Y30517D02*X23054Y30604D01*
X22960Y30684D01*
X22856Y30748D01*
X22742Y30795D01*
X22623Y30824D01*
X22607Y30825D01*
X22623Y30826D01*
X22742Y30855D01*
X22856Y30902D01*
X22960Y30966D01*
X23054Y31046D01*
X23128Y31133D01*
Y30517D01*
G37*
G36*
Y28967D02*X23054Y29054D01*
X22960Y29134D01*
X22856Y29198D01*
X22742Y29245D01*
X22623Y29274D01*
X22607Y29275D01*
X22623Y29276D01*
X22742Y29305D01*
X22856Y29352D01*
X22960Y29416D01*
X23054Y29496D01*
X23128Y29583D01*
Y28967D01*
G37*
G36*
X22250Y27758D02*X22258Y27755D01*
X22377Y27726D01*
X22500Y27717D01*
X22623Y27726D01*
X22742Y27755D01*
X22856Y27802D01*
X22960Y27866D01*
X23054Y27946D01*
X23128Y28033D01*
Y27278D01*
X23113Y27280D01*
X23093Y27280D01*
X23073Y27277D01*
X23054Y27271D01*
X23036Y27262D01*
X23020Y27250D01*
X23006Y27236D01*
X22994Y27219D01*
X22985Y27201D01*
X22979Y27182D01*
X22976Y27162D01*
X22976Y27142D01*
X22979Y27122D01*
X22986Y27104D01*
X23002Y27060D01*
X23014Y27015D01*
X23022Y26970D01*
X23026Y26923D01*
Y26877D01*
X23022Y26830D01*
X23014Y26785D01*
X23002Y26740D01*
X22986Y26696D01*
X22979Y26677D01*
X22976Y26658D01*
X22976Y26638D01*
X22979Y26618D01*
X22985Y26599D01*
X22994Y26581D01*
X23006Y26565D01*
X23020Y26551D01*
X23036Y26539D01*
X23054Y26530D01*
X23073Y26523D01*
X23093Y26520D01*
X23113Y26520D01*
X23128Y26522D01*
Y25090D01*
X23027Y25255D01*
X22879Y25429D01*
X22705Y25577D01*
X22510Y25696D01*
X22300Y25784D01*
X22250Y25795D01*
Y26160D01*
X22262Y26155D01*
X22329Y26137D01*
X22397Y26125D01*
X22466Y26119D01*
X22534D01*
X22603Y26125D01*
X22671Y26137D01*
X22738Y26155D01*
X22802Y26179D01*
X22820Y26188D01*
X22836Y26200D01*
X22850Y26214D01*
X22862Y26231D01*
X22871Y26248D01*
X22877Y26268D01*
X22880Y26287D01*
X22880Y26307D01*
X22877Y26327D01*
X22871Y26346D01*
X22862Y26364D01*
X22850Y26380D01*
X22836Y26394D01*
X22819Y26406D01*
X22801Y26415D01*
X22782Y26421D01*
X22762Y26424D01*
X22742Y26424D01*
X22722Y26421D01*
X22704Y26414D01*
X22660Y26398D01*
X22615Y26386D01*
X22570Y26378D01*
X22523Y26374D01*
X22477D01*
X22430Y26378D01*
X22385Y26386D01*
X22340Y26398D01*
X22296Y26414D01*
X22277Y26421D01*
X22258Y26424D01*
X22250Y26424D01*
Y27376D01*
X22258Y27376D01*
X22278Y27379D01*
X22296Y27386D01*
X22340Y27402D01*
X22385Y27414D01*
X22430Y27422D01*
X22477Y27426D01*
X22523D01*
X22570Y27422D01*
X22615Y27414D01*
X22660Y27402D01*
X22704Y27386D01*
X22723Y27379D01*
X22742Y27376D01*
X22762Y27376D01*
X22782Y27379D01*
X22801Y27385D01*
X22819Y27394D01*
X22835Y27406D01*
X22849Y27420D01*
X22861Y27436D01*
X22870Y27454D01*
X22877Y27473D01*
X22880Y27493D01*
X22880Y27513D01*
X22877Y27532D01*
X22871Y27551D01*
X22862Y27569D01*
X22850Y27585D01*
X22836Y27600D01*
X22820Y27611D01*
X22802Y27620D01*
X22738Y27645D01*
X22671Y27663D01*
X22603Y27675D01*
X22534Y27681D01*
X22466D01*
X22397Y27675D01*
X22329Y27663D01*
X22262Y27645D01*
X22250Y27640D01*
Y27758D01*
G37*
G36*
Y50828D02*X22286Y50786D01*
X22332Y50747D01*
X22302Y50735D01*
X22250Y50703D01*
Y50828D01*
G37*
G36*
X23283Y51632D02*X23281Y51636D01*
X23214Y51714D01*
X23136Y51781D01*
X23117Y51792D01*
Y52684D01*
X23129Y52690D01*
X23145Y52703D01*
X23158Y52717D01*
X23169Y52734D01*
X23214Y52821D01*
X23250Y52913D01*
X23277Y53007D01*
X23295Y53103D01*
X23304Y53201D01*
Y53299D01*
X23295Y53397D01*
X23277Y53493D01*
X23250Y53587D01*
X23214Y53679D01*
X23170Y53766D01*
X23159Y53783D01*
X23145Y53798D01*
X23130Y53810D01*
X23117Y53817D01*
Y55500D01*
X23700D01*
Y50851D01*
X23691Y50874D01*
X23659Y50925D01*
X23620Y50970D01*
X23575Y51009D01*
X23524Y51041D01*
X23480Y51058D01*
X23397Y51142D01*
X23398Y51147D01*
X23404Y51250D01*
X23398Y51353D01*
X23374Y51453D01*
X23335Y51548D01*
X23283Y51632D01*
G37*
G36*
X23117Y51792D02*X23048Y51835D01*
X22953Y51874D01*
X22853Y51898D01*
X22750Y51906D01*
X22647Y51898D01*
X22547Y51874D01*
X22452Y51835D01*
X22364Y51781D01*
X22286Y51714D01*
X22250Y51672D01*
Y52196D01*
X22299D01*
X22397Y52205D01*
X22493Y52223D01*
X22587Y52250D01*
X22679Y52286D01*
X22766Y52330D01*
X22783Y52341D01*
X22798Y52355D01*
X22810Y52370D01*
X22820Y52388D01*
X22827Y52407D01*
X22831Y52427D01*
X22832Y52447D01*
X22829Y52467D01*
X22824Y52486D01*
X22816Y52504D01*
X22804Y52521D01*
X22791Y52536D01*
X22775Y52548D01*
X22757Y52558D01*
X22738Y52565D01*
X22719Y52569D01*
X22699Y52570D01*
X22679Y52567D01*
X22659Y52562D01*
X22641Y52553D01*
X22575Y52519D01*
X22506Y52492D01*
X22434Y52472D01*
X22361Y52458D01*
X22287Y52451D01*
X22250D01*
Y54049D01*
X22287D01*
X22361Y54042D01*
X22434Y54028D01*
X22506Y54008D01*
X22575Y53981D01*
X22642Y53948D01*
X22659Y53939D01*
X22679Y53933D01*
X22699Y53931D01*
X22719Y53932D01*
X22738Y53936D01*
X22757Y53943D01*
X22774Y53952D01*
X22790Y53965D01*
X22804Y53979D01*
X22815Y53996D01*
X22823Y54014D01*
X22829Y54033D01*
X22831Y54053D01*
X22830Y54073D01*
X22826Y54093D01*
X22819Y54112D01*
X22810Y54129D01*
X22797Y54145D01*
X22783Y54158D01*
X22766Y54169D01*
X22679Y54214D01*
X22587Y54250D01*
X22493Y54277D01*
X22397Y54295D01*
X22299Y54304D01*
X22250D01*
Y55500D01*
X23117D01*
Y53817D01*
X23112Y53820D01*
X23093Y53827D01*
X23073Y53831D01*
X23053Y53832D01*
X23033Y53829D01*
X23014Y53824D01*
X22996Y53816D01*
X22979Y53804D01*
X22964Y53791D01*
X22952Y53775D01*
X22942Y53757D01*
X22935Y53738D01*
X22931Y53719D01*
X22930Y53699D01*
X22933Y53679D01*
X22938Y53659D01*
X22947Y53641D01*
X22981Y53575D01*
X23008Y53506D01*
X23028Y53434D01*
X23042Y53361D01*
X23049Y53287D01*
Y53213D01*
X23042Y53139D01*
X23028Y53066D01*
X23008Y52994D01*
X22981Y52925D01*
X22948Y52858D01*
X22939Y52841D01*
X22933Y52821D01*
X22931Y52801D01*
X22932Y52781D01*
X22936Y52762D01*
X22943Y52743D01*
X22952Y52726D01*
X22965Y52710D01*
X22979Y52696D01*
X22996Y52685D01*
X23014Y52677D01*
X23033Y52671D01*
X23053Y52669D01*
X23073Y52670D01*
X23093Y52674D01*
X23112Y52681D01*
X23117Y52684D01*
Y51792D01*
G37*
G36*
X21872Y34704D02*X21925Y34731D01*
X21994Y34758D01*
X22066Y34778D01*
X22139Y34792D01*
X22213Y34799D01*
X22250D01*
Y33201D01*
X22213D01*
X22139Y33208D01*
X22066Y33222D01*
X21994Y33242D01*
X21925Y33269D01*
X21872Y33296D01*
Y34704D01*
G37*
G36*
Y39666D02*X21913Y39650D01*
X22007Y39623D01*
X22103Y39605D01*
X22201Y39596D01*
X22250D01*
Y35054D01*
X22201D01*
X22103Y35045D01*
X22007Y35027D01*
X21913Y35000D01*
X21872Y34984D01*
Y39666D01*
G37*
G36*
Y41354D02*X21925Y41381D01*
X21994Y41408D01*
X22066Y41428D01*
X22139Y41442D01*
X22213Y41449D01*
X22250D01*
Y39851D01*
X22213D01*
X22139Y39858D01*
X22066Y39872D01*
X21994Y39892D01*
X21925Y39919D01*
X21872Y39946D01*
Y41354D01*
G37*
G36*
Y43983D02*X21946Y43896D01*
X22040Y43816D01*
X22144Y43752D01*
X22250Y43708D01*
Y43540D01*
X22198Y43521D01*
X22180Y43512D01*
X22164Y43500D01*
X22149Y43486D01*
X22138Y43469D01*
X22129Y43452D01*
X22123Y43432D01*
X22120Y43413D01*
X22120Y43393D01*
X22123Y43373D01*
X22129Y43354D01*
X22138Y43336D01*
X22150Y43320D01*
X22164Y43306D01*
X22181Y43294D01*
X22199Y43285D01*
X22218Y43279D01*
X22238Y43276D01*
X22250Y43276D01*
Y42324D01*
X22238Y42324D01*
X22218Y42321D01*
X22199Y42315D01*
X22181Y42306D01*
X22165Y42294D01*
X22151Y42280D01*
X22139Y42264D01*
X22130Y42246D01*
X22123Y42227D01*
X22120Y42207D01*
X22120Y42187D01*
X22123Y42168D01*
X22129Y42149D01*
X22138Y42131D01*
X22150Y42115D01*
X22164Y42100D01*
X22180Y42089D01*
X22198Y42080D01*
X22250Y42060D01*
Y41704D01*
X22201D01*
X22103Y41695D01*
X22007Y41677D01*
X21913Y41650D01*
X21872Y41634D01*
Y42422D01*
X21887Y42420D01*
X21907Y42420D01*
X21927Y42423D01*
X21946Y42429D01*
X21964Y42438D01*
X21980Y42450D01*
X21994Y42464D01*
X22006Y42481D01*
X22015Y42499D01*
X22021Y42518D01*
X22024Y42538D01*
X22024Y42558D01*
X22021Y42578D01*
X22014Y42596D01*
X21998Y42640D01*
X21986Y42685D01*
X21978Y42730D01*
X21974Y42777D01*
Y42823D01*
X21978Y42870D01*
X21986Y42915D01*
X21998Y42960D01*
X22014Y43004D01*
X22021Y43023D01*
X22024Y43042D01*
X22024Y43062D01*
X22021Y43082D01*
X22015Y43101D01*
X22006Y43119D01*
X21994Y43135D01*
X21980Y43149D01*
X21964Y43161D01*
X21946Y43170D01*
X21927Y43177D01*
X21907Y43180D01*
X21887Y43180D01*
X21872Y43178D01*
Y43983D01*
G37*
G36*
Y45616D02*X21913Y45600D01*
X22007Y45573D01*
X22103Y45555D01*
X22201Y45546D01*
X22250D01*
Y45192D01*
X22144Y45148D01*
X22040Y45084D01*
X21946Y45004D01*
X21872Y44917D01*
Y45616D01*
G37*
G36*
Y47304D02*X21925Y47331D01*
X21994Y47358D01*
X22066Y47378D01*
X22139Y47392D01*
X22213Y47399D01*
X22250D01*
Y45801D01*
X22213D01*
X22139Y45808D01*
X22066Y45822D01*
X21994Y45842D01*
X21925Y45869D01*
X21872Y45896D01*
Y47304D01*
G37*
G36*
Y48383D02*X21958Y48469D01*
X22250D01*
Y47654D01*
X22201D01*
X22103Y47645D01*
X22007Y47627D01*
X21913Y47600D01*
X21872Y47584D01*
Y48383D01*
G37*
G36*
X22250Y32342D02*X22144Y32298D01*
X22118Y32282D01*
X22040Y32234D01*
X21967Y32172D01*
X21872Y32267D01*
Y33016D01*
X21913Y33000D01*
X22007Y32973D01*
X22103Y32955D01*
X22201Y32946D01*
X22250D01*
Y32342D01*
G37*
G36*
X21872Y32267D02*X21381Y32758D01*
Y33434D01*
X21388Y33430D01*
X21407Y33423D01*
X21427Y33419D01*
X21447Y33418D01*
X21467Y33421D01*
X21486Y33426D01*
X21504Y33434D01*
X21521Y33446D01*
X21536Y33459D01*
X21548Y33475D01*
X21558Y33493D01*
X21565Y33512D01*
X21569Y33531D01*
X21570Y33551D01*
X21567Y33571D01*
X21562Y33591D01*
X21553Y33609D01*
X21519Y33675D01*
X21492Y33744D01*
X21472Y33816D01*
X21458Y33889D01*
X21451Y33963D01*
Y34037D01*
X21458Y34111D01*
X21472Y34184D01*
X21492Y34256D01*
X21519Y34325D01*
X21552Y34392D01*
X21561Y34409D01*
X21567Y34429D01*
X21569Y34449D01*
X21568Y34469D01*
X21564Y34488D01*
X21557Y34507D01*
X21548Y34524D01*
X21535Y34540D01*
X21521Y34554D01*
X21504Y34565D01*
X21486Y34573D01*
X21467Y34579D01*
X21447Y34581D01*
X21427Y34580D01*
X21407Y34576D01*
X21388Y34569D01*
X21381Y34565D01*
Y40084D01*
X21388Y40080D01*
X21407Y40073D01*
X21427Y40069D01*
X21447Y40068D01*
X21467Y40071D01*
X21486Y40076D01*
X21504Y40084D01*
X21521Y40096D01*
X21536Y40109D01*
X21548Y40125D01*
X21558Y40143D01*
X21565Y40162D01*
X21569Y40181D01*
X21570Y40201D01*
X21567Y40221D01*
X21562Y40241D01*
X21553Y40259D01*
X21519Y40325D01*
X21492Y40394D01*
X21472Y40466D01*
X21458Y40539D01*
X21451Y40613D01*
Y40687D01*
X21458Y40761D01*
X21472Y40834D01*
X21492Y40906D01*
X21519Y40975D01*
X21552Y41042D01*
X21561Y41059D01*
X21567Y41079D01*
X21569Y41099D01*
X21568Y41119D01*
X21564Y41138D01*
X21557Y41157D01*
X21548Y41174D01*
X21535Y41190D01*
X21521Y41204D01*
X21504Y41215D01*
X21486Y41223D01*
X21467Y41229D01*
X21447Y41231D01*
X21427Y41230D01*
X21407Y41226D01*
X21388Y41219D01*
X21381Y41215D01*
Y46034D01*
X21388Y46030D01*
X21407Y46023D01*
X21427Y46019D01*
X21447Y46018D01*
X21467Y46021D01*
X21486Y46026D01*
X21504Y46034D01*
X21521Y46046D01*
X21536Y46059D01*
X21548Y46075D01*
X21558Y46093D01*
X21565Y46112D01*
X21569Y46131D01*
X21570Y46151D01*
X21567Y46171D01*
X21562Y46191D01*
X21553Y46209D01*
X21519Y46275D01*
X21492Y46344D01*
X21472Y46416D01*
X21458Y46489D01*
X21451Y46563D01*
Y46637D01*
X21458Y46711D01*
X21472Y46784D01*
X21492Y46856D01*
X21519Y46925D01*
X21552Y46992D01*
X21561Y47009D01*
X21567Y47029D01*
X21569Y47049D01*
X21568Y47069D01*
X21564Y47088D01*
X21557Y47107D01*
X21548Y47124D01*
X21535Y47140D01*
X21521Y47154D01*
X21504Y47165D01*
X21486Y47173D01*
X21467Y47179D01*
X21447Y47181D01*
X21427Y47180D01*
X21407Y47176D01*
X21388Y47169D01*
X21381Y47165D01*
Y47892D01*
X21872Y48383D01*
Y47584D01*
X21821Y47564D01*
X21734Y47520D01*
X21717Y47509D01*
X21702Y47495D01*
X21690Y47480D01*
X21680Y47462D01*
X21673Y47443D01*
X21669Y47423D01*
X21668Y47403D01*
X21671Y47383D01*
X21676Y47364D01*
X21684Y47346D01*
X21696Y47329D01*
X21709Y47314D01*
X21725Y47302D01*
X21743Y47292D01*
X21762Y47285D01*
X21781Y47281D01*
X21801Y47280D01*
X21821Y47283D01*
X21841Y47288D01*
X21859Y47297D01*
X21872Y47304D01*
Y45896D01*
X21858Y45902D01*
X21841Y45911D01*
X21821Y45917D01*
X21801Y45919D01*
X21781Y45918D01*
X21762Y45914D01*
X21743Y45907D01*
X21726Y45898D01*
X21710Y45885D01*
X21696Y45871D01*
X21685Y45854D01*
X21677Y45836D01*
X21671Y45817D01*
X21669Y45797D01*
X21670Y45777D01*
X21674Y45757D01*
X21681Y45738D01*
X21690Y45721D01*
X21703Y45705D01*
X21717Y45692D01*
X21734Y45681D01*
X21821Y45636D01*
X21872Y45616D01*
Y44917D01*
X21866Y44910D01*
X21802Y44806D01*
X21755Y44692D01*
X21726Y44573D01*
X21717Y44450D01*
X21726Y44327D01*
X21755Y44208D01*
X21802Y44094D01*
X21866Y43990D01*
X21872Y43983D01*
Y43178D01*
X21868Y43177D01*
X21849Y43171D01*
X21831Y43162D01*
X21815Y43150D01*
X21800Y43136D01*
X21789Y43120D01*
X21780Y43102D01*
X21755Y43038D01*
X21737Y42971D01*
X21725Y42903D01*
X21719Y42834D01*
Y42766D01*
X21725Y42697D01*
X21737Y42629D01*
X21755Y42562D01*
X21779Y42498D01*
X21788Y42480D01*
X21800Y42464D01*
X21814Y42450D01*
X21831Y42438D01*
X21848Y42429D01*
X21868Y42423D01*
X21872Y42422D01*
Y41634D01*
X21821Y41614D01*
X21734Y41570D01*
X21717Y41559D01*
X21702Y41545D01*
X21690Y41530D01*
X21680Y41512D01*
X21673Y41493D01*
X21669Y41473D01*
X21668Y41453D01*
X21671Y41433D01*
X21676Y41414D01*
X21684Y41396D01*
X21696Y41379D01*
X21709Y41364D01*
X21725Y41352D01*
X21743Y41342D01*
X21762Y41335D01*
X21781Y41331D01*
X21801Y41330D01*
X21821Y41333D01*
X21841Y41338D01*
X21859Y41347D01*
X21872Y41354D01*
Y39946D01*
X21858Y39952D01*
X21841Y39961D01*
X21821Y39967D01*
X21801Y39969D01*
X21781Y39968D01*
X21762Y39964D01*
X21743Y39957D01*
X21726Y39948D01*
X21710Y39935D01*
X21696Y39921D01*
X21685Y39904D01*
X21677Y39886D01*
X21671Y39867D01*
X21669Y39847D01*
X21670Y39827D01*
X21674Y39807D01*
X21681Y39788D01*
X21690Y39771D01*
X21703Y39755D01*
X21717Y39742D01*
X21734Y39731D01*
X21821Y39686D01*
X21872Y39666D01*
Y34984D01*
X21821Y34964D01*
X21734Y34920D01*
X21717Y34909D01*
X21702Y34895D01*
X21690Y34880D01*
X21680Y34862D01*
X21673Y34843D01*
X21669Y34823D01*
X21668Y34803D01*
X21671Y34783D01*
X21676Y34764D01*
X21684Y34746D01*
X21696Y34729D01*
X21709Y34714D01*
X21725Y34702D01*
X21743Y34692D01*
X21762Y34685D01*
X21781Y34681D01*
X21801Y34680D01*
X21821Y34683D01*
X21841Y34688D01*
X21859Y34697D01*
X21872Y34704D01*
Y33296D01*
X21858Y33302D01*
X21841Y33311D01*
X21821Y33317D01*
X21801Y33319D01*
X21781Y33318D01*
X21762Y33314D01*
X21743Y33307D01*
X21726Y33298D01*
X21710Y33285D01*
X21696Y33271D01*
X21685Y33254D01*
X21677Y33236D01*
X21671Y33217D01*
X21669Y33197D01*
X21670Y33177D01*
X21674Y33157D01*
X21681Y33138D01*
X21690Y33121D01*
X21703Y33105D01*
X21717Y33092D01*
X21734Y33081D01*
X21821Y33036D01*
X21872Y33016D01*
Y32267D01*
G37*
G36*
X21383Y23024D02*X21400Y23016D01*
X21622Y22963D01*
X21850Y22945D01*
X22078Y22963D01*
X22250Y23005D01*
Y22550D01*
X21383D01*
Y23024D01*
G37*
G36*
X21872Y28033D02*X21946Y27946D01*
X22040Y27866D01*
X22144Y27802D01*
X22250Y27758D01*
Y27640D01*
X22198Y27621D01*
X22180Y27612D01*
X22164Y27600D01*
X22149Y27586D01*
X22138Y27569D01*
X22129Y27552D01*
X22123Y27532D01*
X22120Y27513D01*
X22120Y27493D01*
X22123Y27473D01*
X22129Y27454D01*
X22138Y27436D01*
X22150Y27420D01*
X22164Y27406D01*
X22181Y27394D01*
X22199Y27385D01*
X22218Y27379D01*
X22238Y27376D01*
X22250Y27376D01*
Y26424D01*
X22238Y26424D01*
X22218Y26421D01*
X22199Y26415D01*
X22181Y26406D01*
X22165Y26394D01*
X22151Y26380D01*
X22139Y26364D01*
X22130Y26346D01*
X22123Y26327D01*
X22120Y26307D01*
X22120Y26287D01*
X22123Y26268D01*
X22129Y26249D01*
X22138Y26231D01*
X22150Y26215D01*
X22164Y26200D01*
X22180Y26189D01*
X22198Y26180D01*
X22250Y26160D01*
Y25795D01*
X22078Y25837D01*
X21872Y25853D01*
Y26522D01*
X21887Y26520D01*
X21907Y26520D01*
X21927Y26523D01*
X21946Y26529D01*
X21964Y26538D01*
X21980Y26550D01*
X21994Y26564D01*
X22006Y26581D01*
X22015Y26599D01*
X22021Y26618D01*
X22024Y26638D01*
X22024Y26658D01*
X22021Y26678D01*
X22014Y26696D01*
X21998Y26740D01*
X21986Y26785D01*
X21978Y26830D01*
X21974Y26877D01*
Y26923D01*
X21978Y26970D01*
X21986Y27015D01*
X21998Y27060D01*
X22014Y27104D01*
X22021Y27123D01*
X22024Y27142D01*
X22024Y27162D01*
X22021Y27182D01*
X22015Y27201D01*
X22006Y27219D01*
X21994Y27235D01*
X21980Y27249D01*
X21964Y27261D01*
X21946Y27270D01*
X21927Y27277D01*
X21907Y27280D01*
X21887Y27280D01*
X21872Y27278D01*
Y28033D01*
G37*
G36*
X21383Y28094D02*X21833D01*
X21866Y28040D01*
X21872Y28033D01*
Y27278D01*
X21868Y27277D01*
X21849Y27271D01*
X21831Y27262D01*
X21815Y27250D01*
X21800Y27236D01*
X21789Y27220D01*
X21780Y27202D01*
X21755Y27138D01*
X21737Y27071D01*
X21725Y27003D01*
X21719Y26934D01*
Y26866D01*
X21725Y26797D01*
X21737Y26729D01*
X21755Y26662D01*
X21779Y26598D01*
X21788Y26580D01*
X21800Y26564D01*
X21814Y26550D01*
X21831Y26538D01*
X21848Y26529D01*
X21868Y26523D01*
X21872Y26522D01*
Y25853D01*
X21850Y25855D01*
X21622Y25837D01*
X21400Y25784D01*
X21383Y25776D01*
Y28094D01*
G37*
G36*
X22250Y51672D02*X22219Y51636D01*
X22165Y51548D01*
X22126Y51453D01*
X22102Y51353D01*
X22094Y51250D01*
X22102Y51147D01*
X22126Y51047D01*
X22165Y50952D01*
X22219Y50864D01*
X22250Y50828D01*
Y50703D01*
X22214Y50681D01*
X22136Y50614D01*
X22069Y50536D01*
X22066Y50531D01*
X21383D01*
Y52683D01*
X21388Y52680D01*
X21407Y52673D01*
X21427Y52669D01*
X21447Y52668D01*
X21467Y52671D01*
X21486Y52676D01*
X21504Y52684D01*
X21521Y52696D01*
X21536Y52709D01*
X21548Y52725D01*
X21558Y52743D01*
X21565Y52762D01*
X21569Y52781D01*
X21570Y52801D01*
X21567Y52821D01*
X21562Y52841D01*
X21553Y52859D01*
X21519Y52925D01*
X21492Y52994D01*
X21472Y53066D01*
X21458Y53139D01*
X21451Y53213D01*
Y53287D01*
X21458Y53361D01*
X21472Y53434D01*
X21492Y53506D01*
X21519Y53575D01*
X21552Y53642D01*
X21561Y53659D01*
X21567Y53679D01*
X21569Y53699D01*
X21568Y53719D01*
X21564Y53738D01*
X21557Y53757D01*
X21548Y53774D01*
X21535Y53790D01*
X21521Y53804D01*
X21504Y53815D01*
X21486Y53823D01*
X21467Y53829D01*
X21447Y53831D01*
X21427Y53830D01*
X21407Y53826D01*
X21388Y53819D01*
X21383Y53816D01*
Y55500D01*
X22250D01*
Y54304D01*
X22201D01*
X22103Y54295D01*
X22007Y54277D01*
X21913Y54250D01*
X21821Y54214D01*
X21734Y54170D01*
X21717Y54159D01*
X21702Y54145D01*
X21690Y54130D01*
X21680Y54112D01*
X21673Y54093D01*
X21669Y54073D01*
X21668Y54053D01*
X21671Y54033D01*
X21676Y54014D01*
X21684Y53996D01*
X21696Y53979D01*
X21709Y53964D01*
X21725Y53952D01*
X21743Y53942D01*
X21762Y53935D01*
X21781Y53931D01*
X21801Y53930D01*
X21821Y53933D01*
X21841Y53938D01*
X21859Y53947D01*
X21925Y53981D01*
X21994Y54008D01*
X22066Y54028D01*
X22139Y54042D01*
X22213Y54049D01*
X22250D01*
Y52451D01*
X22213D01*
X22139Y52458D01*
X22066Y52472D01*
X21994Y52492D01*
X21925Y52519D01*
X21858Y52552D01*
X21841Y52561D01*
X21821Y52567D01*
X21801Y52569D01*
X21781Y52568D01*
X21762Y52564D01*
X21743Y52557D01*
X21726Y52548D01*
X21710Y52535D01*
X21696Y52521D01*
X21685Y52504D01*
X21677Y52486D01*
X21671Y52467D01*
X21669Y52447D01*
X21670Y52427D01*
X21674Y52407D01*
X21681Y52388D01*
X21690Y52371D01*
X21703Y52355D01*
X21717Y52342D01*
X21734Y52331D01*
X21821Y52286D01*
X21913Y52250D01*
X22007Y52223D01*
X22103Y52205D01*
X22201Y52196D01*
X22250D01*
Y51672D01*
G37*
G36*
X17650Y28094D02*X21383D01*
Y25776D01*
X21190Y25696D01*
X20995Y25577D01*
X20821Y25429D01*
X20673Y25255D01*
X20554Y25060D01*
X20466Y24850D01*
X20413Y24628D01*
X20395Y24400D01*
X20413Y24172D01*
X20466Y23950D01*
X20554Y23740D01*
X20673Y23545D01*
X20821Y23371D01*
X20995Y23223D01*
X21190Y23104D01*
X21383Y23024D01*
Y22550D01*
X17650D01*
Y24797D01*
X19440Y24798D01*
X19479Y24808D01*
X19516Y24823D01*
X19550Y24844D01*
X19580Y24870D01*
X19606Y24900D01*
X19627Y24934D01*
X19642Y24971D01*
X19652Y25010D01*
X19654Y25050D01*
X19652Y27090D01*
X19642Y27129D01*
X19627Y27166D01*
X19606Y27200D01*
X19580Y27230D01*
X19550Y27256D01*
X19516Y27277D01*
X19479Y27292D01*
X19440Y27302D01*
X19400Y27304D01*
X17650Y27303D01*
Y28094D01*
G37*
G36*
Y29574D02*X17714Y29519D01*
X17802Y29465D01*
X17897Y29426D01*
X17997Y29402D01*
X18100Y29394D01*
X18203Y29402D01*
X18303Y29426D01*
X18398Y29465D01*
X18486Y29519D01*
X18564Y29586D01*
X18631Y29664D01*
X18634Y29669D01*
X19185D01*
X19200Y29668D01*
X19260Y29673D01*
X19260Y29673D01*
X19318Y29687D01*
X19374Y29709D01*
X19425Y29741D01*
X19470Y29780D01*
X19480Y29791D01*
X20069Y30380D01*
Y28906D01*
X17650D01*
Y29574D01*
G37*
G36*
Y30897D02*X19440Y30898D01*
X19468Y30905D01*
Y30905D01*
X19469Y30905D01*
Y30858D01*
X19042Y30431D01*
X18634D01*
X18631Y30436D01*
X18564Y30514D01*
X18486Y30581D01*
X18398Y30635D01*
X18303Y30674D01*
X18203Y30698D01*
X18100Y30706D01*
X17997Y30698D01*
X17897Y30674D01*
X17802Y30635D01*
X17714Y30581D01*
X17650Y30526D01*
Y30897D01*
G37*
G36*
X21383Y50531D02*X20765D01*
X20750Y50532D01*
X20690Y50527D01*
X20632Y50513D01*
X20576Y50491D01*
X20525Y50459D01*
X20525Y50459D01*
X20480Y50420D01*
X20470Y50409D01*
X20231Y50170D01*
Y52156D01*
X20281Y52214D01*
X20335Y52302D01*
X20374Y52397D01*
X20398Y52497D01*
X20404Y52600D01*
X20398Y52703D01*
X20374Y52803D01*
X20335Y52898D01*
X20281Y52986D01*
X20214Y53064D01*
X20136Y53131D01*
X20048Y53185D01*
X19953Y53224D01*
X19853Y53248D01*
X19750Y53256D01*
X19647Y53248D01*
X19547Y53224D01*
X19452Y53185D01*
X19364Y53131D01*
X19286Y53064D01*
X19219Y52986D01*
X19165Y52898D01*
X19126Y52803D01*
X19102Y52703D01*
X19094Y52600D01*
X19102Y52497D01*
X19126Y52397D01*
X19165Y52302D01*
X19219Y52214D01*
X19286Y52136D01*
X19364Y52069D01*
X19452Y52015D01*
X19469Y52009D01*
Y33395D01*
X19468Y33395D01*
Y33395D01*
X19440Y33402D01*
X19400Y33404D01*
X17650Y33403D01*
Y33450D01*
X18300D01*
Y55500D01*
X21383D01*
Y53816D01*
X21371Y53810D01*
X21355Y53797D01*
X21342Y53783D01*
X21331Y53766D01*
X21286Y53679D01*
X21250Y53587D01*
X21223Y53493D01*
X21205Y53397D01*
X21196Y53299D01*
Y53201D01*
X21205Y53103D01*
X21223Y53007D01*
X21250Y52913D01*
X21286Y52821D01*
X21330Y52734D01*
X21341Y52717D01*
X21355Y52702D01*
X21370Y52690D01*
X21383Y52683D01*
Y50531D01*
G37*
G36*
X13575Y28119D02*X16209D01*
X16224Y28113D01*
X16286Y28098D01*
X16350Y28094D01*
X17650D01*
Y27303D01*
X15860Y27302D01*
X15821Y27292D01*
X15784Y27277D01*
X15750Y27256D01*
X15720Y27230D01*
X15694Y27200D01*
X15673Y27166D01*
X15658Y27129D01*
X15648Y27090D01*
X15646Y27050D01*
X15648Y25010D01*
X15658Y24971D01*
X15673Y24934D01*
X15694Y24900D01*
X15720Y24870D01*
X15750Y24844D01*
X15784Y24823D01*
X15821Y24808D01*
X15860Y24798D01*
X15900Y24796D01*
X17650Y24797D01*
Y22550D01*
X13575D01*
Y22647D01*
X14240Y22648D01*
X14279Y22658D01*
X14316Y22673D01*
X14350Y22694D01*
X14380Y22720D01*
X14406Y22750D01*
X14427Y22784D01*
X14442Y22821D01*
X14452Y22860D01*
X14454Y22900D01*
X14452Y24940D01*
X14442Y24979D01*
X14427Y25016D01*
X14406Y25050D01*
X14380Y25080D01*
X14350Y25106D01*
X14316Y25127D01*
X14279Y25142D01*
X14240Y25152D01*
X14200Y25154D01*
X13575Y25153D01*
Y26740D01*
X13588Y26771D01*
X13617Y26863D01*
X13638Y26957D01*
X13651Y27053D01*
X13655Y27150D01*
X13651Y27247D01*
X13638Y27343D01*
X13617Y27437D01*
X13588Y27529D01*
X13575Y27560D01*
Y28119D01*
G37*
G36*
Y29669D02*X17566D01*
X17569Y29664D01*
X17636Y29586D01*
X17650Y29574D01*
Y28906D01*
X16350D01*
X16286Y28902D01*
X16224Y28887D01*
X16209Y28881D01*
X13575D01*
Y29669D01*
G37*
G36*
X17650Y33403D02*X15860Y33402D01*
X15821Y33392D01*
X15784Y33377D01*
X15750Y33356D01*
X15720Y33330D01*
X15694Y33300D01*
X15673Y33266D01*
X15658Y33229D01*
X15648Y33190D01*
X15646Y33150D01*
X15648Y31110D01*
X15658Y31071D01*
X15673Y31034D01*
X15694Y31000D01*
X15720Y30970D01*
X15750Y30944D01*
X15784Y30923D01*
X15821Y30908D01*
X15860Y30898D01*
X15900Y30896D01*
X17650Y30897D01*
Y30526D01*
X17636Y30514D01*
X17569Y30436D01*
X17566Y30431D01*
X13575D01*
Y33450D01*
X17650D01*
Y33403D01*
G37*
G36*
X12550Y28000D02*X12624Y27997D01*
X12698Y27987D01*
X12771Y27971D01*
X12842Y27948D01*
X12910Y27920D01*
X12976Y27885D01*
X12994Y27876D01*
X13013Y27871D01*
X13033Y27868D01*
X13053Y27868D01*
X13073Y27872D01*
X13092Y27879D01*
X13109Y27888D01*
X13125Y27900D01*
X13139Y27915D01*
X13150Y27931D01*
X13159Y27949D01*
X13165Y27969D01*
X13167Y27988D01*
X13167Y28008D01*
X13163Y28028D01*
X13157Y28047D01*
X13147Y28064D01*
X13135Y28080D01*
X13120Y28094D01*
X13104Y28105D01*
X13078Y28119D01*
X13575D01*
Y27560D01*
X13551Y27619D01*
X13506Y27704D01*
X13495Y27721D01*
X13481Y27735D01*
X13465Y27748D01*
X13447Y27757D01*
X13428Y27764D01*
X13408Y27768D01*
X13388Y27768D01*
X13368Y27765D01*
X13349Y27760D01*
X13331Y27751D01*
X13314Y27740D01*
X13300Y27726D01*
X13288Y27710D01*
X13278Y27692D01*
X13271Y27673D01*
X13268Y27653D01*
X13267Y27633D01*
X13270Y27613D01*
X13276Y27594D01*
X13285Y27576D01*
X13320Y27510D01*
X13348Y27442D01*
X13371Y27371D01*
X13387Y27298D01*
X13397Y27224D01*
X13400Y27150D01*
X13397Y27076D01*
X13387Y27002D01*
X13371Y26929D01*
X13348Y26858D01*
X13320Y26790D01*
X13285Y26724D01*
X13276Y26706D01*
X13271Y26687D01*
X13268Y26667D01*
X13268Y26647D01*
X13272Y26627D01*
X13279Y26608D01*
X13288Y26591D01*
X13300Y26575D01*
X13315Y26561D01*
X13331Y26550D01*
X13349Y26541D01*
X13369Y26535D01*
X13388Y26533D01*
X13408Y26533D01*
X13428Y26537D01*
X13447Y26543D01*
X13464Y26553D01*
X13480Y26565D01*
X13494Y26580D01*
X13505Y26596D01*
X13551Y26681D01*
X13575Y26740D01*
Y25153D01*
X12910Y25152D01*
X12871Y25142D01*
X12834Y25127D01*
X12800Y25106D01*
X12770Y25080D01*
X12744Y25050D01*
X12723Y25016D01*
X12708Y24979D01*
X12698Y24940D01*
X12696Y24900D01*
X12698Y22860D01*
X12708Y22821D01*
X12723Y22784D01*
X12744Y22750D01*
X12770Y22720D01*
X12800Y22694D01*
X12834Y22673D01*
X12871Y22658D01*
X12910Y22648D01*
X12950Y22646D01*
X13575Y22647D01*
Y22550D01*
X12550D01*
Y26045D01*
X12647Y26049D01*
X12743Y26062D01*
X12837Y26083D01*
X12929Y26112D01*
X13019Y26149D01*
X13104Y26194D01*
X13121Y26205D01*
X13135Y26219D01*
X13148Y26235D01*
X13157Y26253D01*
X13164Y26272D01*
X13168Y26292D01*
X13168Y26312D01*
X13165Y26332D01*
X13160Y26351D01*
X13151Y26369D01*
X13140Y26386D01*
X13126Y26400D01*
X13110Y26412D01*
X13092Y26422D01*
X13073Y26429D01*
X13053Y26432D01*
X13033Y26433D01*
X13013Y26430D01*
X12994Y26424D01*
X12976Y26415D01*
X12910Y26380D01*
X12842Y26352D01*
X12771Y26329D01*
X12698Y26313D01*
X12624Y26303D01*
X12550Y26300D01*
Y28000D01*
G37*
G36*
Y29669D02*X13575D01*
Y28881D01*
X12550D01*
Y29669D01*
G37*
G36*
X13575Y30431D02*X12550D01*
Y33450D01*
X13575D01*
Y30431D01*
G37*
G36*
X12550D02*X9915D01*
X9900Y30432D01*
X9840Y30427D01*
X9782Y30413D01*
X9726Y30391D01*
X9675Y30359D01*
X9675Y30359D01*
X9630Y30320D01*
X9620Y30309D01*
X8816Y29505D01*
X8805Y29495D01*
X8766Y29450D01*
X8734Y29399D01*
X8712Y29343D01*
X8698Y29285D01*
X8698Y29285D01*
X8693Y29225D01*
X8694Y29210D01*
Y27510D01*
X8688Y27529D01*
X8651Y27619D01*
X8606Y27704D01*
X8595Y27721D01*
X8581Y27735D01*
X8565Y27748D01*
X8547Y27757D01*
X8528Y27764D01*
X8508Y27768D01*
X8488Y27768D01*
X8468Y27765D01*
X8449Y27760D01*
X8431Y27751D01*
X8414Y27740D01*
X8400Y27726D01*
X8388Y27710D01*
X8378Y27692D01*
X8371Y27673D01*
X8368Y27653D01*
X8367Y27633D01*
X8370Y27613D01*
X8376Y27594D01*
X8385Y27576D01*
X8420Y27510D01*
X8448Y27442D01*
X8471Y27371D01*
X8487Y27298D01*
X8497Y27224D01*
X8500Y27150D01*
X8497Y27076D01*
X8487Y27002D01*
X8471Y26929D01*
X8448Y26858D01*
X8420Y26790D01*
X8385Y26724D01*
X8376Y26706D01*
X8371Y26687D01*
X8368Y26667D01*
X8368Y26647D01*
X8372Y26627D01*
X8379Y26608D01*
X8388Y26591D01*
X8400Y26575D01*
X8415Y26561D01*
X8431Y26550D01*
X8449Y26541D01*
X8469Y26535D01*
X8488Y26533D01*
X8508Y26533D01*
X8528Y26537D01*
X8547Y26543D01*
X8564Y26553D01*
X8580Y26565D01*
X8594Y26580D01*
X8605Y26596D01*
X8651Y26681D01*
X8688Y26771D01*
X8694Y26790D01*
Y25152D01*
X8410Y25152D01*
X8371Y25142D01*
X8334Y25127D01*
X8300Y25106D01*
X8270Y25080D01*
X8244Y25050D01*
X8223Y25016D01*
X8208Y24979D01*
X8198Y24940D01*
X8196Y24900D01*
X8198Y22860D01*
X8208Y22821D01*
X8223Y22784D01*
X8244Y22750D01*
X8270Y22720D01*
X8300Y22694D01*
X8334Y22673D01*
X8371Y22658D01*
X8410Y22648D01*
X8450Y22646D01*
X9740Y22648D01*
X9779Y22658D01*
X9816Y22673D01*
X9850Y22694D01*
X9880Y22720D01*
X9906Y22750D01*
X9927Y22784D01*
X9942Y22821D01*
X9952Y22860D01*
X9954Y22900D01*
X9952Y24940D01*
X9942Y24979D01*
X9927Y25016D01*
X9906Y25050D01*
X9880Y25080D01*
X9850Y25106D01*
X9816Y25127D01*
X9779Y25142D01*
X9740Y25152D01*
X9700Y25154D01*
X9456Y25154D01*
Y29067D01*
X10058Y29669D01*
X12550D01*
Y28881D01*
X11915D01*
X11900Y28882D01*
X11840Y28877D01*
X11782Y28863D01*
X11726Y28841D01*
X11675Y28809D01*
X11675Y28809D01*
X11630Y28770D01*
X11620Y28759D01*
X10816Y27955D01*
X10805Y27945D01*
X10766Y27900D01*
X10734Y27849D01*
X10712Y27793D01*
X10698Y27735D01*
X10698Y27735D01*
X10693Y27675D01*
X10694Y27660D01*
Y25152D01*
X10410Y25152D01*
X10371Y25142D01*
X10334Y25127D01*
X10300Y25106D01*
X10270Y25080D01*
X10244Y25050D01*
X10223Y25016D01*
X10208Y24979D01*
X10198Y24940D01*
X10196Y24900D01*
X10198Y22860D01*
X10208Y22821D01*
X10223Y22784D01*
X10244Y22750D01*
X10270Y22720D01*
X10300Y22694D01*
X10334Y22673D01*
X10371Y22658D01*
X10410Y22648D01*
X10450Y22646D01*
X11740Y22648D01*
X11779Y22658D01*
X11816Y22673D01*
X11850Y22694D01*
X11880Y22720D01*
X11906Y22750D01*
X11927Y22784D01*
X11942Y22821D01*
X11952Y22860D01*
X11954Y22900D01*
X11952Y24940D01*
X11942Y24979D01*
X11927Y25016D01*
X11906Y25050D01*
X11880Y25080D01*
X11850Y25106D01*
X11816Y25127D01*
X11779Y25142D01*
X11740Y25152D01*
X11700Y25154D01*
X11456Y25154D01*
Y27002D01*
X11462Y26957D01*
X11483Y26863D01*
X11512Y26771D01*
X11549Y26681D01*
X11594Y26596D01*
X11605Y26579D01*
X11619Y26565D01*
X11635Y26552D01*
X11653Y26543D01*
X11672Y26536D01*
X11692Y26532D01*
X11712Y26532D01*
X11732Y26535D01*
X11751Y26540D01*
X11769Y26549D01*
X11786Y26560D01*
X11800Y26574D01*
X11812Y26590D01*
X11822Y26608D01*
X11829Y26627D01*
X11832Y26647D01*
X11833Y26667D01*
X11830Y26687D01*
X11824Y26706D01*
X11815Y26724D01*
X11780Y26790D01*
X11752Y26858D01*
X11729Y26929D01*
X11713Y27002D01*
X11703Y27076D01*
X11700Y27150D01*
X11703Y27224D01*
X11713Y27298D01*
X11729Y27371D01*
X11752Y27442D01*
X11780Y27510D01*
X11815Y27576D01*
X11824Y27594D01*
X11829Y27613D01*
X11832Y27633D01*
X11832Y27653D01*
X11828Y27673D01*
X11821Y27692D01*
X11812Y27709D01*
X11800Y27725D01*
X11785Y27739D01*
X11769Y27750D01*
X11751Y27759D01*
X11731Y27765D01*
X11712Y27767D01*
X11706Y27767D01*
X11932Y27993D01*
X11932Y27988D01*
X11935Y27968D01*
X11940Y27949D01*
X11949Y27931D01*
X11960Y27914D01*
X11974Y27900D01*
X11990Y27888D01*
X12008Y27878D01*
X12027Y27871D01*
X12047Y27868D01*
X12067Y27867D01*
X12087Y27870D01*
X12106Y27876D01*
X12124Y27885D01*
X12190Y27920D01*
X12258Y27948D01*
X12329Y27971D01*
X12402Y27987D01*
X12476Y27997D01*
X12550Y28000D01*
X12550Y28000D01*
Y26300D01*
X12550Y26300D01*
X12476Y26303D01*
X12402Y26313D01*
X12329Y26329D01*
X12258Y26352D01*
X12190Y26380D01*
X12124Y26415D01*
X12106Y26424D01*
X12087Y26429D01*
X12067Y26432D01*
X12047Y26432D01*
X12027Y26428D01*
X12008Y26421D01*
X11991Y26412D01*
X11975Y26400D01*
X11961Y26385D01*
X11950Y26369D01*
X11941Y26351D01*
X11935Y26331D01*
X11933Y26312D01*
X11933Y26292D01*
X11937Y26272D01*
X11943Y26253D01*
X11953Y26236D01*
X11965Y26220D01*
X11980Y26206D01*
X11996Y26195D01*
X12081Y26149D01*
X12171Y26112D01*
X12263Y26083D01*
X12357Y26062D01*
X12453Y26049D01*
X12550Y26045D01*
X12550Y26045D01*
Y22550D01*
X7650D01*
Y26045D01*
X7747Y26049D01*
X7843Y26062D01*
X7937Y26083D01*
X8029Y26112D01*
X8119Y26149D01*
X8204Y26194D01*
X8221Y26205D01*
X8235Y26219D01*
X8248Y26235D01*
X8257Y26253D01*
X8264Y26272D01*
X8268Y26292D01*
X8268Y26312D01*
X8265Y26332D01*
X8260Y26351D01*
X8251Y26369D01*
X8240Y26386D01*
X8226Y26400D01*
X8210Y26412D01*
X8192Y26422D01*
X8173Y26429D01*
X8153Y26432D01*
X8133Y26433D01*
X8113Y26430D01*
X8094Y26424D01*
X8076Y26415D01*
X8010Y26380D01*
X7942Y26352D01*
X7871Y26329D01*
X7798Y26313D01*
X7724Y26303D01*
X7650Y26300D01*
Y28000D01*
X7724Y27997D01*
X7798Y27987D01*
X7871Y27971D01*
X7942Y27948D01*
X8010Y27920D01*
X8076Y27885D01*
X8094Y27876D01*
X8113Y27871D01*
X8133Y27868D01*
X8153Y27868D01*
X8173Y27872D01*
X8192Y27879D01*
X8209Y27888D01*
X8225Y27900D01*
X8239Y27915D01*
X8250Y27931D01*
X8259Y27949D01*
X8265Y27969D01*
X8267Y27988D01*
X8267Y28008D01*
X8263Y28028D01*
X8257Y28047D01*
X8247Y28064D01*
X8235Y28080D01*
X8220Y28094D01*
X8204Y28105D01*
X8119Y28151D01*
X8029Y28188D01*
X7937Y28217D01*
X7843Y28238D01*
X7747Y28251D01*
X7650Y28255D01*
Y33450D01*
X12550D01*
Y30431D01*
G37*
G36*
X7650Y22550D02*X6575D01*
Y22647D01*
X7240Y22648D01*
X7279Y22658D01*
X7316Y22673D01*
X7350Y22694D01*
X7380Y22720D01*
X7406Y22750D01*
X7427Y22784D01*
X7442Y22821D01*
X7452Y22860D01*
X7454Y22900D01*
X7452Y24940D01*
X7442Y24979D01*
X7427Y25016D01*
X7406Y25050D01*
X7380Y25080D01*
X7350Y25106D01*
X7316Y25127D01*
X7279Y25142D01*
X7240Y25152D01*
X7200Y25154D01*
X6575Y25153D01*
Y26898D01*
X6583Y26863D01*
X6612Y26771D01*
X6649Y26681D01*
X6694Y26596D01*
X6705Y26579D01*
X6719Y26565D01*
X6735Y26552D01*
X6753Y26543D01*
X6772Y26536D01*
X6792Y26532D01*
X6812Y26532D01*
X6832Y26535D01*
X6851Y26540D01*
X6869Y26549D01*
X6886Y26560D01*
X6900Y26574D01*
X6912Y26590D01*
X6922Y26608D01*
X6929Y26627D01*
X6932Y26647D01*
X6933Y26667D01*
X6930Y26687D01*
X6924Y26706D01*
X6915Y26724D01*
X6880Y26790D01*
X6852Y26858D01*
X6829Y26929D01*
X6813Y27002D01*
X6803Y27076D01*
X6800Y27150D01*
X6803Y27224D01*
X6813Y27298D01*
X6829Y27371D01*
X6852Y27442D01*
X6880Y27510D01*
X6915Y27576D01*
X6924Y27594D01*
X6929Y27613D01*
X6932Y27633D01*
X6932Y27653D01*
X6928Y27673D01*
X6921Y27692D01*
X6912Y27709D01*
X6900Y27725D01*
X6885Y27739D01*
X6869Y27750D01*
X6851Y27759D01*
X6831Y27765D01*
X6812Y27767D01*
X6792Y27767D01*
X6772Y27763D01*
X6753Y27757D01*
X6736Y27747D01*
X6720Y27735D01*
X6706Y27720D01*
X6695Y27704D01*
X6649Y27619D01*
X6612Y27529D01*
X6583Y27437D01*
X6575Y27402D01*
Y33450D01*
X7650D01*
Y28255D01*
X7650Y28255D01*
X7553Y28251D01*
X7457Y28238D01*
X7363Y28217D01*
X7271Y28188D01*
X7181Y28151D01*
X7096Y28106D01*
X7079Y28095D01*
X7065Y28081D01*
X7052Y28065D01*
X7043Y28047D01*
X7036Y28028D01*
X7032Y28008D01*
X7032Y27988D01*
X7035Y27968D01*
X7040Y27949D01*
X7049Y27931D01*
X7060Y27914D01*
X7074Y27900D01*
X7090Y27888D01*
X7108Y27878D01*
X7127Y27871D01*
X7147Y27868D01*
X7167Y27867D01*
X7187Y27870D01*
X7206Y27876D01*
X7224Y27885D01*
X7290Y27920D01*
X7358Y27948D01*
X7429Y27971D01*
X7502Y27987D01*
X7576Y27997D01*
X7650Y28000D01*
X7650Y28000D01*
Y26300D01*
X7650Y26300D01*
X7576Y26303D01*
X7502Y26313D01*
X7429Y26329D01*
X7358Y26352D01*
X7290Y26380D01*
X7224Y26415D01*
X7206Y26424D01*
X7187Y26429D01*
X7167Y26432D01*
X7147Y26432D01*
X7127Y26428D01*
X7108Y26421D01*
X7091Y26412D01*
X7075Y26400D01*
X7061Y26385D01*
X7050Y26369D01*
X7041Y26351D01*
X7035Y26331D01*
X7033Y26312D01*
X7033Y26292D01*
X7037Y26272D01*
X7043Y26253D01*
X7053Y26236D01*
X7065Y26220D01*
X7080Y26206D01*
X7096Y26195D01*
X7181Y26149D01*
X7271Y26112D01*
X7363Y26083D01*
X7457Y26062D01*
X7553Y26049D01*
X7650Y26045D01*
X7650Y26045D01*
Y22550D01*
G37*
G36*
X6575D02*X3100D01*
X2400Y22700D01*
X1500Y23250D01*
X950Y24000D01*
X729Y24796D01*
X3605Y24798D01*
X3485Y24769D01*
X3337Y24708D01*
X3201Y24624D01*
X3079Y24521D01*
X2976Y24399D01*
X2892Y24263D01*
X2831Y24115D01*
X2793Y23959D01*
X2781Y23800D01*
X2793Y23641D01*
X2831Y23485D01*
X2892Y23337D01*
X2976Y23201D01*
X3079Y23079D01*
X3201Y22976D01*
X3337Y22892D01*
X3485Y22831D01*
X3641Y22793D01*
X3800Y22781D01*
X3959Y22793D01*
X4115Y22831D01*
X4263Y22892D01*
X4399Y22976D01*
X4521Y23079D01*
X4624Y23201D01*
X4708Y23337D01*
X4769Y23485D01*
X4807Y23641D01*
X4816Y23800D01*
X4807Y23959D01*
X4769Y24115D01*
X4708Y24263D01*
X4624Y24399D01*
X4521Y24521D01*
X4399Y24624D01*
X4263Y24708D01*
X4115Y24769D01*
X3994Y24798D01*
X4240Y24798D01*
X4279Y24808D01*
X4316Y24823D01*
X4350Y24844D01*
X4380Y24870D01*
X4406Y24900D01*
X4427Y24934D01*
X4442Y24971D01*
X4452Y25010D01*
X4454Y25050D01*
X4452Y27090D01*
X4442Y27129D01*
X4427Y27166D01*
X4406Y27200D01*
X4380Y27230D01*
X4350Y27256D01*
X4316Y27277D01*
X4279Y27292D01*
X4240Y27302D01*
X4200Y27304D01*
X700Y27302D01*
Y30896D01*
X4240Y30898D01*
X4279Y30908D01*
X4316Y30923D01*
X4350Y30944D01*
X4380Y30970D01*
X4406Y31000D01*
X4427Y31034D01*
X4442Y31071D01*
X4452Y31110D01*
X4454Y31150D01*
X4452Y33190D01*
X4442Y33229D01*
X4427Y33266D01*
X4406Y33300D01*
X4380Y33330D01*
X4350Y33356D01*
X4316Y33377D01*
X4279Y33392D01*
X4240Y33402D01*
X4200Y33404D01*
X700Y33402D01*
Y33450D01*
X6575D01*
Y27402D01*
X6562Y27343D01*
X6549Y27247D01*
X6545Y27150D01*
X6549Y27053D01*
X6562Y26957D01*
X6575Y26898D01*
Y25153D01*
X5910Y25152D01*
X5871Y25142D01*
X5834Y25127D01*
X5800Y25106D01*
X5770Y25080D01*
X5744Y25050D01*
X5723Y25016D01*
X5708Y24979D01*
X5698Y24940D01*
X5696Y24900D01*
X5698Y22860D01*
X5708Y22821D01*
X5723Y22784D01*
X5744Y22750D01*
X5770Y22720D01*
X5800Y22694D01*
X5834Y22673D01*
X5871Y22658D01*
X5910Y22648D01*
X5950Y22646D01*
X6575Y22647D01*
Y22550D01*
G37*
G54D26*X9075Y23900D02*Y29225D01*
X9900Y30050D01*
X11075Y23900D02*Y27675D01*
X11900Y28500D01*
X12800Y30050D02*X18100D01*
X9900D02*X12900D01*
X11900Y28500D02*X16550D01*
X13575Y23900D02*X14700D01*
X17650Y26050D02*Y24600D01*
X2450Y32150D02*X4800D01*
X2450Y26050D02*X4800D01*
X16350Y28500D02*X22500D01*
X18150Y30050D02*X19200D01*
X19850Y30700D01*
X17650Y32150D02*X15600D01*
X22500Y31600D02*X22000D01*
X21000Y32600D01*
X19850Y30700D02*Y52500D01*
X19750Y52600D01*
X20450Y28500D02*Y49850D01*
X21000Y32600D02*Y48050D01*
X20450Y49850D02*X20750Y50150D01*
X22600D01*
X21000Y48050D02*X21800Y48850D01*
X22750D01*
X23350Y49450D01*
Y50700D01*
X23300D01*
X22750Y51250D01*
G54D27*X12550Y27150D03*
X7650D03*
G54D28*X22250Y34000D03*
Y40650D03*
Y46600D03*
Y53250D03*
G54D25*G36*
X15900Y33150D02*Y31150D01*
X19400D01*
Y33150D01*
X15900D01*
G37*
G36*
X11700Y24900D02*X10450D01*
Y22900D01*
X11700D01*
Y24900D01*
G37*
G36*
X14200D02*X12950D01*
Y22900D01*
X14200D01*
Y24900D01*
G37*
G36*
X15900Y27050D02*Y25050D01*
X19400D01*
Y27050D01*
X15900D01*
G37*
G36*
X9700Y24900D02*X8450D01*
Y22900D01*
X9700D01*
Y24900D01*
G37*
G36*
X7200D02*X5950D01*
Y22900D01*
X7200D01*
Y24900D01*
G37*
G36*
X700Y33150D02*Y31150D01*
X4200D01*
Y33150D01*
X700D01*
G37*
G36*
Y27050D02*Y25050D01*
X4200D01*
Y27050D01*
X700D01*
G37*
G54D29*X21850Y24400D03*
G54D30*X22500Y26900D03*
Y28500D03*
Y30050D03*
Y31600D03*
G54D31*X18100Y30050D03*
G54D32*X3800Y23800D03*
G54D31*X22750Y51250D03*
G54D30*X22500Y42800D03*
Y44450D03*
G54D31*X22600Y50150D03*
X6575Y23900D03*
X19750Y52600D03*
G54D33*G54D34*G54D35*G54D36*G54D35*G54D34*G54D35*G54D37*G54D38*M02*
