G04 start of page 9 for group -4078 idx -4078 *
G04 Title: (unknown), bottomsilk *
G04 Creator: pcb 4.2.0 *
G04 CreationDate: Fri Feb 14 02:49:43 2020 UTC *
G04 For: blinken *
G04 Format: Gerber/RS-274X *
G04 PCB-Dimensions (mm): 90.16 90.16 *
G04 PCB-Coordinate-Origin: lower left *
%MOMM*%
%FSLAX43Y43*%
%LNBOTTOMSILK*%
%ADD78C,0.200*%
%ADD77C,0.300*%
%ADD76C,0.198*%
%ADD75C,0.127*%
%ADD74C,0.155*%
%ADD73C,0.203*%
%ADD72C,0.254*%
%ADD71C,0.250*%
G54D71*X45320Y25670D02*X45330Y25660D01*
X45320Y26650D02*Y25670D01*
G54D72*X47290Y79550D02*X52290D01*
X47290Y88350D02*X52290D01*
Y79550D01*
X47290Y88350D02*Y85550D01*
X46990D02*X47290D01*
X46990D02*Y82350D01*
X47290D01*
Y79550D01*
X41240Y79850D02*X45540D01*
X41240D02*Y71050D01*
X45540D01*
Y79850D02*Y71050D01*
G54D73*X45870Y74870D02*Y73670D01*
X47770Y74870D02*Y73670D01*
X39040Y71900D02*X39240D01*
X39040Y70500D02*X39240D01*
X39050Y72300D02*X39250D01*
X39050Y73700D02*X39250D01*
X32340Y76020D02*X32540D01*
X32340Y74620D02*X32540D01*
G54D72*X25309Y78562D02*Y82862D01*
Y78562D02*X34109D01*
Y82862D01*
X25309D02*X34109D01*
G54D73*X32240Y78150D02*X32440D01*
X32240Y76750D02*X32440D01*
X26374Y72781D02*X27574D01*
X26374Y70881D02*X27574D01*
X26344Y75157D02*X27544D01*
X26344Y73257D02*X27544D01*
G54D72*X40107Y85397D02*Y80097D01*
X35907Y85397D02*X40107D01*
X35907D02*Y80097D01*
X40107D01*
G54D74*X38895Y74760D02*X39460D01*
Y75325D02*Y74760D01*
X35460D02*X36025D01*
X35460Y75325D02*Y74760D01*
X39460Y78760D02*Y78195D01*
X38895Y78760D02*X39460D01*
X35460D02*Y78195D01*
Y78760D02*X36025D01*
X35210Y79260D02*G75*G03X35210Y79260I0J-250D01*G01*
G54D73*X31689Y85138D02*X32889D01*
X31689Y83239D02*X32889D01*
G54D72*X14570Y76050D02*X19570D01*
X14570Y84850D02*X19570D01*
Y76050D01*
X14570Y84850D02*Y82050D01*
X14270D02*X14570D01*
X14270D02*Y78850D01*
X14570D01*
Y76050D01*
G54D73*X41345Y16798D02*Y15598D01*
X43245Y16798D02*X43245Y15598D01*
X39604Y28333D02*Y27133D01*
X41504Y28333D02*Y27133D01*
X41888Y28329D02*Y27129D01*
X43788Y28329D02*Y27129D01*
X54089Y29650D02*Y28450D01*
X55989Y29650D02*Y28450D01*
G54D72*X36586Y61041D02*Y64572D01*
X39838D01*
Y61041D01*
X36586D01*
G54D73*X12170Y73548D02*X13370D01*
X12170Y75448D02*X13370D01*
X34095Y61592D02*Y60392D01*
X35995Y61592D02*Y60392D01*
X16127Y26652D02*X15278Y25804D01*
X17470Y25309D02*X16622Y24460D01*
X64109Y26856D02*X64957Y26007D01*
X65452Y28199D02*X66300Y27350D01*
X38601Y60524D02*X39801D01*
X38601Y58624D02*X39801D01*
X30254Y58718D02*Y57518D01*
X28354Y58718D02*Y57518D01*
X33948Y57825D02*X35148D01*
X33948Y55925D02*X35148D01*
G54D72*X58203Y33317D02*Y41967D01*
X62253Y32317D02*Y34067D01*
X60803Y42967D02*X62253D01*
Y41217D02*Y42967D01*
X60803Y32317D02*X62253D01*
G54D73*X59380Y86981D02*X60580D01*
X59380Y85081D02*X60580D01*
X59363Y84660D02*X60563D01*
X59363Y82760D02*X60563D01*
X60508Y75327D02*X61708D01*
X60508Y73427D02*X61708D01*
X60524Y75607D02*X61723D01*
X60524Y77507D02*X61723D01*
X60506Y77971D02*X61706D01*
X60506Y79871D02*X61706D01*
G54D75*X67541Y80240D02*X68341Y81040D01*
Y80240D01*
X67541D02*X68341D01*
X68239Y80839D02*X67741Y80341D01*
X68239Y80740D02*X67840Y80341D01*
X67939D01*
X68239Y80641D01*
Y80539D01*
X68041Y80341D01*
X68239Y80839D02*Y80641D01*
Y80941D02*Y80740D01*
Y84339D02*Y80341D01*
X64241Y84339D02*X68239D01*
X64241D02*Y80341D01*
X68239D01*
G54D76*X67865Y80943D02*G75*G03X67865Y80943I-223J0D01*G01*
G54D77*X78080Y71360D02*Y62960D01*
X73140Y71360D02*X78080D01*
X73140D02*Y62960D01*
X78080D01*
X73140Y63560D02*X78080D01*
G54D73*X72070Y68400D02*Y67200D01*
X70170Y68400D02*Y67200D01*
X72774Y82573D02*X73974D01*
X72774Y80674D02*X73974D01*
X72783Y80321D02*X73983D01*
X72783Y78422D02*X73983D01*
G54D78*X12024Y83823D02*X13040D01*
X12024Y83442D02*Y83950D01*
Y83442D02*X12151Y83315D01*
X12405D01*
X12532Y83442D02*X12405Y83315D01*
X12532Y83442D02*Y83823D01*
X12151Y83010D02*X12913D01*
X12151D02*X12024Y82883D01*
Y82629D02*Y82883D01*
Y82629D02*X12151Y82502D01*
X12913D01*
X13040Y82629D02*X12913Y82502D01*
X13040Y82629D02*Y82883D01*
X12913Y83010D02*X13040Y82883D01*
X12024Y82197D02*X12532D01*
X13040Y82070D01*
X12532Y81816D01*
X13040Y81562D01*
X12532Y81435D01*
X12024D02*X12532D01*
X12481Y80750D02*Y81131D01*
X13040Y80623D02*Y81131D01*
X12024D02*X13040D01*
X12024Y80623D02*Y81131D01*
Y79810D02*Y80318D01*
Y79810D02*X12151Y79683D01*
X12405D01*
X12532Y79810D02*X12405Y79683D01*
X12532Y79810D02*Y80191D01*
X12024D02*X13040D01*
X12532Y79988D02*X13040Y79683D01*
Y78870D02*Y79378D01*
X12024Y78057D02*X12151Y77930D01*
X12024Y78057D02*Y78438D01*
X12151Y78565D02*X12024Y78438D01*
X12151Y78565D02*X12405D01*
X12532Y78438D01*
Y78057D02*Y78438D01*
Y78057D02*X12659Y77930D01*
X12913D01*
X13040Y78057D02*X12913Y77930D01*
X13040Y78057D02*Y78438D01*
X12913Y78565D02*X13040Y78438D01*
X12024Y77625D02*X12532D01*
X13040Y77498D01*
X12532Y77244D01*
X13040Y76990D01*
X12532Y76863D01*
X12024D02*X12532D01*
X9202Y72630D02*X9532D01*
X9710Y72808D02*X9532Y72630D01*
X9710Y72808D02*Y73468D01*
X9532Y73646D01*
X9202D02*X9532D01*
X8897Y73443D02*X8694Y73646D01*
Y72630D02*Y73646D01*
X8516Y72630D02*X8897D01*
X8211Y72757D02*X8084Y72630D01*
X8211Y72757D02*Y73519D01*
X8084Y73646D01*
X7830D02*X8084D01*
X7830D02*X7703Y73519D01*
Y72757D02*Y73519D01*
X7830Y72630D02*X7703Y72757D01*
X7830Y72630D02*X8084D01*
X8211Y72884D02*X7703Y73392D01*
X41950Y84090D02*Y85106D01*
X41442Y84090D02*X41950D01*
X41137Y84903D02*X40934Y85106D01*
Y84090D02*Y85106D01*
X40756Y84090D02*X41137D01*
X40800Y78707D02*Y79596D01*
Y78707D02*X40673Y78580D01*
X40419D02*X40673D01*
X40419D02*X40292Y78707D01*
Y79596D01*
X39479D02*X39987D01*
Y79088D02*Y79596D01*
Y79088D02*X39860Y79215D01*
X39606D02*X39860D01*
X39606D02*X39479Y79088D01*
Y78707D02*Y79088D01*
X39606Y78580D02*X39479Y78707D01*
X39606Y78580D02*X39860D01*
X39987Y78707D02*X39860Y78580D01*
X43932Y80300D02*X44262D01*
X44440Y80478D02*X44262Y80300D01*
X44440Y80478D02*Y81138D01*
X44262Y81316D01*
X43932D02*X44262D01*
X43627Y81113D02*X43424Y81316D01*
Y80300D02*Y81316D01*
X43246Y80300D02*X43627D01*
X42941Y81189D02*X42814Y81316D01*
X42560D02*X42814D01*
X42560D02*X42433Y81189D01*
X42560Y80300D02*X42433Y80427D01*
X42560Y80300D02*X42814D01*
X42941Y80427D02*X42814Y80300D01*
X42560Y80859D02*X42814D01*
X42433Y80986D02*Y81189D01*
Y80427D02*Y80732D01*
X42560Y80859D01*
X42433Y80986D02*X42560Y80859D01*
X50002Y75170D02*X50332D01*
X50510Y75348D02*X50332Y75170D01*
X50510Y75348D02*Y76009D01*
X50332Y76186D01*
X50002D02*X50332D01*
X49697Y75983D02*X49494Y76186D01*
Y75170D02*Y76186D01*
X49316Y75170D02*X49697D01*
X49012Y76059D02*X48885Y76186D01*
X48504D02*X48885D01*
X48504D02*X48377Y76059D01*
Y75805D02*Y76059D01*
X49012Y75170D02*X48377Y75805D01*
Y75170D02*X49012D01*
X46060Y84542D02*Y85050D01*
Y84542D02*X45933Y84415D01*
X45628D02*X45933D01*
X45501Y84542D02*X45628Y84415D01*
X45501Y84542D02*Y84923D01*
X45044D02*X46060D01*
X45044Y84542D02*Y85050D01*
Y84542D02*X45171Y84415D01*
X45374D01*
X45501Y84542D02*X45374Y84415D01*
X45298Y84110D02*X46060D01*
X45298D02*X45044Y83932D01*
Y83653D02*Y83932D01*
Y83653D02*X45298Y83475D01*
X46060D01*
X45552D02*Y84110D01*
X45044Y82662D02*Y83170D01*
Y82916D02*X46060D01*
X27002Y78196D02*X27510D01*
X27002D02*X26875Y78069D01*
Y77815D02*Y78069D01*
X27002Y77688D02*X26875Y77815D01*
X27002Y77688D02*X27383D01*
Y77180D02*Y78196D01*
X27180Y77688D02*X26875Y77180D01*
X26570Y77993D02*X26367Y78196D01*
Y77180D02*Y78196D01*
X26189Y77180D02*X26570D01*
X25884Y77561D02*X25376Y78196D01*
X25249Y77561D02*X25884D01*
X25376Y77180D02*Y78196D01*
X23736Y74753D02*X24244D01*
X23736D02*X23609Y74626D01*
Y74372D02*Y74626D01*
X23736Y74245D02*X23609Y74372D01*
X23736Y74245D02*X24117D01*
Y73737D02*Y74753D01*
X23914Y74245D02*X23609Y73737D01*
X23304Y74550D02*X23101Y74753D01*
Y73737D02*Y74753D01*
X22923Y73737D02*X23304D01*
X22618Y73864D02*X22491Y73737D01*
X22618Y73864D02*Y74067D01*
X22440Y74245D01*
X22288D02*X22440D01*
X22288D02*X22110Y74067D01*
Y73864D02*Y74067D01*
X22237Y73737D02*X22110Y73864D01*
X22237Y73737D02*X22491D01*
X22618Y74422D02*X22440Y74245D01*
X22618Y74422D02*Y74626D01*
X22491Y74753D01*
X22237D02*X22491D01*
X22237D02*X22110Y74626D01*
Y74422D02*Y74626D01*
X22288Y74245D02*X22110Y74422D01*
X26912Y76626D02*X27420D01*
X26912D02*X26785Y76499D01*
Y76245D02*Y76499D01*
X26912Y76118D02*X26785Y76245D01*
X26912Y76118D02*X27293D01*
Y75610D02*Y76626D01*
X27090Y76118D02*X26785Y75610D01*
X26480Y76423D02*X26277Y76626D01*
Y75610D02*Y76626D01*
X26099Y75610D02*X26480D01*
X25413Y76626D02*X25286Y76499D01*
X25413Y76626D02*X25667D01*
X25794Y76499D02*X25667Y76626D01*
X25794Y75737D02*Y76499D01*
Y75737D02*X25667Y75610D01*
X25413Y76169D02*X25286Y76042D01*
X25413Y76169D02*X25794D01*
X25413Y75610D02*X25667D01*
X25413D02*X25286Y75737D01*
Y76042D01*
X27083Y83288D02*X27413D01*
X27591Y83466D02*X27413Y83288D01*
X27591Y83466D02*Y84126D01*
X27413Y84304D01*
X27083D02*X27413D01*
X26778Y84101D02*X26575Y84304D01*
Y83288D02*Y84304D01*
X26397Y83288D02*X26778D01*
X26092Y84101D02*X25889Y84304D01*
Y83288D02*Y84304D01*
X25711Y83288D02*X26092D01*
X33881Y86685D02*X34389D01*
X33881D02*X33754Y86558D01*
Y86304D02*Y86558D01*
X33881Y86177D02*X33754Y86304D01*
X33881Y86177D02*X34262D01*
Y85669D02*Y86685D01*
X34059Y86177D02*X33754Y85669D01*
X33449Y86481D02*X33246Y86685D01*
Y85669D02*Y86685D01*
X33068Y85669D02*X33449D01*
X32636D02*X32128Y86685D01*
X32763D01*
X36612Y71616D02*X37120D01*
X36612D02*X36485Y71489D01*
Y71235D02*Y71489D01*
X36612Y71108D02*X36485Y71235D01*
X36612Y71108D02*X36993D01*
Y70600D02*Y71616D01*
X36790Y71108D02*X36485Y70600D01*
X36180Y71489D02*X36053Y71616D01*
X35672D02*X36053D01*
X35672D02*X35545Y71489D01*
Y71235D02*Y71489D01*
X36180Y70600D02*X35545Y71235D01*
Y70600D02*X36180D01*
X35240Y71413D02*X35037Y71616D01*
Y70600D02*Y71616D01*
X34859Y70600D02*X35240D01*
X31266Y72377D02*X31774D01*
X31266D02*X31139Y72250D01*
Y71996D02*Y72250D01*
X31266Y71869D02*X31139Y71996D01*
X31266Y71869D02*X31647D01*
Y71361D02*Y72377D01*
X31444Y71869D02*X31139Y71361D01*
X30834Y72174D02*X30631Y72377D01*
Y71361D02*Y72377D01*
X30453Y71361D02*X30834D01*
X30022D02*X29641Y71869D01*
Y72250D01*
X29768Y72377D02*X29641Y72250D01*
X29768Y72377D02*X30022D01*
X30149Y72250D02*X30022Y72377D01*
X30149Y71996D02*Y72250D01*
Y71996D02*X30022Y71869D01*
X29641D02*X30022D01*
X36632Y73546D02*X37140D01*
X36632D02*X36505Y73419D01*
Y73165D02*Y73419D01*
X36632Y73038D02*X36505Y73165D01*
X36632Y73038D02*X37013D01*
Y72530D02*Y73546D01*
X36810Y73038D02*X36505Y72530D01*
X36200Y73419D02*X36073Y73546D01*
X35692D02*X36073D01*
X35692D02*X35565Y73419D01*
Y73165D02*Y73419D01*
X36200Y72530D02*X35565Y73165D01*
Y72530D02*X36200D01*
X35260Y72657D02*X35133Y72530D01*
X35260Y72657D02*Y73419D01*
X35133Y73546D01*
X34879D02*X35133D01*
X34879D02*X34752Y73419D01*
Y72657D02*Y73419D01*
X34879Y72530D02*X34752Y72657D01*
X34879Y72530D02*X35133D01*
X35260Y72784D02*X34752Y73292D01*
X17485Y21965D02*X17815D01*
X17993Y22143D02*X17815Y21965D01*
X17993Y22143D02*Y22803D01*
X17815Y22981D01*
X17485D02*X17815D01*
X17180Y22092D02*X17053Y21965D01*
X17180Y22092D02*Y22295D01*
X17002Y22473D01*
X16850D02*X17002D01*
X16850D02*X16672Y22295D01*
Y22092D02*Y22295D01*
X16799Y21965D02*X16672Y22092D01*
X16799Y21965D02*X17053D01*
X17180Y22651D02*X17002Y22473D01*
X17180Y22651D02*Y22854D01*
X17053Y22981D01*
X16799D02*X17053D01*
X16799D02*X16672Y22854D01*
Y22651D02*Y22854D01*
X16850Y22473D02*X16672Y22651D01*
X1543Y29005D02*Y29335D01*
X1721Y28827D02*X1543Y29005D01*
X1721Y28827D02*X2381D01*
X2559Y29005D01*
Y29335D01*
X1670Y29640D02*X2432D01*
X2559Y29767D01*
Y30021D01*
X2432Y30148D01*
X1670D02*X2432D01*
X1543Y30021D02*X1670Y30148D01*
X1543Y29767D02*Y30021D01*
X1670Y29640D02*X1543Y29767D01*
Y30453D02*X2559D01*
X1543Y31088D01*
X2559D01*
X1543Y31393D02*X2559D01*
X1543Y32028D01*
X2559D01*
X2356Y32333D02*X2559Y32536D01*
X1543D02*X2559D01*
X1543Y32333D02*Y32714D01*
X46980Y23927D02*Y24816D01*
Y23927D02*X46853Y23800D01*
X46599D02*X46853D01*
X46599D02*X46472Y23927D01*
Y24816D01*
X45786D02*X45659Y24689D01*
X45786Y24816D02*X46040D01*
X46167Y24689D02*X46040Y24816D01*
X46167Y23927D02*Y24689D01*
Y23927D02*X46040Y23800D01*
X45786Y24359D02*X45659Y24232D01*
X45786Y24359D02*X46167D01*
X45786Y23800D02*X46040D01*
X45786D02*X45659Y23927D01*
Y24232D01*
X40422Y30730D02*X40752D01*
X40930Y30908D02*X40752Y30730D01*
X40930Y30908D02*Y31568D01*
X40752Y31746D01*
X40422D02*X40752D01*
X40117Y31619D02*X39990Y31746D01*
X39609D02*X39990D01*
X39609D02*X39482Y31619D01*
Y31365D02*Y31619D01*
X40117Y30730D02*X39482Y31365D01*
Y30730D02*X40117D01*
X43092D02*X43422D01*
X43600Y30908D02*X43422Y30730D01*
X43600Y30908D02*Y31568D01*
X43422Y31746D01*
X43092D02*X43422D01*
X42787Y31543D02*X42584Y31746D01*
Y30730D02*Y31746D01*
X42406Y30730D02*X42787D01*
X41720Y31746D02*X41593Y31619D01*
X41720Y31746D02*X41974D01*
X42101Y31619D02*X41974Y31746D01*
X42101Y30857D02*Y31619D01*
Y30857D02*X41974Y30730D01*
X41720Y31289D02*X41593Y31162D01*
X41720Y31289D02*X42101D01*
X41720Y30730D02*X41974D01*
X41720D02*X41593Y30857D01*
Y31162D01*
X55432Y31900D02*X55762D01*
X55940Y32078D02*X55762Y31900D01*
X55940Y32078D02*Y32738D01*
X55762Y32916D01*
X55432D02*X55762D01*
X55127Y32713D02*X54924Y32916D01*
Y31900D02*Y32916D01*
X54746Y31900D02*X55127D01*
X53933Y32916D02*X54441D01*
Y32408D02*Y32916D01*
Y32408D02*X54314Y32535D01*
X54060D02*X54314D01*
X54060D02*X53933Y32408D01*
Y32027D02*Y32408D01*
X54060Y31900D02*X53933Y32027D01*
X54060Y31900D02*X54314D01*
X54441Y32027D02*X54314Y31900D01*
X44052Y58626D02*X44560D01*
X44052D02*X43925Y58499D01*
Y58245D02*Y58499D01*
X44052Y58118D02*X43925Y58245D01*
X44052Y58118D02*X44433D01*
Y57610D02*Y58626D01*
X44230Y58118D02*X43925Y57610D01*
X43620Y58499D02*X43493Y58626D01*
X43112D02*X43493D01*
X43112D02*X42985Y58499D01*
Y58245D02*Y58499D01*
X43620Y57610D02*X42985Y58245D01*
Y57610D02*X43620D01*
X42680Y58499D02*X42553Y58626D01*
X42172D02*X42553D01*
X42172D02*X42045Y58499D01*
Y58245D02*Y58499D01*
X42680Y57610D02*X42045Y58245D01*
Y57610D02*X42680D01*
X41619Y61663D02*Y62425D01*
X41492Y62552D01*
X41238D02*X41492D01*
X41238D02*X41111Y62425D01*
Y61790D02*Y62425D01*
X41365Y61536D02*X41111Y61790D01*
X41365Y61536D02*X41492D01*
X41619Y61663D02*X41492Y61536D01*
X41365Y61917D02*X41111Y61536D01*
X40806Y62349D02*X40603Y62552D01*
Y61536D02*Y62552D01*
X40425Y61536D02*X40806D01*
X38440Y57321D02*X38948D01*
X38440D02*X38313Y57194D01*
Y56940D02*Y57194D01*
X38440Y56813D02*X38313Y56940D01*
X38440Y56813D02*X38821D01*
Y56305D02*Y57321D01*
X38618Y56813D02*X38313Y56305D01*
X38008Y56432D02*X37881Y56305D01*
X38008Y56432D02*Y56635D01*
X37830Y56813D01*
X37678D02*X37830D01*
X37678D02*X37500Y56635D01*
Y56432D02*Y56635D01*
X37627Y56305D02*X37500Y56432D01*
X37627Y56305D02*X37881D01*
X38008Y56991D02*X37830Y56813D01*
X38008Y56991D02*Y57194D01*
X37881Y57321D01*
X37627D02*X37881D01*
X37627D02*X37500Y57194D01*
Y56991D02*Y57194D01*
X37678Y56813D02*X37500Y56991D01*
X29834Y55310D02*X30342D01*
X29834D02*X29708Y55183D01*
Y54929D02*Y55183D01*
X29834Y54802D02*X29708Y54929D01*
X29834Y54802D02*X30216D01*
Y54294D02*Y55310D01*
X30012Y54802D02*X29708Y54294D01*
X29403Y55107D02*X29199Y55310D01*
Y54294D02*Y55310D01*
X29022Y54294D02*X29403D01*
X28717Y54421D02*X28590Y54294D01*
X28717Y54421D02*Y55183D01*
X28590Y55310D01*
X28336D02*X28590D01*
X28336D02*X28209Y55183D01*
Y54421D02*Y55183D01*
X28336Y54294D02*X28209Y54421D01*
X28336Y54294D02*X28590D01*
X28717Y54548D02*X28209Y55056D01*
X32834Y63052D02*X33342D01*
X32834D02*X32707Y62924D01*
Y62670D02*Y62924D01*
X32834Y62544D02*X32707Y62670D01*
X32834Y62544D02*X33215D01*
Y62036D02*Y63052D01*
X33012Y62544D02*X32707Y62036D01*
X32402Y62848D02*X32199Y63052D01*
Y62036D02*Y63052D01*
X32021Y62036D02*X32402D01*
X31717Y62848D02*X31513Y63052D01*
Y62036D02*Y63052D01*
X31336Y62036D02*X31717D01*
X68721Y26779D02*X69051D01*
X69229Y26957D02*X69051Y26779D01*
X69229Y26957D02*Y27617D01*
X69051Y27795D01*
X68721D02*X69051D01*
X68416Y27160D02*X67908Y27795D01*
X67781Y27160D02*X68416D01*
X67908Y26779D02*Y27795D01*
X44845Y12385D02*X45175D01*
X45353Y12563D02*X45175Y12385D01*
X45353Y12563D02*Y13223D01*
X45175Y13401D01*
X44845D02*X45175D01*
X44159D02*X44032Y13274D01*
X44159Y13401D02*X44413D01*
X44540Y13274D02*X44413Y13401D01*
X44540Y12512D02*Y13274D01*
Y12512D02*X44413Y12385D01*
X44159Y12944D02*X44032Y12817D01*
X44159Y12944D02*X44540D01*
X44159Y12385D02*X44413D01*
X44159D02*X44032Y12512D01*
Y12817D01*
X56842Y87266D02*X57350D01*
X56842D02*X56715Y87139D01*
Y86885D02*Y87139D01*
X56842Y86758D02*X56715Y86885D01*
X56842Y86758D02*X57223D01*
Y86250D02*Y87266D01*
X57020Y86758D02*X56715Y86250D01*
X56410Y86631D02*X55902Y87266D01*
X55775Y86631D02*X56410D01*
X55902Y86250D02*Y87266D01*
X69490Y85598D02*Y86487D01*
Y85598D02*X69363Y85471D01*
X69109D02*X69363D01*
X69109D02*X68982Y85598D01*
Y86487D01*
X68677Y85852D02*X68169Y86487D01*
X68042Y85852D02*X68677D01*
X68169Y85471D02*Y86487D01*
X56705Y84156D02*X57213D01*
X56705D02*X56578Y84029D01*
Y83775D02*Y84029D01*
X56705Y83648D02*X56578Y83775D01*
X56705Y83648D02*X57086D01*
Y83140D02*Y84156D01*
X56883Y83648D02*X56578Y83140D01*
X55765Y84156D02*X56273D01*
Y83648D02*Y84156D01*
Y83648D02*X56146Y83775D01*
X55892D02*X56146D01*
X55892D02*X55765Y83648D01*
Y83267D02*Y83648D01*
X55892Y83140D02*X55765Y83267D01*
X55892Y83140D02*X56146D01*
X56273Y83267D02*X56146Y83140D01*
X64900Y74924D02*X65408D01*
X64900D02*X64773Y74796D01*
Y74542D02*Y74796D01*
X64900Y74416D02*X64773Y74542D01*
X64900Y74416D02*X65281D01*
Y73908D02*Y74924D01*
X65078Y74416D02*X64773Y73908D01*
X64341D02*X63960Y74416D01*
Y74796D01*
X64087Y74924D02*X63960Y74796D01*
X64087Y74924D02*X64341D01*
X64468Y74796D02*X64341Y74924D01*
X64468Y74542D02*Y74796D01*
Y74542D02*X64341Y74416D01*
X63960D02*X64341D01*
X65419Y77059D02*X65927D01*
X65419D02*X65292Y76932D01*
Y76678D02*Y76932D01*
X65419Y76551D02*X65292Y76678D01*
X65419Y76551D02*X65800D01*
Y76043D02*Y77059D01*
X65596Y76551D02*X65292Y76043D01*
X64987Y76856D02*X64784Y77059D01*
Y76043D02*Y77059D01*
X64606Y76043D02*X64987D01*
X63793Y77059D02*X64301D01*
Y76551D02*Y77059D01*
Y76551D02*X64174Y76678D01*
X63920D02*X64174D01*
X63920D02*X63793Y76551D01*
Y76170D02*Y76551D01*
X63920Y76043D02*X63793Y76170D01*
X63920Y76043D02*X64174D01*
X64301Y76170D02*X64174Y76043D01*
X61820Y81464D02*X62328D01*
X62074Y80448D02*Y81464D01*
X61515Y80448D02*Y81464D01*
X60880Y80448D02*Y81464D01*
Y80956D02*X61515D01*
X60194Y81007D02*X60575D01*
X60067Y80448D02*X60575D01*
Y81464D01*
X60067D02*X60575D01*
X59255D02*X59763D01*
X59255D02*X59128Y81337D01*
Y81083D02*Y81337D01*
X59255Y80956D02*X59128Y81083D01*
X59255Y80956D02*X59636D01*
Y80448D02*Y81464D01*
X59432Y80956D02*X59128Y80448D01*
X58823D02*Y81464D01*
X58442Y80956D01*
X58061Y81464D01*
Y80448D02*Y81464D01*
X71965Y64246D02*X72600D01*
Y63230D02*X71965Y64246D01*
Y63230D02*X72600D01*
X71660Y64119D02*X71533Y64246D01*
X71152D02*X71533D01*
X71152D02*X71025Y64119D01*
Y63865D02*Y64119D01*
X71660Y63230D02*X71025Y63865D01*
Y63230D02*X71660D01*
X77176Y81134D02*X77506D01*
X77684Y81311D02*X77506Y81134D01*
X77684Y81311D02*Y81972D01*
X77506Y82150D01*
X77176D02*X77506D01*
X76744Y81134D02*X76236Y82150D01*
X76871D01*
X77185Y79898D02*X77693D01*
X77185D02*X77058Y79771D01*
Y79517D02*Y79771D01*
X77185Y79390D02*X77058Y79517D01*
X77185Y79390D02*X77566D01*
Y78882D02*Y79898D01*
X77363Y79390D02*X77058Y78882D01*
X76753Y79771D02*X76626Y79898D01*
X76372D02*X76626D01*
X76372D02*X76245Y79771D01*
X76372Y78882D02*X76245Y79009D01*
X76372Y78882D02*X76626D01*
X76753Y79009D02*X76626Y78882D01*
X76372Y79440D02*X76626D01*
X76245Y79567D02*Y79771D01*
Y79009D02*Y79313D01*
X76372Y79440D01*
X76245Y79567D02*X76372Y79440D01*
X69142Y66350D02*X69472D01*
X69650Y66528D02*X69472Y66350D01*
X69650Y66528D02*Y67188D01*
X69472Y67366D01*
X69142D02*X69472D01*
X68837Y67239D02*X68710Y67366D01*
X68456D02*X68710D01*
X68456D02*X68329Y67239D01*
X68456Y66350D02*X68329Y66477D01*
X68456Y66350D02*X68710D01*
X68837Y66477D02*X68710Y66350D01*
X68456Y66909D02*X68710D01*
X68329Y67036D02*Y67239D01*
Y66477D02*Y66782D01*
X68456Y66909D01*
X68329Y67036D02*X68456Y66909D01*
M02*
