M48
METRIC,000.000
T56C0.889
T55C0.400
T54C0.508
T53C2.646
T52C0.600
T51C0.300
T50C0.965
%
T51
X036660Y077560
X036660Y075960
X037460Y076760
X038260Y077560
X038260Y075960
T55
X004000Y060940
X005100Y050710
X005280Y046020
X005750Y055920
X006390Y040940
X006720Y027070
X008460Y075200
X008600Y035190
X009620Y068300
X011390Y021130
X017690Y016520
X017950Y072120
X020210Y076120
X021670Y030580
X022590Y061090
X024720Y063220
X025444Y074207
X028444Y074207
X028550Y085940
X028610Y048360
X029289Y059591
X029670Y017450
X030230Y048940
X032320Y084070
X033085Y059587
X033220Y037270
X033260Y030540
X033290Y034000
X033290Y027040
X033290Y023460
X034660Y015820
X034895Y059552
X035090Y085320
X036410Y073180
X038492Y028757
X039410Y039370
X039440Y044910
X039640Y015250
X040701Y059584
X042550Y024220
X043632Y046979
X043632Y039359
X043850Y059480
X044350Y030870
X045090Y015250
X047450Y039130
X047470Y040190
X047580Y034270
X048030Y021430
X048460Y046980
X048930Y026780
X048950Y029150
X049890Y016080
X050570Y073560
X051700Y073570
X052840Y073570
X052890Y076040
X055210Y018110
X056020Y076870
X056430Y041920
X056660Y085470
X056670Y039360
X056750Y076180
X057800Y076200
X057900Y062240
X060442Y034279
X062640Y016490
X063580Y084320
X064210Y035800
X066000Y079240
X066300Y082280
X066830Y078400
X069120Y022000
X069530Y079240
X070840Y079440
X073590Y031620
X074310Y044000
X075200Y049160
X075220Y052870
X077440Y060820
T54
X010312Y051781
X010541Y046726
X011024Y057013
X011608Y041544
X012700Y062360
X013741Y036261
X016688Y031664
X019202Y028819
X022428Y025974
X026619Y023282
X031800Y021260
X037033Y020361
X042520Y020412
X053315Y023510
X057531Y026050
X060604Y028565
X063195Y031308
X066345Y035931
T52
X072950Y083570
X072950Y077790
T56
X014100Y082260
X017940Y037420
X017980Y040010
X029110Y077090
X043360Y076010
X043390Y078500
X068470Y041270
X069540Y074300
X075020Y087110
X075610Y069661
T50
X013410Y068910
X013410Y066370
X015950Y068910
X015950Y066370
X017568Y056415
X017568Y053875
X017568Y051335
X017568Y048795
X018490Y068910
X018490Y066370
X019530Y044300
X021030Y068910
X021030Y066370
X022070Y044300
X023570Y068910
X023570Y066370
X024610Y044300
X026110Y068910
X026110Y066370
X027150Y044300
X028650Y068910
X028650Y066370
X029690Y044300
X031190Y068910
X031190Y066370
X032230Y044300
X033730Y068910
X033730Y066370
X034770Y044300
X036270Y068910
X036270Y066370
X037310Y044300
X038810Y068910
X038810Y066370
X041350Y068910
X041350Y066370
X043890Y068910
X043890Y066370
X046430Y068910
X046430Y066370
X046538Y055762
X046538Y053222
X046538Y050682
X048970Y068910
X048970Y066370
X051510Y068910
X051510Y066370
X054050Y068910
X054050Y066370
X056590Y068910
X056590Y066370
X059130Y068910
X059130Y066370
X061670Y068910
X061670Y066370
X073439Y018373
T53
X008500Y018660
X066340Y044520
X066500Y018660
M30
