G04 start of page 7 for group -4062 idx -4062 *
G04 Title: (unknown), soldermask *
G04 Creator: pcb 4.2.0 *
G04 CreationDate: Sat Mar 28 09:12:03 2020 UTC *
G04 For: blinken *
G04 Format: Gerber/RS-274X *
G04 PCB-Dimensions (mm): 65.00 56.00 *
G04 PCB-Coordinate-Origin: lower left *
%MOMM*%
%FSLAX43Y43*%
%LNSTS*%
%ADD61C,0.002*%
%ADD60C,1.800*%
%ADD59C,1.254*%
%ADD58C,3.200*%
%ADD57C,1.752*%
%ADD56C,1.852*%
%ADD55C,0.500*%
G54D55*X3050Y22300D02*X23900D01*
X450Y25100D02*Y33700D01*
X18400D01*
X23950Y55750D02*Y22300D01*
X18400Y55750D02*Y39400D01*
Y39350D02*Y33700D01*
Y55750D02*X23950D01*
X450Y25050D02*G75*G03X3200Y22300I2750J0D01*G01*
G54D56*X12550Y27150D03*
X7650D03*
G54D57*X22250Y34000D03*
Y40650D03*
Y46600D03*
Y53250D03*
G54D58*X21850Y24400D03*
G54D59*X22500Y26900D03*
Y28500D03*
Y30050D03*
Y31600D03*
G54D60*X3800Y23800D03*
G54D59*X22500Y42800D03*
Y44450D03*
G54D61*G36*
X15773Y33277D02*Y31023D01*
X19527D01*
Y33277D01*
X15773D01*
G37*
G36*
X11827Y25027D02*X10323D01*
Y22773D01*
X11827D01*
Y25027D01*
G37*
G36*
X14327D02*X12823D01*
Y22773D01*
X14327D01*
Y25027D01*
G37*
G36*
X15773Y27177D02*Y24923D01*
X19527D01*
Y27177D01*
X15773D01*
G37*
G36*
X9827Y25027D02*X8323D01*
Y22773D01*
X9827D01*
Y25027D01*
G37*
G36*
X7327D02*X5823D01*
Y22773D01*
X7327D01*
Y25027D01*
G37*
G36*
X573Y33277D02*Y31023D01*
X4327D01*
Y33277D01*
X573D01*
G37*
G36*
Y27177D02*Y24923D01*
X4327D01*
Y27177D01*
X573D01*
G37*
M02*
