G04 start of page 6 for group -4063 idx -4063 *
G04 Title: (unknown), componentmask *
G04 Creator: pcb 4.2.0 *
G04 CreationDate: Sat Mar 28 09:12:03 2020 UTC *
G04 For: blinken *
G04 Format: Gerber/RS-274X *
G04 PCB-Dimensions (mm): 65.00 56.00 *
G04 PCB-Coordinate-Origin: lower left *
%MOMM*%
%FSLAX43Y43*%
%LNSTC*%
%ADD54C,0.002*%
%ADD53C,1.800*%
%ADD52C,1.254*%
%ADD51C,3.200*%
%ADD50C,1.752*%
%ADD49C,1.852*%
%ADD48C,0.500*%
G54D48*X3050Y22300D02*X23900D01*
X450Y25100D02*Y33700D01*
X18400D01*
X23950Y55750D02*Y22300D01*
X18400Y55750D02*Y39400D01*
Y39350D02*Y33700D01*
Y55750D02*X23950D01*
X450Y25050D02*G75*G03X3200Y22300I2750J0D01*G01*
G54D49*X12550Y27150D03*
X7650D03*
G54D50*X22250Y34000D03*
Y40650D03*
Y46600D03*
Y53250D03*
G54D51*X21850Y24400D03*
G54D52*X22500Y26900D03*
Y28500D03*
Y30050D03*
Y31600D03*
G54D53*X3800Y23800D03*
G54D52*X22500Y42800D03*
Y44450D03*
G54D54*G36*
X19848Y36302D02*Y35798D01*
X21752D01*
Y36302D01*
X19848D01*
G37*
G36*
Y38902D02*Y38398D01*
X21752D01*
Y38902D01*
X19848D01*
G37*
G36*
Y36952D02*Y36448D01*
X21752D01*
Y36952D01*
X19848D01*
G37*
G36*
Y37602D02*Y37098D01*
X21752D01*
Y37602D01*
X19848D01*
G37*
G36*
Y38252D02*Y37748D01*
X21752D01*
Y38252D01*
X19848D01*
G37*
G36*
Y48902D02*Y48398D01*
X21752D01*
Y48902D01*
X19848D01*
G37*
G36*
Y51502D02*Y50998D01*
X21752D01*
Y51502D01*
X19848D01*
G37*
G36*
Y49552D02*Y49048D01*
X21752D01*
Y49552D01*
X19848D01*
G37*
G36*
Y50202D02*Y49698D01*
X21752D01*
Y50202D01*
X19848D01*
G37*
G36*
Y50852D02*Y50348D01*
X21752D01*
Y50852D01*
X19848D01*
G37*
M02*
