G04 start of page 10 for group -4015 idx -4015 *
G04 Title: (unknown), toppaste *
G04 Creator: pcb 4.2.0 *
G04 CreationDate: Sat Mar 28 09:12:03 2020 UTC *
G04 For: blinken *
G04 Format: Gerber/RS-274X *
G04 PCB-Dimensions (mm): 65.00 56.00 *
G04 PCB-Coordinate-Origin: lower left *
%MOMM*%
%FSLAX43Y43*%
%LNCRC*%
%ADD68C,0.002*%
G54D68*G36*
X19900Y36250D02*Y35850D01*
X21700D01*
Y36250D01*
X19900D01*
G37*
G36*
Y38850D02*Y38450D01*
X21700D01*
Y38850D01*
X19900D01*
G37*
G36*
Y36900D02*Y36500D01*
X21700D01*
Y36900D01*
X19900D01*
G37*
G36*
Y37550D02*Y37150D01*
X21700D01*
Y37550D01*
X19900D01*
G37*
G36*
Y38200D02*Y37800D01*
X21700D01*
Y38200D01*
X19900D01*
G37*
G36*
Y48850D02*Y48450D01*
X21700D01*
Y48850D01*
X19900D01*
G37*
G36*
Y51450D02*Y51050D01*
X21700D01*
Y51450D01*
X19900D01*
G37*
G36*
Y49500D02*Y49100D01*
X21700D01*
Y49500D01*
X19900D01*
G37*
G36*
Y50150D02*Y49750D01*
X21700D01*
Y50150D01*
X19900D01*
G37*
G36*
Y50800D02*Y50400D01*
X21700D01*
Y50800D01*
X19900D01*
G37*
M02*
