M48
METRIC,000.000
T61C1.200
T60C1.700
T59C0.889
T58C0.400
T57C0.508
T56C2.392
T55C0.300
T54C0.965
%
T55
X036660Y077560
X036660Y075960
X037460Y076760
X038260Y077560
X038260Y075960
T58
X003150Y051810
X003350Y046710
X003850Y057010
X004350Y041560
X005850Y062360
X006650Y036260
X008150Y030760
X009010Y071570
X009010Y066670
X012672Y077300
X013796Y023441
X016137Y073836
X020210Y076120
X021300Y018010
X021500Y077610
X021530Y082620
X021670Y030580
X022590Y061090
X024720Y063220
X024910Y049870
X025444Y074207
X026560Y077890
X026590Y084270
X026600Y016110
X028444Y074207
X028610Y048360
X029289Y059591
X030230Y048940
X030530Y079220
X031800Y014410
X032000Y086010
X033085Y059587
X033220Y037270
X033260Y030540
X033290Y034000
X033290Y027040
X033290Y023460
X034895Y059552
X035966Y053965
X036410Y073180
X037000Y013210
X037500Y087010
X038492Y028757
X038840Y056810
X039410Y039370
X039440Y044910
X040701Y059584
X042500Y013310
X042550Y024220
X042900Y086910
X043632Y046979
X043632Y039359
X043850Y059480
X047450Y039130
X047470Y040190
X047480Y033470
X048100Y014310
X048200Y085810
X048460Y046980
X050570Y073560
X051700Y073570
X052840Y073570
X052890Y076040
X053300Y016310
X053310Y027340
X053980Y073570
X055860Y041260
X056020Y076870
X056620Y039350
X056660Y085470
X056750Y076180
X057800Y076200
X057900Y062240
X058900Y018110
X060490Y048200
X060640Y031740
X063580Y084320
X064891Y038291
X065808Y023322
X066000Y079240
X066300Y082280
X066830Y078400
X069430Y079240
X070000Y082200
X071250Y030560
X071950Y046660
X072670Y087090
X073050Y035960
X075850Y041260
X075870Y081680
X076050Y057060
X076850Y046660
T57
X010312Y051781
X010541Y046726
X011024Y057013
X011608Y041544
X012700Y062360
X013741Y036261
X016688Y031664
X019202Y028819
X022428Y025974
X026619Y023282
X031800Y021260
X037033Y020361
X042520Y020412
X048108Y021453
X053315Y023510
X057531Y026050
X060604Y028565
X063195Y031308
X066345Y035931
X068478Y041240
T59
X007835Y003521
X014100Y082260
X017940Y037420
X017980Y040010
X043360Y076010
X043390Y078500
X051690Y047000
X065340Y050410
X072190Y073790
X075020Y087110
X075610Y069661
T54
X013410Y068910
X013410Y066370
X015950Y068910
X015950Y066370
X017568Y056415
X017568Y053875
X017568Y051335
X017568Y048795
X018490Y068910
X018490Y066370
X019530Y044300
X021030Y068910
X021030Y066370
X022070Y044300
X023570Y068910
X023570Y066370
X024610Y044300
X026110Y068910
X026110Y066370
X027150Y044300
X028650Y068910
X028650Y066370
X029690Y044300
X031190Y068910
X031190Y066370
X032230Y044300
X033730Y068910
X033730Y066370
X034770Y044300
X036270Y068910
X036270Y066370
X037310Y044300
X038810Y068910
X038810Y066370
X041350Y068910
X041350Y066370
X043890Y068910
X043890Y066370
X046430Y068910
X046430Y066370
X046538Y055762
X046538Y053222
X046538Y050682
X048970Y068910
X048970Y066370
X051510Y068910
X051510Y066370
X054050Y068910
X054050Y066370
X056590Y068910
X056590Y066370
X059130Y068910
X059130Y066370
X061670Y068910
X061670Y066370
T61
X071530Y076610
X071540Y085250
T60
X076890Y085250
X076900Y076610
T56
X008500Y018660
X066500Y018660
M30
