G04 start of page 7 for group -4062 idx -4062 *
G04 Title: (unknown), soldermask *
G04 Creator: pcb 4.2.0 *
G04 CreationDate: Sun Feb  2 22:12:39 2020 UTC *
G04 For: blinken *
G04 Format: Gerber/RS-274X *
G04 PCB-Dimensions (mm): 90.16 90.16 *
G04 PCB-Coordinate-Origin: lower left *
%MOMM*%
%FSLAX43Y43*%
%LNBOTTOMMASK*%
%ADD71C,1.700*%
%ADD70C,3.780*%
%ADD69C,0.002*%
%ADD68C,0.852*%
%ADD67C,1.676*%
G54D67*X26110Y66370D03*
X28650D03*
X31190D03*
X26110Y68910D03*
X28650D03*
X31190D03*
X33730D03*
X36270D03*
X38810D03*
X33730Y66370D03*
X36270D03*
X38810D03*
X41350D03*
G54D68*X37460Y76760D03*
X38260Y77560D03*
X36660D03*
X38260Y75960D03*
X36660D03*
G54D67*X18490Y66370D03*
Y68910D03*
X21030Y66370D03*
Y68910D03*
G54D69*G36*
X12572Y67208D02*Y65532D01*
X14248D01*
Y67208D01*
X12572D01*
G37*
G54D67*X13410Y68910D03*
X15950Y66370D03*
Y68910D03*
X23570Y66370D03*
Y68910D03*
G54D69*G36*
X16730Y57253D02*Y55577D01*
X18407D01*
Y57253D01*
X16730D01*
G37*
G54D67*X17568Y53875D03*
Y51335D03*
Y48795D03*
X41350Y68910D03*
X43890Y66370D03*
X46430D03*
X48970D03*
G54D69*G36*
X45700Y56600D02*Y54924D01*
X47376D01*
Y56600D01*
X45700D01*
G37*
G54D67*X46538Y53222D03*
Y50682D03*
X43890Y68910D03*
X46430D03*
X48970D03*
X51510D03*
X54050D03*
X56590D03*
X51510Y66370D03*
X54050D03*
X56590D03*
X59130D03*
Y68910D03*
X61670D03*
Y66370D03*
G54D69*G36*
X18692Y45138D02*Y43462D01*
X20368D01*
Y45138D01*
X18692D01*
G37*
G54D67*X22070Y44300D03*
X24610D03*
X27150D03*
X29690D03*
X32230D03*
X34770D03*
X37310D03*
G54D70*X66500Y18660D03*
G54D71*X65340Y50410D03*
X72190Y73790D03*
X17980Y40010D03*
X17940Y37420D03*
G54D70*X8500Y18660D03*
G54D71*X14100Y82260D03*
G54D69*G36*
X35880Y85424D02*Y83670D01*
X40134D01*
Y85424D01*
X35880D01*
G37*
G36*
X31515Y85215D02*X30063D01*
Y83162D01*
X31515D01*
Y85215D01*
G37*
G36*
X34515D02*X33063D01*
Y83162D01*
X34515D01*
Y85215D01*
G37*
G36*
X47936Y88404D02*Y86296D01*
X51444D01*
Y88404D01*
X47936D01*
G37*
G36*
Y81604D02*Y79496D01*
X51444D01*
Y81604D01*
X47936D01*
G37*
G36*
X48936Y85704D02*Y84196D01*
X54944D01*
Y85704D01*
X48936D01*
G37*
G36*
Y83704D02*Y82196D01*
X54944D01*
Y83704D01*
X48936D01*
G37*
G36*
X41813Y79827D02*Y77173D01*
X44967D01*
Y79827D01*
X41813D01*
G37*
G36*
X35880Y81824D02*Y80070D01*
X40134D01*
Y81824D01*
X35880D01*
G37*
G36*
X34086Y82289D02*X31432D01*
Y79135D01*
X34086D01*
Y82289D01*
G37*
G36*
X38810Y76135D02*Y75435D01*
X40010D01*
Y76135D01*
X38810D01*
G37*
G36*
Y76785D02*Y76085D01*
X40010D01*
Y76785D01*
X38810D01*
G37*
G36*
Y77435D02*Y76735D01*
X40010D01*
Y77435D01*
X38810D01*
G37*
G36*
Y78085D02*Y77385D01*
X40010D01*
Y78085D01*
X38810D01*
G37*
G36*
X37485Y75410D02*X36785D01*
Y74210D01*
X37485D01*
Y75410D01*
G37*
G36*
X38135D02*X37435D01*
Y74210D01*
X38135D01*
Y75410D01*
G37*
G36*
X38785D02*X38085D01*
Y74210D01*
X38785D01*
Y75410D01*
G37*
G36*
X45794Y76496D02*Y75044D01*
X47846D01*
Y76496D01*
X45794D01*
G37*
G36*
X41813Y73727D02*Y71073D01*
X44967D01*
Y73727D01*
X41813D01*
G37*
G36*
X45794Y73496D02*Y72044D01*
X47846D01*
Y73496D01*
X45794D01*
G37*
G36*
X40766Y72026D02*X39314D01*
Y70374D01*
X40766D01*
Y72026D01*
G37*
G36*
X38966D02*X37514D01*
Y70374D01*
X38966D01*
Y72026D01*
G37*
G36*
X38976Y73826D02*X37524D01*
Y72174D01*
X38976D01*
Y73826D01*
G37*
G36*
X40776D02*X39324D01*
Y72174D01*
X40776D01*
Y73826D01*
G37*
G36*
X38785Y79310D02*X38085D01*
Y78110D01*
X38785D01*
Y79310D01*
G37*
G36*
X38135D02*X37435D01*
Y78110D01*
X38135D01*
Y79310D01*
G37*
G36*
X37485D02*X36785D01*
Y78110D01*
X37485D01*
Y79310D01*
G37*
G36*
X34910Y78085D02*Y77385D01*
X36110D01*
Y78085D01*
X34910D01*
G37*
G36*
Y77435D02*Y76735D01*
X36110D01*
Y77435D01*
X34910D01*
G37*
G36*
Y76785D02*Y76085D01*
X36110D01*
Y76785D01*
X34910D01*
G37*
G36*
Y76135D02*Y75435D01*
X36110D01*
Y76135D01*
X34910D01*
G37*
G36*
X36835Y75410D02*X36135D01*
Y74210D01*
X36835D01*
Y75410D01*
G37*
G36*
Y79310D02*X36135D01*
Y78110D01*
X36835D01*
Y79310D01*
G37*
G36*
X35983Y78237D02*Y75283D01*
X38937D01*
Y78237D01*
X35983D01*
G37*
G36*
X33966Y78276D02*X32514D01*
Y76624D01*
X33966D01*
Y78276D01*
G37*
G36*
X32166D02*X30714D01*
Y76624D01*
X32166D01*
Y78276D01*
G37*
G36*
X34066Y76146D02*X32614D01*
Y74494D01*
X34066D01*
Y76146D01*
G37*
G36*
X32266D02*X30814D01*
Y74494D01*
X32266D01*
Y76146D01*
G37*
G36*
X38399Y20975D02*Y19522D01*
X40451D01*
Y20975D01*
X38399D01*
G37*
G36*
X20802Y28366D02*X19776Y27339D01*
X21227Y25888D01*
X22254Y26915D01*
X20802Y28366D01*
G37*
G36*
X18681Y26245D02*X17654Y25218D01*
X19106Y23767D01*
X20132Y24794D01*
X18681Y26245D01*
G37*
G36*
X12513Y41111D02*X11132Y40662D01*
X11766Y38710D01*
X13147Y39159D01*
X12513Y41111D01*
G37*
G36*
X9660Y40184D02*X8279Y39735D01*
X8913Y37783D01*
X10294Y38232D01*
X9660Y40184D01*
G37*
G36*
X11614Y56246D02*X10184Y56498D01*
X9828Y54477D01*
X11258Y54225D01*
X11614Y56246D01*
G37*
G36*
X8660Y56767D02*X7230Y57019D01*
X6874Y54998D01*
X8304Y54745D01*
X8660Y56767D01*
G37*
G36*
X25507Y60317D02*Y58864D01*
X27560D01*
Y60317D01*
X25507D01*
G37*
G36*
X34019Y63218D02*Y61766D01*
X36071D01*
Y63218D01*
X34019D01*
G37*
G36*
Y60219D02*Y58766D01*
X36071D01*
Y60219D01*
X34019D01*
G37*
G36*
X25507Y57317D02*Y55865D01*
X27560D01*
Y57317D01*
X25507D01*
G37*
G36*
X52922Y44985D02*Y43532D01*
X54974D01*
Y44985D01*
X52922D01*
G37*
G36*
X50638Y44989D02*Y43536D01*
X52690D01*
Y44989D01*
X50638D01*
G37*
G36*
X52922Y41985D02*Y40533D01*
X54974D01*
Y41985D01*
X52922D01*
G37*
G36*
X50638Y41989D02*Y40537D01*
X52690D01*
Y41989D01*
X50638D01*
G37*
G36*
X23702Y72871D02*X22250D01*
Y70818D01*
X23702D01*
Y72871D01*
G37*
G36*
X26200Y72857D02*X24748D01*
Y70805D01*
X26200D01*
Y72857D01*
G37*
G36*
X26170Y75233D02*X24718D01*
Y73180D01*
X26170D01*
Y75233D01*
G37*
G36*
X15216Y78104D02*Y75996D01*
X18724D01*
Y78104D01*
X15216D01*
G37*
G36*
X16216Y82204D02*Y80696D01*
X22224D01*
Y82204D01*
X16216D01*
G37*
G36*
Y80204D02*Y78696D01*
X22224D01*
Y80204D01*
X16216D01*
G37*
G36*
X15216Y84904D02*Y82796D01*
X18724D01*
Y84904D01*
X15216D01*
G37*
G36*
X27986Y82289D02*X25332D01*
Y79135D01*
X27986D01*
Y82289D01*
G37*
G36*
X29200Y72857D02*X27748D01*
Y70805D01*
X29200D01*
Y72857D01*
G37*
G36*
X29170Y75233D02*X27717D01*
Y73180D01*
X29170D01*
Y75233D01*
G37*
G36*
X20703Y72871D02*X19250D01*
Y70818D01*
X20703D01*
Y72871D01*
G37*
G36*
X14996Y75524D02*X13543D01*
Y73472D01*
X14996D01*
Y75524D01*
G37*
G36*
X11996D02*X10544D01*
Y73472D01*
X11996D01*
Y75524D01*
G37*
G36*
X76835Y66635D02*X74385D01*
Y63985D01*
X76835D01*
Y66635D01*
G37*
G36*
X70500Y77160D02*Y76060D01*
X72600D01*
Y77160D01*
X70500D01*
G37*
G36*
X73115Y75113D02*Y73660D01*
X75168D01*
Y75113D01*
X73115D01*
G37*
G36*
X76835Y70935D02*X74385D01*
Y68285D01*
X76835D01*
Y70935D01*
G37*
G36*
X75610Y77160D02*Y76060D01*
X78210D01*
Y77160D01*
X75610D01*
G37*
G36*
X73115Y78112D02*Y76660D01*
X75168D01*
Y78112D01*
X73115D01*
G37*
G36*
X75610Y85800D02*Y84700D01*
X78210D01*
Y85800D01*
X75610D01*
G37*
G36*
X70500D02*Y84700D01*
X72600D01*
Y85800D01*
X70500D01*
G37*
G36*
X72069Y81938D02*X70617D01*
Y79885D01*
X72069D01*
Y81938D01*
G37*
G36*
X72060Y84190D02*X70608D01*
Y82137D01*
X72060D01*
Y84190D01*
G37*
G36*
X75069Y81938D02*X73617D01*
Y79885D01*
X75069D01*
Y81938D01*
G37*
G36*
X75060Y84190D02*X73608D01*
Y82137D01*
X75060D01*
Y84190D01*
G37*
G36*
X63865Y39017D02*Y37564D01*
X65918D01*
Y39017D01*
X63865D01*
G37*
G36*
Y42017D02*Y40564D01*
X65918D01*
Y42017D01*
X63865D01*
G37*
G36*
X63003Y29936D02*X61976Y30963D01*
X60525Y29512D01*
X61552Y28485D01*
X63003Y29936D01*
G37*
G36*
X65124Y27814D02*X64097Y28841D01*
X62646Y27390D01*
X63673Y26363D01*
X65124Y27814D01*
G37*
G36*
X56603Y41747D02*Y40743D01*
X58207D01*
Y41747D01*
X56603D01*
G37*
G36*
X61757Y45727D02*X58303D01*
Y40573D01*
X61757D01*
Y45727D01*
G37*
G36*
X56603Y43017D02*Y42013D01*
X58207D01*
Y43017D01*
X56603D01*
G37*
G36*
Y44287D02*Y43283D01*
X58207D01*
Y44287D01*
X56603D01*
G37*
G36*
Y45557D02*Y44553D01*
X58207D01*
Y45557D01*
X56603D01*
G37*
G36*
X61853Y41747D02*Y40743D01*
X63457D01*
Y41747D01*
X61853D01*
G37*
G36*
Y43017D02*Y42013D01*
X63457D01*
Y43017D01*
X61853D01*
G37*
G36*
Y44287D02*Y43283D01*
X63457D01*
Y44287D01*
X61853D01*
G37*
G36*
Y45557D02*Y44553D01*
X63457D01*
Y45557D01*
X61853D01*
G37*
G36*
X38399Y17975D02*Y16522D01*
X40451D01*
Y17975D01*
X38399D01*
G37*
G36*
X60332Y79947D02*X58880D01*
Y77895D01*
X60332D01*
Y79947D01*
G37*
G36*
X59206Y87057D02*X57754D01*
Y85004D01*
X59206D01*
Y87057D01*
G37*
G36*
X59190Y84736D02*X57737D01*
Y82684D01*
X59190D01*
Y84736D01*
G37*
G36*
X60334Y75404D02*X58882D01*
Y73351D01*
X60334D01*
Y75404D01*
G37*
G36*
X60350Y77583D02*X58897D01*
Y75531D01*
X60350D01*
Y77583D01*
G37*
G36*
X62206Y87057D02*X60753D01*
Y85004D01*
X62206D01*
Y87057D01*
G37*
G36*
X62189Y84736D02*X60737D01*
Y82684D01*
X62189D01*
Y84736D01*
G37*
G36*
X63334Y75404D02*X61882D01*
Y73351D01*
X63334D01*
Y75404D01*
G37*
G36*
X63350Y77583D02*X61897D01*
Y75531D01*
X63350D01*
Y77583D01*
G37*
G36*
X63332Y79947D02*X61880D01*
Y77895D01*
X63332D01*
Y79947D01*
G37*
G36*
X67492Y80840D02*X66989D01*
Y79908D01*
X67492D01*
Y80840D01*
G37*
G36*
X66992D02*X66489D01*
Y79908D01*
X66992D01*
Y80840D01*
G37*
G36*
X66492D02*X65989D01*
Y79908D01*
X66492D01*
Y80840D01*
G37*
G36*
X65991D02*X65489D01*
Y79908D01*
X65991D01*
Y80840D01*
G37*
G36*
X65491D02*X64988D01*
Y79908D01*
X65491D01*
Y80840D01*
G37*
G36*
X63808Y81591D02*Y81088D01*
X64740D01*
Y81591D01*
X63808D01*
G37*
G36*
Y82091D02*Y81589D01*
X64740D01*
Y82091D01*
X63808D01*
G37*
G36*
Y82592D02*Y82089D01*
X64740D01*
Y82592D01*
X63808D01*
G37*
G36*
Y83092D02*Y82589D01*
X64740D01*
Y83092D01*
X63808D01*
G37*
G36*
Y83592D02*Y83089D01*
X64740D01*
Y83592D01*
X63808D01*
G37*
G36*
X67740D02*Y83089D01*
X68672D01*
Y83592D01*
X67740D01*
G37*
G36*
Y83092D02*Y82589D01*
X68672D01*
Y83092D01*
X67740D01*
G37*
G36*
Y82592D02*Y82089D01*
X68672D01*
Y82592D01*
X67740D01*
G37*
G36*
Y82091D02*Y81589D01*
X68672D01*
Y82091D01*
X67740D01*
G37*
G36*
Y81591D02*Y81088D01*
X68672D01*
Y81591D01*
X67740D01*
G37*
G36*
X64889Y82442D02*Y80989D01*
X66342D01*
Y82442D01*
X64889D01*
G37*
G36*
X66138D02*Y80989D01*
X67591D01*
Y82442D01*
X66138D01*
G37*
G36*
Y83691D02*Y82238D01*
X67591D01*
Y83691D01*
X66138D01*
G37*
G36*
X64889D02*Y82238D01*
X66342D01*
Y83691D01*
X64889D01*
G37*
G36*
X65491Y84772D02*X64988D01*
Y83840D01*
X65491D01*
Y84772D01*
G37*
G36*
X65991D02*X65489D01*
Y83840D01*
X65991D01*
Y84772D01*
G37*
G36*
X66492D02*X65989D01*
Y83840D01*
X66492D01*
Y84772D01*
G37*
G36*
X66992D02*X66489D01*
Y83840D01*
X66992D01*
Y84772D01*
G37*
G36*
X67492D02*X66989D01*
Y83840D01*
X67492D01*
Y84772D01*
G37*
G36*
X41427Y60600D02*X39975D01*
Y58548D01*
X41427D01*
Y60600D01*
G37*
G36*
X38427D02*X36975D01*
Y58548D01*
X38427D01*
Y60600D01*
G37*
G36*
X37730Y64419D02*X36714D01*
Y63251D01*
X37730D01*
Y64419D01*
G37*
G36*
X39711D02*X38695D01*
Y63251D01*
X39711D01*
Y64419D01*
G37*
G36*
X38720Y62336D02*X37704D01*
Y61168D01*
X38720D01*
Y62336D01*
G37*
G36*
X36774Y57901D02*X35321D01*
Y55849D01*
X36774D01*
Y57901D01*
G37*
G36*
X33774D02*X32322D01*
Y55849D01*
X33774D01*
Y57901D01*
G37*
G36*
X28278Y57344D02*Y55892D01*
X30330D01*
Y57344D01*
X28278D01*
G37*
G36*
Y60344D02*Y58891D01*
X30330D01*
Y60344D01*
X28278D01*
G37*
G36*
X34940Y51691D02*Y50239D01*
X36993D01*
Y51691D01*
X34940D01*
G37*
G36*
Y54691D02*Y53239D01*
X36993D01*
Y54691D01*
X34940D01*
G37*
M02*
