G04 start of page 12 for group -3984 idx -3984 *
G04 Title: (unknown), fab *
G04 Creator: pcb 4.2.0 *
G04 CreationDate: Sun Feb  2 22:12:39 2020 UTC *
G04 For: blinken *
G04 Format: Gerber/RS-274X *
G04 PCB-Dimensions (mm): 90.16 90.16 *
G04 PCB-Coordinate-Origin: lower left *
%MOMM*%
%FSLAX43Y43*%
%LNFAB*%
%ADD89C,0.254*%
%ADD88C,0.191*%
%ADD87C,0.152*%
%ADD86R,0.203X0.203*%
%ADD85C,0.002*%
G54D85*G36*
X7890Y19413D02*X9253Y18050D01*
X9110Y17907D01*
X7747Y19270D01*
X7890Y19413D01*
G37*
G36*
X7747Y18050D02*X9110Y19413D01*
X9253Y19270D01*
X7890Y17907D01*
X7747Y18050D01*
G37*
G54D86*X8094Y19066D02*X8906D01*
X8094D02*Y18254D01*
X8906D01*
Y19066D02*Y18254D01*
G54D85*G36*
X65890Y19413D02*X67253Y18050D01*
X67110Y17907D01*
X65747Y19270D01*
X65890Y19413D01*
G37*
G36*
X65747Y18050D02*X67110Y19413D01*
X67253Y19270D01*
X65890Y17907D01*
X65747Y18050D01*
G37*
G54D86*X66094Y19066D02*X66906D01*
X66094D02*Y18254D01*
X66906D01*
Y19066D02*Y18254D01*
G54D85*G36*
X3200Y93771D02*X4563Y92408D01*
X4420Y92264D01*
X3057Y93627D01*
X3200Y93771D01*
G37*
G36*
X3057Y92408D02*X4420Y93771D01*
X4563Y93627D01*
X3200Y92264D01*
X3057Y92408D01*
G37*
G54D86*X3404Y93424D02*X4216D01*
X3404D02*Y92611D01*
X4216D01*
Y93424D02*Y92611D01*
G54D87*X34290Y93589D02*X34671Y92827D01*
X35052Y93589D01*
X34671Y92827D02*Y92065D01*
X35509Y92903D02*X36081D01*
X35509Y92065D02*X36271D01*
X35509Y93589D02*Y92065D01*
Y93589D02*X36271D01*
X37490D02*X37681Y93399D01*
X36919Y93589D02*X37490D01*
X36728Y93399D02*X36919Y93589D01*
X36728Y93399D02*Y93018D01*
X36919Y92827D01*
X37490D01*
X37681Y92637D01*
Y92256D01*
X37490Y92065D02*X37681Y92256D01*
X36919Y92065D02*X37490D01*
X36728Y92256D02*X36919Y92065D01*
X24892Y93399D02*X25082Y93589D01*
X25654D01*
X25844Y93399D01*
Y93018D01*
X24892Y92065D02*X25844Y93018D01*
X24892Y92065D02*X25844D01*
X11430Y92256D02*X11620Y92065D01*
X11430Y93399D02*Y92256D01*
Y93399D02*X11620Y93589D01*
X12002D01*
X12192Y93399D01*
Y92256D01*
X12002Y92065D02*X12192Y92256D01*
X11620Y92065D02*X12002D01*
X11430Y92446D02*X12192Y93208D01*
X12649Y92065D02*X12840D01*
X13297Y92256D02*X13487Y92065D01*
X13297Y93399D02*Y92256D01*
Y93399D02*X13487Y93589D01*
X13868D01*
X14059Y93399D01*
Y92256D01*
X13868Y92065D02*X14059Y92256D01*
X13487Y92065D02*X13868D01*
X13297Y92446D02*X14059Y93208D01*
X14707Y92065D02*X15278Y92827D01*
Y93399D02*Y92827D01*
X15088Y93589D02*X15278Y93399D01*
X14707Y93589D02*X15088D01*
X14516Y93399D02*X14707Y93589D01*
X14516Y93399D02*Y93018D01*
X14707Y92827D01*
X15278D01*
X15735Y92637D02*X16497Y93589D01*
X15735Y92637D02*X16688D01*
X16497Y93589D02*Y92065D01*
X76900Y77423D02*Y75797D01*
X76087Y76610D02*X77713D01*
X76494Y77016D02*X77306D01*
X76494D02*Y76204D01*
X77306D01*
Y77016D02*Y76204D01*
X76890Y86063D02*Y84437D01*
X76077Y85250D02*X77703D01*
X76484Y85656D02*X77296D01*
X76484D02*Y84844D01*
X77296D01*
Y85656D02*Y84844D01*
X3810Y97640D02*Y96015D01*
X2997Y96828D02*X4623D01*
X3404Y97234D02*X4216D01*
X3404D02*Y96421D01*
X4216D01*
Y97234D02*Y96421D01*
X34290Y97399D02*X34671Y96637D01*
X35052Y97399D01*
X34671Y96637D02*Y95875D01*
X35509Y96713D02*X36081D01*
X35509Y95875D02*X36271D01*
X35509Y97399D02*Y95875D01*
Y97399D02*X36271D01*
X37490D02*X37681Y97209D01*
X36919Y97399D02*X37490D01*
X36728Y97209D02*X36919Y97399D01*
X36728Y97209D02*Y96828D01*
X36919Y96637D01*
X37490D01*
X37681Y96447D01*
Y96066D01*
X37490Y95875D02*X37681Y96066D01*
X36919Y95875D02*X37490D01*
X36728Y96066D02*X36919Y95875D01*
X24892Y97209D02*X25082Y97399D01*
X25654D01*
X25844Y97209D01*
Y96828D01*
X24892Y95875D02*X25844Y96828D01*
X24892Y95875D02*X25844D01*
X11430Y96066D02*X11620Y95875D01*
X11430Y97209D02*Y96066D01*
Y97209D02*X11620Y97399D01*
X12002D01*
X12192Y97209D01*
Y96066D01*
X12002Y95875D02*X12192Y96066D01*
X11620Y95875D02*X12002D01*
X11430Y96256D02*X12192Y97018D01*
X12649Y95875D02*X12840D01*
X13297Y96066D02*X13487Y95875D01*
X13297Y97209D02*Y96066D01*
Y97209D02*X13487Y97399D01*
X13868D01*
X14059Y97209D01*
Y96066D01*
X13868Y95875D02*X14059Y96066D01*
X13487Y95875D02*X13868D01*
X13297Y96256D02*X14059Y97018D01*
X15088Y97399D02*X15278Y97209D01*
X14707Y97399D02*X15088D01*
X14516Y97209D02*X14707Y97399D01*
X14516Y97209D02*Y96066D01*
X14707Y95875D01*
X15088Y96713D02*X15278Y96523D01*
X14516Y96713D02*X15088D01*
X14707Y95875D02*X15088D01*
X15278Y96066D01*
Y96523D02*Y96066D01*
X15926Y95875D02*X16688Y97399D01*
X15735D02*X16688D01*
X71540Y85250D02*Y84437D01*
Y85250D02*X72244Y85656D01*
X71540Y85250D02*X70836Y85656D01*
X71134Y85250D02*G75*G03X71946Y85250I406J0D01*G01*
G75*G03X71134Y85250I-406J0D01*G01*
X71530Y76610D02*Y75797D01*
Y76610D02*X72234Y77016D01*
X71530Y76610D02*X70826Y77016D01*
X71124Y76610D02*G75*G03X71936Y76610I406J0D01*G01*
G75*G03X71124Y76610I-406J0D01*G01*
X3810Y100638D02*Y99825D01*
Y100638D02*X4514Y101044D01*
X3810Y100638D02*X3106Y101044D01*
X3404Y100638D02*G75*G03X4216Y100638I406J0D01*G01*
G75*G03X3404Y100638I-406J0D01*G01*
X34290Y101209D02*X34671Y100447D01*
X35052Y101209D01*
X34671Y100447D02*Y99685D01*
X35509Y100523D02*X36081D01*
X35509Y99685D02*X36271D01*
X35509Y101209D02*Y99685D01*
Y101209D02*X36271D01*
X37490D02*X37681Y101019D01*
X36919Y101209D02*X37490D01*
X36728Y101019D02*X36919Y101209D01*
X36728Y101019D02*Y100638D01*
X36919Y100447D01*
X37490D01*
X37681Y100257D01*
Y99876D01*
X37490Y99685D02*X37681Y99876D01*
X36919Y99685D02*X37490D01*
X36728Y99876D02*X36919Y99685D01*
X24892Y101019D02*X25082Y101209D01*
X25654D01*
X25844Y101019D01*
Y100638D01*
X24892Y99685D02*X25844Y100638D01*
X24892Y99685D02*X25844D01*
X11430Y99876D02*X11620Y99685D01*
X11430Y101019D02*Y99876D01*
Y101019D02*X11620Y101209D01*
X12002D01*
X12192Y101019D01*
Y99876D01*
X12002Y99685D02*X12192Y99876D01*
X11620Y99685D02*X12002D01*
X11430Y100066D02*X12192Y100828D01*
X12649Y99685D02*X12840D01*
X13297Y99876D02*X13487Y99685D01*
X13297Y101019D02*Y99876D01*
Y101019D02*X13487Y101209D01*
X13868D01*
X14059Y101019D01*
Y99876D01*
X13868Y99685D02*X14059Y99876D01*
X13487Y99685D02*X13868D01*
X13297Y100066D02*X14059Y100828D01*
X14516Y100257D02*X15278Y101209D01*
X14516Y100257D02*X15469D01*
X15278Y101209D02*Y99685D01*
X16116D02*X16878Y101209D01*
X15926D02*X16878D01*
X13004Y66776D02*X13816D01*
X13004D02*Y65964D01*
X13816D01*
Y66776D02*Y65964D01*
X13004Y69316D02*X13816D01*
X13004D02*Y68504D01*
X13816D01*
Y69316D02*Y68504D01*
X15544Y66776D02*X16356D01*
X15544D02*Y65964D01*
X16356D01*
Y66776D02*Y65964D01*
X15544Y69316D02*X16356D01*
X15544D02*Y68504D01*
X16356D01*
Y69316D02*Y68504D01*
X18084Y66776D02*X18896D01*
X18084D02*Y65964D01*
X18896D01*
Y66776D02*Y65964D01*
X18084Y69316D02*X18896D01*
X18084D02*Y68504D01*
X18896D01*
Y69316D02*Y68504D01*
X20624Y66776D02*X21436D01*
X20624D02*Y65964D01*
X21436D01*
Y66776D02*Y65964D01*
X20624Y69316D02*X21436D01*
X20624D02*Y68504D01*
X21436D01*
Y69316D02*Y68504D01*
X23164Y66776D02*X23976D01*
X23164D02*Y65964D01*
X23976D01*
Y66776D02*Y65964D01*
X23164Y69316D02*X23976D01*
X23164D02*Y68504D01*
X23976D01*
Y69316D02*Y68504D01*
X25704Y66776D02*X26516D01*
X25704D02*Y65964D01*
X26516D01*
Y66776D02*Y65964D01*
X25704Y69316D02*X26516D01*
X25704D02*Y68504D01*
X26516D01*
Y69316D02*Y68504D01*
X28244Y66776D02*X29056D01*
X28244D02*Y65964D01*
X29056D01*
Y66776D02*Y65964D01*
X28244Y69316D02*X29056D01*
X28244D02*Y68504D01*
X29056D01*
Y69316D02*Y68504D01*
X30784Y66776D02*X31596D01*
X30784D02*Y65964D01*
X31596D01*
Y66776D02*Y65964D01*
X30784Y69316D02*X31596D01*
X30784D02*Y68504D01*
X31596D01*
Y69316D02*Y68504D01*
X33324Y66776D02*X34136D01*
X33324D02*Y65964D01*
X34136D01*
Y66776D02*Y65964D01*
X33324Y69316D02*X34136D01*
X33324D02*Y68504D01*
X34136D01*
Y69316D02*Y68504D01*
X35864Y66776D02*X36676D01*
X35864D02*Y65964D01*
X36676D01*
Y66776D02*Y65964D01*
X35864Y69316D02*X36676D01*
X35864D02*Y68504D01*
X36676D01*
Y69316D02*Y68504D01*
X38404Y66776D02*X39216D01*
X38404D02*Y65964D01*
X39216D01*
Y66776D02*Y65964D01*
X38404Y69316D02*X39216D01*
X38404D02*Y68504D01*
X39216D01*
Y69316D02*Y68504D01*
X40944Y66776D02*X41756D01*
X40944D02*Y65964D01*
X41756D01*
Y66776D02*Y65964D01*
X40944Y69316D02*X41756D01*
X40944D02*Y68504D01*
X41756D01*
Y69316D02*Y68504D01*
X43484Y66776D02*X44296D01*
X43484D02*Y65964D01*
X44296D01*
Y66776D02*Y65964D01*
X43484Y69316D02*X44296D01*
X43484D02*Y68504D01*
X44296D01*
Y69316D02*Y68504D01*
X46024Y66776D02*X46836D01*
X46024D02*Y65964D01*
X46836D01*
Y66776D02*Y65964D01*
X46024Y69316D02*X46836D01*
X46024D02*Y68504D01*
X46836D01*
Y69316D02*Y68504D01*
X48564Y66776D02*X49376D01*
X48564D02*Y65964D01*
X49376D01*
Y66776D02*Y65964D01*
X48564Y69316D02*X49376D01*
X48564D02*Y68504D01*
X49376D01*
Y69316D02*Y68504D01*
X51104Y66776D02*X51916D01*
X51104D02*Y65964D01*
X51916D01*
Y66776D02*Y65964D01*
X51104Y69316D02*X51916D01*
X51104D02*Y68504D01*
X51916D01*
Y69316D02*Y68504D01*
X53644Y66776D02*X54456D01*
X53644D02*Y65964D01*
X54456D01*
Y66776D02*Y65964D01*
X53644Y69316D02*X54456D01*
X53644D02*Y68504D01*
X54456D01*
Y69316D02*Y68504D01*
X56184Y66776D02*X56996D01*
X56184D02*Y65964D01*
X56996D01*
Y66776D02*Y65964D01*
X56184Y69316D02*X56996D01*
X56184D02*Y68504D01*
X56996D01*
Y69316D02*Y68504D01*
X58724Y66776D02*X59536D01*
X58724D02*Y65964D01*
X59536D01*
Y66776D02*Y65964D01*
X58724Y69316D02*X59536D01*
X58724D02*Y68504D01*
X59536D01*
Y69316D02*Y68504D01*
X61264Y66776D02*X62076D01*
X61264D02*Y65964D01*
X62076D01*
Y66776D02*Y65964D01*
X61264Y69316D02*X62076D01*
X61264D02*Y68504D01*
X62076D01*
Y69316D02*Y68504D01*
X19124Y44706D02*X19936D01*
X19124D02*Y43894D01*
X19936D01*
Y44706D02*Y43894D01*
X21664Y44706D02*X22476D01*
X21664D02*Y43894D01*
X22476D01*
Y44706D02*Y43894D01*
X24204Y44706D02*X25016D01*
X24204D02*Y43894D01*
X25016D01*
Y44706D02*Y43894D01*
X26744Y44706D02*X27556D01*
X26744D02*Y43894D01*
X27556D01*
Y44706D02*Y43894D01*
X29284Y44706D02*X30096D01*
X29284D02*Y43894D01*
X30096D01*
Y44706D02*Y43894D01*
X31824Y44706D02*X32636D01*
X31824D02*Y43894D01*
X32636D01*
Y44706D02*Y43894D01*
X34364Y44706D02*X35176D01*
X34364D02*Y43894D01*
X35176D01*
Y44706D02*Y43894D01*
X36904Y44706D02*X37716D01*
X36904D02*Y43894D01*
X37716D01*
Y44706D02*Y43894D01*
X46132Y56168D02*X46944D01*
X46132D02*Y55355D01*
X46944D01*
Y56168D02*Y55355D01*
X46132Y53628D02*X46944D01*
X46132D02*Y52815D01*
X46944D01*
Y53628D02*Y52815D01*
X46132Y51088D02*X46944D01*
X46132D02*Y50275D01*
X46944D01*
Y51088D02*Y50275D01*
X17162Y56822D02*X17975D01*
X17162D02*Y56009D01*
X17975D01*
Y56822D02*Y56009D01*
X17162Y54282D02*X17975D01*
X17162D02*Y53469D01*
X17975D01*
Y54282D02*Y53469D01*
X17162Y51742D02*X17975D01*
X17162D02*Y50929D01*
X17975D01*
Y51742D02*Y50929D01*
X17162Y49202D02*X17975D01*
X17162D02*Y48389D01*
X17975D01*
Y49202D02*Y48389D01*
X3404Y104854D02*X4216D01*
X3404D02*Y104041D01*
X4216D01*
Y104854D02*Y104041D01*
X34290Y105019D02*X34671Y104257D01*
X35052Y105019D01*
X34671Y104257D02*Y103495D01*
X35509Y104333D02*X36081D01*
X35509Y103495D02*X36271D01*
X35509Y105019D02*Y103495D01*
Y105019D02*X36271D01*
X37490D02*X37681Y104829D01*
X36919Y105019D02*X37490D01*
X36728Y104829D02*X36919Y105019D01*
X36728Y104829D02*Y104448D01*
X36919Y104257D01*
X37490D01*
X37681Y104067D01*
Y103686D01*
X37490Y103495D02*X37681Y103686D01*
X36919Y103495D02*X37490D01*
X36728Y103686D02*X36919Y103495D01*
X24892Y105019D02*X25654D01*
X24892D02*Y104257D01*
X25082Y104448D01*
X25464D01*
X25654Y104257D01*
Y103686D01*
X25464Y103495D02*X25654Y103686D01*
X25082Y103495D02*X25464D01*
X24892Y103686D02*X25082Y103495D01*
X26111Y105019D02*X26873D01*
X26111D02*Y104257D01*
X26302Y104448D01*
X26683D01*
X26873Y104257D01*
Y103686D01*
X26683Y103495D02*X26873Y103686D01*
X26302Y103495D02*X26683D01*
X26111Y103686D02*X26302Y103495D01*
X11430Y103686D02*X11620Y103495D01*
X11430Y104829D02*Y103686D01*
Y104829D02*X11620Y105019D01*
X12002D01*
X12192Y104829D01*
Y103686D01*
X12002Y103495D02*X12192Y103686D01*
X11620Y103495D02*X12002D01*
X11430Y103876D02*X12192Y104638D01*
X12649Y103495D02*X12840D01*
X13297Y103686D02*X13487Y103495D01*
X13297Y104829D02*Y103686D01*
Y104829D02*X13487Y105019D01*
X13868D01*
X14059Y104829D01*
Y103686D01*
X13868Y103495D02*X14059Y103686D01*
X13487Y103495D02*X13868D01*
X13297Y103876D02*X14059Y104638D01*
X14516Y104829D02*X14707Y105019D01*
X15088D01*
X15278Y104829D01*
X15088Y103495D02*X15278Y103686D01*
X14707Y103495D02*X15088D01*
X14516Y103686D02*X14707Y103495D01*
Y104333D02*X15088D01*
X15278Y104829D02*Y104524D01*
Y104143D02*Y103686D01*
Y104143D02*X15088Y104333D01*
X15278Y104524D02*X15088Y104333D01*
X15735Y103686D02*X15926Y103495D01*
X15735Y103990D02*Y103686D01*
Y103990D02*X16002Y104257D01*
X16231D01*
X16497Y103990D01*
Y103686D01*
X16307Y103495D02*X16497Y103686D01*
X15926Y103495D02*X16307D01*
X15735Y104524D02*X16002Y104257D01*
X15735Y104829D02*Y104524D01*
Y104829D02*X15926Y105019D01*
X16307D01*
X16497Y104829D01*
Y104524D01*
X16231Y104257D02*X16497Y104524D01*
X7631Y3521D02*G75*G03X8038Y3521I203J0D01*G01*
G75*G03X7631Y3521I-203J0D01*G01*
X74817Y87110D02*G75*G03X75223Y87110I203J0D01*G01*
G75*G03X74817Y87110I-203J0D01*G01*
X43157Y76010D02*G75*G03X43563Y76010I203J0D01*G01*
G75*G03X43157Y76010I-203J0D01*G01*
X51487Y47000D02*G75*G03X51893Y47000I203J0D01*G01*
G75*G03X51487Y47000I-203J0D01*G01*
X43187Y78500D02*G75*G03X43593Y78500I203J0D01*G01*
G75*G03X43187Y78500I-203J0D01*G01*
X75407Y69661D02*G75*G03X75813Y69661I203J0D01*G01*
G75*G03X75407Y69661I-203J0D01*G01*
X13897Y82260D02*G75*G03X14303Y82260I203J0D01*G01*
G75*G03X13897Y82260I-203J0D01*G01*
X71987Y73790D02*G75*G03X72393Y73790I203J0D01*G01*
G75*G03X71987Y73790I-203J0D01*G01*
X17777Y40010D02*G75*G03X18183Y40010I203J0D01*G01*
G75*G03X17777Y40010I-203J0D01*G01*
X17737Y37420D02*G75*G03X18143Y37420I203J0D01*G01*
G75*G03X17737Y37420I-203J0D01*G01*
X65137Y50410D02*G75*G03X65543Y50410I203J0D01*G01*
G75*G03X65137Y50410I-203J0D01*G01*
X3607Y108258D02*G75*G03X4013Y108258I203J0D01*G01*
G75*G03X3607Y108258I-203J0D01*G01*
X34290Y108829D02*X34671Y108067D01*
X35052Y108829D01*
X34671Y108067D02*Y107305D01*
X35509Y108143D02*X36081D01*
X35509Y107305D02*X36271D01*
X35509Y108829D02*Y107305D01*
Y108829D02*X36271D01*
X37490D02*X37681Y108639D01*
X36919Y108829D02*X37490D01*
X36728Y108639D02*X36919Y108829D01*
X36728Y108639D02*Y108258D01*
X36919Y108067D01*
X37490D01*
X37681Y107877D01*
Y107496D01*
X37490Y107305D02*X37681Y107496D01*
X36919Y107305D02*X37490D01*
X36728Y107496D02*X36919Y107305D01*
X24892Y108524D02*X25197Y108829D01*
Y107305D01*
X24892D02*X25464D01*
X25921Y108524D02*X26226Y108829D01*
Y107305D01*
X25921D02*X26492D01*
X11430Y107496D02*X11620Y107305D01*
X11430Y108639D02*Y107496D01*
Y108639D02*X11620Y108829D01*
X12002D01*
X12192Y108639D01*
Y107496D01*
X12002Y107305D02*X12192Y107496D01*
X11620Y107305D02*X12002D01*
X11430Y107686D02*X12192Y108448D01*
X12649Y107305D02*X12840D01*
X13297Y107496D02*X13487Y107305D01*
X13297Y108639D02*Y107496D01*
Y108639D02*X13487Y108829D01*
X13868D01*
X14059Y108639D01*
Y107496D01*
X13868Y107305D02*X14059Y107496D01*
X13487Y107305D02*X13868D01*
X13297Y107686D02*X14059Y108448D01*
X14516Y108639D02*X14707Y108829D01*
X15088D01*
X15278Y108639D01*
X15088Y107305D02*X15278Y107496D01*
X14707Y107305D02*X15088D01*
X14516Y107496D02*X14707Y107305D01*
Y108143D02*X15088D01*
X15278Y108639D02*Y108334D01*
Y107953D02*Y107496D01*
Y107953D02*X15088Y108143D01*
X15278Y108334D02*X15088Y108143D01*
X15735Y108829D02*X16497D01*
X15735D02*Y108067D01*
X15926Y108258D01*
X16307D01*
X16497Y108067D01*
Y107496D01*
X16307Y107305D02*X16497Y107496D01*
X15926Y107305D02*X16307D01*
X15735Y107496D02*X15926Y107305D01*
X68174Y41544D02*X68783Y40935D01*
X68174D02*X68783Y41544D01*
X66040Y36236D02*X66650Y35626D01*
X66040D02*X66650Y36236D01*
X62890Y31613D02*X63500Y31004D01*
X62890D02*X63500Y31613D01*
X60300Y28870D02*X60909Y28260D01*
X60300D02*X60909Y28870D01*
X57226Y26355D02*X57836Y25746D01*
X57226D02*X57836Y26355D01*
X53010Y23815D02*X53619Y23206D01*
X53010D02*X53619Y23815D01*
X47803Y21758D02*X48412Y21148D01*
X47803D02*X48412Y21758D01*
X42215Y20716D02*X42824Y20107D01*
X42215D02*X42824Y20716D01*
X36728Y20666D02*X37338Y20056D01*
X36728D02*X37338Y20666D01*
X31495Y21565D02*X32105Y20955D01*
X31495D02*X32105Y21565D01*
X26314Y23587D02*X26924Y22977D01*
X26314D02*X26924Y23587D01*
X22123Y26279D02*X22733Y25670D01*
X22123D02*X22733Y26279D01*
X18898Y29124D02*X19507Y28514D01*
X18898D02*X19507Y29124D01*
X16383Y31969D02*X16993Y31359D01*
X16383D02*X16993Y31969D01*
X13437Y36566D02*X14046Y35956D01*
X13437D02*X14046Y36566D01*
X11303Y41849D02*X11913Y41240D01*
X11303D02*X11913Y41849D01*
X10236Y47031D02*X10846Y46421D01*
X10236D02*X10846Y47031D01*
X10008Y52086D02*X10617Y51476D01*
X10008D02*X10617Y52086D01*
X10719Y57318D02*X11328Y56708D01*
X10719D02*X11328Y57318D01*
X12395Y62665D02*X13005Y62055D01*
X12395D02*X13005Y62665D01*
X3505Y112372D02*X4115Y111763D01*
X3505D02*X4115Y112372D01*
X34290Y112639D02*X34671Y111877D01*
X35052Y112639D01*
X34671Y111877D02*Y111115D01*
X35509Y111953D02*X36081D01*
X35509Y111115D02*X36271D01*
X35509Y112639D02*Y111115D01*
Y112639D02*X36271D01*
X37490D02*X37681Y112449D01*
X36919Y112639D02*X37490D01*
X36728Y112449D02*X36919Y112639D01*
X36728Y112449D02*Y112068D01*
X36919Y111877D01*
X37490D01*
X37681Y111687D01*
Y111306D01*
X37490Y111115D02*X37681Y111306D01*
X36919Y111115D02*X37490D01*
X36728Y111306D02*X36919Y111115D01*
X24892Y112449D02*X25082Y112639D01*
X25654D01*
X25844Y112449D01*
Y112068D01*
X24892Y111115D02*X25844Y112068D01*
X24892Y111115D02*X25844D01*
X26302Y111306D02*X26492Y111115D01*
X26302Y112449D02*Y111306D01*
Y112449D02*X26492Y112639D01*
X26873D01*
X27064Y112449D01*
Y111306D01*
X26873Y111115D02*X27064Y111306D01*
X26492Y111115D02*X26873D01*
X26302Y111496D02*X27064Y112258D01*
X11430Y111306D02*X11620Y111115D01*
X11430Y112449D02*Y111306D01*
Y112449D02*X11620Y112639D01*
X12002D01*
X12192Y112449D01*
Y111306D01*
X12002Y111115D02*X12192Y111306D01*
X11620Y111115D02*X12002D01*
X11430Y111496D02*X12192Y112258D01*
X12649Y111115D02*X12840D01*
X13297Y111306D02*X13487Y111115D01*
X13297Y112449D02*Y111306D01*
Y112449D02*X13487Y112639D01*
X13868D01*
X14059Y112449D01*
Y111306D01*
X13868Y111115D02*X14059Y111306D01*
X13487Y111115D02*X13868D01*
X13297Y111496D02*X14059Y112258D01*
X14516Y112449D02*X14707Y112639D01*
X15278D01*
X15469Y112449D01*
Y112068D01*
X14516Y111115D02*X15469Y112068D01*
X14516Y111115D02*X15469D01*
X15926Y111306D02*X16116Y111115D01*
X15926Y112449D02*Y111306D01*
Y112449D02*X16116Y112639D01*
X16497D01*
X16688Y112449D01*
Y111306D01*
X16497Y111115D02*X16688Y111306D01*
X16116Y111115D02*X16497D01*
X15926Y111496D02*X16688Y112258D01*
X66000Y79646D02*Y78834D01*
X65594Y79240D02*X66406D01*
X66830Y78806D02*Y77994D01*
X66424Y78400D02*X67236D01*
X69430Y79646D02*Y78834D01*
X69024Y79240D02*X69836D01*
X72670Y87496D02*Y86684D01*
X72264Y87090D02*X73076D01*
X21500Y78016D02*Y77204D01*
X21094Y77610D02*X21906D01*
X30530Y79626D02*Y78814D01*
X30124Y79220D02*X30936D01*
X25444Y74613D02*Y73800D01*
X25038Y74207D02*X25850D01*
X20210Y76526D02*Y75714D01*
X19804Y76120D02*X20616D01*
X75870Y82086D02*Y81274D01*
X75464Y81680D02*X76276D01*
X40701Y59990D02*Y59178D01*
X40294Y59584D02*X41107D01*
X34895Y59959D02*Y59146D01*
X34488Y59552D02*X35301D01*
X33085Y59993D02*Y59180D01*
X32678Y59587D02*X33491D01*
X29289Y59997D02*Y59184D01*
X28883Y59591D02*X29696D01*
X53980Y73976D02*Y73164D01*
X53574Y73570D02*X54386D01*
X52840Y73976D02*Y73164D01*
X52434Y73570D02*X53246D01*
X51700Y73976D02*Y73164D01*
X51294Y73570D02*X52106D01*
X24910Y50276D02*Y49464D01*
X24504Y49870D02*X25316D01*
X38840Y57216D02*Y56404D01*
X38434Y56810D02*X39246D01*
X35966Y54372D02*Y53559D01*
X35560Y53965D02*X36373D01*
X30230Y49346D02*Y48534D01*
X29824Y48940D02*X30636D01*
X28444Y74613D02*Y73800D01*
X28037Y74207D02*X28850D01*
X56620Y39756D02*Y38944D01*
X56214Y39350D02*X57026D01*
X55860Y41666D02*Y40854D01*
X55454Y41260D02*X56266D01*
X28610Y48766D02*Y47954D01*
X28204Y48360D02*X29016D01*
X24720Y63626D02*Y62814D01*
X24314Y63220D02*X25126D01*
X38492Y29163D02*Y28350D01*
X38086Y28757D02*X38898D01*
X57800Y76606D02*Y75794D01*
X57394Y76200D02*X58206D01*
X56750Y76586D02*Y75774D01*
X56344Y76180D02*X57156D01*
X56020Y77276D02*Y76464D01*
X55614Y76870D02*X56426D01*
X22590Y61496D02*Y60684D01*
X22184Y61090D02*X22996D01*
X47450Y39536D02*Y38724D01*
X47044Y39130D02*X47856D01*
X47470Y40596D02*Y39784D01*
X47064Y40190D02*X47876D01*
X43632Y47385D02*Y46572D01*
X43226Y46979D02*X44039D01*
X43632Y39765D02*Y38952D01*
X43226Y39359D02*X44039D01*
X39440Y45316D02*Y44504D01*
X39034Y44910D02*X39846D01*
X57900Y62646D02*Y61834D01*
X57494Y62240D02*X58306D01*
X52890Y76446D02*Y75634D01*
X52484Y76040D02*X53296D01*
X43850Y59886D02*Y59074D01*
X43444Y59480D02*X44256D01*
X71950Y47066D02*Y46254D01*
X71544Y46660D02*X72356D01*
X76050Y57466D02*Y56654D01*
X75644Y57060D02*X76456D01*
X76850Y47066D02*Y46254D01*
X76444Y46660D02*X77256D01*
X75850Y41666D02*Y40854D01*
X75444Y41260D02*X76256D01*
X73050Y36366D02*Y35554D01*
X72644Y35960D02*X73456D01*
X71250Y30966D02*Y30154D01*
X70844Y30560D02*X71656D01*
X65808Y23728D02*Y22915D01*
X65402Y23322D02*X66214D01*
X58900Y18516D02*Y17704D01*
X58494Y18110D02*X59306D01*
X53300Y16716D02*Y15904D01*
X52894Y16310D02*X53706D01*
X48100Y14716D02*Y13904D01*
X47694Y14310D02*X48506D01*
X42500Y13716D02*Y12904D01*
X42094Y13310D02*X42906D01*
X37000Y13616D02*Y12804D01*
X36594Y13210D02*X37406D01*
X31800Y14816D02*Y14004D01*
X31394Y14410D02*X32206D01*
X26600Y16516D02*Y15704D01*
X26194Y16110D02*X27006D01*
X21300Y18416D02*Y17604D01*
X20894Y18010D02*X21706D01*
X13796Y23847D02*Y23034D01*
X13389Y23441D02*X14202D01*
X8150Y31166D02*Y30354D01*
X7744Y30760D02*X8556D01*
X6650Y36666D02*Y35854D01*
X6244Y36260D02*X7056D01*
X4350Y41966D02*Y41154D01*
X3944Y41560D02*X4756D01*
X3350Y47116D02*Y46304D01*
X2944Y46710D02*X3756D01*
X3150Y52216D02*Y51404D01*
X2744Y51810D02*X3556D01*
X3850Y57416D02*Y56604D01*
X3444Y57010D02*X4256D01*
X5850Y62766D02*Y61954D01*
X5444Y62360D02*X6256D01*
X26590Y84676D02*Y83864D01*
X26184Y84270D02*X26996D01*
X32000Y86416D02*Y85604D01*
X31594Y86010D02*X32406D01*
X37500Y87416D02*Y86604D01*
X37094Y87010D02*X37906D01*
X48200Y86216D02*Y85404D01*
X47794Y85810D02*X48606D01*
X42900Y87316D02*Y86504D01*
X42494Y86910D02*X43306D01*
X64891Y38697D02*Y37884D01*
X64485Y38291D02*X65298D01*
X63580Y84726D02*Y83914D01*
X63174Y84320D02*X63986D01*
X56660Y85876D02*Y85064D01*
X56254Y85470D02*X57066D01*
X9010Y67076D02*Y66264D01*
X8604Y66670D02*X9416D01*
X9010Y71976D02*Y71164D01*
X8604Y71570D02*X9416D01*
X16137Y74242D02*Y73429D01*
X15731Y73836D02*X16544D01*
X12672Y77707D02*Y76894D01*
X12266Y77300D02*X13079D01*
X66300Y82686D02*Y81874D01*
X65894Y82280D02*X66706D01*
X36410Y73586D02*Y72774D01*
X36004Y73180D02*X36816D01*
X60640Y32147D02*Y31334D01*
X60234Y31740D02*X61046D01*
X53310Y27746D02*Y26934D01*
X52904Y27340D02*X53716D01*
X42550Y24626D02*Y23814D01*
X42144Y24220D02*X42956D01*
X21670Y30986D02*Y30174D01*
X21264Y30580D02*X22076D01*
X33220Y37676D02*Y36864D01*
X32814Y37270D02*X33626D01*
X33290Y34406D02*Y33594D01*
X32884Y34000D02*X33696D01*
X33260Y30946D02*Y30134D01*
X32854Y30540D02*X33666D01*
X33290Y27446D02*Y26634D01*
X32884Y27040D02*X33696D01*
X33290Y23866D02*Y23054D01*
X32884Y23460D02*X33696D01*
X47480Y33876D02*Y33064D01*
X47074Y33470D02*X47886D01*
X48460Y47386D02*Y46574D01*
X48054Y46980D02*X48866D01*
X60490Y48606D02*Y47794D01*
X60084Y48200D02*X60896D01*
X50570Y73966D02*Y73154D01*
X50164Y73560D02*X50976D01*
X39410Y39776D02*Y38964D01*
X39004Y39370D02*X39816D01*
X26560Y78296D02*Y77484D01*
X26154Y77890D02*X26966D01*
X70000Y82606D02*Y81794D01*
X69594Y82200D02*X70406D01*
X21530Y83026D02*Y82214D01*
X21124Y82620D02*X21936D01*
X3810Y116284D02*Y115471D01*
X3404Y115878D02*X4216D01*
X34290Y116449D02*X34671Y115687D01*
X35052Y116449D01*
X34671Y115687D02*Y114925D01*
X35509Y115763D02*X36081D01*
X35509Y114925D02*X36271D01*
X35509Y116449D02*Y114925D01*
Y116449D02*X36271D01*
X37490D02*X37681Y116259D01*
X36919Y116449D02*X37490D01*
X36728Y116259D02*X36919Y116449D01*
X36728Y116259D02*Y115878D01*
X36919Y115687D01*
X37490D01*
X37681Y115497D01*
Y115116D01*
X37490Y114925D02*X37681Y115116D01*
X36919Y114925D02*X37490D01*
X36728Y115116D02*X36919Y114925D01*
X25082D02*X25654Y115687D01*
Y116259D02*Y115687D01*
X25464Y116449D02*X25654Y116259D01*
X25082Y116449D02*X25464D01*
X24892Y116259D02*X25082Y116449D01*
X24892Y116259D02*Y115878D01*
X25082Y115687D01*
X25654D01*
X26111Y116259D02*X26302Y116449D01*
X26873D01*
X27064Y116259D01*
Y115878D01*
X26111Y114925D02*X27064Y115878D01*
X26111Y114925D02*X27064D01*
X11430Y115116D02*X11620Y114925D01*
X11430Y116259D02*Y115116D01*
Y116259D02*X11620Y116449D01*
X12002D01*
X12192Y116259D01*
Y115116D01*
X12002Y114925D02*X12192Y115116D01*
X11620Y114925D02*X12002D01*
X11430Y115306D02*X12192Y116068D01*
X12649Y114925D02*X12840D01*
X13297Y115116D02*X13487Y114925D01*
X13297Y116259D02*Y115116D01*
Y116259D02*X13487Y116449D01*
X13868D01*
X14059Y116259D01*
Y115116D01*
X13868Y114925D02*X14059Y115116D01*
X13487Y114925D02*X13868D01*
X13297Y115306D02*X14059Y116068D01*
X14516Y116144D02*X14821Y116449D01*
Y114925D01*
X14516D02*X15088D01*
X16116Y116449D02*X16307Y116259D01*
X15735Y116449D02*X16116D01*
X15545Y116259D02*X15735Y116449D01*
X15545Y116259D02*Y115116D01*
X15735Y114925D01*
X16116Y115763D02*X16307Y115573D01*
X15545Y115763D02*X16116D01*
X15735Y114925D02*X16116D01*
X16307Y115116D01*
Y115573D02*Y115116D01*
X37460Y76760D02*Y76354D01*
Y76760D02*X37812Y76963D01*
X37460Y76760D02*X37108Y76963D01*
X38260Y77560D02*Y77154D01*
Y77560D02*X38612Y77763D01*
X38260Y77560D02*X37908Y77763D01*
X38260Y75960D02*Y75554D01*
Y75960D02*X38612Y76163D01*
X38260Y75960D02*X37908Y76163D01*
X36660Y75960D02*Y75554D01*
Y75960D02*X37012Y76163D01*
X36660Y75960D02*X36308Y76163D01*
X36660Y77560D02*Y77154D01*
Y77560D02*X37012Y77763D01*
X36660Y77560D02*X36308Y77763D01*
X3810Y119688D02*Y119281D01*
Y119688D02*X4162Y119891D01*
X3810Y119688D02*X3458Y119891D01*
X34290Y120259D02*X34671Y119497D01*
X35052Y120259D01*
X34671Y119497D02*Y118735D01*
X35509Y119573D02*X36081D01*
X35509Y118735D02*X36271D01*
X35509Y120259D02*Y118735D01*
Y120259D02*X36271D01*
X37490D02*X37681Y120069D01*
X36919Y120259D02*X37490D01*
X36728Y120069D02*X36919Y120259D01*
X36728Y120069D02*Y119688D01*
X36919Y119497D01*
X37490D01*
X37681Y119307D01*
Y118926D01*
X37490Y118735D02*X37681Y118926D01*
X36919Y118735D02*X37490D01*
X36728Y118926D02*X36919Y118735D01*
X24892Y120259D02*X25654D01*
X24892D02*Y119497D01*
X25082Y119688D01*
X25464D01*
X25654Y119497D01*
Y118926D01*
X25464Y118735D02*X25654Y118926D01*
X25082Y118735D02*X25464D01*
X24892Y118926D02*X25082Y118735D01*
X11430Y118926D02*X11620Y118735D01*
X11430Y120069D02*Y118926D01*
Y120069D02*X11620Y120259D01*
X12002D01*
X12192Y120069D01*
Y118926D01*
X12002Y118735D02*X12192Y118926D01*
X11620Y118735D02*X12002D01*
X11430Y119116D02*X12192Y119878D01*
X12649Y118735D02*X12840D01*
X13297Y118926D02*X13487Y118735D01*
X13297Y120069D02*Y118926D01*
Y120069D02*X13487Y120259D01*
X13868D01*
X14059Y120069D01*
Y118926D01*
X13868Y118735D02*X14059Y118926D01*
X13487Y118735D02*X13868D01*
X13297Y119116D02*X14059Y119878D01*
X14516Y119954D02*X14821Y120259D01*
Y118735D01*
X14516D02*X15088D01*
X15545Y120069D02*X15735Y120259D01*
X16307D01*
X16497Y120069D01*
Y119688D01*
X15545Y118735D02*X16497Y119688D01*
X15545Y118735D02*X16497D01*
X762Y124069D02*X952Y123879D01*
X190Y124069D02*X762D01*
X0Y123879D02*X190Y124069D01*
X0Y123879D02*Y123498D01*
X190Y123307D01*
X762D01*
X952Y123117D01*
Y122736D01*
X762Y122545D02*X952Y122736D01*
X190Y122545D02*X762D01*
X0Y122736D02*X190Y122545D01*
X1410Y123307D02*Y122736D01*
X1600Y122545D01*
X2172Y123307D02*Y122164D01*
X1981Y121974D02*X2172Y122164D01*
X1600Y121974D02*X1981D01*
X1410Y122164D02*X1600Y121974D01*
Y122545D02*X1981D01*
X2172Y122736D01*
X2819Y123117D02*Y122545D01*
Y123117D02*X3010Y123307D01*
X3200D01*
X3391Y123117D01*
Y122545D01*
Y123117D02*X3581Y123307D01*
X3772D01*
X3962Y123117D01*
Y122545D01*
X2629Y123307D02*X2819Y123117D01*
X4420Y124069D02*Y122545D01*
Y122736D02*X4610Y122545D01*
X4991D01*
X5182Y122736D01*
Y123117D02*Y122736D01*
X4991Y123307D02*X5182Y123117D01*
X4610Y123307D02*X4991D01*
X4420Y123117D02*X4610Y123307D01*
X5639Y123117D02*Y122736D01*
Y123117D02*X5829Y123307D01*
X6210D01*
X6401Y123117D01*
Y122736D01*
X6210Y122545D02*X6401Y122736D01*
X5829Y122545D02*X6210D01*
X5639Y122736D02*X5829Y122545D01*
X6858Y124069D02*Y122736D01*
X7049Y122545D01*
X0Y121720D02*X7430D01*
X10604Y124069D02*Y122545D01*
X11100Y124069D02*X11366Y123802D01*
Y122812D01*
X11100Y122545D02*X11366Y122812D01*
X10414Y122545D02*X11100D01*
X10414Y124069D02*X11100D01*
G54D88*X11824Y123688D02*Y123650D01*
G54D87*Y123117D02*Y122545D01*
X12776Y123307D02*X12967Y123117D01*
X12395Y123307D02*X12776D01*
X12205Y123117D02*X12395Y123307D01*
X12205Y123117D02*Y122736D01*
X12395Y122545D01*
X12967Y123307D02*Y122736D01*
X13157Y122545D01*
X12395D02*X12776D01*
X12967Y122736D01*
X13805Y123117D02*Y122545D01*
Y123117D02*X13995Y123307D01*
X14186D01*
X14376Y123117D01*
Y122545D01*
Y123117D02*X14567Y123307D01*
X14757D01*
X14948Y123117D01*
Y122545D01*
X13614Y123307D02*X13805Y123117D01*
X15405Y122545D02*X15596D01*
X16739Y122736D02*X16929Y122545D01*
X16739Y123879D02*X16929Y124069D01*
X16739Y123879D02*Y122736D01*
X17386Y124069D02*X17767D01*
X17577D02*Y122545D01*
X17386D02*X17767D01*
X18415Y123117D02*Y122545D01*
Y123117D02*X18606Y123307D01*
X18796D01*
X18987Y123117D01*
Y122545D01*
X18225Y123307D02*X18415Y123117D01*
X19634Y123307D02*X20206D01*
X19444Y123117D02*X19634Y123307D01*
X19444Y123117D02*Y122736D01*
X19634Y122545D01*
X20206D01*
X20663Y124069D02*Y122545D01*
Y123117D02*X20853Y123307D01*
X21234D01*
X21425Y123117D01*
Y122545D01*
X21882Y124069D02*X22073Y123879D01*
Y122736D01*
X21882Y122545D02*X22073Y122736D01*
X10414Y121720D02*X22530D01*
X24397Y122545D02*X24892D01*
X24130Y122812D02*X24397Y122545D01*
X24130Y123802D02*Y122812D01*
Y123802D02*X24397Y124069D01*
X24892D01*
X25349Y123117D02*Y122736D01*
Y123117D02*X25540Y123307D01*
X25921D01*
X26111Y123117D01*
Y122736D01*
X25921Y122545D02*X26111Y122736D01*
X25540Y122545D02*X25921D01*
X25349Y122736D02*X25540Y122545D01*
X26568Y123307D02*Y122736D01*
X26759Y122545D01*
X27140D01*
X27330Y122736D01*
Y123307D02*Y122736D01*
X27978Y123117D02*Y122545D01*
Y123117D02*X28169Y123307D01*
X28359D01*
X28550Y123117D01*
Y122545D01*
X27788Y123307D02*X27978Y123117D01*
X29197Y124069D02*Y122736D01*
X29388Y122545D01*
X29007Y123498D02*X29388D01*
X24130Y121720D02*X29769D01*
X33210Y124069D02*Y122545D01*
X33020Y124069D02*X33782D01*
X33972Y123879D01*
Y123498D01*
X33782Y123307D02*X33972Y123498D01*
X33210Y123307D02*X33782D01*
X34430Y124069D02*Y122736D01*
X34620Y122545D01*
X35573Y123307D02*X35763Y123117D01*
X35192Y123307D02*X35573D01*
X35001Y123117D02*X35192Y123307D01*
X35001Y123117D02*Y122736D01*
X35192Y122545D01*
X35763Y123307D02*Y122736D01*
X35954Y122545D01*
X35192D02*X35573D01*
X35763Y122736D01*
X36601Y124069D02*Y122736D01*
X36792Y122545D01*
X36411Y123498D02*X36792D01*
X37363Y122545D02*X37935D01*
X37173Y122736D02*X37363Y122545D01*
X37173Y123117D02*Y122736D01*
Y123117D02*X37363Y123307D01*
X37744D01*
X37935Y123117D01*
X37173Y122926D02*X37935D01*
Y123117D02*Y122926D01*
X39154Y124069D02*Y122545D01*
X38964D02*X39154Y122736D01*
X38583Y122545D02*X38964D01*
X38392Y122736D02*X38583Y122545D01*
X38392Y123117D02*Y122736D01*
Y123117D02*X38583Y123307D01*
X38964D01*
X39154Y123117D01*
X39992Y123307D02*Y123117D01*
Y122736D02*Y122545D01*
X39611Y123879D02*Y123688D01*
Y123879D02*X39802Y124069D01*
X40183D01*
X40373Y123879D01*
Y123688D01*
X39992Y123307D02*X40373Y123688D01*
X33020Y121720D02*X40831D01*
X0Y127879D02*X762D01*
X381D02*Y126355D01*
X1219Y127879D02*Y126355D01*
Y126927D02*X1410Y127117D01*
X1791D01*
X1981Y126927D01*
Y126355D01*
X2629D02*X3200D01*
X2438Y126546D02*X2629Y126355D01*
X2438Y126927D02*Y126546D01*
Y126927D02*X2629Y127117D01*
X3010D01*
X3200Y126927D01*
X2438Y126736D02*X3200D01*
Y126927D02*Y126736D01*
X3848Y126927D02*Y126355D01*
Y126927D02*X4039Y127117D01*
X4420D01*
X3658D02*X3848Y126927D01*
X5067Y126355D02*X5639D01*
X4877Y126546D02*X5067Y126355D01*
X4877Y126927D02*Y126546D01*
Y126927D02*X5067Y127117D01*
X5448D01*
X5639Y126927D01*
X4877Y126736D02*X5639D01*
Y126927D02*Y126736D01*
X7353Y127117D02*X7544Y126927D01*
X6972Y127117D02*X7353D01*
X6782Y126927D02*X6972Y127117D01*
X6782Y126927D02*Y126546D01*
X6972Y126355D01*
X7544Y127117D02*Y126546D01*
X7734Y126355D01*
X6972D02*X7353D01*
X7544Y126546D01*
X8382Y126927D02*Y126355D01*
Y126927D02*X8573Y127117D01*
X8954D01*
X8192D02*X8382Y126927D01*
X9601Y126355D02*X10173D01*
X9411Y126546D02*X9601Y126355D01*
X9411Y126927D02*Y126546D01*
Y126927D02*X9601Y127117D01*
X9982D01*
X10173Y126927D01*
X9411Y126736D02*X10173D01*
Y126927D02*Y126736D01*
X11316Y126546D02*X11506Y126355D01*
X11316Y126850D02*Y126546D01*
Y126850D02*X11582Y127117D01*
X11811D01*
X12078Y126850D01*
Y126546D01*
X11887Y126355D02*X12078Y126546D01*
X11506Y126355D02*X11887D01*
X11316Y127384D02*X11582Y127117D01*
X11316Y127689D02*Y127384D01*
Y127689D02*X11506Y127879D01*
X11887D01*
X12078Y127689D01*
Y127384D01*
X11811Y127117D02*X12078Y127384D01*
X13983Y127879D02*Y126355D01*
X13792D02*X13983Y126546D01*
X13411Y126355D02*X13792D01*
X13221Y126546D02*X13411Y126355D01*
X13221Y126927D02*Y126546D01*
Y126927D02*X13411Y127117D01*
X13792D01*
X13983Y126927D01*
G54D88*X14440Y127498D02*Y127460D01*
G54D87*Y126927D02*Y126355D01*
X15011Y127689D02*Y126355D01*
Y127689D02*X15202Y127879D01*
X15392D01*
X14821Y127117D02*X15202D01*
X15964Y127689D02*Y126355D01*
Y127689D02*X16154Y127879D01*
X16345D01*
X15773Y127117D02*X16154D01*
X16916Y126355D02*X17488D01*
X16726Y126546D02*X16916Y126355D01*
X16726Y126927D02*Y126546D01*
Y126927D02*X16916Y127117D01*
X17297D01*
X17488Y126927D01*
X16726Y126736D02*X17488D01*
Y126927D02*Y126736D01*
X18136Y126927D02*Y126355D01*
Y126927D02*X18326Y127117D01*
X18707D01*
X17945D02*X18136Y126927D01*
X19355Y126355D02*X19926D01*
X19164Y126546D02*X19355Y126355D01*
X19164Y126927D02*Y126546D01*
Y126927D02*X19355Y127117D01*
X19736D01*
X19926Y126927D01*
X19164Y126736D02*X19926D01*
Y126927D02*Y126736D01*
X20574Y126927D02*Y126355D01*
Y126927D02*X20765Y127117D01*
X20955D01*
X21146Y126927D01*
Y126355D01*
X20384Y127117D02*X20574Y126927D01*
X21793Y127879D02*Y126546D01*
X21984Y126355D01*
X21603Y127308D02*X21984D01*
X23813Y127879D02*Y126355D01*
X23622D02*X23813Y126546D01*
X23241Y126355D02*X23622D01*
X23051Y126546D02*X23241Y126355D01*
X23051Y126927D02*Y126546D01*
Y126927D02*X23241Y127117D01*
X23622D01*
X23813Y126927D01*
X24460D02*Y126355D01*
Y126927D02*X24651Y127117D01*
X25032D01*
X24270D02*X24460Y126927D01*
G54D88*X25489Y127498D02*Y127460D01*
G54D87*Y126927D02*Y126355D01*
X25870Y127879D02*Y126546D01*
X26060Y126355D01*
X26441Y127879D02*Y126546D01*
X26632Y126355D01*
X27889D02*X28461D01*
X28651Y126546D01*
X28461Y126736D02*X28651Y126546D01*
X27889Y126736D02*X28461D01*
X27699Y126927D02*X27889Y126736D01*
X27699Y126927D02*X27889Y127117D01*
X28461D01*
X28651Y126927D01*
X27699Y126546D02*X27889Y126355D01*
G54D88*X29108Y127498D02*Y127460D01*
G54D87*Y126927D02*Y126355D01*
X29489Y127117D02*X30251D01*
X29489Y126355D02*X30251Y127117D01*
X29489Y126355D02*X30251D01*
X30899D02*X31471D01*
X30709Y126546D02*X30899Y126355D01*
X30709Y126927D02*Y126546D01*
Y126927D02*X30899Y127117D01*
X31280D01*
X31471Y126927D01*
X30709Y126736D02*X31471D01*
Y126927D02*Y126736D01*
X32118Y126355D02*X32690D01*
X32880Y126546D01*
X32690Y126736D02*X32880Y126546D01*
X32118Y126736D02*X32690D01*
X31928Y126927D02*X32118Y126736D01*
X31928Y126927D02*X32118Y127117D01*
X32690D01*
X32880Y126927D01*
X31928Y126546D02*X32118Y126355D01*
X34023Y127117D02*Y126546D01*
X34214Y126355D01*
X34595D01*
X34785Y126546D01*
Y127117D02*Y126546D01*
X35433Y126355D02*X36005D01*
X36195Y126546D01*
X36005Y126736D02*X36195Y126546D01*
X35433Y126736D02*X36005D01*
X35243Y126927D02*X35433Y126736D01*
X35243Y126927D02*X35433Y127117D01*
X36005D01*
X36195Y126927D01*
X35243Y126546D02*X35433Y126355D01*
X36843D02*X37414D01*
X36652Y126546D02*X36843Y126355D01*
X36652Y126927D02*Y126546D01*
Y126927D02*X36843Y127117D01*
X37224D01*
X37414Y126927D01*
X36652Y126736D02*X37414D01*
Y126927D02*Y126736D01*
X38633Y127879D02*Y126355D01*
X38443D02*X38633Y126546D01*
X38062Y126355D02*X38443D01*
X37871Y126546D02*X38062Y126355D01*
X37871Y126927D02*Y126546D01*
Y126927D02*X38062Y127117D01*
X38443D01*
X38633Y126927D01*
G54D88*X39776Y127498D02*Y127460D01*
G54D87*Y126927D02*Y126355D01*
X40348Y126927D02*Y126355D01*
Y126927D02*X40538Y127117D01*
X40729D01*
X40919Y126927D01*
Y126355D01*
X40157Y127117D02*X40348Y126927D01*
X42253Y127879D02*Y126546D01*
X42443Y126355D01*
X42062Y127308D02*X42443D01*
X42824Y127879D02*Y126355D01*
Y126927D02*X43015Y127117D01*
X43396D01*
X43586Y126927D01*
Y126355D01*
G54D88*X44044Y127498D02*Y127460D01*
G54D87*Y126927D02*Y126355D01*
X44615D02*X45187D01*
X45377Y126546D01*
X45187Y126736D02*X45377Y126546D01*
X44615Y126736D02*X45187D01*
X44425Y126927D02*X44615Y126736D01*
X44425Y126927D02*X44615Y127117D01*
X45187D01*
X45377Y126927D01*
X44425Y126546D02*X44615Y126355D01*
X46520Y127879D02*Y126546D01*
X46711Y126355D01*
X47663Y127117D02*X47854Y126927D01*
X47282Y127117D02*X47663D01*
X47092Y126927D02*X47282Y127117D01*
X47092Y126927D02*Y126546D01*
X47282Y126355D01*
X47854Y127117D02*Y126546D01*
X48044Y126355D01*
X47282D02*X47663D01*
X47854Y126546D01*
X48501Y127117D02*Y126546D01*
X48692Y126355D01*
X49263Y127117D02*Y125974D01*
X49073Y125784D02*X49263Y125974D01*
X48692Y125784D02*X49073D01*
X48501Y125974D02*X48692Y125784D01*
Y126355D02*X49073D01*
X49263Y126546D01*
X49721Y126927D02*Y126546D01*
Y126927D02*X49911Y127117D01*
X50292D01*
X50483Y126927D01*
Y126546D01*
X50292Y126355D02*X50483Y126546D01*
X49911Y126355D02*X50292D01*
X49721Y126546D02*X49911Y126355D01*
X50940Y127117D02*Y126546D01*
X51130Y126355D01*
X51511D01*
X51702Y126546D01*
Y127117D02*Y126546D01*
X52349Y127879D02*Y126546D01*
X52540Y126355D01*
X52159Y127308D02*X52540D01*
X52921Y125974D02*X53302Y126355D01*
X54445Y127574D02*X54750Y127879D01*
Y126355D01*
X54445D02*X55016D01*
X55474Y126546D02*X55664Y126355D01*
X55474Y126850D02*Y126546D01*
Y126850D02*X55740Y127117D01*
X55969D01*
X56236Y126850D01*
Y126546D01*
X56045Y126355D02*X56236Y126546D01*
X55664Y126355D02*X56045D01*
X55474Y127384D02*X55740Y127117D01*
X55474Y127689D02*Y127384D01*
Y127689D02*X55664Y127879D01*
X56045D01*
X56236Y127689D01*
Y127384D01*
X55969Y127117D02*X56236Y127384D01*
X56883Y126355D02*X57455Y127117D01*
Y127689D02*Y127117D01*
X57264Y127879D02*X57455Y127689D01*
X56883Y127879D02*X57264D01*
X56693Y127689D02*X56883Y127879D01*
X56693Y127689D02*Y127308D01*
X56883Y127117D01*
X57455D01*
X58598Y127879D02*Y126355D01*
Y126927D02*X58788Y127117D01*
X59169D01*
X59360Y126927D01*
Y126355D01*
X59817Y126927D02*Y126546D01*
Y126927D02*X60008Y127117D01*
X60389D01*
X60579Y126927D01*
Y126546D01*
X60389Y126355D02*X60579Y126546D01*
X60008Y126355D02*X60389D01*
X59817Y126546D02*X60008Y126355D01*
X61036Y127879D02*Y126546D01*
X61227Y126355D01*
X61798D02*X62370D01*
X61608Y126546D02*X61798Y126355D01*
X61608Y126927D02*Y126546D01*
Y126927D02*X61798Y127117D01*
X62179D01*
X62370Y126927D01*
X61608Y126736D02*X62370D01*
Y126927D02*Y126736D01*
X63017Y126355D02*X63589D01*
X63779Y126546D01*
X63589Y126736D02*X63779Y126546D01*
X63017Y126736D02*X63589D01*
X62827Y126927D02*X63017Y126736D01*
X62827Y126927D02*X63017Y127117D01*
X63589D01*
X63779Y126927D01*
X62827Y126546D02*X63017Y126355D01*
X65113Y127879D02*Y126546D01*
X65303Y126355D01*
X64922Y127308D02*X65303D01*
X65684Y126927D02*Y126546D01*
Y126927D02*X65875Y127117D01*
X66256D01*
X66446Y126927D01*
Y126546D01*
X66256Y126355D02*X66446Y126546D01*
X65875Y126355D02*X66256D01*
X65684Y126546D02*X65875Y126355D01*
X67094Y127879D02*Y126546D01*
X67285Y126355D01*
X66904Y127308D02*X67285D01*
X68237Y127117D02*X68428Y126927D01*
X67856Y127117D02*X68237D01*
X67666Y126927D02*X67856Y127117D01*
X67666Y126927D02*Y126546D01*
X67856Y126355D01*
X68428Y127117D02*Y126546D01*
X68618Y126355D01*
X67856D02*X68237D01*
X68428Y126546D01*
X69075Y127879D02*Y126546D01*
X69266Y126355D01*
G54D89*X23688Y85033D02*X8700Y85060D01*
X74942Y88647D02*X39958Y88640D01*
X5065Y66458D02*X5100Y81460D01*
Y18860D02*X5065Y33916D01*
X74900Y18860D02*X74935Y33863D01*
X78542Y85047D02*X78542Y50134D01*
X23703Y15225D02*X8700Y15260D01*
X56244Y15225D02*X71300Y15260D01*
X8700D02*G75*G02X5100Y18860I0J3600D01*G01*
X74900D02*G75*G02X71300Y15260I-3600J0D01*G01*
X5065Y66458D02*G75*G03X5065Y33916I34893J-16271D01*G01*
X23703Y15225D02*G75*G03X56244Y15225I16271J34893D01*G01*
X74935Y33863D02*G75*G03X78542Y50133I-34893J16271D01*G01*
X5100Y81460D02*G75*G02X8700Y85060I3600J0D01*G01*
X39958Y88640D02*G75*G03X23687Y85033I0J-38500D01*G01*
X74942Y88647D02*G75*G02X78542Y85047I0J-3600D01*G01*
G54D87*X23153Y-2413D02*X23915D01*
X24106Y-2222D01*
Y-1765D02*Y-2222D01*
X23915Y-1575D02*X24106Y-1765D01*
X23344Y-1575D02*X23915D01*
X23344Y-889D02*Y-2413D01*
X23153Y-889D02*X23915D01*
X24106Y-1080D01*
Y-1384D01*
X23915Y-1575D02*X24106Y-1384D01*
X24563Y-1842D02*Y-2222D01*
Y-1842D02*X24754Y-1651D01*
X25135D01*
X25325Y-1842D01*
Y-2222D01*
X25135Y-2413D02*X25325Y-2222D01*
X24754Y-2413D02*X25135D01*
X24563Y-2222D02*X24754Y-2413D01*
X26354Y-1651D02*X26544Y-1842D01*
X25973Y-1651D02*X26354D01*
X25782Y-1842D02*X25973Y-1651D01*
X25782Y-1842D02*Y-2222D01*
X25973Y-2413D01*
X26544Y-1651D02*Y-2222D01*
X26735Y-2413D01*
X25973D02*X26354D01*
X26544Y-2222D01*
X27383Y-1842D02*Y-2413D01*
Y-1842D02*X27573Y-1651D01*
X27954D01*
X27192D02*X27383Y-1842D01*
X29173Y-889D02*Y-2413D01*
X28983D02*X29173Y-2222D01*
X28602Y-2413D02*X28983D01*
X28411Y-2222D02*X28602Y-2413D01*
X28411Y-1842D02*Y-2222D01*
Y-1842D02*X28602Y-1651D01*
X28983D01*
X29173Y-1842D01*
X30316D02*Y-2222D01*
Y-1842D02*X30507Y-1651D01*
X30888D01*
X31078Y-1842D01*
Y-2222D01*
X30888Y-2413D02*X31078Y-2222D01*
X30507Y-2413D02*X30888D01*
X30316Y-2222D02*X30507Y-2413D01*
X31535Y-1651D02*Y-2222D01*
X31726Y-2413D01*
X32107D01*
X32297Y-2222D01*
Y-1651D02*Y-2222D01*
X32945Y-889D02*Y-2222D01*
X33136Y-2413D01*
X32755Y-1460D02*X33136D01*
X33517Y-889D02*Y-2222D01*
X33707Y-2413D01*
G54D88*X34088Y-1270D02*Y-1308D01*
G54D87*Y-1842D02*Y-2413D01*
X34660Y-1842D02*Y-2413D01*
Y-1842D02*X34850Y-1651D01*
X35041D01*
X35231Y-1842D01*
Y-2413D01*
X34469Y-1651D02*X34660Y-1842D01*
X35879Y-2413D02*X36450D01*
X35688Y-2222D02*X35879Y-2413D01*
X35688Y-1842D02*Y-2222D01*
Y-1842D02*X35879Y-1651D01*
X36260D01*
X36450Y-1842D01*
X35688Y-2032D02*X36450D01*
Y-1842D02*Y-2032D01*
G54D88*X37593Y-1270D02*Y-1308D01*
G54D87*Y-1842D02*Y-2413D01*
X38165D02*X38736D01*
X38927Y-2222D01*
X38736Y-2032D02*X38927Y-2222D01*
X38165Y-2032D02*X38736D01*
X37974Y-1842D02*X38165Y-2032D01*
X37974Y-1842D02*X38165Y-1651D01*
X38736D01*
X38927Y-1842D01*
X37974Y-2222D02*X38165Y-2413D01*
X40260Y-889D02*Y-2222D01*
X40451Y-2413D01*
X40070Y-1460D02*X40451D01*
X40832Y-889D02*Y-2413D01*
Y-1842D02*X41022Y-1651D01*
X41403D01*
X41594Y-1842D01*
Y-2413D01*
X42242D02*X42813D01*
X42051Y-2222D02*X42242Y-2413D01*
X42051Y-1842D02*Y-2222D01*
Y-1842D02*X42242Y-1651D01*
X42623D01*
X42813Y-1842D01*
X42051Y-2032D02*X42813D01*
Y-1842D02*Y-2032D01*
X44147Y-1651D02*X44718D01*
X43956Y-1842D02*X44147Y-1651D01*
X43956Y-1842D02*Y-2222D01*
X44147Y-2413D01*
X44718D01*
X45366D02*X45937D01*
X45175Y-2222D02*X45366Y-2413D01*
X45175Y-1842D02*Y-2222D01*
Y-1842D02*X45366Y-1651D01*
X45747D01*
X45937Y-1842D01*
X45175Y-2032D02*X45937D01*
Y-1842D02*Y-2032D01*
X46585Y-1842D02*Y-2413D01*
Y-1842D02*X46776Y-1651D01*
X46966D01*
X47157Y-1842D01*
Y-2413D01*
X46395Y-1651D02*X46585Y-1842D01*
X47804Y-889D02*Y-2222D01*
X47995Y-2413D01*
X47614Y-1460D02*X47995D01*
X48566Y-2413D02*X49138D01*
X48376Y-2222D02*X48566Y-2413D01*
X48376Y-1842D02*Y-2222D01*
Y-1842D02*X48566Y-1651D01*
X48947D01*
X49138Y-1842D01*
X48376Y-2032D02*X49138D01*
Y-1842D02*Y-2032D01*
X49785Y-1842D02*Y-2413D01*
Y-1842D02*X49976Y-1651D01*
X50357D01*
X49595D02*X49785Y-1842D01*
X50814Y-889D02*Y-2222D01*
X51005Y-2413D01*
G54D88*X51386Y-1270D02*Y-1308D01*
G54D87*Y-1842D02*Y-2413D01*
X51957Y-1842D02*Y-2413D01*
Y-1842D02*X52148Y-1651D01*
X52338D01*
X52529Y-1842D01*
Y-2413D01*
X51767Y-1651D02*X51957Y-1842D01*
X53176Y-2413D02*X53748D01*
X52986Y-2222D02*X53176Y-2413D01*
X52986Y-1842D02*Y-2222D01*
Y-1842D02*X53176Y-1651D01*
X53557D01*
X53748Y-1842D01*
X52986Y-2032D02*X53748D01*
Y-1842D02*Y-2032D01*
X54891Y-1842D02*Y-2222D01*
Y-1842D02*X55081Y-1651D01*
X55462D01*
X55653Y-1842D01*
Y-2222D01*
X55462Y-2413D02*X55653Y-2222D01*
X55081Y-2413D02*X55462D01*
X54891Y-2222D02*X55081Y-2413D01*
X56301Y-1080D02*Y-2413D01*
Y-1080D02*X56491Y-889D01*
X56682D01*
X56110Y-1651D02*X56491D01*
X57939Y-889D02*Y-2222D01*
X58129Y-2413D01*
X57748Y-1460D02*X58129D01*
X58510Y-889D02*Y-2413D01*
Y-1842D02*X58701Y-1651D01*
X59082D01*
X59272Y-1842D01*
Y-2413D01*
G54D88*X59730Y-1270D02*Y-1308D01*
G54D87*Y-1842D02*Y-2413D01*
X60301D02*X60873D01*
X61063Y-2222D01*
X60873Y-2032D02*X61063Y-2222D01*
X60301Y-2032D02*X60873D01*
X60111Y-1842D02*X60301Y-2032D01*
X60111Y-1842D02*X60301Y-1651D01*
X60873D01*
X61063Y-1842D01*
X60111Y-2222D02*X60301Y-2413D01*
X62397Y-1842D02*Y-2984D01*
X62206Y-1651D02*X62397Y-1842D01*
X62587Y-1651D01*
X62968D01*
X63159Y-1842D01*
Y-2222D01*
X62968Y-2413D02*X63159Y-2222D01*
X62587Y-2413D02*X62968D01*
X62397Y-2222D02*X62587Y-2413D01*
X64187Y-1651D02*X64378Y-1842D01*
X63806Y-1651D02*X64187D01*
X63616Y-1842D02*X63806Y-1651D01*
X63616Y-1842D02*Y-2222D01*
X63806Y-2413D01*
X64378Y-1651D02*Y-2222D01*
X64568Y-2413D01*
X63806D02*X64187D01*
X64378Y-2222D01*
X65216Y-889D02*Y-2222D01*
X65406Y-2413D01*
X65025Y-1460D02*X65406D01*
X65787Y-889D02*Y-2413D01*
Y-1842D02*X65978Y-1651D01*
X66359D01*
X66549Y-1842D01*
Y-2413D01*
X50990Y97399D02*Y95875D01*
X51486Y97399D02*X51752Y97132D01*
Y96142D01*
X51486Y95875D02*X51752Y96142D01*
X50800Y95875D02*X51486D01*
X50800Y97399D02*X51486D01*
X52781Y96637D02*X52972Y96447D01*
X52400Y96637D02*X52781D01*
X52210Y96447D02*X52400Y96637D01*
X52210Y96447D02*Y96066D01*
X52400Y95875D01*
X52972Y96637D02*Y96066D01*
X53162Y95875D01*
X52400D02*X52781D01*
X52972Y96066D01*
X53810Y97399D02*Y96066D01*
X54000Y95875D01*
X53619Y96828D02*X54000D01*
X54572Y95875D02*X55143D01*
X54381Y96066D02*X54572Y95875D01*
X54381Y96447D02*Y96066D01*
Y96447D02*X54572Y96637D01*
X54953D01*
X55143Y96447D01*
X54381Y96256D02*X55143D01*
Y96447D02*Y96256D01*
X55601Y96828D02*X55791D01*
X55601Y96447D02*X55791D01*
X57696Y97399D02*X57887Y97209D01*
X57125Y97399D02*X57696D01*
X56934Y97209D02*X57125Y97399D01*
X56934Y97209D02*Y96828D01*
X57125Y96637D01*
X57696D01*
X57887Y96447D01*
Y96066D01*
X57696Y95875D02*X57887Y96066D01*
X57125Y95875D02*X57696D01*
X56934Y96066D02*X57125Y95875D01*
X58344Y96637D02*Y96066D01*
X58534Y95875D01*
X58915D01*
X59106Y96066D01*
Y96637D02*Y96066D01*
X59754Y96447D02*Y95875D01*
Y96447D02*X59944Y96637D01*
X60135D01*
X60325Y96447D01*
Y95875D01*
X59563Y96637D02*X59754Y96447D01*
X61468Y97399D02*Y95875D01*
Y97399D02*X62230D01*
X61468Y96713D02*X62040D01*
X62878Y95875D02*X63449D01*
X62687Y96066D02*X62878Y95875D01*
X62687Y96447D02*Y96066D01*
Y96447D02*X62878Y96637D01*
X63259D01*
X63449Y96447D01*
X62687Y96256D02*X63449D01*
Y96447D02*Y96256D01*
X63906Y97399D02*Y95875D01*
Y96066D02*X64097Y95875D01*
X64478D01*
X64668Y96066D01*
Y96447D02*Y96066D01*
X64478Y96637D02*X64668Y96447D01*
X64097Y96637D02*X64478D01*
X63906Y96447D02*X64097Y96637D01*
X66497Y97209D02*X66688Y97399D01*
X67259D01*
X67450Y97209D01*
Y96828D01*
X66497Y95875D02*X67450Y96828D01*
X66497Y95875D02*X67450D01*
X68593Y97209D02*X68783Y97399D01*
X69355D01*
X69545Y97209D01*
Y96828D01*
X68593Y95875D02*X69545Y96828D01*
X68593Y95875D02*X69545D01*
X70002Y97209D02*X70193Y97399D01*
X70764D01*
X70955Y97209D01*
Y96828D01*
X70002Y95875D02*X70955Y96828D01*
X70002Y95875D02*X70955D01*
X71412Y96828D02*X71603D01*
X71412Y96447D02*X71603D01*
X72060Y97094D02*X72365Y97399D01*
Y95875D01*
X72060D02*X72631D01*
X73089Y97209D02*X73279Y97399D01*
X73851D01*
X74041Y97209D01*
Y96828D01*
X73089Y95875D02*X74041Y96828D01*
X73089Y95875D02*X74041D01*
X74498Y96828D02*X74689D01*
X74498Y96447D02*X74689D01*
X75146Y97209D02*X75336Y97399D01*
X75717D01*
X75908Y97209D01*
X75717Y95875D02*X75908Y96066D01*
X75336Y95875D02*X75717D01*
X75146Y96066D02*X75336Y95875D01*
Y96713D02*X75717D01*
X75908Y97209D02*Y96904D01*
Y96523D02*Y96066D01*
Y96523D02*X75717Y96713D01*
X75908Y96904D02*X75717Y96713D01*
X76556Y95875D02*X77127Y96637D01*
Y97209D02*Y96637D01*
X76937Y97399D02*X77127Y97209D01*
X76556Y97399D02*X76937D01*
X76365Y97209D02*X76556Y97399D01*
X76365Y97209D02*Y96828D01*
X76556Y96637D01*
X77127D01*
X78270Y97209D02*X78461Y97399D01*
X79032D01*
X79223Y97209D01*
Y96828D01*
X78270Y95875D02*X79223Y96828D01*
X78270Y95875D02*X79223D01*
X79680Y96066D02*X79870Y95875D01*
X79680Y97209D02*Y96066D01*
Y97209D02*X79870Y97399D01*
X80251D01*
X80442Y97209D01*
Y96066D01*
X80251Y95875D02*X80442Y96066D01*
X79870Y95875D02*X80251D01*
X79680Y96256D02*X80442Y97018D01*
X80899Y97209D02*X81090Y97399D01*
X81661D01*
X81852Y97209D01*
Y96828D01*
X80899Y95875D02*X81852Y96828D01*
X80899Y95875D02*X81852D01*
X82309Y96066D02*X82499Y95875D01*
X82309Y97209D02*Y96066D01*
Y97209D02*X82499Y97399D01*
X82880D01*
X83071Y97209D01*
Y96066D01*
X82880Y95875D02*X83071Y96066D01*
X82499Y95875D02*X82880D01*
X82309Y96256D02*X83071Y97018D01*
X84214Y97399D02*Y96066D01*
X84404Y95875D01*
X84785D01*
X84976Y96066D01*
Y97399D02*Y96066D01*
X85433Y97399D02*X86195D01*
X85814D02*Y95875D01*
X86919D02*X87414D01*
X86652Y96142D02*X86919Y95875D01*
X86652Y97132D02*Y96142D01*
Y97132D02*X86919Y97399D01*
X87414D01*
X50800Y100828D02*Y99685D01*
Y100828D02*X51067Y101209D01*
X51486D01*
X51752Y100828D01*
Y99685D01*
X50800Y100447D02*X51752D01*
X52210D02*Y99876D01*
X52400Y99685D01*
X52781D01*
X52972Y99876D01*
Y100447D02*Y99876D01*
X53619Y101209D02*Y99876D01*
X53810Y99685D01*
X53429Y100638D02*X53810D01*
X54191Y101209D02*Y99685D01*
Y100257D02*X54381Y100447D01*
X54762D01*
X54953Y100257D01*
Y99685D01*
X55410Y100257D02*Y99876D01*
Y100257D02*X55601Y100447D01*
X55982D01*
X56172Y100257D01*
Y99876D01*
X55982Y99685D02*X56172Y99876D01*
X55601Y99685D02*X55982D01*
X55410Y99876D02*X55601Y99685D01*
X56820Y100257D02*Y99685D01*
Y100257D02*X57010Y100447D01*
X57391D01*
X56629D02*X56820Y100257D01*
X57849Y100638D02*X58039D01*
X57849Y100257D02*X58039D01*
X59373Y101209D02*Y99685D01*
X59182Y101209D02*X59944D01*
X60135Y101019D01*
Y100638D01*
X59944Y100447D02*X60135Y100638D01*
X59373Y100447D02*X59944D01*
X61163D02*X61354Y100257D01*
X60782Y100447D02*X61163D01*
X60592Y100257D02*X60782Y100447D01*
X60592Y100257D02*Y99876D01*
X60782Y99685D01*
X61354Y100447D02*Y99876D01*
X61544Y99685D01*
X60782D02*X61163D01*
X61354Y99876D01*
X62192Y101209D02*Y99876D01*
X62382Y99685D01*
X62001Y100638D02*X62382D01*
X62954Y100257D02*Y99685D01*
Y100257D02*X63144Y100447D01*
X63525D01*
X62763D02*X62954Y100257D01*
G54D88*X63983Y100828D02*Y100790D01*
G54D87*Y100257D02*Y99685D01*
X64554Y100447D02*X65126D01*
X64364Y100257D02*X64554Y100447D01*
X64364Y100257D02*Y99876D01*
X64554Y99685D01*
X65126D01*
X65583Y101209D02*Y99685D01*
Y100257D02*X66154Y99685D01*
X65583Y100257D02*X65964Y100638D01*
X67564Y99685D02*X68059D01*
X67297Y99952D02*X67564Y99685D01*
X67297Y100942D02*Y99952D01*
Y100942D02*X67564Y101209D01*
X68059D01*
X68517Y100257D02*Y99876D01*
Y100257D02*X68707Y100447D01*
X69088D01*
X69279Y100257D01*
Y99876D01*
X69088Y99685D02*X69279Y99876D01*
X68707Y99685D02*X69088D01*
X68517Y99876D02*X68707Y99685D01*
X69736Y101209D02*Y99876D01*
X69926Y99685D01*
X70498D02*X71069D01*
X70307Y99876D02*X70498Y99685D01*
X70307Y100257D02*Y99876D01*
Y100257D02*X70498Y100447D01*
X70879D01*
X71069Y100257D01*
X70307Y100066D02*X71069D01*
Y100257D02*Y100066D01*
X71717Y100257D02*Y99685D01*
Y100257D02*X71907Y100447D01*
X72098D01*
X72288Y100257D01*
Y99685D01*
Y100257D02*X72479Y100447D01*
X72669D01*
X72860Y100257D01*
Y99685D01*
X71526Y100447D02*X71717Y100257D01*
X73889Y100447D02*X74079Y100257D01*
X73508Y100447D02*X73889D01*
X73317Y100257D02*X73508Y100447D01*
X73317Y100257D02*Y99876D01*
X73508Y99685D01*
X74079Y100447D02*Y99876D01*
X74270Y99685D01*
X73508D02*X73889D01*
X74079Y99876D01*
X74917Y100257D02*Y99685D01*
Y100257D02*X75108Y100447D01*
X75298D01*
X75489Y100257D01*
Y99685D01*
X74727Y100447D02*X74917Y100257D01*
X50800Y105019D02*X51562D01*
X51181D02*Y103495D01*
G54D88*X52019Y104638D02*Y104600D01*
G54D87*Y104067D02*Y103495D01*
X52591Y105019D02*Y103686D01*
X52781Y103495D01*
X52400Y104448D02*X52781D01*
X53162Y105019D02*Y103686D01*
X53353Y103495D01*
X53924D02*X54496D01*
X53734Y103686D02*X53924Y103495D01*
X53734Y104067D02*Y103686D01*
Y104067D02*X53924Y104257D01*
X54305D01*
X54496Y104067D01*
X53734Y103876D02*X54496D01*
Y104067D02*Y103876D01*
X54953Y104448D02*X55143D01*
X54953Y104067D02*X55143D01*
X56286Y103686D02*X56477Y103495D01*
X56286Y104829D02*X56477Y105019D01*
X56286Y104829D02*Y103686D01*
X56934Y104257D02*Y103686D01*
X57125Y103495D01*
X57506D01*
X57696Y103686D01*
Y104257D02*Y103686D01*
X58344Y104067D02*Y103495D01*
Y104067D02*X58534Y104257D01*
X58725D01*
X58915Y104067D01*
Y103495D01*
X58153Y104257D02*X58344Y104067D01*
X59373Y105019D02*Y103495D01*
Y104067D02*X59944Y103495D01*
X59373Y104067D02*X59754Y104448D01*
X60592Y104067D02*Y103495D01*
Y104067D02*X60782Y104257D01*
X60973D01*
X61163Y104067D01*
Y103495D01*
X60401Y104257D02*X60592Y104067D01*
X61620D02*Y103686D01*
Y104067D02*X61811Y104257D01*
X62192D01*
X62382Y104067D01*
Y103686D01*
X62192Y103495D02*X62382Y103686D01*
X61811Y103495D02*X62192D01*
X61620Y103686D02*X61811Y103495D01*
X62840Y104257D02*Y103686D01*
X63030Y103495D01*
X63221D01*
X63411Y103686D01*
Y104257D02*Y103686D01*
X63602Y103495D01*
X63792D01*
X63983Y103686D01*
Y104257D02*Y103686D01*
X64630Y104067D02*Y103495D01*
Y104067D02*X64821Y104257D01*
X65011D01*
X65202Y104067D01*
Y103495D01*
X64440Y104257D02*X64630Y104067D01*
X65659Y105019D02*X65850Y104829D01*
Y103686D01*
X65659Y103495D02*X65850Y103686D01*
X66993Y104257D02*X67755D01*
X68898Y105019D02*Y103495D01*
Y105019D02*X69660D01*
X68898Y104333D02*X69469D01*
X70688Y104257D02*X70879Y104067D01*
X70307Y104257D02*X70688D01*
X70117Y104067D02*X70307Y104257D01*
X70117Y104067D02*Y103686D01*
X70307Y103495D01*
X70879Y104257D02*Y103686D01*
X71069Y103495D01*
X70307D02*X70688D01*
X70879Y103686D01*
X71526Y105019D02*Y103495D01*
Y103686D02*X71717Y103495D01*
X72098D01*
X72288Y103686D01*
Y104067D02*Y103686D01*
X72098Y104257D02*X72288Y104067D01*
X71717Y104257D02*X72098D01*
X71526Y104067D02*X71717Y104257D01*
X72936Y104067D02*Y103495D01*
Y104067D02*X73127Y104257D01*
X73508D01*
X72746D02*X72936Y104067D01*
G54D88*X73965Y104638D02*Y104600D01*
G54D87*Y104067D02*Y103495D01*
X74536Y104257D02*X75108D01*
X74346Y104067D02*X74536Y104257D01*
X74346Y104067D02*Y103686D01*
X74536Y103495D01*
X75108D01*
X76137Y104257D02*X76327Y104067D01*
X75756Y104257D02*X76137D01*
X75565Y104067D02*X75756Y104257D01*
X75565Y104067D02*Y103686D01*
X75756Y103495D01*
X76327Y104257D02*Y103686D01*
X76518Y103495D01*
X75756D02*X76137D01*
X76327Y103686D01*
X77165Y105019D02*Y103686D01*
X77356Y103495D01*
X76975Y104448D02*X77356D01*
G54D88*X77737Y104638D02*Y104600D01*
G54D87*Y104067D02*Y103495D01*
X78118Y104067D02*Y103686D01*
Y104067D02*X78308Y104257D01*
X78689D01*
X78880Y104067D01*
Y103686D01*
X78689Y103495D02*X78880Y103686D01*
X78308Y103495D02*X78689D01*
X78118Y103686D02*X78308Y103495D01*
X79527Y104067D02*Y103495D01*
Y104067D02*X79718Y104257D01*
X79908D01*
X80099Y104067D01*
Y103495D01*
X79337Y104257D02*X79527Y104067D01*
X81432Y105019D02*Y103495D01*
X81928Y105019D02*X82194Y104752D01*
Y103762D01*
X81928Y103495D02*X82194Y103762D01*
X81242Y103495D02*X81928D01*
X81242Y105019D02*X81928D01*
X82842Y104067D02*Y103495D01*
Y104067D02*X83033Y104257D01*
X83414D01*
X82652D02*X82842Y104067D01*
X84442Y104257D02*X84633Y104067D01*
X84061Y104257D02*X84442D01*
X83871Y104067D02*X84061Y104257D01*
X83871Y104067D02*Y103686D01*
X84061Y103495D01*
X84633Y104257D02*Y103686D01*
X84823Y103495D01*
X84061D02*X84442D01*
X84633Y103686D01*
X85281Y104257D02*Y103686D01*
X85471Y103495D01*
X85662D01*
X85852Y103686D01*
Y104257D02*Y103686D01*
X86043Y103495D01*
X86233D01*
X86424Y103686D01*
Y104257D02*Y103686D01*
G54D88*X86881Y104638D02*Y104600D01*
G54D87*Y104067D02*Y103495D01*
X87452Y104067D02*Y103495D01*
Y104067D02*X87643Y104257D01*
X87833D01*
X88024Y104067D01*
Y103495D01*
X87262Y104257D02*X87452Y104067D01*
X89052Y104257D02*X89243Y104067D01*
X88671Y104257D02*X89052D01*
X88481Y104067D02*X88671Y104257D01*
X88481Y104067D02*Y103686D01*
X88671Y103495D01*
X89052D01*
X89243Y103686D01*
X88481Y103114D02*X88671Y102924D01*
X89052D01*
X89243Y103114D01*
Y104257D02*Y103114D01*
M02*
