G04 start of page 3 for group 1 idx 1 *
G04 Title: (unknown), bottom *
G04 Creator: pcb 4.2.0 *
G04 CreationDate: Sun Feb  2 22:12:39 2020 UTC *
G04 For: blinken *
G04 Format: Gerber/RS-274X *
G04 PCB-Dimensions (mm): 90.16 90.16 *
G04 PCB-Coordinate-Origin: lower left *
%MOMM*%
%FSLAX43Y43*%
%LNBOTTOM*%
%ADD52C,0.300*%
%ADD51C,0.965*%
%ADD50C,1.200*%
%ADD49C,1.700*%
%ADD48C,0.889*%
%ADD47C,0.400*%
%ADD46C,0.508*%
%ADD45C,2.392*%
%ADD44C,1.600*%
%ADD43C,2.100*%
%ADD42C,0.800*%
%ADD41C,0.914*%
%ADD40C,3.730*%
%ADD39C,0.700*%
%ADD38C,1.524*%
%ADD37C,0.635*%
%ADD36C,0.250*%
%ADD35C,1.016*%
%ADD34C,0.200*%
%ADD33C,0.254*%
%ADD32C,0.002*%
G54D32*G36*
X43390Y80130D02*X44900D01*
X48000Y77030D01*
Y76528D01*
X47997Y76536D01*
X47976Y76570D01*
X47950Y76600D01*
X47920Y76626D01*
X47885Y76647D01*
X47849Y76662D01*
X47810Y76672D01*
X47770Y76674D01*
X45830Y76672D01*
X45791Y76662D01*
X45754Y76647D01*
X45720Y76626D01*
X45690Y76600D01*
X45664Y76570D01*
X45643Y76536D01*
X45628Y76499D01*
X45618Y76460D01*
X45616Y76420D01*
X45618Y75100D01*
X43390D01*
Y77047D01*
X44880Y77048D01*
X44919Y77058D01*
X44956Y77073D01*
X44990Y77094D01*
X45020Y77120D01*
X45046Y77150D01*
X45067Y77184D01*
X45082Y77221D01*
X45092Y77260D01*
X45094Y77300D01*
X45092Y79740D01*
X45082Y79779D01*
X45067Y79816D01*
X45046Y79850D01*
X45020Y79880D01*
X44990Y79906D01*
X44956Y79927D01*
X44919Y79942D01*
X44880Y79952D01*
X44840Y79954D01*
X43390Y79953D01*
Y80130D01*
G37*
G36*
X40004Y75588D02*X40008Y75604D01*
X40010Y75635D01*
X40008Y75966D01*
X40001Y75997D01*
X39989Y76026D01*
X39972Y76053D01*
X39952Y76077D01*
X39928Y76097D01*
X39907Y76110D01*
X39928Y76123D01*
X39952Y76143D01*
X39972Y76167D01*
X39989Y76194D01*
X40001Y76223D01*
X40008Y76254D01*
X40010Y76285D01*
X40008Y76616D01*
X40001Y76647D01*
X39989Y76676D01*
X39972Y76703D01*
X39952Y76727D01*
X39928Y76747D01*
X39907Y76760D01*
X39928Y76773D01*
X39952Y76793D01*
X39972Y76817D01*
X39989Y76844D01*
X40001Y76873D01*
X40008Y76904D01*
X40010Y76935D01*
X40008Y77266D01*
X40001Y77297D01*
X39989Y77326D01*
X39972Y77353D01*
X39952Y77377D01*
X39928Y77397D01*
X39907Y77410D01*
X39928Y77423D01*
X39952Y77443D01*
X39972Y77467D01*
X39989Y77494D01*
X40001Y77523D01*
X40008Y77554D01*
X40010Y77585D01*
X40008Y77916D01*
X40001Y77947D01*
X39989Y77976D01*
X39972Y78003D01*
X39952Y78027D01*
X39928Y78047D01*
X39901Y78064D01*
X39872Y78076D01*
X39841Y78083D01*
X39810Y78085D01*
X39294Y78084D01*
X41340Y80130D01*
X43390D01*
Y79953D01*
X41900Y79952D01*
X41861Y79942D01*
X41824Y79927D01*
X41790Y79906D01*
X41760Y79880D01*
X41734Y79850D01*
X41713Y79816D01*
X41698Y79779D01*
X41688Y79740D01*
X41686Y79700D01*
X41688Y77260D01*
X41698Y77221D01*
X41713Y77184D01*
X41734Y77150D01*
X41760Y77120D01*
X41790Y77094D01*
X41824Y77073D01*
X41861Y77058D01*
X41900Y77048D01*
X41940Y77046D01*
X43390Y77047D01*
Y75100D01*
X40013D01*
X40015Y75130D01*
Y75492D01*
X40016Y75505D01*
X40012Y75556D01*
X40012Y75556D01*
X40004Y75588D01*
G37*
G36*
X48470Y77260D02*X45050Y80680D01*
X40260D01*
X40259Y81737D01*
X40249Y81775D01*
X40234Y81812D01*
X40213Y81846D01*
X40187Y81877D01*
X40157Y81903D01*
X40123Y81924D01*
X40086Y81939D01*
X40047Y81948D01*
X40007Y81951D01*
X38420Y81950D01*
Y83544D01*
X40047Y83545D01*
X40086Y83554D01*
X40123Y83570D01*
X40157Y83591D01*
X40187Y83617D01*
X40213Y83647D01*
X40234Y83681D01*
X40249Y83718D01*
X40259Y83757D01*
X40261Y83797D01*
X40259Y85337D01*
X40249Y85375D01*
X40234Y85412D01*
X40213Y85446D01*
X40187Y85477D01*
X40157Y85503D01*
X40123Y85524D01*
X40086Y85539D01*
X40047Y85548D01*
X40007Y85551D01*
X38420Y85550D01*
Y86130D01*
X46600D01*
Y80420D01*
X49120Y77900D01*
X48470Y77250D01*
Y77260D01*
G37*
G36*
X65503Y76760D02*X68560D01*
Y76590D01*
X65342D01*
X65452Y76700D01*
X65462Y76708D01*
X65495Y76747D01*
X65495Y76747D01*
X65503Y76760D01*
G37*
G36*
X56503Y79572D02*Y78730D01*
X55672D01*
Y85624D01*
X57196Y87148D01*
X57639D01*
X57624Y87130D01*
X57603Y87096D01*
X57587Y87059D01*
X57578Y87020D01*
X57576Y86981D01*
X57578Y85041D01*
X57587Y85002D01*
X57603Y84965D01*
X57624Y84931D01*
X57650Y84900D01*
X57679Y84876D01*
X57664Y84866D01*
X57633Y84840D01*
X57607Y84810D01*
X57586Y84776D01*
X57571Y84739D01*
X57562Y84700D01*
X57559Y84660D01*
X57562Y82720D01*
X57571Y82682D01*
X57586Y82645D01*
X57607Y82611D01*
X57633Y82580D01*
X57664Y82554D01*
X57698Y82533D01*
X57735Y82518D01*
X57773Y82509D01*
X57813Y82506D01*
X59153Y82509D01*
X59192Y82518D01*
X59229Y82533D01*
X59263Y82554D01*
X59293Y82580D01*
X59319Y82611D01*
X59340Y82645D01*
X59356Y82682D01*
X59365Y82720D01*
X59367Y82760D01*
X59365Y84700D01*
X59356Y84739D01*
X59340Y84776D01*
X59319Y84810D01*
X59293Y84840D01*
X59264Y84865D01*
X59279Y84875D01*
X59310Y84900D01*
X59336Y84931D01*
X59357Y84965D01*
X59372Y85002D01*
X59381Y85041D01*
X59384Y85081D01*
X59381Y87020D01*
X59372Y87059D01*
X59357Y87096D01*
X59336Y87130D01*
X59321Y87148D01*
X60639D01*
X60623Y87130D01*
X60602Y87096D01*
X60587Y87059D01*
X60578Y87020D01*
X60575Y86981D01*
X60578Y85041D01*
X60587Y85002D01*
X60602Y84965D01*
X60623Y84931D01*
X60649Y84900D01*
X60678Y84876D01*
X60663Y84866D01*
X60633Y84840D01*
X60607Y84810D01*
X60586Y84776D01*
X60571Y84739D01*
X60561Y84700D01*
X60559Y84660D01*
X60561Y82720D01*
X60571Y82682D01*
X60586Y82645D01*
X60607Y82611D01*
X60633Y82580D01*
X60663Y82554D01*
X60697Y82533D01*
X60734Y82518D01*
X60773Y82509D01*
X60813Y82506D01*
X62153Y82509D01*
X62192Y82518D01*
X62229Y82533D01*
X62263Y82554D01*
X62293Y82580D01*
X62312Y82602D01*
X62319Y82611D01*
X62340Y82645D01*
X62354Y82678D01*
X62355Y82682D01*
X62365Y82720D01*
X62367Y82760D01*
X62365Y84153D01*
X63405Y85193D01*
X65315D01*
X65403Y85105D01*
Y84924D01*
X65389Y84925D01*
X65050Y84922D01*
X65011Y84913D01*
X64974Y84898D01*
X64940Y84877D01*
X64910Y84851D01*
X64884Y84820D01*
X64863Y84786D01*
X64847Y84749D01*
X64838Y84710D01*
X64836Y84671D01*
X64838Y83902D01*
X64847Y83863D01*
X64863Y83826D01*
X64870Y83814D01*
X64841Y83796D01*
X64810Y83770D01*
X64784Y83740D01*
X64766Y83710D01*
X64754Y83717D01*
X64717Y83733D01*
X64678Y83742D01*
X64639Y83744D01*
X63870Y83742D01*
X63831Y83733D01*
X63794Y83717D01*
X63760Y83697D01*
X63729Y83671D01*
X63704Y83640D01*
X63683Y83606D01*
X63667Y83569D01*
X63658Y83530D01*
X63656Y83490D01*
X63658Y83151D01*
X63667Y83112D01*
X63676Y83090D01*
X63667Y83069D01*
X63658Y83030D01*
X63656Y82990D01*
X63658Y82651D01*
X63661Y82640D01*
X63522D01*
X63510Y82641D01*
X63463Y82637D01*
X63417Y82626D01*
X63373Y82608D01*
X63333Y82584D01*
X63333Y82584D01*
X63333Y82584D01*
X63297Y82553D01*
X63290Y82544D01*
X62646Y81900D01*
X58482D01*
X58470Y81901D01*
X58423Y81897D01*
X58377Y81886D01*
X58333Y81868D01*
X58293Y81844D01*
X58293Y81844D01*
X58257Y81813D01*
X58250Y81804D01*
X56618Y80172D01*
X56587Y80137D01*
X56562Y80097D01*
X56551Y80071D01*
X56538Y80049D01*
X56518Y80001D01*
X56506Y79951D01*
X56503Y79900D01*
Y79572D01*
G37*
G36*
X68550Y77100D02*X65557D01*
Y78835D01*
X65574Y78815D01*
X65646Y78753D01*
X65727Y78704D01*
X65814Y78668D01*
X65906Y78646D01*
X66000Y78638D01*
X66094Y78646D01*
X66186Y78668D01*
X66273Y78704D01*
X66336Y78742D01*
X66294Y78673D01*
X66258Y78586D01*
X66236Y78494D01*
X66228Y78400D01*
X66236Y78306D01*
X66258Y78214D01*
X66294Y78127D01*
X66343Y78046D01*
X66404Y77975D01*
X66476Y77913D01*
X66557Y77864D01*
X66644Y77828D01*
X66736Y77806D01*
X66830Y77798D01*
X66924Y77806D01*
X67016Y77828D01*
X67103Y77864D01*
X67184Y77913D01*
X67256Y77975D01*
X67317Y78046D01*
X67366Y78127D01*
X67402Y78214D01*
X67424Y78306D01*
X67430Y78400D01*
X67424Y78494D01*
X67402Y78586D01*
X67366Y78673D01*
X67317Y78754D01*
X67256Y78826D01*
X67184Y78887D01*
X67113Y78930D01*
Y79528D01*
X67114Y79540D01*
X67110Y79587D01*
X67099Y79633D01*
X67081Y79677D01*
X67056Y79717D01*
X67056Y79717D01*
X67040Y79736D01*
Y79761D01*
X67051Y79758D01*
X67091Y79756D01*
X67430Y79758D01*
X67469Y79767D01*
X67506Y79783D01*
X67540Y79804D01*
X67571Y79829D01*
X67571Y79830D01*
X68550D01*
Y77100D01*
G37*
G36*
X65557D02*X68550D01*
Y75330D01*
X64082D01*
X65452Y76700D01*
X65462Y76708D01*
X65495Y76747D01*
X65495Y76747D01*
X65522Y76791D01*
X65542Y76839D01*
X65554Y76889D01*
X65558Y76940D01*
X65557Y76953D01*
Y77100D01*
G37*
G36*
X19514Y78634D02*X19793Y78355D01*
Y76553D01*
X19784Y76546D01*
X19723Y76474D01*
X19674Y76393D01*
X19638Y76306D01*
X19616Y76214D01*
X19608Y76120D01*
X19616Y76026D01*
X19638Y75934D01*
X19674Y75847D01*
X19723Y75766D01*
X19784Y75695D01*
X19856Y75633D01*
X19937Y75584D01*
X20024Y75548D01*
X20116Y75526D01*
X20210Y75518D01*
X20304Y75526D01*
X20396Y75548D01*
X20483Y75584D01*
X20564Y75633D01*
X20636Y75695D01*
X20697Y75766D01*
X20746Y75847D01*
X20782Y75934D01*
X20804Y76026D01*
X20810Y76120D01*
X20804Y76214D01*
X20782Y76306D01*
X20746Y76393D01*
X20697Y76474D01*
X20636Y76546D01*
X20564Y76607D01*
X20483Y76656D01*
X20447Y76671D01*
Y78477D01*
X20448Y78490D01*
X20444Y78541D01*
X20432Y78591D01*
X20412Y78639D01*
X20385Y78683D01*
X20373Y78698D01*
X22010Y78698D01*
X22049Y78708D01*
X22086Y78723D01*
X22120Y78744D01*
X22150Y78770D01*
X22176Y78800D01*
X22197Y78834D01*
X22212Y78871D01*
X22222Y78910D01*
X22224Y78950D01*
X22222Y79990D01*
X22212Y80029D01*
X22197Y80066D01*
X22176Y80100D01*
X22150Y80130D01*
X22120Y80156D01*
X22086Y80177D01*
X22049Y80192D01*
X22010Y80202D01*
X21970Y80204D01*
X20233Y80203D01*
X20540Y80510D01*
X22943D01*
Y79283D01*
X22942Y79270D01*
X22946Y79219D01*
Y79219D01*
X22958Y79169D01*
X22978Y79121D01*
X23005Y79077D01*
X23038Y79038D01*
X23048Y79030D01*
X23670Y78408D01*
X23678Y78398D01*
X23717Y78365D01*
X23761Y78338D01*
X23809Y78318D01*
X23859Y78306D01*
X23859D01*
X23910Y78302D01*
X23923Y78303D01*
X24710D01*
Y75397D01*
X24678Y75384D01*
X24644Y75363D01*
X24614Y75337D01*
X24588Y75306D01*
X24567Y75272D01*
X24552Y75235D01*
X24542Y75196D01*
X24540Y75157D01*
X24542Y73217D01*
X24552Y73178D01*
X24567Y73141D01*
X24588Y73107D01*
X24614Y73076D01*
X24644Y73051D01*
X24678Y73030D01*
X24710Y73016D01*
Y73008D01*
X24709Y73008D01*
X24674Y72987D01*
X24644Y72961D01*
X24618Y72931D01*
X24597Y72897D01*
X24582Y72860D01*
X24573Y72821D01*
X24570Y72781D01*
X24571Y72158D01*
X23879D01*
X23878Y72834D01*
X23868Y72873D01*
X23853Y72910D01*
X23832Y72944D01*
X23806Y72975D01*
X23776Y73001D01*
X23742Y73022D01*
X23705Y73037D01*
X23666Y73046D01*
X23626Y73049D01*
X22286Y73046D01*
X22247Y73037D01*
X22210Y73022D01*
X22176Y73001D01*
X22146Y72975D01*
X22120Y72944D01*
X22099Y72910D01*
X22084Y72873D01*
X22074Y72834D01*
X22072Y72795D01*
X22074Y70855D01*
X22084Y70816D01*
X22099Y70779D01*
X22120Y70745D01*
X22146Y70714D01*
X22176Y70689D01*
X22190Y70680D01*
X20762D01*
X20776Y70689D01*
X20806Y70714D01*
X20832Y70745D01*
X20853Y70779D01*
X20869Y70816D01*
X20878Y70855D01*
X20880Y70895D01*
X20878Y72834D01*
X20869Y72873D01*
X20853Y72910D01*
X20832Y72944D01*
X20806Y72975D01*
X20776Y73001D01*
X20742Y73022D01*
X20705Y73037D01*
X20666Y73046D01*
X20626Y73049D01*
X19286Y73046D01*
X19248Y73037D01*
X19211Y73022D01*
X19177Y73001D01*
X19146Y72975D01*
X19120Y72944D01*
X19099Y72910D01*
X19084Y72873D01*
X19075Y72834D01*
X19072Y72795D01*
X19075Y70855D01*
X19084Y70816D01*
X19099Y70779D01*
X19120Y70745D01*
X19146Y70714D01*
X19177Y70689D01*
X19190Y70680D01*
X10900D01*
Y70870D01*
X13420Y73390D01*
X13439Y73368D01*
X13470Y73342D01*
X13504Y73321D01*
X13541Y73306D01*
X13580Y73296D01*
X13620Y73294D01*
X14959Y73296D01*
X14998Y73306D01*
X15035Y73321D01*
X15069Y73342D01*
X15100Y73368D01*
X15126Y73398D01*
X15147Y73432D01*
X15162Y73469D01*
X15171Y73508D01*
X15174Y73548D01*
X15172Y75142D01*
X16026Y75997D01*
X18510Y75998D01*
X18549Y76008D01*
X18586Y76023D01*
X18620Y76044D01*
X18650Y76070D01*
X18676Y76100D01*
X18697Y76134D01*
X18712Y76171D01*
X18722Y76210D01*
X18724Y76250D01*
X18722Y77890D01*
X18712Y77929D01*
X18697Y77966D01*
X18676Y78000D01*
X18650Y78030D01*
X18620Y78056D01*
X18586Y78077D01*
X18549Y78092D01*
X18510Y78102D01*
X18470Y78104D01*
X18134Y78104D01*
X18727Y78697D01*
X19450Y78697D01*
X19514Y78634D01*
G37*
G36*
X75680Y54720D02*X67640D01*
Y64870D01*
X74212D01*
X74212Y64021D01*
X74222Y63983D01*
X74237Y63946D01*
X74257Y63913D01*
X74283Y63883D01*
X74313Y63857D01*
X74346Y63837D01*
X74383Y63822D01*
X74421Y63812D01*
X74460Y63810D01*
X75680Y63811D01*
Y54720D01*
G37*
G36*
X61754Y75479D02*X61752Y75477D01*
X61731Y75443D01*
X61716Y75406D01*
X61706Y75367D01*
X61704Y75327D01*
X61706Y73388D01*
X61716Y73349D01*
X61731Y73312D01*
X61752Y73278D01*
X61778Y73247D01*
X61808Y73221D01*
X61842Y73200D01*
X61879Y73185D01*
X61918Y73176D01*
X61958Y73173D01*
X63298Y73176D01*
X63337Y73185D01*
X63374Y73200D01*
X63408Y73221D01*
X63438Y73247D01*
X63464Y73278D01*
X63485Y73312D01*
X63500Y73349D01*
X63510Y73388D01*
X63512Y73427D01*
X63510Y74758D01*
X64092Y75340D01*
X68688D01*
Y74880D01*
X68695Y74761D01*
X68723Y74644D01*
X68769Y74533D01*
X68832Y74431D01*
X68910Y74340D01*
X68932Y74320D01*
X69980Y73272D01*
X70000Y73250D01*
X70091Y73172D01*
X70091Y73172D01*
X70193Y73109D01*
X70304Y73063D01*
X70398Y73041D01*
X70420Y73035D01*
X70420D01*
X70540Y73026D01*
X70570Y73028D01*
X71008D01*
X69095Y71115D01*
X58518D01*
X58505Y71116D01*
X58454Y71112D01*
X58404Y71100D01*
X58357Y71081D01*
X58313Y71054D01*
X58313Y71054D01*
X58274Y71021D01*
X58266Y71011D01*
X57925Y70670D01*
X57270D01*
Y75880D01*
X57281Y75899D01*
X57313Y75846D01*
X57374Y75775D01*
X57446Y75713D01*
X57527Y75664D01*
X57614Y75628D01*
X57706Y75606D01*
X57800Y75598D01*
X57894Y75606D01*
X57986Y75628D01*
X58073Y75664D01*
X58154Y75713D01*
X58226Y75775D01*
X58287Y75846D01*
X58336Y75927D01*
X58372Y76014D01*
X58394Y76106D01*
X58400Y76200D01*
X58394Y76294D01*
X58372Y76386D01*
X58336Y76473D01*
X58287Y76554D01*
X58226Y76626D01*
X58154Y76687D01*
X58137Y76697D01*
Y78500D01*
X58704D01*
X58704Y77931D01*
X58714Y77892D01*
X58729Y77855D01*
X58750Y77821D01*
X58776Y77791D01*
X58806Y77765D01*
X58840Y77744D01*
X58861Y77735D01*
X58858Y77734D01*
X58824Y77713D01*
X58793Y77687D01*
X58768Y77657D01*
X58747Y77623D01*
X58731Y77586D01*
X58722Y77547D01*
X58720Y77507D01*
X58722Y75567D01*
X58731Y75528D01*
X58747Y75491D01*
X58754Y75479D01*
X58752Y75477D01*
X58731Y75443D01*
X58716Y75406D01*
X58707Y75367D01*
X58704Y75327D01*
X58707Y73388D01*
X58716Y73349D01*
X58731Y73312D01*
X58752Y73278D01*
X58778Y73247D01*
X58808Y73221D01*
X58843Y73200D01*
X58880Y73185D01*
X58918Y73176D01*
X58958Y73173D01*
X60298Y73176D01*
X60337Y73185D01*
X60374Y73200D01*
X60408Y73221D01*
X60438Y73247D01*
X60464Y73278D01*
X60485Y73312D01*
X60501Y73349D01*
X60510Y73388D01*
X60512Y73427D01*
X60511Y74803D01*
X60817D01*
X60830Y74802D01*
X60881Y74806D01*
X60881Y74806D01*
X60931Y74818D01*
X60979Y74838D01*
X61023Y74865D01*
X61062Y74898D01*
X61070Y74908D01*
X61723Y75561D01*
X61731Y75528D01*
X61746Y75491D01*
X61754Y75479D01*
G37*
G36*
X30637Y75390D02*X29194D01*
X29172Y75399D01*
X29134Y75408D01*
X29094Y75411D01*
X27754Y75408D01*
X27715Y75399D01*
X27694Y75390D01*
X26194D01*
X26173Y75399D01*
X26134Y75408D01*
X26094Y75411D01*
X24754Y75408D01*
X24715Y75399D01*
X24694Y75390D01*
X24370D01*
Y78303D01*
X28217D01*
X28230Y78302D01*
X28281Y78306D01*
X28281D01*
X28281Y78306D01*
X28331Y78318D01*
X28379Y78338D01*
X28423Y78365D01*
X28462Y78398D01*
X28470Y78408D01*
X29012Y78950D01*
X29022Y78958D01*
X29055Y78997D01*
X29055Y78997D01*
X29082Y79041D01*
X29102Y79089D01*
X29114Y79139D01*
X29118Y79190D01*
X29117Y79203D01*
Y80410D01*
X31307D01*
X31308Y79222D01*
X31317Y79183D01*
X31332Y79146D01*
X31353Y79112D01*
X31379Y79082D01*
X31409Y79056D01*
X31444Y79035D01*
X31480Y79020D01*
X31519Y79010D01*
X31559Y79008D01*
X33999Y79010D01*
X34038Y79020D01*
X34075Y79035D01*
X34109Y79056D01*
X34139Y79082D01*
X34165Y79112D01*
X34186Y79146D01*
X34202Y79183D01*
X34211Y79222D01*
X34213Y79262D01*
X34212Y80410D01*
X35590D01*
Y78084D01*
X35079Y78083D01*
X35048Y78076D01*
X35019Y78064D01*
X34992Y78047D01*
X34968Y78027D01*
X34948Y78003D01*
X34931Y77976D01*
X34919Y77947D01*
X34912Y77916D01*
X34910Y77885D01*
X34912Y77554D01*
X34919Y77523D01*
X34931Y77494D01*
X34948Y77467D01*
X34968Y77443D01*
X34992Y77423D01*
X35013Y77410D01*
X34992Y77397D01*
X34968Y77377D01*
X34948Y77353D01*
X34931Y77326D01*
X34919Y77297D01*
X34912Y77266D01*
X34910Y77235D01*
X34912Y76904D01*
X34919Y76873D01*
X34931Y76844D01*
X34948Y76817D01*
X34968Y76793D01*
X34987Y76777D01*
X34865D01*
X34143Y77500D01*
X34141Y78240D01*
X34132Y78279D01*
X34117Y78316D01*
X34096Y78350D01*
X34070Y78380D01*
X34040Y78406D01*
X34005Y78427D01*
X33969Y78442D01*
X33930Y78452D01*
X33890Y78454D01*
X32550Y78452D01*
X32511Y78442D01*
X32474Y78427D01*
X32440Y78406D01*
X32410Y78380D01*
X32384Y78350D01*
X32363Y78316D01*
X32348Y78279D01*
X32340Y78247D01*
X32332Y78279D01*
X32317Y78316D01*
X32296Y78350D01*
X32270Y78380D01*
X32240Y78406D01*
X32206Y78427D01*
X32169Y78442D01*
X32130Y78452D01*
X32090Y78454D01*
X30750Y78452D01*
X30711Y78442D01*
X30674Y78427D01*
X30640Y78406D01*
X30610Y78380D01*
X30584Y78350D01*
X30563Y78316D01*
X30548Y78279D01*
X30538Y78240D01*
X30536Y78200D01*
X30538Y76660D01*
X30544Y76637D01*
X30548Y76622D01*
X30563Y76585D01*
X30584Y76551D01*
X30610Y76520D01*
X30640Y76494D01*
X30674Y76473D01*
X30711Y76458D01*
X30750Y76449D01*
X30790Y76446D01*
X31659Y76448D01*
X32034Y76448D01*
X31909Y76323D01*
X30850Y76322D01*
X30811Y76312D01*
X30774Y76297D01*
X30740Y76276D01*
X30710Y76250D01*
X30684Y76220D01*
X30663Y76186D01*
X30648Y76149D01*
X30638Y76110D01*
X30636Y76070D01*
X30637Y75390D01*
G37*
G36*
X35045Y54933D02*X41751D01*
X37170Y50353D01*
X37168Y51655D01*
X37159Y51694D01*
X37143Y51731D01*
X37122Y51765D01*
X37097Y51795D01*
X37066Y51821D01*
X37032Y51842D01*
X36995Y51858D01*
X36956Y51867D01*
X36916Y51869D01*
X35045Y51867D01*
Y53061D01*
X36956Y53063D01*
X36995Y53073D01*
X37032Y53088D01*
X37066Y53109D01*
X37097Y53135D01*
X37122Y53165D01*
X37143Y53199D01*
X37159Y53236D01*
X37168Y53275D01*
X37170Y53315D01*
X37168Y54655D01*
X37159Y54694D01*
X37143Y54731D01*
X37122Y54765D01*
X37097Y54795D01*
X37066Y54821D01*
X37032Y54842D01*
X36995Y54857D01*
X36956Y54867D01*
X36916Y54869D01*
X35045Y54867D01*
Y54933D01*
G37*
G36*
X40701Y56513D02*X42719D01*
X41793Y55587D01*
X40701D01*
Y56513D01*
G37*
G36*
X43890Y58881D02*X43944Y58886D01*
X44036Y58908D01*
X44123Y58944D01*
X44204Y58993D01*
X44276Y59055D01*
X44337Y59126D01*
X44353Y59153D01*
X44671D01*
X43890Y58373D01*
Y58881D01*
G37*
G36*
X44808Y68225D02*X44818Y68236D01*
X44912Y68390D01*
X44980Y68556D01*
X45022Y68731D01*
X45033Y68910D01*
X45022Y69089D01*
X44980Y69264D01*
X44912Y69431D01*
X44818Y69584D01*
X44808Y69596D01*
Y70480D01*
X47383D01*
Y69542D01*
X47358Y69584D01*
X47241Y69721D01*
X47104Y69838D01*
X46951Y69932D01*
X46784Y70001D01*
X46609Y70043D01*
X46430Y70057D01*
X46251Y70043D01*
X46076Y70001D01*
X45909Y69932D01*
X45756Y69838D01*
X45619Y69721D01*
X45502Y69584D01*
X45408Y69431D01*
X45340Y69264D01*
X45298Y69089D01*
X45283Y68910D01*
X45298Y68731D01*
X45340Y68556D01*
X45408Y68390D01*
X45502Y68236D01*
X45619Y68099D01*
X45756Y67983D01*
X45909Y67889D01*
X46076Y67820D01*
X46251Y67778D01*
X46430Y67764D01*
X46609Y67778D01*
X46784Y67820D01*
X46951Y67889D01*
X47104Y67983D01*
X47241Y68099D01*
X47358Y68236D01*
X47383Y68278D01*
Y67002D01*
X47358Y67044D01*
X47241Y67181D01*
X47104Y67298D01*
X46951Y67392D01*
X46784Y67461D01*
X46609Y67503D01*
X46430Y67517D01*
X46251Y67503D01*
X46076Y67461D01*
X45909Y67392D01*
X45756Y67298D01*
X45619Y67181D01*
X45502Y67044D01*
X45408Y66891D01*
X45340Y66724D01*
X45298Y66549D01*
X45283Y66370D01*
X45298Y66191D01*
X45340Y66016D01*
X45408Y65850D01*
X45502Y65696D01*
X45619Y65559D01*
X45756Y65443D01*
X45909Y65349D01*
X46076Y65280D01*
X46251Y65238D01*
X46430Y65224D01*
X46609Y65238D01*
X46784Y65280D01*
X46951Y65349D01*
X47104Y65443D01*
X47241Y65559D01*
X47358Y65696D01*
X47383Y65738D01*
Y60126D01*
X47065Y59807D01*
X44808D01*
Y65825D01*
X44819Y65827D01*
X44847Y65836D01*
X44874Y65850D01*
X44898Y65868D01*
X44919Y65889D01*
X44936Y65913D01*
X44949Y65940D01*
X44987Y66044D01*
X45013Y66151D01*
X45029Y66260D01*
X45034Y66370D01*
X45029Y66480D01*
X45013Y66589D01*
X44987Y66696D01*
X44950Y66800D01*
X44937Y66827D01*
X44920Y66852D01*
X44898Y66873D01*
X44874Y66891D01*
X44847Y66905D01*
X44819Y66915D01*
X44808Y66916D01*
Y68225D01*
G37*
G36*
Y69596D02*X44701Y69721D01*
X44564Y69838D01*
X44411Y69932D01*
X44244Y70001D01*
X44069Y70043D01*
X43890Y70057D01*
Y70480D01*
X44808D01*
Y69596D01*
G37*
G36*
X43890Y67764D02*X44069Y67778D01*
X44244Y67820D01*
X44411Y67889D01*
X44564Y67983D01*
X44701Y68099D01*
X44808Y68225D01*
Y66916D01*
X44789Y66919D01*
X44759Y66920D01*
X44729Y66915D01*
X44700Y66906D01*
X44674Y66893D01*
X44649Y66875D01*
X44628Y66854D01*
X44610Y66830D01*
X44596Y66803D01*
X44586Y66774D01*
X44581Y66745D01*
X44581Y66715D01*
X44586Y66685D01*
X44595Y66656D01*
X44620Y66587D01*
X44638Y66516D01*
X44648Y66443D01*
X44652Y66370D01*
X44648Y66297D01*
X44638Y66224D01*
X44620Y66153D01*
X44596Y66084D01*
X44587Y66055D01*
X44582Y66026D01*
X44582Y65996D01*
X44587Y65966D01*
X44597Y65938D01*
X44610Y65911D01*
X44628Y65887D01*
X44650Y65866D01*
X44674Y65848D01*
X44701Y65835D01*
X44729Y65826D01*
X44759Y65821D01*
X44789Y65822D01*
X44808Y65825D01*
Y59807D01*
X44353D01*
X44337Y59834D01*
X44276Y59906D01*
X44204Y59967D01*
X44123Y60016D01*
X44036Y60052D01*
X43944Y60075D01*
X43890Y60079D01*
Y65226D01*
X44000Y65231D01*
X44109Y65247D01*
X44216Y65273D01*
X44320Y65310D01*
X44347Y65323D01*
X44372Y65341D01*
X44393Y65362D01*
X44411Y65386D01*
X44425Y65413D01*
X44434Y65441D01*
X44439Y65471D01*
X44440Y65501D01*
X44435Y65531D01*
X44426Y65560D01*
X44412Y65587D01*
X44395Y65611D01*
X44374Y65633D01*
X44350Y65650D01*
X44323Y65664D01*
X44294Y65674D01*
X44265Y65679D01*
X44234Y65679D01*
X44205Y65674D01*
X44176Y65665D01*
X44107Y65640D01*
X44036Y65622D01*
X43963Y65612D01*
X43890Y65608D01*
Y67132D01*
X43963Y67129D01*
X44036Y67118D01*
X44107Y67100D01*
X44176Y67076D01*
X44205Y67067D01*
X44234Y67062D01*
X44264Y67062D01*
X44294Y67067D01*
X44322Y67077D01*
X44349Y67091D01*
X44373Y67108D01*
X44394Y67130D01*
X44412Y67154D01*
X44425Y67181D01*
X44434Y67209D01*
X44439Y67239D01*
X44438Y67269D01*
X44434Y67299D01*
X44424Y67327D01*
X44410Y67354D01*
X44392Y67378D01*
X44371Y67399D01*
X44347Y67416D01*
X44320Y67429D01*
X44216Y67467D01*
X44109Y67493D01*
X44000Y67509D01*
X43890Y67514D01*
Y67764D01*
G37*
G36*
Y70057D02*X43890Y70057D01*
X43711Y70043D01*
X43536Y70001D01*
X43369Y69932D01*
X43216Y69838D01*
X43079Y69721D01*
X42962Y69584D01*
X42907Y69494D01*
Y70310D01*
X42905Y70344D01*
Y70480D01*
X43890D01*
Y70057D01*
G37*
G36*
X40701Y63518D02*X40964D01*
X40993Y63511D01*
X41045Y63507D01*
X41096Y63511D01*
X41146Y63523D01*
X41194Y63543D01*
X41238Y63570D01*
X41276Y63604D01*
X41277Y63605D01*
X41287Y63613D01*
X41295Y63623D01*
X42802Y65130D01*
X42812Y65138D01*
X42845Y65177D01*
X42845Y65177D01*
X42872Y65221D01*
X42892Y65269D01*
X42904Y65319D01*
X42908Y65370D01*
X42907Y65383D01*
Y65848D01*
X42933Y65835D01*
X42961Y65826D01*
X42991Y65821D01*
X43021Y65821D01*
X43051Y65825D01*
X43080Y65834D01*
X43106Y65848D01*
X43131Y65865D01*
X43152Y65886D01*
X43170Y65911D01*
X43184Y65937D01*
X43194Y65966D01*
X43199Y65996D01*
X43199Y66026D01*
X43194Y66055D01*
X43185Y66084D01*
X43160Y66153D01*
X43142Y66224D01*
X43132Y66297D01*
X43128Y66370D01*
X43132Y66443D01*
X43142Y66516D01*
X43160Y66587D01*
X43184Y66657D01*
X43193Y66685D01*
X43198Y66715D01*
X43198Y66745D01*
X43193Y66774D01*
X43183Y66803D01*
X43170Y66829D01*
X43152Y66853D01*
X43130Y66874D01*
X43106Y66892D01*
X43079Y66905D01*
X43051Y66914D01*
X43021Y66919D01*
X42991Y66919D01*
X42961Y66914D01*
X42933Y66904D01*
X42907Y66891D01*
Y68327D01*
X42962Y68236D01*
X43079Y68099D01*
X43216Y67983D01*
X43369Y67889D01*
X43536Y67820D01*
X43711Y67778D01*
X43890Y67764D01*
X43890Y67764D01*
Y67514D01*
X43890Y67514D01*
X43780Y67509D01*
X43671Y67493D01*
X43564Y67467D01*
X43460Y67430D01*
X43433Y67417D01*
X43408Y67400D01*
X43387Y67378D01*
X43369Y67354D01*
X43355Y67327D01*
X43346Y67299D01*
X43341Y67269D01*
X43340Y67239D01*
X43345Y67209D01*
X43354Y67181D01*
X43368Y67154D01*
X43385Y67129D01*
X43406Y67108D01*
X43430Y67090D01*
X43457Y67076D01*
X43486Y67066D01*
X43515Y67061D01*
X43546Y67061D01*
X43575Y67066D01*
X43604Y67075D01*
X43673Y67100D01*
X43744Y67118D01*
X43817Y67129D01*
X43890Y67132D01*
X43890Y67132D01*
Y65608D01*
X43890Y65608D01*
X43817Y65612D01*
X43744Y65622D01*
X43673Y65640D01*
X43604Y65664D01*
X43575Y65674D01*
X43546Y65678D01*
X43516Y65678D01*
X43486Y65673D01*
X43458Y65663D01*
X43431Y65650D01*
X43407Y65632D01*
X43386Y65611D01*
X43368Y65586D01*
X43355Y65559D01*
X43346Y65531D01*
X43341Y65501D01*
X43342Y65471D01*
X43346Y65442D01*
X43356Y65413D01*
X43370Y65386D01*
X43388Y65362D01*
X43409Y65341D01*
X43433Y65324D01*
X43460Y65311D01*
X43564Y65273D01*
X43671Y65247D01*
X43780Y65231D01*
X43890Y65226D01*
X43890Y65226D01*
Y60079D01*
X43850Y60082D01*
X43756Y60075D01*
X43664Y60052D01*
X43577Y60016D01*
X43496Y59967D01*
X43424Y59906D01*
X43363Y59834D01*
X43314Y59753D01*
X43278Y59666D01*
X43256Y59574D01*
X43248Y59480D01*
X43256Y59386D01*
X43278Y59294D01*
X43314Y59207D01*
X43363Y59126D01*
X43424Y59055D01*
X43496Y58993D01*
X43577Y58944D01*
X43664Y58908D01*
X43756Y58886D01*
X43850Y58878D01*
X43890Y58881D01*
Y58373D01*
X42685Y57167D01*
X40701D01*
Y58371D01*
X41391Y58372D01*
X41429Y58382D01*
X41466Y58397D01*
X41501Y58418D01*
X41531Y58444D01*
X41557Y58474D01*
X41578Y58508D01*
X41593Y58545D01*
X41602Y58584D01*
X41605Y58624D01*
X41602Y60564D01*
X41593Y60602D01*
X41578Y60639D01*
X41557Y60674D01*
X41531Y60704D01*
X41501Y60730D01*
X41466Y60751D01*
X41429Y60766D01*
X41391Y60775D01*
X41351Y60778D01*
X40701Y60777D01*
Y63518D01*
G37*
G36*
Y65427D02*X40829Y65349D01*
X40996Y65280D01*
X41171Y65238D01*
X41350Y65224D01*
X41529Y65238D01*
X41704Y65280D01*
X41871Y65349D01*
X42024Y65443D01*
X42161Y65559D01*
X42253Y65667D01*
Y65506D01*
X40920Y64172D01*
X40701D01*
Y65427D01*
G37*
G36*
Y67967D02*X40829Y67889D01*
X40996Y67820D01*
X41171Y67778D01*
X41350Y67764D01*
X41529Y67778D01*
X41704Y67820D01*
X41871Y67889D01*
X42024Y67983D01*
X42161Y68099D01*
X42253Y68207D01*
Y67073D01*
X42161Y67181D01*
X42024Y67298D01*
X41871Y67392D01*
X41704Y67461D01*
X41529Y67503D01*
X41350Y67517D01*
X41171Y67503D01*
X40996Y67461D01*
X40829Y67392D01*
X40701Y67313D01*
Y67967D01*
G37*
G36*
Y70199D02*X40730Y70199D01*
X40769Y70208D01*
X40806Y70223D01*
X40840Y70244D01*
X40870Y70270D01*
X40896Y70301D01*
X40917Y70335D01*
X40932Y70372D01*
X40942Y70410D01*
X40944Y70450D01*
X40944Y70480D01*
X42255D01*
Y70344D01*
X42253Y70310D01*
Y69613D01*
X42161Y69721D01*
X42024Y69838D01*
X41871Y69932D01*
X41704Y70001D01*
X41529Y70043D01*
X41350Y70057D01*
X41171Y70043D01*
X40996Y70001D01*
X40829Y69932D01*
X40701Y69853D01*
Y70199D01*
G37*
G36*
X37911Y56513D02*X38318D01*
X38353Y56456D01*
X38414Y56385D01*
X38486Y56323D01*
X38567Y56274D01*
X38654Y56238D01*
X38746Y56216D01*
X38840Y56208D01*
X38934Y56216D01*
X39026Y56238D01*
X39113Y56274D01*
X39194Y56323D01*
X39266Y56385D01*
X39327Y56456D01*
X39362Y56513D01*
X40701D01*
Y55587D01*
X37911D01*
Y56513D01*
G37*
G36*
Y63046D02*X37924Y63057D01*
X37962Y63102D01*
X37994Y63153D01*
X38017Y63209D01*
X38031Y63267D01*
X38034Y63327D01*
X38031Y64403D01*
X38017Y64461D01*
X37994Y64516D01*
X37962Y64568D01*
X37924Y64613D01*
X37911Y64624D01*
Y65663D01*
X37999Y65559D01*
X38136Y65443D01*
X38289Y65349D01*
X38456Y65280D01*
X38631Y65238D01*
X38810Y65224D01*
X38989Y65238D01*
X39164Y65280D01*
X39331Y65349D01*
X39484Y65443D01*
X39621Y65559D01*
X39738Y65696D01*
X39832Y65850D01*
X39900Y66016D01*
X39942Y66191D01*
X39953Y66370D01*
X39942Y66549D01*
X39900Y66724D01*
X39832Y66891D01*
X39738Y67044D01*
X39621Y67181D01*
X39484Y67298D01*
X39331Y67392D01*
X39164Y67461D01*
X38989Y67503D01*
X38810Y67517D01*
X38631Y67503D01*
X38456Y67461D01*
X38289Y67392D01*
X38136Y67298D01*
X37999Y67181D01*
X37911Y67077D01*
Y68203D01*
X37999Y68099D01*
X38136Y67983D01*
X38289Y67889D01*
X38456Y67820D01*
X38631Y67778D01*
X38810Y67764D01*
X38989Y67778D01*
X39164Y67820D01*
X39331Y67889D01*
X39484Y67983D01*
X39621Y68099D01*
X39738Y68236D01*
X39832Y68390D01*
X39900Y68556D01*
X39942Y68731D01*
X39953Y68910D01*
X39942Y69089D01*
X39900Y69264D01*
X39832Y69431D01*
X39738Y69584D01*
X39621Y69721D01*
X39484Y69838D01*
X39331Y69932D01*
X39164Y70001D01*
X38989Y70043D01*
X38810Y70057D01*
X38631Y70043D01*
X38456Y70001D01*
X38289Y69932D01*
X38136Y69838D01*
X37999Y69721D01*
X37911Y69617D01*
Y70197D01*
X38930Y70199D01*
X38969Y70208D01*
X39006Y70223D01*
X39040Y70244D01*
X39070Y70270D01*
X39096Y70301D01*
X39117Y70335D01*
X39132Y70372D01*
X39140Y70403D01*
X39148Y70372D01*
X39163Y70335D01*
X39184Y70301D01*
X39210Y70270D01*
X39240Y70244D01*
X39274Y70223D01*
X39311Y70208D01*
X39350Y70199D01*
X39390Y70196D01*
X40701Y70199D01*
Y69853D01*
X40676Y69838D01*
X40539Y69721D01*
X40422Y69584D01*
X40328Y69431D01*
X40260Y69264D01*
X40218Y69089D01*
X40203Y68910D01*
X40218Y68731D01*
X40260Y68556D01*
X40328Y68390D01*
X40422Y68236D01*
X40539Y68099D01*
X40676Y67983D01*
X40701Y67967D01*
Y67313D01*
X40676Y67298D01*
X40539Y67181D01*
X40422Y67044D01*
X40328Y66891D01*
X40260Y66724D01*
X40218Y66549D01*
X40203Y66370D01*
X40218Y66191D01*
X40260Y66016D01*
X40328Y65850D01*
X40422Y65696D01*
X40539Y65559D01*
X40676Y65443D01*
X40701Y65427D01*
Y64172D01*
X40013D01*
X40012Y64403D01*
X39998Y64461D01*
X39975Y64516D01*
X39944Y64568D01*
X39905Y64613D01*
X39859Y64652D01*
X39808Y64683D01*
X39753Y64706D01*
X39694Y64720D01*
X39634Y64724D01*
X38711Y64720D01*
X38653Y64706D01*
X38597Y64683D01*
X38546Y64652D01*
X38501Y64613D01*
X38462Y64568D01*
X38430Y64516D01*
X38407Y64461D01*
X38393Y64403D01*
X38390Y64343D01*
X38393Y63267D01*
X38407Y63209D01*
X38430Y63153D01*
X38462Y63102D01*
X38501Y63057D01*
X38546Y63018D01*
X38597Y62986D01*
X38653Y62963D01*
X38711Y62949D01*
X38771Y62946D01*
X39694Y62949D01*
X39753Y62963D01*
X39808Y62986D01*
X39859Y63018D01*
X39905Y63057D01*
X39944Y63102D01*
X39975Y63153D01*
X39998Y63209D01*
X40012Y63267D01*
X40016Y63327D01*
X40015Y63518D01*
X40701D01*
Y60777D01*
X40011Y60775D01*
X39972Y60766D01*
X39935Y60751D01*
X39901Y60730D01*
X39871Y60704D01*
X39845Y60674D01*
X39824Y60639D01*
X39808Y60602D01*
X39799Y60564D01*
X39797Y60524D01*
X39799Y58584D01*
X39808Y58545D01*
X39824Y58508D01*
X39845Y58474D01*
X39871Y58444D01*
X39901Y58418D01*
X39935Y58397D01*
X39972Y58382D01*
X40011Y58372D01*
X40051Y58370D01*
X40701Y58371D01*
Y57167D01*
X39324D01*
X39266Y57236D01*
X39194Y57297D01*
X39113Y57346D01*
X39026Y57382D01*
X38934Y57405D01*
X38840Y57412D01*
X38746Y57405D01*
X38654Y57382D01*
X38567Y57346D01*
X38486Y57297D01*
X38414Y57236D01*
X38356Y57167D01*
X37911D01*
Y58371D01*
X38391Y58372D01*
X38430Y58382D01*
X38467Y58397D01*
X38501Y58418D01*
X38531Y58444D01*
X38557Y58474D01*
X38578Y58508D01*
X38593Y58545D01*
X38603Y58584D01*
X38605Y58624D01*
X38603Y60564D01*
X38593Y60602D01*
X38578Y60639D01*
X38557Y60674D01*
X38531Y60704D01*
X38501Y60730D01*
X38467Y60751D01*
X38430Y60766D01*
X38391Y60775D01*
X38351Y60778D01*
X38028Y60777D01*
Y60864D01*
X38704Y60867D01*
X38762Y60881D01*
X38817Y60904D01*
X38869Y60935D01*
X38914Y60974D01*
X38953Y61019D01*
X38984Y61071D01*
X39007Y61126D01*
X39021Y61184D01*
X39025Y61244D01*
X39021Y62320D01*
X39007Y62378D01*
X38984Y62434D01*
X38953Y62485D01*
X38914Y62530D01*
X38869Y62569D01*
X38817Y62601D01*
X38762Y62624D01*
X38704Y62638D01*
X38644Y62641D01*
X37911Y62638D01*
Y63046D01*
G37*
G36*
Y64624D02*X37878Y64652D01*
X37827Y64683D01*
X37771Y64706D01*
X37713Y64720D01*
X37653Y64724D01*
X37188Y64722D01*
Y65685D01*
X37198Y65696D01*
X37292Y65850D01*
X37360Y66016D01*
X37402Y66191D01*
X37413Y66370D01*
X37402Y66549D01*
X37360Y66724D01*
X37292Y66891D01*
X37198Y67044D01*
X37188Y67056D01*
Y68365D01*
X37199Y68367D01*
X37227Y68376D01*
X37254Y68390D01*
X37278Y68408D01*
X37299Y68429D01*
X37316Y68453D01*
X37329Y68480D01*
X37367Y68584D01*
X37393Y68691D01*
X37409Y68800D01*
X37414Y68910D01*
X37409Y69020D01*
X37393Y69129D01*
X37367Y69236D01*
X37330Y69340D01*
X37317Y69367D01*
X37300Y69392D01*
X37278Y69413D01*
X37254Y69431D01*
X37227Y69445D01*
X37199Y69455D01*
X37188Y69456D01*
Y70480D01*
X37338D01*
X37339Y70410D01*
X37348Y70372D01*
X37363Y70335D01*
X37384Y70301D01*
X37410Y70270D01*
X37440Y70244D01*
X37475Y70223D01*
X37511Y70208D01*
X37550Y70199D01*
X37590Y70196D01*
X37911Y70197D01*
Y69617D01*
X37882Y69584D01*
X37788Y69431D01*
X37720Y69264D01*
X37678Y69089D01*
X37663Y68910D01*
X37678Y68731D01*
X37720Y68556D01*
X37788Y68390D01*
X37882Y68236D01*
X37911Y68203D01*
Y67077D01*
X37882Y67044D01*
X37788Y66891D01*
X37720Y66724D01*
X37678Y66549D01*
X37663Y66370D01*
X37678Y66191D01*
X37720Y66016D01*
X37788Y65850D01*
X37882Y65696D01*
X37911Y65663D01*
Y64624D01*
G37*
G36*
X37188Y67056D02*X37081Y67181D01*
X36944Y67298D01*
X36791Y67392D01*
X36624Y67461D01*
X36449Y67503D01*
X36270Y67517D01*
Y67766D01*
X36380Y67771D01*
X36489Y67787D01*
X36596Y67813D01*
X36700Y67850D01*
X36727Y67863D01*
X36752Y67881D01*
X36773Y67902D01*
X36791Y67926D01*
X36805Y67953D01*
X36814Y67981D01*
X36819Y68011D01*
X36820Y68041D01*
X36815Y68071D01*
X36806Y68100D01*
X36792Y68127D01*
X36775Y68151D01*
X36754Y68173D01*
X36730Y68190D01*
X36703Y68204D01*
X36674Y68214D01*
X36645Y68219D01*
X36614Y68219D01*
X36585Y68214D01*
X36556Y68205D01*
X36487Y68180D01*
X36416Y68162D01*
X36343Y68152D01*
X36270Y68148D01*
Y69672D01*
X36343Y69669D01*
X36416Y69658D01*
X36487Y69640D01*
X36556Y69616D01*
X36585Y69607D01*
X36614Y69602D01*
X36644Y69602D01*
X36674Y69607D01*
X36702Y69617D01*
X36729Y69631D01*
X36753Y69648D01*
X36774Y69670D01*
X36792Y69694D01*
X36805Y69721D01*
X36814Y69749D01*
X36819Y69779D01*
X36818Y69809D01*
X36814Y69839D01*
X36804Y69867D01*
X36790Y69894D01*
X36772Y69918D01*
X36751Y69939D01*
X36727Y69956D01*
X36700Y69969D01*
X36596Y70007D01*
X36489Y70033D01*
X36380Y70049D01*
X36270Y70054D01*
Y70480D01*
X37188D01*
Y69456D01*
X37169Y69459D01*
X37139Y69460D01*
X37109Y69455D01*
X37080Y69446D01*
X37054Y69433D01*
X37029Y69415D01*
X37008Y69394D01*
X36990Y69370D01*
X36976Y69343D01*
X36966Y69314D01*
X36961Y69285D01*
X36961Y69255D01*
X36966Y69225D01*
X36975Y69196D01*
X37000Y69127D01*
X37018Y69056D01*
X37028Y68983D01*
X37032Y68910D01*
X37028Y68837D01*
X37018Y68764D01*
X37000Y68693D01*
X36976Y68624D01*
X36967Y68595D01*
X36962Y68566D01*
X36962Y68536D01*
X36967Y68506D01*
X36977Y68478D01*
X36990Y68451D01*
X37008Y68427D01*
X37030Y68406D01*
X37054Y68388D01*
X37081Y68375D01*
X37109Y68366D01*
X37139Y68361D01*
X37169Y68362D01*
X37188Y68365D01*
Y67056D01*
G37*
G36*
Y64722D02*X36730Y64720D01*
X36672Y64706D01*
X36616Y64683D01*
X36565Y64652D01*
X36519Y64613D01*
X36481Y64568D01*
X36449Y64516D01*
X36426Y64461D01*
X36412Y64403D01*
X36409Y64343D01*
X36409Y64162D01*
X36270D01*
Y65224D01*
X36449Y65238D01*
X36624Y65280D01*
X36791Y65349D01*
X36944Y65443D01*
X37081Y65559D01*
X37188Y65685D01*
Y64722D01*
G37*
G36*
X36270Y67517D02*X36270Y67517D01*
X36091Y67503D01*
X35916Y67461D01*
X35749Y67392D01*
X35596Y67298D01*
X35459Y67181D01*
X35377Y67084D01*
Y68361D01*
X35401Y68361D01*
X35431Y68365D01*
X35460Y68374D01*
X35486Y68388D01*
X35511Y68405D01*
X35532Y68426D01*
X35550Y68451D01*
X35564Y68477D01*
X35574Y68506D01*
X35579Y68536D01*
X35579Y68566D01*
X35574Y68595D01*
X35565Y68624D01*
X35540Y68693D01*
X35522Y68764D01*
X35512Y68837D01*
X35508Y68910D01*
X35512Y68983D01*
X35522Y69056D01*
X35540Y69127D01*
X35564Y69197D01*
X35573Y69225D01*
X35578Y69255D01*
X35578Y69285D01*
X35573Y69314D01*
X35563Y69343D01*
X35550Y69369D01*
X35532Y69393D01*
X35510Y69414D01*
X35486Y69432D01*
X35459Y69445D01*
X35431Y69454D01*
X35401Y69459D01*
X35377Y69459D01*
Y69995D01*
X35862Y70480D01*
X36270D01*
Y70054D01*
X36270Y70054D01*
X36160Y70049D01*
X36051Y70033D01*
X35944Y70007D01*
X35840Y69970D01*
X35813Y69957D01*
X35788Y69940D01*
X35767Y69918D01*
X35749Y69894D01*
X35735Y69867D01*
X35726Y69839D01*
X35721Y69809D01*
X35720Y69779D01*
X35725Y69749D01*
X35734Y69721D01*
X35748Y69694D01*
X35765Y69669D01*
X35786Y69648D01*
X35810Y69630D01*
X35837Y69616D01*
X35866Y69606D01*
X35895Y69601D01*
X35926Y69601D01*
X35955Y69606D01*
X35984Y69615D01*
X36053Y69640D01*
X36124Y69658D01*
X36197Y69669D01*
X36270Y69672D01*
X36270Y69672D01*
Y68148D01*
X36270Y68148D01*
X36197Y68152D01*
X36124Y68162D01*
X36053Y68180D01*
X35984Y68204D01*
X35955Y68214D01*
X35926Y68218D01*
X35896Y68218D01*
X35866Y68213D01*
X35838Y68203D01*
X35811Y68190D01*
X35787Y68172D01*
X35766Y68151D01*
X35748Y68126D01*
X35735Y68099D01*
X35726Y68071D01*
X35721Y68041D01*
X35722Y68011D01*
X35726Y67982D01*
X35736Y67953D01*
X35750Y67926D01*
X35768Y67902D01*
X35789Y67881D01*
X35813Y67864D01*
X35840Y67851D01*
X35944Y67813D01*
X36051Y67787D01*
X36160Y67771D01*
X36270Y67766D01*
X36270Y67766D01*
Y67517D01*
G37*
G36*
Y64162D02*X36261D01*
X35377Y65046D01*
Y65656D01*
X35459Y65559D01*
X35596Y65443D01*
X35749Y65349D01*
X35916Y65280D01*
X36091Y65238D01*
X36270Y65224D01*
X36270Y65224D01*
Y64162D01*
G37*
G36*
X35045Y64453D02*X35885Y63613D01*
X35893Y63603D01*
X35932Y63570D01*
X35976Y63543D01*
X36024Y63523D01*
X36074Y63511D01*
X36074D01*
X36125Y63507D01*
X36138Y63508D01*
X36411D01*
X36412Y63267D01*
X36426Y63209D01*
X36449Y63153D01*
X36481Y63102D01*
X36519Y63057D01*
X36565Y63018D01*
X36616Y62986D01*
X36672Y62963D01*
X36730Y62949D01*
X36790Y62946D01*
X37713Y62949D01*
X37771Y62963D01*
X37827Y62986D01*
X37878Y63018D01*
X37911Y63046D01*
Y62638D01*
X37721Y62638D01*
X37662Y62624D01*
X37607Y62601D01*
X37556Y62569D01*
X37510Y62530D01*
X37471Y62485D01*
X37440Y62434D01*
X37417Y62378D01*
X37403Y62320D01*
X37399Y62260D01*
X37402Y61374D01*
X37402Y61372D01*
X37389Y61342D01*
X37389Y61342D01*
X37389Y61342D01*
X37385Y61324D01*
X37377Y61292D01*
X37377Y61292D01*
X37377Y61292D01*
X37373Y61241D01*
X37374Y61228D01*
Y60776D01*
X37011Y60775D01*
X36972Y60766D01*
X36935Y60751D01*
X36901Y60730D01*
X36871Y60704D01*
X36845Y60674D01*
X36824Y60639D01*
X36809Y60602D01*
X36799Y60564D01*
X36797Y60524D01*
X36799Y58584D01*
X36809Y58545D01*
X36824Y58508D01*
X36845Y58474D01*
X36871Y58444D01*
X36901Y58418D01*
X36935Y58397D01*
X36972Y58382D01*
X37011Y58372D01*
X37051Y58370D01*
X37911Y58371D01*
Y57167D01*
X36950D01*
X36949Y57865D01*
X36940Y57904D01*
X36924Y57941D01*
X36904Y57975D01*
X36878Y58005D01*
X36847Y58031D01*
X36813Y58052D01*
X36776Y58067D01*
X36737Y58077D01*
X36697Y58079D01*
X35358Y58077D01*
X35319Y58067D01*
X35282Y58052D01*
X35248Y58031D01*
X35217Y58005D01*
X35191Y57975D01*
X35170Y57941D01*
X35155Y57904D01*
X35146Y57865D01*
X35143Y57825D01*
X35146Y55885D01*
X35155Y55846D01*
X35170Y55809D01*
X35191Y55775D01*
X35217Y55745D01*
X35248Y55719D01*
X35282Y55698D01*
X35319Y55683D01*
X35358Y55673D01*
X35397Y55671D01*
X36737Y55673D01*
X36776Y55683D01*
X36813Y55698D01*
X36847Y55719D01*
X36878Y55745D01*
X36904Y55775D01*
X36924Y55809D01*
X36940Y55846D01*
X36949Y55885D01*
X36951Y55925D01*
X36951Y56513D01*
X37911D01*
Y55587D01*
X35045D01*
Y58589D01*
X36035Y58591D01*
X36073Y58600D01*
X36110Y58615D01*
X36144Y58636D01*
X36175Y58662D01*
X36201Y58693D01*
X36222Y58727D01*
X36237Y58764D01*
X36246Y58802D01*
X36249Y58842D01*
X36246Y60182D01*
X36237Y60221D01*
X36222Y60258D01*
X36201Y60292D01*
X36175Y60322D01*
X36144Y60348D01*
X36110Y60369D01*
X36073Y60385D01*
X36035Y60394D01*
X35995Y60396D01*
X35045Y60395D01*
Y61589D01*
X36035Y61590D01*
X36073Y61600D01*
X36110Y61615D01*
X36144Y61636D01*
X36175Y61662D01*
X36201Y61692D01*
X36222Y61726D01*
X36237Y61763D01*
X36246Y61802D01*
X36249Y61842D01*
X36246Y63182D01*
X36237Y63221D01*
X36222Y63258D01*
X36201Y63292D01*
X36175Y63322D01*
X36144Y63348D01*
X36110Y63369D01*
X36073Y63384D01*
X36035Y63394D01*
X35995Y63396D01*
X35045Y63395D01*
Y64453D01*
G37*
G36*
Y39783D02*X38974D01*
X38923Y39724D01*
X38874Y39643D01*
X38838Y39556D01*
X38816Y39464D01*
X38808Y39370D01*
X38816Y39276D01*
X38838Y39184D01*
X38874Y39097D01*
X38923Y39016D01*
X38984Y38945D01*
X39056Y38883D01*
X39137Y38834D01*
X39224Y38798D01*
X39316Y38776D01*
X39410Y38768D01*
X39504Y38776D01*
X39596Y38798D01*
X39683Y38834D01*
X39764Y38883D01*
X39836Y38945D01*
X39897Y39016D01*
X39946Y39097D01*
X39982Y39184D01*
X40004Y39276D01*
X40007Y39323D01*
X43033D01*
X43038Y39264D01*
X43060Y39173D01*
X43096Y39085D01*
X43145Y39005D01*
X43207Y38933D01*
X43278Y38872D01*
X43359Y38822D01*
X43446Y38786D01*
X43538Y38764D01*
X43632Y38757D01*
X43726Y38764D01*
X43818Y38786D01*
X43905Y38822D01*
X43986Y38872D01*
X44058Y38933D01*
X44119Y39005D01*
X44168Y39085D01*
X44205Y39173D01*
X44227Y39264D01*
X44232Y39359D01*
X44227Y39453D01*
X44205Y39545D01*
X44168Y39632D01*
X44119Y39712D01*
X44059Y39783D01*
X46335D01*
X46863Y39255D01*
X46856Y39224D01*
X46848Y39130D01*
X46856Y39036D01*
X46878Y38944D01*
X46914Y38857D01*
X46963Y38776D01*
X47024Y38705D01*
X47096Y38643D01*
X47177Y38594D01*
X47264Y38558D01*
X47356Y38536D01*
X47450Y38528D01*
X47455Y38529D01*
X38221Y29294D01*
X38219Y29293D01*
X38138Y29244D01*
X38066Y29182D01*
X38005Y29111D01*
X37956Y29030D01*
X37920Y28943D01*
X37897Y28851D01*
X37890Y28757D01*
X37897Y28663D01*
X37920Y28571D01*
X37956Y28484D01*
X38005Y28403D01*
X38066Y28331D01*
X38138Y28270D01*
X38219Y28221D01*
X38306Y28185D01*
X38398Y28162D01*
X38492Y28155D01*
X38586Y28162D01*
X38678Y28185D01*
X38765Y28221D01*
X38846Y28270D01*
X38917Y28331D01*
X38979Y28403D01*
X39028Y28484D01*
X39029Y28486D01*
X50902Y40359D01*
X52654Y40361D01*
X52693Y40370D01*
X52730Y40386D01*
X52764Y40407D01*
X52794Y40433D01*
X52804Y40445D01*
X52818Y40429D01*
X52848Y40403D01*
X52882Y40382D01*
X52919Y40366D01*
X52958Y40357D01*
X52998Y40355D01*
X54938Y40357D01*
X54977Y40366D01*
X55014Y40382D01*
X55048Y40403D01*
X55078Y40429D01*
X55104Y40459D01*
X55125Y40493D01*
X55140Y40530D01*
X55150Y40569D01*
X55152Y40609D01*
X55152Y40687D01*
X55676D01*
X55766Y40666D01*
X55860Y40658D01*
X55954Y40666D01*
X56044Y40687D01*
X56553D01*
X56580Y40664D01*
X56614Y40643D01*
X56651Y40628D01*
X56690Y40618D01*
X56730Y40616D01*
X58120Y40618D01*
X58159Y40628D01*
X58184Y40638D01*
X58188Y40621D01*
X58203Y40584D01*
X58224Y40550D01*
X58250Y40520D01*
X58280Y40494D01*
X58314Y40473D01*
X58351Y40458D01*
X58390Y40448D01*
X58430Y40446D01*
X61670Y40448D01*
X61709Y40458D01*
X61746Y40473D01*
X61780Y40494D01*
X61810Y40520D01*
X61836Y40550D01*
X61857Y40584D01*
X61872Y40621D01*
X61876Y40638D01*
X61901Y40628D01*
X61940Y40618D01*
X61980Y40616D01*
X62164Y40616D01*
Y37918D01*
X62162Y37895D01*
X62169Y37805D01*
Y37805D01*
X62190Y37718D01*
X62224Y37635D01*
X62242Y37606D01*
X62271Y37558D01*
X62271Y37558D01*
X62330Y37490D01*
X62347Y37475D01*
X64870Y34952D01*
X64274Y34007D01*
X62867Y32124D01*
X61978Y31110D01*
X61976Y31110D01*
X61936Y31107D01*
X61897Y31097D01*
X61860Y31082D01*
X61826Y31061D01*
X61796Y31035D01*
X60427Y29661D01*
X60406Y29627D01*
X60390Y29590D01*
X60381Y29551D01*
X60378Y29512D01*
X60381Y29472D01*
X60386Y29449D01*
X59633Y28716D01*
X57826Y27213D01*
X55906Y25856D01*
X53886Y24654D01*
X51778Y23614D01*
X49595Y22743D01*
X47350Y22046D01*
X45057Y21528D01*
X42730Y21190D01*
X40580Y21049D01*
X40555Y21079D01*
X40525Y21105D01*
X40491Y21125D01*
X40454Y21141D01*
X40415Y21150D01*
X40375Y21152D01*
X38435Y21150D01*
X38396Y21141D01*
X38359Y21125D01*
X38325Y21105D01*
X38295Y21079D01*
X38282Y21064D01*
X38034Y21067D01*
X35693Y21282D01*
X35045Y21394D01*
Y39783D01*
G37*
G36*
X35688Y45460D02*X36303Y44845D01*
X36288Y44821D01*
X36220Y44654D01*
X36178Y44479D01*
X36163Y44300D01*
X36178Y44121D01*
X36220Y43946D01*
X36288Y43780D01*
X36382Y43626D01*
X36499Y43489D01*
X36636Y43373D01*
X36789Y43279D01*
X36956Y43210D01*
X37131Y43168D01*
X37310Y43154D01*
X37489Y43168D01*
X37606Y43196D01*
X39905Y40897D01*
X35688D01*
Y43755D01*
X35699Y43757D01*
X35727Y43766D01*
X35754Y43780D01*
X35778Y43798D01*
X35799Y43819D01*
X35816Y43843D01*
X35829Y43870D01*
X35867Y43974D01*
X35893Y44081D01*
X35909Y44190D01*
X35914Y44300D01*
X35909Y44410D01*
X35893Y44519D01*
X35867Y44626D01*
X35830Y44730D01*
X35817Y44757D01*
X35800Y44782D01*
X35778Y44803D01*
X35754Y44821D01*
X35727Y44835D01*
X35699Y44845D01*
X35688Y44846D01*
Y45460D01*
G37*
G36*
X35045Y46103D02*X35688Y45460D01*
Y44846D01*
X35669Y44849D01*
X35639Y44850D01*
X35609Y44845D01*
X35580Y44836D01*
X35554Y44823D01*
X35529Y44805D01*
X35508Y44784D01*
X35490Y44760D01*
X35476Y44733D01*
X35466Y44704D01*
X35461Y44675D01*
X35461Y44645D01*
X35466Y44615D01*
X35475Y44586D01*
X35500Y44517D01*
X35518Y44446D01*
X35528Y44373D01*
X35532Y44300D01*
X35528Y44227D01*
X35518Y44154D01*
X35500Y44083D01*
X35476Y44014D01*
X35467Y43985D01*
X35462Y43956D01*
X35462Y43926D01*
X35467Y43896D01*
X35477Y43868D01*
X35490Y43841D01*
X35508Y43817D01*
X35530Y43796D01*
X35554Y43778D01*
X35581Y43765D01*
X35609Y43756D01*
X35639Y43751D01*
X35669Y43752D01*
X35688Y43755D01*
Y40897D01*
X35045D01*
Y43191D01*
X35096Y43203D01*
X35200Y43240D01*
X35227Y43253D01*
X35252Y43271D01*
X35273Y43292D01*
X35291Y43316D01*
X35305Y43343D01*
X35314Y43371D01*
X35319Y43401D01*
X35320Y43431D01*
X35315Y43461D01*
X35306Y43490D01*
X35292Y43517D01*
X35275Y43541D01*
X35254Y43563D01*
X35230Y43580D01*
X35203Y43594D01*
X35174Y43604D01*
X35145Y43609D01*
X35114Y43609D01*
X35085Y43604D01*
X35056Y43595D01*
X35045Y43591D01*
Y45010D01*
X35056Y45006D01*
X35085Y44997D01*
X35114Y44992D01*
X35144Y44992D01*
X35174Y44997D01*
X35202Y45007D01*
X35229Y45021D01*
X35253Y45038D01*
X35274Y45060D01*
X35292Y45084D01*
X35305Y45111D01*
X35314Y45139D01*
X35319Y45169D01*
X35318Y45199D01*
X35314Y45229D01*
X35304Y45257D01*
X35290Y45284D01*
X35272Y45308D01*
X35251Y45329D01*
X35227Y45346D01*
X35200Y45359D01*
X35096Y45397D01*
X35045Y45410D01*
Y46103D01*
G37*
G36*
Y84220D02*X35755D01*
X35755Y83757D01*
X35765Y83718D01*
X35780Y83681D01*
X35801Y83647D01*
X35827Y83617D01*
X35857Y83591D01*
X35891Y83570D01*
X35928Y83554D01*
X35967Y83545D01*
X36007Y83543D01*
X37980Y83544D01*
Y81950D01*
X35967Y81948D01*
X35928Y81939D01*
X35891Y81924D01*
X35857Y81903D01*
X35827Y81877D01*
X35801Y81846D01*
X35780Y81812D01*
X35765Y81775D01*
X35755Y81737D01*
X35753Y81697D01*
X35754Y81110D01*
X35045D01*
Y84220D01*
G37*
G36*
Y88081D02*X35779Y88206D01*
X37641Y88379D01*
X37980Y88380D01*
Y87771D01*
X37501Y87772D01*
X37382Y87765D01*
X37265Y87737D01*
X37154Y87692D01*
X37052Y87629D01*
X36960Y87552D01*
X36882Y87460D01*
X36820Y87358D01*
X36773Y87248D01*
X36745Y87131D01*
X36736Y87011D01*
X36745Y86892D01*
X36773Y86775D01*
X36818Y86664D01*
X36881Y86562D01*
X36959Y86471D01*
X37050Y86393D01*
X37152Y86330D01*
X37263Y86284D01*
X37379Y86255D01*
X37499Y86248D01*
X37980Y86247D01*
Y85550D01*
X35967Y85548D01*
X35928Y85539D01*
X35891Y85524D01*
X35857Y85503D01*
X35827Y85477D01*
X35801Y85446D01*
X35780Y85412D01*
X35765Y85375D01*
X35755Y85337D01*
X35753Y85297D01*
X35754Y84874D01*
X35045D01*
Y88081D01*
G37*
G36*
X63885Y64870D02*X68250D01*
Y54770D01*
X75670D01*
Y63811D01*
X76799Y63812D01*
X76838Y63822D01*
X76874Y63837D01*
X76908Y63857D01*
X76937Y63883D01*
X76963Y63913D01*
X76984Y63946D01*
X76999Y63983D01*
X77008Y64021D01*
X77010Y64060D01*
X77009Y65610D01*
X78313D01*
X78362Y50368D01*
X78315Y48609D01*
X77982Y44861D01*
X77020Y40115D01*
X75716Y36256D01*
X74700Y33810D01*
X74686Y18899D01*
X74394Y17408D01*
X73682Y16410D01*
X72906Y15855D01*
X71544Y15473D01*
X63885Y15436D01*
Y26324D01*
X65223Y27665D01*
X65244Y27699D01*
X65259Y27736D01*
X65268Y27775D01*
X65271Y27815D01*
X65268Y27854D01*
X65259Y27893D01*
X65244Y27930D01*
X65223Y27964D01*
X65196Y27994D01*
X64247Y28940D01*
X64213Y28961D01*
X64176Y28976D01*
X64137Y28985D01*
X64097Y28989D01*
X64057Y28985D01*
X64019Y28976D01*
X63982Y28961D01*
X63948Y28940D01*
X63918Y28913D01*
X63885Y28881D01*
Y30938D01*
X64070Y31149D01*
X65550Y33130D01*
X66869Y35221D01*
X68020Y37409D01*
X68996Y39681D01*
X69032Y39799D01*
X69048Y39921D01*
X69048Y39952D01*
X69054Y39980D01*
X69212Y40999D01*
X72591Y46248D01*
X72650Y46352D01*
X72689Y46465D01*
X72710Y46583D01*
X72713Y46703D01*
X72697Y46822D01*
X72662Y46937D01*
X72610Y47045D01*
X72542Y47143D01*
X72459Y47230D01*
X72364Y47303D01*
X72258Y47360D01*
X72145Y47399D01*
X72027Y47421D01*
X71907Y47423D01*
X71788Y47407D01*
X71673Y47373D01*
X71565Y47321D01*
X71467Y47252D01*
X71380Y47169D01*
X71309Y47073D01*
X67843Y41688D01*
X67785Y41584D01*
X67745Y41471D01*
X67724Y41353D01*
X67723Y41344D01*
X67564Y40322D01*
X67529Y40244D01*
X66623Y38076D01*
X65528Y35995D01*
X65495Y35943D01*
X64052Y37387D01*
X65881Y37389D01*
X65920Y37398D01*
X65957Y37414D01*
X65991Y37435D01*
X66022Y37460D01*
X66047Y37491D01*
X66068Y37525D01*
X66084Y37562D01*
X66093Y37601D01*
X66095Y37641D01*
X66093Y38980D01*
X66084Y39019D01*
X66068Y39056D01*
X66047Y39090D01*
X66022Y39121D01*
X65991Y39147D01*
X65957Y39168D01*
X65920Y39183D01*
X65881Y39192D01*
X65841Y39195D01*
X63902Y39192D01*
X63885Y39188D01*
Y40393D01*
X63902Y40389D01*
X63941Y40386D01*
X65881Y40389D01*
X65920Y40398D01*
X65957Y40413D01*
X65991Y40434D01*
X66022Y40460D01*
X66047Y40491D01*
X66068Y40525D01*
X66084Y40562D01*
X66093Y40601D01*
X66095Y40640D01*
X66093Y41980D01*
X66084Y42019D01*
X66068Y42056D01*
X66047Y42090D01*
X66022Y42121D01*
X65991Y42146D01*
X65957Y42167D01*
X65920Y42183D01*
X65881Y42192D01*
X65841Y42194D01*
X65463Y42194D01*
Y44356D01*
X65465Y44379D01*
X65458Y44468D01*
X65437Y44556D01*
X65427Y44580D01*
X65402Y44639D01*
X65373Y44687D01*
X65355Y44716D01*
X65355Y44716D01*
X65297Y44784D01*
X65280Y44799D01*
X64600Y45478D01*
X64585Y45495D01*
X64517Y45554D01*
X64517Y45554D01*
X64488Y45572D01*
X64440Y45601D01*
X64381Y45625D01*
X64357Y45635D01*
X64270Y45656D01*
X64180Y45663D01*
X64158Y45662D01*
X63885D01*
Y48496D01*
X64887Y49498D01*
X65025Y49441D01*
X65181Y49404D01*
X65340Y49391D01*
X65499Y49404D01*
X65655Y49441D01*
X65803Y49502D01*
X65939Y49586D01*
X66061Y49689D01*
X66164Y49811D01*
X66248Y49947D01*
X66309Y50095D01*
X66347Y50251D01*
X66356Y50410D01*
X66347Y50570D01*
X66309Y50725D01*
X66248Y50873D01*
X66164Y51009D01*
X66061Y51131D01*
X65939Y51235D01*
X65803Y51318D01*
X65655Y51379D01*
X65499Y51417D01*
X65340Y51429D01*
X65181Y51417D01*
X65025Y51379D01*
X64877Y51318D01*
X64741Y51235D01*
X64619Y51131D01*
X64516Y51009D01*
X64432Y50873D01*
X64371Y50725D01*
X64333Y50570D01*
X64321Y50410D01*
X64333Y50251D01*
X64371Y50095D01*
X64428Y49957D01*
X63885Y49415D01*
Y64870D01*
G37*
G36*
Y45662D02*X63435D01*
X63409Y45672D01*
X63370Y45682D01*
X63330Y45684D01*
X63152Y45684D01*
Y46568D01*
X63153Y46590D01*
X63146Y46680D01*
X63125Y46767D01*
X63115Y46792D01*
X63091Y46850D01*
X63062Y46898D01*
X63044Y46927D01*
X63044Y46927D01*
X62985Y46995D01*
X62968Y47010D01*
X62600Y47378D01*
X62585Y47395D01*
X62517Y47454D01*
X62517Y47454D01*
X62488Y47472D01*
X62440Y47501D01*
X62381Y47525D01*
X62357Y47535D01*
X62270Y47556D01*
X62180Y47563D01*
X62158Y47562D01*
X61020D01*
Y47875D01*
X63117D01*
X63130Y47874D01*
X63181Y47878D01*
X63181Y47878D01*
X63231Y47890D01*
X63278Y47910D01*
X63322Y47936D01*
X63361Y47970D01*
X63369Y47979D01*
X63885Y48496D01*
Y45662D01*
G37*
G36*
Y39188D02*X63863Y39183D01*
X63826Y39168D01*
X63792Y39147D01*
X63761Y39121D01*
X63735Y39090D01*
X63714Y39056D01*
X63699Y39019D01*
X63690Y38980D01*
X63687Y38941D01*
X63690Y37749D01*
X63306Y38132D01*
Y40618D01*
X63370Y40618D01*
X63409Y40628D01*
X63446Y40643D01*
X63447Y40644D01*
X63690D01*
X63690Y40601D01*
X63699Y40562D01*
X63714Y40525D01*
X63735Y40491D01*
X63761Y40460D01*
X63792Y40434D01*
X63826Y40413D01*
X63863Y40398D01*
X63885Y40393D01*
Y39188D01*
G37*
G36*
Y15436D02*X56258Y15399D01*
X54014Y14488D01*
X49242Y12935D01*
X43250Y11936D01*
X39425Y11885D01*
Y16346D01*
X40415Y16347D01*
X40454Y16356D01*
X40491Y16372D01*
X40525Y16392D01*
X40555Y16418D01*
X40581Y16449D01*
X40602Y16483D01*
X40617Y16520D01*
X40627Y16559D01*
X40629Y16599D01*
X40627Y17938D01*
X40617Y17977D01*
X40602Y18014D01*
X40581Y18048D01*
X40555Y18079D01*
X40525Y18105D01*
X40491Y18126D01*
X40454Y18141D01*
X40415Y18150D01*
X40375Y18153D01*
X39425Y18151D01*
Y19346D01*
X40415Y19347D01*
X40454Y19356D01*
X40491Y19371D01*
X40525Y19392D01*
X40555Y19418D01*
X40581Y19449D01*
X40602Y19483D01*
X40609Y19501D01*
X42892Y19650D01*
X45339Y20005D01*
X47750Y20551D01*
X50111Y21284D01*
X52408Y22200D01*
X54625Y23294D01*
X56750Y24558D01*
X58769Y25984D01*
X60669Y27565D01*
X61475Y28350D01*
X61512Y28341D01*
X61552Y28337D01*
X61592Y28341D01*
X61631Y28350D01*
X61668Y28365D01*
X61702Y28386D01*
X61732Y28413D01*
X63101Y29786D01*
X63122Y29820D01*
X63138Y29857D01*
X63147Y29896D01*
X63150Y29936D01*
X63147Y29976D01*
X63138Y30014D01*
X63122Y30051D01*
X63116Y30061D01*
X63885Y30938D01*
Y28881D01*
X62548Y27540D01*
X62527Y27506D01*
X62512Y27469D01*
X62502Y27430D01*
X62499Y27390D01*
X62502Y27350D01*
X62512Y27312D01*
X62527Y27275D01*
X62548Y27241D01*
X62574Y27211D01*
X63523Y26265D01*
X63557Y26244D01*
X63594Y26229D01*
X63633Y26219D01*
X63673Y26216D01*
X63713Y26219D01*
X63752Y26229D01*
X63789Y26244D01*
X63823Y26265D01*
X63853Y26291D01*
X63885Y26324D01*
Y15436D01*
G37*
G36*
X52806Y46429D02*X55271D01*
X55290Y46424D01*
X55330Y46422D01*
X55390Y46417D01*
X55412Y46419D01*
X61943D01*
X62008Y46353D01*
Y45682D01*
X61940Y45682D01*
X61901Y45672D01*
X61876Y45662D01*
X61872Y45679D01*
X61857Y45716D01*
X61836Y45750D01*
X61810Y45780D01*
X61780Y45806D01*
X61746Y45827D01*
X61709Y45842D01*
X61670Y45852D01*
X61630Y45854D01*
X58390Y45852D01*
X58351Y45842D01*
X58314Y45827D01*
X58280Y45806D01*
X58250Y45780D01*
X58224Y45750D01*
X58203Y45716D01*
X58188Y45679D01*
X58184Y45662D01*
X58159Y45672D01*
X58120Y45682D01*
X58080Y45684D01*
X56690Y45682D01*
X56651Y45672D01*
X56614Y45657D01*
X56580Y45636D01*
X56550Y45610D01*
X56524Y45580D01*
X56503Y45546D01*
X56488Y45509D01*
X56478Y45470D01*
X56476Y45430D01*
X56478Y44640D01*
X56480Y44633D01*
Y44207D01*
X56478Y44200D01*
X56476Y44160D01*
X56478Y43370D01*
X56480Y43363D01*
Y43087D01*
X55227D01*
X55204Y43088D01*
X55115Y43081D01*
X55115Y43081D01*
X55115Y43081D01*
X55115Y43081D01*
X55039Y43063D01*
X55027Y43060D01*
X55027Y43060D01*
X55027Y43060D01*
X54958Y43032D01*
X54944Y43026D01*
X54944Y43026D01*
X54944Y43026D01*
X54874Y42983D01*
X54867Y42979D01*
X54867Y42979D01*
X54867Y42979D01*
X54867Y42979D01*
X54799Y42920D01*
X54784Y42903D01*
X54043Y42162D01*
X52958Y42160D01*
X52919Y42151D01*
X52882Y42136D01*
X52848Y42115D01*
X52818Y42089D01*
X52808Y42077D01*
X52806Y42079D01*
Y43442D01*
X52818Y43428D01*
X52848Y43402D01*
X52882Y43381D01*
X52919Y43366D01*
X52958Y43357D01*
X52998Y43355D01*
X54938Y43357D01*
X54977Y43366D01*
X55014Y43381D01*
X55048Y43402D01*
X55078Y43428D01*
X55104Y43459D01*
X55125Y43493D01*
X55140Y43530D01*
X55150Y43569D01*
X55152Y43609D01*
X55150Y44948D01*
X55140Y44987D01*
X55125Y45024D01*
X55104Y45058D01*
X55078Y45089D01*
X55048Y45115D01*
X55014Y45135D01*
X54977Y45151D01*
X54938Y45160D01*
X54898Y45162D01*
X52958Y45160D01*
X52919Y45151D01*
X52882Y45135D01*
X52848Y45115D01*
X52818Y45089D01*
X52808Y45077D01*
X52806Y45079D01*
Y46429D01*
G37*
G36*
X62588Y70465D02*X63490D01*
Y64870D01*
X63885D01*
Y49415D01*
X62995Y48525D01*
X62588D01*
Y65825D01*
X62599Y65827D01*
X62627Y65836D01*
X62654Y65850D01*
X62678Y65868D01*
X62699Y65889D01*
X62716Y65913D01*
X62729Y65940D01*
X62767Y66044D01*
X62793Y66151D01*
X62809Y66260D01*
X62814Y66370D01*
X62809Y66480D01*
X62793Y66589D01*
X62767Y66696D01*
X62730Y66800D01*
X62717Y66827D01*
X62700Y66852D01*
X62678Y66873D01*
X62654Y66891D01*
X62627Y66905D01*
X62599Y66915D01*
X62588Y66916D01*
Y68225D01*
X62598Y68236D01*
X62692Y68390D01*
X62760Y68556D01*
X62802Y68731D01*
X62813Y68910D01*
X62802Y69089D01*
X62760Y69264D01*
X62692Y69431D01*
X62598Y69584D01*
X62588Y69596D01*
Y70465D01*
G37*
G36*
Y48525D02*X61668D01*
Y65226D01*
X61670Y65226D01*
X61780Y65231D01*
X61889Y65247D01*
X61996Y65273D01*
X62100Y65310D01*
X62127Y65323D01*
X62152Y65341D01*
X62173Y65362D01*
X62191Y65386D01*
X62205Y65413D01*
X62214Y65441D01*
X62219Y65471D01*
X62220Y65501D01*
X62215Y65531D01*
X62206Y65560D01*
X62192Y65587D01*
X62175Y65611D01*
X62154Y65633D01*
X62130Y65650D01*
X62103Y65664D01*
X62074Y65674D01*
X62045Y65679D01*
X62014Y65679D01*
X61985Y65674D01*
X61956Y65665D01*
X61887Y65640D01*
X61816Y65622D01*
X61743Y65612D01*
X61670Y65608D01*
X61668Y65608D01*
Y67132D01*
X61670Y67132D01*
X61743Y67129D01*
X61816Y67118D01*
X61887Y67100D01*
X61956Y67076D01*
X61985Y67067D01*
X62014Y67062D01*
X62044Y67062D01*
X62074Y67067D01*
X62102Y67077D01*
X62129Y67091D01*
X62153Y67108D01*
X62174Y67130D01*
X62192Y67154D01*
X62205Y67181D01*
X62214Y67209D01*
X62219Y67239D01*
X62218Y67269D01*
X62214Y67299D01*
X62204Y67327D01*
X62190Y67354D01*
X62172Y67378D01*
X62151Y67399D01*
X62127Y67416D01*
X62100Y67429D01*
X61996Y67467D01*
X61889Y67493D01*
X61780Y67509D01*
X61670Y67514D01*
X61668Y67514D01*
Y67764D01*
X61670Y67764D01*
X61849Y67778D01*
X62024Y67820D01*
X62191Y67889D01*
X62344Y67983D01*
X62481Y68099D01*
X62588Y68225D01*
Y66916D01*
X62569Y66919D01*
X62539Y66920D01*
X62509Y66915D01*
X62480Y66906D01*
X62454Y66893D01*
X62429Y66875D01*
X62408Y66854D01*
X62390Y66830D01*
X62376Y66803D01*
X62366Y66774D01*
X62361Y66745D01*
X62361Y66715D01*
X62366Y66685D01*
X62375Y66656D01*
X62400Y66587D01*
X62418Y66516D01*
X62428Y66443D01*
X62432Y66370D01*
X62428Y66297D01*
X62418Y66224D01*
X62400Y66153D01*
X62376Y66084D01*
X62367Y66055D01*
X62362Y66026D01*
X62362Y65996D01*
X62367Y65966D01*
X62377Y65938D01*
X62390Y65911D01*
X62408Y65887D01*
X62430Y65866D01*
X62454Y65848D01*
X62481Y65835D01*
X62509Y65826D01*
X62539Y65821D01*
X62569Y65822D01*
X62588Y65825D01*
Y48525D01*
G37*
G36*
X61668Y70465D02*X62588D01*
Y69596D01*
X62481Y69721D01*
X62344Y69838D01*
X62191Y69932D01*
X62024Y70001D01*
X61849Y70043D01*
X61670Y70057D01*
X61668Y70056D01*
Y70465D01*
G37*
G36*
X60752Y68225D02*X60859Y68099D01*
X60996Y67983D01*
X61149Y67889D01*
X61316Y67820D01*
X61491Y67778D01*
X61668Y67764D01*
Y67514D01*
X61560Y67509D01*
X61451Y67493D01*
X61344Y67467D01*
X61240Y67430D01*
X61213Y67417D01*
X61188Y67400D01*
X61167Y67378D01*
X61149Y67354D01*
X61135Y67327D01*
X61126Y67299D01*
X61121Y67269D01*
X61120Y67239D01*
X61125Y67209D01*
X61134Y67181D01*
X61148Y67154D01*
X61165Y67129D01*
X61186Y67108D01*
X61210Y67090D01*
X61237Y67076D01*
X61266Y67066D01*
X61295Y67061D01*
X61326Y67061D01*
X61355Y67066D01*
X61384Y67075D01*
X61453Y67100D01*
X61524Y67118D01*
X61597Y67129D01*
X61668Y67132D01*
Y65608D01*
X61597Y65612D01*
X61524Y65622D01*
X61453Y65640D01*
X61384Y65664D01*
X61355Y65674D01*
X61326Y65678D01*
X61296Y65678D01*
X61266Y65673D01*
X61238Y65663D01*
X61211Y65650D01*
X61187Y65632D01*
X61166Y65611D01*
X61148Y65586D01*
X61135Y65559D01*
X61126Y65531D01*
X61121Y65501D01*
X61122Y65471D01*
X61126Y65442D01*
X61136Y65413D01*
X61150Y65386D01*
X61168Y65362D01*
X61189Y65341D01*
X61213Y65324D01*
X61240Y65311D01*
X61344Y65273D01*
X61451Y65247D01*
X61560Y65231D01*
X61668Y65226D01*
Y48525D01*
X60995D01*
X60977Y48554D01*
X60916Y48626D01*
X60844Y48687D01*
X60763Y48736D01*
X60752Y48741D01*
Y65824D01*
X60771Y65821D01*
X60801Y65821D01*
X60831Y65825D01*
X60860Y65834D01*
X60886Y65848D01*
X60911Y65865D01*
X60932Y65886D01*
X60950Y65911D01*
X60964Y65937D01*
X60974Y65966D01*
X60979Y65996D01*
X60979Y66026D01*
X60974Y66055D01*
X60965Y66084D01*
X60940Y66153D01*
X60922Y66224D01*
X60912Y66297D01*
X60908Y66370D01*
X60912Y66443D01*
X60922Y66516D01*
X60940Y66587D01*
X60964Y66657D01*
X60973Y66685D01*
X60978Y66715D01*
X60978Y66745D01*
X60973Y66774D01*
X60963Y66803D01*
X60950Y66829D01*
X60932Y66853D01*
X60910Y66874D01*
X60886Y66892D01*
X60859Y66905D01*
X60831Y66914D01*
X60801Y66919D01*
X60771Y66919D01*
X60752Y66915D01*
Y68225D01*
G37*
G36*
Y70465D02*X61668D01*
Y70056D01*
X61491Y70043D01*
X61316Y70001D01*
X61149Y69932D01*
X60996Y69838D01*
X60859Y69721D01*
X60752Y69596D01*
Y70465D01*
G37*
G36*
X52806Y52937D02*X59331Y59461D01*
X59341Y59470D01*
X59374Y59508D01*
X59374Y59508D01*
X59400Y59552D01*
X59420Y59599D01*
X59432Y59649D01*
X59436Y59700D01*
X59435Y59713D01*
Y59756D01*
X59437Y59790D01*
Y65268D01*
X59484Y65280D01*
X59651Y65349D01*
X59804Y65443D01*
X59941Y65559D01*
X60058Y65696D01*
X60152Y65850D01*
X60220Y66016D01*
X60262Y66191D01*
X60273Y66370D01*
X60262Y66549D01*
X60220Y66724D01*
X60152Y66891D01*
X60058Y67044D01*
X59941Y67181D01*
X59804Y67298D01*
X59651Y67392D01*
X59484Y67461D01*
X59309Y67503D01*
X59130Y67517D01*
X58951Y67503D01*
X58776Y67461D01*
X58609Y67392D01*
X58456Y67298D01*
X58319Y67181D01*
X58222Y67067D01*
Y68213D01*
X58319Y68099D01*
X58456Y67983D01*
X58609Y67889D01*
X58776Y67820D01*
X58951Y67778D01*
X59130Y67764D01*
X59309Y67778D01*
X59484Y67820D01*
X59651Y67889D01*
X59804Y67983D01*
X59941Y68099D01*
X60058Y68236D01*
X60152Y68390D01*
X60220Y68556D01*
X60262Y68731D01*
X60273Y68910D01*
X60262Y69089D01*
X60220Y69264D01*
X60152Y69431D01*
X60058Y69584D01*
X59941Y69721D01*
X59804Y69838D01*
X59651Y69932D01*
X59484Y70001D01*
X59309Y70043D01*
X59130Y70057D01*
X58951Y70043D01*
X58776Y70001D01*
X58609Y69932D01*
X58456Y69838D01*
X58319Y69721D01*
X58222Y69607D01*
Y70047D01*
X58640Y70465D01*
X60752D01*
Y69596D01*
X60742Y69584D01*
X60648Y69431D01*
X60580Y69264D01*
X60538Y69089D01*
X60523Y68910D01*
X60538Y68731D01*
X60580Y68556D01*
X60648Y68390D01*
X60742Y68236D01*
X60752Y68225D01*
Y66915D01*
X60741Y66914D01*
X60713Y66904D01*
X60686Y66890D01*
X60662Y66873D01*
X60641Y66851D01*
X60624Y66827D01*
X60611Y66800D01*
X60573Y66696D01*
X60547Y66589D01*
X60531Y66480D01*
X60526Y66370D01*
X60531Y66260D01*
X60547Y66151D01*
X60573Y66044D01*
X60610Y65940D01*
X60623Y65913D01*
X60640Y65888D01*
X60662Y65867D01*
X60686Y65849D01*
X60713Y65835D01*
X60741Y65826D01*
X60752Y65824D01*
Y48741D01*
X60676Y48772D01*
X60584Y48795D01*
X60490Y48802D01*
X60396Y48795D01*
X60304Y48772D01*
X60217Y48736D01*
X60136Y48687D01*
X60064Y48626D01*
X60003Y48554D01*
X59954Y48473D01*
X59918Y48386D01*
X59896Y48294D01*
X59888Y48200D01*
X59896Y48106D01*
X59918Y48014D01*
X59954Y47927D01*
X59980Y47884D01*
Y47562D01*
X55489D01*
X55470Y47566D01*
X55380Y47573D01*
X55358Y47572D01*
X52806D01*
Y52937D01*
G37*
G36*
X39425Y44309D02*X39440Y44308D01*
X39534Y44316D01*
X39626Y44338D01*
X39713Y44374D01*
X39794Y44423D01*
X39866Y44485D01*
X39927Y44556D01*
X39943Y44583D01*
X44230D01*
X44264Y44585D01*
X44307D01*
X44320Y44584D01*
X44371Y44588D01*
X44371Y44588D01*
X44421Y44600D01*
X44468Y44620D01*
X44512Y44646D01*
X44551Y44680D01*
X44559Y44689D01*
X52806Y52937D01*
Y47572D01*
X52531D01*
X52514Y47599D01*
X52411Y47721D01*
X52289Y47825D01*
X52153Y47908D01*
X52005Y47969D01*
X51849Y48007D01*
X51690Y48019D01*
X51531Y48007D01*
X51375Y47969D01*
X51227Y47908D01*
X51091Y47825D01*
X50969Y47721D01*
X50866Y47599D01*
X50782Y47463D01*
X50721Y47315D01*
X50683Y47160D01*
X50671Y47000D01*
X50683Y46841D01*
X50721Y46685D01*
X50782Y46537D01*
X50866Y46401D01*
X50969Y46279D01*
X51091Y46176D01*
X51227Y46092D01*
X51375Y46031D01*
X51531Y45994D01*
X51690Y45981D01*
X51849Y45994D01*
X52005Y46031D01*
X52153Y46092D01*
X52289Y46176D01*
X52411Y46279D01*
X52514Y46401D01*
X52531Y46429D01*
X52806D01*
Y45079D01*
X52794Y45093D01*
X52764Y45119D01*
X52730Y45139D01*
X52693Y45155D01*
X52654Y45164D01*
X52614Y45166D01*
X50674Y45164D01*
X50635Y45155D01*
X50598Y45139D01*
X50564Y45119D01*
X50534Y45093D01*
X50508Y45062D01*
X50487Y45028D01*
X50472Y44991D01*
X50462Y44952D01*
X50460Y44912D01*
X50462Y43573D01*
X50472Y43534D01*
X50487Y43497D01*
X50508Y43463D01*
X50534Y43432D01*
X50564Y43406D01*
X50598Y43385D01*
X50635Y43370D01*
X50674Y43361D01*
X50714Y43358D01*
X52654Y43361D01*
X52693Y43370D01*
X52730Y43385D01*
X52764Y43406D01*
X52794Y43432D01*
X52804Y43444D01*
X52806Y43442D01*
Y42079D01*
X52794Y42093D01*
X52764Y42119D01*
X52730Y42140D01*
X52693Y42155D01*
X52654Y42164D01*
X52614Y42167D01*
X50674Y42164D01*
X50635Y42155D01*
X50598Y42140D01*
X50564Y42119D01*
X50534Y42093D01*
X50508Y42062D01*
X50487Y42028D01*
X50472Y41991D01*
X50462Y41953D01*
X50460Y41913D01*
X50460Y41834D01*
X40584D01*
X39425Y42993D01*
Y44309D01*
G37*
G36*
X57563Y59346D02*X47456Y49238D01*
Y50136D01*
X47467Y50138D01*
X47495Y50148D01*
X47522Y50161D01*
X47546Y50179D01*
X47567Y50201D01*
X47584Y50225D01*
X47597Y50252D01*
X47635Y50356D01*
X47661Y50463D01*
X47677Y50572D01*
X47682Y50682D01*
X47677Y50792D01*
X47661Y50901D01*
X47635Y51008D01*
X47598Y51112D01*
X47585Y51139D01*
X47568Y51163D01*
X47546Y51185D01*
X47522Y51203D01*
X47495Y51217D01*
X47467Y51226D01*
X47456Y51228D01*
Y52536D01*
X47466Y52548D01*
X47560Y52701D01*
X47628Y52867D01*
X47670Y53042D01*
X47681Y53222D01*
X47670Y53401D01*
X47628Y53576D01*
X47560Y53742D01*
X47466Y53896D01*
X47456Y53907D01*
Y54652D01*
X47474Y54659D01*
X47525Y54691D01*
X47570Y54729D01*
X47609Y54775D01*
X47641Y54826D01*
X47663Y54882D01*
X47677Y54940D01*
X47681Y55000D01*
X47677Y56583D01*
X47663Y56642D01*
X47641Y56697D01*
X47609Y56748D01*
X47570Y56794D01*
X47525Y56833D01*
X47474Y56864D01*
X47456Y56872D01*
Y57293D01*
X47987D01*
X48000Y57292D01*
X48051Y57296D01*
X48051Y57296D01*
X48101Y57308D01*
X48149Y57328D01*
X48193Y57355D01*
X48232Y57388D01*
X48240Y57398D01*
X54615Y63773D01*
X56327D01*
X56340Y63772D01*
X56391Y63776D01*
X56391Y63776D01*
X56441Y63788D01*
X56489Y63808D01*
X56533Y63835D01*
X56572Y63868D01*
X56580Y63878D01*
X58117Y65415D01*
X58127Y65423D01*
X58160Y65462D01*
X58160Y65462D01*
X58187Y65506D01*
X58207Y65554D01*
X58219Y65604D01*
X58223Y65655D01*
X58222Y65668D01*
Y65673D01*
X58319Y65559D01*
X58456Y65443D01*
X58609Y65349D01*
X58776Y65280D01*
X58783Y65278D01*
Y59833D01*
X58224Y59273D01*
X58217Y59300D01*
Y61731D01*
X58254Y61753D01*
X58326Y61815D01*
X58387Y61886D01*
X58436Y61967D01*
X58472Y62054D01*
X58494Y62146D01*
X58500Y62240D01*
X58494Y62334D01*
X58472Y62426D01*
X58436Y62513D01*
X58387Y62594D01*
X58326Y62666D01*
X58254Y62727D01*
X58173Y62776D01*
X58086Y62812D01*
X57994Y62835D01*
X57900Y62842D01*
X57806Y62835D01*
X57714Y62812D01*
X57627Y62776D01*
X57546Y62727D01*
X57474Y62666D01*
X57413Y62594D01*
X57364Y62513D01*
X57328Y62426D01*
X57306Y62334D01*
X57298Y62240D01*
X57306Y62146D01*
X57328Y62054D01*
X57364Y61967D01*
X57413Y61886D01*
X57474Y61815D01*
X57546Y61753D01*
X57563Y61743D01*
Y59346D01*
G37*
G36*
X47456Y56872D02*X47418Y56887D01*
X47360Y56901D01*
X47300Y56905D01*
X46536Y56903D01*
Y57293D01*
X47456D01*
Y56872D01*
G37*
G36*
Y53907D02*X47349Y54032D01*
X47212Y54149D01*
X47059Y54243D01*
X46892Y54312D01*
X46717Y54354D01*
X46538Y54368D01*
X46536Y54368D01*
Y54620D01*
X47360Y54622D01*
X47418Y54636D01*
X47456Y54652D01*
Y53907D01*
G37*
G36*
Y49238D02*X46536Y48319D01*
Y49537D01*
X46538Y49537D01*
X46648Y49543D01*
X46757Y49559D01*
X46864Y49585D01*
X46968Y49621D01*
X46995Y49635D01*
X47020Y49652D01*
X47041Y49673D01*
X47059Y49698D01*
X47073Y49724D01*
X47082Y49753D01*
X47087Y49783D01*
X47088Y49813D01*
X47083Y49843D01*
X47074Y49871D01*
X47060Y49898D01*
X47043Y49923D01*
X47022Y49944D01*
X46998Y49962D01*
X46971Y49976D01*
X46942Y49985D01*
X46913Y49990D01*
X46882Y49991D01*
X46853Y49986D01*
X46824Y49976D01*
X46755Y49951D01*
X46684Y49934D01*
X46611Y49923D01*
X46538Y49920D01*
X46536Y49920D01*
Y51444D01*
X46538Y51444D01*
X46611Y51440D01*
X46684Y51430D01*
X46755Y51412D01*
X46824Y51388D01*
X46853Y51378D01*
X46882Y51374D01*
X46912Y51374D01*
X46942Y51379D01*
X46970Y51388D01*
X46997Y51402D01*
X47021Y51420D01*
X47042Y51441D01*
X47060Y51466D01*
X47073Y51492D01*
X47082Y51521D01*
X47087Y51551D01*
X47086Y51581D01*
X47082Y51610D01*
X47072Y51639D01*
X47058Y51665D01*
X47040Y51689D01*
X47019Y51711D01*
X46995Y51728D01*
X46968Y51741D01*
X46864Y51779D01*
X46757Y51805D01*
X46648Y51821D01*
X46538Y51826D01*
X46536Y51826D01*
Y52075D01*
X46538Y52075D01*
X46717Y52089D01*
X46892Y52131D01*
X47059Y52200D01*
X47212Y52294D01*
X47349Y52411D01*
X47456Y52536D01*
Y51228D01*
X47437Y51231D01*
X47407Y51231D01*
X47377Y51227D01*
X47348Y51218D01*
X47322Y51204D01*
X47297Y51187D01*
X47276Y51166D01*
X47258Y51141D01*
X47244Y51115D01*
X47234Y51086D01*
X47229Y51056D01*
X47229Y51026D01*
X47234Y50996D01*
X47243Y50968D01*
X47268Y50899D01*
X47286Y50828D01*
X47296Y50755D01*
X47300Y50682D01*
X47296Y50608D01*
X47286Y50536D01*
X47268Y50464D01*
X47244Y50395D01*
X47235Y50367D01*
X47230Y50337D01*
X47230Y50307D01*
X47235Y50278D01*
X47245Y50249D01*
X47258Y50223D01*
X47276Y50198D01*
X47298Y50177D01*
X47322Y50160D01*
X47349Y50147D01*
X47377Y50138D01*
X47407Y50133D01*
X47437Y50133D01*
X47456Y50136D01*
Y49238D01*
G37*
G36*
X46536Y56903D02*X45716Y56901D01*
X45658Y56887D01*
X45602Y56864D01*
X45551Y56833D01*
X45506Y56794D01*
X45467Y56748D01*
X45435Y56697D01*
X45413Y56642D01*
X45399Y56583D01*
X45395Y56524D01*
X45397Y55429D01*
X39425Y49457D01*
Y51033D01*
X45685Y57293D01*
X46536D01*
Y56903D01*
G37*
G36*
X45620Y54036D02*X46204Y54620D01*
X46536Y54620D01*
Y54368D01*
X46359Y54354D01*
X46184Y54312D01*
X46017Y54243D01*
X45864Y54149D01*
X45727Y54032D01*
X45620Y53907D01*
Y54036D01*
G37*
G36*
X46536Y48319D02*X45620Y47403D01*
Y50135D01*
X45639Y50132D01*
X45669Y50132D01*
X45699Y50137D01*
X45728Y50146D01*
X45754Y50159D01*
X45779Y50177D01*
X45800Y50198D01*
X45818Y50222D01*
X45832Y50249D01*
X45842Y50277D01*
X45847Y50307D01*
X45847Y50337D01*
X45842Y50367D01*
X45833Y50396D01*
X45808Y50464D01*
X45790Y50536D01*
X45780Y50608D01*
X45776Y50682D01*
X45780Y50755D01*
X45790Y50828D01*
X45808Y50899D01*
X45832Y50968D01*
X45841Y50997D01*
X45846Y51026D01*
X45846Y51056D01*
X45841Y51086D01*
X45831Y51114D01*
X45818Y51141D01*
X45800Y51165D01*
X45778Y51186D01*
X45754Y51203D01*
X45727Y51217D01*
X45699Y51226D01*
X45669Y51230D01*
X45639Y51230D01*
X45620Y51227D01*
Y52536D01*
X45727Y52411D01*
X45864Y52294D01*
X46017Y52200D01*
X46184Y52131D01*
X46359Y52089D01*
X46536Y52075D01*
Y51826D01*
X46428Y51821D01*
X46319Y51805D01*
X46212Y51779D01*
X46108Y51742D01*
X46081Y51729D01*
X46056Y51711D01*
X46035Y51690D01*
X46017Y51666D01*
X46003Y51639D01*
X45994Y51611D01*
X45989Y51581D01*
X45988Y51551D01*
X45993Y51521D01*
X46002Y51492D01*
X46016Y51465D01*
X46033Y51441D01*
X46054Y51419D01*
X46078Y51401D01*
X46105Y51388D01*
X46134Y51378D01*
X46163Y51373D01*
X46194Y51373D01*
X46223Y51377D01*
X46252Y51387D01*
X46321Y51412D01*
X46392Y51430D01*
X46465Y51440D01*
X46536Y51444D01*
Y49920D01*
X46465Y49923D01*
X46392Y49934D01*
X46321Y49951D01*
X46252Y49976D01*
X46223Y49985D01*
X46194Y49990D01*
X46164Y49989D01*
X46134Y49985D01*
X46106Y49975D01*
X46079Y49961D01*
X46055Y49943D01*
X46034Y49922D01*
X46016Y49898D01*
X46003Y49871D01*
X45994Y49842D01*
X45989Y49813D01*
X45990Y49783D01*
X45994Y49753D01*
X46004Y49725D01*
X46018Y49698D01*
X46036Y49674D01*
X46057Y49653D01*
X46081Y49635D01*
X46108Y49623D01*
X46212Y49585D01*
X46319Y49559D01*
X46428Y49543D01*
X46536Y49537D01*
Y48319D01*
G37*
G36*
X45620Y47403D02*X45523Y47306D01*
X44135D01*
X44119Y47332D01*
X44058Y47404D01*
X43986Y47466D01*
X43905Y47515D01*
X43818Y47551D01*
X43726Y47573D01*
X43632Y47580D01*
X43538Y47573D01*
X43446Y47551D01*
X43359Y47515D01*
X43278Y47466D01*
X43207Y47404D01*
X43145Y47332D01*
X43096Y47252D01*
X43060Y47165D01*
X43038Y47073D01*
X43030Y46979D01*
X43038Y46884D01*
X43060Y46793D01*
X43096Y46705D01*
X43145Y46625D01*
X43207Y46553D01*
X43278Y46492D01*
X43359Y46442D01*
X43446Y46406D01*
X43538Y46384D01*
X43632Y46377D01*
X43726Y46384D01*
X43818Y46406D01*
X43905Y46442D01*
X43986Y46492D01*
X44058Y46553D01*
X44119Y46625D01*
X44135Y46652D01*
X45602D01*
X44187Y45237D01*
X39943D01*
X39927Y45264D01*
X39866Y45336D01*
X39794Y45397D01*
X39713Y45446D01*
X39626Y45482D01*
X39534Y45505D01*
X39440Y45512D01*
X39425Y45511D01*
Y47840D01*
X45620Y54036D01*
Y53907D01*
X45610Y53896D01*
X45516Y53742D01*
X45448Y53576D01*
X45406Y53401D01*
X45391Y53222D01*
X45406Y53042D01*
X45448Y52867D01*
X45516Y52701D01*
X45610Y52548D01*
X45620Y52536D01*
Y51227D01*
X45609Y51225D01*
X45581Y51216D01*
X45554Y51202D01*
X45530Y51184D01*
X45509Y51163D01*
X45492Y51138D01*
X45479Y51111D01*
X45441Y51008D01*
X45415Y50901D01*
X45399Y50792D01*
X45394Y50682D01*
X45399Y50572D01*
X45415Y50463D01*
X45441Y50356D01*
X45478Y50252D01*
X45491Y50225D01*
X45508Y50200D01*
X45530Y50179D01*
X45554Y50161D01*
X45581Y50147D01*
X45609Y50137D01*
X45620Y50135D01*
Y47403D01*
G37*
G36*
X39425Y49457D02*X36912Y46944D01*
X36895Y46929D01*
X36836Y46861D01*
X36789Y46784D01*
X36755Y46701D01*
X36734Y46613D01*
X36734Y46613D01*
X36727Y46524D01*
X36728Y46501D01*
Y45344D01*
X35045Y47028D01*
Y49083D01*
X37327D01*
X37340Y49082D01*
X37391Y49086D01*
X37391Y49086D01*
X37441Y49098D01*
X37489Y49118D01*
X37533Y49145D01*
X37572Y49178D01*
X37580Y49188D01*
X39425Y51033D01*
Y49457D01*
G37*
G36*
Y11885D02*X37750Y11862D01*
X35045Y12171D01*
Y19824D01*
X35491Y19747D01*
X37953Y19521D01*
X38234Y19517D01*
X38248Y19483D01*
X38269Y19449D01*
X38295Y19418D01*
X38325Y19392D01*
X38359Y19371D01*
X38396Y19356D01*
X38435Y19347D01*
X38475Y19344D01*
X39425Y19346D01*
Y18151D01*
X38435Y18150D01*
X38396Y18141D01*
X38359Y18126D01*
X38325Y18105D01*
X38295Y18079D01*
X38269Y18048D01*
X38248Y18014D01*
X38233Y17977D01*
X38223Y17938D01*
X38221Y17899D01*
X38223Y16559D01*
X38233Y16520D01*
X38248Y16483D01*
X38269Y16449D01*
X38295Y16418D01*
X38325Y16392D01*
X38359Y16372D01*
X38396Y16356D01*
X38435Y16347D01*
X38475Y16345D01*
X39425Y16346D01*
Y11885D01*
G37*
G36*
Y45511D02*X39346Y45505D01*
X39254Y45482D01*
X39167Y45446D01*
X39086Y45397D01*
X39014Y45336D01*
X38953Y45264D01*
X38904Y45183D01*
X38868Y45096D01*
X38846Y45004D01*
X38838Y44910D01*
X38846Y44816D01*
X38868Y44724D01*
X38904Y44637D01*
X38953Y44556D01*
X39014Y44485D01*
X39086Y44423D01*
X39167Y44374D01*
X39254Y44338D01*
X39346Y44316D01*
X39425Y44309D01*
Y42993D01*
X38414Y44004D01*
X38442Y44121D01*
X38453Y44300D01*
X38442Y44479D01*
X38400Y44654D01*
X38332Y44821D01*
X38238Y44974D01*
X38121Y45111D01*
X37984Y45228D01*
X37872Y45297D01*
Y46287D01*
X39425Y47840D01*
Y45511D01*
G37*
G36*
X26534Y53948D02*X34764D01*
X34765Y53275D01*
X34774Y53236D01*
X34789Y53199D01*
X34810Y53165D01*
X34836Y53135D01*
X34867Y53109D01*
X34901Y53088D01*
X34938Y53073D01*
X34977Y53063D01*
X35016Y53061D01*
X35045Y53061D01*
Y51867D01*
X34977Y51867D01*
X34938Y51858D01*
X34901Y51842D01*
X34867Y51821D01*
X34836Y51795D01*
X34810Y51765D01*
X34789Y51731D01*
X34774Y51694D01*
X34765Y51655D01*
X34762Y51615D01*
X34765Y50275D01*
X34774Y50237D01*
X34789Y50200D01*
X34791Y50197D01*
X26534D01*
Y53948D01*
G37*
G36*
Y55688D02*X27523Y55689D01*
X27562Y55699D01*
X27599Y55714D01*
X27633Y55735D01*
X27664Y55761D01*
X27690Y55791D01*
X27711Y55825D01*
X27726Y55862D01*
X27735Y55901D01*
X27738Y55941D01*
X27737Y56264D01*
X28102D01*
X28102Y55928D01*
X28112Y55889D01*
X28127Y55852D01*
X28148Y55818D01*
X28174Y55788D01*
X28204Y55762D01*
X28238Y55741D01*
X28275Y55726D01*
X28314Y55716D01*
X28354Y55714D01*
X29744Y55716D01*
X30421Y55038D01*
X30430Y55028D01*
X30469Y54995D01*
X30513Y54968D01*
X30560Y54948D01*
X30610Y54936D01*
X30610D01*
X30662Y54932D01*
X30675Y54933D01*
X35045D01*
Y54867D01*
X34977Y54867D01*
X34938Y54857D01*
X34901Y54842D01*
X34867Y54821D01*
X34836Y54795D01*
X34810Y54765D01*
X34789Y54731D01*
X34774Y54694D01*
X34765Y54655D01*
X34762Y54615D01*
X34762Y54602D01*
X26534D01*
Y55688D01*
G37*
G36*
X33048Y65450D02*X33056Y65443D01*
X33209Y65349D01*
X33376Y65280D01*
X33551Y65238D01*
X33730Y65224D01*
X33909Y65238D01*
X34084Y65280D01*
X34251Y65349D01*
X34404Y65443D01*
X34541Y65559D01*
X34658Y65696D01*
X34723Y65803D01*
Y64923D01*
X34722Y64910D01*
X34726Y64859D01*
Y64859D01*
X34738Y64809D01*
X34758Y64761D01*
X34785Y64717D01*
X34818Y64678D01*
X34828Y64670D01*
X35045Y64453D01*
Y63395D01*
X34055Y63394D01*
X34016Y63384D01*
X33979Y63369D01*
X33945Y63348D01*
X33915Y63322D01*
X33889Y63292D01*
X33868Y63258D01*
X33852Y63221D01*
X33843Y63182D01*
X33841Y63142D01*
X33843Y61802D01*
X33852Y61763D01*
X33868Y61726D01*
X33889Y61692D01*
X33915Y61662D01*
X33945Y61636D01*
X33979Y61615D01*
X34016Y61600D01*
X34055Y61590D01*
X34095Y61588D01*
X35045Y61589D01*
Y60395D01*
X34055Y60394D01*
X34016Y60385D01*
X33979Y60369D01*
X33945Y60348D01*
X33915Y60322D01*
X33889Y60292D01*
X33868Y60258D01*
X33852Y60221D01*
X33843Y60182D01*
X33841Y60142D01*
X33843Y58802D01*
X33852Y58764D01*
X33868Y58727D01*
X33889Y58693D01*
X33915Y58662D01*
X33945Y58636D01*
X33979Y58615D01*
X34016Y58600D01*
X34055Y58591D01*
X34095Y58588D01*
X35045Y58589D01*
Y55587D01*
X33048D01*
Y55672D01*
X33738Y55673D01*
X33776Y55683D01*
X33813Y55698D01*
X33847Y55719D01*
X33878Y55745D01*
X33904Y55775D01*
X33925Y55809D01*
X33940Y55846D01*
X33949Y55885D01*
X33952Y55925D01*
X33949Y57865D01*
X33940Y57904D01*
X33925Y57941D01*
X33904Y57975D01*
X33878Y58005D01*
X33847Y58031D01*
X33813Y58052D01*
X33776Y58067D01*
X33738Y58077D01*
X33698Y58079D01*
X33412Y58078D01*
Y59083D01*
X33439Y59100D01*
X33510Y59161D01*
X33572Y59233D01*
X33621Y59313D01*
X33657Y59401D01*
X33679Y59492D01*
X33685Y59587D01*
X33679Y59681D01*
X33657Y59773D01*
X33621Y59860D01*
X33572Y59940D01*
X33510Y60012D01*
X33439Y60074D01*
X33358Y60123D01*
X33271Y60159D01*
X33179Y60181D01*
X33085Y60188D01*
X33048Y60186D01*
Y65450D01*
G37*
G36*
Y67990D02*X33056Y67983D01*
X33209Y67889D01*
X33376Y67820D01*
X33551Y67778D01*
X33730Y67764D01*
X33909Y67778D01*
X34084Y67820D01*
X34251Y67889D01*
X34404Y67983D01*
X34541Y68099D01*
X34658Y68236D01*
X34723Y68343D01*
Y66937D01*
X34658Y67044D01*
X34541Y67181D01*
X34404Y67298D01*
X34251Y67392D01*
X34084Y67461D01*
X33909Y67503D01*
X33730Y67517D01*
X33551Y67503D01*
X33376Y67461D01*
X33209Y67392D01*
X33056Y67298D01*
X33048Y67291D01*
Y67990D01*
G37*
G36*
Y70470D02*X34900D01*
Y70480D01*
X34938D01*
X34819Y70361D01*
X34785Y70323D01*
X34758Y70279D01*
X34738Y70231D01*
X34726Y70181D01*
X34722Y70130D01*
X34724Y70110D01*
X34723Y70100D01*
Y69477D01*
X34658Y69584D01*
X34541Y69721D01*
X34404Y69838D01*
X34251Y69932D01*
X34084Y70001D01*
X33909Y70043D01*
X33730Y70057D01*
X33551Y70043D01*
X33376Y70001D01*
X33209Y69932D01*
X33056Y69838D01*
X33048Y69831D01*
Y70470D01*
G37*
G36*
X31188D02*X33048D01*
Y69831D01*
X32919Y69721D01*
X32802Y69584D01*
X32708Y69431D01*
X32640Y69264D01*
X32598Y69089D01*
X32583Y68910D01*
X32598Y68731D01*
X32640Y68556D01*
X32708Y68390D01*
X32802Y68236D01*
X32919Y68099D01*
X33048Y67990D01*
Y67291D01*
X32919Y67181D01*
X32802Y67044D01*
X32708Y66891D01*
X32640Y66724D01*
X32598Y66549D01*
X32583Y66370D01*
X32598Y66191D01*
X32640Y66016D01*
X32708Y65850D01*
X32802Y65696D01*
X32919Y65559D01*
X33048Y65450D01*
Y60186D01*
X32991Y60181D01*
X32899Y60159D01*
X32812Y60123D01*
X32731Y60074D01*
X32659Y60012D01*
X32598Y59940D01*
X32549Y59860D01*
X32513Y59773D01*
X32490Y59681D01*
X32483Y59587D01*
X32490Y59492D01*
X32513Y59401D01*
X32549Y59313D01*
X32598Y59233D01*
X32659Y59161D01*
X32731Y59100D01*
X32758Y59083D01*
Y58077D01*
X32358Y58077D01*
X32319Y58067D01*
X32282Y58052D01*
X32248Y58031D01*
X32218Y58005D01*
X32192Y57975D01*
X32171Y57941D01*
X32155Y57904D01*
X32146Y57865D01*
X32144Y57825D01*
X32146Y55885D01*
X32155Y55846D01*
X32171Y55809D01*
X32192Y55775D01*
X32218Y55745D01*
X32248Y55719D01*
X32282Y55698D01*
X32319Y55683D01*
X32358Y55673D01*
X32398Y55671D01*
X33048Y55672D01*
Y55587D01*
X31188D01*
Y65224D01*
X31190Y65224D01*
X31369Y65238D01*
X31544Y65280D01*
X31711Y65349D01*
X31864Y65443D01*
X32001Y65559D01*
X32118Y65696D01*
X32212Y65850D01*
X32280Y66016D01*
X32322Y66191D01*
X32333Y66370D01*
X32322Y66549D01*
X32280Y66724D01*
X32212Y66891D01*
X32118Y67044D01*
X32001Y67181D01*
X31864Y67298D01*
X31711Y67392D01*
X31544Y67461D01*
X31369Y67503D01*
X31190Y67517D01*
X31188Y67516D01*
Y67764D01*
X31190Y67764D01*
X31369Y67778D01*
X31544Y67820D01*
X31711Y67889D01*
X31864Y67983D01*
X32001Y68099D01*
X32118Y68236D01*
X32212Y68390D01*
X32280Y68556D01*
X32322Y68731D01*
X32333Y68910D01*
X32322Y69089D01*
X32280Y69264D01*
X32212Y69431D01*
X32118Y69584D01*
X32001Y69721D01*
X31864Y69838D01*
X31711Y69932D01*
X31544Y70001D01*
X31369Y70043D01*
X31190Y70057D01*
X31188Y70056D01*
Y70470D01*
G37*
G36*
X28650Y58714D02*X30294Y58716D01*
X30333Y58725D01*
X30370Y58741D01*
X30404Y58761D01*
X30434Y58787D01*
X30460Y58818D01*
X30473Y58839D01*
Y57396D01*
X30460Y57418D01*
X30434Y57448D01*
X30404Y57474D01*
X30370Y57495D01*
X30333Y57510D01*
X30294Y57519D01*
X30254Y57522D01*
X28650Y57520D01*
Y58714D01*
G37*
G36*
Y62557D02*X30473Y60735D01*
Y60396D01*
X30460Y60417D01*
X30434Y60448D01*
X30404Y60474D01*
X30370Y60495D01*
X30333Y60510D01*
X30294Y60519D01*
X30254Y60522D01*
X28650Y60520D01*
Y62557D01*
G37*
G36*
X29568Y70470D02*X31188D01*
Y70056D01*
X31011Y70043D01*
X30836Y70001D01*
X30669Y69932D01*
X30516Y69838D01*
X30379Y69721D01*
X30262Y69584D01*
X30168Y69431D01*
X30100Y69264D01*
X30058Y69089D01*
X30043Y68910D01*
X30058Y68731D01*
X30100Y68556D01*
X30168Y68390D01*
X30262Y68236D01*
X30379Y68099D01*
X30516Y67983D01*
X30669Y67889D01*
X30836Y67820D01*
X31011Y67778D01*
X31188Y67764D01*
Y67516D01*
X31011Y67503D01*
X30836Y67461D01*
X30669Y67392D01*
X30516Y67298D01*
X30379Y67181D01*
X30262Y67044D01*
X30168Y66891D01*
X30100Y66724D01*
X30058Y66549D01*
X30043Y66370D01*
X30058Y66191D01*
X30100Y66016D01*
X30168Y65850D01*
X30262Y65696D01*
X30379Y65559D01*
X30516Y65443D01*
X30669Y65349D01*
X30836Y65280D01*
X31011Y65238D01*
X31188Y65224D01*
Y55587D01*
X30797D01*
X30496Y55888D01*
X30496Y55889D01*
X30506Y55928D01*
X30508Y55968D01*
X30507Y56395D01*
X30508Y56396D01*
X31022Y56910D01*
X31032Y56918D01*
X31065Y56957D01*
X31065Y56957D01*
X31092Y57001D01*
X31112Y57049D01*
X31124Y57099D01*
X31128Y57150D01*
X31127Y57163D01*
Y60857D01*
X31128Y60870D01*
X31124Y60921D01*
X31112Y60971D01*
X31092Y61019D01*
X31065Y61063D01*
X31032Y61102D01*
X31022Y61110D01*
X29568Y62565D01*
Y65685D01*
X29578Y65696D01*
X29672Y65850D01*
X29740Y66016D01*
X29782Y66191D01*
X29793Y66370D01*
X29782Y66549D01*
X29740Y66724D01*
X29672Y66891D01*
X29578Y67044D01*
X29568Y67056D01*
Y68365D01*
X29579Y68367D01*
X29607Y68376D01*
X29634Y68390D01*
X29658Y68408D01*
X29679Y68429D01*
X29696Y68453D01*
X29709Y68480D01*
X29747Y68584D01*
X29773Y68691D01*
X29789Y68800D01*
X29794Y68910D01*
X29789Y69020D01*
X29773Y69129D01*
X29747Y69236D01*
X29710Y69340D01*
X29697Y69367D01*
X29680Y69392D01*
X29658Y69413D01*
X29634Y69431D01*
X29607Y69445D01*
X29579Y69455D01*
X29568Y69456D01*
Y70470D01*
G37*
G36*
Y62565D02*X28897Y63236D01*
Y65254D01*
X29004Y65280D01*
X29171Y65349D01*
X29324Y65443D01*
X29461Y65559D01*
X29568Y65685D01*
Y62565D01*
G37*
G36*
X28650Y70470D02*X29568D01*
Y69456D01*
X29549Y69459D01*
X29519Y69460D01*
X29489Y69455D01*
X29460Y69446D01*
X29434Y69433D01*
X29409Y69415D01*
X29388Y69394D01*
X29370Y69370D01*
X29356Y69343D01*
X29346Y69314D01*
X29341Y69285D01*
X29341Y69255D01*
X29346Y69225D01*
X29355Y69196D01*
X29380Y69127D01*
X29398Y69056D01*
X29408Y68983D01*
X29412Y68910D01*
X29408Y68837D01*
X29398Y68764D01*
X29380Y68693D01*
X29356Y68624D01*
X29347Y68595D01*
X29342Y68566D01*
X29342Y68536D01*
X29347Y68506D01*
X29357Y68478D01*
X29370Y68451D01*
X29388Y68427D01*
X29410Y68406D01*
X29434Y68388D01*
X29461Y68375D01*
X29489Y68366D01*
X29519Y68361D01*
X29549Y68362D01*
X29568Y68365D01*
Y67056D01*
X29461Y67181D01*
X29324Y67298D01*
X29171Y67392D01*
X29004Y67461D01*
X28829Y67503D01*
X28650Y67517D01*
Y67766D01*
X28760Y67771D01*
X28869Y67787D01*
X28976Y67813D01*
X29080Y67850D01*
X29107Y67863D01*
X29132Y67881D01*
X29153Y67902D01*
X29171Y67926D01*
X29185Y67953D01*
X29194Y67981D01*
X29199Y68011D01*
X29200Y68041D01*
X29195Y68071D01*
X29186Y68100D01*
X29172Y68127D01*
X29155Y68151D01*
X29134Y68173D01*
X29110Y68190D01*
X29083Y68204D01*
X29054Y68214D01*
X29025Y68219D01*
X28994Y68219D01*
X28965Y68214D01*
X28936Y68205D01*
X28867Y68180D01*
X28796Y68162D01*
X28723Y68152D01*
X28650Y68148D01*
Y69672D01*
X28723Y69669D01*
X28796Y69658D01*
X28867Y69640D01*
X28936Y69616D01*
X28965Y69607D01*
X28994Y69602D01*
X29024Y69602D01*
X29054Y69607D01*
X29082Y69617D01*
X29109Y69631D01*
X29133Y69648D01*
X29154Y69670D01*
X29172Y69694D01*
X29185Y69721D01*
X29194Y69749D01*
X29199Y69779D01*
X29198Y69809D01*
X29194Y69839D01*
X29184Y69867D01*
X29170Y69894D01*
X29152Y69918D01*
X29131Y69939D01*
X29107Y69956D01*
X29080Y69969D01*
X28976Y70007D01*
X28869Y70033D01*
X28760Y70049D01*
X28650Y70054D01*
Y70470D01*
G37*
G36*
X27732Y65685D02*X27839Y65559D01*
X27976Y65443D01*
X28129Y65349D01*
X28243Y65302D01*
Y63113D01*
X28242Y63100D01*
X28246Y63049D01*
Y63049D01*
X28258Y62999D01*
X28278Y62951D01*
X28305Y62907D01*
X28338Y62868D01*
X28348Y62860D01*
X28650Y62557D01*
Y60520D01*
X28314Y60519D01*
X28275Y60510D01*
X28238Y60495D01*
X28204Y60474D01*
X28174Y60448D01*
X28148Y60417D01*
X28127Y60383D01*
X28112Y60346D01*
X28102Y60307D01*
X28100Y60268D01*
X28102Y58928D01*
X28112Y58889D01*
X28127Y58852D01*
X28148Y58818D01*
X28174Y58787D01*
X28204Y58761D01*
X28238Y58741D01*
X28275Y58725D01*
X28314Y58716D01*
X28354Y58714D01*
X28650Y58714D01*
Y57520D01*
X28314Y57519D01*
X28275Y57510D01*
X28238Y57495D01*
X28204Y57474D01*
X28174Y57448D01*
X28148Y57418D01*
X28127Y57383D01*
X28112Y57347D01*
X28102Y57308D01*
X28100Y57268D01*
X28101Y56918D01*
X27736D01*
X27735Y57281D01*
X27732Y57293D01*
Y58888D01*
X27735Y58901D01*
X27738Y58941D01*
X27735Y60280D01*
X27732Y60293D01*
Y65685D01*
G37*
G36*
Y70470D02*X28650D01*
Y70054D01*
X28650Y70054D01*
X28540Y70049D01*
X28431Y70033D01*
X28324Y70007D01*
X28220Y69970D01*
X28193Y69957D01*
X28168Y69940D01*
X28147Y69918D01*
X28129Y69894D01*
X28115Y69867D01*
X28106Y69839D01*
X28101Y69809D01*
X28100Y69779D01*
X28105Y69749D01*
X28114Y69721D01*
X28128Y69694D01*
X28145Y69669D01*
X28166Y69648D01*
X28190Y69630D01*
X28217Y69616D01*
X28246Y69606D01*
X28275Y69601D01*
X28306Y69601D01*
X28335Y69606D01*
X28364Y69615D01*
X28433Y69640D01*
X28504Y69658D01*
X28577Y69669D01*
X28650Y69672D01*
X28650Y69672D01*
Y68148D01*
X28650Y68148D01*
X28577Y68152D01*
X28504Y68162D01*
X28433Y68180D01*
X28364Y68204D01*
X28335Y68214D01*
X28306Y68218D01*
X28276Y68218D01*
X28246Y68213D01*
X28218Y68203D01*
X28191Y68190D01*
X28167Y68172D01*
X28146Y68151D01*
X28128Y68126D01*
X28115Y68099D01*
X28106Y68071D01*
X28101Y68041D01*
X28102Y68011D01*
X28106Y67982D01*
X28116Y67953D01*
X28130Y67926D01*
X28148Y67902D01*
X28169Y67881D01*
X28193Y67864D01*
X28220Y67851D01*
X28324Y67813D01*
X28431Y67787D01*
X28540Y67771D01*
X28650Y67766D01*
X28650Y67766D01*
Y67517D01*
X28650Y67517D01*
X28471Y67503D01*
X28296Y67461D01*
X28129Y67392D01*
X27976Y67298D01*
X27839Y67181D01*
X27732Y67056D01*
Y68364D01*
X27751Y68361D01*
X27781Y68361D01*
X27811Y68365D01*
X27840Y68374D01*
X27866Y68388D01*
X27891Y68405D01*
X27912Y68426D01*
X27930Y68451D01*
X27944Y68477D01*
X27954Y68506D01*
X27959Y68536D01*
X27959Y68566D01*
X27954Y68595D01*
X27945Y68624D01*
X27920Y68693D01*
X27902Y68764D01*
X27892Y68837D01*
X27888Y68910D01*
X27892Y68983D01*
X27902Y69056D01*
X27920Y69127D01*
X27944Y69197D01*
X27953Y69225D01*
X27958Y69255D01*
X27958Y69285D01*
X27953Y69314D01*
X27943Y69343D01*
X27930Y69369D01*
X27912Y69393D01*
X27890Y69414D01*
X27866Y69432D01*
X27839Y69445D01*
X27811Y69454D01*
X27781Y69459D01*
X27751Y69459D01*
X27732Y69455D01*
Y70470D01*
G37*
G36*
Y57293D02*X27726Y57320D01*
X27711Y57356D01*
X27690Y57391D01*
X27664Y57421D01*
X27633Y57447D01*
X27599Y57468D01*
X27562Y57483D01*
X27523Y57492D01*
X27484Y57495D01*
X26534Y57494D01*
Y58688D01*
X27523Y58689D01*
X27562Y58698D01*
X27599Y58714D01*
X27633Y58734D01*
X27664Y58760D01*
X27690Y58791D01*
X27711Y58825D01*
X27726Y58862D01*
X27732Y58888D01*
Y57293D01*
G37*
G36*
X26534Y70470D02*X27732D01*
Y69455D01*
X27721Y69454D01*
X27693Y69444D01*
X27666Y69430D01*
X27642Y69413D01*
X27621Y69391D01*
X27604Y69367D01*
X27591Y69340D01*
X27553Y69236D01*
X27527Y69129D01*
X27511Y69020D01*
X27506Y68910D01*
X27511Y68800D01*
X27527Y68691D01*
X27553Y68584D01*
X27590Y68480D01*
X27603Y68453D01*
X27620Y68428D01*
X27642Y68407D01*
X27666Y68389D01*
X27693Y68375D01*
X27721Y68366D01*
X27732Y68364D01*
Y67056D01*
X27722Y67044D01*
X27628Y66891D01*
X27560Y66724D01*
X27518Y66549D01*
X27503Y66370D01*
X27518Y66191D01*
X27560Y66016D01*
X27628Y65850D01*
X27722Y65696D01*
X27732Y65685D01*
Y60293D01*
X27726Y60319D01*
X27711Y60356D01*
X27690Y60390D01*
X27664Y60421D01*
X27633Y60447D01*
X27599Y60468D01*
X27562Y60483D01*
X27523Y60492D01*
X27484Y60495D01*
X26534Y60493D01*
Y65308D01*
X26631Y65349D01*
X26784Y65443D01*
X26921Y65559D01*
X27038Y65696D01*
X27132Y65850D01*
X27200Y66016D01*
X27242Y66191D01*
X27253Y66370D01*
X27242Y66549D01*
X27200Y66724D01*
X27132Y66891D01*
X27038Y67044D01*
X26921Y67181D01*
X26784Y67298D01*
X26631Y67392D01*
X26534Y67432D01*
Y67848D01*
X26631Y67889D01*
X26784Y67983D01*
X26921Y68099D01*
X27038Y68236D01*
X27132Y68390D01*
X27200Y68556D01*
X27242Y68731D01*
X27253Y68910D01*
X27242Y69089D01*
X27200Y69264D01*
X27132Y69431D01*
X27038Y69584D01*
X26921Y69721D01*
X26784Y69838D01*
X26631Y69932D01*
X26534Y69972D01*
Y70470D01*
G37*
G36*
Y39783D02*X35045D01*
Y21394D01*
X33377Y21680D01*
X31098Y22259D01*
X29389Y22839D01*
X29339Y22864D01*
X27204Y23846D01*
X26534Y24229D01*
Y39783D01*
G37*
G36*
X33852Y46873D02*X34275D01*
X35045Y46103D01*
Y45410D01*
X34989Y45423D01*
X34880Y45439D01*
X34770Y45444D01*
X34660Y45439D01*
X34551Y45423D01*
X34444Y45397D01*
X34340Y45360D01*
X34313Y45347D01*
X34288Y45330D01*
X34267Y45308D01*
X34249Y45284D01*
X34235Y45257D01*
X34226Y45229D01*
X34221Y45199D01*
X34220Y45169D01*
X34225Y45139D01*
X34234Y45111D01*
X34248Y45084D01*
X34265Y45059D01*
X34286Y45038D01*
X34310Y45020D01*
X34337Y45006D01*
X34366Y44996D01*
X34395Y44991D01*
X34426Y44991D01*
X34455Y44996D01*
X34484Y45005D01*
X34553Y45030D01*
X34624Y45048D01*
X34697Y45059D01*
X34770Y45062D01*
X34843Y45059D01*
X34916Y45048D01*
X34987Y45030D01*
X35045Y45010D01*
Y43591D01*
X34987Y43570D01*
X34916Y43552D01*
X34843Y43542D01*
X34770Y43538D01*
X34697Y43542D01*
X34624Y43552D01*
X34553Y43570D01*
X34484Y43594D01*
X34455Y43604D01*
X34426Y43608D01*
X34396Y43608D01*
X34366Y43603D01*
X34338Y43593D01*
X34311Y43580D01*
X34287Y43562D01*
X34266Y43541D01*
X34248Y43516D01*
X34235Y43489D01*
X34226Y43461D01*
X34221Y43431D01*
X34222Y43401D01*
X34226Y43372D01*
X34236Y43343D01*
X34250Y43316D01*
X34268Y43292D01*
X34289Y43271D01*
X34313Y43254D01*
X34340Y43241D01*
X34444Y43203D01*
X34551Y43177D01*
X34660Y43161D01*
X34770Y43156D01*
X34880Y43161D01*
X34989Y43177D01*
X35045Y43191D01*
Y40897D01*
X33852D01*
Y43754D01*
X33871Y43751D01*
X33901Y43751D01*
X33931Y43755D01*
X33960Y43764D01*
X33986Y43778D01*
X34011Y43795D01*
X34032Y43816D01*
X34050Y43841D01*
X34064Y43867D01*
X34074Y43896D01*
X34079Y43926D01*
X34079Y43956D01*
X34074Y43985D01*
X34065Y44014D01*
X34040Y44083D01*
X34022Y44154D01*
X34012Y44227D01*
X34008Y44300D01*
X34012Y44373D01*
X34022Y44446D01*
X34040Y44517D01*
X34064Y44587D01*
X34073Y44615D01*
X34078Y44645D01*
X34078Y44675D01*
X34073Y44704D01*
X34063Y44733D01*
X34050Y44759D01*
X34032Y44783D01*
X34010Y44804D01*
X33986Y44822D01*
X33959Y44835D01*
X33931Y44844D01*
X33901Y44849D01*
X33871Y44849D01*
X33852Y44845D01*
Y46873D01*
G37*
G36*
X32228D02*X33852D01*
Y44845D01*
X33841Y44844D01*
X33813Y44834D01*
X33786Y44820D01*
X33762Y44803D01*
X33741Y44781D01*
X33724Y44757D01*
X33711Y44730D01*
X33673Y44626D01*
X33647Y44519D01*
X33631Y44410D01*
X33626Y44300D01*
X33631Y44190D01*
X33647Y44081D01*
X33673Y43974D01*
X33710Y43870D01*
X33723Y43843D01*
X33740Y43818D01*
X33762Y43797D01*
X33786Y43779D01*
X33813Y43765D01*
X33841Y43756D01*
X33852Y43754D01*
Y40897D01*
X32228D01*
Y43154D01*
X32230Y43154D01*
X32409Y43168D01*
X32584Y43210D01*
X32751Y43279D01*
X32904Y43373D01*
X33041Y43489D01*
X33158Y43626D01*
X33252Y43780D01*
X33320Y43946D01*
X33362Y44121D01*
X33373Y44300D01*
X33362Y44479D01*
X33320Y44654D01*
X33252Y44821D01*
X33158Y44974D01*
X33041Y45111D01*
X32904Y45228D01*
X32751Y45322D01*
X32584Y45391D01*
X32409Y45433D01*
X32230Y45447D01*
X32228Y45446D01*
Y46873D01*
G37*
G36*
X29688D02*X32228D01*
Y45446D01*
X32051Y45433D01*
X31876Y45391D01*
X31709Y45322D01*
X31556Y45228D01*
X31419Y45111D01*
X31302Y44974D01*
X31208Y44821D01*
X31140Y44654D01*
X31098Y44479D01*
X31083Y44300D01*
X31098Y44121D01*
X31140Y43946D01*
X31208Y43780D01*
X31302Y43626D01*
X31419Y43489D01*
X31556Y43373D01*
X31709Y43279D01*
X31876Y43210D01*
X32051Y43168D01*
X32228Y43154D01*
Y40897D01*
X29688D01*
Y43154D01*
X29690Y43154D01*
X29869Y43168D01*
X30044Y43210D01*
X30211Y43279D01*
X30364Y43373D01*
X30501Y43489D01*
X30618Y43626D01*
X30712Y43780D01*
X30780Y43946D01*
X30822Y44121D01*
X30833Y44300D01*
X30822Y44479D01*
X30780Y44654D01*
X30712Y44821D01*
X30618Y44974D01*
X30501Y45111D01*
X30364Y45228D01*
X30211Y45322D01*
X30044Y45391D01*
X29869Y45433D01*
X29690Y45447D01*
X29688Y45446D01*
Y46873D01*
G37*
G36*
X26534D02*X29688D01*
Y45446D01*
X29511Y45433D01*
X29336Y45391D01*
X29169Y45322D01*
X29016Y45228D01*
X28879Y45111D01*
X28762Y44974D01*
X28668Y44821D01*
X28600Y44654D01*
X28558Y44479D01*
X28543Y44300D01*
X28558Y44121D01*
X28600Y43946D01*
X28668Y43780D01*
X28762Y43626D01*
X28879Y43489D01*
X29016Y43373D01*
X29169Y43279D01*
X29336Y43210D01*
X29511Y43168D01*
X29688Y43154D01*
Y40897D01*
X26534D01*
Y43337D01*
X26629Y43279D01*
X26796Y43210D01*
X26971Y43168D01*
X27150Y43154D01*
X27329Y43168D01*
X27504Y43210D01*
X27671Y43279D01*
X27824Y43373D01*
X27961Y43489D01*
X28078Y43626D01*
X28172Y43780D01*
X28240Y43946D01*
X28282Y44121D01*
X28293Y44300D01*
X28282Y44479D01*
X28240Y44654D01*
X28172Y44821D01*
X28078Y44974D01*
X27961Y45111D01*
X27824Y45228D01*
X27671Y45322D01*
X27504Y45391D01*
X27329Y45433D01*
X27150Y45447D01*
X26971Y45433D01*
X26796Y45391D01*
X26629Y45322D01*
X26534Y45263D01*
Y46873D01*
G37*
G36*
X35045Y47028D02*X34650Y47422D01*
X34642Y47432D01*
X34603Y47465D01*
X34559Y47492D01*
X34511Y47512D01*
X34461Y47524D01*
X34410Y47528D01*
X34397Y47527D01*
X26534D01*
Y48033D01*
X28107D01*
X28123Y48006D01*
X28184Y47935D01*
X28256Y47873D01*
X28337Y47824D01*
X28424Y47788D01*
X28516Y47766D01*
X28610Y47758D01*
X28704Y47766D01*
X28796Y47788D01*
X28883Y47824D01*
X28964Y47873D01*
X29036Y47935D01*
X29097Y48006D01*
X29146Y48087D01*
X29182Y48174D01*
X29204Y48266D01*
X29210Y48360D01*
X29204Y48454D01*
X29182Y48546D01*
X29146Y48633D01*
X29097Y48714D01*
X29036Y48786D01*
X28964Y48847D01*
X28883Y48896D01*
X28796Y48932D01*
X28704Y48955D01*
X28610Y48962D01*
X28516Y48955D01*
X28424Y48932D01*
X28337Y48896D01*
X28256Y48847D01*
X28184Y48786D01*
X28123Y48714D01*
X28107Y48687D01*
X26534D01*
Y49543D01*
X30371D01*
X30355Y49527D01*
X30324Y49535D01*
X30230Y49542D01*
X30136Y49535D01*
X30044Y49512D01*
X29957Y49476D01*
X29876Y49427D01*
X29804Y49366D01*
X29743Y49294D01*
X29694Y49213D01*
X29658Y49126D01*
X29636Y49034D01*
X29628Y48940D01*
X29636Y48846D01*
X29658Y48754D01*
X29694Y48667D01*
X29743Y48586D01*
X29804Y48515D01*
X29876Y48453D01*
X29957Y48404D01*
X30044Y48368D01*
X30136Y48346D01*
X30230Y48338D01*
X30324Y48346D01*
X30416Y48368D01*
X30503Y48404D01*
X30584Y48453D01*
X30656Y48515D01*
X30717Y48586D01*
X30766Y48667D01*
X30802Y48754D01*
X30824Y48846D01*
X30830Y48940D01*
X30824Y49034D01*
X30817Y49065D01*
X30835Y49083D01*
X35045D01*
Y47028D01*
G37*
G36*
X26534Y57494D02*X25544Y57492D01*
X25505Y57483D01*
X25468Y57468D01*
X25434Y57447D01*
X25403Y57421D01*
X25378Y57391D01*
X25357Y57356D01*
X25341Y57320D01*
X25332Y57281D01*
X25330Y57241D01*
X25332Y55901D01*
X25341Y55862D01*
X25357Y55825D01*
X25378Y55791D01*
X25403Y55761D01*
X25434Y55735D01*
X25468Y55714D01*
X25505Y55699D01*
X25544Y55689D01*
X25584Y55687D01*
X26534Y55688D01*
Y54602D01*
X25961D01*
X25147Y55416D01*
Y61355D01*
X26332Y62540D01*
X26342Y62548D01*
X26375Y62587D01*
X26375Y62587D01*
X26402Y62631D01*
X26422Y62679D01*
X26434Y62729D01*
X26438Y62780D01*
X26437Y62793D01*
Y65273D01*
X26464Y65280D01*
X26534Y65308D01*
Y60493D01*
X25544Y60492D01*
X25505Y60483D01*
X25468Y60468D01*
X25434Y60447D01*
X25403Y60421D01*
X25378Y60390D01*
X25357Y60356D01*
X25341Y60319D01*
X25332Y60280D01*
X25330Y60241D01*
X25332Y58901D01*
X25341Y58862D01*
X25357Y58825D01*
X25378Y58791D01*
X25403Y58760D01*
X25434Y58734D01*
X25468Y58714D01*
X25505Y58698D01*
X25544Y58689D01*
X25584Y58687D01*
X26534Y58688D01*
Y57494D01*
G37*
G36*
X18490Y36566D02*X18539Y36596D01*
X18661Y36699D01*
X18764Y36821D01*
X18848Y36957D01*
X18909Y37105D01*
X18947Y37261D01*
X18956Y37420D01*
X18947Y37580D01*
X18909Y37735D01*
X18848Y37883D01*
X18764Y38019D01*
X18661Y38141D01*
X18539Y38245D01*
X18517Y38258D01*
X20043Y39783D01*
X26534D01*
Y24229D01*
X25163Y25012D01*
X23220Y26335D01*
X22383Y27007D01*
X22373Y27030D01*
X22352Y27065D01*
X22326Y27094D01*
X20952Y28464D01*
X20918Y28485D01*
X20881Y28501D01*
X20842Y28510D01*
X20802Y28513D01*
X20763Y28510D01*
X20724Y28501D01*
X20687Y28485D01*
X20674Y28477D01*
X19674Y29417D01*
X18490Y30720D01*
Y36566D01*
G37*
G36*
Y65224D02*X18669Y65238D01*
X18844Y65280D01*
X19011Y65349D01*
X19164Y65443D01*
X19301Y65559D01*
X19418Y65696D01*
X19443Y65738D01*
Y65390D01*
X19446Y65339D01*
X19448Y65331D01*
X19448Y65329D01*
X19460Y65279D01*
X19480Y65232D01*
X19506Y65188D01*
X19540Y65150D01*
X20543Y64147D01*
Y48916D01*
X18490Y46863D01*
Y48250D01*
X18497Y48252D01*
X18525Y48261D01*
X18552Y48275D01*
X18576Y48293D01*
X18597Y48314D01*
X18615Y48338D01*
X18628Y48365D01*
X18665Y48469D01*
X18692Y48576D01*
X18707Y48685D01*
X18713Y48795D01*
X18707Y48905D01*
X18692Y49014D01*
X18665Y49121D01*
X18629Y49225D01*
X18615Y49252D01*
X18598Y49277D01*
X18577Y49298D01*
X18553Y49316D01*
X18526Y49330D01*
X18497Y49340D01*
X18490Y49341D01*
Y50790D01*
X18497Y50792D01*
X18525Y50801D01*
X18552Y50815D01*
X18576Y50833D01*
X18597Y50854D01*
X18615Y50878D01*
X18628Y50905D01*
X18665Y51009D01*
X18692Y51116D01*
X18707Y51225D01*
X18713Y51335D01*
X18707Y51445D01*
X18692Y51554D01*
X18665Y51661D01*
X18629Y51765D01*
X18615Y51792D01*
X18598Y51817D01*
X18577Y51838D01*
X18553Y51856D01*
X18526Y51870D01*
X18497Y51880D01*
X18490Y51881D01*
Y53195D01*
X18496Y53201D01*
X18590Y53355D01*
X18659Y53521D01*
X18701Y53696D01*
X18711Y53875D01*
X18701Y54054D01*
X18659Y54229D01*
X18590Y54396D01*
X18496Y54549D01*
X18490Y54555D01*
Y55307D01*
X18504Y55313D01*
X18555Y55344D01*
X18601Y55383D01*
X18640Y55428D01*
X18671Y55480D01*
X18694Y55535D01*
X18708Y55593D01*
X18711Y55653D01*
X18708Y57237D01*
X18694Y57295D01*
X18671Y57351D01*
X18640Y57402D01*
X18601Y57447D01*
X18555Y57486D01*
X18504Y57518D01*
X18490Y57523D01*
Y65224D01*
G37*
G36*
X23570Y46873D02*X26534D01*
Y45263D01*
X26476Y45228D01*
X26339Y45111D01*
X26222Y44974D01*
X26128Y44821D01*
X26060Y44654D01*
X26018Y44479D01*
X26003Y44300D01*
X26018Y44121D01*
X26060Y43946D01*
X26128Y43780D01*
X26222Y43626D01*
X26339Y43489D01*
X26476Y43373D01*
X26534Y43337D01*
Y40897D01*
X23570D01*
Y43823D01*
X23588Y43780D01*
X23682Y43626D01*
X23799Y43489D01*
X23936Y43373D01*
X24089Y43279D01*
X24256Y43210D01*
X24431Y43168D01*
X24610Y43154D01*
X24789Y43168D01*
X24964Y43210D01*
X25131Y43279D01*
X25284Y43373D01*
X25421Y43489D01*
X25538Y43626D01*
X25632Y43780D01*
X25700Y43946D01*
X25742Y44121D01*
X25753Y44300D01*
X25742Y44479D01*
X25700Y44654D01*
X25632Y44821D01*
X25538Y44974D01*
X25421Y45111D01*
X25284Y45228D01*
X25131Y45322D01*
X24964Y45391D01*
X24789Y45433D01*
X24610Y45447D01*
X24431Y45433D01*
X24256Y45391D01*
X24089Y45322D01*
X23936Y45228D01*
X23799Y45111D01*
X23682Y44974D01*
X23588Y44821D01*
X23570Y44777D01*
Y46873D01*
G37*
G36*
X24488Y62525D02*X24595Y62633D01*
X24626Y62626D01*
X24720Y62618D01*
X24814Y62626D01*
X24906Y62648D01*
X24993Y62684D01*
X25074Y62733D01*
X25146Y62795D01*
X25207Y62866D01*
X25256Y62947D01*
X25292Y63034D01*
X25314Y63126D01*
X25320Y63220D01*
X25314Y63314D01*
X25292Y63406D01*
X25256Y63493D01*
X25207Y63574D01*
X25146Y63646D01*
X25074Y63707D01*
X24993Y63756D01*
X24906Y63792D01*
X24814Y63815D01*
X24720Y63822D01*
X24626Y63815D01*
X24534Y63792D01*
X24488Y63773D01*
Y65825D01*
X24499Y65827D01*
X24527Y65836D01*
X24554Y65850D01*
X24578Y65868D01*
X24599Y65889D01*
X24616Y65913D01*
X24629Y65940D01*
X24667Y66044D01*
X24693Y66151D01*
X24709Y66260D01*
X24714Y66370D01*
X24709Y66480D01*
X24693Y66589D01*
X24667Y66696D01*
X24630Y66800D01*
X24617Y66827D01*
X24600Y66852D01*
X24578Y66873D01*
X24554Y66891D01*
X24527Y66905D01*
X24499Y66915D01*
X24488Y66916D01*
Y68225D01*
X24498Y68236D01*
X24592Y68390D01*
X24660Y68556D01*
X24702Y68731D01*
X24713Y68910D01*
X24702Y69089D01*
X24660Y69264D01*
X24592Y69431D01*
X24498Y69584D01*
X24488Y69596D01*
Y70470D01*
X26534D01*
Y69972D01*
X26464Y70001D01*
X26289Y70043D01*
X26110Y70057D01*
X25931Y70043D01*
X25756Y70001D01*
X25589Y69932D01*
X25436Y69838D01*
X25299Y69721D01*
X25182Y69584D01*
X25088Y69431D01*
X25020Y69264D01*
X24978Y69089D01*
X24963Y68910D01*
X24978Y68731D01*
X25020Y68556D01*
X25088Y68390D01*
X25182Y68236D01*
X25299Y68099D01*
X25436Y67983D01*
X25589Y67889D01*
X25756Y67820D01*
X25931Y67778D01*
X26110Y67764D01*
X26289Y67778D01*
X26464Y67820D01*
X26534Y67848D01*
Y67432D01*
X26464Y67461D01*
X26289Y67503D01*
X26110Y67517D01*
X25931Y67503D01*
X25756Y67461D01*
X25589Y67392D01*
X25436Y67298D01*
X25299Y67181D01*
X25182Y67044D01*
X25088Y66891D01*
X25020Y66724D01*
X24978Y66549D01*
X24963Y66370D01*
X24978Y66191D01*
X25020Y66016D01*
X25088Y65850D01*
X25182Y65696D01*
X25299Y65559D01*
X25436Y65443D01*
X25589Y65349D01*
X25756Y65280D01*
X25783Y65273D01*
Y62916D01*
X24598Y61730D01*
X24588Y61722D01*
X24555Y61683D01*
X24528Y61639D01*
X24508Y61591D01*
X24496Y61541D01*
X24496Y61541D01*
X24492Y61490D01*
X24493Y61477D01*
Y55293D01*
X24492Y55280D01*
X24496Y55229D01*
X24508Y55179D01*
X24508Y55179D01*
X24524Y55141D01*
X24528Y55131D01*
X24528Y55131D01*
X24534Y55121D01*
X24555Y55087D01*
X24555Y55087D01*
X24555Y55087D01*
X24588Y55048D01*
X24598Y55040D01*
X25585Y54053D01*
X25593Y54043D01*
X25632Y54010D01*
X25632Y54010D01*
X25676Y53983D01*
X25676D01*
X25676Y53983D01*
X25704Y53971D01*
X25724Y53963D01*
X25724D01*
X25724Y53963D01*
X25745Y53958D01*
X25774Y53951D01*
X25825Y53947D01*
X25838Y53948D01*
X26534D01*
Y50197D01*
X25413D01*
X25397Y50224D01*
X25336Y50296D01*
X25264Y50357D01*
X25183Y50406D01*
X25096Y50442D01*
X25004Y50465D01*
X24910Y50472D01*
X24816Y50465D01*
X24724Y50442D01*
X24637Y50406D01*
X24556Y50357D01*
X24488Y50298D01*
Y62525D01*
G37*
G36*
X26534Y48687D02*X24488D01*
Y49442D01*
X24556Y49383D01*
X24637Y49334D01*
X24724Y49298D01*
X24816Y49276D01*
X24910Y49268D01*
X25004Y49276D01*
X25096Y49298D01*
X25183Y49334D01*
X25264Y49383D01*
X25336Y49445D01*
X25397Y49516D01*
X25413Y49543D01*
X26534D01*
Y48687D01*
G37*
G36*
X24488Y69596D02*X24381Y69721D01*
X24244Y69838D01*
X24091Y69932D01*
X23924Y70001D01*
X23749Y70043D01*
X23570Y70057D01*
Y70470D01*
X24488D01*
Y69596D01*
G37*
G36*
Y63773D02*X24447Y63756D01*
X24366Y63707D01*
X24294Y63646D01*
X24233Y63574D01*
X24184Y63493D01*
X24148Y63406D01*
X24126Y63314D01*
X24118Y63220D01*
X24126Y63126D01*
X24133Y63095D01*
X23570Y62533D01*
Y65226D01*
X23680Y65231D01*
X23789Y65247D01*
X23896Y65273D01*
X24000Y65310D01*
X24027Y65323D01*
X24052Y65341D01*
X24073Y65362D01*
X24091Y65386D01*
X24105Y65413D01*
X24114Y65441D01*
X24119Y65471D01*
X24120Y65501D01*
X24115Y65531D01*
X24106Y65560D01*
X24092Y65587D01*
X24075Y65611D01*
X24054Y65633D01*
X24030Y65650D01*
X24003Y65664D01*
X23974Y65674D01*
X23945Y65679D01*
X23914Y65679D01*
X23885Y65674D01*
X23856Y65665D01*
X23787Y65640D01*
X23716Y65622D01*
X23643Y65612D01*
X23570Y65608D01*
Y67132D01*
X23643Y67129D01*
X23716Y67118D01*
X23787Y67100D01*
X23856Y67076D01*
X23885Y67067D01*
X23914Y67062D01*
X23944Y67062D01*
X23974Y67067D01*
X24002Y67077D01*
X24029Y67091D01*
X24053Y67108D01*
X24074Y67130D01*
X24092Y67154D01*
X24105Y67181D01*
X24114Y67209D01*
X24119Y67239D01*
X24118Y67269D01*
X24114Y67299D01*
X24104Y67327D01*
X24090Y67354D01*
X24072Y67378D01*
X24051Y67399D01*
X24027Y67416D01*
X24000Y67429D01*
X23896Y67467D01*
X23789Y67493D01*
X23680Y67509D01*
X23570Y67514D01*
Y67764D01*
X23749Y67778D01*
X23924Y67820D01*
X24091Y67889D01*
X24244Y67983D01*
X24381Y68099D01*
X24488Y68225D01*
Y66916D01*
X24469Y66919D01*
X24439Y66920D01*
X24409Y66915D01*
X24380Y66906D01*
X24354Y66893D01*
X24329Y66875D01*
X24308Y66854D01*
X24290Y66830D01*
X24276Y66803D01*
X24266Y66774D01*
X24261Y66745D01*
X24261Y66715D01*
X24266Y66685D01*
X24275Y66656D01*
X24300Y66587D01*
X24318Y66516D01*
X24328Y66443D01*
X24332Y66370D01*
X24328Y66297D01*
X24318Y66224D01*
X24300Y66153D01*
X24276Y66084D01*
X24267Y66055D01*
X24262Y66026D01*
X24262Y65996D01*
X24267Y65966D01*
X24277Y65938D01*
X24290Y65911D01*
X24308Y65887D01*
X24330Y65866D01*
X24354Y65848D01*
X24381Y65835D01*
X24409Y65826D01*
X24439Y65821D01*
X24469Y65822D01*
X24488Y65825D01*
Y63773D01*
G37*
G36*
Y48687D02*X24355D01*
X23857Y49186D01*
Y61895D01*
X24488Y62525D01*
Y50298D01*
X24484Y50296D01*
X24423Y50224D01*
X24374Y50143D01*
X24338Y50056D01*
X24316Y49964D01*
X24308Y49870D01*
X24316Y49776D01*
X24338Y49684D01*
X24374Y49597D01*
X24423Y49516D01*
X24484Y49445D01*
X24488Y49442D01*
Y48687D01*
G37*
G36*
X23570Y70057D02*X23570Y70057D01*
X23391Y70043D01*
X23216Y70001D01*
X23049Y69932D01*
X22896Y69838D01*
X22759Y69721D01*
X22642Y69584D01*
X22548Y69431D01*
X22480Y69264D01*
X22438Y69089D01*
X22423Y68910D01*
X22438Y68731D01*
X22480Y68556D01*
X22548Y68390D01*
X22563Y68366D01*
X22058Y67860D01*
X22048Y67852D01*
X22015Y67813D01*
X21988Y67769D01*
X21968Y67721D01*
X21956Y67671D01*
X21956Y67671D01*
X21952Y67620D01*
X21953Y67607D01*
Y67049D01*
X21841Y67181D01*
X21704Y67298D01*
X21551Y67392D01*
X21384Y67461D01*
X21209Y67503D01*
X21030Y67517D01*
X20851Y67503D01*
X20676Y67461D01*
X20509Y67392D01*
X20356Y67298D01*
X20219Y67181D01*
X20102Y67044D01*
X20097Y67035D01*
Y67515D01*
X20486Y67903D01*
X20509Y67889D01*
X20676Y67820D01*
X20851Y67778D01*
X21030Y67764D01*
X21209Y67778D01*
X21384Y67820D01*
X21551Y67889D01*
X21704Y67983D01*
X21841Y68099D01*
X21958Y68236D01*
X22052Y68390D01*
X22120Y68556D01*
X22162Y68731D01*
X22173Y68910D01*
X22162Y69089D01*
X22120Y69264D01*
X22052Y69431D01*
X21958Y69584D01*
X21841Y69721D01*
X21704Y69838D01*
X21551Y69932D01*
X21384Y70001D01*
X21209Y70043D01*
X21030Y70057D01*
X20851Y70043D01*
X20676Y70001D01*
X20509Y69932D01*
X20356Y69838D01*
X20219Y69721D01*
X20102Y69584D01*
X20008Y69431D01*
X19940Y69264D01*
X19898Y69089D01*
X19883Y68910D01*
X19898Y68731D01*
X19940Y68556D01*
X20008Y68390D01*
X20023Y68366D01*
X19548Y67890D01*
X19538Y67882D01*
X19505Y67843D01*
X19478Y67799D01*
X19458Y67751D01*
X19446Y67701D01*
X19446Y67701D01*
X19442Y67650D01*
X19443Y67637D01*
Y67002D01*
X19418Y67044D01*
X19408Y67056D01*
Y68365D01*
X19419Y68367D01*
X19447Y68376D01*
X19474Y68390D01*
X19498Y68408D01*
X19519Y68429D01*
X19536Y68453D01*
X19549Y68480D01*
X19587Y68584D01*
X19613Y68691D01*
X19629Y68800D01*
X19634Y68910D01*
X19629Y69020D01*
X19613Y69129D01*
X19587Y69236D01*
X19550Y69340D01*
X19537Y69367D01*
X19520Y69392D01*
X19498Y69413D01*
X19474Y69431D01*
X19447Y69445D01*
X19419Y69455D01*
X19408Y69456D01*
Y70470D01*
X23570D01*
Y70057D01*
G37*
G36*
X22068Y60793D02*X22103Y60736D01*
X22164Y60665D01*
X22236Y60603D01*
X22317Y60554D01*
X22404Y60518D01*
X22496Y60496D01*
X22590Y60488D01*
X22684Y60496D01*
X22715Y60503D01*
X22723Y60495D01*
Y47593D01*
X22722Y47580D01*
X22726Y47529D01*
Y47529D01*
X22738Y47479D01*
X22758Y47431D01*
X22785Y47387D01*
X22818Y47348D01*
X22828Y47340D01*
X23190Y46978D01*
X23198Y46968D01*
X23237Y46935D01*
X23281Y46908D01*
X23329Y46888D01*
X23379Y46876D01*
X23379D01*
X23430Y46872D01*
X23443Y46873D01*
X23570D01*
Y44777D01*
X23520Y44654D01*
X23478Y44479D01*
X23463Y44300D01*
X23478Y44121D01*
X23520Y43946D01*
X23570Y43823D01*
Y40897D01*
X22068D01*
Y43154D01*
X22070Y43154D01*
X22249Y43168D01*
X22424Y43210D01*
X22591Y43279D01*
X22744Y43373D01*
X22881Y43489D01*
X22998Y43626D01*
X23092Y43780D01*
X23160Y43946D01*
X23202Y44121D01*
X23213Y44300D01*
X23202Y44479D01*
X23160Y44654D01*
X23092Y44821D01*
X22998Y44974D01*
X22881Y45111D01*
X22744Y45228D01*
X22591Y45322D01*
X22424Y45391D01*
X22249Y45433D01*
X22070Y45447D01*
X22068Y45446D01*
Y60793D01*
G37*
G36*
X23570Y62533D02*X23308Y62270D01*
X23298Y62262D01*
X23265Y62223D01*
X23238Y62179D01*
X23218Y62131D01*
X23206Y62081D01*
X23206Y62081D01*
X23202Y62030D01*
X23203Y62017D01*
Y60940D01*
X23177Y60965D01*
X23184Y60996D01*
X23190Y61090D01*
X23184Y61184D01*
X23162Y61276D01*
X23126Y61363D01*
X23077Y61444D01*
X23016Y61516D01*
X22944Y61577D01*
X22863Y61626D01*
X22776Y61662D01*
X22684Y61685D01*
X22590Y61692D01*
X22496Y61685D01*
X22404Y61662D01*
X22317Y61626D01*
X22236Y61577D01*
X22164Y61516D01*
X22103Y61444D01*
X22068Y61387D01*
Y64649D01*
X22451Y65031D01*
X22473Y65045D01*
X22512Y65078D01*
X22545Y65117D01*
X22572Y65161D01*
X22592Y65209D01*
X22604Y65259D01*
X22607Y65310D01*
Y65838D01*
X22613Y65835D01*
X22641Y65826D01*
X22671Y65821D01*
X22701Y65821D01*
X22731Y65825D01*
X22760Y65834D01*
X22786Y65848D01*
X22811Y65865D01*
X22832Y65886D01*
X22850Y65911D01*
X22864Y65937D01*
X22874Y65966D01*
X22879Y65996D01*
X22879Y66026D01*
X22874Y66055D01*
X22865Y66084D01*
X22840Y66153D01*
X22822Y66224D01*
X22812Y66297D01*
X22808Y66370D01*
X22812Y66443D01*
X22822Y66516D01*
X22840Y66587D01*
X22864Y66657D01*
X22873Y66685D01*
X22878Y66715D01*
X22878Y66745D01*
X22873Y66774D01*
X22863Y66803D01*
X22850Y66829D01*
X22832Y66853D01*
X22810Y66874D01*
X22786Y66892D01*
X22759Y66905D01*
X22731Y66914D01*
X22701Y66919D01*
X22671Y66919D01*
X22641Y66914D01*
X22613Y66904D01*
X22607Y66901D01*
Y67485D01*
X23026Y67903D01*
X23049Y67889D01*
X23216Y67820D01*
X23391Y67778D01*
X23570Y67764D01*
X23570Y67764D01*
Y67514D01*
X23570Y67514D01*
X23460Y67509D01*
X23351Y67493D01*
X23244Y67467D01*
X23140Y67430D01*
X23113Y67417D01*
X23088Y67400D01*
X23067Y67378D01*
X23049Y67354D01*
X23035Y67327D01*
X23026Y67299D01*
X23021Y67269D01*
X23020Y67239D01*
X23025Y67209D01*
X23034Y67181D01*
X23048Y67154D01*
X23065Y67129D01*
X23086Y67108D01*
X23110Y67090D01*
X23137Y67076D01*
X23166Y67066D01*
X23195Y67061D01*
X23226Y67061D01*
X23255Y67066D01*
X23284Y67075D01*
X23353Y67100D01*
X23424Y67118D01*
X23497Y67129D01*
X23570Y67132D01*
X23570Y67132D01*
Y65608D01*
X23570Y65608D01*
X23497Y65612D01*
X23424Y65622D01*
X23353Y65640D01*
X23284Y65664D01*
X23255Y65674D01*
X23226Y65678D01*
X23196Y65678D01*
X23166Y65673D01*
X23138Y65663D01*
X23111Y65650D01*
X23087Y65632D01*
X23066Y65611D01*
X23048Y65586D01*
X23035Y65559D01*
X23026Y65531D01*
X23021Y65501D01*
X23022Y65471D01*
X23026Y65442D01*
X23036Y65413D01*
X23050Y65386D01*
X23068Y65362D01*
X23089Y65341D01*
X23113Y65324D01*
X23140Y65311D01*
X23244Y65273D01*
X23351Y65247D01*
X23460Y65231D01*
X23570Y65226D01*
X23570Y65226D01*
Y62533D01*
G37*
G36*
X22068Y61387D02*X22054Y61363D01*
X22018Y61276D01*
X21996Y61184D01*
X21988Y61090D01*
X21996Y60996D01*
X22018Y60904D01*
X22054Y60817D01*
X22068Y60793D01*
Y45446D01*
X21891Y45433D01*
X21716Y45391D01*
X21549Y45322D01*
X21396Y45228D01*
X21259Y45111D01*
X21142Y44974D01*
X21048Y44821D01*
X20980Y44654D01*
X20938Y44479D01*
X20923Y44300D01*
X20938Y44121D01*
X20980Y43946D01*
X21048Y43780D01*
X21142Y43626D01*
X21259Y43489D01*
X21396Y43373D01*
X21549Y43279D01*
X21716Y43210D01*
X21891Y43168D01*
X22068Y43154D01*
Y40897D01*
X20050D01*
X20016Y40895D01*
X19408D01*
Y43159D01*
X20352Y43161D01*
X20410Y43175D01*
X20466Y43198D01*
X20517Y43229D01*
X20562Y43268D01*
X20601Y43313D01*
X20633Y43365D01*
X20655Y43420D01*
X20669Y43478D01*
X20673Y43538D01*
X20669Y45122D01*
X20655Y45180D01*
X20633Y45236D01*
X20601Y45287D01*
X20562Y45332D01*
X20517Y45371D01*
X20466Y45403D01*
X20410Y45426D01*
X20352Y45440D01*
X20292Y45443D01*
X19408Y45441D01*
Y45614D01*
X19412Y45616D01*
X19451Y45650D01*
X19459Y45659D01*
X21591Y47791D01*
X21601Y47800D01*
X21634Y47838D01*
X21634Y47838D01*
X21660Y47882D01*
X21680Y47929D01*
X21692Y47979D01*
X21696Y48030D01*
X21695Y48043D01*
Y64275D01*
X22068Y64649D01*
Y61387D01*
G37*
G36*
X19408Y67056D02*X19301Y67181D01*
X19164Y67298D01*
X19011Y67392D01*
X18844Y67461D01*
X18669Y67503D01*
X18490Y67517D01*
Y67766D01*
X18600Y67771D01*
X18709Y67787D01*
X18816Y67813D01*
X18920Y67850D01*
X18947Y67863D01*
X18972Y67881D01*
X18993Y67902D01*
X19011Y67926D01*
X19025Y67953D01*
X19034Y67981D01*
X19039Y68011D01*
X19040Y68041D01*
X19035Y68071D01*
X19026Y68100D01*
X19012Y68127D01*
X18995Y68151D01*
X18974Y68173D01*
X18950Y68190D01*
X18923Y68204D01*
X18894Y68214D01*
X18865Y68219D01*
X18834Y68219D01*
X18805Y68214D01*
X18776Y68205D01*
X18707Y68180D01*
X18636Y68162D01*
X18563Y68152D01*
X18490Y68148D01*
Y69672D01*
X18563Y69669D01*
X18636Y69658D01*
X18707Y69640D01*
X18776Y69616D01*
X18805Y69607D01*
X18834Y69602D01*
X18864Y69602D01*
X18894Y69607D01*
X18922Y69617D01*
X18949Y69631D01*
X18973Y69648D01*
X18994Y69670D01*
X19012Y69694D01*
X19025Y69721D01*
X19034Y69749D01*
X19039Y69779D01*
X19038Y69809D01*
X19034Y69839D01*
X19024Y69867D01*
X19010Y69894D01*
X18992Y69918D01*
X18971Y69939D01*
X18947Y69956D01*
X18920Y69969D01*
X18816Y70007D01*
X18709Y70033D01*
X18600Y70049D01*
X18490Y70054D01*
Y70470D01*
X19408D01*
Y69456D01*
X19389Y69459D01*
X19359Y69460D01*
X19329Y69455D01*
X19300Y69446D01*
X19274Y69433D01*
X19249Y69415D01*
X19228Y69394D01*
X19210Y69370D01*
X19196Y69343D01*
X19186Y69314D01*
X19181Y69285D01*
X19181Y69255D01*
X19186Y69225D01*
X19195Y69196D01*
X19220Y69127D01*
X19238Y69056D01*
X19248Y68983D01*
X19252Y68910D01*
X19248Y68837D01*
X19238Y68764D01*
X19220Y68693D01*
X19196Y68624D01*
X19187Y68595D01*
X19182Y68566D01*
X19182Y68536D01*
X19187Y68506D01*
X19197Y68478D01*
X19210Y68451D01*
X19228Y68427D01*
X19250Y68406D01*
X19274Y68388D01*
X19301Y68375D01*
X19329Y68366D01*
X19359Y68361D01*
X19389Y68362D01*
X19408Y68365D01*
Y67056D01*
G37*
G36*
Y45441D02*X18708Y45440D01*
X18650Y45426D01*
X18594Y45403D01*
X18588Y45399D01*
X18745Y45555D01*
X19207D01*
X19220Y45554D01*
X19271Y45558D01*
X19271Y45558D01*
X19321Y45570D01*
X19368Y45590D01*
X19408Y45614D01*
Y45441D01*
G37*
G36*
Y40895D02*X18553D01*
X18540Y40896D01*
X18490Y40892D01*
Y43276D01*
X18498Y43268D01*
X18543Y43229D01*
X18594Y43198D01*
X18650Y43175D01*
X18708Y43161D01*
X18768Y43157D01*
X19408Y43159D01*
Y40895D01*
G37*
G36*
X17572Y36473D02*X17625Y36451D01*
X17781Y36414D01*
X17940Y36401D01*
X18099Y36414D01*
X18255Y36451D01*
X18403Y36512D01*
X18490Y36566D01*
Y30720D01*
X18094Y31157D01*
X17572Y31831D01*
Y36473D01*
G37*
G36*
Y52729D02*X17748Y52743D01*
X17923Y52785D01*
X18089Y52854D01*
X18242Y52948D01*
X18379Y53064D01*
X18490Y53195D01*
Y51881D01*
X18467Y51884D01*
X18437Y51885D01*
X18408Y51880D01*
X18379Y51871D01*
X18352Y51858D01*
X18327Y51840D01*
X18306Y51819D01*
X18288Y51795D01*
X18274Y51768D01*
X18265Y51739D01*
X18260Y51710D01*
X18260Y51680D01*
X18264Y51650D01*
X18274Y51621D01*
X18299Y51552D01*
X18316Y51481D01*
X18327Y51408D01*
X18330Y51335D01*
X18327Y51262D01*
X18316Y51189D01*
X18299Y51118D01*
X18275Y51049D01*
X18265Y51020D01*
X18260Y50991D01*
X18261Y50961D01*
X18266Y50931D01*
X18275Y50903D01*
X18289Y50876D01*
X18307Y50852D01*
X18328Y50831D01*
X18352Y50813D01*
X18379Y50800D01*
X18408Y50791D01*
X18437Y50786D01*
X18467Y50787D01*
X18490Y50790D01*
Y49341D01*
X18467Y49344D01*
X18437Y49345D01*
X18408Y49340D01*
X18379Y49331D01*
X18352Y49318D01*
X18327Y49300D01*
X18306Y49279D01*
X18288Y49255D01*
X18274Y49228D01*
X18265Y49199D01*
X18260Y49170D01*
X18260Y49140D01*
X18264Y49110D01*
X18274Y49081D01*
X18299Y49012D01*
X18316Y48941D01*
X18327Y48868D01*
X18330Y48795D01*
X18327Y48722D01*
X18316Y48649D01*
X18299Y48578D01*
X18275Y48509D01*
X18265Y48480D01*
X18260Y48451D01*
X18261Y48421D01*
X18266Y48391D01*
X18275Y48363D01*
X18289Y48336D01*
X18307Y48312D01*
X18328Y48291D01*
X18352Y48273D01*
X18379Y48260D01*
X18408Y48251D01*
X18437Y48246D01*
X18467Y48247D01*
X18490Y48250D01*
Y46863D01*
X17572Y45945D01*
Y47651D01*
X17678Y47656D01*
X17788Y47672D01*
X17895Y47698D01*
X17999Y47735D01*
X18026Y47748D01*
X18050Y47766D01*
X18072Y47787D01*
X18089Y47811D01*
X18103Y47838D01*
X18113Y47866D01*
X18118Y47896D01*
X18118Y47926D01*
X18113Y47956D01*
X18104Y47985D01*
X18091Y48012D01*
X18073Y48036D01*
X18052Y48058D01*
X18028Y48075D01*
X18001Y48089D01*
X17973Y48099D01*
X17943Y48104D01*
X17913Y48104D01*
X17883Y48099D01*
X17855Y48090D01*
X17786Y48065D01*
X17714Y48047D01*
X17642Y48037D01*
X17572Y48033D01*
Y49557D01*
X17642Y49554D01*
X17714Y49543D01*
X17786Y49525D01*
X17855Y49501D01*
X17883Y49492D01*
X17913Y49487D01*
X17943Y49487D01*
X17972Y49492D01*
X18001Y49502D01*
X18028Y49516D01*
X18052Y49533D01*
X18073Y49555D01*
X18090Y49579D01*
X18104Y49606D01*
X18113Y49634D01*
X18117Y49664D01*
X18117Y49694D01*
X18112Y49724D01*
X18102Y49752D01*
X18089Y49779D01*
X18071Y49803D01*
X18050Y49824D01*
X18025Y49841D01*
X17998Y49854D01*
X17895Y49892D01*
X17788Y49918D01*
X17678Y49934D01*
X17572Y49939D01*
Y50191D01*
X17678Y50196D01*
X17788Y50212D01*
X17895Y50238D01*
X17999Y50275D01*
X18026Y50288D01*
X18050Y50306D01*
X18072Y50327D01*
X18089Y50351D01*
X18103Y50378D01*
X18113Y50406D01*
X18118Y50436D01*
X18118Y50466D01*
X18113Y50496D01*
X18104Y50525D01*
X18091Y50552D01*
X18073Y50576D01*
X18052Y50598D01*
X18028Y50615D01*
X18001Y50629D01*
X17973Y50639D01*
X17943Y50644D01*
X17913Y50644D01*
X17883Y50639D01*
X17855Y50630D01*
X17786Y50605D01*
X17714Y50587D01*
X17642Y50577D01*
X17572Y50573D01*
Y52097D01*
X17642Y52094D01*
X17714Y52083D01*
X17786Y52065D01*
X17855Y52041D01*
X17883Y52032D01*
X17913Y52027D01*
X17943Y52027D01*
X17972Y52032D01*
X18001Y52042D01*
X18028Y52056D01*
X18052Y52073D01*
X18073Y52095D01*
X18090Y52119D01*
X18104Y52146D01*
X18113Y52174D01*
X18117Y52204D01*
X18117Y52234D01*
X18112Y52264D01*
X18102Y52292D01*
X18089Y52319D01*
X18071Y52343D01*
X18050Y52364D01*
X18025Y52381D01*
X17998Y52394D01*
X17895Y52432D01*
X17788Y52458D01*
X17678Y52474D01*
X17572Y52479D01*
Y52729D01*
G37*
G36*
Y55274D02*X18390Y55276D01*
X18448Y55290D01*
X18490Y55307D01*
Y54555D01*
X18379Y54686D01*
X18242Y54803D01*
X18089Y54897D01*
X17923Y54966D01*
X17748Y55008D01*
X17572Y55021D01*
Y55274D01*
G37*
G36*
Y65685D02*X17679Y65559D01*
X17816Y65443D01*
X17969Y65349D01*
X18136Y65280D01*
X18311Y65238D01*
X18490Y65224D01*
X18490Y65224D01*
Y57523D01*
X18448Y57541D01*
X18390Y57555D01*
X18330Y57558D01*
X17572Y57556D01*
Y65685D01*
G37*
G36*
X18490Y67517D02*X18490Y67517D01*
X18311Y67503D01*
X18136Y67461D01*
X17969Y67392D01*
X17816Y67298D01*
X17679Y67181D01*
X17572Y67056D01*
Y68364D01*
X17591Y68361D01*
X17621Y68361D01*
X17651Y68365D01*
X17680Y68374D01*
X17706Y68388D01*
X17731Y68405D01*
X17752Y68426D01*
X17770Y68451D01*
X17784Y68477D01*
X17794Y68506D01*
X17799Y68536D01*
X17799Y68566D01*
X17794Y68595D01*
X17785Y68624D01*
X17760Y68693D01*
X17742Y68764D01*
X17732Y68837D01*
X17728Y68910D01*
X17732Y68983D01*
X17742Y69056D01*
X17760Y69127D01*
X17784Y69197D01*
X17793Y69225D01*
X17798Y69255D01*
X17798Y69285D01*
X17793Y69314D01*
X17783Y69343D01*
X17770Y69369D01*
X17752Y69393D01*
X17730Y69414D01*
X17706Y69432D01*
X17679Y69445D01*
X17651Y69454D01*
X17621Y69459D01*
X17591Y69459D01*
X17572Y69455D01*
Y70470D01*
X18490D01*
Y70054D01*
X18490Y70054D01*
X18380Y70049D01*
X18271Y70033D01*
X18164Y70007D01*
X18060Y69970D01*
X18033Y69957D01*
X18008Y69940D01*
X17987Y69918D01*
X17969Y69894D01*
X17955Y69867D01*
X17946Y69839D01*
X17941Y69809D01*
X17940Y69779D01*
X17945Y69749D01*
X17954Y69721D01*
X17968Y69694D01*
X17985Y69669D01*
X18006Y69648D01*
X18030Y69630D01*
X18057Y69616D01*
X18086Y69606D01*
X18115Y69601D01*
X18146Y69601D01*
X18175Y69606D01*
X18204Y69615D01*
X18273Y69640D01*
X18344Y69658D01*
X18417Y69669D01*
X18490Y69672D01*
X18490Y69672D01*
Y68148D01*
X18490Y68148D01*
X18417Y68152D01*
X18344Y68162D01*
X18273Y68180D01*
X18204Y68204D01*
X18175Y68214D01*
X18146Y68218D01*
X18116Y68218D01*
X18086Y68213D01*
X18058Y68203D01*
X18031Y68190D01*
X18007Y68172D01*
X17986Y68151D01*
X17968Y68126D01*
X17955Y68099D01*
X17946Y68071D01*
X17941Y68041D01*
X17942Y68011D01*
X17946Y67982D01*
X17956Y67953D01*
X17970Y67926D01*
X17988Y67902D01*
X18009Y67881D01*
X18033Y67864D01*
X18060Y67851D01*
X18164Y67813D01*
X18271Y67787D01*
X18380Y67771D01*
X18490Y67766D01*
X18490Y67766D01*
Y67517D01*
G37*
G36*
X16651Y38250D02*X17028Y37873D01*
X16971Y37735D01*
X16933Y37580D01*
X16921Y37420D01*
X16933Y37261D01*
X16971Y37105D01*
X17032Y36957D01*
X17116Y36821D01*
X17219Y36699D01*
X17341Y36596D01*
X17477Y36512D01*
X17572Y36473D01*
Y31831D01*
X16655Y33016D01*
X16651Y33022D01*
Y38250D01*
G37*
G36*
Y53190D02*X16758Y53064D01*
X16894Y52948D01*
X17048Y52854D01*
X17214Y52785D01*
X17389Y52743D01*
X17568Y52729D01*
X17572Y52729D01*
Y52479D01*
X17568Y52479D01*
X17458Y52474D01*
X17349Y52458D01*
X17242Y52432D01*
X17138Y52395D01*
X17111Y52382D01*
X17087Y52365D01*
X17065Y52343D01*
X17047Y52319D01*
X17034Y52292D01*
X17024Y52264D01*
X17019Y52234D01*
X17019Y52204D01*
X17023Y52174D01*
X17032Y52146D01*
X17046Y52119D01*
X17063Y52094D01*
X17085Y52073D01*
X17109Y52055D01*
X17136Y52041D01*
X17164Y52031D01*
X17194Y52026D01*
X17224Y52026D01*
X17254Y52031D01*
X17282Y52040D01*
X17351Y52065D01*
X17422Y52083D01*
X17495Y52094D01*
X17568Y52097D01*
X17572Y52097D01*
Y50573D01*
X17568Y50573D01*
X17495Y50577D01*
X17422Y50587D01*
X17351Y50605D01*
X17282Y50629D01*
X17254Y50639D01*
X17224Y50643D01*
X17194Y50643D01*
X17164Y50638D01*
X17136Y50628D01*
X17109Y50615D01*
X17085Y50597D01*
X17064Y50576D01*
X17047Y50551D01*
X17033Y50524D01*
X17024Y50496D01*
X17020Y50466D01*
X17020Y50436D01*
X17025Y50407D01*
X17034Y50378D01*
X17048Y50351D01*
X17066Y50327D01*
X17087Y50306D01*
X17112Y50289D01*
X17139Y50276D01*
X17242Y50238D01*
X17349Y50212D01*
X17458Y50196D01*
X17568Y50191D01*
X17572Y50191D01*
Y49939D01*
X17568Y49939D01*
X17458Y49934D01*
X17349Y49918D01*
X17242Y49892D01*
X17138Y49855D01*
X17111Y49842D01*
X17087Y49825D01*
X17065Y49803D01*
X17047Y49779D01*
X17034Y49752D01*
X17024Y49724D01*
X17019Y49694D01*
X17019Y49664D01*
X17023Y49634D01*
X17032Y49606D01*
X17046Y49579D01*
X17063Y49554D01*
X17085Y49533D01*
X17109Y49515D01*
X17136Y49501D01*
X17164Y49491D01*
X17194Y49486D01*
X17224Y49486D01*
X17254Y49491D01*
X17282Y49500D01*
X17351Y49525D01*
X17422Y49543D01*
X17495Y49554D01*
X17568Y49557D01*
X17572Y49557D01*
Y48033D01*
X17568Y48033D01*
X17495Y48037D01*
X17422Y48047D01*
X17351Y48065D01*
X17282Y48089D01*
X17254Y48099D01*
X17224Y48103D01*
X17194Y48103D01*
X17164Y48098D01*
X17136Y48088D01*
X17109Y48075D01*
X17085Y48057D01*
X17064Y48036D01*
X17047Y48011D01*
X17033Y47984D01*
X17024Y47956D01*
X17020Y47926D01*
X17020Y47896D01*
X17025Y47867D01*
X17034Y47838D01*
X17048Y47811D01*
X17066Y47787D01*
X17087Y47766D01*
X17112Y47749D01*
X17139Y47736D01*
X17242Y47698D01*
X17349Y47672D01*
X17458Y47656D01*
X17568Y47651D01*
X17572Y47651D01*
Y45945D01*
X17409Y45781D01*
X17386Y45756D01*
X16651Y45020D01*
Y48249D01*
X16669Y48246D01*
X16699Y48246D01*
X16729Y48250D01*
X16758Y48259D01*
X16785Y48273D01*
X16809Y48290D01*
X16831Y48311D01*
X16849Y48336D01*
X16863Y48362D01*
X16872Y48391D01*
X16877Y48421D01*
X16877Y48451D01*
X16873Y48480D01*
X16863Y48509D01*
X16838Y48578D01*
X16821Y48649D01*
X16810Y48722D01*
X16806Y48795D01*
X16810Y48868D01*
X16821Y48941D01*
X16838Y49012D01*
X16862Y49082D01*
X16872Y49110D01*
X16876Y49140D01*
X16876Y49170D01*
X16871Y49199D01*
X16862Y49228D01*
X16848Y49254D01*
X16830Y49278D01*
X16809Y49299D01*
X16784Y49317D01*
X16758Y49330D01*
X16729Y49339D01*
X16699Y49344D01*
X16669Y49344D01*
X16651Y49340D01*
Y50789D01*
X16669Y50786D01*
X16699Y50786D01*
X16729Y50790D01*
X16758Y50799D01*
X16785Y50813D01*
X16809Y50830D01*
X16831Y50851D01*
X16849Y50876D01*
X16863Y50902D01*
X16872Y50931D01*
X16877Y50961D01*
X16877Y50991D01*
X16873Y51020D01*
X16863Y51049D01*
X16838Y51118D01*
X16821Y51189D01*
X16810Y51262D01*
X16806Y51335D01*
X16810Y51408D01*
X16821Y51481D01*
X16838Y51552D01*
X16862Y51622D01*
X16872Y51650D01*
X16876Y51680D01*
X16876Y51710D01*
X16871Y51739D01*
X16862Y51768D01*
X16848Y51794D01*
X16830Y51818D01*
X16809Y51839D01*
X16784Y51857D01*
X16758Y51870D01*
X16729Y51879D01*
X16699Y51884D01*
X16669Y51884D01*
X16651Y51880D01*
Y53190D01*
G37*
G36*
Y55305D02*X16688Y55290D01*
X16747Y55276D01*
X16806Y55272D01*
X17572Y55274D01*
Y55021D01*
X17568Y55022D01*
X17389Y55008D01*
X17214Y54966D01*
X17048Y54897D01*
X16894Y54803D01*
X16758Y54686D01*
X16651Y54561D01*
Y55305D01*
G37*
G36*
X17572Y67056D02*X17562Y67044D01*
X17468Y66891D01*
X17400Y66724D01*
X17358Y66549D01*
X17343Y66370D01*
X17358Y66191D01*
X17400Y66016D01*
X17468Y65850D01*
X17562Y65696D01*
X17572Y65685D01*
Y57556D01*
X16747Y57555D01*
X16688Y57541D01*
X16651Y57525D01*
Y65465D01*
X16761Y65559D01*
X16878Y65696D01*
X16972Y65850D01*
X17040Y66016D01*
X17082Y66191D01*
X17093Y66370D01*
X17082Y66549D01*
X17040Y66724D01*
X16972Y66891D01*
X16878Y67044D01*
X16761Y67181D01*
X16651Y67275D01*
Y67950D01*
X17080D01*
Y68721D01*
X17082Y68731D01*
X17093Y68910D01*
X17082Y69089D01*
X17080Y69099D01*
Y70470D01*
X17572D01*
Y69455D01*
X17561Y69454D01*
X17533Y69444D01*
X17506Y69430D01*
X17482Y69413D01*
X17461Y69391D01*
X17444Y69367D01*
X17431Y69340D01*
X17393Y69236D01*
X17367Y69129D01*
X17351Y69020D01*
X17346Y68910D01*
X17351Y68800D01*
X17367Y68691D01*
X17393Y68584D01*
X17430Y68480D01*
X17443Y68453D01*
X17460Y68428D01*
X17482Y68407D01*
X17506Y68389D01*
X17533Y68375D01*
X17561Y68366D01*
X17572Y68364D01*
Y67056D01*
G37*
G36*
X16651Y67275D02*X16624Y67298D01*
X16471Y67392D01*
X16304Y67461D01*
X16129Y67503D01*
X15950Y67517D01*
X15948Y67516D01*
Y67764D01*
X15950Y67764D01*
X16129Y67778D01*
X16304Y67820D01*
X16471Y67889D01*
X16571Y67950D01*
X16651D01*
Y67275D01*
G37*
G36*
Y57525D02*X16633Y57518D01*
X16582Y57486D01*
X16536Y57447D01*
X16497Y57402D01*
X16466Y57351D01*
X16443Y57295D01*
X16429Y57237D01*
X16425Y57177D01*
X16429Y55593D01*
X16443Y55535D01*
X16466Y55480D01*
X16497Y55428D01*
X16536Y55383D01*
X16582Y55344D01*
X16633Y55313D01*
X16651Y55305D01*
Y54561D01*
X16641Y54549D01*
X16547Y54396D01*
X16478Y54229D01*
X16436Y54054D01*
X16422Y53875D01*
X16436Y53696D01*
X16478Y53521D01*
X16547Y53355D01*
X16641Y53201D01*
X16651Y53190D01*
Y51880D01*
X16640Y51879D01*
X16611Y51869D01*
X16585Y51855D01*
X16561Y51838D01*
X16540Y51816D01*
X16522Y51792D01*
X16509Y51765D01*
X16472Y51661D01*
X16445Y51554D01*
X16429Y51445D01*
X16424Y51335D01*
X16429Y51225D01*
X16445Y51116D01*
X16472Y51009D01*
X16508Y50905D01*
X16521Y50878D01*
X16539Y50853D01*
X16560Y50832D01*
X16584Y50814D01*
X16611Y50800D01*
X16640Y50791D01*
X16651Y50789D01*
Y49340D01*
X16640Y49339D01*
X16611Y49329D01*
X16585Y49315D01*
X16561Y49298D01*
X16540Y49276D01*
X16522Y49252D01*
X16509Y49225D01*
X16472Y49121D01*
X16445Y49014D01*
X16429Y48905D01*
X16424Y48795D01*
X16429Y48685D01*
X16445Y48576D01*
X16472Y48469D01*
X16508Y48365D01*
X16521Y48338D01*
X16539Y48313D01*
X16560Y48292D01*
X16584Y48274D01*
X16611Y48260D01*
X16640Y48251D01*
X16651Y48249D01*
Y45020D01*
X16519Y44889D01*
X16509Y44881D01*
X16476Y44842D01*
X16450Y44798D01*
X16430Y44751D01*
X16418Y44701D01*
X16418Y44701D01*
X16414Y44650D01*
X16415Y44637D01*
Y39560D01*
X16416Y39550D01*
X16415Y39540D01*
Y38633D01*
X16414Y38620D01*
X16418Y38569D01*
Y38569D01*
X16430Y38519D01*
X16450Y38472D01*
X16460Y38456D01*
X16476Y38428D01*
X16476Y38428D01*
X16509Y38390D01*
X16519Y38381D01*
X16651Y38250D01*
Y33022D01*
X15948Y34093D01*
Y65224D01*
X15950Y65224D01*
X16129Y65238D01*
X16304Y65280D01*
X16471Y65349D01*
X16624Y65443D01*
X16651Y65465D01*
Y57525D01*
G37*
G36*
X15948Y34093D02*X15366Y34982D01*
X14235Y37043D01*
X13294Y39131D01*
X13303Y39168D01*
X13306Y39208D01*
X13303Y39248D01*
X13293Y39286D01*
X12691Y41131D01*
X12670Y41165D01*
X12644Y41195D01*
X12614Y41221D01*
X12580Y41242D01*
X12543Y41257D01*
X12524Y41262D01*
X12475Y41398D01*
X11857Y43666D01*
X11418Y45976D01*
X11162Y48313D01*
X11091Y50662D01*
X11203Y53010D01*
X11343Y54104D01*
X11373Y54130D01*
X11400Y54159D01*
X11421Y54193D01*
X11437Y54230D01*
X11446Y54269D01*
X11781Y56179D01*
X11778Y56219D01*
X11770Y56258D01*
X11755Y56296D01*
X11735Y56330D01*
X11711Y56358D01*
X11979Y57644D01*
X12637Y59900D01*
X13469Y62099D01*
X13510Y62212D01*
X13529Y62330D01*
X13530Y62450D01*
X13513Y62568D01*
X13477Y62683D01*
X13423Y62790D01*
X13354Y62888D01*
X13269Y62973D01*
X13173Y63045D01*
X13067Y63100D01*
X13023Y63115D01*
X12392Y63746D01*
Y65326D01*
X12423Y65299D01*
X12474Y65268D01*
X12530Y65245D01*
X12588Y65231D01*
X12648Y65227D01*
X14232Y65231D01*
X14290Y65245D01*
X14346Y65268D01*
X14397Y65299D01*
X14442Y65338D01*
X14481Y65383D01*
X14513Y65435D01*
X14535Y65490D01*
X14549Y65548D01*
X14553Y65608D01*
X14549Y67192D01*
X14535Y67250D01*
X14513Y67306D01*
X14481Y67357D01*
X14442Y67402D01*
X14397Y67441D01*
X14346Y67473D01*
X14290Y67496D01*
X14232Y67510D01*
X14172Y67513D01*
X12588Y67510D01*
X12530Y67496D01*
X12501Y67484D01*
X12901Y67884D01*
X13056Y67820D01*
X13231Y67778D01*
X13410Y67764D01*
X13589Y67778D01*
X13764Y67820D01*
X13931Y67889D01*
X14031Y67950D01*
X15329D01*
X15429Y67889D01*
X15596Y67820D01*
X15771Y67778D01*
X15948Y67764D01*
Y67516D01*
X15771Y67503D01*
X15596Y67461D01*
X15429Y67392D01*
X15276Y67298D01*
X15139Y67181D01*
X15022Y67044D01*
X14928Y66891D01*
X14860Y66724D01*
X14818Y66549D01*
X14803Y66370D01*
X14818Y66191D01*
X14860Y66016D01*
X14928Y65850D01*
X15022Y65696D01*
X15139Y65559D01*
X15276Y65443D01*
X15429Y65349D01*
X15596Y65280D01*
X15771Y65238D01*
X15948Y65224D01*
Y34093D01*
G37*
G36*
X18490Y40892D02*X18489Y40892D01*
X18486Y40891D01*
X18443Y40918D01*
X18295Y40979D01*
X18139Y41017D01*
X17980Y41029D01*
X17821Y41017D01*
X17665Y40979D01*
X17563Y40937D01*
X17515Y40985D01*
Y44325D01*
X18431Y45242D01*
X18427Y45236D01*
X18405Y45180D01*
X18391Y45122D01*
X18387Y45062D01*
X18391Y43478D01*
X18405Y43420D01*
X18427Y43365D01*
X18459Y43313D01*
X18490Y43276D01*
Y40892D01*
G37*
G36*
X26534Y47527D02*X23565D01*
X23377Y47716D01*
Y48741D01*
X23980Y48138D01*
X23988Y48128D01*
X24027Y48095D01*
X24071Y48068D01*
X24119Y48048D01*
X24169Y48036D01*
X24169D01*
X24220Y48032D01*
X24233Y48033D01*
X26534D01*
Y47527D01*
G37*
G36*
X11270Y62713D02*X11848Y62134D01*
X11270Y60652D01*
Y62713D01*
G37*
G36*
Y70470D02*X12310D01*
Y69444D01*
X12260Y69401D01*
X12240Y69378D01*
X11270Y68408D01*
Y70470D01*
G37*
G36*
X14098Y84863D02*X15335Y84865D01*
X15320Y84856D01*
X15290Y84830D01*
X15264Y84800D01*
X15243Y84766D01*
X15228Y84729D01*
X15218Y84690D01*
X15216Y84650D01*
X15218Y83010D01*
X15228Y82971D01*
X15243Y82934D01*
X15264Y82900D01*
X15290Y82870D01*
X15320Y82844D01*
X15354Y82823D01*
X15391Y82808D01*
X15430Y82798D01*
X15470Y82796D01*
X18510Y82798D01*
X18549Y82808D01*
X18586Y82823D01*
X18620Y82844D01*
X18650Y82870D01*
X18676Y82900D01*
X18697Y82934D01*
X18712Y82971D01*
X18722Y83010D01*
X18724Y83050D01*
X18722Y84690D01*
X18712Y84729D01*
X18697Y84766D01*
X18676Y84800D01*
X18650Y84830D01*
X18620Y84856D01*
X18612Y84861D01*
X23735Y84853D01*
X24240Y85087D01*
X27482Y86357D01*
X31169Y87417D01*
X35045Y88081D01*
Y84874D01*
X34691D01*
X34691Y85178D01*
X34681Y85217D01*
X34666Y85254D01*
X34645Y85288D01*
X34619Y85319D01*
X34589Y85345D01*
X34555Y85365D01*
X34518Y85381D01*
X34479Y85390D01*
X34439Y85392D01*
X33099Y85390D01*
X33060Y85381D01*
X33023Y85365D01*
X32989Y85345D01*
X32959Y85319D01*
X32933Y85288D01*
X32912Y85254D01*
X32897Y85217D01*
X32887Y85178D01*
X32885Y85138D01*
X32887Y83199D01*
X32897Y83160D01*
X32912Y83123D01*
X32933Y83089D01*
X32959Y83058D01*
X32989Y83032D01*
X33023Y83012D01*
X33060Y82996D01*
X33099Y82987D01*
X33139Y82985D01*
X34479Y82987D01*
X34518Y82996D01*
X34555Y83012D01*
X34589Y83032D01*
X34619Y83058D01*
X34645Y83089D01*
X34666Y83123D01*
X34681Y83160D01*
X34691Y83199D01*
X34693Y83239D01*
X34692Y84220D01*
X35045D01*
Y81110D01*
X34212D01*
X34211Y82202D01*
X34202Y82241D01*
X34186Y82278D01*
X34165Y82312D01*
X34139Y82342D01*
X34109Y82368D01*
X34075Y82389D01*
X34038Y82404D01*
X33999Y82414D01*
X33959Y82416D01*
X31519Y82414D01*
X31480Y82404D01*
X31444Y82389D01*
X31409Y82368D01*
X31379Y82342D01*
X31353Y82312D01*
X31332Y82278D01*
X31317Y82241D01*
X31308Y82202D01*
X31305Y82162D01*
X31306Y81110D01*
X31260D01*
Y81100D01*
X29117D01*
Y82054D01*
X30060Y82997D01*
X30060Y82996D01*
X30099Y82987D01*
X30139Y82985D01*
X31479Y82987D01*
X31518Y82996D01*
X31555Y83012D01*
X31589Y83032D01*
X31619Y83058D01*
X31645Y83089D01*
X31666Y83123D01*
X31681Y83160D01*
X31691Y83199D01*
X31693Y83239D01*
X31691Y85178D01*
X31681Y85217D01*
X31666Y85254D01*
X31645Y85288D01*
X31619Y85319D01*
X31589Y85345D01*
X31555Y85365D01*
X31518Y85381D01*
X31479Y85390D01*
X31439Y85392D01*
X30099Y85390D01*
X30060Y85381D01*
X30023Y85365D01*
X29989Y85345D01*
X29959Y85319D01*
X29933Y85288D01*
X29912Y85254D01*
X29897Y85217D01*
X29887Y85178D01*
X29885Y85138D01*
X29887Y83749D01*
X28568Y82430D01*
X28558Y82421D01*
X28525Y82382D01*
X28498Y82338D01*
X28478Y82291D01*
X28466Y82241D01*
X28466Y82241D01*
X28462Y82189D01*
X28463Y82177D01*
Y81100D01*
X28112D01*
X28111Y82202D01*
X28102Y82241D01*
X28086Y82278D01*
X28065Y82312D01*
X28039Y82342D01*
X28009Y82368D01*
X27975Y82389D01*
X27938Y82404D01*
X27899Y82414D01*
X27859Y82416D01*
X25419Y82414D01*
X25380Y82404D01*
X25344Y82389D01*
X25309Y82368D01*
X25279Y82342D01*
X25253Y82312D01*
X25232Y82278D01*
X25217Y82241D01*
X25208Y82202D01*
X25205Y82162D01*
X25206Y81100D01*
X24400D01*
Y80790D01*
X24390Y80780D01*
Y80790D01*
X23597D01*
Y80837D01*
X23598Y80850D01*
X23594Y80901D01*
X23582Y80951D01*
X23562Y80999D01*
X23535Y81043D01*
X23502Y81082D01*
X23492Y81090D01*
X22930Y81652D01*
X22922Y81662D01*
X22883Y81695D01*
X22839Y81722D01*
X22791Y81742D01*
X22741Y81754D01*
X22690Y81758D01*
X22677Y81757D01*
X22222D01*
X22222Y81990D01*
X22212Y82029D01*
X22197Y82066D01*
X22176Y82100D01*
X22150Y82130D01*
X22120Y82156D01*
X22086Y82177D01*
X22049Y82192D01*
X22010Y82202D01*
X21970Y82204D01*
X16430Y82202D01*
X16391Y82192D01*
X16354Y82177D01*
X16320Y82156D01*
X16290Y82130D01*
X16264Y82100D01*
X16243Y82066D01*
X16228Y82029D01*
X16218Y81990D01*
X16216Y81950D01*
X16218Y80910D01*
X16228Y80871D01*
X16243Y80834D01*
X16264Y80800D01*
X16290Y80770D01*
X16320Y80744D01*
X16354Y80723D01*
X16391Y80708D01*
X16430Y80698D01*
X16470Y80696D01*
X20378Y80698D01*
X19883Y80203D01*
X16430Y80202D01*
X16391Y80192D01*
X16354Y80177D01*
X16320Y80156D01*
X16290Y80130D01*
X16264Y80100D01*
X16243Y80066D01*
X16228Y80029D01*
X16218Y79990D01*
X16216Y79950D01*
X16218Y78910D01*
X16228Y78871D01*
X16243Y78834D01*
X16264Y78800D01*
X16290Y78770D01*
X16320Y78744D01*
X16354Y78723D01*
X16391Y78708D01*
X16430Y78698D01*
X16470Y78696D01*
X18377Y78697D01*
X17783Y78104D01*
X15430Y78102D01*
X15391Y78092D01*
X15354Y78077D01*
X15320Y78056D01*
X15290Y78030D01*
X15264Y78000D01*
X15243Y77966D01*
X15228Y77929D01*
X15218Y77890D01*
X15216Y77850D01*
X15218Y76210D01*
X15228Y76171D01*
X15243Y76134D01*
X15264Y76100D01*
X15290Y76070D01*
X15320Y76044D01*
X15354Y76023D01*
X15391Y76008D01*
X15430Y75998D01*
X15470Y75996D01*
X15676Y75996D01*
X15171Y75491D01*
X15162Y75527D01*
X15147Y75564D01*
X15126Y75598D01*
X15100Y75628D01*
X15069Y75654D01*
X15035Y75675D01*
X14998Y75690D01*
X14959Y75700D01*
X14920Y75702D01*
X14098Y75701D01*
Y81241D01*
X14100Y81241D01*
X14259Y81254D01*
X14415Y81291D01*
X14563Y81352D01*
X14699Y81436D01*
X14821Y81539D01*
X14924Y81661D01*
X15008Y81797D01*
X15069Y81945D01*
X15107Y82101D01*
X15116Y82260D01*
X15107Y82420D01*
X15069Y82575D01*
X15008Y82723D01*
X14924Y82859D01*
X14821Y82981D01*
X14699Y83085D01*
X14563Y83168D01*
X14415Y83229D01*
X14259Y83267D01*
X14100Y83279D01*
X14098Y83279D01*
Y84863D01*
G37*
G36*
X11270Y84858D02*X14098Y84863D01*
Y83279D01*
X13941Y83267D01*
X13785Y83229D01*
X13637Y83168D01*
X13501Y83085D01*
X13379Y82981D01*
X13276Y82859D01*
X13192Y82723D01*
X13131Y82575D01*
X13093Y82420D01*
X13081Y82260D01*
X13093Y82101D01*
X13131Y81945D01*
X13192Y81797D01*
X13276Y81661D01*
X13379Y81539D01*
X13501Y81436D01*
X13637Y81352D01*
X13785Y81291D01*
X13941Y81254D01*
X14098Y81241D01*
Y75701D01*
X13580Y75700D01*
X13541Y75690D01*
X13504Y75675D01*
X13470Y75654D01*
X13439Y75628D01*
X13413Y75598D01*
X13393Y75564D01*
X13377Y75527D01*
X13368Y75488D01*
X13366Y75448D01*
X13368Y73688D01*
X11270Y71590D01*
Y73295D01*
X11960Y73296D01*
X11999Y73306D01*
X12035Y73321D01*
X12070Y73342D01*
X12100Y73368D01*
X12126Y73398D01*
X12147Y73432D01*
X12162Y73469D01*
X12171Y73508D01*
X12174Y73548D01*
X12171Y75488D01*
X12162Y75527D01*
X12147Y75564D01*
X12126Y75598D01*
X12100Y75628D01*
X12070Y75654D01*
X12035Y75675D01*
X11999Y75690D01*
X11960Y75700D01*
X11920Y75702D01*
X11270Y75701D01*
Y84858D01*
G37*
G36*
X35045Y12171D02*X34286Y12257D01*
X30168Y13071D01*
X27086Y14044D01*
X23710Y15446D01*
X18893Y15450D01*
Y23730D01*
X18956Y23668D01*
X18990Y23647D01*
X19027Y23632D01*
X19066Y23623D01*
X19105Y23620D01*
X19145Y23623D01*
X19184Y23632D01*
X19221Y23647D01*
X19255Y23668D01*
X19285Y23695D01*
X20231Y24644D01*
X20252Y24678D01*
X20267Y24715D01*
X20276Y24754D01*
X20280Y24794D01*
X20276Y24833D01*
X20267Y24872D01*
X20252Y24909D01*
X20231Y24943D01*
X20204Y24973D01*
X18893Y26281D01*
Y28028D01*
X19629Y27336D01*
X19632Y27299D01*
X19641Y27260D01*
X19656Y27223D01*
X19677Y27189D01*
X19704Y27159D01*
X21077Y25789D01*
X21111Y25769D01*
X21148Y25753D01*
X21187Y25744D01*
X21227Y25741D01*
X21267Y25744D01*
X21305Y25753D01*
X21342Y25769D01*
X21376Y25789D01*
X21401Y25811D01*
X22299Y25091D01*
X24342Y23699D01*
X26489Y22472D01*
X28143Y21692D01*
X28217Y21641D01*
X28326Y21592D01*
X28441Y21552D01*
X28725Y21418D01*
X28842Y21377D01*
X28963Y21357D01*
X28997Y21357D01*
X30658Y20775D01*
X33055Y20166D01*
X35045Y19824D01*
Y12171D01*
G37*
G36*
X18893Y15450D02*X11270Y15456D01*
Y39666D01*
X11588Y38690D01*
X11609Y38656D01*
X11635Y38626D01*
X11665Y38600D01*
X11699Y38579D01*
X11736Y38564D01*
X11775Y38555D01*
X11815Y38551D01*
X11855Y38555D01*
X11857Y38555D01*
X12849Y36352D01*
X14039Y34184D01*
X15394Y32117D01*
X16908Y30162D01*
X18570Y28332D01*
X18893Y28028D01*
Y26281D01*
X18831Y26343D01*
X18797Y26364D01*
X18760Y26379D01*
X18721Y26389D01*
X18681Y26392D01*
X18641Y26389D01*
X18603Y26379D01*
X18566Y26364D01*
X18532Y26343D01*
X18502Y26317D01*
X17556Y25368D01*
X17535Y25333D01*
X17520Y25297D01*
X17510Y25258D01*
X17507Y25218D01*
X17510Y25178D01*
X17520Y25139D01*
X17535Y25102D01*
X17556Y25068D01*
X17582Y25038D01*
X18893Y23730D01*
Y15450D01*
G37*
G36*
X9287Y84855D02*X11270Y84858D01*
Y75701D01*
X10580Y75700D01*
X10541Y75690D01*
X10504Y75675D01*
X10470Y75654D01*
X10440Y75628D01*
X10414Y75598D01*
X10393Y75564D01*
X10378Y75527D01*
X10368Y75488D01*
X10366Y75448D01*
X10368Y73508D01*
X10378Y73469D01*
X10393Y73432D01*
X10414Y73398D01*
X10440Y73368D01*
X10470Y73342D01*
X10504Y73321D01*
X10541Y73306D01*
X10580Y73296D01*
X10620Y73294D01*
X11270Y73295D01*
Y71590D01*
X10550Y70870D01*
Y70470D01*
X11270D01*
Y68408D01*
X11112Y68250D01*
X11090Y68231D01*
X11012Y68139D01*
X10949Y68037D01*
X10903Y67926D01*
X10875Y67810D01*
X10875Y67810D01*
X10866Y67690D01*
X10868Y67660D01*
Y67242D01*
X9287D01*
Y84855D01*
G37*
G36*
X11270Y15456D02*X9287Y15458D01*
Y37718D01*
X10314Y38054D01*
X10348Y38075D01*
X10378Y38101D01*
X10404Y38131D01*
X10425Y38165D01*
X10441Y38202D01*
X10450Y38241D01*
X10453Y38281D01*
X10450Y38321D01*
X10440Y38359D01*
X9838Y40204D01*
X9817Y40238D01*
X9791Y40268D01*
X9761Y40294D01*
X9727Y40315D01*
X9690Y40330D01*
X9651Y40339D01*
X9611Y40343D01*
X9571Y40339D01*
X9533Y40329D01*
X9287Y40249D01*
Y66099D01*
X10868D01*
Y63460D01*
X10866Y63430D01*
X10875Y63311D01*
Y63311D01*
X10880Y63288D01*
X10903Y63194D01*
X10949Y63083D01*
X11012Y62981D01*
X11012Y62981D01*
X11090Y62890D01*
X11112Y62870D01*
X11270Y62713D01*
Y60652D01*
X11168Y60392D01*
X10477Y58018D01*
X10194Y56658D01*
X10171Y56653D01*
X10134Y56639D01*
X10100Y56618D01*
X10069Y56593D01*
X10042Y56563D01*
X10021Y56529D01*
X10005Y56493D01*
X9996Y56454D01*
X9661Y54543D01*
X9664Y54503D01*
X9672Y54464D01*
X9687Y54427D01*
X9707Y54392D01*
X9733Y54362D01*
X9763Y54335D01*
X9796Y54314D01*
X9809Y54308D01*
X9661Y53145D01*
X9542Y50676D01*
X9618Y48205D01*
X9887Y45747D01*
X10348Y43318D01*
X10999Y40933D01*
X11048Y40794D01*
X11048Y40793D01*
X11022Y40763D01*
X11001Y40729D01*
X10986Y40692D01*
X10976Y40653D01*
X10973Y40613D01*
X10976Y40573D01*
X10986Y40535D01*
X11270Y39666D01*
Y15456D01*
G37*
G36*
X9287Y15458D02*X8498Y15458D01*
X7767Y15622D01*
Y54661D01*
X8238Y54579D01*
X8277Y54581D01*
X8317Y54590D01*
X8354Y54605D01*
X8388Y54625D01*
X8419Y54650D01*
X8446Y54680D01*
X8467Y54714D01*
X8483Y54751D01*
X8492Y54790D01*
X8827Y56700D01*
X8824Y56740D01*
X8816Y56779D01*
X8801Y56817D01*
X8781Y56851D01*
X8755Y56882D01*
X8725Y56908D01*
X8692Y56930D01*
X8655Y56946D01*
X8616Y56955D01*
X7767Y57103D01*
Y84729D01*
X8126Y84853D01*
X9287Y84855D01*
Y67242D01*
X9198D01*
X9196Y67242D01*
X9104Y67265D01*
X9010Y67272D01*
X8916Y67265D01*
X8824Y67242D01*
X8737Y67206D01*
X8656Y67157D01*
X8584Y67096D01*
X8523Y67024D01*
X8474Y66943D01*
X8438Y66856D01*
X8416Y66764D01*
X8408Y66670D01*
X8416Y66576D01*
X8438Y66484D01*
X8474Y66397D01*
X8523Y66316D01*
X8584Y66245D01*
X8656Y66183D01*
X8737Y66134D01*
X8824Y66098D01*
X8916Y66076D01*
X9010Y66068D01*
X9104Y66076D01*
X9196Y66098D01*
X9198Y66099D01*
X9287D01*
Y40249D01*
X8259Y39913D01*
X8225Y39892D01*
X8195Y39866D01*
X8169Y39836D01*
X8148Y39802D01*
X8133Y39765D01*
X8123Y39726D01*
X8120Y39686D01*
X8123Y39646D01*
X8133Y39608D01*
X8735Y37764D01*
X8756Y37729D01*
X8782Y37699D01*
X8812Y37673D01*
X8846Y37652D01*
X8883Y37637D01*
X8922Y37628D01*
X8962Y37624D01*
X9002Y37628D01*
X9040Y37638D01*
X9287Y37718D01*
Y15458D01*
G37*
G36*
X7767Y15622D02*X7311Y15723D01*
X6647Y16136D01*
X5909Y16868D01*
X5499Y17676D01*
X5284Y18578D01*
X5287Y33964D01*
X4517Y35567D01*
X2939Y40260D01*
X2295Y43106D01*
X1973Y45094D01*
X1708Y47691D01*
X1614Y50014D01*
X1664Y51605D01*
X1929Y55097D01*
X2207Y56947D01*
X2819Y59648D01*
X3709Y62634D01*
X4429Y64578D01*
X5275Y66404D01*
Y76243D01*
X5322Y81273D01*
Y82023D01*
X5649Y82998D01*
X6290Y83879D01*
X7165Y84520D01*
X7767Y84729D01*
Y57103D01*
X7296Y57185D01*
X7256Y57183D01*
X7217Y57174D01*
X7180Y57160D01*
X7146Y57139D01*
X7115Y57114D01*
X7088Y57084D01*
X7067Y57050D01*
X7051Y57014D01*
X7042Y56975D01*
X6707Y55064D01*
X6710Y55024D01*
X6718Y54985D01*
X6733Y54948D01*
X6753Y54913D01*
X6779Y54882D01*
X6808Y54856D01*
X6842Y54835D01*
X6879Y54819D01*
X6918Y54809D01*
X7767Y54661D01*
Y15622D01*
G37*
G36*
X66270Y85893D02*Y88450D01*
X70350D01*
Y86080D01*
X70230D01*
X70240Y84470D01*
X70350D01*
Y82880D01*
X68823D01*
X68822Y83030D01*
X68813Y83069D01*
X68804Y83090D01*
X68813Y83112D01*
X68822Y83151D01*
X68825Y83191D01*
X68822Y83530D01*
X68813Y83569D01*
X68798Y83606D01*
X68777Y83640D01*
X68751Y83671D01*
X68720Y83697D01*
X68686Y83717D01*
X68649Y83733D01*
X68610Y83742D01*
X68571Y83744D01*
X67802Y83742D01*
X67763Y83733D01*
X67726Y83717D01*
X67714Y83710D01*
X67696Y83740D01*
X67670Y83770D01*
X67640Y83796D01*
X67610Y83814D01*
X67617Y83826D01*
X67633Y83863D01*
X67642Y83902D01*
X67644Y83942D01*
X67642Y84710D01*
X67633Y84749D01*
X67617Y84786D01*
X67597Y84820D01*
X67571Y84851D01*
X67540Y84877D01*
X67506Y84898D01*
X67469Y84913D01*
X67430Y84922D01*
X67390Y84925D01*
X67051Y84922D01*
X67012Y84913D01*
X66990Y84904D01*
X66969Y84913D01*
X66930Y84922D01*
X66890Y84925D01*
X66577Y84922D01*
Y85437D01*
X66578Y85450D01*
X66574Y85501D01*
X66562Y85551D01*
X66542Y85599D01*
X66515Y85643D01*
X66482Y85682D01*
X66472Y85690D01*
X66270Y85893D01*
G37*
G36*
X57420Y73650D02*X54575D01*
X54574Y73664D01*
X54552Y73756D01*
X54516Y73843D01*
X54467Y73924D01*
X54406Y73996D01*
X54334Y74057D01*
X54253Y74106D01*
X54166Y74142D01*
X54074Y74165D01*
X53980Y74172D01*
X53886Y74165D01*
X53794Y74142D01*
X53707Y74106D01*
X53626Y74057D01*
X53554Y73996D01*
X53493Y73924D01*
X53444Y73843D01*
X53410Y73762D01*
X53376Y73843D01*
X53327Y73924D01*
X53266Y73996D01*
X53194Y74057D01*
X53113Y74106D01*
X53026Y74142D01*
X52934Y74165D01*
X52840Y74172D01*
X52746Y74165D01*
X52654Y74142D01*
X52567Y74106D01*
X52486Y74057D01*
X52414Y73996D01*
X52353Y73924D01*
X52304Y73843D01*
X52270Y73762D01*
X52236Y73843D01*
X52187Y73924D01*
X52126Y73996D01*
X52054Y74057D01*
X51973Y74106D01*
X51886Y74142D01*
X51794Y74165D01*
X51700Y74172D01*
X51606Y74165D01*
X51514Y74142D01*
X51427Y74106D01*
X51346Y74057D01*
X51274Y73996D01*
X51213Y73924D01*
X51164Y73843D01*
X51133Y73769D01*
X51106Y73833D01*
X51057Y73914D01*
X50996Y73986D01*
X50924Y74047D01*
X50843Y74096D01*
X50756Y74132D01*
X50664Y74155D01*
X50570Y74162D01*
X50476Y74155D01*
X50384Y74132D01*
X50297Y74096D01*
X50216Y74047D01*
X50144Y73986D01*
X50083Y73914D01*
X50034Y73833D01*
X49998Y73746D01*
X49977Y73659D01*
X49968Y73650D01*
X48480D01*
Y78500D01*
X54888D01*
X53015Y76627D01*
X52984Y76635D01*
X52890Y76642D01*
X52796Y76635D01*
X52704Y76612D01*
X52617Y76576D01*
X52536Y76527D01*
X52464Y76466D01*
X52403Y76394D01*
X52354Y76313D01*
X52318Y76226D01*
X52296Y76134D01*
X52288Y76040D01*
X52296Y75946D01*
X52318Y75854D01*
X52354Y75767D01*
X52403Y75686D01*
X52464Y75615D01*
X52536Y75553D01*
X52617Y75504D01*
X52704Y75468D01*
X52796Y75446D01*
X52890Y75438D01*
X52984Y75446D01*
X53076Y75468D01*
X53163Y75504D01*
X53244Y75553D01*
X53316Y75615D01*
X53377Y75686D01*
X53426Y75767D01*
X53462Y75854D01*
X53484Y75946D01*
X53490Y76040D01*
X53484Y76134D01*
X53477Y76165D01*
X55567Y78255D01*
X55577Y78263D01*
X55610Y78302D01*
X55610Y78302D01*
X55637Y78346D01*
X55657Y78394D01*
X55669Y78444D01*
X55673Y78495D01*
X55673Y78500D01*
X56503D01*
Y77816D01*
X56145Y77457D01*
X56114Y77465D01*
X56020Y77472D01*
X55926Y77465D01*
X55834Y77442D01*
X55747Y77406D01*
X55666Y77357D01*
X55594Y77296D01*
X55533Y77224D01*
X55484Y77143D01*
X55448Y77056D01*
X55426Y76964D01*
X55418Y76870D01*
X55426Y76776D01*
X55448Y76684D01*
X55484Y76597D01*
X55533Y76516D01*
X55594Y76445D01*
X55666Y76383D01*
X55747Y76334D01*
X55834Y76298D01*
X55926Y76276D01*
X56020Y76268D01*
X56114Y76276D01*
X56158Y76286D01*
X56156Y76274D01*
X56148Y76180D01*
X56156Y76086D01*
X56178Y75994D01*
X56214Y75907D01*
X56263Y75826D01*
X56324Y75755D01*
X56396Y75693D01*
X56477Y75644D01*
X56564Y75608D01*
X56656Y75586D01*
X56750Y75578D01*
X56844Y75586D01*
X56936Y75608D01*
X57023Y75644D01*
X57104Y75693D01*
X57176Y75755D01*
X57237Y75826D01*
X57281Y75899D01*
X57313Y75846D01*
X57374Y75775D01*
X57420Y75736D01*
Y73650D01*
G37*
G36*
Y70670D02*X55647D01*
Y72217D01*
X55648Y72230D01*
X55644Y72281D01*
X55632Y72331D01*
X55612Y72379D01*
X55585Y72423D01*
X55552Y72462D01*
X55542Y72470D01*
X54567Y73445D01*
X54574Y73476D01*
X54580Y73570D01*
X54574Y73664D01*
X54552Y73756D01*
X54516Y73843D01*
X54467Y73924D01*
X54406Y73996D01*
X54334Y74057D01*
X54253Y74106D01*
X54166Y74142D01*
X54074Y74165D01*
X53980Y74172D01*
X53886Y74165D01*
X53794Y74142D01*
X53707Y74106D01*
X53626Y74057D01*
X53554Y73996D01*
X53493Y73924D01*
X53444Y73843D01*
X53410Y73762D01*
X53376Y73843D01*
X53327Y73924D01*
X53266Y73996D01*
X53194Y74057D01*
X53113Y74106D01*
X53026Y74142D01*
X52934Y74165D01*
X52840Y74172D01*
X52746Y74165D01*
X52654Y74142D01*
X52567Y74106D01*
X52486Y74057D01*
X52414Y73996D01*
X52353Y73924D01*
X52304Y73843D01*
X52270Y73762D01*
X52236Y73843D01*
X52187Y73924D01*
X52126Y73996D01*
X52054Y74057D01*
X51973Y74106D01*
X51886Y74142D01*
X51794Y74165D01*
X51700Y74172D01*
X51606Y74165D01*
X51514Y74142D01*
X51427Y74106D01*
X51346Y74057D01*
X51274Y73996D01*
X51213Y73924D01*
X51164Y73843D01*
X51133Y73769D01*
X51106Y73833D01*
X51057Y73914D01*
X50996Y73986D01*
X50924Y74047D01*
X50843Y74096D01*
X50756Y74132D01*
X50664Y74155D01*
X50570Y74162D01*
X50476Y74155D01*
X50384Y74132D01*
X50297Y74096D01*
X50216Y74047D01*
X50144Y73986D01*
X50083Y73914D01*
X50034Y73833D01*
X49998Y73746D01*
X49977Y73659D01*
X47488Y71170D01*
X47478Y71162D01*
X47445Y71123D01*
X47418Y71079D01*
X47398Y71031D01*
X47386Y70981D01*
X47386Y70981D01*
X47382Y70930D01*
X47383Y70917D01*
Y70720D01*
X46820D01*
Y71867D01*
X47810Y71869D01*
X47849Y71878D01*
X47885Y71893D01*
X47920Y71914D01*
X47950Y71940D01*
X47976Y71970D01*
X47997Y72005D01*
X48012Y72042D01*
X48021Y72080D01*
X48024Y72120D01*
X48021Y73460D01*
X48012Y73499D01*
X47997Y73536D01*
X47976Y73570D01*
X47950Y73600D01*
X47920Y73626D01*
X47885Y73647D01*
X47849Y73663D01*
X47810Y73672D01*
X47770Y73674D01*
X46820Y73673D01*
Y74805D01*
X54800D01*
Y73650D01*
X57420D01*
Y70670D01*
G37*
G36*
X46820Y70720D02*X43400D01*
Y70947D01*
X44880Y70948D01*
X44919Y70958D01*
X44956Y70973D01*
X44990Y70994D01*
X45020Y71020D01*
X45046Y71050D01*
X45067Y71084D01*
X45082Y71121D01*
X45092Y71160D01*
X45094Y71200D01*
X45092Y73640D01*
X45082Y73679D01*
X45067Y73716D01*
X45046Y73750D01*
X45020Y73780D01*
X44990Y73806D01*
X44956Y73827D01*
X44919Y73842D01*
X44880Y73852D01*
X44840Y73854D01*
X43400Y73853D01*
Y74805D01*
X46820D01*
Y73673D01*
X45830Y73672D01*
X45791Y73663D01*
X45754Y73647D01*
X45720Y73626D01*
X45690Y73600D01*
X45664Y73570D01*
X45643Y73536D01*
X45628Y73499D01*
X45618Y73460D01*
X45616Y73420D01*
X45618Y72080D01*
X45628Y72042D01*
X45643Y72005D01*
X45664Y71970D01*
X45690Y71940D01*
X45720Y71914D01*
X45754Y71893D01*
X45791Y71878D01*
X45830Y71869D01*
X45870Y71866D01*
X46820Y71867D01*
Y70720D01*
G37*
G54D33*X26110Y62780D02*Y66370D01*
X26534Y59591D02*Y60786D01*
X26520Y60800D01*
X26534Y56591D02*X29277D01*
X29304Y56618D01*
X30268D01*
X30800Y57150D01*
Y60870D01*
X28570Y63100D01*
Y66360D01*
X35510Y75785D02*X35515Y75780D01*
X35495Y76420D02*X35510Y76435D01*
X34730Y76450D02*X35490D01*
X35507Y76433D01*
X35515Y75780D02*X36220D01*
X33380D02*X35340D01*
X33230Y75630D02*X33370Y75770D01*
X33300Y75700D02*X33380Y75780D01*
X35510Y77735D02*X35505Y77740D01*
X34780D01*
X35510Y77085D02*X35495Y77070D01*
X34780D01*
X36485Y78710D02*X34980D01*
X36420Y73190D02*X36410Y73180D01*
G54D34*X36390Y73690D02*Y73230D01*
X36500Y74540D02*X36440D01*
X35700Y73800D01*
Y71380D01*
X35710Y71370D01*
X37110Y73740D02*Y70220D01*
G54D33*X33240Y77450D02*X33730D01*
X34730Y76450D01*
G54D34*X33240Y77550D02*X32670Y76980D01*
Y76660D01*
G54D35*X32759Y80712D02*X33410Y81363D01*
X32641Y80831D02*X32441D01*
G54D33*X30789Y84188D02*X28790Y82189D01*
Y79190D01*
X28230Y78630D01*
G54D35*X32759Y80379D02*X31340Y78960D01*
G54D36*X31430Y77460D02*X31420Y77470D01*
Y78750D01*
G54D35*X32759Y80712D02*X34221Y79250D01*
X34240D01*
X32759Y80712D02*Y80379D01*
G54D33*X16920Y79390D02*X16880Y79430D01*
X22690Y81430D02*X19260D01*
X19220Y81390D01*
X20210Y76120D02*X20190D01*
G54D35*X16970Y76990D02*X14810D01*
X14800Y76980D01*
G54D33*X20120Y76120D02*Y78490D01*
X19220Y79390D01*
X28230Y78630D02*X23910D01*
X23270Y79270D01*
Y80850D01*
X22690Y81430D01*
G54D35*X19210Y83760D02*X13960D01*
X13940Y83740D01*
G54D33*X31440Y77450D02*X31430Y77460D01*
X30200D01*
X28474Y71831D02*Y70276D01*
X28490Y70260D01*
G54D34*X31460Y75450D02*Y75320D01*
G54D33*X36092Y56830D02*X36048Y56875D01*
X35690Y71390D02*Y70770D01*
X35050Y70130D01*
G54D34*X32670Y76660D02*X31460Y75450D01*
G54D35*X26659Y80712D02*X26650Y80721D01*
G54D33*X26068Y71831D02*X28444Y74207D01*
G54D35*X26650Y80721D02*Y82560D01*
G54D33*X26100Y68920D02*X26110Y68910D01*
X23530Y62030D02*X24720Y63220D01*
X23050Y60630D02*X22590Y61090D01*
X23570Y68910D02*X22280Y67620D01*
Y65310D01*
X19770Y65390D02*Y67650D01*
X21030Y68910D01*
G54D36*X19770Y65380D02*X20868Y64282D01*
X22280Y65320D02*X21370Y64410D01*
G54D33*X60090Y75130D02*X60830D01*
G54D37*X46760Y75770D02*X46740Y75790D01*
X45260D01*
X45430Y78470D02*X45420Y78460D01*
X40890D01*
G54D33*X39410Y77735D02*X39405Y77730D01*
G54D35*X38007Y84547D02*X40704D01*
X40710Y84540D01*
G54D37*X38110Y78750D02*Y80670D01*
G54D33*X39405Y77730D02*X38650D01*
X39405Y77100D02*X38540D01*
X39410Y77735D02*X40325D01*
X40330Y77730D01*
X39410Y77085D02*X40275D01*
X40280Y77080D01*
X39420Y77085D02*X39405Y77100D01*
X38007Y84547D02*X34147D01*
G54D35*X37500Y87010D02*X43150Y87000D01*
X47920D01*
X37500Y87010D02*X36120D01*
X36110Y87020D01*
G54D33*X34147Y84547D02*X33789Y84188D01*
G54D35*X51950Y82970D02*X48730D01*
X48130Y83570D01*
Y86840D01*
X49590Y80630D02*X49600Y80640D01*
Y82680D01*
X52360Y82970D02*X52390Y82940D01*
G54D34*X58910Y80670D02*X57810Y79570D01*
X58730Y81130D02*X57290Y79690D01*
X58470Y81600D02*X57830Y80960D01*
X57845Y80975D02*X56830Y79960D01*
G54D33*X57810Y79570D02*Y76220D01*
X57290Y79700D02*Y76720D01*
X56830Y79900D02*Y77680D01*
X55345Y86375D02*Y78495D01*
X57290Y76720D02*X56750Y76180D01*
X56830Y77680D02*X56020Y76870D01*
X55345Y78495D02*X52890Y76040D01*
X39410Y76435D02*X40335D01*
X39430D02*X39425Y76430D01*
X38530D01*
X40335Y76435D02*X40340Y76430D01*
X40040Y71200D02*X40030Y71190D01*
G54D36*X40050Y73100D02*X40050Y73100D01*
Y74340D01*
G54D33*X38485Y73255D02*X38190Y72960D01*
G54D36*X38210Y72980D02*X38450Y73220D01*
Y74790D01*
G54D34*X37790Y74630D02*Y74420D01*
G54D33*X38235Y71205D02*X38240Y71200D01*
G54D36*X38210Y71230D02*Y72980D01*
G54D34*X37790Y74420D02*X37110Y73740D01*
X37140Y74640D02*Y74440D01*
X36390Y73690D01*
G54D36*X39410Y75785D02*X39690Y75505D01*
Y75130D01*
Y74570D01*
X39680Y74560D01*
G54D37*X46930Y72770D02*X48480D01*
X48480Y72770D01*
G54D33*X52820Y73590D02*X52840Y73570D01*
Y73590D02*X52830Y73580D01*
G54D37*X43850Y74340D02*X39790D01*
G54D36*X42580Y71810D02*X42910Y72140D01*
G54D37*X43140Y72400D02*X43130Y72410D01*
X43140Y72400D02*X43400Y72660D01*
Y73990D01*
G54D33*X68420Y79750D02*Y81340D01*
X65230Y80250D02*Y76940D01*
G54D34*X64150Y80250D02*X65310Y81410D01*
X64060Y81340D02*X63390Y80670D01*
G54D33*X67240Y80180D02*Y79490D01*
G54D34*X66740Y80589D02*Y79613D01*
X66813Y79540D01*
Y78417D01*
X66830Y78400D01*
G54D33*X65730Y80240D02*Y79510D01*
X66000Y79240D01*
X66240Y80200D02*Y79480D01*
X66010Y79250D01*
G54D37*X69440Y79230D02*X69430Y79240D01*
X69435Y79235D02*X69430Y79240D01*
G54D35*X70540Y73790D02*X69460Y74870D01*
X74142Y74386D02*X72786D01*
X72190Y73790D01*
X71530Y76610D02*X72340Y77420D01*
X74020D01*
X74320Y77720D01*
Y83280D01*
X69450Y74880D02*Y81050D01*
G54D36*X69260Y82080D02*Y81450D01*
G54D34*X70000Y82200D02*X71289Y80912D01*
X71343D01*
G54D33*X75890Y83860D02*X72670Y87080D01*
X75890Y81710D02*Y83860D01*
X68370Y83340D02*X69020D01*
X71080Y83050D02*X70130D01*
X69960Y82010D02*X70020D01*
G54D36*X68206Y82340D02*X69000D01*
X69260Y82080D01*
X68206Y81840D02*X68580D01*
X68350Y81840D02*X69230D01*
G54D33*X64050Y83330D02*X63500D01*
X65230Y84050D02*Y83350D01*
X66250Y84480D02*Y85450D01*
X65630Y86070D01*
X65730Y84480D02*Y85240D01*
X65450Y85520D01*
X67230Y84540D02*Y85080D01*
X66740Y84460D02*Y85160D01*
G54D36*X65240Y84306D02*X65234Y84300D01*
X64680D01*
G54D33*X65630Y86070D02*X61720D01*
X65450Y85520D02*X63270D01*
X61790Y84040D01*
X58400Y86020D02*X57170D01*
G54D35*X56790Y87910D02*X65390D01*
X65470D02*X66820D01*
G54D33*X58460Y83750D02*X57240D01*
G54D34*X64060Y81840D02*X63710D01*
G54D35*X54130Y85010D02*Y85160D01*
X56760Y87790D01*
G54D34*X64060Y82340D02*X63510D01*
G54D33*X59640Y76610D02*Y79160D01*
X59630Y79170D01*
G54D34*X60940Y80255D02*X59606Y78921D01*
X63390Y80670D02*X58910D01*
X63710Y81840D02*X63000Y81130D01*
X58730D01*
X62770Y81600D02*X58470D01*
X63510Y82340D02*X62770Y81600D01*
G54D33*X60830Y75130D02*X62650Y76950D01*
Y78720D01*
X62630Y78740D01*
X65230Y76940D02*X62650Y74360D01*
G54D34*X64155Y80255D02*X60940D01*
G54D35*X68478Y41240D02*X68301Y40097D01*
X68484Y41276D02*X71950Y46660D01*
G54D37*X75610Y65310D02*X75600Y65300D01*
Y63260D01*
G54D35*X75610Y69661D02*Y70370D01*
X72190Y73790D01*
X70540D01*
G54D36*X69230Y70790D02*X72210Y73770D01*
G54D33*X53990Y73580D02*X53980Y73570D01*
X55290Y72260D01*
X51710Y73580D02*X50270Y72140D01*
X50350Y73570D02*X47710Y70930D01*
X55280Y72270D02*X55320Y72230D01*
G54D36*X58505Y70790D02*X69230D01*
G54D33*X52840Y73570D02*Y63800D01*
X50270Y72140D02*Y64110D01*
X55320Y72230D02*Y65600D01*
X52745Y63025D01*
X47710Y70930D02*Y59990D01*
X57895Y70185D02*Y65655D01*
G54D36*Y70180D02*X58505Y70790D01*
G54D33*X57895Y65655D02*X56340Y64100D01*
X54480D01*
X52840Y63800D02*X49160Y60120D01*
X49190Y60150D02*X47590Y58550D01*
X50270Y64140D02*Y61900D01*
X47390Y59020D01*
X47710Y59990D02*X47200Y59480D01*
X52780Y63060D02*X47800Y58080D01*
X54480Y64100D02*X48000Y57620D01*
X59110Y59790D02*Y66400D01*
X57890Y59210D02*Y62230D01*
G54D36*X59110Y59810D02*Y59700D01*
G54D33*X45658Y46979D02*X57900Y59220D01*
G54D34*X45180Y58550D02*X47590D01*
G54D36*X59110Y59700D02*X44320Y44910D01*
G54D37*X56045Y43785D02*X56040Y43790D01*
X55220Y44240D02*X52550D01*
X52530Y44220D01*
X53920Y44240D02*X49970D01*
X57105Y42515D02*X55204D01*
X53948Y41259D01*
X57391D01*
X57405Y41245D01*
X51364Y41263D02*X53937D01*
X53945Y41255D01*
X57405Y43785D02*X56045D01*
X55380Y46990D02*X62180D01*
X51690Y47000D02*X55380D01*
X55390Y46990D01*
X51590Y41263D02*X50998D01*
G54D36*X60490Y48200D02*X63130D01*
G54D37*X64891Y44379D02*X64180Y45090D01*
X62690D01*
X62655Y45055D01*
G54D36*X63130Y48200D02*X65340Y50410D01*
G54D37*X62180Y46990D02*X62580Y46590D01*
Y45110D01*
X62560Y45090D01*
G54D33*X62860Y26640D02*X64910Y28670D01*
G54D37*X62735Y41165D02*Y37895D01*
X65830Y34800D01*
G54D33*X64891Y38291D02*Y39309D01*
X64880Y39320D01*
X62660Y41240D02*X62655Y41245D01*
G54D37*X64891Y41290D02*Y44379D01*
X62685Y41215D02*X64816D01*
X64891Y41290D01*
G54D33*Y38291D02*X66230D01*
X66250Y38310D01*
G54D35*X16130Y70850D02*X15960Y70680D01*
Y68890D01*
G54D33*X15078Y73248D02*X15090Y73260D01*
X19976Y71845D02*Y70106D01*
X19950Y70080D01*
X22990Y71831D02*X22976Y71845D01*
X15482Y74498D02*X15500Y74480D01*
X25474Y71831D02*X22990D01*
X25440D02*X26068D01*
G54D37*X11748Y71138D02*X11800Y71190D01*
G54D33*X9662Y73248D02*X9650Y73260D01*
X14270Y74498D02*X15482D01*
X11270D02*X10142D01*
X10140Y74500D01*
G54D35*X13410Y68910D02*Y71030D01*
X13420Y71040D01*
X13410Y68860D02*X12800D01*
X11630Y67690D01*
Y63430D01*
G54D37*X9010Y66670D02*X11630D01*
G54D35*Y63430D02*X12700Y62360D01*
G54D33*X8090Y57230D02*X7570Y54460D01*
X8840Y40270D02*X9720Y37450D01*
G54D36*X16740Y39560D02*Y41470D01*
X18540Y40570D02*X17980Y40010D01*
X18005Y40035D02*X17190Y40850D01*
X16740Y39540D02*Y38620D01*
X20090Y40570D02*X18540D01*
X16740Y38620D02*X17940Y37420D01*
X19910Y40110D02*X17930Y38130D01*
Y37430D01*
X18125Y45395D02*X17190Y44460D01*
X17650Y45560D02*X16740Y44650D01*
X21370Y48030D02*X19220Y45880D01*
X18610D01*
X18110Y45380D01*
X17190Y40850D02*Y44460D01*
X16740Y44650D02*Y41440D01*
X20868Y64282D02*Y48790D01*
X21370Y64410D02*Y48030D01*
G54D33*X37110Y70260D02*X37090Y70240D01*
X37692Y59583D02*X37701Y59574D01*
Y61241D01*
X38212Y61752D01*
X35050Y70100D02*Y64910D01*
X35830Y64130D01*
X34895Y62552D02*X33398D01*
X33390Y62560D01*
X41045Y63835D02*X42580Y65370D01*
X41055Y63845D02*X39213D01*
X39203Y63835D01*
X37222D02*X36125D01*
X35825Y64135D01*
X42580Y65370D02*Y70310D01*
G54D36*Y70290D02*Y71810D01*
X40050Y71210D02*Y70050D01*
X40060Y70040D01*
G54D33*X33085Y59586D02*Y56912D01*
X33048Y56875D01*
X36048Y54366D02*X35956Y54275D01*
X25825D01*
X30662Y55260D02*X29304Y56618D01*
X25825Y54275D02*X24820Y55280D01*
X41880Y55260D02*X30662D01*
X24820Y61490D02*X26110Y62780D01*
X42810Y56840D02*X36092D01*
X37150Y49870D02*X42610Y55330D01*
X42565Y55285D02*X45350Y58070D01*
X47390Y59020D02*X45000D01*
X42810Y56830D01*
G54D34*X41890Y55260D02*X45180Y58550D01*
G54D33*X47800Y58080D02*X45350D01*
X48000Y57620D02*X45550D01*
X37340Y49410D01*
G54D37*X46538Y55762D02*X37300Y46524D01*
Y44280D01*
G54D33*X39440Y44910D02*X44230D01*
X43632Y46979D02*X45658D01*
G54D36*X44320Y44910D02*X44240D01*
G54D33*X47200Y59480D02*X43850D01*
X24820Y55280D02*Y61490D01*
X23530Y49050D02*Y62030D01*
X23050Y47580D02*Y60630D01*
X17850Y25930D02*X19950Y23800D01*
X24910Y49870D02*X37150D01*
X37340Y49410D02*X30700D01*
X30230Y48940D01*
X34410Y47200D02*X23430D01*
X37300Y51000D02*X34620D01*
X37310Y44300D02*X34410Y47200D01*
X20050Y40570D02*X46770D01*
X45660Y40110D02*X19880D01*
X28610Y48360D02*X24220D01*
X23530Y49050D01*
X23430Y47200D02*X23050Y47580D01*
X17640Y45550D02*X20880Y48790D01*
G54D37*X50998Y41263D02*X38492Y28757D01*
G54D33*X47090Y40570D02*X47470Y40190D01*
X46470Y40110D02*X47450Y39130D01*
X43632Y39359D02*X43341Y39650D01*
X39700D01*
X39440Y39390D01*
G54D37*X51420Y41263D02*X40347D01*
X37310Y44300D01*
G54D33*X46720Y40570D02*X47090D01*
X45630Y40110D02*X46470D01*
X37900Y17280D02*X41000D01*
G54D35*X12768Y62396D02*G75*G03X29032Y22142I28259J-11995D01*G01*
X28599Y22303D02*G75*G03X68262Y39962I11002J28661D01*G01*
G54D38*X26110Y66370D03*
X28650D03*
X31190D03*
X26110Y68910D03*
X28650D03*
X31190D03*
X33730D03*
X36270D03*
X38810D03*
X33730Y66370D03*
X36270D03*
X38810D03*
X41350D03*
G54D39*X37460Y76760D03*
X38260Y77560D03*
X36660D03*
X38260Y75960D03*
X36660D03*
G54D38*X18490Y66370D03*
Y68910D03*
X21030Y66370D03*
Y68910D03*
G54D32*G36*
X12648Y67132D02*Y65608D01*
X14172D01*
Y67132D01*
X12648D01*
G37*
G54D38*X13410Y68910D03*
X15950Y66370D03*
Y68910D03*
X23570Y66370D03*
Y68910D03*
G54D32*G36*
X16806Y57177D02*Y55653D01*
X18330D01*
Y57177D01*
X16806D01*
G37*
G54D38*X17568Y53875D03*
Y51335D03*
Y48795D03*
X41350Y68910D03*
X43890Y66370D03*
X46430D03*
X48970D03*
G54D32*G36*
X45776Y56524D02*Y55000D01*
X47300D01*
Y56524D01*
X45776D01*
G37*
G54D38*X46538Y53222D03*
Y50682D03*
X43890Y68910D03*
X46430D03*
X48970D03*
X51510D03*
X54050D03*
X56590D03*
X51510Y66370D03*
X54050D03*
X56590D03*
X59130D03*
Y68910D03*
X61670D03*
Y66370D03*
G54D32*G36*
X18768Y45062D02*Y43538D01*
X20292D01*
Y45062D01*
X18768D01*
G37*
G54D38*X22070Y44300D03*
X24610D03*
X27150D03*
X29690D03*
X32230D03*
X34770D03*
X37310D03*
G54D32*G36*
X36007Y85297D02*Y83797D01*
X40007D01*
Y85297D01*
X36007D01*
G37*
G36*
X31439Y85138D02*X30139D01*
Y83239D01*
X31439D01*
Y85138D01*
G37*
G36*
X34439D02*X33139D01*
Y83239D01*
X34439D01*
Y85138D01*
G37*
G36*
X48190Y88150D02*Y86550D01*
X51190D01*
Y88150D01*
X48190D01*
G37*
G36*
Y81350D02*Y79750D01*
X51190D01*
Y81350D01*
X48190D01*
G37*
G36*
X49190Y85450D02*Y84450D01*
X54690D01*
Y85450D01*
X49190D01*
G37*
G36*
Y83450D02*Y82450D01*
X54690D01*
Y83450D01*
X49190D01*
G37*
G36*
X41940Y79700D02*Y77300D01*
X44840D01*
Y79700D01*
X41940D01*
G37*
G36*
X36007Y81697D02*Y80197D01*
X40007D01*
Y81697D01*
X36007D01*
G37*
G36*
X33959Y82162D02*X31559D01*
Y79262D01*
X33959D01*
Y82162D01*
G37*
G36*
X39010Y75935D02*Y75635D01*
X39810D01*
Y75935D01*
X39010D01*
G37*
G36*
Y76585D02*Y76285D01*
X39810D01*
Y76585D01*
X39010D01*
G37*
G36*
Y77235D02*Y76935D01*
X39810D01*
Y77235D01*
X39010D01*
G37*
G36*
Y77885D02*Y77585D01*
X39810D01*
Y77885D01*
X39010D01*
G37*
G36*
X37285Y75210D02*X36985D01*
Y74410D01*
X37285D01*
Y75210D01*
G37*
G36*
X37935D02*X37635D01*
Y74410D01*
X37935D01*
Y75210D01*
G37*
G36*
X38585D02*X38285D01*
Y74410D01*
X38585D01*
Y75210D01*
G37*
G36*
X45870Y76420D02*Y75120D01*
X47770D01*
Y76420D01*
X45870D01*
G37*
G36*
X41940Y73600D02*Y71200D01*
X44840D01*
Y73600D01*
X41940D01*
G37*
G36*
X45870Y73420D02*Y72120D01*
X47770D01*
Y73420D01*
X45870D01*
G37*
G36*
X40690Y71950D02*X39390D01*
Y70450D01*
X40690D01*
Y71950D01*
G37*
G36*
X38890D02*X37590D01*
Y70450D01*
X38890D01*
Y71950D01*
G37*
G36*
X38900Y73750D02*X37600D01*
Y72250D01*
X38900D01*
Y73750D01*
G37*
G36*
X40700D02*X39400D01*
Y72250D01*
X40700D01*
Y73750D01*
G37*
G36*
X38585Y79110D02*X38285D01*
Y78310D01*
X38585D01*
Y79110D01*
G37*
G36*
X37935D02*X37635D01*
Y78310D01*
X37935D01*
Y79110D01*
G37*
G36*
X37285D02*X36985D01*
Y78310D01*
X37285D01*
Y79110D01*
G37*
G36*
X35110Y77885D02*Y77585D01*
X35910D01*
Y77885D01*
X35110D01*
G37*
G36*
Y77235D02*Y76935D01*
X35910D01*
Y77235D01*
X35110D01*
G37*
G36*
Y76585D02*Y76285D01*
X35910D01*
Y76585D01*
X35110D01*
G37*
G36*
Y75935D02*Y75635D01*
X35910D01*
Y75935D01*
X35110D01*
G37*
G36*
X36635Y75210D02*X36335D01*
Y74410D01*
X36635D01*
Y75210D01*
G37*
G36*
Y79110D02*X36335D01*
Y78310D01*
X36635D01*
Y79110D01*
G37*
G36*
X36110Y78110D02*Y75410D01*
X38810D01*
Y78110D01*
X36110D01*
G37*
G36*
X33890Y78200D02*X32590D01*
Y76700D01*
X33890D01*
Y78200D01*
G37*
G36*
X32090D02*X30790D01*
Y76700D01*
X32090D01*
Y78200D01*
G37*
G36*
X33990Y76070D02*X32690D01*
Y74570D01*
X33990D01*
Y76070D01*
G37*
G36*
X32190D02*X30890D01*
Y74570D01*
X32190D01*
Y76070D01*
G37*
G36*
X38475Y20898D02*Y19598D01*
X40375D01*
Y20898D01*
X38475D01*
G37*
G36*
X20802Y28258D02*X19883Y27339D01*
X21227Y25996D01*
X22146Y26915D01*
X20802Y28258D01*
G37*
G36*
X18681Y26137D02*X17762Y25218D01*
X19106Y23874D01*
X20025Y24794D01*
X18681Y26137D01*
G37*
G36*
X12464Y41015D02*X11228Y40613D01*
X11815Y38806D01*
X13051Y39208D01*
X12464Y41015D01*
G37*
G36*
X9611Y40088D02*X8375Y39686D01*
X8962Y37879D01*
X10198Y38281D01*
X9611Y40088D01*
G37*
G36*
X11526Y56184D02*X10246Y56410D01*
X9916Y54539D01*
X11196Y54313D01*
X11526Y56184D01*
G37*
G36*
X8572Y56705D02*X7292Y56931D01*
X6962Y55059D01*
X8242Y54834D01*
X8572Y56705D01*
G37*
G36*
X25584Y60241D02*Y58941D01*
X27484D01*
Y60241D01*
X25584D01*
G37*
G36*
X34095Y63142D02*Y61842D01*
X35995D01*
Y63142D01*
X34095D01*
G37*
G36*
Y60142D02*Y58842D01*
X35995D01*
Y60142D01*
X34095D01*
G37*
G36*
X25584Y57241D02*Y55941D01*
X27484D01*
Y57241D01*
X25584D01*
G37*
G36*
X52998Y44908D02*Y43609D01*
X54898D01*
Y44908D01*
X52998D01*
G37*
G36*
X50714Y44912D02*Y43612D01*
X52614D01*
Y44912D01*
X50714D01*
G37*
G36*
X52998Y41909D02*Y40609D01*
X54898D01*
Y41909D01*
X52998D01*
G37*
G36*
X50714Y41913D02*Y40613D01*
X52614D01*
Y41913D01*
X50714D01*
G37*
G36*
X23626Y72795D02*X22326D01*
Y70895D01*
X23626D01*
Y72795D01*
G37*
G36*
X26124Y72781D02*X24824D01*
Y70881D01*
X26124D01*
Y72781D01*
G37*
G36*
X26094Y75157D02*X24794D01*
Y73257D01*
X26094D01*
Y75157D01*
G37*
G36*
X15470Y77850D02*Y76250D01*
X18470D01*
Y77850D01*
X15470D01*
G37*
G36*
X16470Y81950D02*Y80950D01*
X21970D01*
Y81950D01*
X16470D01*
G37*
G36*
Y79950D02*Y78950D01*
X21970D01*
Y79950D01*
X16470D01*
G37*
G36*
X15470Y84650D02*Y83050D01*
X18470D01*
Y84650D01*
X15470D01*
G37*
G36*
X27859Y82162D02*X25459D01*
Y79262D01*
X27859D01*
Y82162D01*
G37*
G36*
X29124Y72781D02*X27824D01*
Y70881D01*
X29124D01*
Y72781D01*
G37*
G36*
X29094Y75157D02*X27794D01*
Y73257D01*
X29094D01*
Y75157D01*
G37*
G36*
X20626Y72795D02*X19326D01*
Y70895D01*
X20626D01*
Y72795D01*
G37*
G36*
X14920Y75448D02*X13620D01*
Y73548D01*
X14920D01*
Y75448D01*
G37*
G36*
X11920D02*X10620D01*
Y73548D01*
X11920D01*
Y75448D01*
G37*
G36*
X76760Y66560D02*X74460D01*
Y64060D01*
X76760D01*
Y66560D01*
G37*
G36*
X70500Y77160D02*Y76060D01*
X72600D01*
Y77160D01*
X70500D01*
G37*
G36*
X73192Y75036D02*Y73736D01*
X75092D01*
Y75036D01*
X73192D01*
G37*
G36*
X76760Y70860D02*X74460D01*
Y68360D01*
X76760D01*
Y70860D01*
G37*
G36*
X75610Y77160D02*Y76060D01*
X78210D01*
Y77160D01*
X75610D01*
G37*
G36*
X73192Y78036D02*Y76736D01*
X75092D01*
Y78036D01*
X73192D01*
G37*
G36*
X75610Y85800D02*Y84700D01*
X78210D01*
Y85800D01*
X75610D01*
G37*
G36*
X70500D02*Y84700D01*
X72600D01*
Y85800D01*
X70500D01*
G37*
G36*
X71993Y81861D02*X70693D01*
Y79962D01*
X71993D01*
Y81861D01*
G37*
G36*
X71984Y84113D02*X70684D01*
Y82214D01*
X71984D01*
Y84113D01*
G37*
G36*
X74993Y81861D02*X73693D01*
Y79962D01*
X74993D01*
Y81861D01*
G37*
G36*
X74984Y84113D02*X73684D01*
Y82214D01*
X74984D01*
Y84113D01*
G37*
G36*
X63941Y38941D02*Y37641D01*
X65841D01*
Y38941D01*
X63941D01*
G37*
G36*
Y41940D02*Y40640D01*
X65841D01*
Y41940D01*
X63941D01*
G37*
G36*
X62895Y29936D02*X61976Y30855D01*
X60633Y29512D01*
X61552Y28592D01*
X62895Y29936D01*
G37*
G36*
X65017Y27814D02*X64097Y28734D01*
X62754Y27390D01*
X63673Y26471D01*
X65017Y27814D01*
G37*
G36*
X56730Y41620D02*Y40870D01*
X58080D01*
Y41620D01*
X56730D01*
G37*
G36*
X61630Y45600D02*X58430D01*
Y40700D01*
X61630D01*
Y45600D01*
G37*
G36*
X56730Y42890D02*Y42140D01*
X58080D01*
Y42890D01*
X56730D01*
G37*
G36*
Y44160D02*Y43410D01*
X58080D01*
Y44160D01*
X56730D01*
G37*
G36*
Y45430D02*Y44680D01*
X58080D01*
Y45430D01*
X56730D01*
G37*
G36*
X61980Y41620D02*Y40870D01*
X63330D01*
Y41620D01*
X61980D01*
G37*
G36*
Y42890D02*Y42140D01*
X63330D01*
Y42890D01*
X61980D01*
G37*
G36*
Y44160D02*Y43410D01*
X63330D01*
Y44160D01*
X61980D01*
G37*
G36*
Y45430D02*Y44680D01*
X63330D01*
Y45430D01*
X61980D01*
G37*
G36*
X38475Y17899D02*Y16599D01*
X40375D01*
Y17899D01*
X38475D01*
G37*
G36*
X60256Y79871D02*X58956D01*
Y77971D01*
X60256D01*
Y79871D01*
G37*
G36*
X59130Y86981D02*X57830D01*
Y85081D01*
X59130D01*
Y86981D01*
G37*
G36*
X59113Y84660D02*X57813D01*
Y82760D01*
X59113D01*
Y84660D01*
G37*
G36*
X60258Y75327D02*X58958D01*
Y73427D01*
X60258D01*
Y75327D01*
G37*
G36*
X60274Y77507D02*X58974D01*
Y75607D01*
X60274D01*
Y77507D01*
G37*
G36*
X62129Y86981D02*X60829D01*
Y85081D01*
X62129D01*
Y86981D01*
G37*
G36*
X62113Y84660D02*X60813D01*
Y82760D01*
X62113D01*
Y84660D01*
G37*
G36*
X63258Y75327D02*X61958D01*
Y73427D01*
X63258D01*
Y75327D01*
G37*
G36*
X63273Y77507D02*X61973D01*
Y75607D01*
X63273D01*
Y77507D01*
G37*
G36*
X63256Y79871D02*X61956D01*
Y77971D01*
X63256D01*
Y79871D01*
G37*
G36*
X67390Y80739D02*X67091D01*
Y80010D01*
X67390D01*
Y80739D01*
G37*
G36*
X66890D02*X66590D01*
Y80010D01*
X66890D01*
Y80739D01*
G37*
G36*
X66390D02*X66090D01*
Y80010D01*
X66390D01*
Y80739D01*
G37*
G36*
X65890D02*X65590D01*
Y80010D01*
X65890D01*
Y80739D01*
G37*
G36*
X65389D02*X65090D01*
Y80010D01*
X65389D01*
Y80739D01*
G37*
G36*
X63910Y81489D02*Y81190D01*
X64639D01*
Y81489D01*
X63910D01*
G37*
G36*
Y81990D02*Y81690D01*
X64639D01*
Y81990D01*
X63910D01*
G37*
G36*
Y82490D02*Y82190D01*
X64639D01*
Y82490D01*
X63910D01*
G37*
G36*
Y82990D02*Y82690D01*
X64639D01*
Y82990D01*
X63910D01*
G37*
G36*
Y83490D02*Y83191D01*
X64639D01*
Y83490D01*
X63910D01*
G37*
G36*
X67842D02*Y83191D01*
X68571D01*
Y83490D01*
X67842D01*
G37*
G36*
Y82990D02*Y82690D01*
X68571D01*
Y82990D01*
X67842D01*
G37*
G36*
Y82490D02*Y82190D01*
X68571D01*
Y82490D01*
X67842D01*
G37*
G36*
Y81990D02*Y81690D01*
X68571D01*
Y81990D01*
X67842D01*
G37*
G36*
Y81489D02*Y81190D01*
X68571D01*
Y81489D01*
X67842D01*
G37*
G36*
X64990Y82340D02*Y81090D01*
X66240D01*
Y82340D01*
X64990D01*
G37*
G36*
X66240D02*Y81090D01*
X67490D01*
Y82340D01*
X66240D01*
G37*
G36*
Y83590D02*Y82340D01*
X67490D01*
Y83590D01*
X66240D01*
G37*
G36*
X64990D02*Y82340D01*
X66240D01*
Y83590D01*
X64990D01*
G37*
G36*
X65389Y84671D02*X65090D01*
Y83942D01*
X65389D01*
Y84671D01*
G37*
G36*
X65890D02*X65590D01*
Y83942D01*
X65890D01*
Y84671D01*
G37*
G36*
X66390D02*X66090D01*
Y83942D01*
X66390D01*
Y84671D01*
G37*
G36*
X66890D02*X66590D01*
Y83942D01*
X66890D01*
Y84671D01*
G37*
G36*
X67390D02*X67091D01*
Y83942D01*
X67390D01*
Y84671D01*
G37*
G36*
X41351Y60524D02*X40051D01*
Y58624D01*
X41351D01*
Y60524D01*
G37*
G36*
X38351D02*X37051D01*
Y58624D01*
X38351D01*
Y60524D01*
G37*
G36*
X37653Y64343D02*X36790D01*
Y63327D01*
X37653D01*
Y64343D01*
G37*
G36*
X39634D02*X38771D01*
Y63327D01*
X39634D01*
Y64343D01*
G37*
G36*
X38644Y62260D02*X37780D01*
Y61244D01*
X38644D01*
Y62260D01*
G37*
G36*
X36697Y57825D02*X35397D01*
Y55925D01*
X36697D01*
Y57825D01*
G37*
G36*
X33698D02*X32398D01*
Y55925D01*
X33698D01*
Y57825D01*
G37*
G36*
X28354Y57268D02*Y55968D01*
X30254D01*
Y57268D01*
X28354D01*
G37*
G36*
Y60268D02*Y58968D01*
X30254D01*
Y60268D01*
X28354D01*
G37*
G36*
X35016Y51615D02*Y50315D01*
X36916D01*
Y51615D01*
X35016D01*
G37*
G36*
Y54615D02*Y53315D01*
X36916D01*
Y54615D01*
X35016D01*
G37*
G54D40*X66500Y18660D03*
G54D41*X60604Y28565D03*
X57531Y26050D03*
G54D42*X65808Y23322D03*
X58900Y18110D03*
G54D41*X53315Y23510D03*
G54D42*X53300Y16310D03*
G54D41*X48108Y21453D03*
G54D42*X48100Y14310D03*
X53310Y27340D03*
X42550Y24220D03*
X33290Y27040D03*
Y23460D03*
G54D38*X43360Y76010D03*
G54D42*X53980Y73570D03*
X52840D03*
X51700D03*
X52890Y76040D03*
X56020Y76870D03*
X48200Y85810D03*
X42900Y86910D03*
G54D38*X43390Y78500D03*
G54D42*X56660Y85470D03*
X57900Y62240D03*
X43850Y59480D03*
X50570Y73560D03*
X34895Y59552D03*
X21500Y77610D03*
X25444Y74207D03*
X20210Y76120D03*
X28444Y74207D03*
X26560Y77890D03*
X30530Y79220D03*
X26590Y84270D03*
X21530Y82620D03*
X32000Y86010D03*
X37500Y87010D03*
X36410Y73180D03*
G54D41*X68478Y41240D03*
G54D42*X73050Y35960D03*
X71250Y30560D03*
X55860Y41260D03*
X47450Y39130D03*
X47470Y40190D03*
X43632Y39359D03*
X75850Y41260D03*
G54D41*X66345Y35931D03*
X63195Y31308D03*
G54D42*X56620Y39350D03*
X64891Y38291D03*
X60640Y31740D03*
X47480Y33470D03*
X33220Y37270D03*
X33290Y34000D03*
X33260Y30540D03*
X39410Y39370D03*
G54D38*X51690Y47000D03*
G54D42*X43632Y46979D03*
X48460Y46980D03*
X21670Y30580D03*
X71950Y46660D03*
X76850D03*
G54D38*X65340Y50410D03*
G54D42*X60490Y48200D03*
X66000Y79240D03*
X69430D03*
X63580Y84320D03*
X66300Y82280D03*
G54D38*X75020Y87110D03*
G54D42*X72670Y87090D03*
X75870Y81680D03*
X76050Y57060D03*
G54D38*X75610Y69661D03*
X72190Y73790D03*
G54D42*X66830Y78400D03*
X57800Y76200D03*
X56750Y76180D03*
G54D43*X76900Y76610D03*
G54D44*X71530D03*
X71540Y85250D03*
G54D43*X76890D03*
G54D42*X70000Y82200D03*
G54D41*X42520Y20412D03*
X37033Y20361D03*
X31800Y21260D03*
G54D42*X38492Y28757D03*
X42500Y13310D03*
X37000Y13210D03*
X31800Y14410D03*
X26600Y16110D03*
G54D41*X13741Y36261D03*
X11608Y41544D03*
X10541Y46726D03*
X10312Y51781D03*
X11024Y57013D03*
X12700Y62360D03*
G54D42*X40701Y59584D03*
X38840Y56810D03*
X35966Y53965D03*
X39440Y44910D03*
X33085Y59587D03*
X29289Y59591D03*
X24910Y49870D03*
X24720Y63220D03*
X22590Y61090D03*
X30230Y48940D03*
X28610Y48360D03*
G54D38*X17980Y40010D03*
X17940Y37420D03*
G54D40*X8500Y18660D03*
G54D42*X21300Y18010D03*
G54D38*X7835Y3521D03*
G54D41*X26619Y23282D03*
X22428Y25974D03*
X19202Y28819D03*
X16688Y31664D03*
G54D42*X13796Y23441D03*
X8150Y30760D03*
X9010Y66670D03*
Y71570D03*
X16137Y73836D03*
X12672Y77300D03*
G54D38*X14100Y82260D03*
G54D42*X6650Y36260D03*
X4350Y41560D03*
X3350Y46710D03*
X3150Y51810D03*
X3850Y57010D03*
X5850Y62360D03*
G54D45*G54D46*G54D47*G54D46*G54D47*G54D46*G54D47*G54D48*G54D47*G54D48*G54D47*G54D46*G54D47*G54D46*G54D47*G54D48*G54D47*G54D48*G54D47*G54D48*G54D47*G54D48*G54D47*G54D49*G54D50*G54D49*G54D47*G54D46*G54D47*G54D46*G54D47*G54D48*G54D45*G54D47*G54D48*G54D46*G54D47*G54D48*G54D47*G54D51*G54D52*G54D51*M02*
