%MOIN*%
%OFA0B0*%
%FSLAX43Y43*%
%IPPOS*%
%LPD*%
%ADD54C,0.00007874015748031497*%
%ADD53C,0.070866141732283464*%
%ADD52C,0.049370078740157482*%
%ADD51C,0.12598425196850396*%
%ADD50C,0.068976377952755907*%
%ADD49C,0.072913385826771662*%
%ADD48C,0.01968503937007874*%
%ADD65C,0.00007874015748031497*%
%ADD66C,0.070866141732283464*%
%ADD67C,0.049370078740157482*%
%ADD68C,0.12598425196850396*%
%ADD69C,0.068976377952755907*%
%ADD70C,0.072913385826771662*%
%ADD71C,0.01968503937007874*%
%ADD72C,0.00007874015748031497*%
%ADD73C,0.070866141732283464*%
%ADD74C,0.049370078740157482*%
%ADD75C,0.12598425196850396*%
%ADD76C,0.068976377952755907*%
%ADD77C,0.072913385826771662*%
%ADD78C,0.01968503937007874*%
%ADD79C,0.00007874015748031497*%
%ADD80C,0.070866141732283464*%
%ADD81C,0.049370078740157482*%
%ADD82C,0.12598425196850396*%
%ADD83C,0.068976377952755907*%
%ADD84C,0.072913385826771662*%
%ADD85C,0.01968503937007874*%
G54D48*
X0000104Y0000011D02*
X0000925Y0000011D01*
X0000001Y0000122D02*
X0000001Y0000460D01*
X0000708Y0000460D01*
X0000927Y0001328D02*
X0000927Y0000011D01*
X0000708Y0001328D02*
X0000708Y0000685D01*
X0000708Y0000683D02*
X0000708Y0000460D01*
X0000708Y0001328D02*
X0000927Y0001328D01*
X0000001Y0000120D02*
G75*
G03G03X0000110Y0000011I0000108D01X0000110Y0000011I0000108D01*
G01G01*
G54D49*
X0000478Y0000202D03*
X0000285Y0000202D03*
G54D50*
X0000860Y0000472D03*
X0000860Y0000734D03*
X0000860Y0000968D03*
X0000860Y0001230D03*
G54D51*
X0000844Y0000094D03*
G54D52*
X0000870Y0000192D03*
X0000870Y0000255D03*
X0000870Y0000316D03*
X0000870Y0000377D03*
G54D53*
X0000133Y0000070D03*
G54D52*
X0000870Y0000818D03*
X0000870Y0000883D03*
G54D54*
G36*
X0000765Y0000563D02*
X0000765Y0000543D01*
X0000840Y0000543D01*
X0000840Y0000563D01*
X0000765Y0000563D01*
G37*
G36*
X0000765Y0000665D02*
X0000765Y0000645D01*
X0000840Y0000645D01*
X0000840Y0000665D01*
X0000765Y0000665D01*
G37*
G36*
X0000765Y0000588D02*
X0000765Y0000568D01*
X0000840Y0000568D01*
X0000840Y0000588D01*
X0000765Y0000588D01*
G37*
G36*
X0000765Y0000614D02*
X0000765Y0000594D01*
X0000840Y0000594D01*
X0000840Y0000614D01*
X0000765Y0000614D01*
G37*
G36*
X0000765Y0000639D02*
X0000765Y0000619D01*
X0000840Y0000619D01*
X0000840Y0000639D01*
X0000765Y0000639D01*
G37*
G36*
X0000765Y0001059D02*
X0000765Y0001039D01*
X0000840Y0001039D01*
X0000840Y0001059D01*
X0000765Y0001059D01*
G37*
G36*
X0000765Y0001161D02*
X0000765Y0001141D01*
X0000840Y0001141D01*
X0000840Y0001161D01*
X0000765Y0001161D01*
G37*
G36*
X0000765Y0001084D02*
X0000765Y0001064D01*
X0000840Y0001064D01*
X0000840Y0001084D01*
X0000765Y0001084D01*
G37*
G36*
X0000765Y0001110D02*
X0000765Y0001090D01*
X0000840Y0001090D01*
X0000840Y0001110D01*
X0000765Y0001110D01*
G37*
G36*
X0000765Y0001135D02*
X0000765Y0001116D01*
X0000840Y0001116D01*
X0000840Y0001135D01*
X0000765Y0001135D01*
G37*
G04 next file*
G04 start of page 6 for group -4063 idx -4063 *
G04 Title: (unknown), componentmask *
G04 Creator: pcb 4.2.0 *
G04 CreationDate: Sat Mar 28 09:12:03 2020 UTC *
G04 For: blinken *
G04 Format: Gerber/RS-274X *
G04 PCB-Dimensions (mm): 65.00 56.00 *
G04 PCB-Coordinate-Origin: lower left *
D71*
X0000824Y0001862D02*
X0000003Y0001862D01*
X0000927Y0001751D02*
X0000927Y0001413D01*
X0000220Y0001413D01*
X0000001Y0000545D02*
X0000001Y0001862D01*
X0000220Y0000545D02*
X0000220Y0001188D01*
X0000220Y0001190D02*
X0000220Y0001413D01*
X0000220Y0000545D02*
X0000001Y0000545D01*
X0000927Y0001753D02*
G75*
G03G03X0000818Y0001862I-0000108D01X0000818Y0001862I-0000108D01*
G01G01*
D70*
X0000450Y0001671D03*
X0000643Y0001671D03*
D69*
X0000068Y0001401D03*
X0000068Y0001139D03*
X0000068Y0000905D03*
X0000068Y0000643D03*
D68*
X0000084Y0001779D03*
D67*
X0000059Y0001681D03*
X0000059Y0001618D03*
X0000059Y0001557D03*
X0000059Y0001496D03*
D66*
X0000795Y0001803D03*
D67*
X0000059Y0001055D03*
X0000059Y0000990D03*
D65*
G36*
X0000163Y0001310D02*
X0000163Y0001330D01*
X0000088Y0001330D01*
X0000088Y0001310D01*
X0000163Y0001310D01*
G37*
G36*
X0000163Y0001208D02*
X0000163Y0001228D01*
X0000088Y0001228D01*
X0000088Y0001208D01*
X0000163Y0001208D01*
G37*
G36*
X0000163Y0001285D02*
X0000163Y0001305D01*
X0000088Y0001305D01*
X0000088Y0001285D01*
X0000163Y0001285D01*
G37*
G36*
X0000163Y0001259D02*
X0000163Y0001279D01*
X0000088Y0001279D01*
X0000088Y0001259D01*
X0000163Y0001259D01*
G37*
G36*
X0000163Y0001234D02*
X0000163Y0001253D01*
X0000088Y0001253D01*
X0000088Y0001234D01*
X0000163Y0001234D01*
G37*
G36*
X0000163Y0000814D02*
X0000163Y0000834D01*
X0000088Y0000834D01*
X0000088Y0000814D01*
X0000163Y0000814D01*
G37*
G36*
X0000163Y0000712D02*
X0000163Y0000732D01*
X0000088Y0000732D01*
X0000088Y0000712D01*
X0000163Y0000712D01*
G37*
G36*
X0000163Y0000789D02*
X0000163Y0000809D01*
X0000088Y0000809D01*
X0000088Y0000789D01*
X0000163Y0000789D01*
G37*
G36*
X0000163Y0000763D02*
X0000163Y0000783D01*
X0000088Y0000783D01*
X0000088Y0000763D01*
X0000163Y0000763D01*
G37*
G36*
X0000163Y0000738D02*
X0000163Y0000757D01*
X0000088Y0000757D01*
X0000088Y0000738D01*
X0000163Y0000738D01*
G37*
G04 next file*
G04 start of page 6 for group -4063 idx -4063 *
G04 Title: (unknown), componentmask *
G04 Creator: pcb 4.2.0 *
G04 CreationDate: Sat Mar 28 09:12:03 2020 UTC *
G04 For: blinken *
G04 Format: Gerber/RS-274X *
G04 PCB-Dimensions (mm): 65.00 56.00 *
G04 PCB-Coordinate-Origin: lower left *
D78*
X0000104Y0001940D02*
X0000925Y0001940D01*
X0000001Y0002051D02*
X0000001Y0002389D01*
X0000708Y0002389D01*
X0000927Y0003257D02*
X0000927Y0001940D01*
X0000708Y0003257D02*
X0000708Y0002614D01*
X0000708Y0002612D02*
X0000708Y0002389D01*
X0000708Y0003257D02*
X0000927Y0003257D01*
X0000001Y0002049D02*
G75*
G03G03X0000110Y0001940I0000108D01X0000110Y0001940I0000108D01*
G01G01*
D77*
X0000478Y0002131D03*
X0000285Y0002131D03*
D76*
X0000860Y0002401D03*
X0000860Y0002663D03*
X0000860Y0002897D03*
X0000860Y0003159D03*
D75*
X0000844Y0002023D03*
D74*
X0000870Y0002122D03*
X0000870Y0002185D03*
X0000870Y0002246D03*
X0000870Y0002307D03*
D73*
X0000133Y0002000D03*
D74*
X0000870Y0002748D03*
X0000870Y0002812D03*
D72*
G36*
X0000765Y0002492D02*
X0000765Y0002472D01*
X0000840Y0002472D01*
X0000840Y0002492D01*
X0000765Y0002492D01*
G37*
G36*
X0000765Y0002594D02*
X0000765Y0002574D01*
X0000840Y0002574D01*
X0000840Y0002594D01*
X0000765Y0002594D01*
G37*
G36*
X0000765Y0002517D02*
X0000765Y0002497D01*
X0000840Y0002497D01*
X0000840Y0002517D01*
X0000765Y0002517D01*
G37*
G36*
X0000765Y0002543D02*
X0000765Y0002523D01*
X0000840Y0002523D01*
X0000840Y0002543D01*
X0000765Y0002543D01*
G37*
G36*
X0000765Y0002568D02*
X0000765Y0002549D01*
X0000840Y0002549D01*
X0000840Y0002568D01*
X0000765Y0002568D01*
G37*
G36*
X0000765Y0002988D02*
X0000765Y0002968D01*
X0000840Y0002968D01*
X0000840Y0002988D01*
X0000765Y0002988D01*
G37*
G36*
X0000765Y0003090D02*
X0000765Y0003070D01*
X0000840Y0003070D01*
X0000840Y0003090D01*
X0000765Y0003090D01*
G37*
G36*
X0000765Y0003013D02*
X0000765Y0002994D01*
X0000840Y0002994D01*
X0000840Y0003013D01*
X0000765Y0003013D01*
G37*
G36*
X0000765Y0003039D02*
X0000765Y0003019D01*
X0000840Y0003019D01*
X0000840Y0003039D01*
X0000765Y0003039D01*
G37*
G36*
X0000765Y0003065D02*
X0000765Y0003045D01*
X0000840Y0003045D01*
X0000840Y0003065D01*
X0000765Y0003065D01*
G37*
G04 next file*
G04 start of page 6 for group -4063 idx -4063 *
G04 Title: (unknown), componentmask *
G04 Creator: pcb 4.2.0 *
G04 CreationDate: Sat Mar 28 09:12:03 2020 UTC *
G04 For: blinken *
G04 Format: Gerber/RS-274X *
G04 PCB-Dimensions (mm): 65.00 56.00 *
G04 PCB-Coordinate-Origin: lower left *
D85*
X0000824Y0003787D02*
X0000003Y0003787D01*
X0000927Y0003677D02*
X0000927Y0003338D01*
X0000220Y0003338D01*
X0000001Y0002470D02*
X0000001Y0003787D01*
X0000220Y0002470D02*
X0000220Y0003114D01*
X0000220Y0003116D02*
X0000220Y0003338D01*
X0000220Y0002470D02*
X0000001Y0002470D01*
X0000927Y0003679D02*
G75*
G03G03X0000818Y0003787I-0000108D01X0000818Y0003787I-0000108D01*
G01G01*
D84*
X0000450Y0003596D03*
X0000643Y0003596D03*
D83*
X0000068Y0003326D03*
X0000068Y0003064D03*
X0000068Y0002830D03*
X0000068Y0002568D03*
D82*
X0000084Y0003704D03*
D81*
X0000059Y0003606D03*
X0000059Y0003543D03*
X0000059Y0003482D03*
X0000059Y0003421D03*
D80*
X0000795Y0003728D03*
D81*
X0000059Y0002980D03*
X0000059Y0002915D03*
D79*
G36*
X0000163Y0003236D02*
X0000163Y0003255D01*
X0000088Y0003255D01*
X0000088Y0003236D01*
X0000163Y0003236D01*
G37*
G36*
X0000163Y0003133D02*
X0000163Y0003153D01*
X0000088Y0003153D01*
X0000088Y0003133D01*
X0000163Y0003133D01*
G37*
G36*
X0000163Y0003210D02*
X0000163Y0003230D01*
X0000088Y0003230D01*
X0000088Y0003210D01*
X0000163Y0003210D01*
G37*
G36*
X0000163Y0003184D02*
X0000163Y0003204D01*
X0000088Y0003204D01*
X0000088Y0003184D01*
X0000163Y0003184D01*
G37*
G36*
X0000163Y0003159D02*
X0000163Y0003179D01*
X0000088Y0003179D01*
X0000088Y0003159D01*
X0000163Y0003159D01*
G37*
G36*
X0000163Y0002740D02*
X0000163Y0002759D01*
X0000088Y0002759D01*
X0000088Y0002740D01*
X0000163Y0002740D01*
G37*
G36*
X0000163Y0002637D02*
X0000163Y0002657D01*
X0000088Y0002657D01*
X0000088Y0002637D01*
X0000163Y0002637D01*
G37*
G36*
X0000163Y0002714D02*
X0000163Y0002734D01*
X0000088Y0002734D01*
X0000088Y0002714D01*
X0000163Y0002714D01*
G37*
G36*
X0000163Y0002688D02*
X0000163Y0002708D01*
X0000088Y0002708D01*
X0000088Y0002688D01*
X0000163Y0002688D01*
G37*
G36*
X0000163Y0002663D02*
X0000163Y0002683D01*
X0000088Y0002683D01*
X0000088Y0002663D01*
X0000163Y0002663D01*
G37*
M02*