%MOIN*%
%OFA0B0*%
%FSLAX43Y43*%
%IPPOS*%
%LPD*%
%ADD64C,0.005905511811023622*%
%ADD63C,0.01*%
%ADD62C,0.01968503937007874*%
%ADD75C,0.005905511811023622*%
%ADD76C,0.01*%
%ADD77C,0.01968503937007874*%
%ADD78C,0.005905511811023622*%
%ADD79C,0.01*%
%ADD80C,0.01968503937007874*%
%ADD81C,0.005905511811023622*%
%ADD82C,0.01*%
%ADD83C,0.01968503937007874*%
G54D62*
X0000104Y0000011D02*
X0000925Y0000011D01*
X0000001Y0000122D02*
X0000001Y0000460D01*
X0000708Y0000460D01*
X0000927Y0001328D02*
X0000927Y0000011D01*
X0000708Y0001328D02*
X0000708Y0000685D01*
X0000708Y0000683D02*
X0000708Y0000460D01*
X0000708Y0001328D02*
X0000927Y0001328D01*
X0000001Y0000120D02*
G75*
G03G03X0000110Y0000011I0000108D01X0000110Y0000011I0000108D01*
G01G01*
G54D63*
X0000618Y0000336D02*
X0000618Y0000228D01*
X0000104Y0000336D02*
X0000104Y0000228D01*
G54D64*
X0000720Y0000432D02*
X0000734Y0000374D01*
X0000749Y0000432D01*
X0000766Y0000403D02*
X0000795Y0000403D01*
X0000780Y0000418D02*
X0000780Y0000389D01*
X0000729Y0000351D02*
X0000729Y0000294D01*
X0000748Y0000351D02*
X0000758Y0000341D01*
X0000758Y0000304D01*
X0000748Y0000294D02*
X0000758Y0000304D01*
X0000722Y0000294D02*
X0000748Y0000294D01*
X0000722Y0000351D02*
X0000748Y0000351D01*
X0000775Y0000322D02*
X0000804Y0000322D01*
X0000724Y0000180D02*
X0000738Y0000122D01*
X0000753Y0000180D01*
X0000770Y0000151D02*
X0000799Y0000151D01*
X0000729Y0000269D02*
X0000729Y0000211D01*
X0000748Y0000269D02*
X0000758Y0000258D01*
X0000758Y0000221D01*
X0000748Y0000211D02*
X0000758Y0000221D01*
X0000722Y0000211D02*
X0000748Y0000211D01*
X0000722Y0000269D02*
X0000748Y0000269D01*
X0000775Y0000240D02*
X0000804Y0000240D01*
X0000790Y0000254D02*
X0000790Y0000225D01*
X0000732Y0000916D02*
X0000761Y0000916D01*
X0000732Y0000916D02*
X0000732Y0000887D01*
X0000739Y0000895D01*
X0000753Y0000895D01*
X0000761Y0000887D01*
X0000761Y0000866D01*
X0000753Y0000859D02*
X0000761Y0000866D01*
X0000739Y0000859D02*
X0000753Y0000859D01*
X0000732Y0000866D02*
X0000739Y0000859D01*
X0000778Y0000916D02*
X0000792Y0000859D01*
X0000807Y0000916D01*
X0000732Y0000781D02*
X0000739Y0000774D01*
X0000732Y0000824D02*
X0000732Y0000781D01*
X0000732Y0000824D02*
X0000739Y0000832D01*
X0000753Y0000832D01*
X0000761Y0000824D01*
X0000761Y0000781D01*
X0000753Y0000774D02*
X0000761Y0000781D01*
X0000739Y0000774D02*
X0000753Y0000774D01*
X0000732Y0000788D02*
X0000761Y0000817D01*
X0000778Y0000832D02*
X0000792Y0000774D01*
X0000807Y0000832D01*
G54D63*
X0000917Y0000736D02*
X0000917Y0000472D01*
X0000917Y0001232D02*
X0000917Y0000968D01*
G04 next file*
G04 start of page 8 for group -4079 idx -4079 *
G04 Title: (unknown), topsilk *
G04 Creator: pcb 4.2.0 *
G04 CreationDate: Sat Mar 28 09:12:03 2020 UTC *
G04 For: blinken *
G04 Format: Gerber/RS-274X *
G04 PCB-Dimensions (mm): 65.00 56.00 *
G04 PCB-Coordinate-Origin: lower left *
D77*
X0000824Y0001862D02*
X0000003Y0001862D01*
X0000927Y0001751D02*
X0000927Y0001413D01*
X0000220Y0001413D01*
X0000001Y0000545D02*
X0000001Y0001862D01*
X0000220Y0000545D02*
X0000220Y0001188D01*
X0000220Y0001190D02*
X0000220Y0001413D01*
X0000220Y0000545D02*
X0000001Y0000545D01*
X0000927Y0001753D02*
G75*
G03G03X0000818Y0001862I-0000108D01X0000818Y0001862I-0000108D01*
G01G01*
D76*
X0000310Y0001537D02*
X0000310Y0001645D01*
X0000824Y0001537D02*
X0000824Y0001645D01*
D75*
X0000208Y0001441D02*
X0000194Y0001499D01*
X0000179Y0001441D01*
X0000162Y0001470D02*
X0000133Y0001470D01*
X0000148Y0001455D02*
X0000148Y0001484D01*
X0000199Y0001522D02*
X0000199Y0001579D01*
X0000180Y0001522D02*
X0000170Y0001532D01*
X0000170Y0001569D01*
X0000180Y0001579D02*
X0000170Y0001569D01*
X0000206Y0001579D02*
X0000180Y0001579D01*
X0000206Y0001522D02*
X0000180Y0001522D01*
X0000153Y0001551D02*
X0000124Y0001551D01*
X0000204Y0001693D02*
X0000190Y0001751D01*
X0000175Y0001693D01*
X0000158Y0001722D02*
X0000129Y0001722D01*
X0000199Y0001604D02*
X0000199Y0001662D01*
X0000180Y0001604D02*
X0000170Y0001615D01*
X0000170Y0001652D01*
X0000180Y0001662D02*
X0000170Y0001652D01*
X0000206Y0001662D02*
X0000180Y0001662D01*
X0000206Y0001604D02*
X0000180Y0001604D01*
X0000153Y0001633D02*
X0000124Y0001633D01*
X0000138Y0001619D02*
X0000138Y0001648D01*
X0000196Y0000957D02*
X0000167Y0000957D01*
X0000196Y0000957D02*
X0000196Y0000986D01*
X0000189Y0000978D01*
X0000175Y0000978D01*
X0000167Y0000986D01*
X0000167Y0001007D01*
X0000175Y0001014D02*
X0000167Y0001007D01*
X0000189Y0001014D02*
X0000175Y0001014D01*
X0000196Y0001007D02*
X0000189Y0001014D01*
X0000150Y0000957D02*
X0000136Y0001014D01*
X0000121Y0000957D01*
X0000196Y0001092D02*
X0000189Y0001099D01*
X0000196Y0001049D02*
X0000196Y0001092D01*
X0000196Y0001049D02*
X0000189Y0001041D01*
X0000175Y0001041D01*
X0000167Y0001049D01*
X0000167Y0001092D01*
X0000175Y0001099D02*
X0000167Y0001092D01*
X0000189Y0001099D02*
X0000175Y0001099D01*
X0000196Y0001085D02*
X0000167Y0001056D01*
X0000150Y0001041D02*
X0000136Y0001099D01*
X0000121Y0001041D01*
D76*
X0000011Y0001137D02*
X0000011Y0001401D01*
X0000011Y0000641D02*
X0000011Y0000905D01*
G04 next file*
G04 start of page 8 for group -4079 idx -4079 *
G04 Title: (unknown), topsilk *
G04 Creator: pcb 4.2.0 *
G04 CreationDate: Sat Mar 28 09:12:03 2020 UTC *
G04 For: blinken *
G04 Format: Gerber/RS-274X *
G04 PCB-Dimensions (mm): 65.00 56.00 *
G04 PCB-Coordinate-Origin: lower left *
D80*
X0000104Y0001940D02*
X0000925Y0001940D01*
X0000001Y0002051D02*
X0000001Y0002389D01*
X0000708Y0002389D01*
X0000927Y0003257D02*
X0000927Y0001940D01*
X0000708Y0003257D02*
X0000708Y0002614D01*
X0000708Y0002612D02*
X0000708Y0002389D01*
X0000708Y0003257D02*
X0000927Y0003257D01*
X0000001Y0002049D02*
G75*
G03G03X0000110Y0001940I0000108D01X0000110Y0001940I0000108D01*
G01G01*
D79*
X0000618Y0002265D02*
X0000618Y0002157D01*
X0000104Y0002265D02*
X0000104Y0002157D01*
D78*
X0000720Y0002361D02*
X0000734Y0002303D01*
X0000749Y0002361D01*
X0000766Y0002332D02*
X0000795Y0002332D01*
X0000780Y0002347D02*
X0000780Y0002318D01*
X0000729Y0002280D02*
X0000729Y0002223D01*
X0000748Y0002280D02*
X0000758Y0002270D01*
X0000758Y0002233D01*
X0000748Y0002223D02*
X0000758Y0002233D01*
X0000722Y0002223D02*
X0000748Y0002223D01*
X0000722Y0002280D02*
X0000748Y0002280D01*
X0000775Y0002252D02*
X0000804Y0002252D01*
X0000724Y0002109D02*
X0000738Y0002051D01*
X0000753Y0002109D01*
X0000770Y0002080D02*
X0000799Y0002080D01*
X0000729Y0002198D02*
X0000729Y0002140D01*
X0000748Y0002198D02*
X0000758Y0002188D01*
X0000758Y0002150D01*
X0000748Y0002140D02*
X0000758Y0002150D01*
X0000722Y0002140D02*
X0000748Y0002140D01*
X0000722Y0002198D02*
X0000748Y0002198D01*
X0000775Y0002169D02*
X0000804Y0002169D01*
X0000790Y0002183D02*
X0000790Y0002154D01*
X0000732Y0002845D02*
X0000761Y0002845D01*
X0000732Y0002845D02*
X0000732Y0002817D01*
X0000739Y0002824D01*
X0000753Y0002824D01*
X0000761Y0002817D01*
X0000761Y0002795D01*
X0000753Y0002788D02*
X0000761Y0002795D01*
X0000739Y0002788D02*
X0000753Y0002788D01*
X0000732Y0002795D02*
X0000739Y0002788D01*
X0000778Y0002845D02*
X0000792Y0002788D01*
X0000807Y0002845D01*
X0000732Y0002710D02*
X0000739Y0002703D01*
X0000732Y0002753D02*
X0000732Y0002710D01*
X0000732Y0002753D02*
X0000739Y0002761D01*
X0000753Y0002761D01*
X0000761Y0002753D01*
X0000761Y0002710D01*
X0000753Y0002703D02*
X0000761Y0002710D01*
X0000739Y0002703D02*
X0000753Y0002703D01*
X0000732Y0002717D02*
X0000761Y0002746D01*
X0000778Y0002761D02*
X0000792Y0002703D01*
X0000807Y0002761D01*
D79*
X0000917Y0002665D02*
X0000917Y0002401D01*
X0000917Y0003161D02*
X0000917Y0002897D01*
G04 next file*
G04 start of page 8 for group -4079 idx -4079 *
G04 Title: (unknown), topsilk *
G04 Creator: pcb 4.2.0 *
G04 CreationDate: Sat Mar 28 09:12:03 2020 UTC *
G04 For: blinken *
G04 Format: Gerber/RS-274X *
G04 PCB-Dimensions (mm): 65.00 56.00 *
G04 PCB-Coordinate-Origin: lower left *
D83*
X0000824Y0003787D02*
X0000003Y0003787D01*
X0000927Y0003677D02*
X0000927Y0003338D01*
X0000220Y0003338D01*
X0000001Y0002470D02*
X0000001Y0003787D01*
X0000220Y0002470D02*
X0000220Y0003114D01*
X0000220Y0003116D02*
X0000220Y0003338D01*
X0000220Y0002470D02*
X0000001Y0002470D01*
X0000927Y0003679D02*
G75*
G03G03X0000818Y0003787I-0000108D01X0000818Y0003787I-0000108D01*
G01G01*
D82*
X0000310Y0003462D02*
X0000310Y0003570D01*
X0000824Y0003462D02*
X0000824Y0003570D01*
D81*
X0000208Y0003366D02*
X0000194Y0003424D01*
X0000179Y0003366D01*
X0000162Y0003395D02*
X0000133Y0003395D01*
X0000148Y0003381D02*
X0000148Y0003409D01*
X0000199Y0003447D02*
X0000199Y0003505D01*
X0000180Y0003447D02*
X0000170Y0003457D01*
X0000170Y0003495D01*
X0000180Y0003505D02*
X0000170Y0003495D01*
X0000206Y0003505D02*
X0000180Y0003505D01*
X0000206Y0003447D02*
X0000180Y0003447D01*
X0000153Y0003476D02*
X0000124Y0003476D01*
X0000204Y0003618D02*
X0000190Y0003676D01*
X0000175Y0003618D01*
X0000158Y0003647D02*
X0000129Y0003647D01*
X0000199Y0003530D02*
X0000199Y0003587D01*
X0000180Y0003530D02*
X0000170Y0003540D01*
X0000170Y0003577D01*
X0000180Y0003587D02*
X0000170Y0003577D01*
X0000206Y0003587D02*
X0000180Y0003587D01*
X0000206Y0003530D02*
X0000180Y0003530D01*
X0000153Y0003558D02*
X0000124Y0003558D01*
X0000138Y0003544D02*
X0000138Y0003573D01*
X0000196Y0002882D02*
X0000167Y0002882D01*
X0000196Y0002882D02*
X0000196Y0002911D01*
X0000189Y0002904D01*
X0000175Y0002904D01*
X0000167Y0002911D01*
X0000167Y0002932D01*
X0000175Y0002940D02*
X0000167Y0002932D01*
X0000189Y0002940D02*
X0000175Y0002940D01*
X0000196Y0002932D02*
X0000189Y0002940D01*
X0000150Y0002882D02*
X0000136Y0002940D01*
X0000121Y0002882D01*
X0000196Y0003017D02*
X0000189Y0003024D01*
X0000196Y0002974D02*
X0000196Y0003017D01*
X0000196Y0002974D02*
X0000189Y0002967D01*
X0000175Y0002967D01*
X0000167Y0002974D01*
X0000167Y0003017D01*
X0000175Y0003024D02*
X0000167Y0003017D01*
X0000189Y0003024D02*
X0000175Y0003024D01*
X0000196Y0003010D02*
X0000167Y0002981D01*
X0000150Y0002967D02*
X0000136Y0003024D01*
X0000121Y0002967D01*
D82*
X0000011Y0003062D02*
X0000011Y0003326D01*
X0000011Y0002566D02*
X0000011Y0002830D01*
M02*