%MOIN*%
%OFA0B0*%
%FSLAX43Y43*%
%IPPOS*%
%LPD*%
%ADD41C,0.01968503937007874*%
%ADD52C,0.01968503937007874*%
%ADD53C,0.01968503937007874*%
%ADD54C,0.01968503937007874*%
G54D41*
X0000104Y0000011D02*
X0000925Y0000011D01*
X0000001Y0000122D02*
X0000001Y0000460D01*
X0000708Y0000460D01*
X0000927Y0001328D02*
X0000927Y0000011D01*
X0000708Y0001328D02*
X0000708Y0000685D01*
X0000708Y0000683D02*
X0000708Y0000460D01*
X0000708Y0001328D02*
X0000927Y0001328D01*
X0000001Y0000120D02*
G75*
G03G03X0000110Y0000011I0000108D01X0000110Y0000011I0000108D01*
G01G01*
G04 next file*
G04 start of page 4 for group 6 idx 6 *
G04 Title: (unknown), outline *
G04 Creator: pcb 4.2.0 *
G04 CreationDate: Sat Mar 28 09:12:03 2020 UTC *
G04 For: blinken *
G04 Format: Gerber/RS-274X *
G04 PCB-Dimensions (mm): 65.00 56.00 *
G04 PCB-Coordinate-Origin: lower left *
D52*
X0000824Y0001862D02*
X0000003Y0001862D01*
X0000927Y0001751D02*
X0000927Y0001413D01*
X0000220Y0001413D01*
X0000001Y0000545D02*
X0000001Y0001862D01*
X0000220Y0000545D02*
X0000220Y0001188D01*
X0000220Y0001190D02*
X0000220Y0001413D01*
X0000220Y0000545D02*
X0000001Y0000545D01*
X0000927Y0001753D02*
G75*
G03G03X0000818Y0001862I-0000108D01X0000818Y0001862I-0000108D01*
G01G01*
G04 next file*
G04 start of page 4 for group 6 idx 6 *
G04 Title: (unknown), outline *
G04 Creator: pcb 4.2.0 *
G04 CreationDate: Sat Mar 28 09:12:03 2020 UTC *
G04 For: blinken *
G04 Format: Gerber/RS-274X *
G04 PCB-Dimensions (mm): 65.00 56.00 *
G04 PCB-Coordinate-Origin: lower left *
D53*
X0000104Y0001940D02*
X0000925Y0001940D01*
X0000001Y0002051D02*
X0000001Y0002389D01*
X0000708Y0002389D01*
X0000927Y0003257D02*
X0000927Y0001940D01*
X0000708Y0003257D02*
X0000708Y0002614D01*
X0000708Y0002612D02*
X0000708Y0002389D01*
X0000708Y0003257D02*
X0000927Y0003257D01*
X0000001Y0002049D02*
G75*
G03G03X0000110Y0001940I0000108D01X0000110Y0001940I0000108D01*
G01G01*
G04 next file*
G04 start of page 4 for group 6 idx 6 *
G04 Title: (unknown), outline *
G04 Creator: pcb 4.2.0 *
G04 CreationDate: Sat Mar 28 09:12:03 2020 UTC *
G04 For: blinken *
G04 Format: Gerber/RS-274X *
G04 PCB-Dimensions (mm): 65.00 56.00 *
G04 PCB-Coordinate-Origin: lower left *
D54*
X0000824Y0003787D02*
X0000003Y0003787D01*
X0000927Y0003677D02*
X0000927Y0003338D01*
X0000220Y0003338D01*
X0000001Y0002470D02*
X0000001Y0003787D01*
X0000220Y0002470D02*
X0000220Y0003114D01*
X0000220Y0003116D02*
X0000220Y0003338D01*
X0000220Y0002470D02*
X0000001Y0002470D01*
X0000927Y0003679D02*
G75*
G03G03X0000818Y0003787I-0000108D01X0000818Y0003787I-0000108D01*
G01G01*
M02*