%
M48
METRIC,000.000
T01C0.50
%
T01
X022785Y034000
X021785Y034000
X020785Y034000
X019785Y034000
X018785Y034000
X018657Y035649
X019657Y035649
X020657Y035649
X021657Y035649
X022657Y035649
X004728Y060950
X003728Y060950
X002728Y060950
X001728Y060950
X000728Y060950
X001420Y062500
X002420Y062500
X003420Y062500
X004420Y062500
X013443Y047549
X012443Y047549
X011443Y047549
X010443Y047549
X009443Y047549
X008443Y047549
X008370Y049049
X009370Y049049
X010370Y049049
X011370Y049049
X012370Y049049
X013370Y049049
X022785Y083000
X021785Y083000
X020785Y083000
X019785Y083000
X018785Y083000
X018657Y084549
X019657Y084549
X020657Y084549
X021657Y084549
X022657Y084549
X004728Y011949
X003728Y011949
X002728Y011949
X001728Y011949
X000728Y011949
X001420Y013599
X002420Y013599
X003420Y013599
X004420Y013599
M30