%
M48
METRIC,000.000
T47C0.97
T46C0.40
T45C0.65
T44C2.50
T43C1.30
T42C1.50
%
T47
X003399Y001800
X020199Y045799
X003399Y050800
X020199Y094700
T46
X006174Y001899
X017699Y008050
X019349Y030600
X022199Y028150
X022349Y029250
X017424Y045699
X005899Y039549
X004249Y016999
X001399Y019449
X001249Y018349
X006174Y050900
X017699Y057050
X019349Y079600
X022199Y077150
X022349Y078250
X017424Y094600
X005899Y088450
X004249Y065900
X001399Y068350
X001249Y067250
T45
X022099Y022450
X022099Y020799
X022099Y009600
X022099Y008050
X022099Y006500
X022099Y004899
X001499Y025149
X001499Y026799
X001499Y037999
X001499Y039549
X001499Y041099
X001499Y042699
X022099Y071450
X022099Y069800
X022099Y058600
X022099Y057050
X022099Y055500
X022099Y053900
X001499Y074050
X001499Y075700
X001499Y086900
X001499Y088450
X001499Y090000
X001499Y091600
T44
X021449Y002399
X002149Y045199
X021449Y051400
X002149Y094100
T43
X021849Y031250
X021849Y024600
X021849Y018650
X021849Y012000
X001749Y016349
X001749Y022999
X001749Y028949
X001749Y035599
X021849Y080250
X021849Y073600
X021849Y067650
X021849Y061000
X001749Y065250
X001749Y071900
X001749Y077850
X001749Y084500
T42
X007249Y005149
X012149Y005149
X016349Y042449
X011449Y042449
X007249Y054150
X012149Y054150
X016349Y091350
X011449Y091350
M30