%MOIN*%
%OFA0B0*%
%FSLAX44Y44*%
%IPPOS*%
%LPD*%
%ADD10C,0*%
D10*
X00007086Y00032578D02*
X00007086Y00032578D01*
X00007086Y00023897D01*
X00002004Y00023897D01*
X00001981Y00023898D01*
X00001959Y00023900D01*
X00001936Y00023903D01*
X00001914Y00023907D01*
X00001892Y00023913D01*
X00001871Y00023920D01*
X00001850Y00023929D01*
X00001829Y00023938D01*
X00001809Y00023949D01*
X00001790Y00023960D01*
X00001771Y00023973D01*
X00001754Y00023987D01*
X00001737Y00024002D01*
X00001720Y00024018D01*
X00001705Y00024034D01*
X00001691Y00024052D01*
X00001678Y00024070D01*
X00001666Y00024089D01*
X00001655Y00024109D01*
X00001645Y00024129D01*
X00001636Y00024149D01*
X00001622Y00024186D01*
X00001611Y00024223D01*
X00001604Y00024262D01*
X00001602Y00024301D01*
X00001603Y00024340D01*
X00001607Y00024379D01*
X00001616Y00024417D01*
X00001629Y00024455D01*
X00001645Y00024490D01*
X00001665Y00024524D01*
X00001687Y00024556D01*
X00001713Y00024586D01*
X00001742Y00024612D01*
X00001773Y00024636D01*
X00001807Y00024656D01*
X00001842Y00024673D01*
X00001879Y00024687D01*
X00001917Y00024696D01*
X00001956Y00024702D01*
X00001995Y00024704D01*
X00002204Y00024704D01*
X00002204Y00033385D01*
X00007340Y00033385D01*
X00007388Y00033382D01*
X00007436Y00033373D01*
X00007483Y00033358D01*
X00007527Y00033338D01*
X00007569Y00033312D01*
X00007606Y00033281D01*
X00007640Y00033246D01*
X00007669Y00033207D01*
X00007694Y00033164D01*
X00007712Y00033119D01*
X00007725Y00033072D01*
X00007732Y00033024D01*
X00007733Y00032975D01*
X00007728Y00032927D01*
X00007717Y00032879D01*
X00007700Y00032833D01*
X00007678Y00032790D01*
X00007650Y00032750D01*
X00007618Y00032713D01*
X00007581Y00032681D01*
X00007556Y00032661D01*
X00007545Y00032653D01*
X00007535Y00032646D01*
X00007524Y00032639D01*
X00007513Y00032632D01*
X00007501Y00032626D01*
X00007490Y00032620D01*
X00007478Y00032614D01*
X00007466Y00032609D01*
X00007454Y00032604D01*
X00007442Y00032600D01*
X00007430Y00032595D01*
X00007417Y00032592D01*
X00007405Y00032589D01*
X00007392Y00032586D01*
X00007379Y00032584D01*
X00007366Y00032582D01*
X00007353Y00032580D01*
X00007340Y00032579D01*
X00007327Y00032578D01*
X00007314Y00032578D01*
X00007086Y00032578D01*
X00007086Y00013287D02*
X00007086Y00013287D01*
X00007086Y00004606D01*
X00002064Y00004606D01*
X00002030Y00004607D01*
X00001997Y00004612D01*
X00001964Y00004619D01*
X00001931Y00004629D01*
X00001900Y00004642D01*
X00001869Y00004658D01*
X00001841Y00004676D01*
X00001813Y00004696D01*
X00001788Y00004719D01*
X00001765Y00004744D01*
X00001744Y00004771D01*
X00001726Y00004799D01*
X00001710Y00004829D01*
X00001696Y00004860D01*
X00001686Y00004893D01*
X00001678Y00004926D01*
X00001673Y00004960D01*
X00001671Y00004993D01*
X00001672Y00005027D01*
X00001676Y00005061D01*
X00001685Y00005120D01*
X00001690Y00005148D01*
X00001698Y00005174D01*
X00001707Y00005201D01*
X00001718Y00005226D01*
X00001730Y00005251D01*
X00001745Y00005275D01*
X00001761Y00005297D01*
X00001779Y00005319D01*
X00001798Y00005339D01*
X00001818Y00005358D01*
X00001840Y00005375D01*
X00001863Y00005391D01*
X00001887Y00005405D01*
X00001912Y00005417D01*
X00001938Y00005428D01*
X00001964Y00005437D01*
X00001991Y00005443D01*
X00002018Y00005448D01*
X00002046Y00005451D01*
X00002074Y00005452D01*
X00002204Y00005452D01*
X00002204Y00014133D01*
X00007349Y00014133D01*
X00007363Y00014133D01*
X00007378Y00014132D01*
X00007392Y00014131D01*
X00007406Y00014129D01*
X00007420Y00014127D01*
X00007435Y00014124D01*
X00007449Y00014121D01*
X00007462Y00014117D01*
X00007476Y00014112D01*
X00007490Y00014107D01*
X00007503Y00014102D01*
X00007516Y00014096D01*
X00007529Y00014090D01*
X00007542Y00014083D01*
X00007554Y00014076D01*
X00007566Y00014068D01*
X00007578Y00014060D01*
X00007590Y00014051D01*
X00007601Y00014042D01*
X00007612Y00014033D01*
X00007678Y00013974D01*
X00007711Y00013940D01*
X00007740Y00013903D01*
X00007764Y00013862D01*
X00007784Y00013818D01*
X00007798Y00013773D01*
X00007806Y00013726D01*
X00007809Y00013679D01*
X00007805Y00013632D01*
X00007797Y00013585D01*
X00007783Y00013540D01*
X00007763Y00013497D01*
X00007738Y00013456D01*
X00007709Y00013419D01*
X00007675Y00013385D01*
X00007638Y00013356D01*
X00007597Y00013332D01*
X00007554Y00013312D01*
X00007509Y00013298D01*
X00007462Y00013290D01*
X00007415Y00013287D01*
X00007086Y00013287D01*
X00009271Y00000118D02*
X00009271Y00000118D01*
X00009271Y00013287D01*
X00009120Y00013287D01*
X00009072Y00013290D01*
X00009026Y00013298D01*
X00008980Y00013312D01*
X00008937Y00013332D01*
X00008896Y00013356D01*
X00008859Y00013385D01*
X00008825Y00013419D01*
X00008796Y00013456D01*
X00008771Y00013497D01*
X00008752Y00013540D01*
X00008738Y00013585D01*
X00008729Y00013632D01*
X00008726Y00013679D01*
X00008729Y00013726D01*
X00008737Y00013773D01*
X00008751Y00013818D01*
X00008770Y00013862D01*
X00008794Y00013903D01*
X00008823Y00013940D01*
X00008857Y00013974D01*
X00008923Y00014033D01*
X00008934Y00014042D01*
X00008945Y00014051D01*
X00008956Y00014060D01*
X00008968Y00014068D01*
X00008980Y00014076D01*
X00008993Y00014083D01*
X00009005Y00014090D01*
X00009018Y00014096D01*
X00009031Y00014102D01*
X00009045Y00014107D01*
X00009058Y00014112D01*
X00009072Y00014117D01*
X00009086Y00014121D01*
X00009100Y00014124D01*
X00009114Y00014127D01*
X00009128Y00014129D01*
X00009142Y00014131D01*
X00009157Y00014132D01*
X00009171Y00014133D01*
X00009185Y00014133D01*
X00009271Y00014133D01*
X00009271Y00017539D01*
X00009258Y00017708D01*
X00009218Y00017873D01*
X00009153Y00018030D01*
X00009064Y00018175D01*
X00008954Y00018304D01*
X00008825Y00018415D01*
X00008680Y00018504D01*
X00008523Y00018569D01*
X00008358Y00018608D01*
X00008248Y00018622D01*
X00005527Y00018622D01*
X00005496Y00018623D01*
X00005465Y00018626D01*
X00005435Y00018632D01*
X00005405Y00018641D01*
X00005376Y00018652D01*
X00005348Y00018664D01*
X00005321Y00018680D01*
X00005296Y00018697D01*
X00005271Y00018716D01*
X00005249Y00018737D01*
X00005228Y00018760D01*
X00005208Y00018784D01*
X00005191Y00018810D01*
X00005176Y00018837D01*
X00005163Y00018865D01*
X00005153Y00018894D01*
X00005144Y00018923D01*
X00005138Y00018954D01*
X00005134Y00018984D01*
X00005527Y00019015D01*
X00005134Y00019046D01*
X00005138Y00019077D01*
X00005144Y00019107D01*
X00005153Y00019137D01*
X00005163Y00019166D01*
X00005176Y00019194D01*
X00005191Y00019221D01*
X00005208Y00019247D01*
X00005228Y00019271D01*
X00005249Y00019294D01*
X00005271Y00019315D01*
X00005296Y00019334D01*
X00005321Y00019351D01*
X00005348Y00019366D01*
X00005376Y00019379D01*
X00005405Y00019390D01*
X00005435Y00019398D01*
X00005465Y00019404D01*
X00005496Y00019408D01*
X00005527Y00019409D01*
X00009271Y00019409D01*
X00009271Y00032578D01*
X00009220Y00032578D01*
X00009207Y00032578D01*
X00009194Y00032579D01*
X00009181Y00032580D01*
X00009168Y00032582D01*
X00009155Y00032584D01*
X00009143Y00032586D01*
X00009130Y00032589D01*
X00009117Y00032592D01*
X00009105Y00032595D01*
X00009092Y00032600D01*
X00009080Y00032604D01*
X00009068Y00032609D01*
X00009056Y00032614D01*
X00009045Y00032620D01*
X00009033Y00032626D01*
X00009022Y00032632D01*
X00009011Y00032639D01*
X00009000Y00032646D01*
X00008989Y00032653D01*
X00008979Y00032661D01*
X00008953Y00032681D01*
X00008917Y00032713D01*
X00008884Y00032750D01*
X00008857Y00032790D01*
X00008834Y00032833D01*
X00008817Y00032879D01*
X00008806Y00032927D01*
X00008801Y00032975D01*
X00008802Y00033024D01*
X00008809Y00033072D01*
X00008822Y00033119D01*
X00008841Y00033164D01*
X00008865Y00033207D01*
X00008894Y00033246D01*
X00008928Y00033281D01*
X00008966Y00033312D01*
X00009007Y00033338D01*
X00009052Y00033358D01*
X00009098Y00033373D01*
X00009146Y00033382D01*
X00009195Y00033385D01*
X00009271Y00033385D01*
X00009271Y00036791D01*
X00009258Y00036960D01*
X00009218Y00037125D01*
X00009153Y00037282D01*
X00009064Y00037427D01*
X00008954Y00037556D01*
X00008825Y00037667D01*
X00008680Y00037756D01*
X00008523Y00037821D01*
X00008358Y00037860D01*
X00008248Y00037874D01*
X00000019Y00037874D01*
X00000019Y00024704D01*
X00000209Y00024704D01*
X00000248Y00024702D01*
X00000287Y00024696D01*
X00000325Y00024687D01*
X00000361Y00024673D01*
X00000397Y00024656D01*
X00000430Y00024636D01*
X00000462Y00024612D01*
X00000490Y00024586D01*
X00000516Y00024556D01*
X00000539Y00024524D01*
X00000559Y00024490D01*
X00000575Y00024455D01*
X00000588Y00024417D01*
X00000596Y00024379D01*
X00000601Y00024340D01*
X00000602Y00024301D01*
X00000599Y00024262D01*
X00000593Y00024223D01*
X00000582Y00024186D01*
X00000568Y00024149D01*
X00000559Y00024129D01*
X00000549Y00024109D01*
X00000538Y00024089D01*
X00000526Y00024070D01*
X00000513Y00024052D01*
X00000498Y00024034D01*
X00000483Y00024018D01*
X00000467Y00024002D01*
X00000450Y00023987D01*
X00000432Y00023973D01*
X00000414Y00023960D01*
X00000394Y00023949D01*
X00000374Y00023938D01*
X00000354Y00023929D01*
X00000333Y00023920D01*
X00000311Y00023913D01*
X00000289Y00023907D01*
X00000267Y00023903D01*
X00000245Y00023900D01*
X00000222Y00023898D01*
X00000200Y00023897D01*
X00000019Y00023897D01*
X00000019Y00020492D01*
X00000033Y00020322D01*
X00000072Y00020157D01*
X00000137Y00020000D01*
X00000226Y00019855D01*
X00000336Y00019726D01*
X00000465Y00019616D01*
X00000610Y00019527D01*
X00000767Y00019462D01*
X00000932Y00019422D01*
X00001043Y00019409D01*
X00003133Y00019409D01*
X00003133Y00019409D01*
X00003195Y00019404D01*
X00003255Y00019390D01*
X00003312Y00019366D01*
X00003365Y00019334D01*
X00003412Y00019294D01*
X00003452Y00019247D01*
X00003484Y00019194D01*
X00003508Y00019137D01*
X00003522Y00019077D01*
X00003527Y00019015D01*
X00003522Y00018954D01*
X00003508Y00018894D01*
X00003484Y00018837D01*
X00003452Y00018784D01*
X00003412Y00018737D01*
X00003365Y00018697D01*
X00003312Y00018664D01*
X00003255Y00018641D01*
X00003195Y00018626D01*
X00003133Y00018622D01*
X00000019Y00018622D01*
X00000019Y00005452D01*
X00000287Y00005452D01*
X00000315Y00005451D01*
X00000343Y00005448D01*
X00000370Y00005443D01*
X00000397Y00005437D01*
X00000424Y00005428D01*
X00000449Y00005417D01*
X00000474Y00005405D01*
X00000498Y00005391D01*
X00000521Y00005375D01*
X00000543Y00005358D01*
X00000564Y00005339D01*
X00000583Y00005319D01*
X00000600Y00005297D01*
X00000616Y00005275D01*
X00000631Y00005251D01*
X00000644Y00005226D01*
X00000655Y00005201D01*
X00000664Y00005174D01*
X00000671Y00005148D01*
X00000676Y00005120D01*
X00000686Y00005061D01*
X00000689Y00005027D01*
X00000690Y00004993D01*
X00000688Y00004960D01*
X00000683Y00004926D01*
X00000676Y00004893D01*
X00000665Y00004860D01*
X00000652Y00004829D01*
X00000636Y00004799D01*
X00000617Y00004771D01*
X00000596Y00004744D01*
X00000573Y00004719D01*
X00000548Y00004696D01*
X00000521Y00004676D01*
X00000492Y00004658D01*
X00000462Y00004642D01*
X00000430Y00004629D01*
X00000398Y00004619D01*
X00000364Y00004612D01*
X00000331Y00004607D01*
X00000297Y00004606D01*
X00000019Y00004606D01*
X00000019Y00001200D01*
X00000033Y00001031D01*
X00000072Y00000866D01*
X00000137Y00000709D01*
X00000226Y00000564D01*
X00000336Y00000435D01*
X00000465Y00000324D01*
X00000610Y00000236D01*
X00000767Y00000171D01*
X00000932Y00000131D01*
X00001043Y00000118D01*
X00009271Y00000118D01*
M02*