G04 start of page 8 for group -4079 idx -4079 *
G04 Title: (unknown), topsilk *
G04 Creator: pcb 4.2.0 *
G04 CreationDate: Fri Jan  3 20:58:43 2020 UTC *
G04 For: blinken *
G04 Format: Gerber/RS-274X *
G04 PCB-Dimensions (mil): 3149.61 3149.61 *
G04 PCB-Coordinate-Origin: lower left *
%MOIN*%
%FSLAX25Y25*%
%LNTOPSILK*%
%ADD58C,0.0100*%
%ADD57C,0.0080*%
G54D57*X162992Y251543D02*Y248543D01*
Y251543D02*X163692Y252543D01*
X164792D01*
X165492Y251543D01*
Y248543D01*
X162992Y250543D02*X165492D01*
X167192Y252543D02*Y248543D01*
X168492Y252543D02*X169192Y251843D01*
Y249243D01*
X168492Y248543D02*X169192Y249243D01*
X166692Y248543D02*X168492D01*
X166692Y252543D02*X168492D01*
X172392D02*X172892Y252043D01*
X170892Y252543D02*X172392D01*
X170392Y252043D02*X170892Y252543D01*
X170392Y252043D02*Y251043D01*
X170892Y250543D01*
X172392D01*
X172892Y250043D01*
Y249043D01*
X172392Y248543D02*X172892Y249043D01*
X170892Y248543D02*X172392D01*
X170392Y249043D02*X170892Y248543D01*
X174092Y250543D02*X176092D01*
X177292Y248543D02*X179292D01*
X179792Y249043D01*
Y250243D02*Y249043D01*
X179292Y250743D02*X179792Y250243D01*
X177792Y250743D02*X179292D01*
X177792Y252543D02*Y248543D01*
X177292Y252543D02*X179292D01*
X179792Y252043D01*
Y251243D01*
X179292Y250743D02*X179792Y251243D01*
X182792Y252543D02*X183792D01*
X183292D02*Y248543D01*
X182792D02*X183792D01*
X184992Y252543D02*Y248543D01*
Y252543D02*X187492Y248543D01*
Y252543D02*Y248543D01*
X189192Y252543D02*Y248543D01*
X190492Y252543D02*X191192Y251843D01*
Y249243D01*
X190492Y248543D02*X191192Y249243D01*
X188692Y248543D02*X190492D01*
X188692Y252543D02*X190492D01*
X192392D02*X193392D01*
X192892D02*Y248543D01*
X192392D02*X193392D01*
X195292D02*X196592D01*
X194592Y249243D02*X195292Y248543D01*
X194592Y251843D02*Y249243D01*
Y251843D02*X195292Y252543D01*
X196592D01*
X197792Y251543D02*Y248543D01*
Y251543D02*X198492Y252543D01*
X199592D01*
X200292Y251543D01*
Y248543D01*
X197792Y250543D02*X200292D01*
X201492Y252543D02*X203492D01*
X202492D02*Y248543D01*
X204692Y252043D02*Y249043D01*
Y252043D02*X205192Y252543D01*
X206192D01*
X206692Y252043D01*
Y249043D01*
X206192Y248543D02*X206692Y249043D01*
X205192Y248543D02*X206192D01*
X204692Y249043D02*X205192Y248543D01*
X207892Y252543D02*X209892D01*
X210392Y252043D01*
Y251043D01*
X209892Y250543D02*X210392Y251043D01*
X208392Y250543D02*X209892D01*
X208392Y252543D02*Y248543D01*
X209192Y250543D02*X210392Y248543D01*
X213392Y252543D02*X214392Y248543D01*
X215392Y252543D01*
X216592Y251743D02*X217392Y252543D01*
Y248543D01*
X216592D02*X218092D01*
X219292D02*X219792D01*
X220992Y251743D02*X221792Y252543D01*
Y248543D01*
X220992D02*X222492D01*
X93429Y252537D02*Y248537D01*
X92929Y252537D02*X94929D01*
X95429Y252037D01*
Y251037D01*
X94929Y250537D02*X95429Y251037D01*
X93429Y250537D02*X94929D01*
X96629Y251537D02*Y248537D01*
Y251537D02*X97329Y252537D01*
X98429D01*
X99129Y251537D01*
Y248537D01*
X96629Y250537D02*X99129D01*
X100329Y252537D02*X102329D01*
X101329D02*Y248537D01*
X103529Y252537D02*X105529D01*
X106029Y252037D01*
Y251037D01*
X105529Y250537D02*X106029Y251037D01*
X104029Y250537D02*X105529D01*
X104029Y252537D02*Y248537D01*
X104829Y250537D02*X106029Y248537D01*
X107229Y252537D02*X108229D01*
X107729D02*Y248537D01*
X107229D02*X108229D01*
X110129D02*X111429D01*
X109429Y249237D02*X110129Y248537D01*
X109429Y251837D02*Y249237D01*
Y251837D02*X110129Y252537D01*
X111429D01*
X112629D02*Y248537D01*
Y250537D02*X114629Y252537D01*
X112629Y250537D02*X114629Y248537D01*
X118329D02*X119629D01*
X117629Y249237D02*X118329Y248537D01*
X117629Y251837D02*Y249237D01*
Y251837D02*X118329Y252537D01*
X119629D01*
X120829Y252037D02*Y249037D01*
Y252037D02*X121329Y252537D01*
X122329D01*
X122829Y252037D01*
Y249037D01*
X122329Y248537D02*X122829Y249037D01*
X121329Y248537D02*X122329D01*
X120829Y249037D02*X121329Y248537D01*
X124029Y252537D02*Y248537D01*
X126029D01*
X127229Y250737D02*X128729D01*
X127229Y248537D02*X129229D01*
X127229Y252537D02*Y248537D01*
Y252537D02*X129229D01*
X130429D02*Y248537D01*
Y252537D02*X131929Y250537D01*
X133429Y252537D01*
Y248537D01*
X134629Y251537D02*Y248537D01*
Y251537D02*X135329Y252537D01*
X136429D01*
X137129Y251537D01*
Y248537D01*
X134629Y250537D02*X137129D01*
X138329Y252537D02*Y248537D01*
Y252537D02*X140829Y248537D01*
Y252537D02*Y248537D01*
X143829Y252037D02*X144329Y252537D01*
X145829D01*
X146329Y252037D01*
Y251037D01*
X143829Y248537D02*X146329Y251037D01*
X143829Y248537D02*X146329D01*
X147529Y249037D02*X148029Y248537D01*
X147529Y252037D02*Y249037D01*
Y252037D02*X148029Y252537D01*
X149029D01*
X149529Y252037D01*
Y249037D01*
X149029Y248537D02*X149529Y249037D01*
X148029Y248537D02*X149029D01*
X147529Y249537D02*X149529Y251537D01*
X150729Y252037D02*X151229Y252537D01*
X152729D01*
X153229Y252037D01*
Y251037D01*
X150729Y248537D02*X153229Y251037D01*
X150729Y248537D02*X153229D01*
X154429Y249037D02*X154929Y248537D01*
X154429Y252037D02*Y249037D01*
Y252037D02*X154929Y252537D01*
X155929D01*
X156429Y252037D01*
Y249037D01*
X155929Y248537D02*X156429Y249037D01*
X154929Y248537D02*X155929D01*
X154429Y249537D02*X156429Y251537D01*
G54D58*X31102Y72835D02*Y89370D01*
Y72835D02*X52362D01*
X52362Y89370D01*
X31102Y89370D02*X52362Y89370D01*
X25197Y94488D02*Y111024D01*
Y94488D02*X46457D01*
X46457Y111024D01*
X25197Y111024D02*X46457Y111024D01*
X93401Y109141D02*X136708D01*
Y65834D01*
X93401D01*
Y109141D01*
X92126Y29921D02*X75591Y29921D01*
X92126Y29921D02*X92126Y51181D01*
X75591Y51181D01*
X75591Y29921D02*X75591Y51181D01*
X59464Y45744D02*X47772Y57437D01*
X59464Y45744D02*X74497Y60777D01*
X62805Y72470D01*
X47772Y57437D02*X62805Y72470D01*
X175591Y11417D02*X159055Y11417D01*
X175591Y11417D02*X175591Y32677D01*
X159055Y32677D01*
X159055Y11417D02*X159055Y32677D01*
X153937Y11024D02*X137402Y11024D01*
X153937Y11024D02*X153937Y32283D01*
X137402Y32283D01*
X137402Y11024D02*X137402Y32283D01*
X133465Y15748D02*X116929Y15748D01*
X133465Y15748D02*X133465Y37008D01*
X116929Y37008D01*
X116929Y15748D02*X116929Y37008D01*
X112992Y22441D02*X96457Y22441D01*
X112992Y22441D02*X112992Y43701D01*
X96457Y43701D01*
X96457Y22441D02*X96457Y43701D01*
X75827Y181693D02*X126220D01*
X75827D02*Y121063D01*
X126220D01*
Y181693D02*Y121063D01*
G54D57*X208583Y190551D02*X213307D01*
X208583Y198031D02*X213307D01*
X179252Y84685D02*X183976D01*
X179252Y77205D02*X183976D01*
G54D58*X47795Y216299D02*X247795D01*
Y236299D02*Y216299D01*
X47795Y236299D02*X247795D01*
X47795D02*Y216299D01*
X57795Y226299D02*Y216299D01*
X47795Y226299D02*X57795D01*
X166675Y172498D02*X229667D01*
Y109506D01*
X166675D01*
Y172498D01*
X159785Y179388D02*Y102616D01*
X236557D01*
Y179388D01*
X159785D01*
X117717Y299606D02*X134252D01*
X117717D02*Y278346D01*
X134252D01*
Y299606D02*Y278346D01*
X139370Y303543D02*X155906D01*
X139370D02*Y282283D01*
X155906D01*
Y303543D02*Y282283D01*
X160630Y303150D02*X177165D01*
X160630D02*Y281890D01*
X177165D01*
Y303150D02*Y281890D01*
X181496Y298819D02*X198031D01*
X181496D02*Y277559D01*
X198031D01*
Y298819D02*Y277559D01*
X202362Y291732D02*X218898D01*
X202362D02*Y270472D01*
X218898D01*
Y291732D02*Y270472D01*
X223622Y286220D02*X240157D01*
X223622D02*Y264961D01*
X240157D01*
Y286220D02*Y264961D01*
G54D57*X232795Y190551D02*X237519D01*
X232795Y198031D02*X237519D01*
G54D58*X300394Y192913D02*X300394Y176378D01*
X300394Y192913D02*X279134Y192913D01*
Y176378D01*
X300394D02*X279134D01*
X252481Y271535D02*X264173Y259843D01*
X252481Y271535D02*X237448Y256502D01*
X249140Y244810D01*
X264173Y259843D02*X249140Y244810D01*
X282677Y253937D02*X282677Y237402D01*
X282677Y253937D02*X261417Y253937D01*
Y237402D01*
X282677D02*X261417D01*
X294488Y213780D02*X294488Y197244D01*
X294488Y213780D02*X273228Y213780D01*
Y197244D01*
X294488D02*X273228D01*
X303543Y172441D02*X303543Y155906D01*
X303543Y172441D02*X282283Y172441D01*
Y155906D01*
X303543D02*X282283D01*
X303543Y151968D02*X303543Y135433D01*
X303543Y151968D02*X282283Y151969D01*
Y135433D01*
X303543D02*X282283D01*
X76378Y285827D02*X92913D01*
X76378D02*Y264567D01*
X92913D01*
Y285827D02*Y264567D01*
X96457Y292520D02*X112992D01*
X96457D02*Y271260D01*
X112992D01*
Y292520D02*Y271260D01*
X16142Y115354D02*Y131890D01*
Y115354D02*X37402D01*
X37402Y131890D01*
X16142Y131890D02*X37402Y131890D01*
X12205Y135630D02*Y152165D01*
Y135630D02*X33465D01*
X33465Y152165D01*
X12205Y152165D02*X33465Y152165D01*
X11417Y155709D02*Y172244D01*
Y155709D02*X32677D01*
X32677Y172244D01*
X11417Y172244D02*X32677Y172244D01*
X14173Y176181D02*Y192717D01*
Y176181D02*X35433D01*
X35433Y192717D01*
X14173Y192717D02*X35433Y192717D01*
X22047Y197244D02*Y213780D01*
Y197244D02*X43307D01*
X43307Y213780D01*
X22047Y213780D02*X43307Y213780D01*
X49725Y261536D02*X61417Y273228D01*
X49725Y261536D02*X64758Y246503D01*
X76450Y258195D01*
X61417Y273228D02*X76450Y258195D01*
X31496Y237795D02*Y254331D01*
Y237795D02*X52756D01*
X52756Y254331D01*
X31496Y254331D02*X52756Y254331D01*
X281496Y88583D02*X281496Y72047D01*
X281496Y88583D02*X260236Y88583D01*
Y72047D01*
X281496D02*X260236D01*
X265629Y56968D02*X253937Y45276D01*
X265629Y56968D02*X250596Y72001D01*
X238904Y60309D01*
X253937Y45276D02*X238904Y60309D01*
X240157Y30315D02*X223622Y30315D01*
X240157Y30315D02*X240157Y51575D01*
X223622Y51575D01*
X223622Y30315D02*X223622Y51575D01*
X299606Y130709D02*X299606Y114173D01*
X299606Y130709D02*X278346Y130709D01*
Y114173D01*
X299606D02*X278346D01*
X288583Y109843D02*X288583Y93307D01*
X288583Y109843D02*X267323Y109843D01*
Y93307D01*
X288583D02*X267323D01*
X218110Y23228D02*X201575Y23228D01*
X218110Y23228D02*X218110Y44488D01*
X201575Y44488D01*
X201575Y23228D02*X201575Y44488D01*
X197638Y15354D02*X181102Y15354D01*
X197638Y15354D02*X197638Y36614D01*
X181102Y36614D01*
X181102Y15354D02*X181102Y36614D01*
G54D57*X204007Y201102D02*X205307D01*
X203307Y201802D02*X204007Y201102D01*
X203307Y204402D02*Y201802D01*
Y204402D02*X204007Y205102D01*
X205307D01*
X206507Y204302D02*X207307Y205102D01*
Y201102D01*
X206507D02*X208007D01*
X174173Y92976D02*X176173D01*
X176673Y92476D01*
Y91476D01*
X176173Y90976D02*X176673Y91476D01*
X174673Y90976D02*X176173D01*
X174673Y92976D02*Y88976D01*
X175473Y90976D02*X176673Y88976D01*
X177873Y92176D02*X178673Y92976D01*
Y88976D01*
X177873D02*X179373D01*
X228928Y200984D02*X230228D01*
X228228Y201684D02*X228928Y200984D01*
X228228Y204284D02*Y201684D01*
Y204284D02*X228928Y204984D01*
X230228D01*
X231428Y204484D02*X231928Y204984D01*
X233428D01*
X233928Y204484D01*
Y203484D01*
X231428Y200984D02*X233928Y203484D01*
X231428Y200984D02*X233928D01*
X164147Y186262D02*X164647Y185762D01*
X162647Y186262D02*X164147D01*
X162147Y185762D02*X162647Y186262D01*
X162147Y185762D02*Y182762D01*
X162647Y182262D01*
X164147D01*
X164647Y182762D01*
Y183762D02*Y182762D01*
X164147Y184262D02*X164647Y183762D01*
X163147Y184262D02*X164147D01*
X166347Y186262D02*Y182262D01*
X165847Y186262D02*X167847D01*
X168347Y185762D01*
Y184762D01*
X167847Y184262D02*X168347Y184762D01*
X166347Y184262D02*X167847D01*
X171547Y186262D02*X172047Y185762D01*
X170047Y186262D02*X171547D01*
X169547Y185762D02*X170047Y186262D01*
X169547Y185762D02*Y184762D01*
X170047Y184262D01*
X171547D01*
X172047Y183762D01*
Y182762D01*
X171547Y182262D02*X172047Y182762D01*
X170047Y182262D02*X171547D01*
X169547Y182762D02*X170047Y182262D01*
X173247Y185462D02*X174047Y186262D01*
Y182262D01*
X173247D02*X174747D01*
X289386Y138492D02*X293386D01*
X289386Y139992D02*Y137992D01*
Y139992D02*X289886Y140492D01*
X290886D01*
X291386Y139992D02*X290886Y140492D01*
X291386Y139992D02*Y138492D01*
X293386Y141692D02*X289386Y144192D01*
Y141692D02*X293386Y144192D01*
X290186Y145392D02*X289386Y146192D01*
X293386D01*
Y146892D02*Y145392D01*
X291886Y148092D02*X289386Y150092D01*
X291886Y150592D02*Y148092D01*
X289386Y150092D02*X293386D01*
X286630Y117626D02*X290630D01*
X286630Y119126D02*Y117126D01*
Y119126D02*X287130Y119626D01*
X288130D01*
X288630Y119126D02*X288130Y119626D01*
X288630Y119126D02*Y117626D01*
X290630Y120826D02*X286630Y123326D01*
Y120826D02*X290630Y123326D01*
X287430Y124526D02*X286630Y125326D01*
X290630D01*
Y126026D02*Y124526D01*
X286630Y129226D02*Y127226D01*
X288630D01*
X288130Y127726D01*
Y128726D02*Y127726D01*
Y128726D02*X288630Y129226D01*
X290130D01*
X290630Y128726D02*X290130Y129226D01*
X290630Y128726D02*Y127726D01*
X290130Y127226D02*X290630Y127726D01*
X290173Y159358D02*X294173D01*
X290173Y160858D02*Y158858D01*
Y160858D02*X290673Y161358D01*
X291673D01*
X292173Y160858D02*X291673Y161358D01*
X292173Y160858D02*Y159358D01*
X294173Y162558D02*X290173Y165058D01*
Y162558D02*X294173Y165058D01*
X290973Y166258D02*X290173Y167058D01*
X294173D01*
Y167758D02*Y166258D01*
X290673Y168958D02*X290173Y169458D01*
Y170458D02*Y169458D01*
Y170458D02*X290673Y170958D01*
X294173Y170458D02*X293673Y170958D01*
X294173Y170458D02*Y169458D01*
X293673Y168958D02*X294173Y169458D01*
X291973Y170458D02*Y169458D01*
X290673Y170958D02*X291473D01*
X292473D02*X293673D01*
X292473D02*X291973Y170458D01*
X291473Y170958D02*X291973Y170458D01*
X280921Y199909D02*X284921D01*
X280921Y201409D02*Y199409D01*
Y201409D02*X281421Y201909D01*
X282421D01*
X282921Y201409D02*X282421Y201909D01*
X282921Y201409D02*Y199909D01*
X284921Y203109D02*X280921Y205609D01*
Y203109D02*X284921Y205609D01*
X281721Y206809D02*X280921Y207609D01*
X284921D01*
Y208309D02*Y206809D01*
X281721Y209509D02*X280921Y210309D01*
X284921D01*
Y211009D02*Y209509D01*
X287811Y179043D02*X291811D01*
X287811Y180543D02*Y178543D01*
Y180543D02*X288311Y181043D01*
X289311D01*
X289811Y180543D02*X289311Y181043D01*
X289811Y180543D02*Y179043D01*
X291811Y182243D02*X287811Y184743D01*
Y182243D02*X291811Y184743D01*
X288611Y185943D02*X287811Y186743D01*
X291811D01*
Y187443D02*Y185943D01*
X288311Y188643D02*X287811Y189143D01*
Y190643D02*Y189143D01*
Y190643D02*X288311Y191143D01*
X289311D01*
X291811Y188643D02*X289311Y191143D01*
X291811D02*Y188643D01*
X56063Y213724D02*Y210224D01*
X56563Y209724D01*
X57563D01*
X58063Y210224D01*
Y213724D02*Y210224D01*
X59263Y212924D02*X60063Y213724D01*
Y209724D01*
X59263D02*X60763D01*
X78456Y183819D02*X79756D01*
X77756Y184519D02*X78456Y183819D01*
X77756Y187119D02*Y184519D01*
Y187119D02*X78456Y187819D01*
X79756D01*
X80956Y187319D02*Y184319D01*
Y187319D02*X81456Y187819D01*
X82456D01*
X82956Y187319D01*
Y184319D01*
X82456Y183819D02*X82956Y184319D01*
X81456Y183819D02*X82456D01*
X80956Y184319D02*X81456Y183819D01*
X84156Y187819D02*Y183819D01*
Y187819D02*X85656Y185819D01*
X87156Y187819D01*
Y183819D01*
X88856Y187819D02*Y183819D01*
X88356Y187819D02*X90356D01*
X90856Y187319D01*
Y186319D01*
X90356Y185819D02*X90856Y186319D01*
X88856Y185819D02*X90356D01*
X92056Y186819D02*Y183819D01*
Y186819D02*X92756Y187819D01*
X93856D01*
X94556Y186819D01*
Y183819D01*
X92056Y185819D02*X94556D01*
X97756Y187819D02*X98256Y187319D01*
X96256Y187819D02*X97756D01*
X95756Y187319D02*X96256Y187819D01*
X95756Y187319D02*Y186319D01*
X96256Y185819D01*
X97756D01*
X98256Y185319D01*
Y184319D01*
X97756Y183819D02*X98256Y184319D01*
X96256Y183819D02*X97756D01*
X95756Y184319D02*X96256Y183819D01*
X101456Y187819D02*X101956Y187319D01*
X99956Y187819D02*X101456D01*
X99456Y187319D02*X99956Y187819D01*
X99456Y187319D02*Y186319D01*
X99956Y185819D01*
X101456D01*
X101956Y185319D01*
Y184319D01*
X101456Y183819D02*X101956Y184319D01*
X99956Y183819D02*X101456D01*
X99456Y184319D02*X99956Y183819D01*
X103156Y187019D02*X103956Y187819D01*
Y183819D01*
X103156D02*X104656D01*
X30724Y198925D02*X34724D01*
X30724Y200425D02*Y198425D01*
Y200425D02*X31224Y200925D01*
X32224D01*
X32724Y200425D02*X32224Y200925D01*
X32724Y200425D02*Y198925D01*
X34724Y202125D02*X30724Y204625D01*
Y202125D02*X34724Y204625D01*
X31224Y205825D02*X30724Y206325D01*
Y207325D02*Y206325D01*
Y207325D02*X31224Y207825D01*
X34724Y207325D02*X34224Y207825D01*
X34724Y207325D02*Y206325D01*
X34224Y205825D02*X34724Y206325D01*
X32524Y207325D02*Y206325D01*
X31224Y207825D02*X32024D01*
X33024D02*X34224D01*
X33024D02*X32524Y207325D01*
X32024Y207825D02*X32524Y207325D01*
X33224Y209025D02*X30724Y211025D01*
X33224Y211525D02*Y209025D01*
X30724Y211025D02*X34724D01*
X64083Y286402D02*Y282402D01*
X63583Y286402D02*X65583D01*
X66083Y285902D01*
Y284902D01*
X65583Y284402D02*X66083Y284902D01*
X64083Y284402D02*X65583D01*
X67283Y282402D02*X69783Y286402D01*
X67283D02*X69783Y282402D01*
X70983Y285602D02*X71783Y286402D01*
Y282402D01*
X70983D02*X72483D01*
X74122Y247031D02*Y243031D01*
X73622Y247031D02*X75622D01*
X76122Y246531D01*
Y245531D01*
X75622Y245031D02*X76122Y245531D01*
X74122Y245031D02*X75622D01*
X77322Y243031D02*X79822Y247031D01*
X77322D02*X79822Y243031D01*
X81022Y246531D02*X81522Y247031D01*
X82522D01*
X83022Y246531D01*
X82522Y243031D02*X83022Y243531D01*
X81522Y243031D02*X82522D01*
X81022Y243531D02*X81522Y243031D01*
Y245231D02*X82522D01*
X83022Y246531D02*Y245731D01*
Y244731D02*Y243531D01*
Y244731D02*X82522Y245231D01*
X83022Y245731D02*X82522Y245231D01*
X85722Y247031D02*X86222Y246531D01*
X84722Y247031D02*X85722D01*
X84222Y246531D02*X84722Y247031D01*
X84222Y246531D02*Y243531D01*
X84722Y243031D01*
X85722Y245231D02*X86222Y244731D01*
X84222Y245231D02*X85722D01*
X84722Y243031D02*X85722D01*
X86222Y243531D01*
Y244731D02*Y243531D01*
X99909Y283646D02*Y279646D01*
X99409Y283646D02*X101409D01*
X101909Y283146D01*
Y282146D01*
X101409Y281646D02*X101909Y282146D01*
X99909Y281646D02*X101409D01*
X103109Y279646D02*X105609Y283646D01*
X103109D02*X105609Y279646D01*
X106809Y283146D02*X107309Y283646D01*
X108809D01*
X109309Y283146D01*
Y282146D01*
X106809Y279646D02*X109309Y282146D01*
X106809Y279646D02*X109309D01*
X21276Y139083D02*X25276D01*
X21276Y140583D02*Y138583D01*
Y140583D02*X21776Y141083D01*
X22776D01*
X23276Y140583D02*X22776Y141083D01*
X23276Y140583D02*Y139083D01*
X25276Y142283D02*X21276Y144783D01*
Y142283D02*X25276Y144783D01*
X21776Y145983D02*X21276Y146483D01*
Y147483D02*Y146483D01*
Y147483D02*X21776Y147983D01*
X25276Y147483D02*X24776Y147983D01*
X25276Y147483D02*Y146483D01*
X24776Y145983D02*X25276Y146483D01*
X23076Y147483D02*Y146483D01*
X21776Y147983D02*X22576D01*
X23576D02*X24776D01*
X23576D02*X23076Y147483D01*
X22576Y147983D02*X23076Y147483D01*
X22076Y149183D02*X21276Y149983D01*
X25276D01*
Y150683D02*Y149183D01*
X18126Y157587D02*X22126D01*
X18126Y159087D02*Y157087D01*
Y159087D02*X18626Y159587D01*
X19626D01*
X20126Y159087D02*X19626Y159587D01*
X20126Y159087D02*Y157587D01*
X22126Y160787D02*X18126Y163287D01*
Y160787D02*X22126Y163287D01*
X18626Y164487D02*X18126Y164987D01*
Y165987D02*Y164987D01*
Y165987D02*X18626Y166487D01*
X22126Y165987D02*X21626Y166487D01*
X22126Y165987D02*Y164987D01*
X21626Y164487D02*X22126Y164987D01*
X19926Y165987D02*Y164987D01*
X18626Y166487D02*X19426D01*
X20426D02*X21626D01*
X20426D02*X19926Y165987D01*
X19426Y166487D02*X19926Y165987D01*
X18626Y167687D02*X18126Y168187D01*
Y169687D02*Y168187D01*
Y169687D02*X18626Y170187D01*
X19626D01*
X22126Y167687D02*X19626Y170187D01*
X22126D02*Y167687D01*
X22063Y178846D02*X26063D01*
X22063Y180346D02*Y178346D01*
Y180346D02*X22563Y180846D01*
X23563D01*
X24063Y180346D02*X23563Y180846D01*
X24063Y180346D02*Y178846D01*
X26063Y182046D02*X22063Y184546D01*
Y182046D02*X26063Y184546D01*
X22563Y185746D02*X22063Y186246D01*
Y187246D02*Y186246D01*
Y187246D02*X22563Y187746D01*
X26063Y187246D02*X25563Y187746D01*
X26063Y187246D02*Y186246D01*
X25563Y185746D02*X26063Y186246D01*
X23863Y187246D02*Y186246D01*
X22563Y187746D02*X23363D01*
X24363D02*X25563D01*
X24363D02*X23863Y187246D01*
X23363Y187746D02*X23863Y187246D01*
X22563Y188946D02*X22063Y189446D01*
Y190446D02*Y189446D01*
Y190446D02*X22563Y190946D01*
X26063Y190446D02*X25563Y190946D01*
X26063Y190446D02*Y189446D01*
X25563Y188946D02*X26063Y189446D01*
X23863Y190446D02*Y189446D01*
X22563Y190946D02*X23363D01*
X24363D02*X25563D01*
X24363D02*X23863Y190446D01*
X23363Y190946D02*X23863Y190446D01*
X40370Y240461D02*X44370D01*
X40370Y241961D02*Y239961D01*
Y241961D02*X40870Y242461D01*
X41870D01*
X42370Y241961D02*X41870Y242461D01*
X42370Y241961D02*Y240461D01*
X44370Y243661D02*X40370Y246161D01*
Y243661D02*X44370Y246161D01*
X40870Y247361D02*X40370Y247861D01*
Y248861D02*Y247861D01*
Y248861D02*X40870Y249361D01*
X44370Y248861D02*X43870Y249361D01*
X44370Y248861D02*Y247861D01*
X43870Y247361D02*X44370Y247861D01*
X42170Y248861D02*Y247861D01*
X40870Y249361D02*X41670D01*
X42670D02*X43870D01*
X42670D02*X42170Y248861D01*
X41670Y249361D02*X42170Y248861D01*
X40370Y252561D02*Y250561D01*
X42370D01*
X41870Y251061D01*
Y252061D02*Y251061D01*
Y252061D02*X42370Y252561D01*
X43870D01*
X44370Y252061D02*X43870Y252561D01*
X44370Y252061D02*Y251061D01*
X43870Y250561D02*X44370Y251061D01*
X77665Y41913D02*Y37913D01*
X77165Y41913D02*X79165D01*
X79665Y41413D01*
Y40413D01*
X79165Y39913D02*X79665Y40413D01*
X77665Y39913D02*X79165D01*
X80865Y37913D02*X83365Y41913D01*
X80865D02*X83365Y37913D01*
X84565Y41413D02*X85065Y41913D01*
X86565D01*
X87065Y41413D01*
Y40413D01*
X84565Y37913D02*X87065Y40413D01*
X84565Y37913D02*X87065D01*
X89765Y41913D02*X90265Y41413D01*
X88765Y41913D02*X89765D01*
X88265Y41413D02*X88765Y41913D01*
X88265Y41413D02*Y38413D01*
X88765Y37913D01*
X89765Y40113D02*X90265Y39613D01*
X88265Y40113D02*X89765D01*
X88765Y37913D02*X89765D01*
X90265Y38413D01*
Y39613D02*Y38413D01*
X33177Y64945D02*Y60945D01*
X32677Y64945D02*X34677D01*
X35177Y64445D01*
Y63445D01*
X34677Y62945D02*X35177Y63445D01*
X33177Y62945D02*X34677D01*
X36377Y60945D02*X38877Y64945D01*
X36377D02*X38877Y60945D01*
X40077Y64445D02*X40577Y64945D01*
X42077D01*
X42577Y64445D01*
Y63445D01*
X40077Y60945D02*X42577Y63445D01*
X40077Y60945D02*X42577D01*
X44277D02*X46277Y64945D01*
X43777D02*X46277D01*
X39386Y74909D02*X43386D01*
X39386Y76409D02*Y74409D01*
Y76409D02*X39886Y76909D01*
X40886D01*
X41386Y76409D02*X40886Y76909D01*
X41386Y76409D02*Y74909D01*
X43386Y78109D02*X39386Y80609D01*
Y78109D02*X43386Y80609D01*
X39886Y81809D02*X39386Y82309D01*
Y83809D02*Y82309D01*
Y83809D02*X39886Y84309D01*
X40886D01*
X43386Y81809D02*X40886Y84309D01*
X43386D02*Y81809D01*
X42886Y85509D02*X43386Y86009D01*
X42086Y85509D02*X42886D01*
X42086D02*X41386Y86209D01*
Y86809D02*Y86209D01*
Y86809D02*X42086Y87509D01*
X42886D01*
X43386Y87009D02*X42886Y87509D01*
X43386Y87009D02*Y86009D01*
X40686Y85509D02*X41386Y86209D01*
X39886Y85509D02*X40686D01*
X39886D02*X39386Y86009D01*
Y87009D02*Y86009D01*
Y87009D02*X39886Y87509D01*
X40686D01*
X41386Y86809D02*X40686Y87509D01*
X24425Y117429D02*X28425D01*
X24425Y118929D02*Y116929D01*
Y118929D02*X24925Y119429D01*
X25925D01*
X26425Y118929D02*X25925Y119429D01*
X26425Y118929D02*Y117429D01*
X28425Y120629D02*X24425Y123129D01*
Y120629D02*X28425Y123129D01*
X24925Y124329D02*X24425Y124829D01*
Y125829D02*Y124829D01*
Y125829D02*X24925Y126329D01*
X28425Y125829D02*X27925Y126329D01*
X28425Y125829D02*Y124829D01*
X27925Y124329D02*X28425Y124829D01*
X26225Y125829D02*Y124829D01*
X24925Y126329D02*X25725D01*
X26725D02*X27925D01*
X26725D02*X26225Y125829D01*
X25725Y126329D02*X26225Y125829D01*
X27925Y127529D02*X28425Y128029D01*
X24925Y127529D02*X27925D01*
X24925D02*X24425Y128029D01*
Y129029D02*Y128029D01*
Y129029D02*X24925Y129529D01*
X27925D01*
X28425Y129029D02*X27925Y129529D01*
X28425Y129029D02*Y128029D01*
X27425Y127529D02*X25425Y129529D01*
X139870Y23409D02*Y19409D01*
X139370Y23409D02*X141370D01*
X141870Y22909D01*
Y21909D01*
X141370Y21409D02*X141870Y21909D01*
X139870Y21409D02*X141370D01*
X143070Y19409D02*X145570Y23409D01*
X143070D02*X145570Y19409D01*
X146770Y22909D02*X147270Y23409D01*
X148770D01*
X149270Y22909D01*
Y21909D01*
X146770Y19409D02*X149270Y21909D01*
X146770Y19409D02*X149270D01*
X150470Y22909D02*X150970Y23409D01*
X151970D01*
X152470Y22909D01*
X151970Y19409D02*X152470Y19909D01*
X150970Y19409D02*X151970D01*
X150470Y19909D02*X150970Y19409D01*
Y21609D02*X151970D01*
X152470Y22909D02*Y22109D01*
Y21109D02*Y19909D01*
Y21109D02*X151970Y21609D01*
X152470Y22109D02*X151970Y21609D01*
X119004Y28134D02*Y24134D01*
X118504Y28134D02*X120504D01*
X121004Y27634D01*
Y26634D01*
X120504Y26134D02*X121004Y26634D01*
X119004Y26134D02*X120504D01*
X122204Y24134D02*X124704Y28134D01*
X122204D02*X124704Y24134D01*
X125904Y27634D02*X126404Y28134D01*
X127904D01*
X128404Y27634D01*
Y26634D01*
X125904Y24134D02*X128404Y26634D01*
X125904Y24134D02*X128404D01*
X129604Y25634D02*X131604Y28134D01*
X129604Y25634D02*X132104D01*
X131604Y28134D02*Y24134D01*
X98925Y34827D02*Y30827D01*
X98425Y34827D02*X100425D01*
X100925Y34327D01*
Y33327D01*
X100425Y32827D02*X100925Y33327D01*
X98925Y32827D02*X100425D01*
X102125Y30827D02*X104625Y34827D01*
X102125D02*X104625Y30827D01*
X105825Y34327D02*X106325Y34827D01*
X107825D01*
X108325Y34327D01*
Y33327D01*
X105825Y30827D02*X108325Y33327D01*
X105825Y30827D02*X108325D01*
X109525Y34827D02*X111525D01*
X109525D02*Y32827D01*
X110025Y33327D01*
X111025D01*
X111525Y32827D01*
Y31327D01*
X111025Y30827D02*X111525Y31327D01*
X110025Y30827D02*X111025D01*
X109525Y31327D02*X110025Y30827D01*
X32299Y98925D02*X36299D01*
X32299Y100425D02*Y98425D01*
Y100425D02*X32799Y100925D01*
X33799D01*
X34299Y100425D02*X33799Y100925D01*
X34299Y100425D02*Y98925D01*
X36299Y102125D02*X32299Y104625D01*
Y102125D02*X36299Y104625D01*
X32799Y105825D02*X32299Y106325D01*
Y107825D02*Y106325D01*
Y107825D02*X32799Y108325D01*
X33799D01*
X36299Y105825D02*X33799Y108325D01*
X36299D02*Y105825D01*
Y110025D02*X34299Y111525D01*
X32799D02*X34299D01*
X32299Y111025D02*X32799Y111525D01*
X32299Y111025D02*Y110025D01*
X32799Y109525D02*X32299Y110025D01*
X32799Y109525D02*X33799D01*
X34299Y110025D01*
Y111525D02*Y110025D01*
X94101Y104141D02*X95401D01*
X93401Y104841D02*X94101Y104141D01*
X93401Y107441D02*Y104841D01*
Y107441D02*X94101Y108141D01*
X95401D01*
X96601Y107641D02*X97101Y108141D01*
X98101D01*
X98601Y107641D01*
X98101Y104141D02*X98601Y104641D01*
X97101Y104141D02*X98101D01*
X96601Y104641D02*X97101Y104141D01*
Y106341D02*X98101D01*
X98601Y107641D02*Y106841D01*
Y105841D02*Y104641D01*
Y105841D02*X98101Y106341D01*
X98601Y106841D02*X98101Y106341D01*
X269398Y263764D02*Y259764D01*
X268898Y263764D02*X270898D01*
X271398Y263264D01*
Y262264D01*
X270898Y261764D02*X271398Y262264D01*
X269398Y261764D02*X270898D01*
X272598Y259764D02*X275098Y263764D01*
X272598D02*X275098Y259764D01*
X276798D02*X278298Y261764D01*
Y263264D02*Y261764D01*
X277798Y263764D02*X278298Y263264D01*
X276798Y263764D02*X277798D01*
X276298Y263264D02*X276798Y263764D01*
X276298Y263264D02*Y262264D01*
X276798Y261764D01*
X278298D01*
X270291Y239870D02*X274291D01*
X270291Y241370D02*Y239370D01*
Y241370D02*X270791Y241870D01*
X271791D01*
X272291Y241370D02*X271791Y241870D01*
X272291Y241370D02*Y239870D01*
X274291Y243070D02*X270291Y245570D01*
Y243070D02*X274291Y245570D01*
X271091Y246770D02*X270291Y247570D01*
X274291D01*
Y248270D02*Y246770D01*
X273791Y249470D02*X274291Y249970D01*
X270791Y249470D02*X273791D01*
X270791D02*X270291Y249970D01*
Y250970D02*Y249970D01*
Y250970D02*X270791Y251470D01*
X273791D01*
X274291Y250970D02*X273791Y251470D01*
X274291Y250970D02*Y249970D01*
X273291Y249470D02*X271291Y251470D01*
X120776Y291126D02*Y287126D01*
X120276Y291126D02*X122276D01*
X122776Y290626D01*
Y289626D01*
X122276Y289126D02*X122776Y289626D01*
X120776Y289126D02*X122276D01*
X123976Y287126D02*X126476Y291126D01*
X123976D02*X126476Y287126D01*
X127676Y290626D02*X128176Y291126D01*
X129176D01*
X129676Y290626D01*
X129176Y287126D02*X129676Y287626D01*
X128176Y287126D02*X129176D01*
X127676Y287626D02*X128176Y287126D01*
Y289326D02*X129176D01*
X129676Y290626D02*Y289826D01*
Y288826D02*Y287626D01*
Y288826D02*X129176Y289326D01*
X129676Y289826D02*X129176Y289326D01*
X142823Y293488D02*Y289488D01*
X142323Y293488D02*X144323D01*
X144823Y292988D01*
Y291988D01*
X144323Y291488D02*X144823Y291988D01*
X142823Y291488D02*X144323D01*
X146023Y289488D02*X148523Y293488D01*
X146023D02*X148523Y289488D01*
X149723Y290988D02*X151723Y293488D01*
X149723Y290988D02*X152223D01*
X151723Y293488D02*Y289488D01*
X163689Y293882D02*Y289882D01*
X163189Y293882D02*X165189D01*
X165689Y293382D01*
Y292382D01*
X165189Y291882D02*X165689Y292382D01*
X163689Y291882D02*X165189D01*
X166889Y289882D02*X169389Y293882D01*
X166889D02*X169389Y289882D01*
X170589Y293882D02*X172589D01*
X170589D02*Y291882D01*
X171089Y292382D01*
X172089D01*
X172589Y291882D01*
Y290382D01*
X172089Y289882D02*X172589Y290382D01*
X171089Y289882D02*X172089D01*
X170589Y290382D02*X171089Y289882D01*
X184161Y289551D02*Y285551D01*
X183661Y289551D02*X185661D01*
X186161Y289051D01*
Y288051D01*
X185661Y287551D02*X186161Y288051D01*
X184161Y287551D02*X185661D01*
X187361Y285551D02*X189861Y289551D01*
X187361D02*X189861Y285551D01*
X192561Y289551D02*X193061Y289051D01*
X191561Y289551D02*X192561D01*
X191061Y289051D02*X191561Y289551D01*
X191061Y289051D02*Y286051D01*
X191561Y285551D01*
X192561Y287751D02*X193061Y287251D01*
X191061Y287751D02*X192561D01*
X191561Y285551D02*X192561D01*
X193061Y286051D01*
Y287251D02*Y286051D01*
X204831Y282465D02*Y278465D01*
X204331Y282465D02*X206331D01*
X206831Y281965D01*
Y280965D01*
X206331Y280465D02*X206831Y280965D01*
X204831Y280465D02*X206331D01*
X208031Y278465D02*X210531Y282465D01*
X208031D02*X210531Y278465D01*
X212231D02*X214231Y282465D01*
X211731D02*X214231D01*
X227863Y277543D02*Y273543D01*
X227363Y277543D02*X229363D01*
X229863Y277043D01*
Y276043D01*
X229363Y275543D02*X229863Y276043D01*
X227863Y275543D02*X229363D01*
X231063Y273543D02*X233563Y277543D01*
X231063D02*X233563Y273543D01*
X234763Y274043D02*X235263Y273543D01*
X234763Y274843D02*Y274043D01*
Y274843D02*X235463Y275543D01*
X236063D01*
X236763Y274843D01*
Y274043D01*
X236263Y273543D02*X236763Y274043D01*
X235263Y273543D02*X236263D01*
X234763Y276243D02*X235463Y275543D01*
X234763Y277043D02*Y276243D01*
Y277043D02*X235263Y277543D01*
X236263D01*
X236763Y277043D01*
Y276243D01*
X236063Y275543D02*X236763Y276243D01*
X227469Y74787D02*Y70787D01*
X226969Y74787D02*X228969D01*
X229469Y74287D01*
Y73287D01*
X228969Y72787D02*X229469Y73287D01*
X227469Y72787D02*X228969D01*
X230669Y70787D02*X233169Y74787D01*
X230669D02*X233169Y70787D01*
X234369Y73987D02*X235169Y74787D01*
Y70787D01*
X234369D02*X235869D01*
X237069Y71287D02*X237569Y70787D01*
X237069Y72087D02*Y71287D01*
Y72087D02*X237769Y72787D01*
X238369D01*
X239069Y72087D01*
Y71287D01*
X238569Y70787D02*X239069Y71287D01*
X237569Y70787D02*X238569D01*
X237069Y73487D02*X237769Y72787D01*
X237069Y74287D02*Y73487D01*
Y74287D02*X237569Y74787D01*
X238569D01*
X239069Y74287D01*
Y73487D01*
X238369Y72787D02*X239069Y73487D01*
X226484Y41913D02*Y37913D01*
X225984Y41913D02*X227984D01*
X228484Y41413D01*
Y40413D01*
X227984Y39913D02*X228484Y40413D01*
X226484Y39913D02*X227984D01*
X229684Y37913D02*X232184Y41913D01*
X229684D02*X232184Y37913D01*
X233384Y41113D02*X234184Y41913D01*
Y37913D01*
X233384D02*X234884D01*
X236584D02*X238084Y39913D01*
Y41413D02*Y39913D01*
X237584Y41913D02*X238084Y41413D01*
X236584Y41913D02*X237584D01*
X236084Y41413D02*X236584Y41913D01*
X236084Y41413D02*Y40413D01*
X236584Y39913D01*
X238084D01*
X276394Y96760D02*X280394D01*
X276394Y98260D02*Y96260D01*
Y98260D02*X276894Y98760D01*
X277894D01*
X278394Y98260D02*X277894Y98760D01*
X278394Y98260D02*Y96760D01*
X280394Y99960D02*X276394Y102460D01*
Y99960D02*X280394Y102460D01*
X277194Y103660D02*X276394Y104460D01*
X280394D01*
Y105160D02*Y103660D01*
X276394Y107860D02*X276894Y108360D01*
X276394Y107860D02*Y106860D01*
X276894Y106360D02*X276394Y106860D01*
X276894Y106360D02*X279894D01*
X280394Y106860D01*
X278194Y107860D02*X278694Y108360D01*
X278194Y107860D02*Y106360D01*
X280394Y107860D02*Y106860D01*
Y107860D02*X279894Y108360D01*
X278694D02*X279894D01*
X268520Y75303D02*X272520D01*
X268520Y76803D02*Y74803D01*
Y76803D02*X269020Y77303D01*
X270020D01*
X270520Y76803D02*X270020Y77303D01*
X270520Y76803D02*Y75303D01*
X272520Y78503D02*X268520Y81003D01*
Y78503D02*X272520Y81003D01*
X269320Y82203D02*X268520Y83003D01*
X272520D01*
Y83703D02*Y82203D01*
Y85403D02*X268520Y87403D01*
Y84903D01*
X204043Y35220D02*Y31220D01*
X203543Y35220D02*X205543D01*
X206043Y34720D01*
Y33720D01*
X205543Y33220D02*X206043Y33720D01*
X204043Y33220D02*X205543D01*
X207243Y31220D02*X209743Y35220D01*
X207243D02*X209743Y31220D01*
X210943Y34720D02*X211443Y35220D01*
X212943D01*
X213443Y34720D01*
Y33720D01*
X210943Y31220D02*X213443Y33720D01*
X210943Y31220D02*X213443D01*
X214643Y31720D02*X215143Y31220D01*
X214643Y34720D02*Y31720D01*
Y34720D02*X215143Y35220D01*
X216143D01*
X216643Y34720D01*
Y31720D01*
X216143Y31220D02*X216643Y31720D01*
X215143Y31220D02*X216143D01*
X214643Y32220D02*X216643Y34220D01*
X183965Y27740D02*Y23740D01*
X183465Y27740D02*X185465D01*
X185965Y27240D01*
Y26240D01*
X185465Y25740D02*X185965Y26240D01*
X183965Y25740D02*X185465D01*
X187165Y23740D02*X189665Y27740D01*
X187165D02*X189665Y23740D01*
X190865Y27240D02*X191365Y27740D01*
X192865D01*
X193365Y27240D01*
Y26240D01*
X190865Y23740D02*X193365Y26240D01*
X190865Y23740D02*X193365D01*
X194565Y26940D02*X195365Y27740D01*
Y23740D01*
X194565D02*X196065D01*
X161130Y24197D02*Y20197D01*
X160630Y24197D02*X162630D01*
X163130Y23697D01*
Y22697D01*
X162630Y22197D02*X163130Y22697D01*
X161130Y22197D02*X162630D01*
X164330Y20197D02*X166830Y24197D01*
X164330D02*X166830Y20197D01*
X168030Y23697D02*X168530Y24197D01*
X170030D01*
X170530Y23697D01*
Y22697D01*
X168030Y20197D02*X170530Y22697D01*
X168030Y20197D02*X170530D01*
X171730Y23697D02*X172230Y24197D01*
X173730D01*
X174230Y23697D01*
Y22697D01*
X171730Y20197D02*X174230Y22697D01*
X171730Y20197D02*X174230D01*
M02*
