G04 start of page 9 for group -4078 idx -4078 *
G04 Title: (unknown), bottomsilk *
G04 Creator: pcb 4.2.0 *
G04 CreationDate: Fri Jan  3 20:58:43 2020 UTC *
G04 For: blinken *
G04 Format: Gerber/RS-274X *
G04 PCB-Dimensions (mil): 3149.61 3149.61 *
G04 PCB-Coordinate-Origin: lower left *
%MOIN*%
%FSLAX25Y25*%
%LNBOTTOMSILK*%
%ADD59C,0.0080*%
G54D59*X86903Y67511D02*X90244Y70852D01*
X81614Y72800D02*X84955Y76141D01*
X159193Y48353D02*Y43629D01*
X151713D02*X151713Y48353D01*
X152862Y272762D02*Y268038D01*
X160342Y272762D02*Y268038D01*
X44607Y170697D02*X49259Y169877D01*
X45906Y178063D02*X50558Y177243D01*
X57091Y115453D02*X52598Y113993D01*
X54779Y122567D02*X50286Y121107D01*
X233391Y72892D02*X230051Y76233D01*
X228102Y67603D02*X224762Y70943D01*
X61593Y181107D02*X62893D01*
X60893Y180407D02*X61593Y181107D01*
X60893Y177807D02*Y180407D01*
Y177807D02*X61593Y177107D01*
X62893D01*
X64593Y181107D02*X66093Y179107D01*
Y177607D02*Y179107D01*
X65593Y177107D02*X66093Y177607D01*
X64593Y177107D02*X65593D01*
X64093Y177607D02*X64593Y177107D01*
X64093Y177607D02*Y178607D01*
X64593Y179107D01*
X66093D01*
X84509Y85886D02*Y87186D01*
X83809Y87886D02*X84509Y87186D01*
X81209Y87886D02*X83809D01*
X81209D02*X80509Y87186D01*
Y85886D02*Y87186D01*
X84009Y84686D02*X84509Y84186D01*
X83209Y84686D02*X84009D01*
X83209D02*X82509Y83986D01*
Y83386D02*Y83986D01*
Y83386D02*X83209Y82686D01*
X84009D01*
X84509Y83186D02*X84009Y82686D01*
X84509Y83186D02*Y84186D01*
X81809Y84686D02*X82509Y83986D01*
X81009Y84686D02*X81809D01*
X81009D02*X80509Y84186D01*
Y83186D02*Y84186D01*
Y83186D02*X81009Y82686D01*
X81809D01*
X82509Y83386D02*X81809Y82686D01*
X60923Y128406D02*X62223D01*
X62923Y129106D02*X62223Y128406D01*
X62923Y129106D02*Y131706D01*
X62223Y132406D01*
X60923D02*X62223D01*
X57723D02*X59723D01*
Y130406D02*Y132406D01*
Y130406D02*X59223Y130906D01*
X58223D02*X59223D01*
X58223D02*X57723Y130406D01*
Y128906D02*Y130406D01*
X58223Y128406D02*X57723Y128906D01*
X58223Y128406D02*X59223D01*
X59723Y128906D02*X59223Y128406D01*
X146002Y56082D02*X147302D01*
X148002Y56782D02*X147302Y56082D01*
X148002Y56782D02*Y59382D01*
X147302Y60082D01*
X146002D02*X147302D01*
X143302D02*X142802Y59582D01*
X143302Y60082D02*X144302D01*
X144802Y59582D02*X144302Y60082D01*
X144802Y56582D02*Y59582D01*
Y56582D02*X144302Y56082D01*
X143302Y58282D02*X142802Y57782D01*
X143302Y58282D02*X144802D01*
X143302Y56082D02*X144302D01*
X143302D02*X142802Y56582D01*
Y57782D01*
X168725Y257902D02*X170025D01*
X170725Y258602D02*X170025Y257902D01*
X170725Y258602D02*Y261202D01*
X170025Y261902D01*
X168725D02*X170025D01*
X167025Y257902D02*X165025Y261902D01*
X167525D01*
X212752Y69485D02*Y70785D01*
X213452Y68785D02*X212752Y69485D01*
X213452Y68785D02*X216052D01*
X216752Y69485D01*
Y70785D01*
X214252Y71985D02*X216752Y73985D01*
X214252Y71985D02*Y74485D01*
X212752Y73985D02*X216752D01*
M02*
