G04 start of page 6 for group -4063 idx -4063 *
G04 Title: (unknown), componentmask *
G04 Creator: pcb 4.2.0 *
G04 CreationDate: Fri Jan  3 20:58:43 2020 UTC *
G04 For: blinken *
G04 Format: Gerber/RS-274X *
G04 PCB-Dimensions (mil): 3149.61 3149.61 *
G04 PCB-Coordinate-Origin: lower left *
%MOIN*%
%FSLAX25Y25*%
%LNTOPMASK*%
%ADD50C,0.1908*%
%ADD49C,0.2008*%
%ADD48C,0.1988*%
%ADD47C,0.0001*%
%ADD46C,0.0847*%
%ADD45C,0.0660*%
G54D45*X102795Y221299D03*
X112795D03*
X122795D03*
X102795Y231299D03*
X112795D03*
X122795D03*
X132795D03*
X142795D03*
X152795D03*
X132795Y221299D03*
X142795D03*
X152795D03*
X162795D03*
G54D46*X138677Y87487D03*
X93401D03*
G54D45*X72795Y221299D03*
Y231299D03*
X82795Y221299D03*
Y231299D03*
G54D47*G36*
X49495Y224599D02*Y217999D01*
X56095D01*
Y224599D01*
X49495D01*
G37*
G54D45*X52795Y231299D03*
X62795Y221299D03*
Y231299D03*
X92795Y221299D03*
Y231299D03*
X162795D03*
X172795Y221299D03*
X182795D03*
X192795D03*
X172795Y231299D03*
X182795D03*
X192795D03*
X202795D03*
X212795D03*
X222795D03*
X202795Y221299D03*
X212795D03*
X222795D03*
X232795D03*
Y231299D03*
X242795D03*
Y221299D03*
G54D48*X261811Y33465D03*
G54D49*Y226378D03*
G54D50*X33465D03*
G54D48*Y33465D03*
G54D47*G36*
X65318Y171169D02*Y163263D01*
X82279D01*
Y171169D01*
X65318D01*
G37*
G36*
X154612Y171923D02*Y165986D01*
X175549D01*
Y171923D01*
X154612D01*
G37*
G36*
X220793D02*Y165986D01*
X241730D01*
Y171923D01*
X220793D01*
G37*
G36*
X65318Y161169D02*Y153263D01*
X82279D01*
Y161169D01*
X65318D01*
G37*
G36*
X154612Y161923D02*Y155986D01*
X175549D01*
Y161923D01*
X154612D01*
G37*
G36*
X220793D02*Y155986D01*
X241730D01*
Y161923D01*
X220793D01*
G37*
G36*
X65318Y151169D02*Y143263D01*
X82279D01*
Y151169D01*
X65318D01*
G37*
G36*
X154612Y151923D02*Y145986D01*
X175549D01*
Y151923D01*
X154612D01*
G37*
G36*
X220793D02*Y145986D01*
X241730D01*
Y151923D01*
X220793D01*
G37*
G36*
X65318Y141169D02*Y133263D01*
X82279D01*
Y141169D01*
X65318D01*
G37*
G36*
X154612Y141923D02*Y135986D01*
X175549D01*
Y141923D01*
X154612D01*
G37*
G36*
X220793D02*Y135986D01*
X241730D01*
Y141923D01*
X220793D01*
G37*
G36*
X120263Y170669D02*Y162763D01*
X137224D01*
Y170669D01*
X120263D01*
G37*
G36*
Y160669D02*Y152763D01*
X137224D01*
Y160669D01*
X120263D01*
G37*
G36*
Y150669D02*Y142763D01*
X137224D01*
Y150669D01*
X120263D01*
G37*
G36*
Y140669D02*Y132763D01*
X137224D01*
Y140669D01*
X120263D01*
G37*
G36*
X178568Y84985D02*X172850D01*
Y76905D01*
X178568D01*
Y84985D01*
G37*
G36*
X190378D02*X184660D01*
Y76905D01*
X190378D01*
Y84985D01*
G37*
G36*
X154612Y121923D02*Y115986D01*
X175549D01*
Y121923D01*
X154612D01*
G37*
G36*
Y131923D02*Y125986D01*
X175549D01*
Y131923D01*
X154612D01*
G37*
G36*
X220793Y121923D02*Y115986D01*
X241730D01*
Y121923D01*
X220793D01*
G37*
G36*
Y131923D02*Y125986D01*
X241730D01*
Y131923D01*
X220793D01*
G37*
G36*
X302075Y119972D02*X302075Y124909D01*
X295169Y124909D01*
X295169Y119972D01*
X302075Y119972D01*
G37*
G36*
X295169Y118610D02*Y113673D01*
X302075D01*
Y118610D01*
X295169D01*
G37*
G36*
Y131209D02*Y126272D01*
X302075D01*
Y131209D01*
X295169D01*
G37*
G36*
X275878Y118610D02*Y113673D01*
X282783D01*
Y118610D01*
X275878D01*
G37*
G36*
X282783Y119972D02*X282783Y124909D01*
X275878Y124909D01*
X275878Y119972D01*
X282783Y119972D01*
G37*
G36*
X275878Y131209D02*Y126272D01*
X282783D01*
Y131209D01*
X275878D01*
G37*
G36*
X291051Y99106D02*X291051Y104043D01*
X284146Y104043D01*
X284146Y99106D01*
X291051Y99106D01*
G37*
G36*
X284146Y97744D02*Y92807D01*
X291051D01*
Y97744D01*
X284146D01*
G37*
G36*
X283965Y77846D02*X283965Y82783D01*
X277059Y82783D01*
X277059Y77846D01*
X283965Y77846D01*
G37*
G36*
X277059Y89083D02*Y84146D01*
X283965D01*
Y89083D01*
X277059D01*
G37*
G36*
X284146Y110343D02*Y105406D01*
X291051D01*
Y110343D01*
X284146D01*
G37*
G36*
X264854Y97744D02*Y92807D01*
X271760D01*
Y97744D01*
X264854D01*
G37*
G36*
X271760Y99106D02*X271760Y104043D01*
X264854Y104043D01*
X264854Y99106D01*
X271760Y99106D01*
G37*
G36*
X264854Y110343D02*Y105406D01*
X271760D01*
Y110343D01*
X264854D01*
G37*
G36*
X264673Y77846D02*X264673Y82783D01*
X257768Y82783D01*
X257768Y77846D01*
X264673Y77846D01*
G37*
G36*
X257768Y89083D02*Y84146D01*
X264673D01*
Y89083D01*
X257768D01*
G37*
G36*
X299106Y160343D02*Y155406D01*
X306012D01*
Y160343D01*
X299106D01*
G37*
G36*
X279815D02*Y155406D01*
X286720D01*
Y160343D01*
X279815D01*
G37*
G36*
Y139870D02*Y134933D01*
X286720D01*
Y139870D01*
X279815D01*
G37*
G36*
X286720Y141232D02*X286720Y146169D01*
X279815Y146169D01*
X279815Y141232D01*
X286720Y141232D01*
G37*
G36*
X279815Y152468D02*Y147531D01*
X286720D01*
Y152468D01*
X279815D01*
G37*
G36*
X286720Y161705D02*X286720Y166642D01*
X279815Y166642D01*
X279815Y161705D01*
X286720Y161705D01*
G37*
G36*
X279815Y172941D02*Y168004D01*
X286720D01*
Y172941D01*
X279815D01*
G37*
G36*
X306012Y141232D02*X306012Y146169D01*
X299106Y146169D01*
X299106Y141232D01*
X306012Y141232D01*
G37*
G36*
X299106Y139870D02*Y134933D01*
X306012D01*
Y139870D01*
X299106D01*
G37*
G36*
Y152468D02*Y147531D01*
X306012D01*
Y152468D01*
X299106D01*
G37*
G36*
X302862Y182177D02*X302862Y187114D01*
X295957Y187114D01*
X295957Y182177D01*
X302862Y182177D01*
G37*
G36*
X295957Y193413D02*Y188476D01*
X302862D01*
Y193413D01*
X295957D01*
G37*
G36*
Y180815D02*Y175878D01*
X302862D01*
Y180815D01*
X295957D01*
G37*
G36*
X306012Y161705D02*X306012Y166642D01*
X299106Y166642D01*
X299106Y161705D01*
X306012Y161705D01*
G37*
G36*
X299106Y172941D02*Y168004D01*
X306012D01*
Y172941D01*
X299106D01*
G37*
G36*
X296957Y203043D02*X296957Y207980D01*
X290051Y207980D01*
X290051Y203043D01*
X296957Y203043D01*
G37*
G36*
X290051Y214280D02*Y209343D01*
X296957D01*
Y214280D01*
X290051D01*
G37*
G36*
Y201681D02*Y196744D01*
X296957D01*
Y201681D01*
X290051D01*
G37*
G36*
X257768Y76484D02*Y71547D01*
X264673D01*
Y76484D01*
X257768D01*
G37*
G36*
X277059D02*Y71547D01*
X283965D01*
Y76484D01*
X277059D01*
G37*
G36*
X258391Y56005D02*X254900Y52514D01*
X259783Y47631D01*
X263274Y51122D01*
X258391Y56005D01*
G37*
G36*
X253937Y51550D02*X250446Y48059D01*
X255329Y43177D01*
X258820Y46668D01*
X253937Y51550D01*
G37*
G36*
X228059Y54043D02*X223122Y54043D01*
X223122Y47138D01*
X228059Y47138D01*
X228059Y54043D01*
G37*
G36*
X234358Y54043D02*X229421Y54043D01*
X229421Y47138D01*
X234358Y47138D01*
X234358Y54043D01*
G37*
G36*
X240657Y54043D02*X235720Y54043D01*
X235720Y47138D01*
X240657Y47138D01*
X240657Y54043D01*
G37*
G36*
X262845Y60459D02*X259354Y56968D01*
X264237Y52085D01*
X267728Y55576D01*
X262845Y60459D01*
G37*
G36*
X240296Y65192D02*X236805Y61701D01*
X241688Y56818D01*
X245179Y60309D01*
X240296Y65192D01*
G37*
G36*
X244750Y69646D02*X241259Y66155D01*
X246142Y61272D01*
X249633Y64763D01*
X244750Y69646D01*
G37*
G36*
X249204Y74100D02*X245713Y70609D01*
X250596Y65726D01*
X254087Y69217D01*
X249204Y74100D01*
G37*
G36*
X80028Y53650D02*X75091Y53650D01*
X75091Y46744D01*
X80028Y46744D01*
X80028Y53650D01*
G37*
G36*
X86327Y53650D02*X81390Y53650D01*
X81390Y46744D01*
X86327Y46744D01*
X86327Y53650D01*
G37*
G36*
X92626Y53650D02*X87689Y53650D01*
X87689Y46744D01*
X92626Y46744D01*
X92626Y53650D01*
G37*
G36*
X58501Y52982D02*X55010Y56473D01*
X50127Y51590D01*
X53618Y48099D01*
X58501Y52982D01*
G37*
G36*
X62955Y48528D02*X59464Y52019D01*
X54581Y47136D01*
X58072Y43645D01*
X62955Y48528D01*
G37*
G36*
X54047Y57437D02*X50556Y60928D01*
X45673Y56045D01*
X49164Y52554D01*
X54047Y57437D01*
G37*
G36*
X67688Y71078D02*X64197Y74569D01*
X59314Y69686D01*
X62805Y66195D01*
X67688Y71078D01*
G37*
G36*
X72142Y66623D02*X68651Y70114D01*
X63768Y65231D01*
X67259Y61740D01*
X72142Y66623D01*
G37*
G36*
X76596Y62169D02*X73105Y65660D01*
X68222Y60777D01*
X71713Y57286D01*
X76596Y62169D01*
G37*
G36*
X28634Y77272D02*Y72335D01*
X35539D01*
Y77272D01*
X28634D01*
G37*
G36*
X47925Y77272D02*X47925Y72335D01*
X54831Y72335D01*
X54831Y77272D01*
X47925Y77272D01*
G37*
G36*
X80028Y34358D02*X75091D01*
Y27453D01*
X80028D01*
Y34358D01*
G37*
G36*
X212311Y27665D02*X207374Y27665D01*
X207374Y20760D01*
X212311Y20760D01*
X212311Y27665D01*
G37*
G36*
X206012Y27665D02*X201075D01*
Y20760D01*
X206012D01*
Y27665D01*
G37*
G36*
X191839Y19791D02*X186902Y19791D01*
X186902Y12886D01*
X191839Y12886D01*
X191839Y19791D01*
G37*
G36*
X198138Y19791D02*X193201D01*
Y12886D01*
X198138D01*
Y19791D01*
G37*
G36*
X185539Y19791D02*X180602D01*
Y12886D01*
X185539D01*
Y19791D01*
G37*
G36*
X169791Y15854D02*X164854Y15854D01*
X164854Y8949D01*
X169791Y8949D01*
X169791Y15854D01*
G37*
G36*
X163492Y15854D02*X158555D01*
Y8949D01*
X163492D01*
Y15854D01*
G37*
G36*
X176091Y15854D02*X171154D01*
Y8949D01*
X176091D01*
Y15854D01*
G37*
G36*
X148138Y15461D02*X143201Y15461D01*
X143201Y8555D01*
X148138Y8555D01*
X148138Y15461D01*
G37*
G36*
X141839Y15461D02*X136902D01*
Y8555D01*
X141839D01*
Y15461D01*
G37*
G36*
X154437Y15461D02*X149500D01*
Y8555D01*
X154437D01*
Y15461D01*
G37*
G36*
X127665Y20185D02*X122728Y20185D01*
X122728Y13280D01*
X127665Y13280D01*
X127665Y20185D01*
G37*
G36*
X121366Y20185D02*X116429D01*
Y13280D01*
X121366D01*
Y20185D01*
G37*
G36*
X107193Y26878D02*X102256Y26878D01*
X102256Y19972D01*
X107193Y19972D01*
X107193Y26878D01*
G37*
G36*
X113492Y26878D02*X108555D01*
Y19972D01*
X113492D01*
Y26878D01*
G37*
G36*
X100894Y26878D02*X95957D01*
Y19972D01*
X100894D01*
Y26878D01*
G37*
G36*
X133965Y20185D02*X129028D01*
Y13280D01*
X133965D01*
Y20185D01*
G37*
G36*
X185539Y39083D02*X180602Y39083D01*
X180602Y32177D01*
X185539Y32177D01*
X185539Y39083D01*
G37*
G36*
X191839Y39083D02*X186902Y39083D01*
X186902Y32177D01*
X191839Y32177D01*
X191839Y39083D01*
G37*
G36*
X198138Y39083D02*X193201Y39083D01*
X193201Y32177D01*
X198138Y32177D01*
X198138Y39083D01*
G37*
G36*
X163492Y35146D02*X158555Y35146D01*
X158555Y28240D01*
X163492Y28240D01*
X163492Y35146D01*
G37*
G36*
X169791Y35146D02*X164854Y35146D01*
X164854Y28240D01*
X169791Y28240D01*
X169791Y35146D01*
G37*
G36*
X176091Y35146D02*X171154Y35146D01*
X171154Y28240D01*
X176091Y28240D01*
X176091Y35146D01*
G37*
G36*
X148138Y34752D02*X143201Y34752D01*
X143201Y27846D01*
X148138Y27846D01*
X148138Y34752D01*
G37*
G36*
X154437Y34752D02*X149500Y34752D01*
X149500Y27846D01*
X154437Y27846D01*
X154437Y34752D01*
G37*
G36*
X234358Y34752D02*X229421Y34752D01*
X229421Y27846D01*
X234358Y27846D01*
X234358Y34752D01*
G37*
G36*
X240657Y34752D02*X235720D01*
Y27846D01*
X240657D01*
Y34752D01*
G37*
G36*
X228059Y34752D02*X223122D01*
Y27846D01*
X228059D01*
Y34752D01*
G37*
G36*
X218610Y27665D02*X213673D01*
Y20760D01*
X218610D01*
Y27665D01*
G37*
G36*
X206012Y46957D02*X201075Y46957D01*
X201075Y40051D01*
X206012Y40051D01*
X206012Y46957D01*
G37*
G36*
X212311Y46957D02*X207374Y46957D01*
X207374Y40051D01*
X212311Y40051D01*
X212311Y46957D01*
G37*
G36*
X218610Y46957D02*X213673Y46957D01*
X213673Y40051D01*
X218610Y40051D01*
X218610Y46957D01*
G37*
G36*
X141839Y34752D02*X136902Y34752D01*
X136902Y27846D01*
X141839Y27846D01*
X141839Y34752D01*
G37*
G36*
X127665Y39476D02*X122728Y39476D01*
X122728Y32571D01*
X127665Y32571D01*
X127665Y39476D01*
G37*
G36*
X133965Y39476D02*X129028Y39476D01*
X129028Y32571D01*
X133965Y32571D01*
X133965Y39476D01*
G37*
G36*
X121366Y39476D02*X116429Y39476D01*
X116429Y32571D01*
X121366Y32571D01*
X121366Y39476D01*
G37*
G36*
X100894Y46169D02*X95957Y46169D01*
X95957Y39264D01*
X100894Y39264D01*
X100894Y46169D01*
G37*
G36*
X107193Y46169D02*X102256Y46169D01*
X102256Y39264D01*
X107193Y39264D01*
X107193Y46169D01*
G37*
G36*
X113492Y46169D02*X108555Y46169D01*
X108555Y39264D01*
X113492Y39264D01*
X113492Y46169D01*
G37*
G36*
X86327Y34358D02*X81390Y34358D01*
X81390Y27453D01*
X86327Y27453D01*
X86327Y34358D01*
G37*
G36*
X92626Y34358D02*X87689D01*
Y27453D01*
X92626D01*
Y34358D01*
G37*
G36*
X30996Y193217D02*X30996Y188280D01*
X37902Y188280D01*
X37902Y193217D01*
X30996Y193217D01*
G37*
G36*
X37902Y181980D02*X37902Y186917D01*
X30996Y186917D01*
X30996Y181980D01*
X37902Y181980D01*
G37*
G36*
X30996Y180618D02*X30996Y175681D01*
X37902Y175681D01*
X37902Y180618D01*
X30996Y180618D01*
G37*
G36*
X26484Y203043D02*X26484Y207980D01*
X19579Y207980D01*
X19579Y203043D01*
X26484Y203043D01*
G37*
G36*
X19579Y214280D02*Y209343D01*
X26484D01*
Y214280D01*
X19579D01*
G37*
G36*
X19579Y201681D02*Y196744D01*
X26484D01*
Y201681D01*
X19579D01*
G37*
G36*
X38870Y214280D02*X38870Y209343D01*
X45776Y209343D01*
X45776Y214280D01*
X38870Y214280D01*
G37*
G36*
X45776Y203043D02*X45776Y207980D01*
X38870Y207980D01*
X38870Y203043D01*
X45776Y203043D01*
G37*
G36*
X38870Y201681D02*X38870Y196744D01*
X45776Y196744D01*
X45776Y201681D01*
X38870Y201681D01*
G37*
G36*
X47925Y89870D02*X47925Y84933D01*
X54831Y84933D01*
X54831Y89870D01*
X47925Y89870D01*
G37*
G36*
X54831Y78634D02*X54831Y83571D01*
X47925Y83571D01*
X47925Y78634D01*
X54831Y78634D01*
G37*
G36*
X42020Y111524D02*X42020Y106587D01*
X48925Y106587D01*
X48925Y111524D01*
X42020Y111524D01*
G37*
G36*
X48925Y100287D02*X48925Y105224D01*
X42020Y105224D01*
X42020Y100287D01*
X48925Y100287D01*
G37*
G36*
X42020Y98925D02*X42020Y93988D01*
X48925Y93988D01*
X48925Y98925D01*
X42020Y98925D01*
G37*
G36*
X55571Y270873D02*X52080Y267382D01*
X56963Y262499D01*
X60454Y265990D01*
X55571Y270873D01*
G37*
G36*
X51117Y266419D02*X47626Y262928D01*
X52509Y258045D01*
X56000Y261536D01*
X51117Y266419D01*
G37*
G36*
X35933Y243595D02*X35933Y248532D01*
X29028Y248532D01*
X29028Y243594D01*
X35933Y243595D01*
G37*
G36*
X29028Y254831D02*Y249894D01*
X35933D01*
Y254831D01*
X29028D01*
G37*
G36*
X29028Y242232D02*Y237295D01*
X35933D01*
Y242232D01*
X29028D01*
G37*
G36*
X48319Y254831D02*X48319Y249894D01*
X55224Y249894D01*
X55224Y254831D01*
X48319Y254831D01*
G37*
G36*
X55224Y243595D02*X55224Y248532D01*
X48319Y248531D01*
X48319Y243594D01*
X55224Y243595D01*
G37*
G36*
X48319Y242232D02*X48319Y237295D01*
X55224Y237295D01*
X55224Y242232D01*
X48319Y242232D01*
G37*
G36*
X20579Y121154D02*X20579Y126091D01*
X13673Y126091D01*
X13673Y121154D01*
X20579Y121154D01*
G37*
G36*
X13673Y119791D02*Y114854D01*
X20579D01*
Y119791D01*
X13673D01*
G37*
G36*
X13673Y132390D02*Y127453D01*
X20579D01*
Y132390D01*
X13673D01*
G37*
G36*
X16642Y141429D02*X16642Y146366D01*
X9736Y146366D01*
X9736Y141429D01*
X16642Y141429D01*
G37*
G36*
X9736Y152665D02*Y147728D01*
X16642D01*
Y152665D01*
X9736D01*
G37*
G36*
X9736Y140067D02*Y135130D01*
X16642D01*
Y140067D01*
X9736D01*
G37*
G36*
X15854Y161508D02*X15854Y166445D01*
X8949Y166445D01*
X8949Y161508D01*
X15854Y161508D01*
G37*
G36*
X8949Y160146D02*Y155209D01*
X15854D01*
Y160146D01*
X8949D01*
G37*
G36*
X8949Y172744D02*Y167807D01*
X15854D01*
Y172744D01*
X8949D01*
G37*
G36*
X18610Y181980D02*X18610Y186917D01*
X11705Y186917D01*
X11705Y181980D01*
X18610Y181980D01*
G37*
G36*
X11705Y193217D02*Y188280D01*
X18610D01*
Y193217D01*
X11705D01*
G37*
G36*
X11705Y180618D02*Y175681D01*
X18610D01*
Y180618D01*
X11705D01*
G37*
G36*
X29028Y152665D02*X29028Y147728D01*
X35933Y147728D01*
X35933Y152665D01*
X29028Y152665D01*
G37*
G36*
X35933Y141429D02*X35933Y146366D01*
X29028Y146366D01*
X29028Y141429D01*
X35933Y141429D01*
G37*
G36*
X29028Y140067D02*X29028Y135130D01*
X35933Y135130D01*
X35933Y140067D01*
X29028Y140067D01*
G37*
G36*
X32965Y132390D02*X32965Y127453D01*
X39870Y127453D01*
X39870Y132390D01*
X32965Y132390D01*
G37*
G36*
X39870Y121154D02*X39870Y126091D01*
X32965Y126091D01*
X32965Y121154D01*
X39870Y121154D01*
G37*
G36*
X32965Y119791D02*X32965Y114854D01*
X39870Y114854D01*
X39870Y119791D01*
X32965Y119791D01*
G37*
G36*
X35539Y78634D02*X35539Y83571D01*
X28634Y83571D01*
X28634Y78634D01*
X35539Y78634D01*
G37*
G36*
X28634Y89870D02*Y84933D01*
X35539D01*
Y89870D01*
X28634D01*
G37*
G36*
X29634Y100287D02*X29634Y105224D01*
X22728Y105224D01*
X22728Y100287D01*
X29634Y100287D01*
G37*
G36*
X22728Y98925D02*Y93988D01*
X29634D01*
Y98925D01*
X22728D01*
G37*
G36*
X22728Y111524D02*Y106587D01*
X29634D01*
Y111524D01*
X22728D01*
G37*
G36*
X28240Y172744D02*X28240Y167807D01*
X35146Y167807D01*
X35146Y172744D01*
X28240Y172744D01*
G37*
G36*
X35146Y161508D02*X35146Y166445D01*
X28240Y166445D01*
X28240Y161508D01*
X35146Y161508D01*
G37*
G36*
X28240Y160146D02*X28240Y155209D01*
X35146Y155209D01*
X35146Y160146D01*
X28240Y160146D01*
G37*
G36*
X219709Y198331D02*X213991D01*
Y190251D01*
X219709D01*
Y198331D01*
G37*
G36*
X207899D02*X202181D01*
Y190251D01*
X207899D01*
Y198331D01*
G37*
G36*
X243921D02*X238203D01*
Y190251D01*
X243921D01*
Y198331D01*
G37*
G36*
X232111D02*X226393D01*
Y190251D01*
X232111D01*
Y198331D01*
G37*
G36*
X276665Y180815D02*Y175878D01*
X283571D01*
Y180815D01*
X276665D01*
G37*
G36*
X283571Y182177D02*X283571Y187114D01*
X276665Y187114D01*
X276665Y182177D01*
X283571Y182177D01*
G37*
G36*
X276665Y193413D02*Y188476D01*
X283571D01*
Y193413D01*
X276665D01*
G37*
G36*
X270760Y201681D02*Y196744D01*
X277665D01*
Y201681D01*
X270760D01*
G37*
G36*
X277665Y203043D02*X277665Y207980D01*
X270760Y207980D01*
X270760Y203043D01*
X277665Y203043D01*
G37*
G36*
X270760Y214280D02*Y209343D01*
X277665D01*
Y214280D01*
X270760D01*
G37*
G36*
X261818Y265689D02*X258327Y269180D01*
X253444Y264297D01*
X256935Y260806D01*
X261818Y265689D01*
G37*
G36*
X257364Y270143D02*X253873Y273634D01*
X248990Y268751D01*
X252481Y265260D01*
X257364Y270143D01*
G37*
G36*
X252631Y247593D02*X249140Y251084D01*
X244257Y246201D01*
X247748Y242710D01*
X252631Y247593D01*
G37*
G36*
X248177Y252048D02*X244686Y255539D01*
X239803Y250656D01*
X243294Y247165D01*
X248177Y252048D01*
G37*
G36*
X243723Y256502D02*X240232Y259993D01*
X235349Y255110D01*
X238840Y251619D01*
X243723Y256502D01*
G37*
G36*
X266272Y261234D02*X262781Y264725D01*
X257898Y259843D01*
X261389Y256352D01*
X266272Y261234D01*
G37*
G36*
X258949Y241839D02*Y236902D01*
X265854D01*
Y241839D01*
X258949D01*
G37*
G36*
X265854Y243201D02*X265854Y248138D01*
X258949Y248138D01*
X258949Y243201D01*
X265854Y243201D01*
G37*
G36*
X258949Y254437D02*Y249500D01*
X265854D01*
Y254437D01*
X258949D01*
G37*
G36*
X285146Y243201D02*X285146Y248138D01*
X278240Y248138D01*
X278240Y243201D01*
X285146Y243201D01*
G37*
G36*
X278240Y254437D02*Y249500D01*
X285146D01*
Y254437D01*
X278240D01*
G37*
G36*
Y241839D02*Y236902D01*
X285146D01*
Y241839D01*
X278240D01*
G37*
G36*
X219398Y274909D02*X214461D01*
Y268004D01*
X219398D01*
Y274909D01*
G37*
G36*
X213098D02*X208161D01*
Y268004D01*
X213098D01*
Y274909D01*
G37*
G36*
X206799D02*X201862D01*
Y268004D01*
X206799D01*
Y274909D01*
G37*
G36*
X240657Y269398D02*X235720D01*
Y262492D01*
X240657D01*
Y269398D01*
G37*
G36*
X234358D02*X229421D01*
Y262492D01*
X234358D01*
Y269398D01*
G37*
G36*
X228059D02*X223122D01*
Y262492D01*
X228059D01*
Y269398D01*
G37*
G36*
X73666Y261686D02*X70175Y258195D01*
X75058Y253312D01*
X78549Y256803D01*
X73666Y261686D01*
G37*
G36*
X69212Y257232D02*X65721Y253741D01*
X70604Y248858D01*
X74095Y252349D01*
X69212Y257232D01*
G37*
G36*
X64758Y252778D02*X61267Y249287D01*
X66150Y244404D01*
X69641Y247895D01*
X64758Y252778D01*
G37*
G36*
X60025Y275327D02*X56534Y271836D01*
X61417Y266953D01*
X64908Y270444D01*
X60025Y275327D01*
G37*
G36*
X87114Y288295D02*X82177D01*
Y281390D01*
X87114D01*
Y288295D01*
G37*
G36*
X93413D02*X88476D01*
Y281390D01*
X93413D01*
Y288295D01*
G37*
G36*
X100894Y294988D02*X95957D01*
Y288083D01*
X100894D01*
Y294988D01*
G37*
G36*
X107193D02*X102256D01*
Y288083D01*
X107193D01*
Y294988D01*
G37*
G36*
X113492D02*X108555D01*
Y288083D01*
X113492D01*
Y294988D01*
G37*
G36*
X128453Y302075D02*X123516D01*
Y295169D01*
X128453D01*
Y302075D01*
G37*
G36*
X122154D02*X117217D01*
Y295169D01*
X122154D01*
Y302075D01*
G37*
G36*
X128453Y282783D02*X123516D01*
Y275878D01*
X128453D01*
Y282783D01*
G37*
G36*
X122154D02*X117217D01*
Y275878D01*
X122154D01*
Y282783D01*
G37*
G36*
X134752D02*X129815D01*
Y275878D01*
X134752D01*
Y282783D01*
G37*
G36*
X150106Y286720D02*X145169D01*
Y279815D01*
X150106D01*
Y286720D01*
G37*
G36*
X143807D02*X138870D01*
Y279815D01*
X143807D01*
Y286720D01*
G37*
G36*
X134752Y302075D02*X129815D01*
Y295169D01*
X134752D01*
Y302075D01*
G37*
G36*
X150106Y306012D02*X145169D01*
Y299106D01*
X150106D01*
Y306012D01*
G37*
G36*
X143807D02*X138870D01*
Y299106D01*
X143807D01*
Y306012D01*
G37*
G36*
X156406D02*X151469D01*
Y299106D01*
X156406D01*
Y306012D01*
G37*
G36*
X171366Y305618D02*X166429D01*
Y298713D01*
X171366D01*
Y305618D01*
G37*
G36*
X165067D02*X160130D01*
Y298713D01*
X165067D01*
Y305618D01*
G37*
G36*
X156406Y286720D02*X151469D01*
Y279815D01*
X156406D01*
Y286720D01*
G37*
G36*
X177665Y286327D02*X172728D01*
Y279421D01*
X177665D01*
Y286327D01*
G37*
G36*
X171366D02*X166429D01*
Y279421D01*
X171366D01*
Y286327D01*
G37*
G36*
X165067D02*X160130D01*
Y279421D01*
X165067D01*
Y286327D01*
G37*
G36*
X177665Y305618D02*X172728D01*
Y298713D01*
X177665D01*
Y305618D01*
G37*
G36*
X192232Y301287D02*X187295D01*
Y294382D01*
X192232D01*
Y301287D01*
G37*
G36*
X198531Y281996D02*X193594D01*
Y275091D01*
X198531D01*
Y281996D01*
G37*
G36*
X192232D02*X187295D01*
Y275091D01*
X192232D01*
Y281996D01*
G37*
G36*
X198531Y301287D02*X193594D01*
Y294382D01*
X198531D01*
Y301287D01*
G37*
G36*
X185933D02*X180996D01*
Y294382D01*
X185933D01*
Y301287D01*
G37*
G36*
Y281996D02*X180996D01*
Y275091D01*
X185933D01*
Y281996D01*
G37*
G36*
X213098Y294201D02*X208161D01*
Y287295D01*
X213098D01*
Y294201D01*
G37*
G36*
X206799D02*X201862D01*
Y287295D01*
X206799D01*
Y294201D01*
G37*
G36*
X219398D02*X214461D01*
Y287295D01*
X219398D01*
Y294201D01*
G37*
G36*
X234358Y288689D02*X229421D01*
Y281783D01*
X234358D01*
Y288689D01*
G37*
G36*
X240657D02*X235720D01*
Y281783D01*
X240657D01*
Y288689D01*
G37*
G36*
X228059D02*X223122D01*
Y281783D01*
X228059D01*
Y288689D01*
G37*
G36*
X80815Y288295D02*X75878D01*
Y281390D01*
X80815D01*
Y288295D01*
G37*
G36*
X93413Y269004D02*X88476D01*
Y262098D01*
X93413D01*
Y269004D01*
G37*
G36*
X87114D02*X82177D01*
Y262098D01*
X87114D01*
Y269004D01*
G37*
G36*
X80815D02*X75878D01*
Y262098D01*
X80815D01*
Y269004D01*
G37*
G36*
X100894Y275697D02*X95957D01*
Y268791D01*
X100894D01*
Y275697D01*
G37*
G36*
X113492D02*X108555D01*
Y268791D01*
X113492D01*
Y275697D01*
G37*
G36*
X107193D02*X102256D01*
Y268791D01*
X107193D01*
Y275697D01*
G37*
M02*
