M48
INCH
T44C0.114
T43C0.035
T42C0.020
T41C0.039
T40C0.038
%
T42
X002040Y015526
X002090Y014126
X002270Y017486
X002450Y011706
X002740Y019326
X003380Y009536
X004060Y016386
X004150Y014396
X004340Y018446
X004570Y012356
X005000Y020551
X005410Y010276
X006570Y008466
X007560Y007346
X007677Y024606
X008830Y006226
X008858Y025512
X009180Y020030
X009180Y019330
X009370Y016417
X009370Y015157
X010130Y028496
X010276Y025236
X010472Y026457
X010480Y005166
X011120Y003096
X011710Y029226
X012520Y004370
X012598Y027244
X013690Y002246
X013780Y029646
X014230Y016680
X014580Y004016
X014764Y027598
X014880Y013880
X015540Y001906
X015890Y029586
X016740Y004036
X016890Y027598
X017560Y001996
X017860Y029246
X018940Y004446
X018976Y027205
X019160Y002306
X019800Y028586
X020990Y005256
X021063Y026417
X021230Y003116
X021970Y028016
X022650Y006256
X022717Y025394
X023860Y007246
X024700Y016436
X024880Y008326
X025236Y013228
X025236Y012283
X025480Y024252
X025520Y016436
X026120Y010146
X026460Y006456
X026693Y020551
X026960Y012236
X027540Y009256
X028640Y011386
X029270Y013336
X029350Y019386
X029600Y015346
X029610Y016736
T43
X003710Y027636
X005470Y015326
X006370Y019006
X006770Y011936
X011496Y013661
X011999Y019778
X013340Y006816
X013420Y025876
X015080Y018780
X017830Y018780
X017920Y006486
X018420Y025846
X018669Y017528
X018669Y015928
X018669Y014428
X018669Y012928
X018669Y011428
X018669Y009928
X020469Y015928
X020469Y014428
X020469Y012928
X020469Y011428
X020469Y009928
X020470Y017526
X020630Y008080
X021130Y020730
X022269Y009928
X022880Y018076
X024160Y018056
X026290Y017516
X026300Y016366
X026650Y015206
X027530Y027636
T40
X005280Y023130
X005280Y022130
X006280Y023130
X006280Y022130
X007280Y023130
X007280Y022130
X008280Y023130
X008280Y022130
X009280Y023130
X009280Y022130
X010280Y023130
X010280Y022130
X011280Y023130
X011280Y022130
X012280Y023130
X012280Y022130
X013280Y023130
X013280Y022130
X014280Y023130
X014280Y022130
X015280Y023130
X015280Y022130
X016280Y023130
X016280Y022130
X017280Y023130
X017280Y022130
X018280Y023130
X018280Y022130
X019280Y023130
X019280Y022130
X020280Y023130
X020280Y022130
X021280Y023130
X021280Y022130
X022280Y023130
X022280Y022130
X023280Y023130
X023280Y022130
X024280Y023130
X024280Y022130
T41
X009340Y008749
X013868Y008749
T44
X003346Y022638
X003346Y003346
X026181Y022638
X026181Y003346
M30
