G04 start of page 9 for group -4078 idx -4078 *
G04 Title: (unknown), bottomsilk *
G04 Creator: pcb 4.2.0 *
G04 CreationDate: Thu Feb 27 09:31:51 2020 UTC *
G04 For: blinken *
G04 Format: Gerber/RS-274X *
G04 PCB-Dimensions (mm): 65.00 56.00 *
G04 PCB-Coordinate-Origin: lower left *
%MOMM*%
%FSLAX43Y43*%
%LNBOTTOMSILK*%
%ADD59C,0.150*%
G54D59*X19888Y31881D02*X19761Y32008D01*
X19888Y31627D02*Y31881D01*
X19761Y31500D02*X19888Y31627D01*
X19507Y31500D02*X19761D01*
X19507D02*X19380Y31627D01*
Y31881D01*
X19507Y32008D01*
X19126Y31500D02*X18999Y31627D01*
Y31881D01*
X19126Y32008D01*
X19888D01*
X20117Y32313D02*X20142D01*
X19380D02*X19761D01*
X19507Y32694D02*X20396D01*
X19507D02*X19380Y32821D01*
X20015Y32567D02*Y32821D01*
X19380Y33075D02*X20396D01*
X19761D02*X19888Y33202D01*
Y33456D01*
X19761Y33583D01*
X19380D02*X19761D01*
X19507Y33888D02*X19888D01*
X19507D02*X19380Y34015D01*
Y34269D01*
X19507Y34396D01*
X19888D01*
X19380Y34700D02*X20396D01*
X19507D02*X19380Y34827D01*
Y35081D01*
X19507Y35208D01*
X19761D01*
X19888Y35081D02*X19761Y35208D01*
X19888Y34827D02*Y35081D01*
X19761Y34700D02*X19888Y34827D01*
X19380Y35513D02*Y35640D01*
X19888Y36072D02*Y36453D01*
X19761Y35945D02*X19888Y36072D01*
X19507Y35945D02*X19761D01*
X19507D02*X19380Y36072D01*
Y36453D01*
X19507Y36758D02*X19761D01*
X19888Y36885D01*
Y37139D01*
X19761Y37266D01*
X19507D02*X19761D01*
X19380Y37139D02*X19507Y37266D01*
X19380Y36885D02*Y37139D01*
X19507Y36758D02*X19380Y36885D01*
Y37698D02*X19761D01*
X19888Y37825D01*
Y37952D01*
X19761Y38079D01*
X19380D02*X19761D01*
X19888Y38206D01*
Y38333D01*
X19761Y38460D01*
X19380D02*X19761D01*
X19888Y37571D02*X19761Y37698D01*
X19507Y38764D02*X20269Y39526D01*
X19380Y39831D02*X20396D01*
X19507D02*X19380Y39958D01*
Y40212D01*
X19507Y40339D01*
X19761D01*
X19888Y40212D02*X19761Y40339D01*
X19888Y39958D02*Y40212D01*
X19761Y39831D02*X19888Y39958D01*
X19507Y40644D02*X20396D01*
X19507D02*X19380Y40771D01*
X20117Y41025D02*X20142D01*
X19380D02*X19761D01*
X19380Y41406D02*X19761D01*
X19888Y41533D01*
Y41660D01*
X19761Y41787D01*
X19380D02*X19761D01*
X19888Y41279D02*X19761Y41406D01*
X19380Y42092D02*X20396D01*
X19761D02*X19380Y42473D01*
X19761Y42092D02*X20015Y42346D01*
X19380Y42905D02*Y43286D01*
X19507Y42778D02*X19380Y42905D01*
X19507Y42778D02*X19761D01*
X19888Y42905D01*
Y43159D01*
X19761Y43286D01*
X19634Y42778D02*Y43286D01*
X19761D01*
X19380Y43717D02*X19761D01*
X19888Y43844D01*
Y43971D01*
X19761Y44098D01*
X19380D02*X19761D01*
X19888Y43590D02*X19761Y43717D01*
X19507Y44403D02*X20269Y45165D01*
X18999Y45597D02*X19761D01*
X19888Y45470D02*X19761Y45597D01*
X19888Y45724D01*
Y45978D01*
X19761Y46105D01*
X19507D02*X19761D01*
X19380Y45978D02*X19507Y46105D01*
X19380Y45724D02*Y45978D01*
X19507Y45597D02*X19380Y45724D01*
X19888Y46791D02*X19761Y46918D01*
X19888Y46537D02*Y46791D01*
X19761Y46410D02*X19888Y46537D01*
X19507Y46410D02*X19761D01*
X19507D02*X19380Y46537D01*
X19507Y46918D02*X19888D01*
X19507D02*X19380Y47045D01*
Y46537D02*Y46791D01*
X19507Y46918D01*
X19380Y47477D02*X19761D01*
X19888Y47604D01*
Y47858D01*
Y47350D02*X19761Y47477D01*
X19888Y48543D02*X19761Y48670D01*
X19888Y48289D02*Y48543D01*
X19761Y48162D02*X19888Y48289D01*
X19507Y48162D02*X19761D01*
X19507D02*X19380Y48289D01*
X19507Y48670D02*X19888D01*
X19507D02*X19380Y48797D01*
Y48289D02*Y48543D01*
X19507Y48670D01*
X19380Y49610D02*X20396D01*
X19380Y49483D02*X19507Y49610D01*
X19380Y49229D02*Y49483D01*
X19507Y49102D02*X19380Y49229D01*
X19507Y49102D02*X19761D01*
X19888Y49229D01*
Y49483D01*
X19761Y49610D01*
X19888Y50296D02*X19761Y50423D01*
X19888Y50042D02*Y50296D01*
X19761Y49915D02*X19888Y50042D01*
X19507Y49915D02*X19761D01*
X19507D02*X19380Y50042D01*
X19507Y50423D02*X19888D01*
X19507D02*X19380Y50550D01*
Y50042D02*Y50296D01*
X19507Y50423D01*
X19380Y50982D02*X19761D01*
X19888Y51109D01*
Y51363D01*
Y50855D02*X19761Y50982D01*
X20517Y28871D02*Y30334D01*
X19968D02*X20700D01*
X19968D02*X19786Y30151D01*
Y29786D02*Y30151D01*
X19968Y29603D02*X19786Y29786D01*
X19968Y29603D02*X20517D01*
X18981Y30334D02*X19347D01*
X19164Y28871D02*Y30334D01*
X18981Y28871D02*X19347D01*
X16969Y30334D02*X17884D01*
Y28871D02*X16969Y30334D01*
Y28871D02*X17884D01*
X15982Y29676D02*X16530D01*
X15799Y28871D02*X16530D01*
Y30334D01*
X15799D02*X16530D01*
X14628D02*X15360D01*
X14628D02*X14445Y30151D01*
Y29786D02*Y30151D01*
X14628Y29603D02*X14445Y29786D01*
X14628Y29603D02*X15177D01*
Y28871D02*Y30334D01*
X14884Y29603D02*X14445Y28871D01*
X14007Y29054D02*Y30151D01*
X13824Y30334D01*
X13458D02*X13824D01*
X13458D02*X13275Y30151D01*
Y29054D02*Y30151D01*
X13458Y28871D02*X13275Y29054D01*
X13458Y28871D02*X13824D01*
X14007Y29054D02*X13824Y28871D01*
X12178Y29054D02*Y30334D01*
Y29054D02*X11995Y28871D01*
X11629D02*X11995D01*
X11629D02*X11446Y29054D01*
Y30334D01*
X10276D02*X10093Y30151D01*
X10276Y30334D02*X10824D01*
X11007Y30151D02*X10824Y30334D01*
X11007Y29786D02*Y30151D01*
Y29786D02*X10824Y29603D01*
X10276D02*X10824D01*
X10276D02*X10093Y29420D01*
Y29054D02*Y29420D01*
X10276Y28871D02*X10093Y29054D01*
X10276Y28871D02*X10824D01*
X11007Y29054D02*X10824Y28871D01*
X8923D02*X9654D01*
X8923D02*X8740Y29054D01*
Y29493D01*
X8923Y29676D02*X8740Y29493D01*
X8923Y29676D02*X9471D01*
Y28871D02*Y30334D01*
X8923D02*X9654D01*
X8923D02*X8740Y30151D01*
Y29859D02*Y30151D01*
X8923Y29676D02*X8740Y29859D01*
X7642Y29603D02*X7277Y28871D01*
X6911Y29603D02*X7277Y28871D01*
X6472Y30042D02*X6179Y30334D01*
Y28871D02*Y30334D01*
X5923Y28871D02*X6472D01*
X5301D02*X5484D01*
X4863Y30042D02*X4570Y30334D01*
Y28871D02*Y30334D01*
X4314Y28871D02*X4863D01*
X3875D02*Y29968D01*
X3619Y30334D01*
X3217D02*X3619D01*
X3217D02*X2961Y29968D01*
Y28871D02*Y29968D01*
Y29603D02*X3875D01*
M02*
