G04 start of page 10 for group -4015 idx -4015 *
G04 Title: (unknown), toppaste *
G04 Creator: pcb 4.2.0 *
G04 CreationDate: Thu Feb 27 09:31:51 2020 UTC *
G04 For: blinken *
G04 Format: Gerber/RS-274X *
G04 PCB-Dimensions (mm): 65.00 56.00 *
G04 PCB-Coordinate-Origin: lower left *
%MOMM*%
%FSLAX43Y43*%
%LNTOPPASTE*%
%ADD60C,0.002*%
G54D60*G36*
X9200Y24950D02*X7950D01*
Y22950D01*
X9200D01*
Y24950D01*
G37*
G36*
X6700D02*X5450D01*
Y22950D01*
X6700D01*
Y24950D01*
G37*
G36*
X11200D02*X9950D01*
Y22950D01*
X11200D01*
Y24950D01*
G37*
G36*
X13700D02*X12450D01*
Y22950D01*
X13700D01*
Y24950D01*
G37*
G36*
X250Y27100D02*Y25100D01*
X3750D01*
Y27100D01*
X250D01*
G37*
G36*
Y33200D02*Y31200D01*
X3750D01*
Y33200D01*
X250D01*
G37*
G36*
X15450D02*Y31200D01*
X18950D01*
Y33200D01*
X15450D01*
G37*
G36*
Y27100D02*Y25100D01*
X18950D01*
Y27100D01*
X15450D01*
G37*
G36*
X19700Y36250D02*Y35850D01*
X21500D01*
Y36250D01*
X19700D01*
G37*
G36*
Y38850D02*Y38450D01*
X21500D01*
Y38850D01*
X19700D01*
G37*
G36*
Y36900D02*Y36500D01*
X21500D01*
Y36900D01*
X19700D01*
G37*
G36*
Y37550D02*Y37150D01*
X21500D01*
Y37550D01*
X19700D01*
G37*
G36*
Y38200D02*Y37800D01*
X21500D01*
Y38200D01*
X19700D01*
G37*
G36*
Y48850D02*Y48450D01*
X21500D01*
Y48850D01*
X19700D01*
G37*
G36*
Y51450D02*Y51050D01*
X21500D01*
Y51450D01*
X19700D01*
G37*
G36*
Y49500D02*Y49100D01*
X21500D01*
Y49500D01*
X19700D01*
G37*
G36*
Y50150D02*Y49750D01*
X21500D01*
Y50150D01*
X19700D01*
G37*
G36*
Y50800D02*Y50400D01*
X21500D01*
Y50800D01*
X19700D01*
G37*
M02*
