M48
METRIC,000.000
T45C0.965
T44C2.500
T43C0.654
T42C0.400
T41C1.300
T40C1.500
%
T42
X010575Y023950
X013075Y023950
X018100Y030050
X018900Y050600
X020650Y030800
X022750Y051250
T43
X022400Y044500
X022450Y042800
X022500Y031600
X022500Y030050
X022500Y028500
X022500Y026900
T45
X003800Y023800
T41
X022050Y053250
X022050Y046600
X022050Y040650
X022050Y034000
T40
X007100Y027200
X012000Y027200
T44
X021850Y024400
M30
