G04 start of page 8 for group -4079 idx -4079 *
G04 Title: (unknown), topsilk *
G04 Creator: pcb 4.2.0 *
G04 CreationDate: Thu Feb 13 16:47:07 2020 UTC *
G04 For: blinken *
G04 Format: Gerber/RS-274X *
G04 PCB-Dimensions (mm): 65.00 56.00 *
G04 PCB-Coordinate-Origin: lower left *
%MOMM*%
%FSLAX43Y43*%
%LNTOPSILK*%
%ADD38C,0.150*%
%ADD37C,0.203*%
%ADD36C,0.254*%
G54D36*X16100Y36450D02*Y33700D01*
X3050Y36450D02*Y33700D01*
X2000Y39650D02*X17200D01*
G54D37*X20450Y45700D02*X21650D01*
X20450Y43800D02*X21650D01*
X23250Y30650D02*Y29450D01*
X21350Y30650D02*Y29450D01*
G54D36*X23500Y54350D02*Y47650D01*
Y41750D02*Y35050D01*
G54D38*X40042Y35970D02*X40372D01*
X40550Y35792D02*X40372Y35970D01*
X40550Y35792D02*Y35132D01*
X40372Y34954D01*
X40042D02*X40372D01*
X39737Y35843D02*Y35081D01*
X39610Y34954D01*
X39356D02*X39610D01*
X39356D02*X39229Y35081D01*
Y35843D02*Y35081D01*
X39356Y35970D02*X39229Y35843D01*
X39356Y35970D02*X39610D01*
X39737Y35843D02*X39610Y35970D01*
X38924D02*Y34954D01*
X38289Y35970D01*
Y34954D01*
X37985Y35970D02*Y34954D01*
X37350Y35970D01*
Y34954D01*
X37045Y35081D02*X36918Y34954D01*
X36664D02*X36918D01*
X36664D02*X36537Y35081D01*
X36664Y35970D02*X36537Y35843D01*
X36664Y35970D02*X36918D01*
X37045Y35843D02*X36918Y35970D01*
X36664Y35411D02*X36918D01*
X36537Y35284D02*Y35081D01*
Y35843D02*Y35538D01*
X36664Y35411D01*
X36537Y35284D02*X36664Y35411D01*
X20250Y45296D02*X20758D01*
X20885Y45169D01*
Y44915D01*
X20758Y44788D02*X20885Y44915D01*
X20377Y44788D02*X20758D01*
X20377Y45296D02*Y44280D01*
X20580Y44788D02*X20885Y44280D01*
X21190Y45093D02*X21393Y45296D01*
Y44280D01*
X21190D02*X21571D01*
X21830Y30723D02*X22846D01*
Y30393D02*X22668Y30215D01*
X22008D02*X22668D01*
X21830Y30393D02*X22008Y30215D01*
X21830Y30850D02*Y30393D01*
X22846Y30850D02*Y30393D01*
X22643Y29910D02*X22846Y29707D01*
X21830D02*X22846D01*
X21830Y29910D02*Y29529D01*
X33920Y50058D02*Y49728D01*
X33742Y49550D02*X33920Y49728D01*
X33082Y49550D02*X33742D01*
X33082D02*X32904Y49728D01*
Y50058D02*Y49728D01*
X33031Y50363D02*X33793D01*
X33031D02*X32904Y50490D01*
Y50744D02*Y50490D01*
Y50744D02*X33031Y50871D01*
X33793D01*
X33920Y50744D02*X33793Y50871D01*
X33920Y50744D02*Y50490D01*
X33793Y50363D02*X33920Y50490D01*
X32904Y51176D02*X33920D01*
X32904D02*X33920Y51811D01*
X32904D02*X33920D01*
X32904Y52115D02*X33920D01*
X32904D02*X33920Y52750D01*
X32904D02*X33920D01*
X33107Y53055D02*X32904Y53258D01*
X33920D01*
Y53436D02*Y53055D01*
X34670Y40258D02*Y39928D01*
X34492Y39750D02*X34670Y39928D01*
X33832Y39750D02*X34492D01*
X33832D02*X33654Y39928D01*
Y40258D02*Y39928D01*
X33781Y40563D02*X34543D01*
X33781D02*X33654Y40690D01*
Y40944D02*Y40690D01*
Y40944D02*X33781Y41071D01*
X34543D01*
X34670Y40944D02*X34543Y41071D01*
X34670Y40944D02*Y40690D01*
X34543Y40563D02*X34670Y40690D01*
X33654Y41376D02*X34670D01*
X33654D02*X34670Y42011D01*
X33654D02*X34670D01*
X33654Y42315D02*X34670D01*
X33654D02*X34670Y42950D01*
X33654D02*X34670D01*
X33781Y43255D02*X33654Y43382D01*
Y43763D02*Y43382D01*
Y43763D02*X33781Y43890D01*
X34035D01*
X34670Y43255D02*X34035Y43890D01*
X34670D02*Y43255D01*
M02*
