G04 start of page 3 for group 5 idx 5 *
G04 Title: (unknown), bottom *
G04 Creator: pcb 4.2.0 *
G04 CreationDate: Thu Feb 13 16:47:07 2020 UTC *
G04 For: blinken *
G04 Format: Gerber/RS-274X *
G04 PCB-Dimensions (mm): 65.00 56.00 *
G04 PCB-Coordinate-Origin: lower left *
%MOMM*%
%FSLAX43Y43*%
%LNBOTTOM*%
%ADD26C,1.300*%
%ADD25C,1.500*%
%ADD24C,0.400*%
%ADD23C,0.800*%
%ADD22C,1.600*%
%ADD21C,1.700*%
%ADD20C,0.254*%
%ADD19C,0.002*%
G54D19*G36*
X12000Y28119D02*X14535D01*
X14550Y28118D01*
X14610Y28123D01*
X14610Y28123D01*
X14668Y28137D01*
X14724Y28159D01*
X14775Y28191D01*
X14820Y28230D01*
X14830Y28241D01*
X20259Y33670D01*
X20270Y33680D01*
X20309Y33725D01*
X20309Y33725D01*
X20341Y33776D01*
X20361Y33825D01*
X20391Y33775D01*
X20430Y33730D01*
X20441Y33720D01*
X21170Y32991D01*
X21180Y32980D01*
X21225Y32941D01*
X21276Y32909D01*
X21332Y32887D01*
X21390Y32873D01*
X21450Y32868D01*
X21465Y32869D01*
X21550D01*
Y32250D01*
X22561D01*
X20592Y30281D01*
X19984D01*
X19981Y30286D01*
X19914Y30364D01*
X19836Y30431D01*
X19748Y30485D01*
X19653Y30524D01*
X19553Y30548D01*
X19450Y30556D01*
X19347Y30548D01*
X19247Y30524D01*
X19152Y30485D01*
X19064Y30431D01*
X18986Y30364D01*
X18919Y30286D01*
X18865Y30198D01*
X18826Y30103D01*
X18802Y30003D01*
X18794Y29900D01*
X18802Y29797D01*
X18826Y29697D01*
X18865Y29602D01*
X18919Y29514D01*
X18986Y29436D01*
X19064Y29369D01*
X19152Y29315D01*
X19247Y29276D01*
X19347Y29252D01*
X19450Y29244D01*
X19553Y29252D01*
X19653Y29276D01*
X19748Y29315D01*
X19836Y29369D01*
X19914Y29436D01*
X19981Y29514D01*
X19984Y29519D01*
X20735D01*
X20750Y29518D01*
X20810Y29523D01*
X20810Y29523D01*
X20868Y29537D01*
X20924Y29559D01*
X20975Y29591D01*
X21020Y29630D01*
X21030Y29641D01*
X23609Y32220D01*
X23620Y32230D01*
X23638Y32250D01*
X23700D01*
Y27650D01*
X12000D01*
Y28119D01*
G37*
G36*
Y29519D02*X14935D01*
X14950Y29518D01*
X15010Y29523D01*
X15010Y29523D01*
X15041Y29530D01*
X14392Y28881D01*
X12000D01*
Y29519D01*
G37*
G36*
X22917Y55500D02*X23700D01*
Y52500D01*
X23589D01*
X22917Y53172D01*
Y53734D01*
X22929Y53740D01*
X22945Y53753D01*
X22958Y53767D01*
X22969Y53784D01*
X23014Y53871D01*
X23050Y53963D01*
X23077Y54057D01*
X23095Y54153D01*
X23104Y54251D01*
Y54349D01*
X23095Y54447D01*
X23077Y54543D01*
X23050Y54637D01*
X23014Y54729D01*
X22970Y54816D01*
X22959Y54833D01*
X22945Y54848D01*
X22930Y54860D01*
X22917Y54867D01*
Y55500D01*
G37*
G36*
X22050D02*X22917D01*
Y54867D01*
X22912Y54870D01*
X22893Y54877D01*
X22873Y54881D01*
X22853Y54882D01*
X22833Y54879D01*
X22814Y54874D01*
X22796Y54866D01*
X22779Y54854D01*
X22764Y54841D01*
X22752Y54825D01*
X22742Y54807D01*
X22735Y54788D01*
X22731Y54769D01*
X22730Y54749D01*
X22733Y54729D01*
X22738Y54709D01*
X22747Y54691D01*
X22781Y54625D01*
X22808Y54556D01*
X22828Y54484D01*
X22842Y54411D01*
X22849Y54337D01*
Y54263D01*
X22842Y54189D01*
X22828Y54116D01*
X22808Y54044D01*
X22781Y53975D01*
X22748Y53908D01*
X22739Y53891D01*
X22733Y53871D01*
X22731Y53851D01*
X22732Y53831D01*
X22736Y53812D01*
X22743Y53793D01*
X22752Y53776D01*
X22765Y53760D01*
X22779Y53746D01*
X22796Y53735D01*
X22814Y53727D01*
X22833Y53721D01*
X22853Y53719D01*
X22873Y53720D01*
X22893Y53724D01*
X22912Y53731D01*
X22917Y53734D01*
Y53172D01*
X22830Y53259D01*
X22820Y53270D01*
X22775Y53309D01*
X22724Y53341D01*
X22668Y53363D01*
X22610Y53377D01*
X22568Y53381D01*
X22583Y53391D01*
X22598Y53405D01*
X22610Y53420D01*
X22620Y53438D01*
X22627Y53457D01*
X22631Y53477D01*
X22632Y53497D01*
X22629Y53517D01*
X22624Y53536D01*
X22616Y53554D01*
X22604Y53571D01*
X22591Y53586D01*
X22575Y53598D01*
X22557Y53608D01*
X22538Y53615D01*
X22519Y53619D01*
X22499Y53620D01*
X22479Y53617D01*
X22459Y53612D01*
X22441Y53603D01*
X22375Y53569D01*
X22306Y53542D01*
X22234Y53522D01*
X22161Y53508D01*
X22087Y53501D01*
X22050D01*
Y55099D01*
X22087D01*
X22161Y55092D01*
X22234Y55078D01*
X22306Y55058D01*
X22375Y55031D01*
X22442Y54998D01*
X22459Y54989D01*
X22479Y54983D01*
X22499Y54981D01*
X22519Y54982D01*
X22538Y54986D01*
X22557Y54993D01*
X22574Y55002D01*
X22590Y55015D01*
X22604Y55029D01*
X22615Y55046D01*
X22623Y55064D01*
X22629Y55083D01*
X22631Y55103D01*
X22630Y55123D01*
X22626Y55143D01*
X22619Y55162D01*
X22610Y55179D01*
X22597Y55195D01*
X22583Y55208D01*
X22566Y55219D01*
X22479Y55264D01*
X22387Y55300D01*
X22293Y55327D01*
X22197Y55345D01*
X22099Y55354D01*
X22050D01*
Y55500D01*
G37*
G36*
X21183Y52619D02*X21901D01*
X21836Y52564D01*
X21769Y52486D01*
X21715Y52398D01*
X21676Y52303D01*
X21652Y52203D01*
X21644Y52100D01*
X21652Y51997D01*
X21653Y51992D01*
X21183Y51522D01*
Y52619D01*
G37*
G36*
Y55500D02*X22050D01*
Y55354D01*
X22001D01*
X21903Y55345D01*
X21807Y55327D01*
X21713Y55300D01*
X21621Y55264D01*
X21534Y55220D01*
X21517Y55209D01*
X21502Y55195D01*
X21490Y55180D01*
X21480Y55162D01*
X21473Y55143D01*
X21469Y55123D01*
X21468Y55103D01*
X21471Y55083D01*
X21476Y55064D01*
X21484Y55046D01*
X21496Y55029D01*
X21509Y55014D01*
X21525Y55002D01*
X21543Y54992D01*
X21562Y54985D01*
X21581Y54981D01*
X21601Y54980D01*
X21621Y54983D01*
X21641Y54988D01*
X21659Y54997D01*
X21725Y55031D01*
X21794Y55058D01*
X21866Y55078D01*
X21939Y55092D01*
X22013Y55099D01*
X22050D01*
Y53501D01*
X22013D01*
X21939Y53508D01*
X21866Y53522D01*
X21794Y53542D01*
X21725Y53569D01*
X21658Y53602D01*
X21641Y53611D01*
X21621Y53617D01*
X21601Y53619D01*
X21581Y53618D01*
X21562Y53614D01*
X21543Y53607D01*
X21526Y53598D01*
X21510Y53585D01*
X21496Y53571D01*
X21485Y53554D01*
X21477Y53536D01*
X21471Y53517D01*
X21469Y53497D01*
X21470Y53477D01*
X21474Y53457D01*
X21481Y53438D01*
X21490Y53421D01*
X21503Y53405D01*
X21517Y53392D01*
X21534Y53381D01*
X21183D01*
Y53733D01*
X21188Y53730D01*
X21207Y53723D01*
X21227Y53719D01*
X21247Y53718D01*
X21267Y53721D01*
X21286Y53726D01*
X21304Y53734D01*
X21321Y53746D01*
X21336Y53759D01*
X21348Y53775D01*
X21358Y53793D01*
X21365Y53812D01*
X21369Y53831D01*
X21370Y53851D01*
X21367Y53871D01*
X21362Y53891D01*
X21353Y53909D01*
X21319Y53975D01*
X21292Y54044D01*
X21272Y54116D01*
X21258Y54189D01*
X21251Y54263D01*
Y54337D01*
X21258Y54411D01*
X21272Y54484D01*
X21292Y54556D01*
X21319Y54625D01*
X21352Y54692D01*
X21361Y54709D01*
X21367Y54729D01*
X21369Y54749D01*
X21368Y54769D01*
X21364Y54788D01*
X21357Y54807D01*
X21348Y54824D01*
X21335Y54840D01*
X21321Y54854D01*
X21304Y54865D01*
X21286Y54873D01*
X21267Y54879D01*
X21247Y54881D01*
X21227Y54880D01*
X21207Y54876D01*
X21188Y54869D01*
X21183Y54866D01*
Y55500D01*
G37*
G36*
X18300D02*X21183D01*
Y54866D01*
X21171Y54860D01*
X21155Y54847D01*
X21142Y54833D01*
X21131Y54816D01*
X21086Y54729D01*
X21050Y54637D01*
X21023Y54543D01*
X21005Y54447D01*
X20996Y54349D01*
Y54251D01*
X21005Y54153D01*
X21023Y54057D01*
X21050Y53963D01*
X21086Y53871D01*
X21130Y53784D01*
X21141Y53767D01*
X21155Y53752D01*
X21170Y53740D01*
X21183Y53733D01*
Y53381D01*
X19808D01*
X19747Y53442D01*
X19748Y53447D01*
X19754Y53550D01*
X19748Y53653D01*
X19724Y53753D01*
X19685Y53848D01*
X19631Y53936D01*
X19564Y54014D01*
X19486Y54081D01*
X19398Y54135D01*
X19303Y54174D01*
X19203Y54198D01*
X19100Y54206D01*
X18997Y54198D01*
X18897Y54174D01*
X18802Y54135D01*
X18714Y54081D01*
X18636Y54014D01*
X18569Y53936D01*
X18515Y53848D01*
X18476Y53753D01*
X18452Y53653D01*
X18444Y53550D01*
X18452Y53447D01*
X18476Y53347D01*
X18515Y53252D01*
X18569Y53164D01*
X18636Y53086D01*
X18714Y53019D01*
X18802Y52965D01*
X18897Y52926D01*
X18997Y52902D01*
X19100Y52894D01*
X19203Y52902D01*
X19208Y52903D01*
X19370Y52741D01*
X19380Y52730D01*
X19425Y52691D01*
X19476Y52659D01*
X19532Y52637D01*
X19590Y52623D01*
X19650Y52618D01*
X19665Y52619D01*
X21183D01*
Y51522D01*
X19041Y49380D01*
X19030Y49370D01*
X18991Y49325D01*
X18959Y49274D01*
X18937Y49218D01*
X18923Y49160D01*
X18923Y49160D01*
X18918Y49100D01*
X18919Y49085D01*
Y34408D01*
X14792Y30281D01*
X12911D01*
Y32551D01*
X12914Y32553D01*
X12930Y32565D01*
X12944Y32580D01*
X12955Y32596D01*
X13001Y32681D01*
X13038Y32771D01*
X13067Y32863D01*
X13088Y32957D01*
X13101Y33053D01*
X13105Y33150D01*
X13101Y33247D01*
X13088Y33343D01*
X13067Y33437D01*
X13038Y33529D01*
X13001Y33619D01*
X12956Y33704D01*
X12945Y33721D01*
X12931Y33735D01*
X12915Y33748D01*
X12911Y33750D01*
Y39150D01*
X18300D01*
Y55500D01*
G37*
G36*
X12911Y30281D02*X12000D01*
Y32045D01*
X12097Y32049D01*
X12193Y32062D01*
X12287Y32083D01*
X12379Y32112D01*
X12469Y32149D01*
X12554Y32194D01*
X12571Y32205D01*
X12585Y32219D01*
X12598Y32235D01*
X12607Y32253D01*
X12614Y32272D01*
X12618Y32292D01*
X12618Y32312D01*
X12615Y32332D01*
X12610Y32351D01*
X12601Y32369D01*
X12590Y32386D01*
X12576Y32400D01*
X12560Y32412D01*
X12542Y32422D01*
X12523Y32429D01*
X12503Y32432D01*
X12483Y32433D01*
X12463Y32430D01*
X12444Y32424D01*
X12426Y32415D01*
X12360Y32380D01*
X12292Y32352D01*
X12221Y32329D01*
X12148Y32313D01*
X12074Y32303D01*
X12000Y32300D01*
Y34000D01*
X12074Y33997D01*
X12148Y33987D01*
X12221Y33971D01*
X12292Y33948D01*
X12360Y33920D01*
X12426Y33885D01*
X12444Y33876D01*
X12463Y33871D01*
X12483Y33868D01*
X12503Y33868D01*
X12523Y33872D01*
X12542Y33879D01*
X12559Y33888D01*
X12575Y33900D01*
X12589Y33915D01*
X12600Y33931D01*
X12609Y33949D01*
X12615Y33969D01*
X12617Y33988D01*
X12617Y34008D01*
X12613Y34028D01*
X12607Y34047D01*
X12597Y34064D01*
X12585Y34080D01*
X12570Y34094D01*
X12554Y34105D01*
X12469Y34151D01*
X12379Y34188D01*
X12287Y34217D01*
X12193Y34238D01*
X12097Y34251D01*
X12000Y34255D01*
Y39150D01*
X12911D01*
Y33750D01*
X12897Y33757D01*
X12878Y33764D01*
X12858Y33768D01*
X12838Y33768D01*
X12818Y33765D01*
X12799Y33760D01*
X12781Y33751D01*
X12764Y33740D01*
X12750Y33726D01*
X12738Y33710D01*
X12728Y33692D01*
X12721Y33673D01*
X12718Y33653D01*
X12717Y33633D01*
X12720Y33613D01*
X12726Y33594D01*
X12735Y33576D01*
X12770Y33510D01*
X12798Y33442D01*
X12821Y33371D01*
X12837Y33298D01*
X12847Y33224D01*
X12850Y33150D01*
X12847Y33076D01*
X12837Y33002D01*
X12821Y32929D01*
X12798Y32858D01*
X12770Y32790D01*
X12735Y32724D01*
X12726Y32706D01*
X12721Y32687D01*
X12718Y32667D01*
X12718Y32647D01*
X12722Y32627D01*
X12729Y32608D01*
X12738Y32591D01*
X12750Y32575D01*
X12765Y32561D01*
X12781Y32550D01*
X12799Y32541D01*
X12819Y32535D01*
X12838Y32533D01*
X12858Y32533D01*
X12878Y32537D01*
X12897Y32543D01*
X12911Y32551D01*
Y30281D01*
G37*
G36*
X11089Y28119D02*X12000D01*
Y27650D01*
X11089D01*
Y28119D01*
G37*
G36*
Y29495D02*X11106Y29514D01*
X11109Y29519D01*
X12000D01*
Y28881D01*
X11089D01*
Y29495D01*
G37*
G36*
X12000Y30281D02*X11109D01*
X11106Y30286D01*
X11089Y30305D01*
Y32550D01*
X11103Y32543D01*
X11122Y32536D01*
X11142Y32532D01*
X11162Y32532D01*
X11182Y32535D01*
X11201Y32540D01*
X11219Y32549D01*
X11236Y32560D01*
X11250Y32574D01*
X11262Y32590D01*
X11272Y32608D01*
X11279Y32627D01*
X11282Y32647D01*
X11283Y32667D01*
X11280Y32687D01*
X11274Y32706D01*
X11265Y32724D01*
X11230Y32790D01*
X11202Y32858D01*
X11179Y32929D01*
X11163Y33002D01*
X11153Y33076D01*
X11150Y33150D01*
X11153Y33224D01*
X11163Y33298D01*
X11179Y33371D01*
X11202Y33442D01*
X11230Y33510D01*
X11265Y33576D01*
X11274Y33594D01*
X11279Y33613D01*
X11282Y33633D01*
X11282Y33653D01*
X11278Y33673D01*
X11271Y33692D01*
X11262Y33709D01*
X11250Y33725D01*
X11235Y33739D01*
X11219Y33750D01*
X11201Y33759D01*
X11181Y33765D01*
X11162Y33767D01*
X11142Y33767D01*
X11122Y33763D01*
X11103Y33757D01*
X11089Y33749D01*
Y39150D01*
X12000D01*
Y34255D01*
X12000Y34255D01*
X11903Y34251D01*
X11807Y34238D01*
X11713Y34217D01*
X11621Y34188D01*
X11531Y34151D01*
X11446Y34106D01*
X11429Y34095D01*
X11415Y34081D01*
X11402Y34065D01*
X11393Y34047D01*
X11386Y34028D01*
X11382Y34008D01*
X11382Y33988D01*
X11385Y33968D01*
X11390Y33949D01*
X11399Y33931D01*
X11410Y33914D01*
X11424Y33900D01*
X11440Y33888D01*
X11458Y33878D01*
X11477Y33871D01*
X11497Y33868D01*
X11517Y33867D01*
X11537Y33870D01*
X11556Y33876D01*
X11574Y33885D01*
X11640Y33920D01*
X11708Y33948D01*
X11779Y33971D01*
X11852Y33987D01*
X11926Y33997D01*
X12000Y34000D01*
X12000Y34000D01*
Y32300D01*
X12000Y32300D01*
X11926Y32303D01*
X11852Y32313D01*
X11779Y32329D01*
X11708Y32352D01*
X11640Y32380D01*
X11574Y32415D01*
X11556Y32424D01*
X11537Y32429D01*
X11517Y32432D01*
X11497Y32432D01*
X11477Y32428D01*
X11458Y32421D01*
X11441Y32412D01*
X11425Y32400D01*
X11411Y32385D01*
X11400Y32369D01*
X11391Y32351D01*
X11385Y32331D01*
X11383Y32312D01*
X11383Y32292D01*
X11387Y32272D01*
X11393Y32253D01*
X11403Y32236D01*
X11415Y32220D01*
X11430Y32206D01*
X11446Y32195D01*
X11531Y32149D01*
X11621Y32112D01*
X11713Y32083D01*
X11807Y32062D01*
X11903Y32049D01*
X12000Y32045D01*
X12000Y32045D01*
Y30281D01*
G37*
G36*
X8011Y29568D02*X8044Y29514D01*
X8111Y29436D01*
X8189Y29369D01*
X8277Y29315D01*
X8372Y29276D01*
X8472Y29252D01*
X8575Y29244D01*
X8678Y29252D01*
X8683Y29253D01*
X9695Y28241D01*
X9705Y28230D01*
X9750Y28191D01*
X9801Y28159D01*
X9857Y28137D01*
X9915Y28123D01*
X9975Y28118D01*
X9990Y28119D01*
X11089D01*
Y27650D01*
X8011D01*
Y29568D01*
G37*
G36*
X11089Y30305D02*X11039Y30364D01*
X10961Y30431D01*
X10873Y30485D01*
X10778Y30524D01*
X10678Y30548D01*
X10575Y30556D01*
X10472Y30548D01*
X10372Y30524D01*
X10277Y30485D01*
X10189Y30431D01*
X10111Y30364D01*
X10044Y30286D01*
X9990Y30198D01*
X9951Y30103D01*
X9927Y30003D01*
X9919Y29900D01*
X9927Y29797D01*
X9951Y29697D01*
X9990Y29602D01*
X10044Y29514D01*
X10111Y29436D01*
X10189Y29369D01*
X10277Y29315D01*
X10372Y29276D01*
X10472Y29252D01*
X10575Y29244D01*
X10678Y29252D01*
X10778Y29276D01*
X10873Y29315D01*
X10961Y29369D01*
X11039Y29436D01*
X11089Y29495D01*
Y28881D01*
X10133D01*
X9222Y29792D01*
X9223Y29797D01*
X9229Y29900D01*
X9223Y30003D01*
X9199Y30103D01*
X9160Y30198D01*
X9106Y30286D01*
X9039Y30364D01*
X8961Y30431D01*
X8873Y30485D01*
X8778Y30524D01*
X8678Y30548D01*
X8575Y30556D01*
X8472Y30548D01*
X8372Y30524D01*
X8277Y30485D01*
X8189Y30431D01*
X8111Y30364D01*
X8044Y30286D01*
X8011Y30232D01*
Y32551D01*
X8014Y32553D01*
X8030Y32565D01*
X8044Y32580D01*
X8055Y32596D01*
X8101Y32681D01*
X8138Y32771D01*
X8167Y32863D01*
X8188Y32957D01*
X8201Y33053D01*
X8205Y33150D01*
X8201Y33247D01*
X8188Y33343D01*
X8167Y33437D01*
X8138Y33529D01*
X8101Y33619D01*
X8056Y33704D01*
X8045Y33721D01*
X8031Y33735D01*
X8015Y33748D01*
X8011Y33750D01*
Y39150D01*
X11089D01*
Y33749D01*
X11086Y33747D01*
X11070Y33735D01*
X11056Y33720D01*
X11045Y33704D01*
X10999Y33619D01*
X10962Y33529D01*
X10933Y33437D01*
X10912Y33343D01*
X10899Y33247D01*
X10895Y33150D01*
X10899Y33053D01*
X10912Y32957D01*
X10933Y32863D01*
X10962Y32771D01*
X10999Y32681D01*
X11044Y32596D01*
X11055Y32579D01*
X11069Y32565D01*
X11085Y32552D01*
X11089Y32550D01*
Y30305D01*
G37*
G36*
X8011Y30232D02*X7990Y30198D01*
X7951Y30103D01*
X7927Y30003D01*
X7919Y29900D01*
X7927Y29797D01*
X7951Y29697D01*
X7990Y29602D01*
X8011Y29568D01*
Y27650D01*
X7100D01*
Y32045D01*
X7197Y32049D01*
X7293Y32062D01*
X7387Y32083D01*
X7479Y32112D01*
X7569Y32149D01*
X7654Y32194D01*
X7671Y32205D01*
X7685Y32219D01*
X7698Y32235D01*
X7707Y32253D01*
X7714Y32272D01*
X7718Y32292D01*
X7718Y32312D01*
X7715Y32332D01*
X7710Y32351D01*
X7701Y32369D01*
X7690Y32386D01*
X7676Y32400D01*
X7660Y32412D01*
X7642Y32422D01*
X7623Y32429D01*
X7603Y32432D01*
X7583Y32433D01*
X7563Y32430D01*
X7544Y32424D01*
X7526Y32415D01*
X7460Y32380D01*
X7392Y32352D01*
X7321Y32329D01*
X7248Y32313D01*
X7174Y32303D01*
X7100Y32300D01*
Y34000D01*
X7174Y33997D01*
X7248Y33987D01*
X7321Y33971D01*
X7392Y33948D01*
X7460Y33920D01*
X7526Y33885D01*
X7544Y33876D01*
X7563Y33871D01*
X7583Y33868D01*
X7603Y33868D01*
X7623Y33872D01*
X7642Y33879D01*
X7659Y33888D01*
X7675Y33900D01*
X7689Y33915D01*
X7700Y33931D01*
X7709Y33949D01*
X7715Y33969D01*
X7717Y33988D01*
X7717Y34008D01*
X7713Y34028D01*
X7707Y34047D01*
X7697Y34064D01*
X7685Y34080D01*
X7670Y34094D01*
X7654Y34105D01*
X7569Y34151D01*
X7479Y34188D01*
X7387Y34217D01*
X7293Y34238D01*
X7197Y34251D01*
X7100Y34255D01*
Y39150D01*
X8011D01*
Y33750D01*
X7997Y33757D01*
X7978Y33764D01*
X7958Y33768D01*
X7938Y33768D01*
X7918Y33765D01*
X7899Y33760D01*
X7881Y33751D01*
X7864Y33740D01*
X7850Y33726D01*
X7838Y33710D01*
X7828Y33692D01*
X7821Y33673D01*
X7818Y33653D01*
X7817Y33633D01*
X7820Y33613D01*
X7826Y33594D01*
X7835Y33576D01*
X7870Y33510D01*
X7898Y33442D01*
X7921Y33371D01*
X7937Y33298D01*
X7947Y33224D01*
X7950Y33150D01*
X7947Y33076D01*
X7937Y33002D01*
X7921Y32929D01*
X7898Y32858D01*
X7870Y32790D01*
X7835Y32724D01*
X7826Y32706D01*
X7821Y32687D01*
X7818Y32667D01*
X7818Y32647D01*
X7822Y32627D01*
X7829Y32608D01*
X7838Y32591D01*
X7850Y32575D01*
X7865Y32561D01*
X7881Y32550D01*
X7899Y32541D01*
X7919Y32535D01*
X7938Y32533D01*
X7958Y32533D01*
X7978Y32537D01*
X7997Y32543D01*
X8011Y32551D01*
Y30232D01*
G37*
G36*
X7100Y27650D02*X6189D01*
Y32550D01*
X6203Y32543D01*
X6222Y32536D01*
X6242Y32532D01*
X6262Y32532D01*
X6282Y32535D01*
X6301Y32540D01*
X6319Y32549D01*
X6336Y32560D01*
X6350Y32574D01*
X6362Y32590D01*
X6372Y32608D01*
X6379Y32627D01*
X6382Y32647D01*
X6383Y32667D01*
X6380Y32687D01*
X6374Y32706D01*
X6365Y32724D01*
X6330Y32790D01*
X6302Y32858D01*
X6279Y32929D01*
X6263Y33002D01*
X6253Y33076D01*
X6250Y33150D01*
X6253Y33224D01*
X6263Y33298D01*
X6279Y33371D01*
X6302Y33442D01*
X6330Y33510D01*
X6365Y33576D01*
X6374Y33594D01*
X6379Y33613D01*
X6382Y33633D01*
X6382Y33653D01*
X6378Y33673D01*
X6371Y33692D01*
X6362Y33709D01*
X6350Y33725D01*
X6335Y33739D01*
X6319Y33750D01*
X6301Y33759D01*
X6281Y33765D01*
X6262Y33767D01*
X6242Y33767D01*
X6222Y33763D01*
X6203Y33757D01*
X6189Y33749D01*
Y39150D01*
X7100D01*
Y34255D01*
X7100Y34255D01*
X7003Y34251D01*
X6907Y34238D01*
X6813Y34217D01*
X6721Y34188D01*
X6631Y34151D01*
X6546Y34106D01*
X6529Y34095D01*
X6515Y34081D01*
X6502Y34065D01*
X6493Y34047D01*
X6486Y34028D01*
X6482Y34008D01*
X6482Y33988D01*
X6485Y33968D01*
X6490Y33949D01*
X6499Y33931D01*
X6510Y33914D01*
X6524Y33900D01*
X6540Y33888D01*
X6558Y33878D01*
X6577Y33871D01*
X6597Y33868D01*
X6617Y33867D01*
X6637Y33870D01*
X6656Y33876D01*
X6674Y33885D01*
X6740Y33920D01*
X6808Y33948D01*
X6879Y33971D01*
X6952Y33987D01*
X7026Y33997D01*
X7100Y34000D01*
X7100Y34000D01*
Y32300D01*
X7100Y32300D01*
X7026Y32303D01*
X6952Y32313D01*
X6879Y32329D01*
X6808Y32352D01*
X6740Y32380D01*
X6674Y32415D01*
X6656Y32424D01*
X6637Y32429D01*
X6617Y32432D01*
X6597Y32432D01*
X6577Y32428D01*
X6558Y32421D01*
X6541Y32412D01*
X6525Y32400D01*
X6511Y32385D01*
X6500Y32369D01*
X6491Y32351D01*
X6485Y32331D01*
X6483Y32312D01*
X6483Y32292D01*
X6487Y32272D01*
X6493Y32253D01*
X6503Y32236D01*
X6515Y32220D01*
X6530Y32206D01*
X6546Y32195D01*
X6631Y32149D01*
X6721Y32112D01*
X6813Y32083D01*
X6907Y32062D01*
X7003Y32049D01*
X7100Y32045D01*
X7100Y32045D01*
Y27650D01*
G37*
G36*
X6189D02*X3050D01*
X700Y30000D01*
Y39150D01*
X6189D01*
Y33749D01*
X6186Y33747D01*
X6170Y33735D01*
X6156Y33720D01*
X6145Y33704D01*
X6099Y33619D01*
X6062Y33529D01*
X6033Y33437D01*
X6012Y33343D01*
X5999Y33247D01*
X5995Y33150D01*
X5999Y33053D01*
X6012Y32957D01*
X6033Y32863D01*
X6062Y32771D01*
X6099Y32681D01*
X6144Y32596D01*
X6155Y32579D01*
X6169Y32565D01*
X6185Y32552D01*
X6189Y32550D01*
Y27650D01*
G37*
G54D20*X23350Y32500D02*X20750Y29900D01*
X19450D01*
X20700Y34000D02*X21450Y33250D01*
X22300D01*
X20000Y33950D02*X14550Y28500D01*
X9975D01*
X8575Y29900D01*
X19300Y34250D02*X14950Y29900D01*
X10575D01*
X23400Y45500D02*X22500Y44600D01*
X23350Y43750D01*
Y32500D01*
X19100Y53550D02*X19650Y53000D01*
X22550D01*
X23400Y52150D01*
Y45500D01*
X22300Y50550D02*X20000Y48250D01*
X22300Y52100D02*X19300Y49100D01*
X21050Y44750D02*X20750Y44450D01*
X20700Y44400D02*Y34000D01*
X20000Y48250D02*Y33950D01*
X19300Y49100D02*Y34250D01*
G54D21*X7100Y33150D03*
X12000D03*
G54D22*X22050Y47650D03*
Y54300D03*
Y35050D03*
Y41700D03*
G54D23*X22300Y52100D03*
X21050Y44750D03*
X22550D03*
X22300Y50550D03*
X19450Y29900D03*
X10575D03*
X8575D03*
X19100Y53550D03*
X22300Y33250D03*
G54D24*G54D25*G54D26*M02*
