G04 start of page 2 for group 0 idx 0 *
G04 Title: (unknown), top *
G04 Creator: pcb 4.2.0 *
G04 CreationDate: Fri Feb 14 02:43:24 2020 UTC *
G04 For: blinken *
G04 Format: Gerber/RS-274X *
G04 PCB-Dimensions (mm): 65.00 56.00 *
G04 PCB-Coordinate-Origin: lower left *
%MOMM*%
%FSLAX43Y43*%
%LNTOP*%
%ADD20C,1.300*%
%ADD19C,1.500*%
%ADD18C,0.965*%
%ADD17C,0.400*%
%ADD16C,1.524*%
%ADD15C,0.800*%
%ADD14C,1.600*%
%ADD13C,1.700*%
%ADD12C,0.254*%
%ADD11C,0.002*%
G54D11*G36*
X22917Y55500D02*X23700D01*
Y22550D01*
X22917D01*
Y22598D01*
X23240Y22598D01*
X23279Y22608D01*
X23316Y22623D01*
X23350Y22644D01*
X23380Y22670D01*
X23406Y22700D01*
X23427Y22734D01*
X23442Y22771D01*
X23452Y22810D01*
X23454Y22850D01*
X23452Y24190D01*
X23442Y24229D01*
X23427Y24266D01*
X23406Y24300D01*
X23380Y24330D01*
X23350Y24356D01*
X23316Y24377D01*
X23279Y24392D01*
X23240Y24402D01*
X23200Y24404D01*
X22917Y24404D01*
Y25598D01*
X23240Y25598D01*
X23279Y25608D01*
X23316Y25623D01*
X23350Y25644D01*
X23380Y25670D01*
X23406Y25700D01*
X23427Y25734D01*
X23442Y25771D01*
X23452Y25810D01*
X23454Y25850D01*
X23452Y27190D01*
X23442Y27229D01*
X23427Y27266D01*
X23406Y27300D01*
X23380Y27330D01*
X23350Y27356D01*
X23316Y27377D01*
X23279Y27392D01*
X23240Y27402D01*
X23200Y27404D01*
X22917Y27404D01*
Y33031D01*
X22924Y33047D01*
X22948Y33147D01*
X22954Y33250D01*
X22948Y33353D01*
X22924Y33453D01*
X22917Y33469D01*
Y34484D01*
X22929Y34490D01*
X22945Y34503D01*
X22958Y34517D01*
X22969Y34534D01*
X23014Y34621D01*
X23050Y34713D01*
X23077Y34807D01*
X23095Y34903D01*
X23104Y35001D01*
Y35099D01*
X23095Y35197D01*
X23077Y35293D01*
X23050Y35387D01*
X23014Y35479D01*
X22970Y35566D01*
X22959Y35583D01*
X22945Y35598D01*
X22930Y35610D01*
X22917Y35617D01*
Y41134D01*
X22929Y41140D01*
X22945Y41153D01*
X22958Y41167D01*
X22969Y41184D01*
X23014Y41271D01*
X23050Y41363D01*
X23077Y41457D01*
X23095Y41553D01*
X23104Y41651D01*
Y41749D01*
X23095Y41847D01*
X23077Y41943D01*
X23050Y42037D01*
X23014Y42129D01*
X22970Y42216D01*
X22959Y42233D01*
X22945Y42248D01*
X22930Y42260D01*
X22917Y42267D01*
Y43548D01*
X23240Y43548D01*
X23279Y43558D01*
X23316Y43573D01*
X23350Y43594D01*
X23380Y43620D01*
X23406Y43650D01*
X23427Y43684D01*
X23442Y43721D01*
X23452Y43760D01*
X23454Y43800D01*
X23452Y45740D01*
X23442Y45779D01*
X23427Y45816D01*
X23406Y45850D01*
X23380Y45880D01*
X23350Y45906D01*
X23316Y45927D01*
X23279Y45942D01*
X23240Y45952D01*
X23200Y45954D01*
X22917Y45953D01*
Y47084D01*
X22929Y47090D01*
X22945Y47103D01*
X22958Y47117D01*
X22969Y47134D01*
X23014Y47221D01*
X23050Y47313D01*
X23077Y47407D01*
X23095Y47503D01*
X23104Y47601D01*
Y47699D01*
X23095Y47797D01*
X23077Y47893D01*
X23050Y47987D01*
X23014Y48079D01*
X22970Y48166D01*
X22959Y48183D01*
X22945Y48198D01*
X22930Y48210D01*
X22917Y48217D01*
Y51881D01*
X22924Y51897D01*
X22948Y51997D01*
X22954Y52100D01*
X22948Y52203D01*
X22924Y52303D01*
X22917Y52319D01*
Y53698D01*
X22992Y53820D01*
X23056Y53973D01*
X23094Y54135D01*
X23104Y54300D01*
X23094Y54465D01*
X23056Y54627D01*
X22992Y54780D01*
X22917Y54902D01*
Y55500D01*
G37*
G36*
Y52319D02*X22885Y52398D01*
X22831Y52486D01*
X22764Y52564D01*
X22686Y52631D01*
X22598Y52685D01*
X22503Y52724D01*
X22403Y52748D01*
X22300Y52756D01*
X22197Y52748D01*
X22097Y52724D01*
X22048Y52704D01*
Y53243D01*
X22050Y53243D01*
X22215Y53256D01*
X22377Y53294D01*
X22530Y53358D01*
X22671Y53445D01*
X22798Y53552D01*
X22905Y53679D01*
X22917Y53698D01*
Y52319D01*
G37*
G36*
Y45953D02*X22048Y45952D01*
Y46596D01*
X22099D01*
X22197Y46605D01*
X22293Y46623D01*
X22387Y46650D01*
X22479Y46686D01*
X22566Y46730D01*
X22583Y46741D01*
X22598Y46755D01*
X22610Y46770D01*
X22620Y46788D01*
X22627Y46807D01*
X22631Y46827D01*
X22632Y46847D01*
X22629Y46867D01*
X22624Y46886D01*
X22616Y46904D01*
X22604Y46921D01*
X22591Y46936D01*
X22575Y46948D01*
X22557Y46958D01*
X22538Y46965D01*
X22519Y46969D01*
X22499Y46970D01*
X22479Y46967D01*
X22459Y46962D01*
X22441Y46953D01*
X22375Y46919D01*
X22306Y46892D01*
X22234Y46872D01*
X22161Y46858D01*
X22087Y46851D01*
X22048D01*
Y48449D01*
X22087D01*
X22161Y48442D01*
X22234Y48428D01*
X22306Y48408D01*
X22375Y48381D01*
X22442Y48348D01*
X22459Y48339D01*
X22479Y48333D01*
X22499Y48331D01*
X22519Y48332D01*
X22538Y48336D01*
X22557Y48343D01*
X22574Y48352D01*
X22590Y48365D01*
X22604Y48379D01*
X22615Y48396D01*
X22623Y48414D01*
X22629Y48433D01*
X22631Y48453D01*
X22630Y48473D01*
X22626Y48493D01*
X22619Y48512D01*
X22610Y48529D01*
X22597Y48545D01*
X22583Y48558D01*
X22566Y48569D01*
X22479Y48614D01*
X22387Y48650D01*
X22293Y48677D01*
X22197Y48695D01*
X22099Y48704D01*
X22048D01*
Y50265D01*
X22075Y50241D01*
X22126Y50209D01*
X22182Y50187D01*
X22240Y50173D01*
X22300Y50168D01*
X22360Y50173D01*
X22418Y50187D01*
X22474Y50209D01*
X22525Y50241D01*
X22570Y50280D01*
X22609Y50325D01*
X22641Y50376D01*
X22663Y50432D01*
X22677Y50490D01*
X22682Y50550D01*
X22677Y50610D01*
X22663Y50668D01*
X22641Y50724D01*
X22609Y50775D01*
X22569Y50819D01*
X22130Y51259D01*
X22120Y51270D01*
X22075Y51309D01*
X22049Y51325D01*
X22075Y51341D01*
X22120Y51380D01*
X22130Y51391D01*
X22192Y51453D01*
X22197Y51452D01*
X22300Y51444D01*
X22403Y51452D01*
X22503Y51476D01*
X22598Y51515D01*
X22686Y51569D01*
X22764Y51636D01*
X22831Y51714D01*
X22885Y51802D01*
X22917Y51881D01*
Y48217D01*
X22912Y48220D01*
X22893Y48227D01*
X22873Y48231D01*
X22853Y48232D01*
X22833Y48229D01*
X22814Y48224D01*
X22796Y48216D01*
X22779Y48204D01*
X22764Y48191D01*
X22752Y48175D01*
X22742Y48157D01*
X22735Y48138D01*
X22731Y48119D01*
X22730Y48099D01*
X22733Y48079D01*
X22738Y48059D01*
X22747Y48041D01*
X22781Y47975D01*
X22808Y47906D01*
X22828Y47834D01*
X22842Y47761D01*
X22849Y47687D01*
Y47613D01*
X22842Y47539D01*
X22828Y47466D01*
X22808Y47394D01*
X22781Y47325D01*
X22748Y47258D01*
X22739Y47241D01*
X22733Y47221D01*
X22731Y47201D01*
X22732Y47181D01*
X22736Y47162D01*
X22743Y47143D01*
X22752Y47126D01*
X22765Y47110D01*
X22779Y47096D01*
X22796Y47085D01*
X22814Y47077D01*
X22833Y47071D01*
X22853Y47069D01*
X22873Y47070D01*
X22893Y47074D01*
X22912Y47081D01*
X22917Y47084D01*
Y45953D01*
G37*
G36*
Y33469D02*X22885Y33548D01*
X22831Y33636D01*
X22764Y33714D01*
X22686Y33781D01*
X22598Y33835D01*
X22503Y33874D01*
X22403Y33898D01*
X22300Y33906D01*
X22197Y33898D01*
X22097Y33874D01*
X22048Y33854D01*
Y33996D01*
X22099D01*
X22197Y34005D01*
X22293Y34023D01*
X22387Y34050D01*
X22479Y34086D01*
X22566Y34130D01*
X22583Y34141D01*
X22598Y34155D01*
X22610Y34170D01*
X22620Y34188D01*
X22627Y34207D01*
X22631Y34227D01*
X22632Y34247D01*
X22629Y34267D01*
X22624Y34286D01*
X22616Y34304D01*
X22604Y34321D01*
X22591Y34336D01*
X22575Y34348D01*
X22557Y34358D01*
X22538Y34365D01*
X22519Y34369D01*
X22499Y34370D01*
X22479Y34367D01*
X22459Y34362D01*
X22441Y34353D01*
X22375Y34319D01*
X22306Y34292D01*
X22234Y34272D01*
X22161Y34258D01*
X22087Y34251D01*
X22048D01*
Y35849D01*
X22087D01*
X22161Y35842D01*
X22234Y35828D01*
X22306Y35808D01*
X22375Y35781D01*
X22442Y35748D01*
X22459Y35739D01*
X22479Y35733D01*
X22499Y35731D01*
X22519Y35732D01*
X22538Y35736D01*
X22557Y35743D01*
X22574Y35752D01*
X22590Y35765D01*
X22604Y35779D01*
X22615Y35796D01*
X22623Y35814D01*
X22629Y35833D01*
X22631Y35853D01*
X22630Y35873D01*
X22626Y35893D01*
X22619Y35912D01*
X22610Y35929D01*
X22597Y35945D01*
X22583Y35958D01*
X22566Y35969D01*
X22479Y36014D01*
X22387Y36050D01*
X22293Y36077D01*
X22197Y36095D01*
X22099Y36104D01*
X22048D01*
Y40646D01*
X22099D01*
X22197Y40655D01*
X22293Y40673D01*
X22387Y40700D01*
X22479Y40736D01*
X22566Y40780D01*
X22583Y40791D01*
X22598Y40805D01*
X22610Y40820D01*
X22620Y40838D01*
X22627Y40857D01*
X22631Y40877D01*
X22632Y40897D01*
X22629Y40917D01*
X22624Y40936D01*
X22616Y40954D01*
X22604Y40971D01*
X22591Y40986D01*
X22575Y40998D01*
X22557Y41008D01*
X22538Y41015D01*
X22519Y41019D01*
X22499Y41020D01*
X22479Y41017D01*
X22459Y41012D01*
X22441Y41003D01*
X22375Y40969D01*
X22306Y40942D01*
X22234Y40922D01*
X22161Y40908D01*
X22087Y40901D01*
X22048D01*
Y42499D01*
X22087D01*
X22161Y42492D01*
X22234Y42478D01*
X22306Y42458D01*
X22375Y42431D01*
X22442Y42398D01*
X22459Y42389D01*
X22479Y42383D01*
X22499Y42381D01*
X22519Y42382D01*
X22538Y42386D01*
X22557Y42393D01*
X22574Y42402D01*
X22590Y42415D01*
X22604Y42429D01*
X22615Y42446D01*
X22623Y42464D01*
X22629Y42483D01*
X22631Y42503D01*
X22630Y42523D01*
X22626Y42543D01*
X22619Y42562D01*
X22610Y42579D01*
X22597Y42595D01*
X22583Y42608D01*
X22566Y42619D01*
X22479Y42664D01*
X22387Y42700D01*
X22293Y42727D01*
X22197Y42745D01*
X22099Y42754D01*
X22048D01*
Y43546D01*
X22917Y43548D01*
Y42267D01*
X22912Y42270D01*
X22893Y42277D01*
X22873Y42281D01*
X22853Y42282D01*
X22833Y42279D01*
X22814Y42274D01*
X22796Y42266D01*
X22779Y42254D01*
X22764Y42241D01*
X22752Y42225D01*
X22742Y42207D01*
X22735Y42188D01*
X22731Y42169D01*
X22730Y42149D01*
X22733Y42129D01*
X22738Y42109D01*
X22747Y42091D01*
X22781Y42025D01*
X22808Y41956D01*
X22828Y41884D01*
X22842Y41811D01*
X22849Y41737D01*
Y41663D01*
X22842Y41589D01*
X22828Y41516D01*
X22808Y41444D01*
X22781Y41375D01*
X22748Y41308D01*
X22739Y41291D01*
X22733Y41271D01*
X22731Y41251D01*
X22732Y41231D01*
X22736Y41212D01*
X22743Y41193D01*
X22752Y41176D01*
X22765Y41160D01*
X22779Y41146D01*
X22796Y41135D01*
X22814Y41127D01*
X22833Y41121D01*
X22853Y41119D01*
X22873Y41120D01*
X22893Y41124D01*
X22912Y41131D01*
X22917Y41134D01*
Y35617D01*
X22912Y35620D01*
X22893Y35627D01*
X22873Y35631D01*
X22853Y35632D01*
X22833Y35629D01*
X22814Y35624D01*
X22796Y35616D01*
X22779Y35604D01*
X22764Y35591D01*
X22752Y35575D01*
X22742Y35557D01*
X22735Y35538D01*
X22731Y35519D01*
X22730Y35499D01*
X22733Y35479D01*
X22738Y35459D01*
X22747Y35441D01*
X22781Y35375D01*
X22808Y35306D01*
X22828Y35234D01*
X22842Y35161D01*
X22849Y35087D01*
Y35013D01*
X22842Y34939D01*
X22828Y34866D01*
X22808Y34794D01*
X22781Y34725D01*
X22748Y34658D01*
X22739Y34641D01*
X22733Y34621D01*
X22731Y34601D01*
X22732Y34581D01*
X22736Y34562D01*
X22743Y34543D01*
X22752Y34526D01*
X22765Y34510D01*
X22779Y34496D01*
X22796Y34485D01*
X22814Y34477D01*
X22833Y34471D01*
X22853Y34469D01*
X22873Y34470D01*
X22893Y34474D01*
X22912Y34481D01*
X22917Y34484D01*
Y33469D01*
G37*
G36*
Y27404D02*X22731Y27403D01*
Y32758D01*
X22764Y32786D01*
X22831Y32864D01*
X22885Y32952D01*
X22917Y33031D01*
Y27404D01*
G37*
G36*
Y24404D02*X22048Y24403D01*
Y25597D01*
X22917Y25598D01*
Y24404D01*
G37*
G36*
Y22550D02*X22048D01*
Y22597D01*
X22917Y22598D01*
Y22550D01*
G37*
G36*
X22048Y55500D02*X22917D01*
Y54902D01*
X22905Y54921D01*
X22798Y55048D01*
X22671Y55155D01*
X22530Y55242D01*
X22377Y55306D01*
X22215Y55344D01*
X22050Y55357D01*
X22048Y55357D01*
Y55500D01*
G37*
G36*
Y45952D02*X21860Y45952D01*
X21821Y45942D01*
X21784Y45927D01*
X21750Y45906D01*
X21720Y45880D01*
X21694Y45850D01*
X21673Y45816D01*
X21658Y45779D01*
X21648Y45740D01*
X21646Y45700D01*
X21647Y45018D01*
X21635Y45048D01*
X21581Y45136D01*
X21514Y45214D01*
X21436Y45281D01*
X21348Y45335D01*
X21253Y45374D01*
X21183Y45391D01*
Y47083D01*
X21188Y47080D01*
X21207Y47073D01*
X21227Y47069D01*
X21247Y47068D01*
X21267Y47071D01*
X21286Y47076D01*
X21304Y47084D01*
X21321Y47096D01*
X21336Y47109D01*
X21348Y47125D01*
X21358Y47143D01*
X21365Y47162D01*
X21369Y47181D01*
X21370Y47201D01*
X21367Y47221D01*
X21362Y47241D01*
X21353Y47259D01*
X21319Y47325D01*
X21292Y47394D01*
X21272Y47466D01*
X21258Y47539D01*
X21251Y47613D01*
Y47687D01*
X21258Y47761D01*
X21272Y47834D01*
X21292Y47906D01*
X21319Y47975D01*
X21352Y48042D01*
X21361Y48059D01*
X21367Y48079D01*
X21369Y48099D01*
X21368Y48119D01*
X21364Y48138D01*
X21357Y48157D01*
X21348Y48174D01*
X21335Y48190D01*
X21321Y48204D01*
X21304Y48215D01*
X21286Y48223D01*
X21267Y48229D01*
X21247Y48231D01*
X21227Y48230D01*
X21207Y48226D01*
X21188Y48219D01*
X21183Y48216D01*
Y49248D01*
X21540Y49248D01*
X21579Y49258D01*
X21616Y49273D01*
X21650Y49294D01*
X21680Y49320D01*
X21706Y49350D01*
X21727Y49384D01*
X21742Y49421D01*
X21752Y49460D01*
X21754Y49500D01*
X21752Y49940D01*
X21742Y49979D01*
X21727Y50016D01*
X21721Y50025D01*
X21727Y50034D01*
X21742Y50071D01*
X21752Y50110D01*
X21754Y50150D01*
X21752Y50559D01*
X22031Y50281D01*
X22048Y50265D01*
Y48704D01*
X22001D01*
X21903Y48695D01*
X21807Y48677D01*
X21713Y48650D01*
X21621Y48614D01*
X21534Y48570D01*
X21517Y48559D01*
X21502Y48545D01*
X21490Y48530D01*
X21480Y48512D01*
X21473Y48493D01*
X21469Y48473D01*
X21468Y48453D01*
X21471Y48433D01*
X21476Y48414D01*
X21484Y48396D01*
X21496Y48379D01*
X21509Y48364D01*
X21525Y48352D01*
X21543Y48342D01*
X21562Y48335D01*
X21581Y48331D01*
X21601Y48330D01*
X21621Y48333D01*
X21641Y48338D01*
X21659Y48347D01*
X21725Y48381D01*
X21794Y48408D01*
X21866Y48428D01*
X21939Y48442D01*
X22013Y48449D01*
X22048D01*
Y46851D01*
X22013D01*
X21939Y46858D01*
X21866Y46872D01*
X21794Y46892D01*
X21725Y46919D01*
X21658Y46952D01*
X21641Y46961D01*
X21621Y46967D01*
X21601Y46969D01*
X21581Y46968D01*
X21562Y46964D01*
X21543Y46957D01*
X21526Y46948D01*
X21510Y46935D01*
X21496Y46921D01*
X21485Y46904D01*
X21477Y46886D01*
X21471Y46867D01*
X21469Y46847D01*
X21470Y46827D01*
X21474Y46807D01*
X21481Y46788D01*
X21490Y46771D01*
X21503Y46755D01*
X21517Y46742D01*
X21534Y46731D01*
X21621Y46686D01*
X21713Y46650D01*
X21807Y46623D01*
X21903Y46605D01*
X22001Y46596D01*
X22048D01*
Y45952D01*
G37*
G36*
X21183Y45391D02*X21153Y45398D01*
X21050Y45406D01*
X20947Y45398D01*
X20847Y45374D01*
X20752Y45335D01*
X20699Y45302D01*
Y49247D01*
X21183Y49248D01*
Y48216D01*
X21171Y48210D01*
X21155Y48197D01*
X21142Y48183D01*
X21131Y48166D01*
X21086Y48079D01*
X21050Y47987D01*
X21023Y47893D01*
X21005Y47797D01*
X20996Y47699D01*
Y47601D01*
X21005Y47503D01*
X21023Y47407D01*
X21050Y47313D01*
X21086Y47221D01*
X21130Y47134D01*
X21141Y47117D01*
X21155Y47102D01*
X21170Y47090D01*
X21183Y47083D01*
Y45391D01*
G37*
G36*
Y25624D02*X21184Y25623D01*
X21221Y25608D01*
X21260Y25598D01*
X21300Y25596D01*
X22048Y25597D01*
Y24403D01*
X21260Y24402D01*
X21221Y24392D01*
X21184Y24377D01*
X21183Y24376D01*
Y25624D01*
G37*
G36*
Y36648D02*X21540Y36648D01*
X21579Y36658D01*
X21616Y36673D01*
X21650Y36694D01*
X21680Y36720D01*
X21706Y36750D01*
X21727Y36784D01*
X21742Y36821D01*
X21752Y36860D01*
X21754Y36900D01*
X21752Y37340D01*
X21742Y37379D01*
X21727Y37416D01*
X21721Y37425D01*
X21727Y37434D01*
X21742Y37471D01*
X21752Y37510D01*
X21754Y37550D01*
X21752Y37990D01*
X21742Y38029D01*
X21727Y38066D01*
X21721Y38075D01*
X21727Y38084D01*
X21742Y38121D01*
X21752Y38160D01*
X21754Y38200D01*
X21752Y38640D01*
X21742Y38679D01*
X21727Y38716D01*
X21721Y38725D01*
X21727Y38734D01*
X21742Y38771D01*
X21752Y38810D01*
X21754Y38850D01*
X21752Y39290D01*
X21742Y39329D01*
X21727Y39366D01*
X21721Y39375D01*
X21727Y39384D01*
X21742Y39421D01*
X21752Y39460D01*
X21754Y39500D01*
X21752Y39940D01*
X21742Y39979D01*
X21727Y40016D01*
X21706Y40050D01*
X21680Y40080D01*
X21650Y40106D01*
X21616Y40127D01*
X21579Y40142D01*
X21540Y40152D01*
X21500Y40154D01*
X21183Y40154D01*
Y41133D01*
X21188Y41130D01*
X21207Y41123D01*
X21227Y41119D01*
X21247Y41118D01*
X21267Y41121D01*
X21286Y41126D01*
X21304Y41134D01*
X21321Y41146D01*
X21336Y41159D01*
X21348Y41175D01*
X21358Y41193D01*
X21365Y41212D01*
X21369Y41231D01*
X21370Y41251D01*
X21367Y41271D01*
X21362Y41291D01*
X21353Y41309D01*
X21319Y41375D01*
X21292Y41444D01*
X21272Y41516D01*
X21258Y41589D01*
X21251Y41663D01*
Y41737D01*
X21258Y41811D01*
X21272Y41884D01*
X21292Y41956D01*
X21319Y42025D01*
X21352Y42092D01*
X21361Y42109D01*
X21367Y42129D01*
X21369Y42149D01*
X21368Y42169D01*
X21364Y42188D01*
X21357Y42207D01*
X21348Y42224D01*
X21335Y42240D01*
X21321Y42254D01*
X21304Y42265D01*
X21286Y42273D01*
X21267Y42279D01*
X21247Y42281D01*
X21227Y42280D01*
X21207Y42276D01*
X21188Y42269D01*
X21183Y42266D01*
Y44109D01*
X21253Y44126D01*
X21348Y44165D01*
X21436Y44219D01*
X21514Y44286D01*
X21581Y44364D01*
X21635Y44452D01*
X21647Y44483D01*
X21648Y43760D01*
X21658Y43721D01*
X21673Y43684D01*
X21694Y43650D01*
X21720Y43620D01*
X21750Y43594D01*
X21784Y43573D01*
X21821Y43558D01*
X21860Y43548D01*
X21900Y43546D01*
X22048Y43546D01*
Y42754D01*
X22001D01*
X21903Y42745D01*
X21807Y42727D01*
X21713Y42700D01*
X21621Y42664D01*
X21534Y42620D01*
X21517Y42609D01*
X21502Y42595D01*
X21490Y42580D01*
X21480Y42562D01*
X21473Y42543D01*
X21469Y42523D01*
X21468Y42503D01*
X21471Y42483D01*
X21476Y42464D01*
X21484Y42446D01*
X21496Y42429D01*
X21509Y42414D01*
X21525Y42402D01*
X21543Y42392D01*
X21562Y42385D01*
X21581Y42381D01*
X21601Y42380D01*
X21621Y42383D01*
X21641Y42388D01*
X21659Y42397D01*
X21725Y42431D01*
X21794Y42458D01*
X21866Y42478D01*
X21939Y42492D01*
X22013Y42499D01*
X22048D01*
Y40901D01*
X22013D01*
X21939Y40908D01*
X21866Y40922D01*
X21794Y40942D01*
X21725Y40969D01*
X21658Y41002D01*
X21641Y41011D01*
X21621Y41017D01*
X21601Y41019D01*
X21581Y41018D01*
X21562Y41014D01*
X21543Y41007D01*
X21526Y40998D01*
X21510Y40985D01*
X21496Y40971D01*
X21485Y40954D01*
X21477Y40936D01*
X21471Y40917D01*
X21469Y40897D01*
X21470Y40877D01*
X21474Y40857D01*
X21481Y40838D01*
X21490Y40821D01*
X21503Y40805D01*
X21517Y40792D01*
X21534Y40781D01*
X21621Y40736D01*
X21713Y40700D01*
X21807Y40673D01*
X21903Y40655D01*
X22001Y40646D01*
X22048D01*
Y36104D01*
X22001D01*
X21903Y36095D01*
X21807Y36077D01*
X21713Y36050D01*
X21621Y36014D01*
X21534Y35970D01*
X21517Y35959D01*
X21502Y35945D01*
X21490Y35930D01*
X21480Y35912D01*
X21473Y35893D01*
X21469Y35873D01*
X21468Y35853D01*
X21471Y35833D01*
X21476Y35814D01*
X21484Y35796D01*
X21496Y35779D01*
X21509Y35764D01*
X21525Y35752D01*
X21543Y35742D01*
X21562Y35735D01*
X21581Y35731D01*
X21601Y35730D01*
X21621Y35733D01*
X21641Y35738D01*
X21659Y35747D01*
X21725Y35781D01*
X21794Y35808D01*
X21866Y35828D01*
X21939Y35842D01*
X22013Y35849D01*
X22048D01*
Y34251D01*
X22013D01*
X21939Y34258D01*
X21866Y34272D01*
X21794Y34292D01*
X21725Y34319D01*
X21658Y34352D01*
X21641Y34361D01*
X21621Y34367D01*
X21601Y34369D01*
X21581Y34368D01*
X21562Y34364D01*
X21543Y34357D01*
X21526Y34348D01*
X21510Y34335D01*
X21496Y34321D01*
X21485Y34304D01*
X21477Y34286D01*
X21471Y34267D01*
X21469Y34247D01*
X21470Y34227D01*
X21474Y34207D01*
X21481Y34188D01*
X21490Y34171D01*
X21503Y34155D01*
X21517Y34142D01*
X21534Y34131D01*
X21621Y34086D01*
X21713Y34050D01*
X21807Y34023D01*
X21903Y34005D01*
X22001Y33996D01*
X22048D01*
Y33854D01*
X22002Y33835D01*
X21914Y33781D01*
X21836Y33714D01*
X21769Y33636D01*
X21715Y33548D01*
X21676Y33453D01*
X21652Y33353D01*
X21644Y33250D01*
X21652Y33147D01*
X21676Y33047D01*
X21715Y32952D01*
X21769Y32864D01*
X21836Y32786D01*
X21914Y32719D01*
X21969Y32686D01*
Y27402D01*
X21260Y27402D01*
X21221Y27392D01*
X21184Y27377D01*
X21183Y27376D01*
Y34483D01*
X21188Y34480D01*
X21207Y34473D01*
X21227Y34469D01*
X21247Y34468D01*
X21267Y34471D01*
X21286Y34476D01*
X21304Y34484D01*
X21321Y34496D01*
X21336Y34509D01*
X21348Y34525D01*
X21358Y34543D01*
X21365Y34562D01*
X21369Y34581D01*
X21370Y34601D01*
X21367Y34621D01*
X21362Y34641D01*
X21353Y34659D01*
X21319Y34725D01*
X21292Y34794D01*
X21272Y34866D01*
X21258Y34939D01*
X21251Y35013D01*
Y35087D01*
X21258Y35161D01*
X21272Y35234D01*
X21292Y35306D01*
X21319Y35375D01*
X21352Y35442D01*
X21361Y35459D01*
X21367Y35479D01*
X21369Y35499D01*
X21368Y35519D01*
X21364Y35538D01*
X21357Y35557D01*
X21348Y35574D01*
X21335Y35590D01*
X21321Y35604D01*
X21304Y35615D01*
X21286Y35623D01*
X21267Y35629D01*
X21247Y35631D01*
X21227Y35630D01*
X21207Y35626D01*
X21188Y35619D01*
X21183Y35616D01*
Y36648D01*
G37*
G36*
X22048Y22550D02*X21183D01*
Y22624D01*
X21184Y22623D01*
X21221Y22608D01*
X21260Y22598D01*
X21300Y22596D01*
X22048Y22597D01*
Y22550D01*
G37*
G36*
X21183Y40154D02*X20699Y40153D01*
Y44198D01*
X20752Y44165D01*
X20847Y44126D01*
X20947Y44102D01*
X21050Y44094D01*
X21153Y44102D01*
X21183Y44109D01*
Y42266D01*
X21171Y42260D01*
X21155Y42247D01*
X21142Y42233D01*
X21131Y42216D01*
X21086Y42129D01*
X21050Y42037D01*
X21023Y41943D01*
X21005Y41847D01*
X20996Y41749D01*
Y41651D01*
X21005Y41553D01*
X21023Y41457D01*
X21050Y41363D01*
X21086Y41271D01*
X21130Y41184D01*
X21141Y41167D01*
X21155Y41152D01*
X21170Y41140D01*
X21183Y41133D01*
Y40154D01*
G37*
G36*
Y22550D02*X20699D01*
Y29860D01*
X20759Y29920D01*
X20770Y29930D01*
X20809Y29975D01*
X20809Y29975D01*
X20841Y30026D01*
X20863Y30082D01*
X20877Y30140D01*
X20882Y30200D01*
X20881Y30215D01*
Y31616D01*
X20886Y31619D01*
X20964Y31686D01*
X21031Y31764D01*
X21085Y31852D01*
X21124Y31947D01*
X21148Y32047D01*
X21154Y32150D01*
X21148Y32253D01*
X21124Y32353D01*
X21085Y32448D01*
X21031Y32536D01*
X20964Y32614D01*
X20886Y32681D01*
X20798Y32735D01*
X20703Y32774D01*
X20699Y32775D01*
Y36647D01*
X21183Y36648D01*
Y35616D01*
X21171Y35610D01*
X21155Y35597D01*
X21142Y35583D01*
X21131Y35566D01*
X21086Y35479D01*
X21050Y35387D01*
X21023Y35293D01*
X21005Y35197D01*
X20996Y35099D01*
Y35001D01*
X21005Y34903D01*
X21023Y34807D01*
X21050Y34713D01*
X21086Y34621D01*
X21130Y34534D01*
X21141Y34517D01*
X21155Y34502D01*
X21170Y34490D01*
X21183Y34483D01*
Y27376D01*
X21150Y27356D01*
X21120Y27330D01*
X21094Y27300D01*
X21073Y27266D01*
X21058Y27229D01*
X21048Y27190D01*
X21046Y27150D01*
X21048Y25810D01*
X21058Y25771D01*
X21073Y25734D01*
X21094Y25700D01*
X21120Y25670D01*
X21150Y25644D01*
X21183Y25624D01*
Y24376D01*
X21150Y24356D01*
X21120Y24330D01*
X21094Y24300D01*
X21073Y24266D01*
X21058Y24229D01*
X21048Y24190D01*
X21046Y24150D01*
X21048Y22810D01*
X21058Y22771D01*
X21073Y22734D01*
X21094Y22700D01*
X21120Y22670D01*
X21150Y22644D01*
X21183Y22624D01*
Y22550D01*
G37*
G36*
X20699Y55500D02*X22048D01*
Y55357D01*
X21885Y55344D01*
X21723Y55306D01*
X21570Y55242D01*
X21429Y55155D01*
X21302Y55048D01*
X21195Y54921D01*
X21108Y54780D01*
X21044Y54627D01*
X21006Y54465D01*
X20993Y54300D01*
X21006Y54135D01*
X21044Y53973D01*
X21108Y53820D01*
X21195Y53679D01*
X21302Y53552D01*
X21429Y53445D01*
X21570Y53358D01*
X21723Y53294D01*
X21885Y53256D01*
X22048Y53243D01*
Y52704D01*
X22002Y52685D01*
X21914Y52631D01*
X21836Y52564D01*
X21769Y52486D01*
X21755Y52463D01*
X21752Y52458D01*
X21752Y52540D01*
X21742Y52579D01*
X21727Y52616D01*
X21706Y52650D01*
X21680Y52680D01*
X21650Y52706D01*
X21616Y52727D01*
X21579Y52742D01*
X21540Y52752D01*
X21500Y52754D01*
X20699Y52753D01*
Y55500D01*
G37*
G36*
X17200Y29169D02*X19835D01*
X19850Y29168D01*
X19910Y29173D01*
X19910Y29173D01*
X19968Y29187D01*
X20024Y29209D01*
X20075Y29241D01*
X20120Y29280D01*
X20130Y29291D01*
X20699Y29860D01*
Y22550D01*
X17200D01*
Y24847D01*
X18990Y24848D01*
X19029Y24858D01*
X19066Y24873D01*
X19100Y24894D01*
X19130Y24920D01*
X19156Y24950D01*
X19177Y24984D01*
X19192Y25021D01*
X19202Y25060D01*
X19204Y25100D01*
X19202Y27140D01*
X19192Y27179D01*
X19177Y27216D01*
X19156Y27250D01*
X19130Y27280D01*
X19100Y27306D01*
X19066Y27327D01*
X19029Y27342D01*
X18990Y27352D01*
X18950Y27354D01*
X17200Y27353D01*
Y29169D01*
G37*
G36*
X14250D02*X17200D01*
Y27353D01*
X15410Y27352D01*
X15371Y27342D01*
X15334Y27327D01*
X15300Y27306D01*
X15270Y27280D01*
X15244Y27250D01*
X15223Y27216D01*
X15208Y27179D01*
X15198Y27140D01*
X15196Y27100D01*
X15198Y25060D01*
X15208Y25021D01*
X15223Y24984D01*
X15244Y24950D01*
X15270Y24920D01*
X15300Y24894D01*
X15334Y24873D01*
X15371Y24858D01*
X15410Y24848D01*
X15450Y24846D01*
X17200Y24847D01*
Y22550D01*
X14250D01*
Y23519D01*
X15116D01*
X15119Y23514D01*
X15186Y23436D01*
X15264Y23369D01*
X15352Y23315D01*
X15447Y23276D01*
X15547Y23252D01*
X15650Y23244D01*
X15753Y23252D01*
X15853Y23276D01*
X15948Y23315D01*
X16036Y23369D01*
X16114Y23436D01*
X16181Y23514D01*
X16235Y23602D01*
X16274Y23697D01*
X16298Y23797D01*
X16304Y23900D01*
X16298Y24003D01*
X16274Y24103D01*
X16235Y24198D01*
X16181Y24286D01*
X16114Y24364D01*
X16036Y24431D01*
X15948Y24485D01*
X15853Y24524D01*
X15753Y24548D01*
X15650Y24556D01*
X15547Y24548D01*
X15447Y24524D01*
X15352Y24485D01*
X15264Y24431D01*
X15186Y24364D01*
X15119Y24286D01*
X15116Y24281D01*
X14250D01*
Y29169D01*
G37*
G36*
X12911Y22697D02*X13740Y22698D01*
X13779Y22708D01*
X13816Y22723D01*
X13850Y22744D01*
X13880Y22770D01*
X13906Y22800D01*
X13927Y22834D01*
X13942Y22871D01*
X13952Y22910D01*
X13954Y22950D01*
X13953Y23519D01*
X14250D01*
Y22550D01*
X12911D01*
Y22697D01*
G37*
G36*
Y29169D02*X14250D01*
Y24281D01*
X13952D01*
X13952Y24990D01*
X13942Y25029D01*
X13927Y25066D01*
X13906Y25100D01*
X13880Y25130D01*
X13850Y25156D01*
X13816Y25177D01*
X13779Y25192D01*
X13740Y25202D01*
X13700Y25204D01*
X12911Y25203D01*
Y26601D01*
X12914Y26603D01*
X12930Y26615D01*
X12944Y26630D01*
X12955Y26646D01*
X13001Y26731D01*
X13038Y26821D01*
X13067Y26913D01*
X13088Y27007D01*
X13101Y27103D01*
X13105Y27200D01*
X13101Y27297D01*
X13088Y27393D01*
X13067Y27487D01*
X13038Y27579D01*
X13001Y27669D01*
X12956Y27754D01*
X12945Y27771D01*
X12931Y27785D01*
X12915Y27798D01*
X12911Y27800D01*
Y29169D01*
G37*
G36*
X12000D02*X12911D01*
Y27800D01*
X12897Y27807D01*
X12878Y27814D01*
X12858Y27818D01*
X12838Y27818D01*
X12818Y27815D01*
X12799Y27810D01*
X12781Y27801D01*
X12764Y27790D01*
X12750Y27776D01*
X12738Y27760D01*
X12728Y27742D01*
X12721Y27723D01*
X12718Y27703D01*
X12717Y27683D01*
X12720Y27663D01*
X12726Y27644D01*
X12735Y27626D01*
X12770Y27560D01*
X12798Y27492D01*
X12821Y27421D01*
X12837Y27348D01*
X12847Y27274D01*
X12850Y27200D01*
X12847Y27126D01*
X12837Y27052D01*
X12821Y26979D01*
X12798Y26908D01*
X12770Y26840D01*
X12735Y26774D01*
X12726Y26756D01*
X12721Y26737D01*
X12718Y26717D01*
X12718Y26697D01*
X12722Y26677D01*
X12729Y26658D01*
X12738Y26641D01*
X12750Y26625D01*
X12765Y26611D01*
X12781Y26600D01*
X12799Y26591D01*
X12819Y26585D01*
X12838Y26583D01*
X12858Y26583D01*
X12878Y26587D01*
X12897Y26593D01*
X12911Y26601D01*
Y25203D01*
X12410Y25202D01*
X12371Y25192D01*
X12334Y25177D01*
X12300Y25156D01*
X12270Y25130D01*
X12244Y25100D01*
X12223Y25066D01*
X12208Y25029D01*
X12198Y24990D01*
X12196Y24950D01*
X12198Y22910D01*
X12208Y22871D01*
X12223Y22834D01*
X12244Y22800D01*
X12270Y22770D01*
X12300Y22744D01*
X12334Y22723D01*
X12371Y22708D01*
X12410Y22698D01*
X12450Y22696D01*
X12911Y22697D01*
Y22550D01*
X12000D01*
Y26095D01*
X12097Y26099D01*
X12193Y26112D01*
X12287Y26133D01*
X12379Y26162D01*
X12469Y26199D01*
X12554Y26244D01*
X12571Y26255D01*
X12585Y26269D01*
X12598Y26285D01*
X12607Y26303D01*
X12614Y26322D01*
X12618Y26342D01*
X12618Y26362D01*
X12615Y26382D01*
X12610Y26401D01*
X12601Y26419D01*
X12590Y26436D01*
X12576Y26450D01*
X12560Y26462D01*
X12542Y26472D01*
X12523Y26479D01*
X12503Y26482D01*
X12483Y26483D01*
X12463Y26480D01*
X12444Y26474D01*
X12426Y26465D01*
X12360Y26430D01*
X12292Y26402D01*
X12221Y26379D01*
X12148Y26363D01*
X12074Y26353D01*
X12000Y26350D01*
Y28050D01*
X12074Y28047D01*
X12148Y28037D01*
X12221Y28021D01*
X12292Y27998D01*
X12360Y27970D01*
X12426Y27935D01*
X12444Y27926D01*
X12463Y27921D01*
X12483Y27918D01*
X12503Y27918D01*
X12523Y27922D01*
X12542Y27929D01*
X12559Y27938D01*
X12575Y27950D01*
X12589Y27965D01*
X12600Y27981D01*
X12609Y27999D01*
X12615Y28019D01*
X12617Y28038D01*
X12617Y28058D01*
X12613Y28078D01*
X12607Y28097D01*
X12597Y28114D01*
X12585Y28130D01*
X12570Y28144D01*
X12554Y28155D01*
X12469Y28201D01*
X12379Y28238D01*
X12287Y28267D01*
X12193Y28288D01*
X12097Y28301D01*
X12000Y28305D01*
Y29169D01*
G37*
G36*
X11089Y29150D02*X11108Y29169D01*
X12000D01*
Y28305D01*
X12000Y28305D01*
X11903Y28301D01*
X11807Y28288D01*
X11713Y28267D01*
X11621Y28238D01*
X11531Y28201D01*
X11446Y28156D01*
X11429Y28145D01*
X11415Y28131D01*
X11402Y28115D01*
X11393Y28097D01*
X11386Y28078D01*
X11382Y28058D01*
X11382Y28038D01*
X11385Y28018D01*
X11390Y27999D01*
X11399Y27981D01*
X11410Y27964D01*
X11424Y27950D01*
X11440Y27938D01*
X11458Y27928D01*
X11477Y27921D01*
X11497Y27918D01*
X11517Y27917D01*
X11537Y27920D01*
X11556Y27926D01*
X11574Y27935D01*
X11640Y27970D01*
X11708Y27998D01*
X11779Y28021D01*
X11852Y28037D01*
X11926Y28047D01*
X12000Y28050D01*
X12000Y28050D01*
Y26350D01*
X12000Y26350D01*
X11926Y26353D01*
X11852Y26363D01*
X11779Y26379D01*
X11708Y26402D01*
X11640Y26430D01*
X11574Y26465D01*
X11556Y26474D01*
X11537Y26479D01*
X11517Y26482D01*
X11497Y26482D01*
X11477Y26478D01*
X11458Y26471D01*
X11441Y26462D01*
X11425Y26450D01*
X11411Y26435D01*
X11400Y26419D01*
X11391Y26401D01*
X11385Y26381D01*
X11383Y26362D01*
X11383Y26342D01*
X11387Y26322D01*
X11393Y26303D01*
X11403Y26286D01*
X11415Y26270D01*
X11430Y26256D01*
X11446Y26245D01*
X11531Y26199D01*
X11621Y26162D01*
X11713Y26133D01*
X11807Y26112D01*
X11903Y26099D01*
X12000Y26095D01*
X12000Y26095D01*
Y22550D01*
X11089D01*
Y22698D01*
X11240Y22698D01*
X11279Y22708D01*
X11316Y22723D01*
X11350Y22744D01*
X11380Y22770D01*
X11406Y22800D01*
X11427Y22834D01*
X11442Y22871D01*
X11452Y22910D01*
X11454Y22950D01*
X11452Y24990D01*
X11442Y25029D01*
X11427Y25066D01*
X11406Y25100D01*
X11380Y25130D01*
X11350Y25156D01*
X11316Y25177D01*
X11279Y25192D01*
X11240Y25202D01*
X11200Y25204D01*
X11089Y25204D01*
Y26600D01*
X11103Y26593D01*
X11122Y26586D01*
X11142Y26582D01*
X11162Y26582D01*
X11182Y26585D01*
X11201Y26590D01*
X11219Y26599D01*
X11236Y26610D01*
X11250Y26624D01*
X11262Y26640D01*
X11272Y26658D01*
X11279Y26677D01*
X11282Y26697D01*
X11283Y26717D01*
X11280Y26737D01*
X11274Y26756D01*
X11265Y26774D01*
X11230Y26840D01*
X11202Y26908D01*
X11179Y26979D01*
X11163Y27052D01*
X11153Y27126D01*
X11150Y27200D01*
X11153Y27274D01*
X11163Y27348D01*
X11179Y27421D01*
X11202Y27492D01*
X11230Y27560D01*
X11265Y27626D01*
X11274Y27644D01*
X11279Y27663D01*
X11282Y27683D01*
X11282Y27703D01*
X11278Y27723D01*
X11271Y27742D01*
X11262Y27759D01*
X11250Y27775D01*
X11235Y27789D01*
X11219Y27800D01*
X11201Y27809D01*
X11181Y27815D01*
X11162Y27817D01*
X11142Y27817D01*
X11122Y27813D01*
X11103Y27807D01*
X11089Y27799D01*
Y29150D01*
G37*
G36*
X8011Y22696D02*X9240Y22698D01*
X9279Y22708D01*
X9316Y22723D01*
X9350Y22744D01*
X9380Y22770D01*
X9406Y22800D01*
X9427Y22834D01*
X9442Y22871D01*
X9452Y22910D01*
X9454Y22950D01*
X9452Y24990D01*
X9442Y25029D01*
X9427Y25066D01*
X9406Y25100D01*
X9380Y25130D01*
X9350Y25156D01*
X9316Y25177D01*
X9279Y25192D01*
X9240Y25202D01*
X9200Y25204D01*
X9181Y25204D01*
Y27242D01*
X11089Y29150D01*
Y27799D01*
X11086Y27797D01*
X11070Y27785D01*
X11056Y27770D01*
X11045Y27754D01*
X10999Y27669D01*
X10962Y27579D01*
X10933Y27487D01*
X10912Y27393D01*
X10899Y27297D01*
X10895Y27200D01*
X10899Y27103D01*
X10912Y27007D01*
X10933Y26913D01*
X10962Y26821D01*
X10999Y26731D01*
X11044Y26646D01*
X11055Y26629D01*
X11069Y26615D01*
X11085Y26602D01*
X11089Y26600D01*
Y25204D01*
X9910Y25202D01*
X9871Y25192D01*
X9834Y25177D01*
X9800Y25156D01*
X9770Y25130D01*
X9744Y25100D01*
X9723Y25066D01*
X9708Y25029D01*
X9698Y24990D01*
X9696Y24950D01*
X9698Y22910D01*
X9708Y22871D01*
X9723Y22834D01*
X9744Y22800D01*
X9770Y22770D01*
X9800Y22744D01*
X9834Y22723D01*
X9871Y22708D01*
X9910Y22698D01*
X9950Y22696D01*
X11089Y22698D01*
Y22550D01*
X8011D01*
Y22696D01*
G37*
G36*
X18300Y48503D02*Y55500D01*
X20699D01*
Y52753D01*
X20436Y52753D01*
X19747Y53442D01*
X19748Y53447D01*
X19754Y53550D01*
X19748Y53653D01*
X19724Y53753D01*
X19685Y53848D01*
X19631Y53936D01*
X19564Y54014D01*
X19486Y54081D01*
X19398Y54135D01*
X19303Y54174D01*
X19203Y54198D01*
X19100Y54206D01*
X18997Y54198D01*
X18897Y54174D01*
X18802Y54135D01*
X18714Y54081D01*
X18636Y54014D01*
X18569Y53936D01*
X18515Y53848D01*
X18476Y53753D01*
X18452Y53653D01*
X18444Y53550D01*
X18452Y53447D01*
X18476Y53347D01*
X18515Y53252D01*
X18569Y53164D01*
X18636Y53086D01*
X18714Y53019D01*
X18802Y52965D01*
X18897Y52926D01*
X18997Y52902D01*
X19100Y52894D01*
X19203Y52902D01*
X19208Y52903D01*
X19482Y52630D01*
X19473Y52616D01*
X19458Y52579D01*
X19448Y52540D01*
X19446Y52500D01*
X19448Y52060D01*
X19458Y52021D01*
X19473Y51984D01*
X19479Y51975D01*
X19473Y51966D01*
X19458Y51929D01*
X19448Y51890D01*
X19446Y51850D01*
X19448Y51410D01*
X19458Y51371D01*
X19473Y51334D01*
X19479Y51325D01*
X19473Y51316D01*
X19458Y51279D01*
X19448Y51240D01*
X19446Y51200D01*
X19448Y50760D01*
X19458Y50721D01*
X19473Y50684D01*
X19479Y50675D01*
X19473Y50666D01*
X19458Y50629D01*
X19448Y50590D01*
X19446Y50550D01*
X19448Y50110D01*
X19458Y50071D01*
X19473Y50034D01*
X19479Y50025D01*
X19473Y50016D01*
X19458Y49979D01*
X19448Y49940D01*
X19446Y49900D01*
X19448Y49460D01*
X19458Y49421D01*
X19473Y49384D01*
X19494Y49350D01*
X19520Y49320D01*
X19550Y49294D01*
X19584Y49273D01*
X19621Y49258D01*
X19660Y49248D01*
X19700Y49246D01*
X20699Y49247D01*
Y45302D01*
X20664Y45281D01*
X20586Y45214D01*
X20519Y45136D01*
X20516Y45131D01*
X20453D01*
X20452Y45740D01*
X20442Y45779D01*
X20427Y45816D01*
X20406Y45850D01*
X20380Y45880D01*
X20350Y45906D01*
X20316Y45927D01*
X20279Y45942D01*
X20240Y45952D01*
X20200Y45954D01*
X19255Y45952D01*
X18860Y45952D01*
X18821Y45942D01*
X18784Y45927D01*
X18750Y45906D01*
X18720Y45880D01*
X18694Y45850D01*
X18673Y45816D01*
X18658Y45779D01*
X18648Y45740D01*
X18646Y45700D01*
X18646Y45645D01*
X18647Y45391D01*
X18648Y43760D01*
X18658Y43721D01*
X18673Y43684D01*
X18694Y43650D01*
X18720Y43620D01*
X18750Y43594D01*
X18784Y43573D01*
X18821Y43558D01*
X18860Y43548D01*
X18900Y43546D01*
X20240Y43548D01*
X20279Y43558D01*
X20316Y43573D01*
X20350Y43594D01*
X20380Y43620D01*
X20406Y43650D01*
X20427Y43684D01*
X20442Y43721D01*
X20452Y43760D01*
X20454Y43800D01*
X20453Y44369D01*
X20516D01*
X20519Y44364D01*
X20586Y44286D01*
X20607Y44268D01*
X20664Y44219D01*
X20699Y44198D01*
Y40153D01*
X19660Y40152D01*
X19621Y40142D01*
X19584Y40127D01*
X19550Y40106D01*
X19520Y40080D01*
X19494Y40050D01*
X19473Y40016D01*
X19458Y39979D01*
X19448Y39940D01*
X19446Y39900D01*
X19448Y39460D01*
X19458Y39421D01*
X19473Y39384D01*
X19479Y39375D01*
X19473Y39366D01*
X19458Y39329D01*
X19448Y39290D01*
X19446Y39250D01*
X19448Y38810D01*
X19458Y38771D01*
X19473Y38734D01*
X19479Y38725D01*
X19473Y38716D01*
X19458Y38679D01*
X19448Y38640D01*
X19446Y38600D01*
X19448Y38160D01*
X19458Y38121D01*
X19473Y38084D01*
X19479Y38075D01*
X19473Y38066D01*
X19458Y38029D01*
X19448Y37990D01*
X19446Y37950D01*
X19448Y37510D01*
X19458Y37471D01*
X19473Y37434D01*
X19479Y37425D01*
X19473Y37416D01*
X19458Y37379D01*
X19448Y37340D01*
X19446Y37300D01*
X19448Y36860D01*
X19458Y36821D01*
X19473Y36784D01*
X19494Y36750D01*
X19520Y36720D01*
X19550Y36694D01*
X19584Y36673D01*
X19621Y36658D01*
X19660Y36648D01*
X19700Y36646D01*
X20699Y36647D01*
Y32775D01*
X20603Y32798D01*
X20500Y32806D01*
X20397Y32798D01*
X20297Y32774D01*
X20202Y32735D01*
X20114Y32681D01*
X20036Y32614D01*
X19969Y32536D01*
X19915Y32448D01*
X19876Y32353D01*
X19852Y32253D01*
X19844Y32150D01*
X19852Y32047D01*
X19876Y31947D01*
X19915Y31852D01*
X19969Y31764D01*
X20036Y31686D01*
X20114Y31619D01*
X20119Y31616D01*
Y30358D01*
X19692Y29931D01*
X10965D01*
X10950Y29932D01*
X10890Y29927D01*
X10832Y29913D01*
X10776Y29891D01*
X10725Y29859D01*
X10725Y29859D01*
X10680Y29820D01*
X10670Y29809D01*
X8541Y27680D01*
X8530Y27670D01*
X8491Y27625D01*
X8459Y27574D01*
X8437Y27518D01*
X8423Y27460D01*
X8423Y27460D01*
X8418Y27400D01*
X8419Y27385D01*
Y25203D01*
X8011Y25202D01*
Y26601D01*
X8014Y26603D01*
X8030Y26615D01*
X8044Y26630D01*
X8055Y26646D01*
X8101Y26731D01*
X8138Y26821D01*
X8167Y26913D01*
X8188Y27007D01*
X8201Y27103D01*
X8205Y27200D01*
X8201Y27297D01*
X8188Y27393D01*
X8167Y27487D01*
X8138Y27579D01*
X8101Y27669D01*
X8056Y27754D01*
X8045Y27771D01*
X8031Y27785D01*
X8015Y27798D01*
X8011Y27800D01*
Y33450D01*
X15403D01*
X15371Y33442D01*
X15334Y33427D01*
X15300Y33406D01*
X15270Y33380D01*
X15244Y33350D01*
X15223Y33316D01*
X15208Y33279D01*
X15198Y33240D01*
X15196Y33200D01*
X15198Y31160D01*
X15208Y31121D01*
X15223Y31084D01*
X15244Y31050D01*
X15270Y31020D01*
X15300Y30994D01*
X15334Y30973D01*
X15371Y30958D01*
X15410Y30948D01*
X15450Y30946D01*
X18990Y30948D01*
X19029Y30958D01*
X19066Y30973D01*
X19100Y30994D01*
X19130Y31020D01*
X19156Y31050D01*
X19177Y31084D01*
X19192Y31121D01*
X19202Y31160D01*
X19204Y31200D01*
X19202Y33240D01*
X19192Y33279D01*
X19177Y33316D01*
X19156Y33350D01*
X19130Y33380D01*
X19100Y33406D01*
X19066Y33427D01*
X19029Y33442D01*
X18990Y33452D01*
X18950Y33454D01*
X18300Y33454D01*
Y48503D01*
G37*
G36*
X8011Y25202D02*X7910Y25202D01*
X7871Y25192D01*
X7834Y25177D01*
X7800Y25156D01*
X7770Y25130D01*
X7744Y25100D01*
X7723Y25066D01*
X7708Y25029D01*
X7698Y24990D01*
X7696Y24950D01*
X7698Y22910D01*
X7708Y22871D01*
X7723Y22834D01*
X7744Y22800D01*
X7770Y22770D01*
X7800Y22744D01*
X7834Y22723D01*
X7871Y22708D01*
X7910Y22698D01*
X7950Y22696D01*
X8011Y22696D01*
Y22550D01*
X7100D01*
Y26095D01*
X7197Y26099D01*
X7293Y26112D01*
X7387Y26133D01*
X7479Y26162D01*
X7569Y26199D01*
X7654Y26244D01*
X7671Y26255D01*
X7685Y26269D01*
X7698Y26285D01*
X7707Y26303D01*
X7714Y26322D01*
X7718Y26342D01*
X7718Y26362D01*
X7715Y26382D01*
X7710Y26401D01*
X7701Y26419D01*
X7690Y26436D01*
X7676Y26450D01*
X7660Y26462D01*
X7642Y26472D01*
X7623Y26479D01*
X7603Y26482D01*
X7583Y26483D01*
X7563Y26480D01*
X7544Y26474D01*
X7526Y26465D01*
X7460Y26430D01*
X7392Y26402D01*
X7321Y26379D01*
X7248Y26363D01*
X7174Y26353D01*
X7100Y26350D01*
Y28050D01*
X7174Y28047D01*
X7248Y28037D01*
X7321Y28021D01*
X7392Y27998D01*
X7460Y27970D01*
X7526Y27935D01*
X7544Y27926D01*
X7563Y27921D01*
X7583Y27918D01*
X7603Y27918D01*
X7623Y27922D01*
X7642Y27929D01*
X7659Y27938D01*
X7675Y27950D01*
X7689Y27965D01*
X7700Y27981D01*
X7709Y27999D01*
X7715Y28019D01*
X7717Y28038D01*
X7717Y28058D01*
X7713Y28078D01*
X7707Y28097D01*
X7697Y28114D01*
X7685Y28130D01*
X7670Y28144D01*
X7654Y28155D01*
X7569Y28201D01*
X7479Y28238D01*
X7387Y28267D01*
X7293Y28288D01*
X7197Y28301D01*
X7100Y28305D01*
Y33450D01*
X8011D01*
Y27800D01*
X7997Y27807D01*
X7978Y27814D01*
X7958Y27818D01*
X7938Y27818D01*
X7918Y27815D01*
X7899Y27810D01*
X7881Y27801D01*
X7864Y27790D01*
X7850Y27776D01*
X7838Y27760D01*
X7828Y27742D01*
X7821Y27723D01*
X7818Y27703D01*
X7817Y27683D01*
X7820Y27663D01*
X7826Y27644D01*
X7835Y27626D01*
X7870Y27560D01*
X7898Y27492D01*
X7921Y27421D01*
X7937Y27348D01*
X7947Y27274D01*
X7950Y27200D01*
X7947Y27126D01*
X7937Y27052D01*
X7921Y26979D01*
X7898Y26908D01*
X7870Y26840D01*
X7835Y26774D01*
X7826Y26756D01*
X7821Y26737D01*
X7818Y26717D01*
X7818Y26697D01*
X7822Y26677D01*
X7829Y26658D01*
X7838Y26641D01*
X7850Y26625D01*
X7865Y26611D01*
X7881Y26600D01*
X7899Y26591D01*
X7919Y26585D01*
X7938Y26583D01*
X7958Y26583D01*
X7978Y26587D01*
X7997Y26593D01*
X8011Y26601D01*
Y25202D01*
G37*
G36*
X7100Y22550D02*X6189D01*
Y22697D01*
X6740Y22698D01*
X6779Y22708D01*
X6816Y22723D01*
X6850Y22744D01*
X6880Y22770D01*
X6906Y22800D01*
X6927Y22834D01*
X6942Y22871D01*
X6952Y22910D01*
X6954Y22950D01*
X6952Y24990D01*
X6942Y25029D01*
X6927Y25066D01*
X6906Y25100D01*
X6880Y25130D01*
X6850Y25156D01*
X6816Y25177D01*
X6779Y25192D01*
X6740Y25202D01*
X6700Y25204D01*
X6189Y25203D01*
Y26600D01*
X6203Y26593D01*
X6222Y26586D01*
X6242Y26582D01*
X6262Y26582D01*
X6282Y26585D01*
X6301Y26590D01*
X6319Y26599D01*
X6336Y26610D01*
X6350Y26624D01*
X6362Y26640D01*
X6372Y26658D01*
X6379Y26677D01*
X6382Y26697D01*
X6383Y26717D01*
X6380Y26737D01*
X6374Y26756D01*
X6365Y26774D01*
X6330Y26840D01*
X6302Y26908D01*
X6279Y26979D01*
X6263Y27052D01*
X6253Y27126D01*
X6250Y27200D01*
X6253Y27274D01*
X6263Y27348D01*
X6279Y27421D01*
X6302Y27492D01*
X6330Y27560D01*
X6365Y27626D01*
X6374Y27644D01*
X6379Y27663D01*
X6382Y27683D01*
X6382Y27703D01*
X6378Y27723D01*
X6371Y27742D01*
X6362Y27759D01*
X6350Y27775D01*
X6335Y27789D01*
X6319Y27800D01*
X6301Y27809D01*
X6281Y27815D01*
X6262Y27817D01*
X6242Y27817D01*
X6222Y27813D01*
X6203Y27807D01*
X6189Y27799D01*
Y33450D01*
X7100D01*
Y28305D01*
X7100Y28305D01*
X7003Y28301D01*
X6907Y28288D01*
X6813Y28267D01*
X6721Y28238D01*
X6631Y28201D01*
X6546Y28156D01*
X6529Y28145D01*
X6515Y28131D01*
X6502Y28115D01*
X6493Y28097D01*
X6486Y28078D01*
X6482Y28058D01*
X6482Y28038D01*
X6485Y28018D01*
X6490Y27999D01*
X6499Y27981D01*
X6510Y27964D01*
X6524Y27950D01*
X6540Y27938D01*
X6558Y27928D01*
X6577Y27921D01*
X6597Y27918D01*
X6617Y27917D01*
X6637Y27920D01*
X6656Y27926D01*
X6674Y27935D01*
X6740Y27970D01*
X6808Y27998D01*
X6879Y28021D01*
X6952Y28037D01*
X7026Y28047D01*
X7100Y28050D01*
X7100Y28050D01*
Y26350D01*
X7100Y26350D01*
X7026Y26353D01*
X6952Y26363D01*
X6879Y26379D01*
X6808Y26402D01*
X6740Y26430D01*
X6674Y26465D01*
X6656Y26474D01*
X6637Y26479D01*
X6617Y26482D01*
X6597Y26482D01*
X6577Y26478D01*
X6558Y26471D01*
X6541Y26462D01*
X6525Y26450D01*
X6511Y26435D01*
X6500Y26419D01*
X6491Y26401D01*
X6485Y26381D01*
X6483Y26362D01*
X6483Y26342D01*
X6487Y26322D01*
X6493Y26303D01*
X6503Y26286D01*
X6515Y26270D01*
X6530Y26256D01*
X6546Y26245D01*
X6631Y26199D01*
X6721Y26162D01*
X6813Y26133D01*
X6907Y26112D01*
X7003Y26099D01*
X7100Y26095D01*
X7100Y26095D01*
Y22550D01*
G37*
G36*
X6189D02*X3798D01*
Y22781D01*
X3800Y22781D01*
X3959Y22793D01*
X4115Y22831D01*
X4263Y22892D01*
X4399Y22976D01*
X4521Y23079D01*
X4624Y23201D01*
X4708Y23337D01*
X4769Y23485D01*
X4807Y23641D01*
X4816Y23800D01*
X4807Y23959D01*
X4769Y24115D01*
X4708Y24263D01*
X4624Y24399D01*
X4521Y24521D01*
X4399Y24624D01*
X4263Y24708D01*
X4115Y24769D01*
X3959Y24807D01*
X3800Y24819D01*
X3798Y24819D01*
Y24850D01*
X3829Y24858D01*
X3866Y24873D01*
X3900Y24894D01*
X3930Y24920D01*
X3956Y24950D01*
X3977Y24984D01*
X3992Y25021D01*
X4002Y25060D01*
X4004Y25100D01*
X4002Y27140D01*
X3992Y27179D01*
X3977Y27216D01*
X3956Y27250D01*
X3930Y27280D01*
X3900Y27306D01*
X3866Y27327D01*
X3829Y27342D01*
X3798Y27350D01*
Y30950D01*
X3829Y30958D01*
X3866Y30973D01*
X3900Y30994D01*
X3930Y31020D01*
X3956Y31050D01*
X3977Y31084D01*
X3992Y31121D01*
X4002Y31160D01*
X4004Y31200D01*
X4002Y33240D01*
X3992Y33279D01*
X3977Y33316D01*
X3956Y33350D01*
X3930Y33380D01*
X3900Y33406D01*
X3866Y33427D01*
X3829Y33442D01*
X3798Y33450D01*
Y33450D01*
X6189D01*
Y27799D01*
X6186Y27797D01*
X6170Y27785D01*
X6156Y27770D01*
X6145Y27754D01*
X6099Y27669D01*
X6062Y27579D01*
X6033Y27487D01*
X6012Y27393D01*
X5999Y27297D01*
X5995Y27200D01*
X5999Y27103D01*
X6012Y27007D01*
X6033Y26913D01*
X6062Y26821D01*
X6099Y26731D01*
X6144Y26646D01*
X6155Y26629D01*
X6169Y26615D01*
X6185Y26602D01*
X6189Y26600D01*
Y25203D01*
X5410Y25202D01*
X5371Y25192D01*
X5334Y25177D01*
X5300Y25156D01*
X5270Y25130D01*
X5244Y25100D01*
X5223Y25066D01*
X5208Y25029D01*
X5198Y24990D01*
X5196Y24950D01*
X5198Y22910D01*
X5208Y22871D01*
X5223Y22834D01*
X5244Y22800D01*
X5270Y22770D01*
X5300Y22744D01*
X5334Y22723D01*
X5371Y22708D01*
X5410Y22698D01*
X5450Y22696D01*
X6189Y22697D01*
Y22550D01*
G37*
G36*
X3798Y33450D02*X3797Y33450D01*
X3798D01*
Y33450D01*
G37*
G36*
Y27350D02*X3790Y27352D01*
X3750Y27354D01*
X700Y27352D01*
Y30946D01*
X3790Y30948D01*
X3798Y30950D01*
Y27350D01*
G37*
G36*
Y22550D02*X3100D01*
X2400Y22700D01*
X1500Y23250D01*
X950Y24000D01*
X715Y24846D01*
X3790Y24848D01*
X3798Y24850D01*
Y24819D01*
X3641Y24807D01*
X3485Y24769D01*
X3337Y24708D01*
X3201Y24624D01*
X3079Y24521D01*
X2976Y24399D01*
X2892Y24263D01*
X2831Y24115D01*
X2793Y23959D01*
X2781Y23800D01*
X2793Y23641D01*
X2831Y23485D01*
X2892Y23337D01*
X2976Y23201D01*
X3079Y23079D01*
X3201Y22976D01*
X3337Y22892D01*
X3485Y22831D01*
X3641Y22793D01*
X3798Y22781D01*
Y22550D01*
G37*
G54D12*X20600Y37100D02*X21950D01*
X20750Y28550D02*X20750Y28550D01*
X22350Y33250D02*Y26550D01*
X21950Y23500D02*X21900Y23550D01*
X20700D01*
X19550Y44750D02*X21050D01*
X21850Y51000D02*X22300Y50550D01*
X20600Y51000D02*X21850D01*
Y51650D02*X22300Y52100D01*
X19900Y51650D02*X21850D01*
X20350Y52300D02*X19100Y53550D01*
X20600Y52300D02*X20350D01*
X19900Y50350D02*X19350D01*
X19900Y49700D02*X19300D01*
X15650Y23900D02*X13100D01*
X16450Y26100D02*Y27550D01*
X20500Y32150D02*Y30200D01*
X1250Y32200D02*Y30550D01*
X16450Y32200D02*Y30950D01*
X20500Y30200D02*X19850Y29550D01*
X10950D01*
X8800Y27400D01*
Y24200D01*
X8700Y24100D01*
X1250Y26100D02*Y27700D01*
X6075Y24325D02*X6975D01*
X7000Y24350D01*
G54D13*X7100Y27200D03*
X12000D03*
G54D14*X22050Y47650D03*
Y54300D03*
Y35050D03*
Y41700D03*
G54D11*G36*
X20200Y45700D02*X18900D01*
Y43800D01*
X20200D01*
Y45700D01*
G37*
G36*
X23200D02*X21900D01*
Y43800D01*
X23200D01*
Y45700D01*
G37*
G36*
X19700Y39900D02*Y39500D01*
X21500D01*
Y39900D01*
X19700D01*
G37*
G36*
Y37950D02*Y37550D01*
X21500D01*
Y37950D01*
X19700D01*
G37*
G36*
Y38600D02*Y38200D01*
X21500D01*
Y38600D01*
X19700D01*
G37*
G36*
Y39250D02*Y38850D01*
X21500D01*
Y39250D01*
X19700D01*
G37*
G36*
Y52500D02*Y52100D01*
X21500D01*
Y52500D01*
X19700D01*
G37*
G36*
Y50550D02*Y50150D01*
X21500D01*
Y50550D01*
X19700D01*
G37*
G36*
Y51200D02*Y50800D01*
X21500D01*
Y51200D01*
X19700D01*
G37*
G36*
Y51850D02*Y51450D01*
X21500D01*
Y51850D01*
X19700D01*
G37*
G36*
Y49900D02*Y49500D01*
X21500D01*
Y49900D01*
X19700D01*
G37*
G36*
Y37300D02*Y36900D01*
X21500D01*
Y37300D01*
X19700D01*
G37*
G36*
X15450Y33200D02*Y31200D01*
X18950D01*
Y33200D01*
X15450D01*
G37*
G36*
X21300Y27150D02*Y25850D01*
X23200D01*
Y27150D01*
X21300D01*
G37*
G36*
Y24150D02*Y22850D01*
X23200D01*
Y24150D01*
X21300D01*
G37*
G36*
X15450Y27100D02*Y25100D01*
X18950D01*
Y27100D01*
X15450D01*
G37*
G36*
X250D02*Y25100D01*
X3750D01*
Y27100D01*
X250D01*
G37*
G36*
Y33200D02*Y31200D01*
X3750D01*
Y33200D01*
X250D01*
G37*
G36*
X9200Y24950D02*X7950D01*
Y22950D01*
X9200D01*
Y24950D01*
G37*
G36*
X6700D02*X5450D01*
Y22950D01*
X6700D01*
Y24950D01*
G37*
G36*
X11200D02*X9950D01*
Y22950D01*
X11200D01*
Y24950D01*
G37*
G36*
X13700D02*X12450D01*
Y22950D01*
X13700D01*
Y24950D01*
G37*
G54D15*X22300Y52100D03*
X21050Y44750D03*
X22550D03*
X19100Y53550D03*
X22300Y33250D03*
X20500Y32150D03*
G54D16*X3800Y23800D03*
G54D15*X15650Y23900D03*
X10575Y23950D03*
G54D17*G54D18*G54D17*G54D19*G54D20*M02*
