G04 start of page 10 for group -4015 idx -4015 *
G04 Title: (unknown), toppaste *
G04 Creator: pcb 4.2.0 *
G04 CreationDate: Thu Feb 13 16:47:07 2020 UTC *
G04 For: blinken *
G04 Format: Gerber/RS-274X *
G04 PCB-Dimensions (mm): 65.00 56.00 *
G04 PCB-Coordinate-Origin: lower left *
%MOMM*%
%FSLAX43Y43*%
%LNTOPPASTE*%
%ADD40C,0.002*%
G54D40*G36*
X9200Y30900D02*X7950D01*
Y28900D01*
X9200D01*
Y30900D01*
G37*
G36*
X6700D02*X5450D01*
Y28900D01*
X6700D01*
Y30900D01*
G37*
G36*
X11200D02*X9950D01*
Y28900D01*
X11200D01*
Y30900D01*
G37*
G36*
X13700D02*X12450D01*
Y28900D01*
X13700D01*
Y30900D01*
G37*
G36*
X250Y33050D02*Y31050D01*
X3750D01*
Y33050D01*
X250D01*
G37*
G36*
Y39150D02*Y37150D01*
X3750D01*
Y39150D01*
X250D01*
G37*
G36*
X15450D02*Y37150D01*
X18950D01*
Y39150D01*
X15450D01*
G37*
G36*
Y33050D02*Y31050D01*
X18950D01*
Y33050D01*
X15450D01*
G37*
G36*
X20200Y45700D02*X18900D01*
Y43800D01*
X20200D01*
Y45700D01*
G37*
G36*
X23200D02*X21900D01*
Y43800D01*
X23200D01*
Y45700D01*
G37*
G36*
X21350Y32200D02*Y30900D01*
X23250D01*
Y32200D01*
X21350D01*
G37*
G36*
Y29200D02*Y27900D01*
X23250D01*
Y29200D01*
X21350D01*
G37*
G36*
X19700Y49900D02*Y49500D01*
X21500D01*
Y49900D01*
X19700D01*
G37*
G36*
Y52500D02*Y52100D01*
X21500D01*
Y52500D01*
X19700D01*
G37*
G36*
Y50550D02*Y50150D01*
X21500D01*
Y50550D01*
X19700D01*
G37*
G36*
Y51200D02*Y50800D01*
X21500D01*
Y51200D01*
X19700D01*
G37*
G36*
Y51850D02*Y51450D01*
X21500D01*
Y51850D01*
X19700D01*
G37*
G36*
Y37300D02*Y36900D01*
X21500D01*
Y37300D01*
X19700D01*
G37*
G36*
Y39900D02*Y39500D01*
X21500D01*
Y39900D01*
X19700D01*
G37*
G36*
Y37950D02*Y37550D01*
X21500D01*
Y37950D01*
X19700D01*
G37*
G36*
Y38600D02*Y38200D01*
X21500D01*
Y38600D01*
X19700D01*
G37*
G36*
Y39250D02*Y38850D01*
X21500D01*
Y39250D01*
X19700D01*
G37*
M02*
