G04 start of page 11 for group -3984 idx -3984 *
G04 Title: (unknown), fab *
G04 Creator: pcb 4.2.0 *
G04 CreationDate: Fri Feb 14 02:43:24 2020 UTC *
G04 For: blinken *
G04 Format: Gerber/RS-274X *
G04 PCB-Dimensions (mm): 65.00 56.00 *
G04 PCB-Coordinate-Origin: lower left *
%MOMM*%
%FSLAX43Y43*%
%LNFAB*%
%ADD49C,0.254*%
%ADD48C,0.191*%
%ADD47C,0.152*%
%ADD46R,0.203X0.203*%
G54D46*X6897Y27200D02*G75*G03X7303Y27200I203J0D01*G01*
G75*G03X6897Y27200I-203J0D01*G01*
X11797D02*G75*G03X12203Y27200I203J0D01*G01*
G75*G03X11797Y27200I-203J0D01*G01*
X3607Y58858D02*G75*G03X4013Y58858I203J0D01*G01*
G75*G03X3607Y58858I-203J0D01*G01*
G54D47*X34290Y59429D02*X34671Y58667D01*
X35052Y59429D01*
X34671Y58667D02*Y57905D01*
X35509Y58743D02*X36081D01*
X35509Y57905D02*X36271D01*
X35509Y59429D02*Y57905D01*
Y59429D02*X36271D01*
X37490D02*X37681Y59238D01*
X36919Y59429D02*X37490D01*
X36728Y59238D02*X36919Y59429D01*
X36728Y59238D02*Y58858D01*
X36919Y58667D01*
X37490D01*
X37681Y58476D01*
Y58096D01*
X37490Y57905D02*X37681Y58096D01*
X36919Y57905D02*X37490D01*
X36728Y58096D02*X36919Y57905D01*
X24892Y59238D02*X25082Y59429D01*
X25654D01*
X25844Y59238D01*
Y58858D01*
X24892Y57905D02*X25844Y58858D01*
X24892Y57905D02*X25844D01*
X11430Y58096D02*X11620Y57905D01*
X11430Y59238D02*Y58096D01*
Y59238D02*X11620Y59429D01*
X12002D01*
X12192Y59238D01*
Y58096D01*
X12002Y57905D02*X12192Y58096D01*
X11620Y57905D02*X12002D01*
X11430Y58286D02*X12192Y59048D01*
X12649Y57905D02*X12840D01*
X13297Y58096D02*X13487Y57905D01*
X13297Y59238D02*Y58096D01*
Y59238D02*X13487Y59429D01*
X13868D01*
X14059Y59238D01*
Y58096D01*
X13868Y57905D02*X14059Y58096D01*
X13487Y57905D02*X13868D01*
X13297Y58286D02*X14059Y59048D01*
X14516Y59429D02*X15278D01*
X14516D02*Y58667D01*
X14707Y58858D01*
X15088D01*
X15278Y58667D01*
Y58096D01*
X15088Y57905D02*X15278Y58096D01*
X14707Y57905D02*X15088D01*
X14516Y58096D02*X14707Y57905D01*
X15926D02*X16497Y58667D01*
Y59238D02*Y58667D01*
X16307Y59429D02*X16497Y59238D01*
X15926Y59429D02*X16307D01*
X15735Y59238D02*X15926Y59429D01*
X15735Y59238D02*Y58858D01*
X15926Y58667D01*
X16497D01*
X21745Y47955D02*X22355Y47345D01*
X21745D02*X22355Y47955D01*
X21745Y54605D02*X22355Y53995D01*
X21745D02*X22355Y54605D01*
X21745Y35355D02*X22355Y34745D01*
X21745D02*X22355Y35355D01*
X21745Y42005D02*X22355Y41395D01*
X21745D02*X22355Y42005D01*
X3505Y62972D02*X4115Y62363D01*
X3505D02*X4115Y62972D01*
X34290Y63239D02*X34671Y62477D01*
X35052Y63239D01*
X34671Y62477D02*Y61715D01*
X35509Y62553D02*X36081D01*
X35509Y61715D02*X36271D01*
X35509Y63239D02*Y61715D01*
Y63239D02*X36271D01*
X37490D02*X37681Y63048D01*
X36919Y63239D02*X37490D01*
X36728Y63048D02*X36919Y63239D01*
X36728Y63048D02*Y62668D01*
X36919Y62477D01*
X37490D01*
X37681Y62286D01*
Y61906D01*
X37490Y61715D02*X37681Y61906D01*
X36919Y61715D02*X37490D01*
X36728Y61906D02*X36919Y61715D01*
X24892Y62286D02*X25654Y63239D01*
X24892Y62286D02*X25844D01*
X25654Y63239D02*Y61715D01*
X11430Y61906D02*X11620Y61715D01*
X11430Y63048D02*Y61906D01*
Y63048D02*X11620Y63239D01*
X12002D01*
X12192Y63048D01*
Y61906D01*
X12002Y61715D02*X12192Y61906D01*
X11620Y61715D02*X12002D01*
X11430Y62096D02*X12192Y62858D01*
X12649Y61715D02*X12840D01*
X13297Y61906D02*X13487Y61715D01*
X13297Y63048D02*Y61906D01*
Y63048D02*X13487Y63239D01*
X13868D01*
X14059Y63048D01*
Y61906D01*
X13868Y61715D02*X14059Y61906D01*
X13487Y61715D02*X13868D01*
X13297Y62096D02*X14059Y62858D01*
X14516Y63239D02*X15278D01*
X14516D02*Y62477D01*
X14707Y62668D01*
X15088D01*
X15278Y62477D01*
Y61906D01*
X15088Y61715D02*X15278Y61906D01*
X14707Y61715D02*X15088D01*
X14516Y61906D02*X14707Y61715D01*
X15735Y62934D02*X16040Y63239D01*
Y61715D01*
X15735D02*X16307D01*
X3800Y24206D02*Y23394D01*
X3394Y23800D02*X4206D01*
X3810Y66884D02*Y66071D01*
X3404Y66478D02*X4216D01*
X34290Y67049D02*X34671Y66287D01*
X35052Y67049D01*
X34671Y66287D02*Y65525D01*
X35509Y66363D02*X36081D01*
X35509Y65525D02*X36271D01*
X35509Y67049D02*Y65525D01*
Y67049D02*X36271D01*
X37490D02*X37681Y66858D01*
X36919Y67049D02*X37490D01*
X36728Y66858D02*X36919Y67049D01*
X36728Y66858D02*Y66478D01*
X36919Y66287D01*
X37490D01*
X37681Y66096D01*
Y65716D01*
X37490Y65525D02*X37681Y65716D01*
X36919Y65525D02*X37490D01*
X36728Y65716D02*X36919Y65525D01*
X24892Y66744D02*X25197Y67049D01*
Y65525D01*
X24892D02*X25464D01*
X11430Y65716D02*X11620Y65525D01*
X11430Y66858D02*Y65716D01*
Y66858D02*X11620Y67049D01*
X12002D01*
X12192Y66858D01*
Y65716D01*
X12002Y65525D02*X12192Y65716D01*
X11620Y65525D02*X12002D01*
X11430Y65906D02*X12192Y66668D01*
X12649Y65525D02*X12840D01*
X13297Y65716D02*X13487Y65525D01*
X13297Y66858D02*Y65716D01*
Y66858D02*X13487Y67049D01*
X13868D01*
X14059Y66858D01*
Y65716D01*
X13868Y65525D02*X14059Y65716D01*
X13487Y65525D02*X13868D01*
X13297Y65906D02*X14059Y66668D01*
X14516Y66858D02*X14707Y67049D01*
X15088D01*
X15278Y66858D01*
X15088Y65525D02*X15278Y65716D01*
X14707Y65525D02*X15088D01*
X14516Y65716D02*X14707Y65525D01*
Y66363D02*X15088D01*
X15278Y66858D02*Y66554D01*
Y66173D02*Y65716D01*
Y66173D02*X15088Y66363D01*
X15278Y66554D02*X15088Y66363D01*
X15735Y65716D02*X15926Y65525D01*
X15735Y66020D02*Y65716D01*
Y66020D02*X16002Y66287D01*
X16231D01*
X16497Y66020D01*
Y65716D01*
X16307Y65525D02*X16497Y65716D01*
X15926Y65525D02*X16307D01*
X15735Y66554D02*X16002Y66287D01*
X15735Y66858D02*Y66554D01*
Y66858D02*X15926Y67049D01*
X16307D01*
X16497Y66858D01*
Y66554D01*
X16231Y66287D02*X16497Y66554D01*
X22300Y52100D02*Y51694D01*
Y52100D02*X22652Y52303D01*
X22300Y52100D02*X21948Y52303D01*
X21050Y44750D02*Y44344D01*
Y44750D02*X21402Y44953D01*
X21050Y44750D02*X20698Y44953D01*
X22550Y44750D02*Y44344D01*
Y44750D02*X22902Y44953D01*
X22550Y44750D02*X22198Y44953D01*
X22300Y50550D02*Y50144D01*
Y50550D02*X22652Y50753D01*
X22300Y50550D02*X21948Y50753D01*
X19100Y53550D02*Y53144D01*
Y53550D02*X19452Y53753D01*
X19100Y53550D02*X18748Y53753D01*
X22300Y33250D02*Y32844D01*
Y33250D02*X22652Y33453D01*
X22300Y33250D02*X21948Y33453D01*
X15650Y23900D02*Y23494D01*
Y23900D02*X16002Y24103D01*
X15650Y23900D02*X15298Y24103D01*
X10575Y23950D02*Y23544D01*
Y23950D02*X10927Y24153D01*
X10575Y23950D02*X10223Y24153D01*
X20500Y32150D02*Y31744D01*
Y32150D02*X20852Y32353D01*
X20500Y32150D02*X20148Y32353D01*
X3810Y70288D02*Y69881D01*
Y70288D02*X4162Y70491D01*
X3810Y70288D02*X3458Y70491D01*
X34290Y70859D02*X34671Y70097D01*
X35052Y70859D01*
X34671Y70097D02*Y69335D01*
X35509Y70173D02*X36081D01*
X35509Y69335D02*X36271D01*
X35509Y70859D02*Y69335D01*
Y70859D02*X36271D01*
X37490D02*X37681Y70668D01*
X36919Y70859D02*X37490D01*
X36728Y70668D02*X36919Y70859D01*
X36728Y70668D02*Y70288D01*
X36919Y70097D01*
X37490D01*
X37681Y69906D01*
Y69526D01*
X37490Y69335D02*X37681Y69526D01*
X36919Y69335D02*X37490D01*
X36728Y69526D02*X36919Y69335D01*
X25082D02*X25654Y70097D01*
Y70668D02*Y70097D01*
X25464Y70859D02*X25654Y70668D01*
X25082Y70859D02*X25464D01*
X24892Y70668D02*X25082Y70859D01*
X24892Y70668D02*Y70288D01*
X25082Y70097D01*
X25654D01*
X11430Y69526D02*X11620Y69335D01*
X11430Y70668D02*Y69526D01*
Y70668D02*X11620Y70859D01*
X12002D01*
X12192Y70668D01*
Y69526D01*
X12002Y69335D02*X12192Y69526D01*
X11620Y69335D02*X12002D01*
X11430Y69716D02*X12192Y70478D01*
X12649Y69335D02*X12840D01*
X13297Y69526D02*X13487Y69335D01*
X13297Y70668D02*Y69526D01*
Y70668D02*X13487Y70859D01*
X13868D01*
X14059Y70668D01*
Y69526D01*
X13868Y69335D02*X14059Y69526D01*
X13487Y69335D02*X13868D01*
X13297Y69716D02*X14059Y70478D01*
X14516Y70554D02*X14821Y70859D01*
Y69335D01*
X14516D02*X15088D01*
X16116Y70859D02*X16307Y70668D01*
X15735Y70859D02*X16116D01*
X15545Y70668D02*X15735Y70859D01*
X15545Y70668D02*Y69526D01*
X15735Y69335D01*
X16116Y70173D02*X16307Y69983D01*
X15545Y70173D02*X16116D01*
X15735Y69335D02*X16116D01*
X16307Y69526D01*
Y69983D02*Y69526D01*
X762Y74669D02*X952Y74478D01*
X190Y74669D02*X762D01*
X0Y74478D02*X190Y74669D01*
X0Y74478D02*Y74098D01*
X190Y73907D01*
X762D01*
X952Y73716D01*
Y73336D01*
X762Y73145D02*X952Y73336D01*
X190Y73145D02*X762D01*
X0Y73336D02*X190Y73145D01*
X1410Y73907D02*Y73336D01*
X1600Y73145D01*
X2172Y73907D02*Y72764D01*
X1981Y72574D02*X2172Y72764D01*
X1600Y72574D02*X1981D01*
X1410Y72764D02*X1600Y72574D01*
Y73145D02*X1981D01*
X2172Y73336D01*
X2819Y73716D02*Y73145D01*
Y73716D02*X3010Y73907D01*
X3200D01*
X3391Y73716D01*
Y73145D01*
Y73716D02*X3581Y73907D01*
X3772D01*
X3962Y73716D01*
Y73145D01*
X2629Y73907D02*X2819Y73716D01*
X4420Y74669D02*Y73145D01*
Y73336D02*X4610Y73145D01*
X4991D01*
X5182Y73336D01*
Y73716D02*Y73336D01*
X4991Y73907D02*X5182Y73716D01*
X4610Y73907D02*X4991D01*
X4420Y73716D02*X4610Y73907D01*
X5639Y73716D02*Y73336D01*
Y73716D02*X5829Y73907D01*
X6210D01*
X6401Y73716D01*
Y73336D01*
X6210Y73145D02*X6401Y73336D01*
X5829Y73145D02*X6210D01*
X5639Y73336D02*X5829Y73145D01*
X6858Y74669D02*Y73336D01*
X7049Y73145D01*
X0Y72319D02*X7430D01*
X10604Y74669D02*Y73145D01*
X11100Y74669D02*X11366Y74402D01*
Y73412D01*
X11100Y73145D02*X11366Y73412D01*
X10414Y73145D02*X11100D01*
X10414Y74669D02*X11100D01*
G54D48*X11824Y74288D02*Y74250D01*
G54D47*Y73716D02*Y73145D01*
X12776Y73907D02*X12967Y73716D01*
X12395Y73907D02*X12776D01*
X12205Y73716D02*X12395Y73907D01*
X12205Y73716D02*Y73336D01*
X12395Y73145D01*
X12967Y73907D02*Y73336D01*
X13157Y73145D01*
X12395D02*X12776D01*
X12967Y73336D01*
X13805Y73716D02*Y73145D01*
Y73716D02*X13995Y73907D01*
X14186D01*
X14376Y73716D01*
Y73145D01*
Y73716D02*X14567Y73907D01*
X14757D01*
X14948Y73716D01*
Y73145D01*
X13614Y73907D02*X13805Y73716D01*
X15405Y73145D02*X15596D01*
X16739Y73336D02*X16929Y73145D01*
X16739Y74478D02*X16929Y74669D01*
X16739Y74478D02*Y73336D01*
X17386Y74669D02*X17767D01*
X17577D02*Y73145D01*
X17386D02*X17767D01*
X18415Y73716D02*Y73145D01*
Y73716D02*X18606Y73907D01*
X18796D01*
X18987Y73716D01*
Y73145D01*
X18225Y73907D02*X18415Y73716D01*
X19634Y73907D02*X20206D01*
X19444Y73716D02*X19634Y73907D01*
X19444Y73716D02*Y73336D01*
X19634Y73145D01*
X20206D01*
X20663Y74669D02*Y73145D01*
Y73716D02*X20853Y73907D01*
X21234D01*
X21425Y73716D01*
Y73145D01*
X21882Y74669D02*X22073Y74478D01*
Y73336D01*
X21882Y73145D02*X22073Y73336D01*
X10414Y72319D02*X22530D01*
X24397Y73145D02*X24892D01*
X24130Y73412D02*X24397Y73145D01*
X24130Y74402D02*Y73412D01*
Y74402D02*X24397Y74669D01*
X24892D01*
X25349Y73716D02*Y73336D01*
Y73716D02*X25540Y73907D01*
X25921D01*
X26111Y73716D01*
Y73336D01*
X25921Y73145D02*X26111Y73336D01*
X25540Y73145D02*X25921D01*
X25349Y73336D02*X25540Y73145D01*
X26568Y73907D02*Y73336D01*
X26759Y73145D01*
X27140D01*
X27330Y73336D01*
Y73907D02*Y73336D01*
X27978Y73716D02*Y73145D01*
Y73716D02*X28169Y73907D01*
X28359D01*
X28550Y73716D01*
Y73145D01*
X27788Y73907D02*X27978Y73716D01*
X29197Y74669D02*Y73336D01*
X29388Y73145D01*
X29007Y74098D02*X29388D01*
X24130Y72319D02*X29769D01*
X33210Y74669D02*Y73145D01*
X33020Y74669D02*X33782D01*
X33972Y74478D01*
Y74098D01*
X33782Y73907D02*X33972Y74098D01*
X33210Y73907D02*X33782D01*
X34430Y74669D02*Y73336D01*
X34620Y73145D01*
X35573Y73907D02*X35763Y73716D01*
X35192Y73907D02*X35573D01*
X35001Y73716D02*X35192Y73907D01*
X35001Y73716D02*Y73336D01*
X35192Y73145D01*
X35763Y73907D02*Y73336D01*
X35954Y73145D01*
X35192D02*X35573D01*
X35763Y73336D01*
X36601Y74669D02*Y73336D01*
X36792Y73145D01*
X36411Y74098D02*X36792D01*
X37363Y73145D02*X37935D01*
X37173Y73336D02*X37363Y73145D01*
X37173Y73716D02*Y73336D01*
Y73716D02*X37363Y73907D01*
X37744D01*
X37935Y73716D01*
X37173Y73526D02*X37935D01*
Y73716D02*Y73526D01*
X39154Y74669D02*Y73145D01*
X38964D02*X39154Y73336D01*
X38583Y73145D02*X38964D01*
X38392Y73336D02*X38583Y73145D01*
X38392Y73716D02*Y73336D01*
Y73716D02*X38583Y73907D01*
X38964D01*
X39154Y73716D01*
X39992Y73907D02*Y73716D01*
Y73336D02*Y73145D01*
X39611Y74478D02*Y74288D01*
Y74478D02*X39802Y74669D01*
X40183D01*
X40373Y74478D01*
Y74288D01*
X39992Y73907D02*X40373Y74288D01*
X33020Y72319D02*X40831D01*
X0Y78479D02*X762D01*
X381D02*Y76955D01*
X1219Y78479D02*Y76955D01*
Y77526D02*X1410Y77717D01*
X1791D01*
X1981Y77526D01*
Y76955D01*
X2629D02*X3200D01*
X2438Y77146D02*X2629Y76955D01*
X2438Y77526D02*Y77146D01*
Y77526D02*X2629Y77717D01*
X3010D01*
X3200Y77526D01*
X2438Y77336D02*X3200D01*
Y77526D02*Y77336D01*
X3848Y77526D02*Y76955D01*
Y77526D02*X4039Y77717D01*
X4420D01*
X3658D02*X3848Y77526D01*
X5067Y76955D02*X5639D01*
X4877Y77146D02*X5067Y76955D01*
X4877Y77526D02*Y77146D01*
Y77526D02*X5067Y77717D01*
X5448D01*
X5639Y77526D01*
X4877Y77336D02*X5639D01*
Y77526D02*Y77336D01*
X7353Y77717D02*X7544Y77526D01*
X6972Y77717D02*X7353D01*
X6782Y77526D02*X6972Y77717D01*
X6782Y77526D02*Y77146D01*
X6972Y76955D01*
X7544Y77717D02*Y77146D01*
X7734Y76955D01*
X6972D02*X7353D01*
X7544Y77146D01*
X8382Y77526D02*Y76955D01*
Y77526D02*X8573Y77717D01*
X8954D01*
X8192D02*X8382Y77526D01*
X9601Y76955D02*X10173D01*
X9411Y77146D02*X9601Y76955D01*
X9411Y77526D02*Y77146D01*
Y77526D02*X9601Y77717D01*
X9982D01*
X10173Y77526D01*
X9411Y77336D02*X10173D01*
Y77526D02*Y77336D01*
X11316Y77526D02*X12078Y78479D01*
X11316Y77526D02*X12268D01*
X12078Y78479D02*Y76955D01*
X14173Y78479D02*Y76955D01*
X13983D02*X14173Y77146D01*
X13602Y76955D02*X13983D01*
X13411Y77146D02*X13602Y76955D01*
X13411Y77526D02*Y77146D01*
Y77526D02*X13602Y77717D01*
X13983D01*
X14173Y77526D01*
G54D48*X14630Y78098D02*Y78060D01*
G54D47*Y77526D02*Y76955D01*
X15202Y78288D02*Y76955D01*
Y78288D02*X15392Y78479D01*
X15583D01*
X15011Y77717D02*X15392D01*
X16154Y78288D02*Y76955D01*
Y78288D02*X16345Y78479D01*
X16535D01*
X15964Y77717D02*X16345D01*
X17107Y76955D02*X17678D01*
X16916Y77146D02*X17107Y76955D01*
X16916Y77526D02*Y77146D01*
Y77526D02*X17107Y77717D01*
X17488D01*
X17678Y77526D01*
X16916Y77336D02*X17678D01*
Y77526D02*Y77336D01*
X18326Y77526D02*Y76955D01*
Y77526D02*X18517Y77717D01*
X18898D01*
X18136D02*X18326Y77526D01*
X19545Y76955D02*X20117D01*
X19355Y77146D02*X19545Y76955D01*
X19355Y77526D02*Y77146D01*
Y77526D02*X19545Y77717D01*
X19926D01*
X20117Y77526D01*
X19355Y77336D02*X20117D01*
Y77526D02*Y77336D01*
X20765Y77526D02*Y76955D01*
Y77526D02*X20955Y77717D01*
X21146D01*
X21336Y77526D01*
Y76955D01*
X20574Y77717D02*X20765Y77526D01*
X21984Y78479D02*Y77146D01*
X22174Y76955D01*
X21793Y77908D02*X22174D01*
X24003Y78479D02*Y76955D01*
X23813D02*X24003Y77146D01*
X23432Y76955D02*X23813D01*
X23241Y77146D02*X23432Y76955D01*
X23241Y77526D02*Y77146D01*
Y77526D02*X23432Y77717D01*
X23813D01*
X24003Y77526D01*
X24651D02*Y76955D01*
Y77526D02*X24841Y77717D01*
X25222D01*
X24460D02*X24651Y77526D01*
G54D48*X25679Y78098D02*Y78060D01*
G54D47*Y77526D02*Y76955D01*
X26060Y78479D02*Y77146D01*
X26251Y76955D01*
X26632Y78479D02*Y77146D01*
X26822Y76955D01*
X28080D02*X28651D01*
X28842Y77146D01*
X28651Y77336D02*X28842Y77146D01*
X28080Y77336D02*X28651D01*
X27889Y77526D02*X28080Y77336D01*
X27889Y77526D02*X28080Y77717D01*
X28651D01*
X28842Y77526D01*
X27889Y77146D02*X28080Y76955D01*
G54D48*X29299Y78098D02*Y78060D01*
G54D47*Y77526D02*Y76955D01*
X29680Y77717D02*X30442D01*
X29680Y76955D02*X30442Y77717D01*
X29680Y76955D02*X30442D01*
X31090D02*X31661D01*
X30899Y77146D02*X31090Y76955D01*
X30899Y77526D02*Y77146D01*
Y77526D02*X31090Y77717D01*
X31471D01*
X31661Y77526D01*
X30899Y77336D02*X31661D01*
Y77526D02*Y77336D01*
X32309Y76955D02*X32880D01*
X33071Y77146D01*
X32880Y77336D02*X33071Y77146D01*
X32309Y77336D02*X32880D01*
X32118Y77526D02*X32309Y77336D01*
X32118Y77526D02*X32309Y77717D01*
X32880D01*
X33071Y77526D01*
X32118Y77146D02*X32309Y76955D01*
X34214Y77717D02*Y77146D01*
X34404Y76955D01*
X34785D01*
X34976Y77146D01*
Y77717D02*Y77146D01*
X35624Y76955D02*X36195D01*
X36386Y77146D01*
X36195Y77336D02*X36386Y77146D01*
X35624Y77336D02*X36195D01*
X35433Y77526D02*X35624Y77336D01*
X35433Y77526D02*X35624Y77717D01*
X36195D01*
X36386Y77526D01*
X35433Y77146D02*X35624Y76955D01*
X37033D02*X37605D01*
X36843Y77146D02*X37033Y76955D01*
X36843Y77526D02*Y77146D01*
Y77526D02*X37033Y77717D01*
X37414D01*
X37605Y77526D01*
X36843Y77336D02*X37605D01*
Y77526D02*Y77336D01*
X38824Y78479D02*Y76955D01*
X38633D02*X38824Y77146D01*
X38252Y76955D02*X38633D01*
X38062Y77146D02*X38252Y76955D01*
X38062Y77526D02*Y77146D01*
Y77526D02*X38252Y77717D01*
X38633D01*
X38824Y77526D01*
G54D48*X39967Y78098D02*Y78060D01*
G54D47*Y77526D02*Y76955D01*
X40538Y77526D02*Y76955D01*
Y77526D02*X40729Y77717D01*
X40919D01*
X41110Y77526D01*
Y76955D01*
X40348Y77717D02*X40538Y77526D01*
X42443Y78479D02*Y77146D01*
X42634Y76955D01*
X42253Y77908D02*X42634D01*
X43015Y78479D02*Y76955D01*
Y77526D02*X43205Y77717D01*
X43586D01*
X43777Y77526D01*
Y76955D01*
G54D48*X44234Y78098D02*Y78060D01*
G54D47*Y77526D02*Y76955D01*
X44806D02*X45377D01*
X45568Y77146D01*
X45377Y77336D02*X45568Y77146D01*
X44806Y77336D02*X45377D01*
X44615Y77526D02*X44806Y77336D01*
X44615Y77526D02*X44806Y77717D01*
X45377D01*
X45568Y77526D01*
X44615Y77146D02*X44806Y76955D01*
X46711Y78479D02*Y77146D01*
X46901Y76955D01*
X47854Y77717D02*X48044Y77526D01*
X47473Y77717D02*X47854D01*
X47282Y77526D02*X47473Y77717D01*
X47282Y77526D02*Y77146D01*
X47473Y76955D01*
X48044Y77717D02*Y77146D01*
X48235Y76955D01*
X47473D02*X47854D01*
X48044Y77146D01*
X48692Y77717D02*Y77146D01*
X48882Y76955D01*
X49454Y77717D02*Y76574D01*
X49263Y76384D02*X49454Y76574D01*
X48882Y76384D02*X49263D01*
X48692Y76574D02*X48882Y76384D01*
Y76955D02*X49263D01*
X49454Y77146D01*
X49911Y77526D02*Y77146D01*
Y77526D02*X50102Y77717D01*
X50483D01*
X50673Y77526D01*
Y77146D01*
X50483Y76955D02*X50673Y77146D01*
X50102Y76955D02*X50483D01*
X49911Y77146D02*X50102Y76955D01*
X51130Y77717D02*Y77146D01*
X51321Y76955D01*
X51702D01*
X51892Y77146D01*
Y77717D02*Y77146D01*
X52540Y78479D02*Y77146D01*
X52730Y76955D01*
X52349Y77908D02*X52730D01*
X53111Y76574D02*X53492Y76955D01*
X54635Y78174D02*X54940Y78479D01*
Y76955D01*
X54635D02*X55207D01*
X56236Y78479D02*X56426Y78288D01*
X55855Y78479D02*X56236D01*
X55664Y78288D02*X55855Y78479D01*
X55664Y78288D02*Y77146D01*
X55855Y76955D01*
X56236Y77793D02*X56426Y77603D01*
X55664Y77793D02*X56236D01*
X55855Y76955D02*X56236D01*
X56426Y77146D01*
Y77603D02*Y77146D01*
X57569Y78479D02*Y76955D01*
Y77526D02*X57760Y77717D01*
X58141D01*
X58331Y77526D01*
Y76955D01*
X58788Y77526D02*Y77146D01*
Y77526D02*X58979Y77717D01*
X59360D01*
X59550Y77526D01*
Y77146D01*
X59360Y76955D02*X59550Y77146D01*
X58979Y76955D02*X59360D01*
X58788Y77146D02*X58979Y76955D01*
X60008Y78479D02*Y77146D01*
X60198Y76955D01*
X60770D02*X61341D01*
X60579Y77146D02*X60770Y76955D01*
X60579Y77526D02*Y77146D01*
Y77526D02*X60770Y77717D01*
X61151D01*
X61341Y77526D01*
X60579Y77336D02*X61341D01*
Y77526D02*Y77336D01*
X61989Y76955D02*X62560D01*
X62751Y77146D01*
X62560Y77336D02*X62751Y77146D01*
X61989Y77336D02*X62560D01*
X61798Y77526D02*X61989Y77336D01*
X61798Y77526D02*X61989Y77717D01*
X62560D01*
X62751Y77526D01*
X61798Y77146D02*X61989Y76955D01*
X64084Y78479D02*Y77146D01*
X64275Y76955D01*
X63894Y77908D02*X64275D01*
X64656Y77526D02*Y77146D01*
Y77526D02*X64846Y77717D01*
X65227D01*
X65418Y77526D01*
Y77146D01*
X65227Y76955D02*X65418Y77146D01*
X64846Y76955D02*X65227D01*
X64656Y77146D02*X64846Y76955D01*
X66065Y78479D02*Y77146D01*
X66256Y76955D01*
X65875Y77908D02*X66256D01*
X67208Y77717D02*X67399Y77526D01*
X66827Y77717D02*X67208D01*
X66637Y77526D02*X66827Y77717D01*
X66637Y77526D02*Y77146D01*
X66827Y76955D01*
X67399Y77717D02*Y77146D01*
X67589Y76955D01*
X66827D02*X67208D01*
X67399Y77146D01*
X68047Y78479D02*Y77146D01*
X68237Y76955D01*
G54D49*X18050Y55750D02*Y39400D01*
Y55750D02*X23950D01*
X3050Y22300D02*X23900D01*
X23950Y55750D02*Y22300D01*
X18050Y39350D02*Y33700D01*
X450D01*
Y25100D02*Y33700D01*
Y25050D02*G75*G03X3200Y22300I2750J0D01*G01*
G54D47*X10573Y-2413D02*X11335D01*
X11526Y-2222D01*
Y-1765D02*Y-2222D01*
X11335Y-1575D02*X11526Y-1765D01*
X10764Y-1575D02*X11335D01*
X10764Y-889D02*Y-2413D01*
X10573Y-889D02*X11335D01*
X11526Y-1080D01*
Y-1384D01*
X11335Y-1575D02*X11526Y-1384D01*
X11983Y-1842D02*Y-2222D01*
Y-1842D02*X12174Y-1651D01*
X12555D01*
X12745Y-1842D01*
Y-2222D01*
X12555Y-2413D02*X12745Y-2222D01*
X12174Y-2413D02*X12555D01*
X11983Y-2222D02*X12174Y-2413D01*
X13774Y-1651D02*X13964Y-1842D01*
X13393Y-1651D02*X13774D01*
X13202Y-1842D02*X13393Y-1651D01*
X13202Y-1842D02*Y-2222D01*
X13393Y-2413D01*
X13964Y-1651D02*Y-2222D01*
X14155Y-2413D01*
X13393D02*X13774D01*
X13964Y-2222D01*
X14803Y-1842D02*Y-2413D01*
Y-1842D02*X14993Y-1651D01*
X15374D01*
X14612D02*X14803Y-1842D01*
X16593Y-889D02*Y-2413D01*
X16403D02*X16593Y-2222D01*
X16022Y-2413D02*X16403D01*
X15831Y-2222D02*X16022Y-2413D01*
X15831Y-1842D02*Y-2222D01*
Y-1842D02*X16022Y-1651D01*
X16403D01*
X16593Y-1842D01*
X17736D02*Y-2222D01*
Y-1842D02*X17927Y-1651D01*
X18308D01*
X18498Y-1842D01*
Y-2222D01*
X18308Y-2413D02*X18498Y-2222D01*
X17927Y-2413D02*X18308D01*
X17736Y-2222D02*X17927Y-2413D01*
X18955Y-1651D02*Y-2222D01*
X19146Y-2413D01*
X19527D01*
X19717Y-2222D01*
Y-1651D02*Y-2222D01*
X20365Y-889D02*Y-2222D01*
X20556Y-2413D01*
X20175Y-1460D02*X20556D01*
X20937Y-889D02*Y-2222D01*
X21127Y-2413D01*
G54D48*X21508Y-1270D02*Y-1308D01*
G54D47*Y-1842D02*Y-2413D01*
X22080Y-1842D02*Y-2413D01*
Y-1842D02*X22270Y-1651D01*
X22461D01*
X22651Y-1842D01*
Y-2413D01*
X21889Y-1651D02*X22080Y-1842D01*
X23299Y-2413D02*X23870D01*
X23108Y-2222D02*X23299Y-2413D01*
X23108Y-1842D02*Y-2222D01*
Y-1842D02*X23299Y-1651D01*
X23680D01*
X23870Y-1842D01*
X23108Y-2032D02*X23870D01*
Y-1842D02*Y-2032D01*
G54D48*X25013Y-1270D02*Y-1308D01*
G54D47*Y-1842D02*Y-2413D01*
X25585D02*X26156D01*
X26347Y-2222D01*
X26156Y-2032D02*X26347Y-2222D01*
X25585Y-2032D02*X26156D01*
X25394Y-1842D02*X25585Y-2032D01*
X25394Y-1842D02*X25585Y-1651D01*
X26156D01*
X26347Y-1842D01*
X25394Y-2222D02*X25585Y-2413D01*
X27680Y-889D02*Y-2222D01*
X27871Y-2413D01*
X27490Y-1460D02*X27871D01*
X28252Y-889D02*Y-2413D01*
Y-1842D02*X28442Y-1651D01*
X28823D01*
X29014Y-1842D01*
Y-2413D01*
X29662D02*X30233D01*
X29471Y-2222D02*X29662Y-2413D01*
X29471Y-1842D02*Y-2222D01*
Y-1842D02*X29662Y-1651D01*
X30043D01*
X30233Y-1842D01*
X29471Y-2032D02*X30233D01*
Y-1842D02*Y-2032D01*
X31567Y-1651D02*X32138D01*
X31376Y-1842D02*X31567Y-1651D01*
X31376Y-1842D02*Y-2222D01*
X31567Y-2413D01*
X32138D01*
X32786D02*X33357D01*
X32595Y-2222D02*X32786Y-2413D01*
X32595Y-1842D02*Y-2222D01*
Y-1842D02*X32786Y-1651D01*
X33167D01*
X33357Y-1842D01*
X32595Y-2032D02*X33357D01*
Y-1842D02*Y-2032D01*
X34005Y-1842D02*Y-2413D01*
Y-1842D02*X34195Y-1651D01*
X34386D01*
X34576Y-1842D01*
Y-2413D01*
X33814Y-1651D02*X34005Y-1842D01*
X35224Y-889D02*Y-2222D01*
X35415Y-2413D01*
X35034Y-1460D02*X35415D01*
X35986Y-2413D02*X36558D01*
X35796Y-2222D02*X35986Y-2413D01*
X35796Y-1842D02*Y-2222D01*
Y-1842D02*X35986Y-1651D01*
X36367D01*
X36558Y-1842D01*
X35796Y-2032D02*X36558D01*
Y-1842D02*Y-2032D01*
X37205Y-1842D02*Y-2413D01*
Y-1842D02*X37396Y-1651D01*
X37777D01*
X37015D02*X37205Y-1842D01*
X38234Y-889D02*Y-2222D01*
X38425Y-2413D01*
G54D48*X38806Y-1270D02*Y-1308D01*
G54D47*Y-1842D02*Y-2413D01*
X39377Y-1842D02*Y-2413D01*
Y-1842D02*X39568Y-1651D01*
X39758D01*
X39949Y-1842D01*
Y-2413D01*
X39187Y-1651D02*X39377Y-1842D01*
X40596Y-2413D02*X41168D01*
X40406Y-2222D02*X40596Y-2413D01*
X40406Y-1842D02*Y-2222D01*
Y-1842D02*X40596Y-1651D01*
X40977D01*
X41168Y-1842D01*
X40406Y-2032D02*X41168D01*
Y-1842D02*Y-2032D01*
X42311Y-1842D02*Y-2222D01*
Y-1842D02*X42501Y-1651D01*
X42882D01*
X43073Y-1842D01*
Y-2222D01*
X42882Y-2413D02*X43073Y-2222D01*
X42501Y-2413D02*X42882D01*
X42311Y-2222D02*X42501Y-2413D01*
X43720Y-1080D02*Y-2413D01*
Y-1080D02*X43911Y-889D01*
X44101D01*
X43530Y-1651D02*X43911D01*
X45359Y-889D02*Y-2222D01*
X45549Y-2413D01*
X45168Y-1460D02*X45549D01*
X45930Y-889D02*Y-2413D01*
Y-1842D02*X46121Y-1651D01*
X46502D01*
X46692Y-1842D01*
Y-2413D01*
G54D48*X47149Y-1270D02*Y-1308D01*
G54D47*Y-1842D02*Y-2413D01*
X47721D02*X48292D01*
X48483Y-2222D01*
X48292Y-2032D02*X48483Y-2222D01*
X47721Y-2032D02*X48292D01*
X47530Y-1842D02*X47721Y-2032D01*
X47530Y-1842D02*X47721Y-1651D01*
X48292D01*
X48483Y-1842D01*
X47530Y-2222D02*X47721Y-2413D01*
X49816Y-1842D02*Y-2984D01*
X49626Y-1651D02*X49816Y-1842D01*
X50007Y-1651D01*
X50388D01*
X50578Y-1842D01*
Y-2222D01*
X50388Y-2413D02*X50578Y-2222D01*
X50007Y-2413D02*X50388D01*
X49816Y-2222D02*X50007Y-2413D01*
X51607Y-1651D02*X51798Y-1842D01*
X51226Y-1651D02*X51607D01*
X51036Y-1842D02*X51226Y-1651D01*
X51036Y-1842D02*Y-2222D01*
X51226Y-2413D01*
X51798Y-1651D02*Y-2222D01*
X51988Y-2413D01*
X51226D02*X51607D01*
X51798Y-2222D01*
X52636Y-889D02*Y-2222D01*
X52826Y-2413D01*
X52445Y-1460D02*X52826D01*
X53207Y-889D02*Y-2413D01*
Y-1842D02*X53398Y-1651D01*
X53779D01*
X53969Y-1842D01*
Y-2413D01*
X50990Y63239D02*Y61715D01*
X51486Y63239D02*X51752Y62972D01*
Y61982D01*
X51486Y61715D02*X51752Y61982D01*
X50800Y61715D02*X51486D01*
X50800Y63239D02*X51486D01*
X52781Y62477D02*X52972Y62286D01*
X52400Y62477D02*X52781D01*
X52210Y62286D02*X52400Y62477D01*
X52210Y62286D02*Y61906D01*
X52400Y61715D01*
X52972Y62477D02*Y61906D01*
X53162Y61715D01*
X52400D02*X52781D01*
X52972Y61906D01*
X53810Y63239D02*Y61906D01*
X54000Y61715D01*
X53619Y62668D02*X54000D01*
X54572Y61715D02*X55143D01*
X54381Y61906D02*X54572Y61715D01*
X54381Y62286D02*Y61906D01*
Y62286D02*X54572Y62477D01*
X54953D01*
X55143Y62286D01*
X54381Y62096D02*X55143D01*
Y62286D02*Y62096D01*
X55601Y62668D02*X55791D01*
X55601Y62286D02*X55791D01*
X56934Y63239D02*Y61715D01*
Y63239D02*X57696D01*
X56934Y62553D02*X57506D01*
X58344Y62286D02*Y61715D01*
Y62286D02*X58534Y62477D01*
X58915D01*
X58153D02*X58344Y62286D01*
G54D48*X59373Y62858D02*Y62820D01*
G54D47*Y62286D02*Y61715D01*
X60439Y63239D02*Y61715D01*
Y63239D02*X61201D01*
X60439Y62553D02*X61011D01*
X61849Y61715D02*X62421D01*
X61659Y61906D02*X61849Y61715D01*
X61659Y62286D02*Y61906D01*
Y62286D02*X61849Y62477D01*
X62230D01*
X62421Y62286D01*
X61659Y62096D02*X62421D01*
Y62286D02*Y62096D01*
X62878Y63239D02*Y61715D01*
Y61906D02*X63068Y61715D01*
X63449D01*
X63640Y61906D01*
Y62286D02*Y61906D01*
X63449Y62477D02*X63640Y62286D01*
X63068Y62477D02*X63449D01*
X62878Y62286D02*X63068Y62477D01*
X64783Y62934D02*X65088Y63239D01*
Y61715D01*
X64783D02*X65354D01*
X65811Y62286D02*X66573Y63239D01*
X65811Y62286D02*X66764D01*
X66573Y63239D02*Y61715D01*
X67907Y61906D02*X68097Y61715D01*
X67907Y63048D02*Y61906D01*
Y63048D02*X68097Y63239D01*
X68478D01*
X68669Y63048D01*
Y61906D01*
X68478Y61715D02*X68669Y61906D01*
X68097Y61715D02*X68478D01*
X67907Y62096D02*X68669Y62858D01*
X69126Y63048D02*X69317Y63239D01*
X69888D01*
X70079Y63048D01*
Y62668D01*
X69126Y61715D02*X70079Y62668D01*
X69126Y61715D02*X70079D01*
X70536Y62668D02*X70726D01*
X70536Y62286D02*X70726D01*
X71184D02*X71946Y63239D01*
X71184Y62286D02*X72136D01*
X71946Y63239D02*Y61715D01*
X72593Y63048D02*X72784Y63239D01*
X73165D01*
X73355Y63048D01*
X73165Y61715D02*X73355Y61906D01*
X72784Y61715D02*X73165D01*
X72593Y61906D02*X72784Y61715D01*
Y62553D02*X73165D01*
X73355Y63048D02*Y62744D01*
Y62363D02*Y61906D01*
Y62363D02*X73165Y62553D01*
X73355Y62744D02*X73165Y62553D01*
X73812Y62668D02*X74003D01*
X73812Y62286D02*X74003D01*
X74460Y63048D02*X74651Y63239D01*
X75222D01*
X75413Y63048D01*
Y62668D01*
X74460Y61715D02*X75413Y62668D01*
X74460Y61715D02*X75413D01*
X75870Y62286D02*X76632Y63239D01*
X75870Y62286D02*X76822D01*
X76632Y63239D02*Y61715D01*
X77965Y63048D02*X78156Y63239D01*
X78727D01*
X78918Y63048D01*
Y62668D01*
X77965Y61715D02*X78918Y62668D01*
X77965Y61715D02*X78918D01*
X79375Y61906D02*X79566Y61715D01*
X79375Y63048D02*Y61906D01*
Y63048D02*X79566Y63239D01*
X79947D01*
X80137Y63048D01*
Y61906D01*
X79947Y61715D02*X80137Y61906D01*
X79566Y61715D02*X79947D01*
X79375Y62096D02*X80137Y62858D01*
X80594Y63048D02*X80785Y63239D01*
X81356D01*
X81547Y63048D01*
Y62668D01*
X80594Y61715D02*X81547Y62668D01*
X80594Y61715D02*X81547D01*
X82004Y61906D02*X82194Y61715D01*
X82004Y63048D02*Y61906D01*
Y63048D02*X82194Y63239D01*
X82575D01*
X82766Y63048D01*
Y61906D01*
X82575Y61715D02*X82766Y61906D01*
X82194Y61715D02*X82575D01*
X82004Y62096D02*X82766Y62858D01*
X83909Y63239D02*Y61906D01*
X84099Y61715D01*
X84480D01*
X84671Y61906D01*
Y63239D02*Y61906D01*
X85128Y63239D02*X85890D01*
X85509D02*Y61715D01*
X86614D02*X87109D01*
X86347Y61982D02*X86614Y61715D01*
X86347Y62972D02*Y61982D01*
Y62972D02*X86614Y63239D01*
X87109D01*
X50800Y66668D02*Y65525D01*
Y66668D02*X51067Y67049D01*
X51486D01*
X51752Y66668D01*
Y65525D01*
X50800Y66287D02*X51752D01*
X52210D02*Y65716D01*
X52400Y65525D01*
X52781D01*
X52972Y65716D01*
Y66287D02*Y65716D01*
X53619Y67049D02*Y65716D01*
X53810Y65525D01*
X53429Y66478D02*X53810D01*
X54191Y67049D02*Y65525D01*
Y66096D02*X54381Y66287D01*
X54762D01*
X54953Y66096D01*
Y65525D01*
X55410Y66096D02*Y65716D01*
Y66096D02*X55601Y66287D01*
X55982D01*
X56172Y66096D01*
Y65716D01*
X55982Y65525D02*X56172Y65716D01*
X55601Y65525D02*X55982D01*
X55410Y65716D02*X55601Y65525D01*
X56820Y66096D02*Y65525D01*
Y66096D02*X57010Y66287D01*
X57391D01*
X56629D02*X56820Y66096D01*
X57849Y66478D02*X58039D01*
X57849Y66096D02*X58039D01*
X59373Y67049D02*Y65525D01*
X59182Y67049D02*X59944D01*
X60135Y66858D01*
Y66478D01*
X59944Y66287D02*X60135Y66478D01*
X59373Y66287D02*X59944D01*
X61163D02*X61354Y66096D01*
X60782Y66287D02*X61163D01*
X60592Y66096D02*X60782Y66287D01*
X60592Y66096D02*Y65716D01*
X60782Y65525D01*
X61354Y66287D02*Y65716D01*
X61544Y65525D01*
X60782D02*X61163D01*
X61354Y65716D01*
X62192Y67049D02*Y65716D01*
X62382Y65525D01*
X62001Y66478D02*X62382D01*
X62954Y66096D02*Y65525D01*
Y66096D02*X63144Y66287D01*
X63525D01*
X62763D02*X62954Y66096D01*
G54D48*X63983Y66668D02*Y66630D01*
G54D47*Y66096D02*Y65525D01*
X64554Y66287D02*X65126D01*
X64364Y66096D02*X64554Y66287D01*
X64364Y66096D02*Y65716D01*
X64554Y65525D01*
X65126D01*
X65583Y67049D02*Y65525D01*
Y66096D02*X66154Y65525D01*
X65583Y66096D02*X65964Y66478D01*
X67564Y65525D02*X68059D01*
X67297Y65792D02*X67564Y65525D01*
X67297Y66782D02*Y65792D01*
Y66782D02*X67564Y67049D01*
X68059D01*
X68517Y66096D02*Y65716D01*
Y66096D02*X68707Y66287D01*
X69088D01*
X69279Y66096D01*
Y65716D01*
X69088Y65525D02*X69279Y65716D01*
X68707Y65525D02*X69088D01*
X68517Y65716D02*X68707Y65525D01*
X69736Y67049D02*Y65716D01*
X69926Y65525D01*
X70498D02*X71069D01*
X70307Y65716D02*X70498Y65525D01*
X70307Y66096D02*Y65716D01*
Y66096D02*X70498Y66287D01*
X70879D01*
X71069Y66096D01*
X70307Y65906D02*X71069D01*
Y66096D02*Y65906D01*
X71717Y66096D02*Y65525D01*
Y66096D02*X71907Y66287D01*
X72098D01*
X72288Y66096D01*
Y65525D01*
Y66096D02*X72479Y66287D01*
X72669D01*
X72860Y66096D01*
Y65525D01*
X71526Y66287D02*X71717Y66096D01*
X73889Y66287D02*X74079Y66096D01*
X73508Y66287D02*X73889D01*
X73317Y66096D02*X73508Y66287D01*
X73317Y66096D02*Y65716D01*
X73508Y65525D01*
X74079Y66287D02*Y65716D01*
X74270Y65525D01*
X73508D02*X73889D01*
X74079Y65716D01*
X74917Y66096D02*Y65525D01*
Y66096D02*X75108Y66287D01*
X75298D01*
X75489Y66096D01*
Y65525D01*
X74727Y66287D02*X74917Y66096D01*
X50800Y70859D02*X51562D01*
X51181D02*Y69335D01*
G54D48*X52019Y70478D02*Y70440D01*
G54D47*Y69906D02*Y69335D01*
X52591Y70859D02*Y69526D01*
X52781Y69335D01*
X52400Y70288D02*X52781D01*
X53162Y70859D02*Y69526D01*
X53353Y69335D01*
X53924D02*X54496D01*
X53734Y69526D02*X53924Y69335D01*
X53734Y69906D02*Y69526D01*
Y69906D02*X53924Y70097D01*
X54305D01*
X54496Y69906D01*
X53734Y69716D02*X54496D01*
Y69906D02*Y69716D01*
X54953Y70288D02*X55143D01*
X54953Y69906D02*X55143D01*
X56286Y69526D02*X56477Y69335D01*
X56286Y70668D02*X56477Y70859D01*
X56286Y70668D02*Y69526D01*
X56934Y70097D02*Y69526D01*
X57125Y69335D01*
X57506D01*
X57696Y69526D01*
Y70097D02*Y69526D01*
X58344Y69906D02*Y69335D01*
Y69906D02*X58534Y70097D01*
X58725D01*
X58915Y69906D01*
Y69335D01*
X58153Y70097D02*X58344Y69906D01*
X59373Y70859D02*Y69335D01*
Y69906D02*X59944Y69335D01*
X59373Y69906D02*X59754Y70288D01*
X60592Y69906D02*Y69335D01*
Y69906D02*X60782Y70097D01*
X60973D01*
X61163Y69906D01*
Y69335D01*
X60401Y70097D02*X60592Y69906D01*
X61620D02*Y69526D01*
Y69906D02*X61811Y70097D01*
X62192D01*
X62382Y69906D01*
Y69526D01*
X62192Y69335D02*X62382Y69526D01*
X61811Y69335D02*X62192D01*
X61620Y69526D02*X61811Y69335D01*
X62840Y70097D02*Y69526D01*
X63030Y69335D01*
X63221D01*
X63411Y69526D01*
Y70097D02*Y69526D01*
X63602Y69335D01*
X63792D01*
X63983Y69526D01*
Y70097D02*Y69526D01*
X64630Y69906D02*Y69335D01*
Y69906D02*X64821Y70097D01*
X65011D01*
X65202Y69906D01*
Y69335D01*
X64440Y70097D02*X64630Y69906D01*
X65659Y70859D02*X65850Y70668D01*
Y69526D01*
X65659Y69335D02*X65850Y69526D01*
X66993Y70097D02*X67755D01*
X68898Y70859D02*Y69335D01*
Y70859D02*X69660D01*
X68898Y70173D02*X69469D01*
X70688Y70097D02*X70879Y69906D01*
X70307Y70097D02*X70688D01*
X70117Y69906D02*X70307Y70097D01*
X70117Y69906D02*Y69526D01*
X70307Y69335D01*
X70879Y70097D02*Y69526D01*
X71069Y69335D01*
X70307D02*X70688D01*
X70879Y69526D01*
X71526Y70859D02*Y69335D01*
Y69526D02*X71717Y69335D01*
X72098D01*
X72288Y69526D01*
Y69906D02*Y69526D01*
X72098Y70097D02*X72288Y69906D01*
X71717Y70097D02*X72098D01*
X71526Y69906D02*X71717Y70097D01*
X72936Y69906D02*Y69335D01*
Y69906D02*X73127Y70097D01*
X73508D01*
X72746D02*X72936Y69906D01*
G54D48*X73965Y70478D02*Y70440D01*
G54D47*Y69906D02*Y69335D01*
X74536Y70097D02*X75108D01*
X74346Y69906D02*X74536Y70097D01*
X74346Y69906D02*Y69526D01*
X74536Y69335D01*
X75108D01*
X76137Y70097D02*X76327Y69906D01*
X75756Y70097D02*X76137D01*
X75565Y69906D02*X75756Y70097D01*
X75565Y69906D02*Y69526D01*
X75756Y69335D01*
X76327Y70097D02*Y69526D01*
X76518Y69335D01*
X75756D02*X76137D01*
X76327Y69526D01*
X77165Y70859D02*Y69526D01*
X77356Y69335D01*
X76975Y70288D02*X77356D01*
G54D48*X77737Y70478D02*Y70440D01*
G54D47*Y69906D02*Y69335D01*
X78118Y69906D02*Y69526D01*
Y69906D02*X78308Y70097D01*
X78689D01*
X78880Y69906D01*
Y69526D01*
X78689Y69335D02*X78880Y69526D01*
X78308Y69335D02*X78689D01*
X78118Y69526D02*X78308Y69335D01*
X79527Y69906D02*Y69335D01*
Y69906D02*X79718Y70097D01*
X79908D01*
X80099Y69906D01*
Y69335D01*
X79337Y70097D02*X79527Y69906D01*
X81432Y70859D02*Y69335D01*
X81928Y70859D02*X82194Y70592D01*
Y69602D01*
X81928Y69335D02*X82194Y69602D01*
X81242Y69335D02*X81928D01*
X81242Y70859D02*X81928D01*
X82842Y69906D02*Y69335D01*
Y69906D02*X83033Y70097D01*
X83414D01*
X82652D02*X82842Y69906D01*
X84442Y70097D02*X84633Y69906D01*
X84061Y70097D02*X84442D01*
X83871Y69906D02*X84061Y70097D01*
X83871Y69906D02*Y69526D01*
X84061Y69335D01*
X84633Y70097D02*Y69526D01*
X84823Y69335D01*
X84061D02*X84442D01*
X84633Y69526D01*
X85281Y70097D02*Y69526D01*
X85471Y69335D01*
X85662D01*
X85852Y69526D01*
Y70097D02*Y69526D01*
X86043Y69335D01*
X86233D01*
X86424Y69526D01*
Y70097D02*Y69526D01*
G54D48*X86881Y70478D02*Y70440D01*
G54D47*Y69906D02*Y69335D01*
X87452Y69906D02*Y69335D01*
Y69906D02*X87643Y70097D01*
X87833D01*
X88024Y69906D01*
Y69335D01*
X87262Y70097D02*X87452Y69906D01*
X89052Y70097D02*X89243Y69906D01*
X88671Y70097D02*X89052D01*
X88481Y69906D02*X88671Y70097D01*
X88481Y69906D02*Y69526D01*
X88671Y69335D01*
X89052D01*
X89243Y69526D01*
X88481Y68954D02*X88671Y68764D01*
X89052D01*
X89243Y68954D01*
Y70097D02*Y68954D01*
M02*
