G04 start of page 3 for group 5 idx 5 *
G04 Title: (unknown), bottom *
G04 Creator: pcb 4.2.0 *
G04 CreationDate: Fri Feb 14 14:13:11 2020 UTC *
G04 For: blinken *
G04 Format: Gerber/RS-274X *
G04 PCB-Dimensions (mm): 65.00 56.00 *
G04 PCB-Coordinate-Origin: lower left *
%MOMM*%
%FSLAX43Y43*%
%LNBOTTOM*%
%ADD30C,1.500*%
%ADD29C,1.300*%
%ADD28C,0.965*%
%ADD27C,0.400*%
%ADD26C,1.524*%
%ADD25C,0.800*%
%ADD24C,1.700*%
%ADD23C,1.600*%
%ADD22C,0.254*%
%ADD21C,0.002*%
G54D21*G36*
X22917Y55500D02*X23700D01*
Y52385D01*
X23670Y52420D01*
X23659Y52430D01*
X22917Y53172D01*
Y53734D01*
X22929Y53740D01*
X22945Y53753D01*
X22958Y53767D01*
X22969Y53784D01*
X23014Y53871D01*
X23050Y53963D01*
X23077Y54057D01*
X23095Y54153D01*
X23104Y54251D01*
Y54349D01*
X23095Y54447D01*
X23077Y54543D01*
X23050Y54637D01*
X23014Y54729D01*
X22970Y54816D01*
X22959Y54833D01*
X22945Y54848D01*
X22930Y54860D01*
X22917Y54867D01*
Y55500D01*
G37*
G36*
Y31528D02*X23609Y32220D01*
X23620Y32230D01*
X23659Y32275D01*
X23659Y32275D01*
X23691Y32326D01*
X23700Y32349D01*
Y22550D01*
X22917D01*
Y31528D01*
G37*
G36*
X22050Y55500D02*X22917D01*
Y54867D01*
X22912Y54870D01*
X22893Y54877D01*
X22873Y54881D01*
X22853Y54882D01*
X22833Y54879D01*
X22814Y54874D01*
X22796Y54866D01*
X22779Y54854D01*
X22764Y54841D01*
X22752Y54825D01*
X22742Y54807D01*
X22735Y54788D01*
X22731Y54769D01*
X22730Y54749D01*
X22733Y54729D01*
X22738Y54709D01*
X22747Y54691D01*
X22781Y54625D01*
X22808Y54556D01*
X22828Y54484D01*
X22842Y54411D01*
X22849Y54337D01*
Y54263D01*
X22842Y54189D01*
X22828Y54116D01*
X22808Y54044D01*
X22781Y53975D01*
X22748Y53908D01*
X22739Y53891D01*
X22733Y53871D01*
X22731Y53851D01*
X22732Y53831D01*
X22736Y53812D01*
X22743Y53793D01*
X22752Y53776D01*
X22765Y53760D01*
X22779Y53746D01*
X22796Y53735D01*
X22814Y53727D01*
X22833Y53721D01*
X22853Y53719D01*
X22873Y53720D01*
X22893Y53724D01*
X22912Y53731D01*
X22917Y53734D01*
Y53172D01*
X22830Y53259D01*
X22820Y53270D01*
X22775Y53309D01*
X22724Y53341D01*
X22668Y53363D01*
X22610Y53377D01*
X22568Y53381D01*
X22583Y53391D01*
X22598Y53405D01*
X22610Y53420D01*
X22620Y53438D01*
X22627Y53457D01*
X22631Y53477D01*
X22632Y53497D01*
X22629Y53517D01*
X22624Y53536D01*
X22616Y53554D01*
X22604Y53571D01*
X22591Y53586D01*
X22575Y53598D01*
X22557Y53608D01*
X22538Y53615D01*
X22519Y53619D01*
X22499Y53620D01*
X22479Y53617D01*
X22459Y53612D01*
X22441Y53603D01*
X22375Y53569D01*
X22306Y53542D01*
X22234Y53522D01*
X22161Y53508D01*
X22087Y53501D01*
X22050D01*
Y55099D01*
X22087D01*
X22161Y55092D01*
X22234Y55078D01*
X22306Y55058D01*
X22375Y55031D01*
X22442Y54998D01*
X22459Y54989D01*
X22479Y54983D01*
X22499Y54981D01*
X22519Y54982D01*
X22538Y54986D01*
X22557Y54993D01*
X22574Y55002D01*
X22590Y55015D01*
X22604Y55029D01*
X22615Y55046D01*
X22623Y55064D01*
X22629Y55083D01*
X22631Y55103D01*
X22630Y55123D01*
X22626Y55143D01*
X22619Y55162D01*
X22610Y55179D01*
X22597Y55195D01*
X22583Y55208D01*
X22566Y55219D01*
X22479Y55264D01*
X22387Y55300D01*
X22293Y55327D01*
X22197Y55345D01*
X22099Y55354D01*
X22050D01*
Y55500D01*
G37*
G36*
Y30661D02*X22917Y31528D01*
Y22550D01*
X22050D01*
Y30661D01*
G37*
G36*
X21183Y55500D02*X22050D01*
Y55354D01*
X22001D01*
X21903Y55345D01*
X21807Y55327D01*
X21713Y55300D01*
X21621Y55264D01*
X21534Y55220D01*
X21517Y55209D01*
X21502Y55195D01*
X21490Y55180D01*
X21480Y55162D01*
X21473Y55143D01*
X21469Y55123D01*
X21468Y55103D01*
X21471Y55083D01*
X21476Y55064D01*
X21484Y55046D01*
X21496Y55029D01*
X21509Y55014D01*
X21525Y55002D01*
X21543Y54992D01*
X21562Y54985D01*
X21581Y54981D01*
X21601Y54980D01*
X21621Y54983D01*
X21641Y54988D01*
X21659Y54997D01*
X21725Y55031D01*
X21794Y55058D01*
X21866Y55078D01*
X21939Y55092D01*
X22013Y55099D01*
X22050D01*
Y53501D01*
X22013D01*
X21939Y53508D01*
X21866Y53522D01*
X21794Y53542D01*
X21725Y53569D01*
X21658Y53602D01*
X21641Y53611D01*
X21621Y53617D01*
X21601Y53619D01*
X21581Y53618D01*
X21562Y53614D01*
X21543Y53607D01*
X21526Y53598D01*
X21510Y53585D01*
X21496Y53571D01*
X21485Y53554D01*
X21477Y53536D01*
X21471Y53517D01*
X21469Y53497D01*
X21470Y53477D01*
X21474Y53457D01*
X21481Y53438D01*
X21490Y53421D01*
X21503Y53405D01*
X21517Y53392D01*
X21534Y53381D01*
X21183D01*
Y53733D01*
X21188Y53730D01*
X21207Y53723D01*
X21227Y53719D01*
X21247Y53718D01*
X21267Y53721D01*
X21286Y53726D01*
X21304Y53734D01*
X21321Y53746D01*
X21336Y53759D01*
X21348Y53775D01*
X21358Y53793D01*
X21365Y53812D01*
X21369Y53831D01*
X21370Y53851D01*
X21367Y53871D01*
X21362Y53891D01*
X21353Y53909D01*
X21319Y53975D01*
X21292Y54044D01*
X21272Y54116D01*
X21258Y54189D01*
X21251Y54263D01*
Y54337D01*
X21258Y54411D01*
X21272Y54484D01*
X21292Y54556D01*
X21319Y54625D01*
X21352Y54692D01*
X21361Y54709D01*
X21367Y54729D01*
X21369Y54749D01*
X21368Y54769D01*
X21364Y54788D01*
X21357Y54807D01*
X21348Y54824D01*
X21335Y54840D01*
X21321Y54854D01*
X21304Y54865D01*
X21286Y54873D01*
X21267Y54879D01*
X21247Y54881D01*
X21227Y54880D01*
X21207Y54876D01*
X21188Y54869D01*
X21183Y54866D01*
Y55500D01*
G37*
G36*
Y29794D02*X22050Y30661D01*
Y22550D01*
X21183D01*
Y29794D01*
G37*
G36*
Y52619D02*X21901D01*
X21836Y52564D01*
X21769Y52486D01*
X21715Y52398D01*
X21676Y52303D01*
X21652Y52203D01*
X21644Y52100D01*
X21652Y51997D01*
X21653Y51992D01*
X21183Y51522D01*
Y52619D01*
G37*
G36*
X12000Y24769D02*X16135D01*
X16150Y24768D01*
X16210Y24773D01*
X16210Y24773D01*
X16268Y24787D01*
X16324Y24809D01*
X16375Y24841D01*
X16420Y24880D01*
X16430Y24891D01*
X19709Y28170D01*
X19720Y28180D01*
X19759Y28225D01*
X19759Y28225D01*
X19769Y28241D01*
Y24508D01*
X19542Y24281D01*
X16184D01*
X16181Y24286D01*
X16114Y24364D01*
X16036Y24431D01*
X15948Y24485D01*
X15853Y24524D01*
X15753Y24548D01*
X15650Y24556D01*
X15547Y24548D01*
X15447Y24524D01*
X15352Y24485D01*
X15264Y24431D01*
X15186Y24364D01*
X15119Y24286D01*
X15065Y24198D01*
X15026Y24103D01*
X15002Y24003D01*
X14994Y23900D01*
X15002Y23797D01*
X15026Y23697D01*
X15065Y23602D01*
X15119Y23514D01*
X15186Y23436D01*
X15264Y23369D01*
X15352Y23315D01*
X15447Y23276D01*
X15547Y23252D01*
X15650Y23244D01*
X15753Y23252D01*
X15853Y23276D01*
X15948Y23315D01*
X16036Y23369D01*
X16114Y23436D01*
X16181Y23514D01*
X16184Y23519D01*
X19685D01*
X19700Y23518D01*
X19760Y23523D01*
X19760Y23523D01*
X19818Y23537D01*
X19874Y23559D01*
X19925Y23591D01*
X19970Y23630D01*
X19980Y23641D01*
X20409Y24070D01*
X20420Y24080D01*
X20459Y24125D01*
X20459Y24125D01*
X20491Y24176D01*
X20513Y24232D01*
X20527Y24290D01*
X20532Y24350D01*
X20531Y24365D01*
Y29092D01*
X21019Y29581D01*
X21059Y29625D01*
X21091Y29676D01*
X21108Y29720D01*
X21183Y29794D01*
Y22550D01*
X12000D01*
Y24769D01*
G37*
G36*
X19208Y52903D02*X19370Y52741D01*
X19380Y52730D01*
X19425Y52691D01*
X19476Y52659D01*
X19532Y52637D01*
X19590Y52623D01*
X19650Y52618D01*
X19665Y52619D01*
X21183D01*
Y51522D01*
X19041Y49380D01*
X19030Y49370D01*
X18991Y49325D01*
X18959Y49274D01*
X18937Y49218D01*
X18923Y49160D01*
X18923Y49160D01*
X18918Y49100D01*
X18919Y49085D01*
Y33615D01*
X18918Y33600D01*
X18923Y33540D01*
X18937Y33482D01*
X18959Y33426D01*
X18991Y33375D01*
X19030Y33330D01*
X19041Y33320D01*
X19069Y33292D01*
Y28608D01*
X15992Y25531D01*
X12911D01*
Y26601D01*
X12914Y26603D01*
X12930Y26615D01*
X12944Y26630D01*
X12955Y26646D01*
X13001Y26731D01*
X13038Y26821D01*
X13067Y26913D01*
X13088Y27007D01*
X13101Y27103D01*
X13105Y27200D01*
X13101Y27297D01*
X13088Y27393D01*
X13067Y27487D01*
X13038Y27579D01*
X13001Y27669D01*
X12956Y27754D01*
X12945Y27771D01*
X12931Y27785D01*
X12915Y27798D01*
X12911Y27800D01*
Y33450D01*
X18300D01*
Y55500D01*
X21183D01*
Y54866D01*
X21171Y54860D01*
X21155Y54847D01*
X21142Y54833D01*
X21131Y54816D01*
X21086Y54729D01*
X21050Y54637D01*
X21023Y54543D01*
X21005Y54447D01*
X20996Y54349D01*
Y54251D01*
X21005Y54153D01*
X21023Y54057D01*
X21050Y53963D01*
X21086Y53871D01*
X21130Y53784D01*
X21141Y53767D01*
X21155Y53752D01*
X21170Y53740D01*
X21183Y53733D01*
Y53381D01*
X19808D01*
X19747Y53442D01*
X19748Y53447D01*
X19754Y53550D01*
X19748Y53653D01*
X19724Y53753D01*
X19685Y53848D01*
X19631Y53936D01*
X19564Y54014D01*
X19486Y54081D01*
X19398Y54135D01*
X19303Y54174D01*
X19203Y54198D01*
X19100Y54206D01*
X18997Y54198D01*
X18897Y54174D01*
X18802Y54135D01*
X18714Y54081D01*
X18636Y54014D01*
X18569Y53936D01*
X18515Y53848D01*
X18476Y53753D01*
X18452Y53653D01*
X18444Y53550D01*
X18452Y53447D01*
X18476Y53347D01*
X18515Y53252D01*
X18569Y53164D01*
X18636Y53086D01*
X18714Y53019D01*
X18802Y52965D01*
X18897Y52926D01*
X18997Y52902D01*
X19100Y52894D01*
X19203Y52902D01*
X19208Y52903D01*
G37*
G36*
X12911Y25531D02*X12000D01*
Y26095D01*
X12097Y26099D01*
X12193Y26112D01*
X12287Y26133D01*
X12379Y26162D01*
X12469Y26199D01*
X12554Y26244D01*
X12571Y26255D01*
X12585Y26269D01*
X12598Y26285D01*
X12607Y26303D01*
X12614Y26322D01*
X12618Y26342D01*
X12618Y26362D01*
X12615Y26382D01*
X12610Y26401D01*
X12601Y26419D01*
X12590Y26436D01*
X12576Y26450D01*
X12560Y26462D01*
X12542Y26472D01*
X12523Y26479D01*
X12503Y26482D01*
X12483Y26483D01*
X12463Y26480D01*
X12444Y26474D01*
X12426Y26465D01*
X12360Y26430D01*
X12292Y26402D01*
X12221Y26379D01*
X12148Y26363D01*
X12074Y26353D01*
X12000Y26350D01*
Y28050D01*
X12074Y28047D01*
X12148Y28037D01*
X12221Y28021D01*
X12292Y27998D01*
X12360Y27970D01*
X12426Y27935D01*
X12444Y27926D01*
X12463Y27921D01*
X12483Y27918D01*
X12503Y27918D01*
X12523Y27922D01*
X12542Y27929D01*
X12559Y27938D01*
X12575Y27950D01*
X12589Y27965D01*
X12600Y27981D01*
X12609Y27999D01*
X12615Y28019D01*
X12617Y28038D01*
X12617Y28058D01*
X12613Y28078D01*
X12607Y28097D01*
X12597Y28114D01*
X12585Y28130D01*
X12570Y28144D01*
X12554Y28155D01*
X12469Y28201D01*
X12379Y28238D01*
X12287Y28267D01*
X12193Y28288D01*
X12097Y28301D01*
X12000Y28305D01*
Y33450D01*
X12911D01*
Y27800D01*
X12897Y27807D01*
X12878Y27814D01*
X12858Y27818D01*
X12838Y27818D01*
X12818Y27815D01*
X12799Y27810D01*
X12781Y27801D01*
X12764Y27790D01*
X12750Y27776D01*
X12738Y27760D01*
X12728Y27742D01*
X12721Y27723D01*
X12718Y27703D01*
X12717Y27683D01*
X12720Y27663D01*
X12726Y27644D01*
X12735Y27626D01*
X12770Y27560D01*
X12798Y27492D01*
X12821Y27421D01*
X12837Y27348D01*
X12847Y27274D01*
X12850Y27200D01*
X12847Y27126D01*
X12837Y27052D01*
X12821Y26979D01*
X12798Y26908D01*
X12770Y26840D01*
X12735Y26774D01*
X12726Y26756D01*
X12721Y26737D01*
X12718Y26717D01*
X12718Y26697D01*
X12722Y26677D01*
X12729Y26658D01*
X12738Y26641D01*
X12750Y26625D01*
X12765Y26611D01*
X12781Y26600D01*
X12799Y26591D01*
X12819Y26585D01*
X12838Y26583D01*
X12858Y26583D01*
X12878Y26587D01*
X12897Y26593D01*
X12911Y26601D01*
Y25531D01*
G37*
G36*
X11089Y23545D02*X11106Y23564D01*
X11160Y23652D01*
X11199Y23747D01*
X11223Y23847D01*
X11229Y23950D01*
X11223Y24053D01*
X11217Y24078D01*
X11908Y24769D01*
X12000D01*
Y22550D01*
X11089D01*
Y23545D01*
G37*
G36*
X12000Y25531D02*X11765D01*
X11750Y25532D01*
X11690Y25527D01*
X11632Y25513D01*
X11576Y25491D01*
X11525Y25459D01*
X11525Y25459D01*
X11480Y25420D01*
X11470Y25409D01*
X11089Y25028D01*
Y26600D01*
X11103Y26593D01*
X11122Y26586D01*
X11142Y26582D01*
X11162Y26582D01*
X11182Y26585D01*
X11201Y26590D01*
X11219Y26599D01*
X11236Y26610D01*
X11250Y26624D01*
X11262Y26640D01*
X11272Y26658D01*
X11279Y26677D01*
X11282Y26697D01*
X11283Y26717D01*
X11280Y26737D01*
X11274Y26756D01*
X11265Y26774D01*
X11230Y26840D01*
X11202Y26908D01*
X11179Y26979D01*
X11163Y27052D01*
X11153Y27126D01*
X11150Y27200D01*
X11153Y27274D01*
X11163Y27348D01*
X11179Y27421D01*
X11202Y27492D01*
X11230Y27560D01*
X11265Y27626D01*
X11274Y27644D01*
X11279Y27663D01*
X11282Y27683D01*
X11282Y27703D01*
X11278Y27723D01*
X11271Y27742D01*
X11262Y27759D01*
X11250Y27775D01*
X11235Y27789D01*
X11219Y27800D01*
X11201Y27809D01*
X11181Y27815D01*
X11162Y27817D01*
X11142Y27817D01*
X11122Y27813D01*
X11103Y27807D01*
X11089Y27799D01*
Y33450D01*
X12000D01*
Y28305D01*
X12000Y28305D01*
X11903Y28301D01*
X11807Y28288D01*
X11713Y28267D01*
X11621Y28238D01*
X11531Y28201D01*
X11446Y28156D01*
X11429Y28145D01*
X11415Y28131D01*
X11402Y28115D01*
X11393Y28097D01*
X11386Y28078D01*
X11382Y28058D01*
X11382Y28038D01*
X11385Y28018D01*
X11390Y27999D01*
X11399Y27981D01*
X11410Y27964D01*
X11424Y27950D01*
X11440Y27938D01*
X11458Y27928D01*
X11477Y27921D01*
X11497Y27918D01*
X11517Y27917D01*
X11537Y27920D01*
X11556Y27926D01*
X11574Y27935D01*
X11640Y27970D01*
X11708Y27998D01*
X11779Y28021D01*
X11852Y28037D01*
X11926Y28047D01*
X12000Y28050D01*
X12000Y28050D01*
Y26350D01*
X12000Y26350D01*
X11926Y26353D01*
X11852Y26363D01*
X11779Y26379D01*
X11708Y26402D01*
X11640Y26430D01*
X11574Y26465D01*
X11556Y26474D01*
X11537Y26479D01*
X11517Y26482D01*
X11497Y26482D01*
X11477Y26478D01*
X11458Y26471D01*
X11441Y26462D01*
X11425Y26450D01*
X11411Y26435D01*
X11400Y26419D01*
X11391Y26401D01*
X11385Y26381D01*
X11383Y26362D01*
X11383Y26342D01*
X11387Y26322D01*
X11393Y26303D01*
X11403Y26286D01*
X11415Y26270D01*
X11430Y26256D01*
X11446Y26245D01*
X11531Y26199D01*
X11621Y26162D01*
X11713Y26133D01*
X11807Y26112D01*
X11903Y26099D01*
X12000Y26095D01*
X12000Y26095D01*
Y25531D01*
G37*
G36*
X11089Y25028D02*X10660Y24599D01*
X10575Y24606D01*
X10472Y24598D01*
X10372Y24574D01*
X10277Y24535D01*
X10189Y24481D01*
X10111Y24414D01*
X10044Y24336D01*
X9990Y24248D01*
X9951Y24153D01*
X9927Y24053D01*
X9919Y23950D01*
X9927Y23847D01*
X9951Y23747D01*
X9990Y23652D01*
X10044Y23564D01*
X10111Y23486D01*
X10189Y23419D01*
X10277Y23365D01*
X10372Y23326D01*
X10472Y23302D01*
X10575Y23294D01*
X10678Y23302D01*
X10778Y23326D01*
X10873Y23365D01*
X10961Y23419D01*
X11039Y23486D01*
X11089Y23545D01*
Y22550D01*
X8011D01*
Y26601D01*
X8014Y26603D01*
X8030Y26615D01*
X8044Y26630D01*
X8055Y26646D01*
X8101Y26731D01*
X8138Y26821D01*
X8167Y26913D01*
X8188Y27007D01*
X8201Y27103D01*
X8205Y27200D01*
X8201Y27297D01*
X8188Y27393D01*
X8167Y27487D01*
X8138Y27579D01*
X8101Y27669D01*
X8056Y27754D01*
X8045Y27771D01*
X8031Y27785D01*
X8015Y27798D01*
X8011Y27800D01*
Y33450D01*
X11089D01*
Y27799D01*
X11086Y27797D01*
X11070Y27785D01*
X11056Y27770D01*
X11045Y27754D01*
X10999Y27669D01*
X10962Y27579D01*
X10933Y27487D01*
X10912Y27393D01*
X10899Y27297D01*
X10895Y27200D01*
X10899Y27103D01*
X10912Y27007D01*
X10933Y26913D01*
X10962Y26821D01*
X10999Y26731D01*
X11044Y26646D01*
X11055Y26629D01*
X11069Y26615D01*
X11085Y26602D01*
X11089Y26600D01*
Y25028D01*
G37*
G36*
X8011Y22550D02*X7100D01*
Y26095D01*
X7197Y26099D01*
X7293Y26112D01*
X7387Y26133D01*
X7479Y26162D01*
X7569Y26199D01*
X7654Y26244D01*
X7671Y26255D01*
X7685Y26269D01*
X7698Y26285D01*
X7707Y26303D01*
X7714Y26322D01*
X7718Y26342D01*
X7718Y26362D01*
X7715Y26382D01*
X7710Y26401D01*
X7701Y26419D01*
X7690Y26436D01*
X7676Y26450D01*
X7660Y26462D01*
X7642Y26472D01*
X7623Y26479D01*
X7603Y26482D01*
X7583Y26483D01*
X7563Y26480D01*
X7544Y26474D01*
X7526Y26465D01*
X7460Y26430D01*
X7392Y26402D01*
X7321Y26379D01*
X7248Y26363D01*
X7174Y26353D01*
X7100Y26350D01*
Y28050D01*
X7174Y28047D01*
X7248Y28037D01*
X7321Y28021D01*
X7392Y27998D01*
X7460Y27970D01*
X7526Y27935D01*
X7544Y27926D01*
X7563Y27921D01*
X7583Y27918D01*
X7603Y27918D01*
X7623Y27922D01*
X7642Y27929D01*
X7659Y27938D01*
X7675Y27950D01*
X7689Y27965D01*
X7700Y27981D01*
X7709Y27999D01*
X7715Y28019D01*
X7717Y28038D01*
X7717Y28058D01*
X7713Y28078D01*
X7707Y28097D01*
X7697Y28114D01*
X7685Y28130D01*
X7670Y28144D01*
X7654Y28155D01*
X7569Y28201D01*
X7479Y28238D01*
X7387Y28267D01*
X7293Y28288D01*
X7197Y28301D01*
X7100Y28305D01*
Y33450D01*
X8011D01*
Y27800D01*
X7997Y27807D01*
X7978Y27814D01*
X7958Y27818D01*
X7938Y27818D01*
X7918Y27815D01*
X7899Y27810D01*
X7881Y27801D01*
X7864Y27790D01*
X7850Y27776D01*
X7838Y27760D01*
X7828Y27742D01*
X7821Y27723D01*
X7818Y27703D01*
X7817Y27683D01*
X7820Y27663D01*
X7826Y27644D01*
X7835Y27626D01*
X7870Y27560D01*
X7898Y27492D01*
X7921Y27421D01*
X7937Y27348D01*
X7947Y27274D01*
X7950Y27200D01*
X7947Y27126D01*
X7937Y27052D01*
X7921Y26979D01*
X7898Y26908D01*
X7870Y26840D01*
X7835Y26774D01*
X7826Y26756D01*
X7821Y26737D01*
X7818Y26717D01*
X7818Y26697D01*
X7822Y26677D01*
X7829Y26658D01*
X7838Y26641D01*
X7850Y26625D01*
X7865Y26611D01*
X7881Y26600D01*
X7899Y26591D01*
X7919Y26585D01*
X7938Y26583D01*
X7958Y26583D01*
X7978Y26587D01*
X7997Y26593D01*
X8011Y26601D01*
Y22550D01*
G37*
G36*
X7100D02*X6189D01*
Y26600D01*
X6203Y26593D01*
X6222Y26586D01*
X6242Y26582D01*
X6262Y26582D01*
X6282Y26585D01*
X6301Y26590D01*
X6319Y26599D01*
X6336Y26610D01*
X6350Y26624D01*
X6362Y26640D01*
X6372Y26658D01*
X6379Y26677D01*
X6382Y26697D01*
X6383Y26717D01*
X6380Y26737D01*
X6374Y26756D01*
X6365Y26774D01*
X6330Y26840D01*
X6302Y26908D01*
X6279Y26979D01*
X6263Y27052D01*
X6253Y27126D01*
X6250Y27200D01*
X6253Y27274D01*
X6263Y27348D01*
X6279Y27421D01*
X6302Y27492D01*
X6330Y27560D01*
X6365Y27626D01*
X6374Y27644D01*
X6379Y27663D01*
X6382Y27683D01*
X6382Y27703D01*
X6378Y27723D01*
X6371Y27742D01*
X6362Y27759D01*
X6350Y27775D01*
X6335Y27789D01*
X6319Y27800D01*
X6301Y27809D01*
X6281Y27815D01*
X6262Y27817D01*
X6242Y27817D01*
X6222Y27813D01*
X6203Y27807D01*
X6189Y27799D01*
Y33450D01*
X7100D01*
Y28305D01*
X7100Y28305D01*
X7003Y28301D01*
X6907Y28288D01*
X6813Y28267D01*
X6721Y28238D01*
X6631Y28201D01*
X6546Y28156D01*
X6529Y28145D01*
X6515Y28131D01*
X6502Y28115D01*
X6493Y28097D01*
X6486Y28078D01*
X6482Y28058D01*
X6482Y28038D01*
X6485Y28018D01*
X6490Y27999D01*
X6499Y27981D01*
X6510Y27964D01*
X6524Y27950D01*
X6540Y27938D01*
X6558Y27928D01*
X6577Y27921D01*
X6597Y27918D01*
X6617Y27917D01*
X6637Y27920D01*
X6656Y27926D01*
X6674Y27935D01*
X6740Y27970D01*
X6808Y27998D01*
X6879Y28021D01*
X6952Y28037D01*
X7026Y28047D01*
X7100Y28050D01*
X7100Y28050D01*
Y26350D01*
X7100Y26350D01*
X7026Y26353D01*
X6952Y26363D01*
X6879Y26379D01*
X6808Y26402D01*
X6740Y26430D01*
X6674Y26465D01*
X6656Y26474D01*
X6637Y26479D01*
X6617Y26482D01*
X6597Y26482D01*
X6577Y26478D01*
X6558Y26471D01*
X6541Y26462D01*
X6525Y26450D01*
X6511Y26435D01*
X6500Y26419D01*
X6491Y26401D01*
X6485Y26381D01*
X6483Y26362D01*
X6483Y26342D01*
X6487Y26322D01*
X6493Y26303D01*
X6503Y26286D01*
X6515Y26270D01*
X6530Y26256D01*
X6546Y26245D01*
X6631Y26199D01*
X6721Y26162D01*
X6813Y26133D01*
X6907Y26112D01*
X7003Y26099D01*
X7100Y26095D01*
X7100Y26095D01*
Y22550D01*
G37*
G36*
X6189D02*X3798D01*
Y22781D01*
X3800Y22781D01*
X3959Y22793D01*
X4115Y22831D01*
X4263Y22892D01*
X4399Y22976D01*
X4521Y23079D01*
X4624Y23201D01*
X4708Y23337D01*
X4769Y23485D01*
X4807Y23641D01*
X4816Y23800D01*
X4807Y23959D01*
X4769Y24115D01*
X4708Y24263D01*
X4624Y24399D01*
X4521Y24521D01*
X4399Y24624D01*
X4263Y24708D01*
X4115Y24769D01*
X3959Y24807D01*
X3800Y24819D01*
X3798Y24819D01*
Y33450D01*
X6189D01*
Y27799D01*
X6186Y27797D01*
X6170Y27785D01*
X6156Y27770D01*
X6145Y27754D01*
X6099Y27669D01*
X6062Y27579D01*
X6033Y27487D01*
X6012Y27393D01*
X5999Y27297D01*
X5995Y27200D01*
X5999Y27103D01*
X6012Y27007D01*
X6033Y26913D01*
X6062Y26821D01*
X6099Y26731D01*
X6144Y26646D01*
X6155Y26629D01*
X6169Y26615D01*
X6185Y26602D01*
X6189Y26600D01*
Y22550D01*
G37*
G36*
X3798D02*X3100D01*
X2400Y22700D01*
X1500Y23250D01*
X950Y24000D01*
X700Y24900D01*
Y33450D01*
X3798D01*
Y24819D01*
X3641Y24807D01*
X3485Y24769D01*
X3337Y24708D01*
X3201Y24624D01*
X3079Y24521D01*
X2976Y24399D01*
X2892Y24263D01*
X2831Y24115D01*
X2793Y23959D01*
X2781Y23800D01*
X2793Y23641D01*
X2831Y23485D01*
X2892Y23337D01*
X2976Y23201D01*
X3079Y23079D01*
X3201Y22976D01*
X3337Y22892D01*
X3485Y22831D01*
X3641Y22793D01*
X3798Y22781D01*
Y22550D01*
G37*
G54D22*X23350Y32500D02*X20750Y29900D01*
Y29850D02*X20150Y29250D01*
X19700Y23900D02*X15650D01*
X19450Y28450D02*Y29550D01*
Y28450D02*X16150Y25150D01*
X20700Y34000D02*X21450Y33250D01*
X22300D01*
X20150Y29250D02*Y24350D01*
X19700Y23900D01*
X19300Y33600D02*X19450Y33450D01*
Y29500D01*
X20000Y33950D02*X20500Y33450D01*
Y32150D01*
X16150Y25150D02*X11750D01*
X10550Y23950D01*
X23400Y45500D02*X22500Y44600D01*
X23350Y43750D01*
Y32500D01*
X19100Y53550D02*X19650Y53000D01*
X22550D01*
X23400Y52150D01*
Y45500D01*
X22300Y50550D02*X20000Y48250D01*
X22300Y52100D02*X19300Y49100D01*
X21050Y44750D02*X20750Y44450D01*
X20700Y44400D02*Y34000D01*
X20000Y48250D02*Y33950D01*
X19300Y49100D02*Y33600D01*
G54D23*X22050Y47650D03*
Y54300D03*
Y35050D03*
Y41700D03*
G54D24*X7100Y27200D03*
X12000D03*
G54D25*X22300Y33250D03*
X15650Y23900D03*
X10575Y23950D03*
X20500Y32150D03*
X22300Y52100D03*
X21050Y44750D03*
X22550D03*
X19100Y53550D03*
X22300Y50550D03*
G54D26*X3800Y23800D03*
G54D27*G54D28*G54D29*G54D30*M02*
